G04*
G04 #@! TF.GenerationSoftware,Altium Limited,Altium Designer,20.1.12 (249)*
G04*
G04 Layer_Color=32768*
%FSLAX25Y25*%
%MOIN*%
G70*
G04*
G04 #@! TF.SameCoordinates,99628C8E-7468-4988-8CC2-48D13434FF55*
G04*
G04*
G04 #@! TF.FilePolarity,Positive*
G04*
G01*
G75*
%ADD12C,0.00787*%
%ADD35C,0.00394*%
%ADD36C,0.00197*%
D12*
X22524Y30307D02*
X47327D01*
Y49599D01*
X22524D02*
X47327D01*
X22524Y30307D02*
Y49599D01*
X41138Y16776D02*
X45862D01*
Y26224D01*
X41138D02*
X45862D01*
X41138Y16776D02*
Y26224D01*
X26138Y26087D02*
X30862D01*
X26138Y16638D02*
Y26087D01*
Y16638D02*
X30862D01*
Y26087D01*
D35*
X54000Y52709D02*
Y56646D01*
X52031Y54677D02*
X55968D01*
X54000Y39197D02*
Y43134D01*
X52031Y41165D02*
X55968D01*
X36000Y19492D02*
Y23232D01*
X34130Y21362D02*
X37870D01*
X54000Y26551D02*
Y30291D01*
X52130Y28421D02*
X55870D01*
X17441Y34110D02*
Y37850D01*
X15571Y35980D02*
X19311D01*
X17441Y45169D02*
Y48909D01*
X15571Y47039D02*
X19311D01*
X34441Y70236D02*
Y74173D01*
X32472Y72205D02*
X36409D01*
X20441Y67150D02*
Y70693D01*
X18669Y68921D02*
X22213D01*
X48941Y66650D02*
Y70193D01*
X47169Y68421D02*
X50713D01*
D36*
X49866Y47984D02*
X58134D01*
X49866Y61370D02*
X58134D01*
X49866Y47984D02*
Y61370D01*
X58134Y47984D02*
Y61370D01*
X49866Y47858D02*
X58134D01*
X49866Y34472D02*
X58134D01*
Y47858D01*
X49866Y34472D02*
Y47858D01*
X33638Y25890D02*
X38362D01*
X33638Y16835D02*
X38362D01*
Y25890D01*
X33638Y16835D02*
Y25890D01*
X51638Y23894D02*
X56362D01*
X51638Y32949D02*
X56362D01*
X51638Y23894D02*
Y32949D01*
X56362Y23894D02*
Y32949D01*
X15079Y40508D02*
X19803D01*
X15079Y31453D02*
X19803D01*
Y40508D01*
X15079Y31453D02*
Y40508D01*
Y51567D02*
X19803D01*
X15079Y42512D02*
X19803D01*
Y51567D01*
X15079Y42512D02*
Y51567D01*
X24008Y56063D02*
Y88346D01*
X44874D01*
Y56063D02*
Y88346D01*
X24008Y56063D02*
X44874D01*
X17488Y74236D02*
X23394D01*
X17488Y63606D02*
X23394D01*
Y74236D01*
X17488Y63606D02*
Y74236D01*
X45988Y73736D02*
X51894D01*
X45988Y63106D02*
X51894D01*
Y73736D01*
X45988Y63106D02*
Y73736D01*
M02*
