G04*
G04 #@! TF.GenerationSoftware,Altium Limited,Altium Designer,20.1.12 (249)*
G04*
G04 Layer_Color=16711935*
%FSLAX25Y25*%
%MOIN*%
G70*
G04*
G04 #@! TF.SameCoordinates,99628C8E-7468-4988-8CC2-48D13434FF55*
G04*
G04*
G04 #@! TF.FilePolarity,Positive*
G04*
G01*
G75*
%ADD12C,0.00787*%
%ADD35C,0.00394*%
D12*
X24492Y32276D02*
X45358D01*
Y47630D01*
X24492D02*
X45358D01*
X24492Y32276D02*
Y47630D01*
X41630Y18055D02*
X45370D01*
Y24945D01*
X41630D02*
X45370D01*
X41630Y18055D02*
Y24945D01*
X26630Y24807D02*
X30370D01*
X26630Y17917D02*
Y24807D01*
Y17917D02*
X30370D01*
Y24807D01*
D35*
X52031Y51134D02*
X55968D01*
X52031Y58220D02*
X55968D01*
X52031Y51134D02*
Y58220D01*
X55968Y51134D02*
Y58220D01*
X52031Y44709D02*
X55968D01*
X52031Y37622D02*
X55968D01*
Y44709D01*
X52031Y37622D02*
Y44709D01*
X34130Y24807D02*
X37870D01*
X34130Y17917D02*
X37870D01*
Y24807D01*
X34130Y17917D02*
Y24807D01*
X52130Y24976D02*
X55870D01*
X52130Y31866D02*
X55870D01*
X52130Y24976D02*
Y31866D01*
X55870Y24976D02*
Y31866D01*
X15571Y39425D02*
X19311D01*
X15571Y32535D02*
X19311D01*
Y39425D01*
X15571Y32535D02*
Y39425D01*
Y50484D02*
X19311D01*
X15571Y43595D02*
X19311D01*
Y50484D01*
X15571Y43595D02*
Y50484D01*
X26961Y56457D02*
Y87953D01*
X41921D01*
Y56457D02*
Y87953D01*
X26961Y56457D02*
X41921D01*
X18669Y72268D02*
X22213D01*
X18669Y65575D02*
X22213D01*
Y72268D01*
X18669Y65575D02*
Y72268D01*
X47169Y71768D02*
X50713D01*
X47169Y65075D02*
X50713D01*
Y71768D01*
X47169Y65075D02*
Y71768D01*
M02*
