M48
;Layer_Color=9474304
;FILE_FORMAT=2:5
INCH,TZ
;TYPE=PLATED
T1F00S00C0.01200
T2F00S00C0.03543
T3F00S00C0.10000
%
T01
X39352Y27214
X49000Y30000
X54000Y34921
X36000Y37500
X35000Y42500
X40133Y42229
X31500Y40500
X49500Y57500
T02
X7000Y35500
Y45500
Y55500
Y65500
X65500Y70000
Y60000
Y50000
Y40000
Y30000
T03
X10000Y10000
X62500
Y89000
X10000
M30
