G04*
G04 #@! TF.GenerationSoftware,Altium Limited,Altium Designer,20.1.12 (249)*
G04*
G04 Layer_Color=65535*
%FSLAX25Y25*%
%MOIN*%
G70*
G04*
G04 #@! TF.SameCoordinates,99628C8E-7468-4988-8CC2-48D13434FF55*
G04*
G04*
G04 #@! TF.FilePolarity,Positive*
G04*
G01*
G75*
%ADD10C,0.00984*%
%ADD11C,0.00500*%
%ADD12C,0.00787*%
%ADD13C,0.00400*%
D10*
X26559Y50977D02*
G03*
X26559Y50977I-492J0D01*
G01*
X47138Y61378D02*
G03*
X47138Y61378I-492J0D01*
G01*
D11*
X32500Y3500D02*
X33500Y2500D01*
X38500Y9500D02*
X39500Y10500D01*
X40500Y9500D01*
X32500Y3500D02*
X33500Y4500D01*
X32500Y3500D02*
X39500D01*
Y10500D01*
X29442Y68704D02*
X31441Y65705D01*
Y68704D02*
X29442Y65705D01*
X32441D02*
X33440D01*
X32941D01*
Y68704D01*
X32441Y68204D01*
X30441Y37705D02*
X32941D01*
X33440Y38205D01*
Y39205D01*
X32941Y39705D01*
X30441D01*
X33440Y40704D02*
Y41704D01*
Y41204D01*
X30441D01*
X30941Y40704D01*
X19001Y52000D02*
Y55000D01*
X20500D01*
X21000Y54500D01*
Y53500D01*
X20500Y53000D01*
X19001D01*
X20000D02*
X21000Y52000D01*
X22000Y55000D02*
X23999D01*
Y54500D01*
X22000Y52500D01*
Y52000D01*
X50999Y24981D02*
X48000D01*
Y26481D01*
X48500Y26981D01*
X49500D01*
X50000Y26481D01*
Y24981D01*
Y25981D02*
X50999Y26981D01*
X48000Y29980D02*
X48500Y28980D01*
X49500Y27980D01*
X50500D01*
X50999Y28480D01*
Y29480D01*
X50500Y29980D01*
X50000D01*
X49500Y29480D01*
Y27980D01*
X15942Y26481D02*
Y29480D01*
X17441D01*
X17941Y28980D01*
Y27980D01*
X17441Y27481D01*
X15942D01*
X16941D02*
X17941Y26481D01*
X20940Y29480D02*
X18941D01*
Y27980D01*
X19940Y28480D01*
X20440D01*
X20940Y27980D01*
Y26981D01*
X20440Y26481D01*
X19441D01*
X18941Y26981D01*
X34001Y12422D02*
Y15421D01*
X35500D01*
X36000Y14921D01*
Y13921D01*
X35500Y13421D01*
X34001D01*
X35001D02*
X36000Y12422D01*
X37000Y14921D02*
X37500Y15421D01*
X38499D01*
X38999Y14921D01*
Y14421D01*
X38499Y13921D01*
X37999D01*
X38499D01*
X38999Y13421D01*
Y12922D01*
X38499Y12422D01*
X37500D01*
X37000Y12922D01*
X50999Y37922D02*
X48000D01*
Y39422D01*
X48500Y39921D01*
X49500D01*
X50000Y39422D01*
Y37922D01*
Y38922D02*
X50999Y39921D01*
Y42920D02*
Y40921D01*
X49000Y42920D01*
X48500D01*
X48000Y42421D01*
Y41421D01*
X48500Y40921D01*
X49559Y51178D02*
X46560D01*
Y52677D01*
X47059Y53177D01*
X48059D01*
X48559Y52677D01*
Y51178D01*
Y52178D02*
X49559Y53177D01*
Y54177D02*
Y55177D01*
Y54677D01*
X46560D01*
X47059Y54177D01*
X4501Y71500D02*
Y74499D01*
X6000D01*
X6500Y74000D01*
Y73000D01*
X6000Y72500D01*
X4501D01*
X9499Y71500D02*
X7500D01*
X9499Y73500D01*
Y74000D01*
X8999Y74499D01*
X8000D01*
X7500Y74000D01*
X66501Y76500D02*
Y79500D01*
X68000D01*
X68500Y79000D01*
Y78000D01*
X68000Y77500D01*
X66501D01*
X69500Y76500D02*
X70499D01*
X69999D01*
Y79500D01*
X69500Y79000D01*
X27500Y15224D02*
X27000Y15724D01*
X26001D01*
X25501Y15224D01*
Y13225D01*
X26001Y12725D01*
X27000D01*
X27500Y13225D01*
X29999Y12725D02*
Y15724D01*
X28500Y14224D01*
X30499D01*
X21000Y78921D02*
X20500Y79421D01*
X19501D01*
X19001Y78921D01*
Y76922D01*
X19501Y76422D01*
X20500D01*
X21000Y76922D01*
X22000Y78921D02*
X22500Y79421D01*
X23499D01*
X23999Y78921D01*
Y78421D01*
X23499Y77921D01*
X22999D01*
X23499D01*
X23999Y77421D01*
Y76922D01*
X23499Y76422D01*
X22500D01*
X22000Y76922D01*
X49000Y78421D02*
X48500Y78921D01*
X47501D01*
X47001Y78421D01*
Y76422D01*
X47501Y75922D01*
X48500D01*
X49000Y76422D01*
X51999Y75922D02*
X50000D01*
X51999Y77921D01*
Y78421D01*
X51499Y78921D01*
X50500D01*
X50000Y78421D01*
X44000Y15500D02*
X43500Y16000D01*
X42500D01*
X42001Y15500D01*
Y13500D01*
X42500Y13001D01*
X43500D01*
X44000Y13500D01*
X45000Y13001D02*
X45999D01*
X45500D01*
Y16000D01*
X45000Y15500D01*
D12*
X23114Y30898D02*
X46736D01*
Y49008D01*
X23114D02*
X46736D01*
X23114Y30898D02*
Y49008D01*
X46858Y18076D02*
Y24966D01*
X40154Y18055D02*
Y24945D01*
X60500Y25000D02*
X70500D01*
X60500D02*
Y75000D01*
X70500Y25000D02*
Y75000D01*
X60500D02*
X70500D01*
X26961Y65512D02*
Y78898D01*
X41921Y65512D02*
Y78898D01*
X26961Y87165D02*
Y87953D01*
X41921D01*
Y87165D02*
Y87953D01*
X26961Y56457D02*
Y57244D01*
Y56457D02*
X41921D01*
Y57244D01*
X25142Y17896D02*
Y24786D01*
X31846Y17917D02*
Y24807D01*
X2000Y30500D02*
X12000D01*
X2000D02*
Y70500D01*
X12000Y30500D02*
Y70500D01*
X2000D02*
X12000D01*
D13*
X15600Y60900D02*
X13934D01*
X13101Y61733D01*
X13934Y62566D01*
X15600D01*
X14350D01*
Y60900D01*
X13101Y63399D02*
X15600D01*
Y64649D01*
X15183Y65065D01*
X13517D01*
X13101Y64649D01*
Y63399D01*
Y65898D02*
X15600D01*
Y67148D01*
X15183Y67564D01*
X13517D01*
X13101Y67148D01*
Y65898D01*
X15600Y68398D02*
X13101D01*
Y69647D01*
X13517Y70064D01*
X14350D01*
X14767Y69647D01*
Y68398D01*
Y69231D02*
X15600Y70064D01*
X34900Y6899D02*
Y5650D01*
X35317Y5233D01*
X36566D01*
Y4817D01*
X36150Y4400D01*
X35733D01*
X36566Y5233D02*
Y6899D01*
X57517Y36900D02*
X57101Y37317D01*
Y38150D01*
X57517Y38566D01*
X57934D01*
X58350Y38150D01*
Y37733D01*
Y38150D01*
X58767Y38566D01*
X59184D01*
X59600Y38150D01*
Y37317D01*
X59184Y36900D01*
X57101Y39399D02*
X58767D01*
X59600Y40232D01*
X58767Y41065D01*
X57101D01*
X57517Y41898D02*
X57101Y42315D01*
Y43148D01*
X57517Y43565D01*
X57934D01*
X58350Y43148D01*
Y42731D01*
Y43148D01*
X58767Y43565D01*
X59184D01*
X59600Y43148D01*
Y42315D01*
X59184Y41898D01*
X41400Y10066D02*
X43066Y8400D01*
X42233Y9233D01*
X43066Y10066D01*
X41400Y8400D01*
X57517Y28566D02*
X57101Y28150D01*
Y27317D01*
X57517Y26900D01*
X59184D01*
X59600Y27317D01*
Y28150D01*
X59184Y28566D01*
X58350D01*
Y27733D01*
X59600Y29399D02*
X57101D01*
X59600Y31065D01*
X57101D01*
Y31898D02*
X59600D01*
Y33148D01*
X59184Y33564D01*
X57517D01*
X57101Y33148D01*
Y31898D01*
X57517Y48566D02*
X57101Y48150D01*
Y47317D01*
X57517Y46900D01*
X57934D01*
X58350Y47317D01*
Y48150D01*
X58767Y48566D01*
X59184D01*
X59600Y48150D01*
Y47317D01*
X59184Y46900D01*
X57517Y51065D02*
X57101Y50649D01*
Y49816D01*
X57517Y49399D01*
X59184D01*
X59600Y49816D01*
Y50649D01*
X59184Y51065D01*
X57101Y51898D02*
X59600D01*
Y53565D01*
X13601Y52400D02*
Y53233D01*
Y52816D01*
X16100D01*
Y52400D01*
Y53233D01*
Y54483D02*
X13601D01*
X16100Y56149D01*
X13601D01*
Y56982D02*
Y58648D01*
Y57815D01*
X16100D01*
X59100Y67400D02*
X56601D01*
Y68650D01*
X57017Y69066D01*
X57850D01*
X58267Y68650D01*
Y67400D01*
Y68233D02*
X59100Y69066D01*
X56601Y71565D02*
Y69899D01*
X59100D01*
Y71565D01*
X57850Y69899D02*
Y70732D01*
X56601Y72398D02*
Y74064D01*
Y73232D01*
X59100D01*
X57517Y58066D02*
X57101Y57650D01*
Y56817D01*
X57517Y56400D01*
X57934D01*
X58350Y56817D01*
Y57650D01*
X58767Y58066D01*
X59184D01*
X59600Y57650D01*
Y56817D01*
X59184Y56400D01*
X57101Y58899D02*
X59600D01*
Y60149D01*
X59184Y60565D01*
X57517D01*
X57101Y60149D01*
Y58899D01*
X59600Y61398D02*
X57934D01*
X57101Y62231D01*
X57934Y63064D01*
X59600D01*
X58350D01*
Y61398D01*
X40900Y4566D02*
X42566D01*
X40900Y2900D01*
X42566D01*
X15100Y42400D02*
X12601D01*
Y43650D01*
X13017Y44066D01*
X13850D01*
X14267Y43650D01*
Y42400D01*
X13017Y46565D02*
X12601Y46149D01*
Y45316D01*
X13017Y44899D01*
X13434D01*
X13850Y45316D01*
Y46149D01*
X14267Y46565D01*
X14683D01*
X15100Y46149D01*
Y45316D01*
X14683Y44899D01*
X15100Y47398D02*
Y48231D01*
Y47815D01*
X12601D01*
X13017Y47398D01*
X15100Y32900D02*
X12601D01*
Y34150D01*
X13017Y34566D01*
X13850D01*
X14267Y34150D01*
Y32900D01*
X13017Y37065D02*
X12601Y36649D01*
Y35816D01*
X13017Y35399D01*
X13434D01*
X13850Y35816D01*
Y36649D01*
X14267Y37065D01*
X14683D01*
X15100Y36649D01*
Y35816D01*
X14683Y35399D01*
X13017Y37898D02*
X12601Y38315D01*
Y39148D01*
X13017Y39564D01*
X14683D01*
X15100Y39148D01*
Y38315D01*
X14683Y37898D01*
X13017D01*
M02*
