G04*
G04 #@! TF.GenerationSoftware,Altium Limited,Altium Designer,20.1.12 (249)*
G04*
G04 Layer_Color=255*
%FSLAX25Y25*%
%MOIN*%
G70*
G04*
G04 #@! TF.SameCoordinates,D1749837-0096-4F70-BC88-1939EB490A75*
G04*
G04*
G04 #@! TF.FilePolarity,Positive*
G04*
G01*
G75*
%ADD103C,0.05118*%
%ADD104R,0.05118X0.05118*%
%ADD105C,0.05906*%
%ADD106R,0.05906X0.05906*%
%ADD107R,0.05906X0.05906*%
%ADD108C,0.06299*%
%ADD109R,0.06299X0.06299*%
%ADD110C,0.22000*%
%ADD112R,0.13780X0.03740*%
%ADD113R,0.35433X0.40748*%
D103*
X309000Y192000D02*
D03*
Y218000D02*
D03*
D104*
X299158Y192000D02*
D03*
Y218000D02*
D03*
D105*
X300500Y349000D02*
D03*
X290500D02*
D03*
X280500D02*
D03*
X270500D02*
D03*
X260500D02*
D03*
X344079Y331035D02*
D03*
Y321035D02*
D03*
Y311035D02*
D03*
Y301035D02*
D03*
Y291035D02*
D03*
Y281035D02*
D03*
Y271035D02*
D03*
Y261035D02*
D03*
Y251035D02*
D03*
Y241035D02*
D03*
Y231035D02*
D03*
Y221035D02*
D03*
Y211035D02*
D03*
Y201035D02*
D03*
Y191035D02*
D03*
X334079Y331035D02*
D03*
Y321035D02*
D03*
Y311035D02*
D03*
Y301035D02*
D03*
Y291035D02*
D03*
Y281035D02*
D03*
Y271035D02*
D03*
Y261035D02*
D03*
Y251035D02*
D03*
Y241035D02*
D03*
Y231035D02*
D03*
Y221035D02*
D03*
Y211035D02*
D03*
Y201035D02*
D03*
Y191035D02*
D03*
X324079Y331035D02*
D03*
Y321035D02*
D03*
Y311035D02*
D03*
Y301035D02*
D03*
Y291035D02*
D03*
Y281035D02*
D03*
Y271035D02*
D03*
Y261035D02*
D03*
Y251035D02*
D03*
Y241035D02*
D03*
Y231035D02*
D03*
Y221035D02*
D03*
Y211035D02*
D03*
Y201035D02*
D03*
Y191035D02*
D03*
X266500Y335500D02*
D03*
X276500D02*
D03*
X286500D02*
D03*
X133500Y216500D02*
D03*
X143500Y226500D02*
D03*
X133500D02*
D03*
X143500Y236500D02*
D03*
X133500D02*
D03*
X143500Y246500D02*
D03*
X133500D02*
D03*
X143500Y256500D02*
D03*
X133500D02*
D03*
X143500Y266500D02*
D03*
X133500D02*
D03*
X143500Y276500D02*
D03*
X133500D02*
D03*
X143500Y286500D02*
D03*
X133500D02*
D03*
X143500Y296500D02*
D03*
X133500D02*
D03*
X143500Y306500D02*
D03*
X133500D02*
D03*
X143500Y316500D02*
D03*
X133500D02*
D03*
X143500Y326500D02*
D03*
X133500D02*
D03*
X143500Y336500D02*
D03*
X133500D02*
D03*
X188000Y115500D02*
D03*
X178000D02*
D03*
X168000D02*
D03*
X286500Y323000D02*
D03*
X276500D02*
D03*
X266500D02*
D03*
D106*
X250500Y349000D02*
D03*
X256500Y335500D02*
D03*
X158000Y115500D02*
D03*
X256500Y323000D02*
D03*
D107*
X344079Y181035D02*
D03*
X334079D02*
D03*
X324079D02*
D03*
X143500Y216500D02*
D03*
D108*
X333000Y159343D02*
D03*
D109*
Y139657D02*
D03*
D110*
X338000Y113000D02*
D03*
Y353000D02*
D03*
X136500D02*
D03*
Y113000D02*
D03*
D112*
X283386Y160000D02*
D03*
Y140000D02*
D03*
X284386Y204500D02*
D03*
Y184500D02*
D03*
D113*
X245000Y150000D02*
D03*
X246000Y194500D02*
D03*
M02*
