G04*
G04 #@! TF.GenerationSoftware,Altium Limited,Altium Designer,20.1.12 (249)*
G04*
G04 Layer_Color=16711935*
%FSLAX25Y25*%
%MOIN*%
G70*
G04*
G04 #@! TF.SameCoordinates,D1749837-0096-4F70-BC88-1939EB490A75*
G04*
G04*
G04 #@! TF.FilePolarity,Positive*
G04*
G01*
G75*
%ADD10C,0.00787*%
G36*
X206867Y297406D02*
X206547D01*
Y299513D01*
X205811Y297406D01*
X205513D01*
X204785Y299549D01*
Y297406D01*
X204465D01*
Y299924D01*
X204963D01*
X205560Y298137D01*
Y298133D01*
X205564Y298126D01*
X205567Y298115D01*
X205575Y298097D01*
X205589Y298053D01*
X205608Y297999D01*
X205626Y297937D01*
X205647Y297875D01*
X205666Y297817D01*
X205680Y297766D01*
X205684Y297773D01*
X205688Y297791D01*
X205698Y297824D01*
X205713Y297868D01*
X205731Y297926D01*
X205757Y297995D01*
X205782Y298075D01*
X205815Y298170D01*
X206419Y299924D01*
X206867D01*
Y297406D01*
D02*
G37*
G36*
X210987D02*
X210678D01*
Y299375D01*
X210674Y299371D01*
X210656Y299357D01*
X210634Y299335D01*
X210598Y299309D01*
X210558Y299276D01*
X210507Y299240D01*
X210449Y299200D01*
X210383Y299160D01*
X210380D01*
X210376Y299156D01*
X210354Y299142D01*
X210318Y299124D01*
X210274Y299102D01*
X210223Y299076D01*
X210168Y299051D01*
X210114Y299025D01*
X210059Y299003D01*
Y299302D01*
X210063D01*
X210070Y299309D01*
X210085Y299313D01*
X210103Y299324D01*
X210125Y299335D01*
X210150Y299349D01*
X210212Y299386D01*
X210285Y299426D01*
X210358Y299477D01*
X210434Y299535D01*
X210511Y299597D01*
X210514Y299600D01*
X210518Y299604D01*
X210529Y299615D01*
X210543Y299626D01*
X210576Y299662D01*
X210620Y299706D01*
X210663Y299757D01*
X210711Y299815D01*
X210751Y299873D01*
X210787Y299935D01*
X210987D01*
Y297406D01*
D02*
G37*
G36*
X208443Y299921D02*
X208516Y299917D01*
X208589Y299910D01*
X208661Y299899D01*
X208723Y299888D01*
X208727D01*
X208734Y299884D01*
X208745D01*
X208760Y299877D01*
X208800Y299866D01*
X208851Y299848D01*
X208909Y299822D01*
X208971Y299790D01*
X209033Y299753D01*
X209091Y299706D01*
X209095Y299702D01*
X209098Y299699D01*
X209109Y299688D01*
X209124Y299677D01*
X209160Y299640D01*
X209204Y299589D01*
X209251Y299528D01*
X209302Y299455D01*
X209349Y299371D01*
X209389Y299276D01*
Y299273D01*
X209393Y299266D01*
X209400Y299251D01*
X209404Y299229D01*
X209415Y299204D01*
X209422Y299174D01*
X209430Y299142D01*
X209440Y299102D01*
X209451Y299062D01*
X209459Y299014D01*
X209477Y298912D01*
X209488Y298800D01*
X209491Y298676D01*
Y298672D01*
Y298665D01*
Y298647D01*
Y298628D01*
X209488Y298603D01*
Y298574D01*
X209484Y298505D01*
X209473Y298425D01*
X209462Y298341D01*
X209444Y298254D01*
X209422Y298166D01*
Y298163D01*
X209419Y298155D01*
X209415Y298144D01*
X209411Y298130D01*
X209397Y298090D01*
X209375Y298039D01*
X209353Y297981D01*
X209324Y297922D01*
X209288Y297861D01*
X209251Y297802D01*
X209247Y297795D01*
X209233Y297777D01*
X209211Y297751D01*
X209182Y297719D01*
X209149Y297682D01*
X209109Y297646D01*
X209069Y297606D01*
X209022Y297573D01*
X209015Y297569D01*
X209000Y297558D01*
X208975Y297544D01*
X208938Y297526D01*
X208894Y297504D01*
X208843Y297485D01*
X208785Y297464D01*
X208720Y297446D01*
X208712D01*
X208701Y297442D01*
X208691Y297438D01*
X208654Y297435D01*
X208603Y297427D01*
X208545Y297420D01*
X208476Y297413D01*
X208399Y297409D01*
X208316Y297406D01*
X207409D01*
Y299924D01*
X208378D01*
X208443Y299921D01*
D02*
G37*
G36*
X157639Y162369D02*
X157668Y162366D01*
X157701Y162358D01*
X157738Y162351D01*
X157778Y162344D01*
X157865Y162315D01*
X157912Y162293D01*
X157956Y162271D01*
X158003Y162242D01*
X158051Y162209D01*
X158098Y162173D01*
X158142Y162129D01*
X158145Y162126D01*
X158153Y162118D01*
X158164Y162104D01*
X158178Y162085D01*
X158196Y162064D01*
X158214Y162034D01*
X158236Y162002D01*
X158255Y161962D01*
X158276Y161922D01*
X158298Y161874D01*
X158316Y161827D01*
X158335Y161772D01*
X158349Y161714D01*
X158360Y161652D01*
X158367Y161590D01*
X158371Y161521D01*
Y161488D01*
X158367Y161467D01*
X158364Y161437D01*
X158360Y161405D01*
X158353Y161368D01*
X158346Y161328D01*
X158324Y161241D01*
X158287Y161150D01*
X158265Y161103D01*
X158240Y161059D01*
X158207Y161015D01*
X158175Y160972D01*
X158171Y160968D01*
X158164Y160961D01*
X158153Y160950D01*
X158138Y160939D01*
X158120Y160921D01*
X158094Y160902D01*
X158069Y160881D01*
X158036Y160859D01*
X158000Y160837D01*
X157963Y160815D01*
X157876Y160775D01*
X157774Y160742D01*
X157720Y160731D01*
X157661Y160724D01*
X157621Y161033D01*
X157625D01*
X157632Y161037D01*
X157647Y161041D01*
X157665Y161044D01*
X157687Y161048D01*
X157712Y161055D01*
X157767Y161074D01*
X157832Y161099D01*
X157894Y161132D01*
X157952Y161168D01*
X158003Y161212D01*
X158007Y161219D01*
X158022Y161234D01*
X158040Y161263D01*
X158058Y161299D01*
X158080Y161343D01*
X158098Y161398D01*
X158113Y161459D01*
X158116Y161525D01*
Y161547D01*
X158113Y161561D01*
X158109Y161601D01*
X158098Y161652D01*
X158080Y161711D01*
X158054Y161772D01*
X158018Y161834D01*
X157967Y161892D01*
X157960Y161900D01*
X157938Y161918D01*
X157905Y161940D01*
X157861Y161969D01*
X157807Y161998D01*
X157745Y162020D01*
X157672Y162038D01*
X157592Y162045D01*
X157588D01*
X157581D01*
X157570D01*
X157556Y162042D01*
X157516Y162038D01*
X157468Y162027D01*
X157410Y162013D01*
X157352Y161987D01*
X157294Y161951D01*
X157239Y161903D01*
X157232Y161896D01*
X157217Y161878D01*
X157195Y161849D01*
X157170Y161809D01*
X157144Y161758D01*
X157123Y161696D01*
X157108Y161627D01*
X157101Y161550D01*
Y161518D01*
X157104Y161492D01*
X157108Y161459D01*
X157115Y161423D01*
X157123Y161379D01*
X157133Y161332D01*
X156860Y161368D01*
Y161387D01*
X156864Y161401D01*
Y161448D01*
X156857Y161488D01*
X156850Y161536D01*
X156839Y161590D01*
X156820Y161652D01*
X156795Y161711D01*
X156762Y161772D01*
Y161776D01*
X156758Y161780D01*
X156744Y161798D01*
X156719Y161823D01*
X156686Y161853D01*
X156638Y161882D01*
X156584Y161907D01*
X156522Y161925D01*
X156485Y161933D01*
X156446D01*
X156442D01*
X156438D01*
X156416D01*
X156387Y161925D01*
X156347Y161918D01*
X156304Y161903D01*
X156256Y161885D01*
X156209Y161856D01*
X156165Y161816D01*
X156162Y161812D01*
X156147Y161794D01*
X156129Y161769D01*
X156107Y161736D01*
X156089Y161692D01*
X156071Y161641D01*
X156056Y161583D01*
X156052Y161518D01*
Y161488D01*
X156060Y161456D01*
X156067Y161412D01*
X156081Y161365D01*
X156100Y161317D01*
X156129Y161266D01*
X156165Y161219D01*
X156169Y161215D01*
X156187Y161201D01*
X156212Y161179D01*
X156249Y161154D01*
X156296Y161128D01*
X156354Y161103D01*
X156424Y161081D01*
X156504Y161066D01*
X156449Y160757D01*
X156446D01*
X156435Y160760D01*
X156420Y160764D01*
X156398Y160768D01*
X156373Y160775D01*
X156344Y160786D01*
X156274Y160808D01*
X156194Y160844D01*
X156114Y160888D01*
X156038Y160942D01*
X155969Y161012D01*
X155965Y161015D01*
X155961Y161022D01*
X155954Y161033D01*
X155943Y161048D01*
X155929Y161066D01*
X155914Y161092D01*
X155900Y161117D01*
X155881Y161150D01*
X155852Y161223D01*
X155823Y161307D01*
X155805Y161405D01*
X155798Y161456D01*
Y161547D01*
X155801Y161587D01*
X155808Y161634D01*
X155819Y161692D01*
X155838Y161758D01*
X155859Y161823D01*
X155889Y161889D01*
Y161892D01*
X155892Y161896D01*
X155903Y161918D01*
X155925Y161951D01*
X155950Y161987D01*
X155987Y162031D01*
X156027Y162074D01*
X156074Y162118D01*
X156129Y162155D01*
X156136Y162158D01*
X156154Y162169D01*
X156187Y162184D01*
X156227Y162202D01*
X156274Y162220D01*
X156329Y162235D01*
X156391Y162246D01*
X156453Y162249D01*
X156460D01*
X156482D01*
X156511Y162246D01*
X156551Y162238D01*
X156598Y162227D01*
X156649Y162209D01*
X156700Y162187D01*
X156751Y162158D01*
X156758Y162155D01*
X156773Y162144D01*
X156799Y162122D01*
X156828Y162093D01*
X156860Y162056D01*
X156897Y162013D01*
X156930Y161962D01*
X156962Y161900D01*
Y161903D01*
X156966Y161911D01*
X156970Y161922D01*
X156973Y161936D01*
X156988Y161976D01*
X157010Y162027D01*
X157039Y162085D01*
X157075Y162144D01*
X157123Y162198D01*
X157177Y162249D01*
X157184Y162253D01*
X157206Y162267D01*
X157243Y162289D01*
X157290Y162311D01*
X157348Y162333D01*
X157417Y162355D01*
X157497Y162369D01*
X157585Y162373D01*
X157588D01*
X157599D01*
X157618D01*
X157639Y162369D01*
D02*
G37*
G36*
X157130Y160386D02*
X157159D01*
X157228Y160382D01*
X157308Y160371D01*
X157392Y160360D01*
X157479Y160342D01*
X157567Y160320D01*
X157570D01*
X157578Y160316D01*
X157588Y160313D01*
X157603Y160309D01*
X157643Y160294D01*
X157694Y160273D01*
X157752Y160251D01*
X157810Y160222D01*
X157872Y160185D01*
X157931Y160149D01*
X157938Y160145D01*
X157956Y160131D01*
X157982Y160109D01*
X158014Y160080D01*
X158051Y160047D01*
X158087Y160007D01*
X158127Y159967D01*
X158160Y159920D01*
X158164Y159912D01*
X158175Y159898D01*
X158189Y159872D01*
X158207Y159836D01*
X158229Y159792D01*
X158247Y159741D01*
X158269Y159683D01*
X158287Y159617D01*
Y159610D01*
X158291Y159599D01*
X158295Y159588D01*
X158298Y159552D01*
X158306Y159501D01*
X158313Y159443D01*
X158320Y159374D01*
X158324Y159297D01*
X158327Y159213D01*
Y158307D01*
X155808D01*
Y159275D01*
X155812Y159341D01*
X155816Y159414D01*
X155823Y159486D01*
X155834Y159559D01*
X155845Y159621D01*
Y159625D01*
X155849Y159632D01*
Y159643D01*
X155856Y159658D01*
X155867Y159698D01*
X155885Y159748D01*
X155910Y159807D01*
X155943Y159869D01*
X155980Y159931D01*
X156027Y159989D01*
X156030Y159992D01*
X156034Y159996D01*
X156045Y160007D01*
X156056Y160021D01*
X156092Y160058D01*
X156143Y160102D01*
X156205Y160149D01*
X156278Y160200D01*
X156362Y160247D01*
X156456Y160287D01*
X156460D01*
X156467Y160291D01*
X156482Y160298D01*
X156504Y160302D01*
X156529Y160313D01*
X156558Y160320D01*
X156591Y160327D01*
X156631Y160338D01*
X156671Y160349D01*
X156719Y160356D01*
X156820Y160375D01*
X156933Y160386D01*
X157057Y160389D01*
X157061D01*
X157068D01*
X157086D01*
X157104D01*
X157130Y160386D01*
D02*
G37*
G36*
X293387Y175496D02*
X293423D01*
X293460Y175493D01*
X293507Y175489D01*
X293554Y175482D01*
X293660Y175464D01*
X293776Y175438D01*
X293893Y175402D01*
X294006Y175351D01*
X294009Y175347D01*
X294020Y175344D01*
X294035Y175336D01*
X294053Y175322D01*
X294078Y175307D01*
X294108Y175289D01*
X294173Y175242D01*
X294246Y175180D01*
X294319Y175107D01*
X294391Y175023D01*
X294453Y174925D01*
X294457Y174921D01*
X294461Y174910D01*
X294468Y174896D01*
X294479Y174878D01*
X294490Y174848D01*
X294501Y174819D01*
X294515Y174783D01*
X294530Y174743D01*
X294544Y174699D01*
X294559Y174652D01*
X294581Y174550D01*
X294599Y174434D01*
X294606Y174313D01*
Y174277D01*
X294603Y174251D01*
X294599Y174219D01*
X294595Y174179D01*
X294592Y174139D01*
X294581Y174091D01*
X294559Y173993D01*
X294526Y173884D01*
X294504Y173829D01*
X294479Y173778D01*
X294446Y173727D01*
X294413Y173676D01*
X294410Y173673D01*
X294406Y173665D01*
X294395Y173651D01*
X294377Y173633D01*
X294359Y173615D01*
X294333Y173589D01*
X294304Y173564D01*
X294275Y173534D01*
X294238Y173505D01*
X294195Y173476D01*
X294151Y173443D01*
X294104Y173414D01*
X294049Y173389D01*
X293995Y173360D01*
X293936Y173338D01*
X293871Y173316D01*
X293794Y173644D01*
X293798D01*
X293805Y173647D01*
X293820Y173654D01*
X293838Y173662D01*
X293860Y173669D01*
X293889Y173680D01*
X293947Y173709D01*
X294013Y173746D01*
X294078Y173789D01*
X294140Y173844D01*
X294195Y173902D01*
X294202Y173909D01*
X294217Y173931D01*
X294235Y173968D01*
X294260Y174015D01*
X294282Y174077D01*
X294304Y174146D01*
X294319Y174230D01*
X294322Y174321D01*
Y174350D01*
X294319Y174368D01*
Y174393D01*
X294315Y174423D01*
X294304Y174492D01*
X294289Y174568D01*
X294264Y174648D01*
X294228Y174732D01*
X294180Y174808D01*
Y174812D01*
X294173Y174816D01*
X294155Y174841D01*
X294126Y174874D01*
X294082Y174914D01*
X294027Y174961D01*
X293966Y175005D01*
X293889Y175045D01*
X293805Y175081D01*
X293802D01*
X293794Y175085D01*
X293784Y175089D01*
X293765Y175092D01*
X293743Y175100D01*
X293718Y175107D01*
X293656Y175118D01*
X293583Y175132D01*
X293503Y175147D01*
X293416Y175154D01*
X293321Y175158D01*
X293318D01*
X293307D01*
X293288D01*
X293267D01*
X293241Y175154D01*
X293208D01*
X293172Y175151D01*
X293132Y175147D01*
X293045Y175136D01*
X292950Y175118D01*
X292855Y175096D01*
X292761Y175067D01*
X292757D01*
X292750Y175063D01*
X292739Y175056D01*
X292721Y175049D01*
X292677Y175027D01*
X292626Y174994D01*
X292568Y174954D01*
X292506Y174903D01*
X292451Y174845D01*
X292400Y174776D01*
Y174772D01*
X292397Y174765D01*
X292389Y174754D01*
X292382Y174739D01*
X292375Y174721D01*
X292364Y174699D01*
X292342Y174648D01*
X292320Y174583D01*
X292302Y174510D01*
X292287Y174430D01*
X292284Y174346D01*
Y174321D01*
X292287Y174299D01*
Y174273D01*
X292291Y174248D01*
X292306Y174182D01*
X292324Y174106D01*
X292353Y174030D01*
X292393Y173949D01*
X292415Y173909D01*
X292444Y173873D01*
X292448Y173869D01*
X292451Y173866D01*
X292462Y173855D01*
X292473Y173840D01*
X292491Y173826D01*
X292513Y173807D01*
X292535Y173786D01*
X292564Y173767D01*
X292597Y173746D01*
X292633Y173720D01*
X292670Y173698D01*
X292713Y173676D01*
X292761Y173658D01*
X292812Y173640D01*
X292866Y173622D01*
X292924Y173607D01*
X292841Y173272D01*
X292837D01*
X292823Y173276D01*
X292801Y173283D01*
X292772Y173294D01*
X292739Y173305D01*
X292699Y173320D01*
X292655Y173338D01*
X292608Y173360D01*
X292506Y173411D01*
X292404Y173476D01*
X292353Y173516D01*
X292302Y173556D01*
X292258Y173600D01*
X292215Y173651D01*
X292211Y173654D01*
X292204Y173662D01*
X292196Y173680D01*
X292182Y173698D01*
X292164Y173727D01*
X292146Y173757D01*
X292127Y173796D01*
X292109Y173837D01*
X292087Y173884D01*
X292069Y173935D01*
X292051Y173989D01*
X292033Y174048D01*
X292018Y174109D01*
X292011Y174175D01*
X292004Y174244D01*
X292000Y174317D01*
Y174357D01*
X292004Y174386D01*
Y174419D01*
X292007Y174459D01*
X292015Y174503D01*
X292022Y174554D01*
X292040Y174659D01*
X292069Y174768D01*
X292109Y174878D01*
X292135Y174928D01*
X292164Y174979D01*
X292167Y174983D01*
X292171Y174990D01*
X292182Y175005D01*
X292196Y175020D01*
X292211Y175041D01*
X292233Y175067D01*
X292258Y175096D01*
X292287Y175125D01*
X292320Y175154D01*
X292353Y175187D01*
X292437Y175252D01*
X292535Y175314D01*
X292644Y175369D01*
X292648D01*
X292659Y175376D01*
X292677Y175380D01*
X292699Y175391D01*
X292728Y175398D01*
X292764Y175409D01*
X292804Y175424D01*
X292848Y175435D01*
X292895Y175445D01*
X292950Y175460D01*
X293063Y175478D01*
X293190Y175493D01*
X293321Y175500D01*
X293325D01*
X293339D01*
X293361D01*
X293387Y175496D01*
D02*
G37*
G36*
X293940Y172748D02*
X293947Y172741D01*
X293951Y172726D01*
X293962Y172708D01*
X293973Y172686D01*
X293987Y172661D01*
X294024Y172599D01*
X294064Y172526D01*
X294115Y172453D01*
X294173Y172377D01*
X294235Y172301D01*
X294238Y172297D01*
X294242Y172293D01*
X294253Y172282D01*
X294264Y172268D01*
X294300Y172235D01*
X294344Y172191D01*
X294395Y172148D01*
X294453Y172100D01*
X294512Y172060D01*
X294573Y172024D01*
Y171824D01*
X292044D01*
Y172133D01*
X294013D01*
X294009Y172137D01*
X293995Y172155D01*
X293973Y172177D01*
X293947Y172213D01*
X293915Y172253D01*
X293878Y172304D01*
X293838Y172362D01*
X293798Y172428D01*
Y172432D01*
X293794Y172435D01*
X293780Y172457D01*
X293762Y172493D01*
X293740Y172537D01*
X293714Y172588D01*
X293689Y172643D01*
X293663Y172697D01*
X293642Y172752D01*
X293940D01*
Y172748D01*
D02*
G37*
G36*
X292887Y142496D02*
X292923D01*
X292960Y142493D01*
X293007Y142489D01*
X293054Y142482D01*
X293160Y142464D01*
X293276Y142438D01*
X293393Y142402D01*
X293506Y142351D01*
X293509Y142347D01*
X293520Y142343D01*
X293535Y142336D01*
X293553Y142322D01*
X293578Y142307D01*
X293607Y142289D01*
X293673Y142242D01*
X293746Y142180D01*
X293819Y142107D01*
X293891Y142023D01*
X293953Y141925D01*
X293957Y141921D01*
X293961Y141910D01*
X293968Y141896D01*
X293979Y141878D01*
X293990Y141849D01*
X294001Y141819D01*
X294015Y141783D01*
X294030Y141743D01*
X294044Y141699D01*
X294059Y141652D01*
X294081Y141550D01*
X294099Y141434D01*
X294106Y141313D01*
Y141277D01*
X294103Y141252D01*
X294099Y141219D01*
X294095Y141179D01*
X294092Y141139D01*
X294081Y141091D01*
X294059Y140993D01*
X294026Y140884D01*
X294004Y140829D01*
X293979Y140778D01*
X293946Y140727D01*
X293913Y140676D01*
X293910Y140673D01*
X293906Y140665D01*
X293895Y140651D01*
X293877Y140633D01*
X293859Y140614D01*
X293833Y140589D01*
X293804Y140564D01*
X293775Y140534D01*
X293739Y140505D01*
X293695Y140476D01*
X293651Y140443D01*
X293604Y140414D01*
X293549Y140389D01*
X293495Y140360D01*
X293436Y140338D01*
X293371Y140316D01*
X293295Y140644D01*
X293298D01*
X293305Y140647D01*
X293320Y140655D01*
X293338Y140662D01*
X293360Y140669D01*
X293389Y140680D01*
X293447Y140709D01*
X293513Y140746D01*
X293578Y140789D01*
X293640Y140844D01*
X293695Y140902D01*
X293702Y140909D01*
X293717Y140931D01*
X293735Y140968D01*
X293760Y141015D01*
X293782Y141077D01*
X293804Y141146D01*
X293819Y141230D01*
X293822Y141321D01*
Y141350D01*
X293819Y141368D01*
Y141393D01*
X293815Y141423D01*
X293804Y141492D01*
X293790Y141568D01*
X293764Y141648D01*
X293728Y141732D01*
X293680Y141808D01*
Y141812D01*
X293673Y141816D01*
X293655Y141841D01*
X293626Y141874D01*
X293582Y141914D01*
X293527Y141961D01*
X293465Y142005D01*
X293389Y142045D01*
X293305Y142081D01*
X293302D01*
X293295Y142085D01*
X293284Y142089D01*
X293265Y142092D01*
X293244Y142100D01*
X293218Y142107D01*
X293156Y142118D01*
X293083Y142132D01*
X293003Y142147D01*
X292916Y142154D01*
X292821Y142158D01*
X292818D01*
X292807D01*
X292789D01*
X292767D01*
X292741Y142154D01*
X292708D01*
X292672Y142151D01*
X292632Y142147D01*
X292545Y142136D01*
X292450Y142118D01*
X292355Y142096D01*
X292261Y142067D01*
X292257D01*
X292250Y142063D01*
X292239Y142056D01*
X292221Y142049D01*
X292177Y142027D01*
X292126Y141994D01*
X292068Y141954D01*
X292006Y141903D01*
X291951Y141845D01*
X291900Y141776D01*
Y141772D01*
X291897Y141765D01*
X291889Y141754D01*
X291882Y141739D01*
X291875Y141721D01*
X291864Y141699D01*
X291842Y141648D01*
X291820Y141583D01*
X291802Y141510D01*
X291788Y141430D01*
X291784Y141346D01*
Y141321D01*
X291788Y141299D01*
Y141273D01*
X291791Y141248D01*
X291806Y141182D01*
X291824Y141106D01*
X291853Y141030D01*
X291893Y140949D01*
X291915Y140909D01*
X291944Y140873D01*
X291948Y140869D01*
X291951Y140866D01*
X291962Y140855D01*
X291973Y140840D01*
X291991Y140826D01*
X292013Y140807D01*
X292035Y140786D01*
X292064Y140767D01*
X292097Y140746D01*
X292133Y140720D01*
X292170Y140698D01*
X292213Y140676D01*
X292261Y140658D01*
X292312Y140640D01*
X292366Y140622D01*
X292425Y140607D01*
X292341Y140272D01*
X292337D01*
X292323Y140276D01*
X292301Y140283D01*
X292272Y140294D01*
X292239Y140305D01*
X292199Y140320D01*
X292155Y140338D01*
X292108Y140360D01*
X292006Y140411D01*
X291904Y140476D01*
X291853Y140516D01*
X291802Y140556D01*
X291758Y140600D01*
X291715Y140651D01*
X291711Y140655D01*
X291704Y140662D01*
X291697Y140680D01*
X291682Y140698D01*
X291664Y140727D01*
X291646Y140756D01*
X291627Y140796D01*
X291609Y140837D01*
X291587Y140884D01*
X291569Y140935D01*
X291551Y140989D01*
X291533Y141048D01*
X291518Y141110D01*
X291511Y141175D01*
X291504Y141244D01*
X291500Y141317D01*
Y141357D01*
X291504Y141386D01*
Y141419D01*
X291507Y141459D01*
X291514Y141503D01*
X291522Y141554D01*
X291540Y141659D01*
X291569Y141768D01*
X291609Y141878D01*
X291635Y141929D01*
X291664Y141980D01*
X291667Y141983D01*
X291671Y141990D01*
X291682Y142005D01*
X291697Y142020D01*
X291711Y142041D01*
X291733Y142067D01*
X291758Y142096D01*
X291788Y142125D01*
X291820Y142154D01*
X291853Y142187D01*
X291937Y142253D01*
X292035Y142314D01*
X292144Y142369D01*
X292148D01*
X292159Y142376D01*
X292177Y142380D01*
X292199Y142391D01*
X292228Y142398D01*
X292264Y142409D01*
X292304Y142424D01*
X292348Y142435D01*
X292395Y142445D01*
X292450Y142460D01*
X292563Y142478D01*
X292690Y142493D01*
X292821Y142500D01*
X292825D01*
X292840D01*
X292861D01*
X292887Y142496D01*
D02*
G37*
G36*
X292250Y139675D02*
X292246D01*
X292239Y139672D01*
X292224Y139668D01*
X292206Y139664D01*
X292184Y139661D01*
X292159Y139654D01*
X292104Y139635D01*
X292039Y139610D01*
X291977Y139577D01*
X291919Y139541D01*
X291868Y139497D01*
X291864Y139490D01*
X291849Y139475D01*
X291831Y139446D01*
X291813Y139410D01*
X291791Y139366D01*
X291773Y139311D01*
X291758Y139250D01*
X291755Y139184D01*
Y139162D01*
X291758Y139148D01*
X291762Y139108D01*
X291773Y139057D01*
X291791Y138998D01*
X291817Y138936D01*
X291853Y138875D01*
X291904Y138816D01*
X291911Y138809D01*
X291933Y138791D01*
X291966Y138769D01*
X292009Y138740D01*
X292064Y138711D01*
X292126Y138689D01*
X292199Y138671D01*
X292279Y138663D01*
X292283D01*
X292290D01*
X292301D01*
X292315Y138667D01*
X292355Y138671D01*
X292403Y138682D01*
X292461Y138696D01*
X292519Y138722D01*
X292577Y138758D01*
X292632Y138805D01*
X292639Y138813D01*
X292654Y138831D01*
X292676Y138860D01*
X292701Y138900D01*
X292727Y138951D01*
X292748Y139013D01*
X292763Y139082D01*
X292770Y139158D01*
Y139191D01*
X292767Y139217D01*
X292763Y139250D01*
X292756Y139286D01*
X292748Y139330D01*
X292738Y139377D01*
X293011Y139340D01*
Y139322D01*
X293007Y139308D01*
Y139260D01*
X293014Y139220D01*
X293021Y139173D01*
X293032Y139119D01*
X293051Y139057D01*
X293076Y138998D01*
X293109Y138936D01*
Y138933D01*
X293112Y138929D01*
X293127Y138911D01*
X293152Y138885D01*
X293185Y138856D01*
X293233Y138827D01*
X293287Y138802D01*
X293349Y138784D01*
X293386Y138776D01*
X293425D01*
X293429D01*
X293433D01*
X293455D01*
X293484Y138784D01*
X293524Y138791D01*
X293567Y138805D01*
X293615Y138824D01*
X293662Y138853D01*
X293706Y138893D01*
X293709Y138896D01*
X293724Y138915D01*
X293742Y138940D01*
X293764Y138973D01*
X293782Y139017D01*
X293800Y139067D01*
X293815Y139126D01*
X293819Y139191D01*
Y139220D01*
X293811Y139253D01*
X293804Y139297D01*
X293790Y139344D01*
X293771Y139392D01*
X293742Y139442D01*
X293706Y139490D01*
X293702Y139493D01*
X293684Y139508D01*
X293658Y139530D01*
X293622Y139555D01*
X293575Y139581D01*
X293516Y139606D01*
X293447Y139628D01*
X293367Y139643D01*
X293422Y139952D01*
X293425D01*
X293436Y139948D01*
X293451Y139945D01*
X293473Y139941D01*
X293498Y139934D01*
X293527Y139923D01*
X293597Y139901D01*
X293677Y139865D01*
X293757Y139821D01*
X293833Y139766D01*
X293902Y139697D01*
X293906Y139694D01*
X293910Y139686D01*
X293917Y139675D01*
X293928Y139661D01*
X293942Y139643D01*
X293957Y139617D01*
X293971Y139592D01*
X293990Y139559D01*
X294019Y139486D01*
X294048Y139402D01*
X294066Y139304D01*
X294073Y139253D01*
Y139162D01*
X294070Y139122D01*
X294062Y139075D01*
X294052Y139017D01*
X294033Y138951D01*
X294011Y138885D01*
X293982Y138820D01*
Y138816D01*
X293979Y138813D01*
X293968Y138791D01*
X293946Y138758D01*
X293921Y138722D01*
X293884Y138678D01*
X293844Y138634D01*
X293797Y138591D01*
X293742Y138554D01*
X293735Y138551D01*
X293717Y138540D01*
X293684Y138525D01*
X293644Y138507D01*
X293597Y138489D01*
X293542Y138474D01*
X293480Y138463D01*
X293418Y138460D01*
X293411D01*
X293389D01*
X293360Y138463D01*
X293320Y138471D01*
X293273Y138481D01*
X293222Y138500D01*
X293171Y138522D01*
X293120Y138551D01*
X293112Y138554D01*
X293098Y138565D01*
X293072Y138587D01*
X293043Y138616D01*
X293011Y138653D01*
X292974Y138696D01*
X292941Y138747D01*
X292909Y138809D01*
Y138805D01*
X292905Y138798D01*
X292901Y138787D01*
X292898Y138773D01*
X292883Y138733D01*
X292861Y138682D01*
X292832Y138623D01*
X292796Y138565D01*
X292748Y138511D01*
X292694Y138460D01*
X292687Y138456D01*
X292665Y138441D01*
X292628Y138420D01*
X292581Y138398D01*
X292523Y138376D01*
X292454Y138354D01*
X292373Y138339D01*
X292286Y138336D01*
X292283D01*
X292272D01*
X292253D01*
X292232Y138339D01*
X292202Y138343D01*
X292170Y138350D01*
X292133Y138358D01*
X292093Y138365D01*
X292006Y138394D01*
X291959Y138416D01*
X291915Y138438D01*
X291868Y138467D01*
X291820Y138500D01*
X291773Y138536D01*
X291729Y138580D01*
X291726Y138583D01*
X291718Y138591D01*
X291707Y138605D01*
X291693Y138623D01*
X291675Y138645D01*
X291656Y138674D01*
X291635Y138707D01*
X291616Y138747D01*
X291595Y138787D01*
X291573Y138835D01*
X291555Y138882D01*
X291536Y138936D01*
X291522Y138995D01*
X291511Y139057D01*
X291504Y139119D01*
X291500Y139188D01*
Y139220D01*
X291504Y139242D01*
X291507Y139271D01*
X291511Y139304D01*
X291518Y139340D01*
X291525Y139381D01*
X291547Y139468D01*
X291584Y139559D01*
X291605Y139606D01*
X291631Y139650D01*
X291664Y139694D01*
X291697Y139737D01*
X291700Y139741D01*
X291707Y139748D01*
X291718Y139759D01*
X291733Y139770D01*
X291751Y139788D01*
X291777Y139806D01*
X291802Y139828D01*
X291835Y139850D01*
X291871Y139872D01*
X291908Y139894D01*
X291995Y139934D01*
X292097Y139967D01*
X292151Y139978D01*
X292210Y139985D01*
X292250Y139675D01*
D02*
G37*
G36*
X289404Y304809D02*
X289433Y304805D01*
X289466Y304802D01*
X289506Y304794D01*
X289546Y304787D01*
X289640Y304765D01*
X289739Y304729D01*
X289790Y304707D01*
X289837Y304678D01*
X289888Y304649D01*
X289935Y304612D01*
X289939Y304609D01*
X289950Y304601D01*
X289965Y304587D01*
X289983Y304569D01*
X290004Y304543D01*
X290034Y304514D01*
X290059Y304478D01*
X290088Y304437D01*
X290117Y304394D01*
X290143Y304343D01*
X290168Y304288D01*
X290194Y304230D01*
X290212Y304168D01*
X290227Y304099D01*
X290237Y304026D01*
X290241Y303950D01*
Y303917D01*
X290237Y303891D01*
X290234Y303862D01*
X290230Y303830D01*
X290227Y303790D01*
X290216Y303750D01*
X290194Y303659D01*
X290161Y303568D01*
X290139Y303520D01*
X290114Y303473D01*
X290085Y303429D01*
X290052Y303386D01*
X290048Y303382D01*
X290045Y303375D01*
X290030Y303367D01*
X290015Y303353D01*
X289997Y303335D01*
X289975Y303316D01*
X289946Y303295D01*
X289914Y303276D01*
X289881Y303255D01*
X289841Y303233D01*
X289753Y303193D01*
X289651Y303160D01*
X289597Y303149D01*
X289539Y303142D01*
X289513Y303466D01*
X289517D01*
X289524D01*
X289535Y303469D01*
X289553Y303473D01*
X289593Y303484D01*
X289648Y303498D01*
X289702Y303520D01*
X289764Y303549D01*
X289819Y303586D01*
X289870Y303629D01*
X289874Y303637D01*
X289888Y303651D01*
X289906Y303680D01*
X289928Y303720D01*
X289950Y303764D01*
X289968Y303819D01*
X289983Y303881D01*
X289986Y303950D01*
Y303972D01*
X289983Y303986D01*
X289979Y304030D01*
X289965Y304081D01*
X289946Y304143D01*
X289917Y304205D01*
X289874Y304270D01*
X289848Y304299D01*
X289819Y304328D01*
X289815Y304332D01*
X289812Y304336D01*
X289801Y304343D01*
X289790Y304354D01*
X289750Y304379D01*
X289699Y304408D01*
X289637Y304434D01*
X289560Y304459D01*
X289469Y304478D01*
X289422Y304485D01*
X289371D01*
X289368D01*
X289360D01*
X289346D01*
X289328Y304481D01*
X289306D01*
X289280Y304478D01*
X289222Y304467D01*
X289153Y304448D01*
X289084Y304423D01*
X289018Y304387D01*
X288956Y304336D01*
X288953D01*
X288949Y304328D01*
X288931Y304310D01*
X288905Y304277D01*
X288876Y304234D01*
X288851Y304175D01*
X288825Y304110D01*
X288807Y304033D01*
X288800Y303990D01*
Y303921D01*
X288803Y303891D01*
X288807Y303855D01*
X288818Y303811D01*
X288829Y303768D01*
X288847Y303720D01*
X288869Y303673D01*
X288873Y303670D01*
X288880Y303655D01*
X288898Y303633D01*
X288916Y303604D01*
X288942Y303575D01*
X288974Y303546D01*
X289007Y303513D01*
X289047Y303487D01*
X289007Y303196D01*
X287711Y303440D01*
Y304692D01*
X288006D01*
Y303684D01*
X288687Y303549D01*
X288683Y303553D01*
X288680Y303560D01*
X288672Y303571D01*
X288661Y303589D01*
X288650Y303611D01*
X288636Y303637D01*
X288607Y303695D01*
X288578Y303768D01*
X288552Y303848D01*
X288534Y303935D01*
X288527Y303979D01*
Y304059D01*
X288530Y304081D01*
X288534Y304110D01*
X288538Y304143D01*
X288545Y304179D01*
X288556Y304219D01*
X288581Y304307D01*
X288599Y304354D01*
X288625Y304401D01*
X288650Y304448D01*
X288680Y304496D01*
X288716Y304539D01*
X288756Y304583D01*
X288760Y304587D01*
X288767Y304594D01*
X288778Y304605D01*
X288796Y304620D01*
X288822Y304638D01*
X288847Y304656D01*
X288880Y304678D01*
X288916Y304700D01*
X288956Y304718D01*
X289000Y304740D01*
X289051Y304758D01*
X289102Y304776D01*
X289156Y304791D01*
X289218Y304802D01*
X289280Y304809D01*
X289346Y304812D01*
X289349D01*
X289360D01*
X289378D01*
X289404Y304809D01*
D02*
G37*
G36*
X289000Y302807D02*
X289029D01*
X289098Y302803D01*
X289178Y302792D01*
X289262Y302781D01*
X289349Y302763D01*
X289437Y302741D01*
X289440D01*
X289448Y302738D01*
X289458Y302734D01*
X289473Y302730D01*
X289513Y302716D01*
X289564Y302694D01*
X289622Y302672D01*
X289681Y302643D01*
X289742Y302607D01*
X289801Y302570D01*
X289808Y302567D01*
X289826Y302552D01*
X289852Y302530D01*
X289884Y302501D01*
X289921Y302468D01*
X289957Y302428D01*
X289997Y302388D01*
X290030Y302341D01*
X290034Y302334D01*
X290045Y302319D01*
X290059Y302294D01*
X290077Y302257D01*
X290099Y302214D01*
X290117Y302163D01*
X290139Y302104D01*
X290157Y302039D01*
Y302031D01*
X290161Y302021D01*
X290165Y302010D01*
X290168Y301973D01*
X290176Y301922D01*
X290183Y301864D01*
X290190Y301795D01*
X290194Y301718D01*
X290197Y301635D01*
Y300728D01*
X287679D01*
Y301697D01*
X287682Y301762D01*
X287686Y301835D01*
X287693Y301908D01*
X287704Y301980D01*
X287715Y302042D01*
Y302046D01*
X287719Y302053D01*
Y302064D01*
X287726Y302079D01*
X287737Y302119D01*
X287755Y302170D01*
X287780Y302228D01*
X287813Y302290D01*
X287850Y302352D01*
X287897Y302410D01*
X287901Y302414D01*
X287904Y302417D01*
X287915Y302428D01*
X287926Y302443D01*
X287963Y302479D01*
X288013Y302523D01*
X288075Y302570D01*
X288148Y302621D01*
X288232Y302668D01*
X288327Y302709D01*
X288330D01*
X288337Y302712D01*
X288352Y302719D01*
X288374Y302723D01*
X288399Y302734D01*
X288428Y302741D01*
X288461Y302749D01*
X288501Y302760D01*
X288541Y302770D01*
X288589Y302778D01*
X288690Y302796D01*
X288803Y302807D01*
X288927Y302810D01*
X288931D01*
X288938D01*
X288956D01*
X288974D01*
X289000Y302807D01*
D02*
G37*
G36*
X280194Y304791D02*
X280216D01*
X280274Y304780D01*
X280343Y304769D01*
X280416Y304751D01*
X280496Y304725D01*
X280573Y304689D01*
X280576D01*
X280580Y304685D01*
X280591Y304678D01*
X280605Y304671D01*
X280642Y304649D01*
X280689Y304616D01*
X280740Y304576D01*
X280791Y304528D01*
X280842Y304470D01*
X280886Y304408D01*
Y304405D01*
X280889Y304401D01*
X280896Y304390D01*
X280900Y304376D01*
X280918Y304339D01*
X280937Y304292D01*
X280958Y304230D01*
X280973Y304161D01*
X280988Y304084D01*
X280991Y304001D01*
Y303982D01*
X280988Y303964D01*
Y303935D01*
X280984Y303902D01*
X280977Y303866D01*
X280966Y303822D01*
X280955Y303779D01*
X280940Y303728D01*
X280922Y303677D01*
X280900Y303626D01*
X280871Y303571D01*
X280838Y303520D01*
X280802Y303469D01*
X280758Y303418D01*
X280707Y303371D01*
X280704Y303367D01*
X280693Y303360D01*
X280678Y303349D01*
X280653Y303335D01*
X280620Y303313D01*
X280583Y303295D01*
X280536Y303273D01*
X280485Y303251D01*
X280423Y303225D01*
X280354Y303204D01*
X280278Y303185D01*
X280194Y303167D01*
X280099Y303149D01*
X279997Y303138D01*
X279888Y303131D01*
X279772Y303127D01*
X279768D01*
X279764D01*
X279753D01*
X279739D01*
X279703Y303131D01*
X279652D01*
X279593Y303134D01*
X279524Y303142D01*
X279448Y303149D01*
X279364Y303160D01*
X279280Y303174D01*
X279189Y303193D01*
X279102Y303215D01*
X279015Y303240D01*
X278931Y303273D01*
X278851Y303309D01*
X278774Y303349D01*
X278709Y303397D01*
X278705Y303400D01*
X278698Y303407D01*
X278683Y303422D01*
X278661Y303440D01*
X278640Y303462D01*
X278618Y303491D01*
X278589Y303527D01*
X278563Y303564D01*
X278538Y303608D01*
X278509Y303655D01*
X278487Y303710D01*
X278461Y303764D01*
X278443Y303826D01*
X278429Y303891D01*
X278421Y303961D01*
X278418Y304033D01*
Y304063D01*
X278421Y304084D01*
Y304110D01*
X278425Y304139D01*
X278439Y304208D01*
X278458Y304285D01*
X278487Y304365D01*
X278531Y304445D01*
X278556Y304485D01*
X278585Y304521D01*
X278589Y304525D01*
X278592Y304528D01*
X278603Y304539D01*
X278614Y304550D01*
X278632Y304569D01*
X278654Y304583D01*
X278705Y304623D01*
X278771Y304663D01*
X278851Y304700D01*
X278942Y304732D01*
X279044Y304754D01*
X279069Y304445D01*
X279066D01*
X279062Y304441D01*
X279040Y304437D01*
X279007Y304427D01*
X278967Y304412D01*
X278924Y304398D01*
X278880Y304376D01*
X278840Y304350D01*
X278807Y304325D01*
X278800Y304317D01*
X278785Y304303D01*
X278763Y304277D01*
X278738Y304241D01*
X278716Y304194D01*
X278694Y304143D01*
X278680Y304081D01*
X278672Y304015D01*
Y303990D01*
X278676Y303961D01*
X278683Y303928D01*
X278694Y303884D01*
X278709Y303841D01*
X278727Y303797D01*
X278756Y303753D01*
X278760Y303746D01*
X278774Y303728D01*
X278800Y303702D01*
X278836Y303670D01*
X278880Y303633D01*
X278931Y303593D01*
X278996Y303557D01*
X279069Y303520D01*
X279073D01*
X279080Y303517D01*
X279091Y303513D01*
X279106Y303506D01*
X279127Y303502D01*
X279153Y303495D01*
X279182Y303487D01*
X279218Y303480D01*
X279258Y303469D01*
X279302Y303462D01*
X279349Y303455D01*
X279400Y303451D01*
X279459Y303444D01*
X279517Y303440D01*
X279582Y303436D01*
X279648D01*
X279644Y303440D01*
X279623Y303455D01*
X279593Y303480D01*
X279557Y303513D01*
X279513Y303549D01*
X279473Y303597D01*
X279433Y303648D01*
X279397Y303706D01*
Y303710D01*
X279393Y303713D01*
X279382Y303735D01*
X279371Y303768D01*
X279353Y303811D01*
X279339Y303862D01*
X279328Y303921D01*
X279317Y303982D01*
X279313Y304048D01*
Y304077D01*
X279317Y304099D01*
X279320Y304128D01*
X279324Y304157D01*
X279331Y304194D01*
X279342Y304230D01*
X279368Y304314D01*
X279386Y304357D01*
X279411Y304401D01*
X279437Y304445D01*
X279466Y304492D01*
X279502Y304536D01*
X279542Y304576D01*
X279546Y304579D01*
X279553Y304587D01*
X279564Y304598D01*
X279582Y304609D01*
X279608Y304627D01*
X279633Y304645D01*
X279666Y304663D01*
X279703Y304685D01*
X279743Y304707D01*
X279786Y304725D01*
X279837Y304743D01*
X279888Y304762D01*
X279943Y304772D01*
X280005Y304783D01*
X280067Y304791D01*
X280132Y304794D01*
X280136D01*
X280143D01*
X280154D01*
X280172D01*
X280194Y304791D01*
D02*
G37*
G36*
X279750Y302807D02*
X279779D01*
X279848Y302803D01*
X279928Y302792D01*
X280012Y302781D01*
X280099Y302763D01*
X280187Y302741D01*
X280190D01*
X280198Y302738D01*
X280208Y302734D01*
X280223Y302730D01*
X280263Y302716D01*
X280314Y302694D01*
X280372Y302672D01*
X280431Y302643D01*
X280492Y302607D01*
X280551Y302570D01*
X280558Y302567D01*
X280576Y302552D01*
X280602Y302530D01*
X280634Y302501D01*
X280671Y302468D01*
X280707Y302428D01*
X280747Y302388D01*
X280780Y302341D01*
X280784Y302334D01*
X280795Y302319D01*
X280809Y302294D01*
X280827Y302257D01*
X280849Y302214D01*
X280867Y302163D01*
X280889Y302104D01*
X280907Y302039D01*
Y302031D01*
X280911Y302021D01*
X280915Y302010D01*
X280918Y301973D01*
X280926Y301922D01*
X280933Y301864D01*
X280940Y301795D01*
X280944Y301718D01*
X280947Y301635D01*
Y300728D01*
X278429D01*
Y301697D01*
X278432Y301762D01*
X278436Y301835D01*
X278443Y301908D01*
X278454Y301980D01*
X278465Y302042D01*
Y302046D01*
X278469Y302053D01*
Y302064D01*
X278476Y302079D01*
X278487Y302119D01*
X278505Y302170D01*
X278531Y302228D01*
X278563Y302290D01*
X278600Y302352D01*
X278647Y302410D01*
X278651Y302414D01*
X278654Y302417D01*
X278665Y302428D01*
X278676Y302443D01*
X278713Y302479D01*
X278763Y302523D01*
X278825Y302570D01*
X278898Y302621D01*
X278982Y302668D01*
X279077Y302709D01*
X279080D01*
X279087Y302712D01*
X279102Y302719D01*
X279124Y302723D01*
X279149Y302734D01*
X279178Y302741D01*
X279211Y302749D01*
X279251Y302760D01*
X279291Y302770D01*
X279339Y302778D01*
X279440Y302796D01*
X279553Y302807D01*
X279677Y302810D01*
X279681D01*
X279688D01*
X279706D01*
X279724D01*
X279750Y302807D01*
D02*
G37*
G36*
X269502Y304791D02*
X269510Y304783D01*
X269524Y304769D01*
X269546Y304754D01*
X269572Y304732D01*
X269601Y304703D01*
X269637Y304674D01*
X269681Y304641D01*
X269725Y304609D01*
X269776Y304569D01*
X269834Y304528D01*
X269892Y304488D01*
X269957Y304445D01*
X270027Y304401D01*
X270103Y304357D01*
X270180Y304314D01*
X270183Y304310D01*
X270198Y304303D01*
X270220Y304292D01*
X270252Y304274D01*
X270292Y304256D01*
X270336Y304234D01*
X270387Y304208D01*
X270445Y304183D01*
X270511Y304154D01*
X270576Y304121D01*
X270649Y304092D01*
X270726Y304063D01*
X270882Y304004D01*
X271049Y303950D01*
X271053D01*
X271064Y303946D01*
X271082Y303942D01*
X271104Y303935D01*
X271133Y303928D01*
X271170Y303921D01*
X271210Y303910D01*
X271253Y303902D01*
X271304Y303891D01*
X271359Y303881D01*
X271475Y303862D01*
X271603Y303844D01*
X271741Y303833D01*
Y303517D01*
X271738D01*
X271727D01*
X271712D01*
X271690Y303520D01*
X271661D01*
X271625Y303524D01*
X271585Y303527D01*
X271541Y303531D01*
X271490Y303538D01*
X271439Y303546D01*
X271377Y303557D01*
X271315Y303568D01*
X271250Y303578D01*
X271177Y303593D01*
X271028Y303629D01*
X271024D01*
X271009Y303633D01*
X270988Y303640D01*
X270955Y303651D01*
X270918Y303662D01*
X270875Y303677D01*
X270824Y303691D01*
X270769Y303713D01*
X270707Y303735D01*
X270645Y303757D01*
X270507Y303811D01*
X270362Y303877D01*
X270216Y303950D01*
X270212Y303953D01*
X270198Y303961D01*
X270180Y303972D01*
X270150Y303986D01*
X270118Y304004D01*
X270078Y304030D01*
X270034Y304055D01*
X269987Y304084D01*
X269881Y304154D01*
X269772Y304226D01*
X269659Y304310D01*
X269553Y304398D01*
Y303164D01*
X269255D01*
Y304794D01*
X269499D01*
X269502Y304791D01*
D02*
G37*
G36*
X270544Y302807D02*
X270573D01*
X270642Y302803D01*
X270722Y302792D01*
X270806Y302781D01*
X270893Y302763D01*
X270980Y302741D01*
X270984D01*
X270991Y302738D01*
X271002Y302734D01*
X271017Y302730D01*
X271057Y302716D01*
X271108Y302694D01*
X271166Y302672D01*
X271224Y302643D01*
X271286Y302607D01*
X271344Y302570D01*
X271352Y302567D01*
X271370Y302552D01*
X271395Y302530D01*
X271428Y302501D01*
X271464Y302468D01*
X271501Y302428D01*
X271541Y302388D01*
X271574Y302341D01*
X271577Y302334D01*
X271588Y302319D01*
X271603Y302294D01*
X271621Y302257D01*
X271643Y302214D01*
X271661Y302163D01*
X271683Y302104D01*
X271701Y302039D01*
Y302031D01*
X271705Y302021D01*
X271708Y302010D01*
X271712Y301973D01*
X271719Y301922D01*
X271727Y301864D01*
X271734Y301795D01*
X271738Y301718D01*
X271741Y301635D01*
Y300728D01*
X269222D01*
Y301697D01*
X269226Y301762D01*
X269230Y301835D01*
X269237Y301908D01*
X269248Y301980D01*
X269259Y302042D01*
Y302046D01*
X269262Y302053D01*
Y302064D01*
X269270Y302079D01*
X269281Y302119D01*
X269299Y302170D01*
X269324Y302228D01*
X269357Y302290D01*
X269393Y302352D01*
X269441Y302410D01*
X269444Y302414D01*
X269448Y302417D01*
X269459Y302428D01*
X269470Y302443D01*
X269506Y302479D01*
X269557Y302523D01*
X269619Y302570D01*
X269692Y302621D01*
X269776Y302668D01*
X269870Y302709D01*
X269874D01*
X269881Y302712D01*
X269896Y302719D01*
X269917Y302723D01*
X269943Y302734D01*
X269972Y302741D01*
X270005Y302749D01*
X270045Y302760D01*
X270085Y302770D01*
X270132Y302778D01*
X270234Y302796D01*
X270347Y302807D01*
X270471Y302810D01*
X270474D01*
X270482D01*
X270500D01*
X270518D01*
X270544Y302807D01*
D02*
G37*
G36*
X287887Y111496D02*
X287923D01*
X287960Y111493D01*
X288007Y111489D01*
X288054Y111482D01*
X288160Y111464D01*
X288276Y111438D01*
X288393Y111402D01*
X288506Y111351D01*
X288509Y111347D01*
X288520Y111344D01*
X288535Y111336D01*
X288553Y111322D01*
X288578Y111307D01*
X288608Y111289D01*
X288673Y111242D01*
X288746Y111180D01*
X288819Y111107D01*
X288891Y111023D01*
X288953Y110925D01*
X288957Y110921D01*
X288961Y110910D01*
X288968Y110896D01*
X288979Y110878D01*
X288990Y110848D01*
X289001Y110819D01*
X289015Y110783D01*
X289030Y110743D01*
X289044Y110699D01*
X289059Y110652D01*
X289081Y110550D01*
X289099Y110433D01*
X289106Y110313D01*
Y110277D01*
X289103Y110251D01*
X289099Y110219D01*
X289095Y110179D01*
X289092Y110139D01*
X289081Y110091D01*
X289059Y109993D01*
X289026Y109884D01*
X289004Y109829D01*
X288979Y109778D01*
X288946Y109727D01*
X288913Y109676D01*
X288910Y109673D01*
X288906Y109666D01*
X288895Y109651D01*
X288877Y109633D01*
X288859Y109615D01*
X288833Y109589D01*
X288804Y109564D01*
X288775Y109534D01*
X288738Y109505D01*
X288695Y109476D01*
X288651Y109443D01*
X288604Y109414D01*
X288549Y109389D01*
X288495Y109360D01*
X288436Y109338D01*
X288371Y109316D01*
X288295Y109644D01*
X288298D01*
X288305Y109647D01*
X288320Y109654D01*
X288338Y109662D01*
X288360Y109669D01*
X288389Y109680D01*
X288447Y109709D01*
X288513Y109746D01*
X288578Y109789D01*
X288640Y109844D01*
X288695Y109902D01*
X288702Y109909D01*
X288717Y109931D01*
X288735Y109968D01*
X288760Y110015D01*
X288782Y110077D01*
X288804Y110146D01*
X288819Y110230D01*
X288822Y110321D01*
Y110350D01*
X288819Y110368D01*
Y110394D01*
X288815Y110423D01*
X288804Y110492D01*
X288790Y110568D01*
X288764Y110648D01*
X288728Y110732D01*
X288680Y110808D01*
Y110812D01*
X288673Y110816D01*
X288655Y110841D01*
X288626Y110874D01*
X288582Y110914D01*
X288527Y110961D01*
X288465Y111005D01*
X288389Y111045D01*
X288305Y111081D01*
X288302D01*
X288295Y111085D01*
X288284Y111089D01*
X288265Y111092D01*
X288244Y111100D01*
X288218Y111107D01*
X288156Y111118D01*
X288083Y111132D01*
X288003Y111147D01*
X287916Y111154D01*
X287821Y111158D01*
X287818D01*
X287807D01*
X287789D01*
X287767D01*
X287741Y111154D01*
X287708D01*
X287672Y111151D01*
X287632Y111147D01*
X287545Y111136D01*
X287450Y111118D01*
X287355Y111096D01*
X287261Y111067D01*
X287257D01*
X287250Y111063D01*
X287239Y111056D01*
X287221Y111049D01*
X287177Y111027D01*
X287126Y110994D01*
X287068Y110954D01*
X287006Y110903D01*
X286951Y110845D01*
X286900Y110776D01*
Y110772D01*
X286897Y110765D01*
X286889Y110754D01*
X286882Y110739D01*
X286875Y110721D01*
X286864Y110699D01*
X286842Y110648D01*
X286820Y110583D01*
X286802Y110510D01*
X286788Y110430D01*
X286784Y110346D01*
Y110321D01*
X286788Y110299D01*
Y110273D01*
X286791Y110248D01*
X286806Y110182D01*
X286824Y110106D01*
X286853Y110029D01*
X286893Y109949D01*
X286915Y109909D01*
X286944Y109873D01*
X286948Y109869D01*
X286951Y109866D01*
X286962Y109855D01*
X286973Y109840D01*
X286991Y109826D01*
X287013Y109807D01*
X287035Y109786D01*
X287064Y109767D01*
X287097Y109746D01*
X287133Y109720D01*
X287170Y109698D01*
X287213Y109676D01*
X287261Y109658D01*
X287312Y109640D01*
X287366Y109622D01*
X287424Y109607D01*
X287341Y109272D01*
X287337D01*
X287323Y109276D01*
X287301Y109283D01*
X287272Y109294D01*
X287239Y109305D01*
X287199Y109320D01*
X287155Y109338D01*
X287108Y109360D01*
X287006Y109411D01*
X286904Y109476D01*
X286853Y109516D01*
X286802Y109556D01*
X286758Y109600D01*
X286715Y109651D01*
X286711Y109654D01*
X286704Y109662D01*
X286697Y109680D01*
X286682Y109698D01*
X286664Y109727D01*
X286646Y109757D01*
X286627Y109797D01*
X286609Y109837D01*
X286587Y109884D01*
X286569Y109935D01*
X286551Y109989D01*
X286533Y110048D01*
X286518Y110109D01*
X286511Y110175D01*
X286504Y110244D01*
X286500Y110317D01*
Y110357D01*
X286504Y110386D01*
Y110419D01*
X286507Y110459D01*
X286514Y110503D01*
X286522Y110554D01*
X286540Y110659D01*
X286569Y110768D01*
X286609Y110878D01*
X286635Y110928D01*
X286664Y110979D01*
X286667Y110983D01*
X286671Y110990D01*
X286682Y111005D01*
X286697Y111020D01*
X286711Y111041D01*
X286733Y111067D01*
X286758Y111096D01*
X286788Y111125D01*
X286820Y111154D01*
X286853Y111187D01*
X286937Y111252D01*
X287035Y111314D01*
X287144Y111369D01*
X287148D01*
X287159Y111376D01*
X287177Y111380D01*
X287199Y111391D01*
X287228Y111398D01*
X287264Y111409D01*
X287304Y111424D01*
X287348Y111434D01*
X287395Y111445D01*
X287450Y111460D01*
X287563Y111478D01*
X287690Y111493D01*
X287821Y111500D01*
X287825D01*
X287840D01*
X287861D01*
X287887Y111496D01*
D02*
G37*
G36*
X288440Y108748D02*
X288447Y108741D01*
X288451Y108726D01*
X288462Y108708D01*
X288473Y108686D01*
X288487Y108661D01*
X288524Y108599D01*
X288564Y108526D01*
X288615Y108453D01*
X288673Y108377D01*
X288735Y108300D01*
X288738Y108297D01*
X288742Y108293D01*
X288753Y108282D01*
X288764Y108268D01*
X288800Y108235D01*
X288844Y108191D01*
X288895Y108148D01*
X288953Y108100D01*
X289012Y108060D01*
X289073Y108024D01*
Y107824D01*
X286544D01*
Y108133D01*
X288513D01*
X288509Y108137D01*
X288495Y108155D01*
X288473Y108177D01*
X288447Y108213D01*
X288415Y108253D01*
X288378Y108304D01*
X288338Y108362D01*
X288298Y108428D01*
Y108431D01*
X288295Y108435D01*
X288280Y108457D01*
X288262Y108493D01*
X288240Y108537D01*
X288214Y108588D01*
X288189Y108643D01*
X288163Y108697D01*
X288142Y108752D01*
X288440D01*
Y108748D01*
D02*
G37*
G36*
X287308Y107030D02*
X287330D01*
X287355Y107027D01*
X287414Y107019D01*
X287479Y107005D01*
X287545Y106983D01*
X287614Y106950D01*
X287679Y106910D01*
X287683D01*
X287687Y106903D01*
X287705Y106888D01*
X287734Y106859D01*
X287770Y106819D01*
X287807Y106768D01*
X287847Y106706D01*
X287879Y106637D01*
X287905Y106553D01*
Y106557D01*
X287909Y106561D01*
X287912Y106571D01*
X287919Y106586D01*
X287934Y106619D01*
X287956Y106662D01*
X287985Y106710D01*
X288021Y106757D01*
X288061Y106801D01*
X288105Y106841D01*
X288112Y106844D01*
X288127Y106855D01*
X288156Y106870D01*
X288193Y106885D01*
X288240Y106903D01*
X288295Y106917D01*
X288356Y106928D01*
X288422Y106932D01*
X288425D01*
X288433D01*
X288447D01*
X288469Y106928D01*
X288491Y106924D01*
X288520Y106921D01*
X288582Y106906D01*
X288655Y106885D01*
X288731Y106848D01*
X288771Y106826D01*
X288811Y106801D01*
X288848Y106768D01*
X288884Y106735D01*
X288888Y106732D01*
X288891Y106724D01*
X288902Y106713D01*
X288913Y106699D01*
X288928Y106681D01*
X288942Y106655D01*
X288961Y106626D01*
X288979Y106597D01*
X288997Y106561D01*
X289015Y106520D01*
X289030Y106477D01*
X289044Y106430D01*
X289066Y106328D01*
X289070Y106269D01*
X289073Y106211D01*
Y106178D01*
X289070Y106157D01*
X289066Y106127D01*
X289062Y106095D01*
X289059Y106058D01*
X289048Y106022D01*
X289026Y105935D01*
X288993Y105847D01*
X288971Y105803D01*
X288946Y105760D01*
X288913Y105720D01*
X288880Y105680D01*
X288877Y105676D01*
X288873Y105672D01*
X288862Y105661D01*
X288848Y105647D01*
X288826Y105632D01*
X288804Y105614D01*
X288750Y105578D01*
X288680Y105541D01*
X288600Y105509D01*
X288509Y105483D01*
X288462Y105480D01*
X288411Y105476D01*
X288407D01*
X288404D01*
X288382D01*
X288349Y105480D01*
X288309Y105487D01*
X288258Y105498D01*
X288207Y105516D01*
X288156Y105538D01*
X288105Y105570D01*
X288098Y105574D01*
X288083Y105589D01*
X288061Y105611D01*
X288032Y105640D01*
X288000Y105680D01*
X287967Y105727D01*
X287934Y105782D01*
X287905Y105847D01*
Y105843D01*
X287901Y105836D01*
X287898Y105825D01*
X287890Y105811D01*
X287872Y105767D01*
X287847Y105716D01*
X287810Y105661D01*
X287770Y105603D01*
X287719Y105549D01*
X287661Y105498D01*
X287657D01*
X287654Y105494D01*
X287632Y105480D01*
X287596Y105458D01*
X287548Y105436D01*
X287490Y105414D01*
X287421Y105392D01*
X287344Y105377D01*
X287261Y105374D01*
X287257D01*
X287246D01*
X287228D01*
X287206Y105377D01*
X287181Y105381D01*
X287148Y105385D01*
X287111Y105392D01*
X287071Y105403D01*
X286988Y105429D01*
X286940Y105447D01*
X286897Y105472D01*
X286849Y105498D01*
X286806Y105527D01*
X286762Y105563D01*
X286718Y105603D01*
X286715Y105607D01*
X286707Y105614D01*
X286697Y105625D01*
X286686Y105643D01*
X286667Y105669D01*
X286649Y105694D01*
X286631Y105727D01*
X286609Y105763D01*
X286587Y105803D01*
X286569Y105851D01*
X286551Y105902D01*
X286533Y105953D01*
X286522Y106011D01*
X286511Y106073D01*
X286504Y106135D01*
X286500Y106204D01*
Y106240D01*
X286504Y106266D01*
X286507Y106298D01*
X286511Y106335D01*
X286518Y106375D01*
X286529Y106419D01*
X286555Y106517D01*
X286573Y106568D01*
X286591Y106615D01*
X286616Y106666D01*
X286646Y106717D01*
X286678Y106764D01*
X286718Y106808D01*
X286722Y106812D01*
X286729Y106819D01*
X286740Y106830D01*
X286758Y106844D01*
X286780Y106859D01*
X286806Y106881D01*
X286835Y106899D01*
X286871Y106921D01*
X286908Y106943D01*
X286951Y106961D01*
X287042Y106997D01*
X287097Y107012D01*
X287152Y107023D01*
X287210Y107030D01*
X287268Y107034D01*
X287272D01*
X287279D01*
X287294D01*
X287308Y107030D01*
D02*
G37*
G36*
X261663Y231179D02*
X261692Y231175D01*
X261725Y231171D01*
X261765Y231164D01*
X261805Y231157D01*
X261899Y231135D01*
X261998Y231099D01*
X262049Y231077D01*
X262096Y231048D01*
X262147Y231018D01*
X262194Y230982D01*
X262198Y230978D01*
X262209Y230971D01*
X262223Y230957D01*
X262242Y230938D01*
X262263Y230913D01*
X262293Y230884D01*
X262318Y230847D01*
X262347Y230807D01*
X262376Y230764D01*
X262402Y230713D01*
X262427Y230658D01*
X262453Y230600D01*
X262471Y230538D01*
X262486Y230469D01*
X262496Y230396D01*
X262500Y230320D01*
Y230287D01*
X262496Y230261D01*
X262493Y230232D01*
X262489Y230200D01*
X262486Y230159D01*
X262474Y230119D01*
X262453Y230028D01*
X262420Y229937D01*
X262398Y229890D01*
X262373Y229843D01*
X262344Y229799D01*
X262311Y229755D01*
X262307Y229752D01*
X262303Y229745D01*
X262289Y229737D01*
X262274Y229723D01*
X262256Y229704D01*
X262234Y229686D01*
X262205Y229664D01*
X262172Y229646D01*
X262140Y229624D01*
X262100Y229603D01*
X262012Y229562D01*
X261910Y229530D01*
X261856Y229519D01*
X261797Y229511D01*
X261772Y229836D01*
X261776D01*
X261783D01*
X261794Y229839D01*
X261812Y229843D01*
X261852Y229854D01*
X261907Y229868D01*
X261961Y229890D01*
X262023Y229919D01*
X262078Y229956D01*
X262129Y229999D01*
X262132Y230007D01*
X262147Y230021D01*
X262165Y230050D01*
X262187Y230090D01*
X262209Y230134D01*
X262227Y230189D01*
X262242Y230251D01*
X262245Y230320D01*
Y230342D01*
X262242Y230356D01*
X262238Y230400D01*
X262223Y230451D01*
X262205Y230513D01*
X262176Y230574D01*
X262132Y230640D01*
X262107Y230669D01*
X262078Y230698D01*
X262074Y230702D01*
X262070Y230705D01*
X262060Y230713D01*
X262049Y230724D01*
X262009Y230749D01*
X261958Y230778D01*
X261896Y230804D01*
X261819Y230829D01*
X261728Y230847D01*
X261681Y230855D01*
X261630D01*
X261626D01*
X261619D01*
X261605D01*
X261586Y230851D01*
X261565D01*
X261539Y230847D01*
X261481Y230837D01*
X261412Y230818D01*
X261343Y230793D01*
X261277Y230756D01*
X261215Y230705D01*
X261211D01*
X261208Y230698D01*
X261190Y230680D01*
X261164Y230647D01*
X261135Y230604D01*
X261109Y230545D01*
X261084Y230480D01*
X261066Y230403D01*
X261059Y230360D01*
Y230291D01*
X261062Y230261D01*
X261066Y230225D01*
X261077Y230181D01*
X261088Y230138D01*
X261106Y230090D01*
X261128Y230043D01*
X261131Y230039D01*
X261139Y230025D01*
X261157Y230003D01*
X261175Y229974D01*
X261201Y229945D01*
X261233Y229916D01*
X261266Y229883D01*
X261306Y229857D01*
X261266Y229566D01*
X259970Y229810D01*
Y231062D01*
X260265D01*
Y230054D01*
X260946Y229919D01*
X260942Y229923D01*
X260939Y229930D01*
X260931Y229941D01*
X260920Y229959D01*
X260909Y229981D01*
X260895Y230007D01*
X260866Y230065D01*
X260837Y230138D01*
X260811Y230218D01*
X260793Y230305D01*
X260786Y230349D01*
Y230429D01*
X260789Y230451D01*
X260793Y230480D01*
X260796Y230513D01*
X260804Y230549D01*
X260815Y230589D01*
X260840Y230676D01*
X260858Y230724D01*
X260884Y230771D01*
X260909Y230818D01*
X260939Y230866D01*
X260975Y230909D01*
X261015Y230953D01*
X261019Y230957D01*
X261026Y230964D01*
X261037Y230975D01*
X261055Y230989D01*
X261080Y231008D01*
X261106Y231026D01*
X261139Y231048D01*
X261175Y231069D01*
X261215Y231088D01*
X261259Y231109D01*
X261310Y231128D01*
X261361Y231146D01*
X261415Y231160D01*
X261477Y231171D01*
X261539Y231179D01*
X261605Y231182D01*
X261608D01*
X261619D01*
X261637D01*
X261663Y231179D01*
D02*
G37*
G36*
X261677Y229224D02*
X261699Y229217D01*
X261728Y229206D01*
X261761Y229195D01*
X261801Y229180D01*
X261845Y229162D01*
X261892Y229140D01*
X261994Y229089D01*
X262096Y229024D01*
X262147Y228984D01*
X262198Y228944D01*
X262242Y228900D01*
X262285Y228849D01*
X262289Y228845D01*
X262296Y228838D01*
X262303Y228820D01*
X262318Y228802D01*
X262336Y228773D01*
X262354Y228744D01*
X262373Y228703D01*
X262391Y228663D01*
X262413Y228616D01*
X262431Y228565D01*
X262449Y228511D01*
X262467Y228452D01*
X262482Y228390D01*
X262489Y228325D01*
X262496Y228256D01*
X262500Y228183D01*
Y228143D01*
X262496Y228114D01*
Y228081D01*
X262493Y228041D01*
X262486Y227997D01*
X262478Y227946D01*
X262460Y227841D01*
X262431Y227732D01*
X262391Y227622D01*
X262365Y227571D01*
X262336Y227520D01*
X262333Y227517D01*
X262329Y227509D01*
X262318Y227495D01*
X262303Y227480D01*
X262289Y227459D01*
X262267Y227433D01*
X262242Y227404D01*
X262212Y227375D01*
X262180Y227346D01*
X262147Y227313D01*
X262063Y227248D01*
X261965Y227186D01*
X261856Y227131D01*
X261852D01*
X261841Y227124D01*
X261823Y227120D01*
X261801Y227109D01*
X261772Y227102D01*
X261736Y227091D01*
X261696Y227076D01*
X261652Y227065D01*
X261605Y227055D01*
X261550Y227040D01*
X261437Y227022D01*
X261310Y227007D01*
X261179Y227000D01*
X261175D01*
X261160D01*
X261139D01*
X261113Y227004D01*
X261077D01*
X261040Y227007D01*
X260993Y227011D01*
X260946Y227018D01*
X260840Y227036D01*
X260724Y227062D01*
X260607Y227098D01*
X260494Y227149D01*
X260491Y227153D01*
X260480Y227156D01*
X260465Y227164D01*
X260447Y227178D01*
X260422Y227193D01*
X260392Y227211D01*
X260327Y227258D01*
X260254Y227320D01*
X260181Y227393D01*
X260109Y227477D01*
X260047Y227575D01*
X260043Y227579D01*
X260039Y227590D01*
X260032Y227604D01*
X260021Y227622D01*
X260010Y227652D01*
X259999Y227681D01*
X259985Y227717D01*
X259970Y227757D01*
X259956Y227801D01*
X259941Y227848D01*
X259919Y227950D01*
X259901Y228066D01*
X259894Y228187D01*
Y228223D01*
X259897Y228249D01*
X259901Y228281D01*
X259905Y228321D01*
X259908Y228361D01*
X259919Y228409D01*
X259941Y228507D01*
X259974Y228616D01*
X259996Y228671D01*
X260021Y228722D01*
X260054Y228773D01*
X260087Y228824D01*
X260090Y228827D01*
X260094Y228835D01*
X260105Y228849D01*
X260123Y228867D01*
X260141Y228886D01*
X260167Y228911D01*
X260196Y228936D01*
X260225Y228965D01*
X260261Y228995D01*
X260305Y229024D01*
X260349Y229057D01*
X260396Y229086D01*
X260451Y229111D01*
X260505Y229140D01*
X260563Y229162D01*
X260629Y229184D01*
X260705Y228856D01*
X260702D01*
X260695Y228853D01*
X260680Y228845D01*
X260662Y228838D01*
X260640Y228831D01*
X260611Y228820D01*
X260553Y228791D01*
X260487Y228754D01*
X260422Y228711D01*
X260360Y228656D01*
X260305Y228598D01*
X260298Y228591D01*
X260283Y228569D01*
X260265Y228532D01*
X260240Y228485D01*
X260218Y228423D01*
X260196Y228354D01*
X260181Y228270D01*
X260178Y228179D01*
Y228150D01*
X260181Y228132D01*
Y228106D01*
X260185Y228077D01*
X260196Y228008D01*
X260210Y227932D01*
X260236Y227852D01*
X260272Y227768D01*
X260320Y227692D01*
Y227688D01*
X260327Y227684D01*
X260345Y227659D01*
X260374Y227626D01*
X260418Y227586D01*
X260473Y227539D01*
X260534Y227495D01*
X260611Y227455D01*
X260695Y227419D01*
X260698D01*
X260705Y227415D01*
X260716Y227411D01*
X260735Y227408D01*
X260756Y227400D01*
X260782Y227393D01*
X260844Y227382D01*
X260917Y227368D01*
X260997Y227353D01*
X261084Y227346D01*
X261179Y227342D01*
X261182D01*
X261193D01*
X261211D01*
X261233D01*
X261259Y227346D01*
X261292D01*
X261328Y227349D01*
X261368Y227353D01*
X261455Y227364D01*
X261550Y227382D01*
X261645Y227404D01*
X261739Y227433D01*
X261743D01*
X261750Y227437D01*
X261761Y227444D01*
X261779Y227451D01*
X261823Y227473D01*
X261874Y227506D01*
X261932Y227546D01*
X261994Y227597D01*
X262049Y227655D01*
X262100Y227724D01*
Y227728D01*
X262103Y227735D01*
X262111Y227746D01*
X262118Y227761D01*
X262125Y227779D01*
X262136Y227801D01*
X262158Y227852D01*
X262180Y227917D01*
X262198Y227990D01*
X262212Y228070D01*
X262216Y228154D01*
Y228179D01*
X262212Y228201D01*
Y228227D01*
X262209Y228252D01*
X262194Y228318D01*
X262176Y228394D01*
X262147Y228470D01*
X262107Y228551D01*
X262085Y228591D01*
X262056Y228627D01*
X262052Y228631D01*
X262049Y228634D01*
X262038Y228645D01*
X262027Y228660D01*
X262009Y228674D01*
X261987Y228693D01*
X261965Y228714D01*
X261936Y228733D01*
X261903Y228754D01*
X261867Y228780D01*
X261830Y228802D01*
X261787Y228824D01*
X261739Y228842D01*
X261688Y228860D01*
X261634Y228878D01*
X261576Y228893D01*
X261659Y229228D01*
X261663D01*
X261677Y229224D01*
D02*
G37*
G36*
X222296Y156196D02*
X221987D01*
Y158166D01*
X221983Y158162D01*
X221965Y158148D01*
X221943Y158126D01*
X221907Y158100D01*
X221867Y158068D01*
X221816Y158031D01*
X221758Y157991D01*
X221692Y157951D01*
X221688D01*
X221685Y157947D01*
X221663Y157933D01*
X221627Y157915D01*
X221583Y157893D01*
X221532Y157867D01*
X221477Y157842D01*
X221423Y157816D01*
X221368Y157794D01*
Y158093D01*
X221372D01*
X221379Y158100D01*
X221394Y158104D01*
X221412Y158115D01*
X221434Y158126D01*
X221459Y158140D01*
X221521Y158177D01*
X221594Y158217D01*
X221667Y158268D01*
X221743Y158326D01*
X221819Y158388D01*
X221823Y158391D01*
X221827Y158395D01*
X221838Y158406D01*
X221852Y158417D01*
X221885Y158453D01*
X221929Y158497D01*
X221972Y158548D01*
X222020Y158606D01*
X222060Y158664D01*
X222096Y158726D01*
X222296D01*
Y156196D01*
D02*
G37*
G36*
X219665Y158755D02*
X219697D01*
X219730Y158752D01*
X219774Y158745D01*
X219817Y158737D01*
X219912Y158719D01*
X220021Y158690D01*
X220127Y158646D01*
X220181Y158621D01*
X220236Y158592D01*
X220240Y158588D01*
X220247Y158584D01*
X220262Y158573D01*
X220283Y158563D01*
X220305Y158544D01*
X220334Y158522D01*
X220396Y158472D01*
X220462Y158406D01*
X220535Y158326D01*
X220604Y158231D01*
X220662Y158126D01*
Y158122D01*
X220669Y158111D01*
X220676Y158097D01*
X220684Y158075D01*
X220698Y158046D01*
X220709Y158013D01*
X220724Y157973D01*
X220738Y157929D01*
X220749Y157882D01*
X220764Y157831D01*
X220778Y157776D01*
X220789Y157718D01*
X220804Y157591D01*
X220811Y157456D01*
Y157452D01*
Y157441D01*
Y157427D01*
Y157405D01*
X220808Y157376D01*
Y157343D01*
X220804Y157307D01*
X220800Y157270D01*
X220789Y157183D01*
X220771Y157088D01*
X220749Y156990D01*
X220717Y156895D01*
Y156892D01*
X220713Y156885D01*
X220706Y156870D01*
X220698Y156855D01*
X220687Y156834D01*
X220676Y156808D01*
X220647Y156750D01*
X220607Y156681D01*
X220556Y156608D01*
X220498Y156535D01*
X220433Y156462D01*
X220436D01*
X220444Y156455D01*
X220455Y156448D01*
X220473Y156437D01*
X220491Y156422D01*
X220516Y156408D01*
X220571Y156375D01*
X220637Y156335D01*
X220709Y156295D01*
X220786Y156262D01*
X220859Y156229D01*
X220760Y156000D01*
X220757D01*
X220749Y156004D01*
X220735Y156011D01*
X220713Y156018D01*
X220687Y156029D01*
X220658Y156044D01*
X220626Y156058D01*
X220589Y156076D01*
X220509Y156120D01*
X220418Y156171D01*
X220320Y156237D01*
X220218Y156309D01*
X220214D01*
X220207Y156302D01*
X220189Y156295D01*
X220171Y156284D01*
X220141Y156273D01*
X220112Y156258D01*
X220076Y156247D01*
X220036Y156233D01*
X219992Y156218D01*
X219945Y156204D01*
X219839Y156178D01*
X219723Y156160D01*
X219661Y156157D01*
X219599Y156153D01*
X219566D01*
X219541Y156157D01*
X219512D01*
X219475Y156160D01*
X219435Y156167D01*
X219392Y156175D01*
X219297Y156193D01*
X219191Y156222D01*
X219082Y156262D01*
X219031Y156288D01*
X218977Y156317D01*
X218973Y156320D01*
X218966Y156324D01*
X218951Y156335D01*
X218933Y156346D01*
X218907Y156364D01*
X218882Y156386D01*
X218820Y156437D01*
X218751Y156502D01*
X218682Y156582D01*
X218613Y156673D01*
X218551Y156779D01*
Y156782D01*
X218544Y156793D01*
X218536Y156808D01*
X218529Y156830D01*
X218518Y156859D01*
X218503Y156892D01*
X218489Y156932D01*
X218478Y156975D01*
X218463Y157023D01*
X218449Y157074D01*
X218438Y157128D01*
X218423Y157190D01*
X218409Y157318D01*
X218402Y157452D01*
Y157456D01*
Y157471D01*
Y157489D01*
X218405Y157514D01*
Y157547D01*
X218409Y157587D01*
X218412Y157631D01*
X218420Y157678D01*
X218438Y157783D01*
X218463Y157896D01*
X218500Y158017D01*
X218551Y158133D01*
X218554Y158137D01*
X218558Y158148D01*
X218565Y158162D01*
X218580Y158184D01*
X218594Y158209D01*
X218613Y158239D01*
X218664Y158308D01*
X218722Y158380D01*
X218798Y158457D01*
X218882Y158533D01*
X218980Y158599D01*
X218984Y158602D01*
X218995Y158606D01*
X219009Y158614D01*
X219031Y158624D01*
X219057Y158635D01*
X219086Y158650D01*
X219122Y158664D01*
X219162Y158679D01*
X219210Y158694D01*
X219257Y158708D01*
X219362Y158734D01*
X219479Y158752D01*
X219541Y158759D01*
X219639D01*
X219665Y158755D01*
D02*
G37*
G36*
X193886Y179496D02*
X193919D01*
X193959Y179493D01*
X194003Y179485D01*
X194054Y179478D01*
X194159Y179460D01*
X194268Y179431D01*
X194378Y179391D01*
X194429Y179365D01*
X194480Y179336D01*
X194483Y179333D01*
X194490Y179329D01*
X194505Y179318D01*
X194520Y179304D01*
X194541Y179289D01*
X194567Y179267D01*
X194596Y179242D01*
X194625Y179212D01*
X194654Y179180D01*
X194687Y179147D01*
X194753Y179063D01*
X194814Y178965D01*
X194869Y178856D01*
Y178852D01*
X194876Y178841D01*
X194880Y178823D01*
X194891Y178801D01*
X194898Y178772D01*
X194909Y178736D01*
X194924Y178696D01*
X194934Y178652D01*
X194945Y178605D01*
X194960Y178550D01*
X194978Y178437D01*
X194993Y178310D01*
X195000Y178179D01*
Y178175D01*
Y178161D01*
Y178139D01*
X194996Y178113D01*
Y178077D01*
X194993Y178040D01*
X194989Y177993D01*
X194982Y177946D01*
X194964Y177840D01*
X194938Y177724D01*
X194902Y177607D01*
X194851Y177494D01*
X194847Y177491D01*
X194843Y177480D01*
X194836Y177465D01*
X194822Y177447D01*
X194807Y177422D01*
X194789Y177392D01*
X194742Y177327D01*
X194680Y177254D01*
X194607Y177181D01*
X194523Y177109D01*
X194425Y177047D01*
X194421Y177043D01*
X194410Y177039D01*
X194396Y177032D01*
X194378Y177021D01*
X194349Y177010D01*
X194319Y176999D01*
X194283Y176985D01*
X194243Y176970D01*
X194199Y176956D01*
X194152Y176941D01*
X194050Y176919D01*
X193933Y176901D01*
X193813Y176894D01*
X193777D01*
X193752Y176897D01*
X193719Y176901D01*
X193679Y176905D01*
X193639Y176908D01*
X193591Y176919D01*
X193493Y176941D01*
X193384Y176974D01*
X193329Y176996D01*
X193278Y177021D01*
X193227Y177054D01*
X193176Y177087D01*
X193173Y177090D01*
X193166Y177094D01*
X193151Y177105D01*
X193133Y177123D01*
X193114Y177141D01*
X193089Y177167D01*
X193064Y177196D01*
X193034Y177225D01*
X193005Y177261D01*
X192976Y177305D01*
X192943Y177349D01*
X192914Y177396D01*
X192889Y177451D01*
X192860Y177505D01*
X192838Y177564D01*
X192816Y177629D01*
X193144Y177706D01*
Y177702D01*
X193147Y177695D01*
X193155Y177680D01*
X193162Y177662D01*
X193169Y177640D01*
X193180Y177611D01*
X193209Y177553D01*
X193246Y177487D01*
X193289Y177422D01*
X193344Y177360D01*
X193402Y177305D01*
X193409Y177298D01*
X193431Y177283D01*
X193468Y177265D01*
X193515Y177240D01*
X193577Y177218D01*
X193646Y177196D01*
X193730Y177181D01*
X193821Y177178D01*
X193850D01*
X193868Y177181D01*
X193894D01*
X193923Y177185D01*
X193992Y177196D01*
X194068Y177210D01*
X194148Y177236D01*
X194232Y177272D01*
X194308Y177320D01*
X194312D01*
X194316Y177327D01*
X194341Y177345D01*
X194374Y177374D01*
X194414Y177418D01*
X194461Y177473D01*
X194505Y177534D01*
X194545Y177611D01*
X194581Y177695D01*
Y177698D01*
X194585Y177706D01*
X194589Y177716D01*
X194592Y177735D01*
X194600Y177757D01*
X194607Y177782D01*
X194618Y177844D01*
X194632Y177917D01*
X194647Y177997D01*
X194654Y178084D01*
X194658Y178179D01*
Y178182D01*
Y178193D01*
Y178211D01*
Y178233D01*
X194654Y178259D01*
Y178292D01*
X194651Y178328D01*
X194647Y178368D01*
X194636Y178455D01*
X194618Y178550D01*
X194596Y178645D01*
X194567Y178739D01*
Y178743D01*
X194563Y178750D01*
X194556Y178761D01*
X194549Y178779D01*
X194527Y178823D01*
X194494Y178874D01*
X194454Y178932D01*
X194403Y178994D01*
X194345Y179049D01*
X194276Y179100D01*
X194272D01*
X194265Y179103D01*
X194254Y179111D01*
X194239Y179118D01*
X194221Y179125D01*
X194199Y179136D01*
X194148Y179158D01*
X194083Y179180D01*
X194010Y179198D01*
X193930Y179212D01*
X193846Y179216D01*
X193821D01*
X193799Y179212D01*
X193773D01*
X193748Y179209D01*
X193682Y179194D01*
X193606Y179176D01*
X193529Y179147D01*
X193449Y179107D01*
X193409Y179085D01*
X193373Y179056D01*
X193369Y179052D01*
X193366Y179049D01*
X193355Y179038D01*
X193340Y179027D01*
X193326Y179009D01*
X193307Y178987D01*
X193286Y178965D01*
X193267Y178936D01*
X193246Y178903D01*
X193220Y178867D01*
X193198Y178830D01*
X193176Y178787D01*
X193158Y178739D01*
X193140Y178688D01*
X193122Y178634D01*
X193107Y178576D01*
X192772Y178659D01*
Y178663D01*
X192776Y178677D01*
X192783Y178699D01*
X192794Y178728D01*
X192805Y178761D01*
X192820Y178801D01*
X192838Y178845D01*
X192860Y178892D01*
X192911Y178994D01*
X192976Y179096D01*
X193016Y179147D01*
X193056Y179198D01*
X193100Y179242D01*
X193151Y179285D01*
X193155Y179289D01*
X193162Y179296D01*
X193180Y179304D01*
X193198Y179318D01*
X193227Y179336D01*
X193256Y179354D01*
X193297Y179373D01*
X193337Y179391D01*
X193384Y179413D01*
X193435Y179431D01*
X193489Y179449D01*
X193548Y179467D01*
X193609Y179482D01*
X193675Y179489D01*
X193744Y179496D01*
X193817Y179500D01*
X193857D01*
X193886Y179496D01*
D02*
G37*
G36*
X191633Y177487D02*
X191637Y177491D01*
X191655Y177505D01*
X191677Y177527D01*
X191713Y177553D01*
X191753Y177585D01*
X191804Y177622D01*
X191862Y177662D01*
X191928Y177702D01*
X191931D01*
X191935Y177706D01*
X191957Y177720D01*
X191993Y177738D01*
X192037Y177760D01*
X192088Y177786D01*
X192143Y177811D01*
X192197Y177837D01*
X192252Y177858D01*
Y177560D01*
X192248D01*
X192241Y177553D01*
X192226Y177549D01*
X192208Y177538D01*
X192186Y177527D01*
X192161Y177513D01*
X192099Y177476D01*
X192026Y177436D01*
X191953Y177385D01*
X191877Y177327D01*
X191800Y177265D01*
X191797Y177261D01*
X191793Y177258D01*
X191782Y177247D01*
X191768Y177236D01*
X191735Y177199D01*
X191691Y177156D01*
X191648Y177105D01*
X191600Y177047D01*
X191560Y176988D01*
X191524Y176927D01*
X191324D01*
Y179456D01*
X191633D01*
Y177487D01*
D02*
G37*
G36*
X190574Y179453D02*
Y179438D01*
Y179416D01*
X190570Y179387D01*
X190567Y179354D01*
X190559Y179318D01*
X190552Y179282D01*
X190537Y179242D01*
Y179238D01*
X190534Y179234D01*
X190526Y179212D01*
X190512Y179180D01*
X190490Y179136D01*
X190461Y179085D01*
X190425Y179027D01*
X190384Y178969D01*
X190333Y178907D01*
Y178903D01*
X190326Y178899D01*
X190308Y178878D01*
X190275Y178845D01*
X190228Y178797D01*
X190173Y178743D01*
X190104Y178677D01*
X190021Y178605D01*
X189929Y178528D01*
X189926Y178524D01*
X189911Y178514D01*
X189890Y178495D01*
X189864Y178474D01*
X189831Y178444D01*
X189791Y178412D01*
X189751Y178375D01*
X189704Y178335D01*
X189613Y178248D01*
X189522Y178161D01*
X189478Y178117D01*
X189438Y178073D01*
X189402Y178033D01*
X189373Y177993D01*
Y177989D01*
X189365Y177986D01*
X189358Y177975D01*
X189351Y177960D01*
X189325Y177920D01*
X189296Y177873D01*
X189271Y177815D01*
X189245Y177753D01*
X189231Y177684D01*
X189223Y177618D01*
Y177614D01*
Y177611D01*
X189227Y177589D01*
X189231Y177553D01*
X189242Y177513D01*
X189256Y177462D01*
X189282Y177411D01*
X189314Y177360D01*
X189358Y177309D01*
X189365Y177302D01*
X189383Y177287D01*
X189409Y177269D01*
X189449Y177243D01*
X189500Y177221D01*
X189558Y177199D01*
X189627Y177185D01*
X189704Y177181D01*
X189726D01*
X189740Y177185D01*
X189784Y177189D01*
X189835Y177199D01*
X189890Y177214D01*
X189951Y177240D01*
X190010Y177272D01*
X190064Y177316D01*
X190071Y177323D01*
X190086Y177341D01*
X190108Y177371D01*
X190130Y177414D01*
X190155Y177465D01*
X190177Y177531D01*
X190192Y177604D01*
X190199Y177687D01*
X190516Y177655D01*
Y177651D01*
X190512Y177640D01*
Y177622D01*
X190508Y177596D01*
X190501Y177567D01*
X190494Y177534D01*
X190483Y177494D01*
X190472Y177454D01*
X190443Y177367D01*
X190399Y177280D01*
X190374Y177236D01*
X190341Y177192D01*
X190308Y177152D01*
X190272Y177116D01*
X190268Y177112D01*
X190261Y177109D01*
X190250Y177098D01*
X190232Y177087D01*
X190210Y177072D01*
X190184Y177058D01*
X190155Y177039D01*
X190119Y177021D01*
X190079Y177003D01*
X190035Y176985D01*
X189988Y176970D01*
X189937Y176956D01*
X189882Y176945D01*
X189824Y176934D01*
X189762Y176930D01*
X189697Y176927D01*
X189660D01*
X189635Y176930D01*
X189605Y176934D01*
X189569Y176937D01*
X189529Y176945D01*
X189489Y176952D01*
X189394Y176978D01*
X189300Y177014D01*
X189252Y177036D01*
X189205Y177061D01*
X189162Y177094D01*
X189121Y177130D01*
X189118Y177134D01*
X189111Y177138D01*
X189103Y177152D01*
X189089Y177167D01*
X189070Y177185D01*
X189052Y177210D01*
X189034Y177236D01*
X189012Y177269D01*
X188976Y177338D01*
X188939Y177425D01*
X188925Y177469D01*
X188918Y177520D01*
X188910Y177571D01*
X188907Y177625D01*
Y177633D01*
Y177651D01*
X188910Y177680D01*
X188914Y177720D01*
X188921Y177764D01*
X188936Y177815D01*
X188950Y177869D01*
X188972Y177924D01*
X188976Y177931D01*
X188983Y177949D01*
X188998Y177979D01*
X189020Y178019D01*
X189049Y178062D01*
X189085Y178117D01*
X189129Y178171D01*
X189180Y178233D01*
X189187Y178241D01*
X189205Y178262D01*
X189223Y178281D01*
X189242Y178299D01*
X189263Y178321D01*
X189293Y178350D01*
X189322Y178379D01*
X189358Y178412D01*
X189394Y178448D01*
X189438Y178488D01*
X189485Y178528D01*
X189536Y178576D01*
X189595Y178623D01*
X189653Y178674D01*
X189656Y178677D01*
X189664Y178685D01*
X189678Y178696D01*
X189697Y178710D01*
X189718Y178732D01*
X189744Y178754D01*
X189802Y178801D01*
X189864Y178856D01*
X189922Y178910D01*
X189973Y178958D01*
X189995Y178976D01*
X190013Y178994D01*
X190017Y178998D01*
X190028Y179009D01*
X190042Y179023D01*
X190060Y179045D01*
X190079Y179070D01*
X190101Y179096D01*
X190144Y179158D01*
X188903D01*
Y179456D01*
X190574D01*
Y179453D01*
D02*
G37*
G36*
X148408Y190040D02*
X148404Y189974D01*
X148400Y189901D01*
X148393Y189829D01*
X148382Y189756D01*
X148371Y189694D01*
Y189690D01*
X148368Y189683D01*
Y189672D01*
X148360Y189657D01*
X148349Y189617D01*
X148331Y189566D01*
X148306Y189508D01*
X148273Y189446D01*
X148237Y189384D01*
X148189Y189326D01*
X148186Y189323D01*
X148182Y189319D01*
X148171Y189308D01*
X148160Y189293D01*
X148124Y189257D01*
X148073Y189213D01*
X148011Y189166D01*
X147938Y189115D01*
X147854Y189068D01*
X147760Y189028D01*
X147756D01*
X147749Y189024D01*
X147734Y189017D01*
X147712Y189013D01*
X147687Y189002D01*
X147658Y188995D01*
X147625Y188988D01*
X147585Y188977D01*
X147545Y188966D01*
X147498Y188959D01*
X147396Y188940D01*
X147283Y188929D01*
X147159Y188926D01*
X147155D01*
X147148D01*
X147130D01*
X147112D01*
X147086Y188929D01*
X147057D01*
X146988Y188933D01*
X146908Y188944D01*
X146824Y188955D01*
X146737Y188973D01*
X146650Y188995D01*
X146646D01*
X146639Y188999D01*
X146628Y189002D01*
X146613Y189006D01*
X146573Y189020D01*
X146522Y189042D01*
X146464Y189064D01*
X146406Y189093D01*
X146344Y189130D01*
X146286Y189166D01*
X146278Y189170D01*
X146260Y189184D01*
X146235Y189206D01*
X146202Y189235D01*
X146165Y189268D01*
X146129Y189308D01*
X146089Y189348D01*
X146056Y189395D01*
X146053Y189403D01*
X146042Y189417D01*
X146027Y189443D01*
X146009Y189479D01*
X145987Y189523D01*
X145969Y189574D01*
X145947Y189632D01*
X145929Y189698D01*
Y189705D01*
X145925Y189716D01*
X145922Y189727D01*
X145918Y189763D01*
X145911Y189814D01*
X145903Y189872D01*
X145896Y189941D01*
X145892Y190018D01*
X145889Y190102D01*
Y191008D01*
X148408D01*
Y190040D01*
D02*
G37*
G36*
X145958Y188635D02*
X145991Y188631D01*
X146027Y188624D01*
X146063Y188616D01*
X146104Y188602D01*
X146107D01*
X146111Y188598D01*
X146133Y188591D01*
X146165Y188576D01*
X146209Y188555D01*
X146260Y188525D01*
X146318Y188489D01*
X146377Y188449D01*
X146438Y188398D01*
X146442D01*
X146446Y188391D01*
X146468Y188373D01*
X146500Y188340D01*
X146548Y188292D01*
X146602Y188238D01*
X146668Y188169D01*
X146741Y188085D01*
X146817Y187994D01*
X146821Y187990D01*
X146832Y187976D01*
X146850Y187954D01*
X146872Y187928D01*
X146901Y187896D01*
X146933Y187856D01*
X146970Y187816D01*
X147010Y187768D01*
X147097Y187677D01*
X147185Y187586D01*
X147228Y187543D01*
X147272Y187503D01*
X147312Y187466D01*
X147352Y187437D01*
X147356D01*
X147359Y187430D01*
X147370Y187423D01*
X147385Y187415D01*
X147425Y187390D01*
X147472Y187361D01*
X147530Y187335D01*
X147592Y187310D01*
X147661Y187295D01*
X147727Y187288D01*
X147731D01*
X147734D01*
X147756Y187291D01*
X147792Y187295D01*
X147833Y187306D01*
X147883Y187321D01*
X147934Y187346D01*
X147985Y187379D01*
X148036Y187423D01*
X148044Y187430D01*
X148058Y187448D01*
X148076Y187473D01*
X148102Y187513D01*
X148124Y187564D01*
X148146Y187623D01*
X148160Y187692D01*
X148164Y187768D01*
Y187790D01*
X148160Y187805D01*
X148156Y187848D01*
X148146Y187899D01*
X148131Y187954D01*
X148106Y188016D01*
X148073Y188074D01*
X148029Y188129D01*
X148022Y188136D01*
X148004Y188151D01*
X147975Y188172D01*
X147931Y188194D01*
X147880Y188220D01*
X147814Y188242D01*
X147742Y188256D01*
X147658Y188263D01*
X147691Y188580D01*
X147694D01*
X147705Y188576D01*
X147723D01*
X147749Y188573D01*
X147778Y188565D01*
X147811Y188558D01*
X147851Y188547D01*
X147891Y188536D01*
X147978Y188507D01*
X148065Y188463D01*
X148109Y188438D01*
X148153Y188405D01*
X148193Y188373D01*
X148229Y188336D01*
X148233Y188332D01*
X148237Y188325D01*
X148248Y188314D01*
X148258Y188296D01*
X148273Y188274D01*
X148288Y188249D01*
X148306Y188220D01*
X148324Y188183D01*
X148342Y188143D01*
X148360Y188100D01*
X148375Y188052D01*
X148389Y188001D01*
X148400Y187947D01*
X148411Y187888D01*
X148415Y187827D01*
X148419Y187761D01*
Y187725D01*
X148415Y187699D01*
X148411Y187670D01*
X148408Y187634D01*
X148400Y187594D01*
X148393Y187554D01*
X148368Y187459D01*
X148331Y187364D01*
X148309Y187317D01*
X148284Y187270D01*
X148251Y187226D01*
X148215Y187186D01*
X148211Y187182D01*
X148207Y187175D01*
X148193Y187168D01*
X148178Y187153D01*
X148160Y187135D01*
X148135Y187117D01*
X148109Y187099D01*
X148076Y187077D01*
X148007Y187040D01*
X147920Y187004D01*
X147876Y186989D01*
X147825Y186982D01*
X147774Y186975D01*
X147720Y186971D01*
X147712D01*
X147694D01*
X147665Y186975D01*
X147625Y186978D01*
X147581Y186986D01*
X147530Y187000D01*
X147476Y187015D01*
X147421Y187037D01*
X147414Y187040D01*
X147396Y187048D01*
X147367Y187062D01*
X147327Y187084D01*
X147283Y187113D01*
X147228Y187150D01*
X147174Y187193D01*
X147112Y187244D01*
X147105Y187251D01*
X147083Y187270D01*
X147064Y187288D01*
X147046Y187306D01*
X147025Y187328D01*
X146995Y187357D01*
X146966Y187386D01*
X146933Y187423D01*
X146897Y187459D01*
X146857Y187503D01*
X146817Y187550D01*
X146770Y187601D01*
X146722Y187659D01*
X146671Y187717D01*
X146668Y187721D01*
X146660Y187728D01*
X146650Y187743D01*
X146635Y187761D01*
X146613Y187783D01*
X146591Y187808D01*
X146544Y187867D01*
X146489Y187928D01*
X146435Y187987D01*
X146388Y188038D01*
X146369Y188059D01*
X146351Y188078D01*
X146347Y188081D01*
X146336Y188092D01*
X146322Y188107D01*
X146300Y188125D01*
X146275Y188143D01*
X146249Y188165D01*
X146187Y188209D01*
Y186968D01*
X145889D01*
Y188638D01*
X145892D01*
X145907D01*
X145929D01*
X145958Y188635D01*
D02*
G37*
G36*
X137908Y190040D02*
X137904Y189974D01*
X137900Y189901D01*
X137893Y189829D01*
X137882Y189756D01*
X137871Y189694D01*
Y189690D01*
X137868Y189683D01*
Y189672D01*
X137860Y189657D01*
X137849Y189617D01*
X137831Y189566D01*
X137806Y189508D01*
X137773Y189446D01*
X137737Y189384D01*
X137689Y189326D01*
X137686Y189323D01*
X137682Y189319D01*
X137671Y189308D01*
X137660Y189293D01*
X137624Y189257D01*
X137573Y189213D01*
X137511Y189166D01*
X137438Y189115D01*
X137354Y189068D01*
X137260Y189028D01*
X137256D01*
X137249Y189024D01*
X137234Y189017D01*
X137212Y189013D01*
X137187Y189002D01*
X137158Y188995D01*
X137125Y188988D01*
X137085Y188977D01*
X137045Y188966D01*
X136998Y188959D01*
X136896Y188940D01*
X136783Y188929D01*
X136659Y188926D01*
X136655D01*
X136648D01*
X136630D01*
X136612D01*
X136586Y188929D01*
X136557D01*
X136488Y188933D01*
X136408Y188944D01*
X136324Y188955D01*
X136237Y188973D01*
X136150Y188995D01*
X136146D01*
X136139Y188999D01*
X136128Y189002D01*
X136113Y189006D01*
X136073Y189020D01*
X136022Y189042D01*
X135964Y189064D01*
X135906Y189093D01*
X135844Y189130D01*
X135786Y189166D01*
X135778Y189170D01*
X135760Y189184D01*
X135735Y189206D01*
X135702Y189235D01*
X135665Y189268D01*
X135629Y189308D01*
X135589Y189348D01*
X135556Y189395D01*
X135553Y189403D01*
X135542Y189417D01*
X135527Y189443D01*
X135509Y189479D01*
X135487Y189523D01*
X135469Y189574D01*
X135447Y189632D01*
X135429Y189698D01*
Y189705D01*
X135425Y189716D01*
X135422Y189727D01*
X135418Y189763D01*
X135411Y189814D01*
X135403Y189872D01*
X135396Y189941D01*
X135392Y190018D01*
X135389Y190102D01*
Y191008D01*
X137908D01*
Y190040D01*
D02*
G37*
G36*
X137285Y188354D02*
X137293Y188347D01*
X137296Y188332D01*
X137307Y188314D01*
X137318Y188292D01*
X137333Y188267D01*
X137369Y188205D01*
X137409Y188132D01*
X137460Y188059D01*
X137518Y187983D01*
X137580Y187907D01*
X137584Y187903D01*
X137587Y187899D01*
X137598Y187888D01*
X137609Y187874D01*
X137646Y187841D01*
X137689Y187797D01*
X137740Y187754D01*
X137799Y187706D01*
X137857Y187666D01*
X137919Y187630D01*
Y187430D01*
X135389D01*
Y187739D01*
X137358D01*
X137354Y187743D01*
X137340Y187761D01*
X137318Y187783D01*
X137293Y187819D01*
X137260Y187859D01*
X137223Y187910D01*
X137183Y187969D01*
X137143Y188034D01*
Y188038D01*
X137140Y188041D01*
X137125Y188063D01*
X137107Y188100D01*
X137085Y188143D01*
X137060Y188194D01*
X137034Y188249D01*
X137009Y188303D01*
X136987Y188358D01*
X137285D01*
Y188354D01*
D02*
G37*
G36*
X221929Y129668D02*
X221958Y129664D01*
X221994Y129660D01*
X222034Y129653D01*
X222074Y129646D01*
X222169Y129620D01*
X222263Y129584D01*
X222311Y129562D01*
X222358Y129536D01*
X222402Y129504D01*
X222442Y129467D01*
X222445Y129464D01*
X222453Y129460D01*
X222460Y129446D01*
X222475Y129431D01*
X222493Y129413D01*
X222511Y129387D01*
X222529Y129362D01*
X222551Y129329D01*
X222587Y129260D01*
X222624Y129173D01*
X222638Y129129D01*
X222646Y129078D01*
X222653Y129027D01*
X222656Y128972D01*
Y128965D01*
Y128947D01*
X222653Y128918D01*
X222649Y128878D01*
X222642Y128834D01*
X222627Y128783D01*
X222613Y128728D01*
X222591Y128674D01*
X222587Y128667D01*
X222580Y128648D01*
X222566Y128619D01*
X222544Y128579D01*
X222515Y128535D01*
X222478Y128481D01*
X222434Y128426D01*
X222383Y128364D01*
X222376Y128357D01*
X222358Y128335D01*
X222340Y128317D01*
X222322Y128299D01*
X222300Y128277D01*
X222271Y128248D01*
X222242Y128219D01*
X222205Y128186D01*
X222169Y128150D01*
X222125Y128110D01*
X222078Y128070D01*
X222027Y128022D01*
X221969Y127975D01*
X221910Y127924D01*
X221907Y127920D01*
X221899Y127913D01*
X221885Y127902D01*
X221867Y127888D01*
X221845Y127866D01*
X221819Y127844D01*
X221761Y127797D01*
X221699Y127742D01*
X221641Y127687D01*
X221590Y127640D01*
X221568Y127622D01*
X221550Y127604D01*
X221546Y127600D01*
X221535Y127589D01*
X221521Y127575D01*
X221503Y127553D01*
X221484Y127527D01*
X221463Y127502D01*
X221419Y127440D01*
X222660D01*
Y127141D01*
X220989D01*
Y127145D01*
Y127160D01*
Y127181D01*
X220993Y127210D01*
X220997Y127243D01*
X221004Y127280D01*
X221011Y127316D01*
X221026Y127356D01*
Y127360D01*
X221029Y127363D01*
X221037Y127385D01*
X221051Y127418D01*
X221073Y127462D01*
X221102Y127513D01*
X221139Y127571D01*
X221179Y127629D01*
X221230Y127691D01*
Y127695D01*
X221237Y127698D01*
X221255Y127720D01*
X221288Y127753D01*
X221335Y127800D01*
X221390Y127855D01*
X221459Y127920D01*
X221543Y127993D01*
X221634Y128070D01*
X221637Y128073D01*
X221652Y128084D01*
X221674Y128102D01*
X221699Y128124D01*
X221732Y128153D01*
X221772Y128186D01*
X221812Y128223D01*
X221859Y128262D01*
X221950Y128350D01*
X222041Y128437D01*
X222085Y128481D01*
X222125Y128525D01*
X222162Y128565D01*
X222191Y128605D01*
Y128608D01*
X222198Y128612D01*
X222205Y128623D01*
X222212Y128637D01*
X222238Y128677D01*
X222267Y128725D01*
X222292Y128783D01*
X222318Y128845D01*
X222333Y128914D01*
X222340Y128980D01*
Y128983D01*
Y128987D01*
X222336Y129009D01*
X222333Y129045D01*
X222322Y129085D01*
X222307Y129136D01*
X222282Y129187D01*
X222249Y129238D01*
X222205Y129289D01*
X222198Y129296D01*
X222180Y129311D01*
X222154Y129329D01*
X222114Y129355D01*
X222063Y129376D01*
X222005Y129398D01*
X221936Y129413D01*
X221859Y129416D01*
X221837D01*
X221823Y129413D01*
X221779Y129409D01*
X221728Y129398D01*
X221674Y129384D01*
X221612Y129358D01*
X221554Y129325D01*
X221499Y129282D01*
X221492Y129274D01*
X221477Y129256D01*
X221455Y129227D01*
X221433Y129183D01*
X221408Y129132D01*
X221386Y129067D01*
X221372Y128994D01*
X221364Y128910D01*
X221048Y128943D01*
Y128947D01*
X221051Y128958D01*
Y128976D01*
X221055Y129001D01*
X221062Y129031D01*
X221070Y129063D01*
X221080Y129103D01*
X221091Y129143D01*
X221120Y129231D01*
X221164Y129318D01*
X221190Y129362D01*
X221222Y129405D01*
X221255Y129446D01*
X221291Y129482D01*
X221295Y129485D01*
X221302Y129489D01*
X221313Y129500D01*
X221332Y129511D01*
X221353Y129526D01*
X221379Y129540D01*
X221408Y129558D01*
X221444Y129577D01*
X221484Y129595D01*
X221528Y129613D01*
X221575Y129628D01*
X221626Y129642D01*
X221681Y129653D01*
X221739Y129664D01*
X221801Y129668D01*
X221867Y129671D01*
X221903D01*
X221929Y129668D01*
D02*
G37*
G36*
X219566Y129700D02*
X219599D01*
X219632Y129697D01*
X219675Y129689D01*
X219719Y129682D01*
X219814Y129664D01*
X219923Y129635D01*
X220028Y129591D01*
X220083Y129566D01*
X220138Y129536D01*
X220141Y129533D01*
X220149Y129529D01*
X220163Y129518D01*
X220185Y129507D01*
X220207Y129489D01*
X220236Y129467D01*
X220298Y129416D01*
X220363Y129351D01*
X220436Y129271D01*
X220505Y129176D01*
X220564Y129071D01*
Y129067D01*
X220571Y129056D01*
X220578Y129042D01*
X220585Y129020D01*
X220600Y128990D01*
X220611Y128958D01*
X220625Y128918D01*
X220640Y128874D01*
X220651Y128827D01*
X220666Y128776D01*
X220680Y128721D01*
X220691Y128663D01*
X220706Y128535D01*
X220713Y128401D01*
Y128397D01*
Y128386D01*
Y128372D01*
Y128350D01*
X220709Y128321D01*
Y128288D01*
X220706Y128252D01*
X220702Y128215D01*
X220691Y128128D01*
X220673Y128033D01*
X220651Y127935D01*
X220618Y127840D01*
Y127837D01*
X220615Y127829D01*
X220607Y127815D01*
X220600Y127800D01*
X220589Y127778D01*
X220578Y127753D01*
X220549Y127695D01*
X220509Y127626D01*
X220458Y127553D01*
X220400Y127480D01*
X220334Y127407D01*
X220338D01*
X220345Y127400D01*
X220356Y127393D01*
X220374Y127382D01*
X220392Y127367D01*
X220418Y127352D01*
X220473Y127320D01*
X220538Y127280D01*
X220611Y127240D01*
X220687Y127207D01*
X220760Y127174D01*
X220662Y126945D01*
X220658D01*
X220651Y126948D01*
X220636Y126956D01*
X220615Y126963D01*
X220589Y126974D01*
X220560Y126988D01*
X220527Y127003D01*
X220491Y127021D01*
X220411Y127065D01*
X220320Y127116D01*
X220221Y127181D01*
X220120Y127254D01*
X220116D01*
X220109Y127247D01*
X220090Y127240D01*
X220072Y127229D01*
X220043Y127218D01*
X220014Y127203D01*
X219977Y127192D01*
X219937Y127178D01*
X219894Y127163D01*
X219847Y127149D01*
X219741Y127123D01*
X219624Y127105D01*
X219563Y127101D01*
X219501Y127098D01*
X219468D01*
X219442Y127101D01*
X219413D01*
X219377Y127105D01*
X219337Y127112D01*
X219293Y127120D01*
X219198Y127138D01*
X219093Y127167D01*
X218984Y127207D01*
X218933Y127232D01*
X218878Y127261D01*
X218875Y127265D01*
X218867Y127269D01*
X218853Y127280D01*
X218834Y127291D01*
X218809Y127309D01*
X218784Y127331D01*
X218722Y127382D01*
X218653Y127447D01*
X218583Y127527D01*
X218514Y127618D01*
X218452Y127724D01*
Y127727D01*
X218445Y127738D01*
X218438Y127753D01*
X218430Y127775D01*
X218420Y127804D01*
X218405Y127837D01*
X218390Y127877D01*
X218379Y127920D01*
X218365Y127968D01*
X218350Y128019D01*
X218339Y128073D01*
X218325Y128135D01*
X218310Y128262D01*
X218303Y128397D01*
Y128401D01*
Y128415D01*
Y128434D01*
X218307Y128459D01*
Y128492D01*
X218310Y128532D01*
X218314Y128576D01*
X218321Y128623D01*
X218339Y128728D01*
X218365Y128841D01*
X218401Y128961D01*
X218452Y129078D01*
X218456Y129081D01*
X218460Y129092D01*
X218467Y129107D01*
X218481Y129129D01*
X218496Y129154D01*
X218514Y129183D01*
X218565Y129253D01*
X218623Y129325D01*
X218700Y129402D01*
X218784Y129478D01*
X218882Y129544D01*
X218885Y129547D01*
X218896Y129551D01*
X218911Y129558D01*
X218933Y129569D01*
X218958Y129580D01*
X218987Y129595D01*
X219024Y129609D01*
X219064Y129624D01*
X219111Y129638D01*
X219159Y129653D01*
X219264Y129678D01*
X219380Y129697D01*
X219442Y129704D01*
X219541D01*
X219566Y129700D01*
D02*
G37*
G36*
X189741Y206500D02*
X189770Y206497D01*
X189803Y206493D01*
X189839Y206486D01*
X189879Y206479D01*
X189966Y206457D01*
X190057Y206420D01*
X190105Y206398D01*
X190148Y206373D01*
X190192Y206340D01*
X190236Y206307D01*
X190239Y206304D01*
X190247Y206296D01*
X190258Y206286D01*
X190268Y206271D01*
X190287Y206253D01*
X190305Y206227D01*
X190327Y206202D01*
X190348Y206169D01*
X190370Y206133D01*
X190392Y206096D01*
X190432Y206009D01*
X190465Y205907D01*
X190476Y205852D01*
X190483Y205794D01*
X190174Y205754D01*
Y205758D01*
X190170Y205765D01*
X190166Y205780D01*
X190163Y205798D01*
X190159Y205820D01*
X190152Y205845D01*
X190134Y205900D01*
X190108Y205965D01*
X190076Y206027D01*
X190039Y206085D01*
X189995Y206136D01*
X189988Y206140D01*
X189974Y206154D01*
X189945Y206173D01*
X189908Y206191D01*
X189864Y206213D01*
X189810Y206231D01*
X189748Y206245D01*
X189682Y206249D01*
X189661D01*
X189646Y206245D01*
X189606Y206242D01*
X189555Y206231D01*
X189497Y206213D01*
X189435Y206187D01*
X189373Y206151D01*
X189315Y206100D01*
X189307Y206093D01*
X189289Y206071D01*
X189267Y206038D01*
X189238Y205994D01*
X189209Y205940D01*
X189187Y205878D01*
X189169Y205805D01*
X189162Y205725D01*
Y205721D01*
Y205714D01*
Y205703D01*
X189165Y205689D01*
X189169Y205649D01*
X189180Y205601D01*
X189195Y205543D01*
X189220Y205485D01*
X189257Y205427D01*
X189304Y205372D01*
X189311Y205365D01*
X189329Y205350D01*
X189358Y205328D01*
X189399Y205303D01*
X189449Y205277D01*
X189511Y205256D01*
X189580Y205241D01*
X189657Y205234D01*
X189690D01*
X189715Y205237D01*
X189748Y205241D01*
X189784Y205248D01*
X189828Y205256D01*
X189875Y205266D01*
X189839Y204993D01*
X189821D01*
X189806Y204997D01*
X189759D01*
X189719Y204990D01*
X189672Y204982D01*
X189617Y204972D01*
X189555Y204953D01*
X189497Y204928D01*
X189435Y204895D01*
X189431D01*
X189428Y204891D01*
X189409Y204877D01*
X189384Y204851D01*
X189355Y204819D01*
X189326Y204771D01*
X189300Y204717D01*
X189282Y204655D01*
X189275Y204619D01*
Y204578D01*
Y204575D01*
Y204571D01*
Y204549D01*
X189282Y204520D01*
X189289Y204480D01*
X189304Y204436D01*
X189322Y204389D01*
X189351Y204342D01*
X189391Y204298D01*
X189395Y204294D01*
X189413Y204280D01*
X189438Y204262D01*
X189471Y204240D01*
X189515Y204222D01*
X189566Y204204D01*
X189624Y204189D01*
X189690Y204185D01*
X189719D01*
X189752Y204193D01*
X189795Y204200D01*
X189842Y204214D01*
X189890Y204233D01*
X189941Y204262D01*
X189988Y204298D01*
X189992Y204302D01*
X190006Y204320D01*
X190028Y204345D01*
X190054Y204382D01*
X190079Y204429D01*
X190105Y204487D01*
X190126Y204557D01*
X190141Y204637D01*
X190450Y204582D01*
Y204578D01*
X190447Y204568D01*
X190443Y204553D01*
X190439Y204531D01*
X190432Y204506D01*
X190421Y204476D01*
X190400Y204407D01*
X190363Y204327D01*
X190319Y204247D01*
X190265Y204171D01*
X190196Y204102D01*
X190192Y204098D01*
X190185Y204094D01*
X190174Y204087D01*
X190159Y204076D01*
X190141Y204062D01*
X190115Y204047D01*
X190090Y204032D01*
X190057Y204014D01*
X189985Y203985D01*
X189901Y203956D01*
X189803Y203938D01*
X189752Y203930D01*
X189661D01*
X189620Y203934D01*
X189573Y203941D01*
X189515Y203952D01*
X189449Y203971D01*
X189384Y203992D01*
X189318Y204022D01*
X189315D01*
X189311Y204025D01*
X189289Y204036D01*
X189257Y204058D01*
X189220Y204083D01*
X189176Y204120D01*
X189133Y204160D01*
X189089Y204207D01*
X189053Y204262D01*
X189049Y204269D01*
X189038Y204287D01*
X189023Y204320D01*
X189005Y204360D01*
X188987Y204407D01*
X188973Y204462D01*
X188962Y204524D01*
X188958Y204586D01*
Y204593D01*
Y204615D01*
X188962Y204644D01*
X188969Y204684D01*
X188980Y204731D01*
X188998Y204782D01*
X189020Y204833D01*
X189049Y204884D01*
X189053Y204891D01*
X189064Y204906D01*
X189085Y204931D01*
X189114Y204961D01*
X189151Y204993D01*
X189195Y205030D01*
X189246Y205063D01*
X189307Y205095D01*
X189304D01*
X189296Y205099D01*
X189286Y205103D01*
X189271Y205106D01*
X189231Y205121D01*
X189180Y205143D01*
X189122Y205172D01*
X189064Y205208D01*
X189009Y205256D01*
X188958Y205310D01*
X188954Y205317D01*
X188940Y205339D01*
X188918Y205376D01*
X188896Y205423D01*
X188874Y205481D01*
X188852Y205550D01*
X188838Y205630D01*
X188834Y205718D01*
Y205721D01*
Y205732D01*
Y205750D01*
X188838Y205772D01*
X188841Y205802D01*
X188849Y205834D01*
X188856Y205871D01*
X188863Y205911D01*
X188892Y205998D01*
X188914Y206045D01*
X188936Y206089D01*
X188965Y206136D01*
X188998Y206184D01*
X189034Y206231D01*
X189078Y206275D01*
X189082Y206278D01*
X189089Y206286D01*
X189104Y206296D01*
X189122Y206311D01*
X189144Y206329D01*
X189173Y206347D01*
X189206Y206369D01*
X189246Y206387D01*
X189286Y206409D01*
X189333Y206431D01*
X189380Y206449D01*
X189435Y206468D01*
X189493Y206482D01*
X189555Y206493D01*
X189617Y206500D01*
X189686Y206504D01*
X189719D01*
X189741Y206500D01*
D02*
G37*
G36*
X193843D02*
X193876D01*
X193916Y206497D01*
X193959Y206489D01*
X194010Y206482D01*
X194116Y206464D01*
X194225Y206435D01*
X194334Y206395D01*
X194385Y206369D01*
X194436Y206340D01*
X194440Y206336D01*
X194447Y206333D01*
X194462Y206322D01*
X194476Y206307D01*
X194498Y206293D01*
X194524Y206271D01*
X194553Y206245D01*
X194582Y206216D01*
X194611Y206184D01*
X194644Y206151D01*
X194709Y206067D01*
X194771Y205969D01*
X194826Y205860D01*
Y205856D01*
X194833Y205845D01*
X194837Y205827D01*
X194848Y205805D01*
X194855Y205776D01*
X194866Y205740D01*
X194880Y205699D01*
X194891Y205656D01*
X194902Y205609D01*
X194917Y205554D01*
X194935Y205441D01*
X194949Y205314D01*
X194957Y205183D01*
Y205179D01*
Y205165D01*
Y205143D01*
X194953Y205117D01*
Y205081D01*
X194949Y205044D01*
X194946Y204997D01*
X194939Y204950D01*
X194920Y204844D01*
X194895Y204728D01*
X194858Y204611D01*
X194808Y204498D01*
X194804Y204495D01*
X194800Y204484D01*
X194793Y204469D01*
X194778Y204451D01*
X194764Y204426D01*
X194746Y204396D01*
X194698Y204331D01*
X194636Y204258D01*
X194564Y204185D01*
X194480Y204113D01*
X194382Y204051D01*
X194378Y204047D01*
X194367Y204043D01*
X194352Y204036D01*
X194334Y204025D01*
X194305Y204014D01*
X194276Y204003D01*
X194240Y203989D01*
X194200Y203974D01*
X194156Y203960D01*
X194109Y203945D01*
X194007Y203923D01*
X193890Y203905D01*
X193770Y203898D01*
X193734D01*
X193708Y203901D01*
X193675Y203905D01*
X193635Y203909D01*
X193595Y203912D01*
X193548Y203923D01*
X193450Y203945D01*
X193341Y203978D01*
X193286Y204000D01*
X193235Y204025D01*
X193184Y204058D01*
X193133Y204091D01*
X193129Y204094D01*
X193122Y204098D01*
X193108Y204109D01*
X193089Y204127D01*
X193071Y204145D01*
X193046Y204171D01*
X193020Y204200D01*
X192991Y204229D01*
X192962Y204265D01*
X192933Y204309D01*
X192900Y204353D01*
X192871Y204400D01*
X192845Y204455D01*
X192816Y204509D01*
X192795Y204568D01*
X192773Y204633D01*
X193100Y204710D01*
Y204706D01*
X193104Y204698D01*
X193111Y204684D01*
X193119Y204666D01*
X193126Y204644D01*
X193137Y204615D01*
X193166Y204557D01*
X193202Y204491D01*
X193246Y204426D01*
X193300Y204364D01*
X193359Y204309D01*
X193366Y204302D01*
X193388Y204287D01*
X193424Y204269D01*
X193472Y204243D01*
X193534Y204222D01*
X193603Y204200D01*
X193686Y204185D01*
X193777Y204182D01*
X193807D01*
X193825Y204185D01*
X193850D01*
X193879Y204189D01*
X193948Y204200D01*
X194025Y204214D01*
X194105Y204240D01*
X194189Y204276D01*
X194265Y204324D01*
X194269D01*
X194272Y204331D01*
X194298Y204349D01*
X194331Y204378D01*
X194371Y204422D01*
X194418Y204476D01*
X194462Y204538D01*
X194502Y204615D01*
X194538Y204698D01*
Y204702D01*
X194542Y204710D01*
X194545Y204720D01*
X194549Y204739D01*
X194556Y204760D01*
X194564Y204786D01*
X194574Y204848D01*
X194589Y204921D01*
X194604Y205001D01*
X194611Y205088D01*
X194615Y205183D01*
Y205186D01*
Y205197D01*
Y205215D01*
Y205237D01*
X194611Y205263D01*
Y205295D01*
X194607Y205332D01*
X194604Y205372D01*
X194593Y205459D01*
X194574Y205554D01*
X194553Y205649D01*
X194524Y205743D01*
Y205747D01*
X194520Y205754D01*
X194513Y205765D01*
X194505Y205783D01*
X194483Y205827D01*
X194451Y205878D01*
X194411Y205936D01*
X194360Y205998D01*
X194301Y206053D01*
X194232Y206104D01*
X194229D01*
X194221Y206107D01*
X194211Y206115D01*
X194196Y206122D01*
X194178Y206129D01*
X194156Y206140D01*
X194105Y206162D01*
X194039Y206184D01*
X193967Y206202D01*
X193887Y206216D01*
X193803Y206220D01*
X193777D01*
X193755Y206216D01*
X193730D01*
X193705Y206213D01*
X193639Y206198D01*
X193563Y206180D01*
X193486Y206151D01*
X193406Y206111D01*
X193366Y206089D01*
X193330Y206060D01*
X193326Y206056D01*
X193322Y206053D01*
X193311Y206042D01*
X193297Y206031D01*
X193282Y206013D01*
X193264Y205991D01*
X193242Y205969D01*
X193224Y205940D01*
X193202Y205907D01*
X193177Y205871D01*
X193155Y205834D01*
X193133Y205790D01*
X193115Y205743D01*
X193097Y205692D01*
X193078Y205638D01*
X193064Y205579D01*
X192729Y205663D01*
Y205667D01*
X192733Y205681D01*
X192740Y205703D01*
X192751Y205732D01*
X192762Y205765D01*
X192776Y205805D01*
X192795Y205849D01*
X192816Y205896D01*
X192867Y205998D01*
X192933Y206100D01*
X192973Y206151D01*
X193013Y206202D01*
X193057Y206245D01*
X193108Y206289D01*
X193111Y206293D01*
X193119Y206300D01*
X193137Y206307D01*
X193155Y206322D01*
X193184Y206340D01*
X193213Y206358D01*
X193253Y206377D01*
X193293Y206395D01*
X193341Y206417D01*
X193392Y206435D01*
X193446Y206453D01*
X193504Y206471D01*
X193566Y206486D01*
X193632Y206493D01*
X193701Y206500D01*
X193774Y206504D01*
X193814D01*
X193843Y206500D01*
D02*
G37*
G36*
X191590Y204491D02*
X191593Y204495D01*
X191612Y204509D01*
X191633Y204531D01*
X191670Y204557D01*
X191710Y204589D01*
X191761Y204626D01*
X191819Y204666D01*
X191885Y204706D01*
X191888D01*
X191892Y204710D01*
X191914Y204724D01*
X191950Y204742D01*
X191994Y204764D01*
X192045Y204789D01*
X192099Y204815D01*
X192154Y204840D01*
X192209Y204862D01*
Y204564D01*
X192205D01*
X192198Y204557D01*
X192183Y204553D01*
X192165Y204542D01*
X192143Y204531D01*
X192118Y204517D01*
X192056Y204480D01*
X191983Y204440D01*
X191910Y204389D01*
X191834Y204331D01*
X191757Y204269D01*
X191753Y204265D01*
X191750Y204262D01*
X191739Y204251D01*
X191724Y204240D01*
X191692Y204204D01*
X191648Y204160D01*
X191604Y204109D01*
X191557Y204051D01*
X191517Y203992D01*
X191481Y203930D01*
X191280D01*
Y206460D01*
X191590D01*
Y204491D01*
D02*
G37*
G36*
X194836Y236948D02*
X194865Y236944D01*
X194898Y236941D01*
X194938Y236933D01*
X194978Y236926D01*
X195073Y236904D01*
X195171Y236868D01*
X195222Y236846D01*
X195269Y236817D01*
X195320Y236788D01*
X195368Y236752D01*
X195371Y236748D01*
X195382Y236740D01*
X195397Y236726D01*
X195415Y236708D01*
X195437Y236682D01*
X195466Y236653D01*
X195491Y236617D01*
X195520Y236577D01*
X195549Y236533D01*
X195575Y236482D01*
X195600Y236427D01*
X195626Y236369D01*
X195644Y236307D01*
X195659Y236238D01*
X195670Y236165D01*
X195673Y236089D01*
Y236056D01*
X195670Y236031D01*
X195666Y236002D01*
X195662Y235969D01*
X195659Y235929D01*
X195648Y235889D01*
X195626Y235798D01*
X195593Y235707D01*
X195571Y235660D01*
X195546Y235612D01*
X195517Y235568D01*
X195484Y235525D01*
X195480Y235521D01*
X195477Y235514D01*
X195462Y235507D01*
X195448Y235492D01*
X195429Y235474D01*
X195407Y235456D01*
X195378Y235434D01*
X195346Y235416D01*
X195313Y235394D01*
X195273Y235372D01*
X195185Y235332D01*
X195084Y235299D01*
X195029Y235288D01*
X194971Y235281D01*
X194945Y235605D01*
X194949D01*
X194956D01*
X194967Y235609D01*
X194985Y235612D01*
X195025Y235623D01*
X195080Y235638D01*
X195134Y235660D01*
X195196Y235689D01*
X195251Y235725D01*
X195302Y235769D01*
X195306Y235776D01*
X195320Y235790D01*
X195338Y235820D01*
X195360Y235860D01*
X195382Y235903D01*
X195400Y235958D01*
X195415Y236020D01*
X195419Y236089D01*
Y236111D01*
X195415Y236125D01*
X195411Y236169D01*
X195397Y236220D01*
X195378Y236282D01*
X195349Y236344D01*
X195306Y236409D01*
X195280Y236438D01*
X195251Y236468D01*
X195247Y236471D01*
X195244Y236475D01*
X195233Y236482D01*
X195222Y236493D01*
X195182Y236519D01*
X195131Y236548D01*
X195069Y236573D01*
X194993Y236599D01*
X194902Y236617D01*
X194854Y236624D01*
X194803D01*
X194800D01*
X194792D01*
X194778D01*
X194760Y236620D01*
X194738D01*
X194712Y236617D01*
X194654Y236606D01*
X194585Y236588D01*
X194516Y236562D01*
X194450Y236526D01*
X194388Y236475D01*
X194385D01*
X194381Y236468D01*
X194363Y236449D01*
X194337Y236417D01*
X194308Y236373D01*
X194283Y236315D01*
X194257Y236249D01*
X194239Y236173D01*
X194232Y236129D01*
Y236060D01*
X194236Y236031D01*
X194239Y235994D01*
X194250Y235951D01*
X194261Y235907D01*
X194279Y235860D01*
X194301Y235812D01*
X194305Y235809D01*
X194312Y235794D01*
X194330Y235772D01*
X194348Y235743D01*
X194374Y235714D01*
X194406Y235685D01*
X194439Y235652D01*
X194479Y235627D01*
X194439Y235335D01*
X193143Y235579D01*
Y236831D01*
X193438D01*
Y235823D01*
X194119Y235689D01*
X194115Y235692D01*
X194112Y235700D01*
X194104Y235710D01*
X194094Y235729D01*
X194083Y235751D01*
X194068Y235776D01*
X194039Y235834D01*
X194010Y235907D01*
X193984Y235987D01*
X193966Y236074D01*
X193959Y236118D01*
Y236198D01*
X193963Y236220D01*
X193966Y236249D01*
X193970Y236282D01*
X193977Y236318D01*
X193988Y236358D01*
X194013Y236446D01*
X194032Y236493D01*
X194057Y236540D01*
X194083Y236588D01*
X194112Y236635D01*
X194148Y236679D01*
X194188Y236722D01*
X194192Y236726D01*
X194199Y236733D01*
X194210Y236744D01*
X194228Y236759D01*
X194254Y236777D01*
X194279Y236795D01*
X194312Y236817D01*
X194348Y236839D01*
X194388Y236857D01*
X194432Y236879D01*
X194483Y236897D01*
X194534Y236915D01*
X194589Y236930D01*
X194650Y236941D01*
X194712Y236948D01*
X194778Y236952D01*
X194781D01*
X194792D01*
X194811D01*
X194836Y236948D01*
D02*
G37*
G36*
X195630Y233279D02*
X195626D01*
X195611D01*
X195590D01*
X195560Y233282D01*
X195528Y233286D01*
X195491Y233294D01*
X195455Y233301D01*
X195415Y233315D01*
X195411D01*
X195407Y233319D01*
X195386Y233326D01*
X195353Y233341D01*
X195309Y233363D01*
X195258Y233392D01*
X195200Y233428D01*
X195142Y233468D01*
X195080Y233519D01*
X195076D01*
X195073Y233526D01*
X195051Y233545D01*
X195018Y233577D01*
X194971Y233625D01*
X194916Y233679D01*
X194851Y233749D01*
X194778Y233832D01*
X194701Y233923D01*
X194698Y233927D01*
X194687Y233941D01*
X194669Y233963D01*
X194647Y233989D01*
X194618Y234021D01*
X194585Y234062D01*
X194548Y234102D01*
X194509Y234149D01*
X194421Y234240D01*
X194334Y234331D01*
X194290Y234374D01*
X194246Y234415D01*
X194206Y234451D01*
X194166Y234480D01*
X194163D01*
X194159Y234487D01*
X194148Y234495D01*
X194133Y234502D01*
X194094Y234527D01*
X194046Y234557D01*
X193988Y234582D01*
X193926Y234608D01*
X193857Y234622D01*
X193791Y234629D01*
X193788D01*
X193784D01*
X193762Y234626D01*
X193726Y234622D01*
X193686Y234611D01*
X193635Y234597D01*
X193584Y234571D01*
X193533Y234538D01*
X193482Y234495D01*
X193475Y234487D01*
X193460Y234469D01*
X193442Y234444D01*
X193417Y234404D01*
X193395Y234353D01*
X193373Y234295D01*
X193358Y234225D01*
X193355Y234149D01*
Y234127D01*
X193358Y234113D01*
X193362Y234069D01*
X193373Y234018D01*
X193387Y233963D01*
X193413Y233901D01*
X193446Y233843D01*
X193489Y233788D01*
X193497Y233781D01*
X193515Y233767D01*
X193544Y233745D01*
X193588Y233723D01*
X193639Y233698D01*
X193704Y233676D01*
X193777Y233661D01*
X193860Y233654D01*
X193828Y233337D01*
X193824D01*
X193813Y233341D01*
X193795D01*
X193770Y233344D01*
X193740Y233352D01*
X193708Y233359D01*
X193668Y233370D01*
X193628Y233381D01*
X193540Y233410D01*
X193453Y233454D01*
X193409Y233479D01*
X193366Y233512D01*
X193325Y233545D01*
X193289Y233581D01*
X193285Y233585D01*
X193282Y233592D01*
X193271Y233603D01*
X193260Y233621D01*
X193245Y233643D01*
X193231Y233668D01*
X193213Y233698D01*
X193194Y233734D01*
X193176Y233774D01*
X193158Y233818D01*
X193143Y233865D01*
X193129Y233916D01*
X193118Y233970D01*
X193107Y234029D01*
X193103Y234091D01*
X193100Y234156D01*
Y234192D01*
X193103Y234218D01*
X193107Y234247D01*
X193111Y234283D01*
X193118Y234324D01*
X193125Y234364D01*
X193151Y234458D01*
X193187Y234553D01*
X193209Y234600D01*
X193235Y234647D01*
X193267Y234691D01*
X193304Y234731D01*
X193307Y234735D01*
X193311Y234742D01*
X193325Y234750D01*
X193340Y234764D01*
X193358Y234782D01*
X193384Y234800D01*
X193409Y234819D01*
X193442Y234840D01*
X193511Y234877D01*
X193598Y234913D01*
X193642Y234928D01*
X193693Y234935D01*
X193744Y234942D01*
X193799Y234946D01*
X193806D01*
X193824D01*
X193853Y234942D01*
X193893Y234939D01*
X193937Y234931D01*
X193988Y234917D01*
X194043Y234902D01*
X194097Y234880D01*
X194104Y234877D01*
X194123Y234870D01*
X194152Y234855D01*
X194192Y234833D01*
X194236Y234804D01*
X194290Y234768D01*
X194345Y234724D01*
X194406Y234673D01*
X194414Y234666D01*
X194436Y234647D01*
X194454Y234629D01*
X194472Y234611D01*
X194494Y234589D01*
X194523Y234560D01*
X194552Y234531D01*
X194585Y234495D01*
X194621Y234458D01*
X194661Y234415D01*
X194701Y234367D01*
X194749Y234316D01*
X194796Y234258D01*
X194847Y234200D01*
X194851Y234196D01*
X194858Y234189D01*
X194869Y234174D01*
X194883Y234156D01*
X194905Y234134D01*
X194927Y234109D01*
X194974Y234051D01*
X195029Y233989D01*
X195084Y233930D01*
X195131Y233879D01*
X195149Y233858D01*
X195167Y233840D01*
X195171Y233836D01*
X195182Y233825D01*
X195196Y233810D01*
X195218Y233792D01*
X195244Y233774D01*
X195269Y233752D01*
X195331Y233708D01*
Y234950D01*
X195630D01*
Y233279D01*
D02*
G37*
G36*
X194851Y233035D02*
X194872Y233028D01*
X194902Y233017D01*
X194934Y233006D01*
X194974Y232991D01*
X195018Y232973D01*
X195065Y232951D01*
X195167Y232900D01*
X195269Y232835D01*
X195320Y232795D01*
X195371Y232755D01*
X195415Y232711D01*
X195458Y232660D01*
X195462Y232657D01*
X195469Y232649D01*
X195477Y232631D01*
X195491Y232613D01*
X195510Y232584D01*
X195528Y232555D01*
X195546Y232515D01*
X195564Y232474D01*
X195586Y232427D01*
X195604Y232376D01*
X195622Y232322D01*
X195641Y232263D01*
X195655Y232202D01*
X195662Y232136D01*
X195670Y232067D01*
X195673Y231994D01*
Y231954D01*
X195670Y231925D01*
Y231892D01*
X195666Y231852D01*
X195659Y231808D01*
X195651Y231757D01*
X195633Y231652D01*
X195604Y231543D01*
X195564Y231433D01*
X195539Y231382D01*
X195510Y231331D01*
X195506Y231328D01*
X195502Y231321D01*
X195491Y231306D01*
X195477Y231292D01*
X195462Y231270D01*
X195440Y231244D01*
X195415Y231215D01*
X195386Y231186D01*
X195353Y231157D01*
X195320Y231124D01*
X195237Y231059D01*
X195138Y230997D01*
X195029Y230942D01*
X195025D01*
X195014Y230935D01*
X194996Y230931D01*
X194974Y230920D01*
X194945Y230913D01*
X194909Y230902D01*
X194869Y230887D01*
X194825Y230876D01*
X194778Y230866D01*
X194723Y230851D01*
X194610Y230833D01*
X194483Y230818D01*
X194352Y230811D01*
X194348D01*
X194334D01*
X194312D01*
X194286Y230815D01*
X194250D01*
X194214Y230818D01*
X194166Y230822D01*
X194119Y230829D01*
X194013Y230847D01*
X193897Y230873D01*
X193781Y230909D01*
X193668Y230960D01*
X193664Y230964D01*
X193653Y230967D01*
X193639Y230975D01*
X193620Y230989D01*
X193595Y231004D01*
X193566Y231022D01*
X193500Y231069D01*
X193427Y231131D01*
X193355Y231204D01*
X193282Y231288D01*
X193220Y231386D01*
X193216Y231390D01*
X193213Y231401D01*
X193205Y231415D01*
X193194Y231433D01*
X193184Y231463D01*
X193173Y231492D01*
X193158Y231528D01*
X193143Y231568D01*
X193129Y231612D01*
X193114Y231659D01*
X193093Y231761D01*
X193074Y231877D01*
X193067Y231998D01*
Y232034D01*
X193071Y232060D01*
X193074Y232092D01*
X193078Y232132D01*
X193082Y232172D01*
X193093Y232220D01*
X193114Y232318D01*
X193147Y232427D01*
X193169Y232482D01*
X193194Y232533D01*
X193227Y232584D01*
X193260Y232635D01*
X193264Y232638D01*
X193267Y232646D01*
X193278Y232660D01*
X193296Y232678D01*
X193315Y232697D01*
X193340Y232722D01*
X193369Y232748D01*
X193398Y232777D01*
X193435Y232806D01*
X193478Y232835D01*
X193522Y232868D01*
X193569Y232897D01*
X193624Y232922D01*
X193678Y232951D01*
X193737Y232973D01*
X193802Y232995D01*
X193879Y232667D01*
X193875D01*
X193868Y232664D01*
X193853Y232657D01*
X193835Y232649D01*
X193813Y232642D01*
X193784Y232631D01*
X193726Y232602D01*
X193660Y232565D01*
X193595Y232522D01*
X193533Y232467D01*
X193478Y232409D01*
X193471Y232402D01*
X193456Y232380D01*
X193438Y232343D01*
X193413Y232296D01*
X193391Y232234D01*
X193369Y232165D01*
X193355Y232081D01*
X193351Y231990D01*
Y231961D01*
X193355Y231943D01*
Y231918D01*
X193358Y231888D01*
X193369Y231819D01*
X193384Y231743D01*
X193409Y231663D01*
X193446Y231579D01*
X193493Y231503D01*
Y231499D01*
X193500Y231495D01*
X193518Y231470D01*
X193547Y231437D01*
X193591Y231397D01*
X193646Y231350D01*
X193708Y231306D01*
X193784Y231266D01*
X193868Y231230D01*
X193871D01*
X193879Y231226D01*
X193890Y231222D01*
X193908Y231219D01*
X193930Y231211D01*
X193955Y231204D01*
X194017Y231193D01*
X194090Y231179D01*
X194170Y231164D01*
X194257Y231157D01*
X194352Y231153D01*
X194356D01*
X194367D01*
X194385D01*
X194406D01*
X194432Y231157D01*
X194465D01*
X194501Y231160D01*
X194541Y231164D01*
X194629Y231175D01*
X194723Y231193D01*
X194818Y231215D01*
X194913Y231244D01*
X194916D01*
X194923Y231248D01*
X194934Y231255D01*
X194952Y231262D01*
X194996Y231284D01*
X195047Y231317D01*
X195105Y231357D01*
X195167Y231408D01*
X195222Y231466D01*
X195273Y231535D01*
Y231539D01*
X195276Y231546D01*
X195284Y231557D01*
X195291Y231572D01*
X195298Y231590D01*
X195309Y231612D01*
X195331Y231663D01*
X195353Y231728D01*
X195371Y231801D01*
X195386Y231881D01*
X195389Y231965D01*
Y231990D01*
X195386Y232012D01*
Y232038D01*
X195382Y232063D01*
X195368Y232129D01*
X195349Y232205D01*
X195320Y232281D01*
X195280Y232362D01*
X195258Y232402D01*
X195229Y232438D01*
X195226Y232442D01*
X195222Y232445D01*
X195211Y232456D01*
X195200Y232471D01*
X195182Y232485D01*
X195160Y232504D01*
X195138Y232525D01*
X195109Y232544D01*
X195076Y232565D01*
X195040Y232591D01*
X195003Y232613D01*
X194960Y232635D01*
X194913Y232653D01*
X194862Y232671D01*
X194807Y232689D01*
X194749Y232704D01*
X194832Y233039D01*
X194836D01*
X194851Y233035D01*
D02*
G37*
G36*
X204376Y236871D02*
X204398D01*
X204456Y236860D01*
X204525Y236849D01*
X204598Y236831D01*
X204678Y236805D01*
X204755Y236769D01*
X204758D01*
X204762Y236765D01*
X204773Y236758D01*
X204787Y236751D01*
X204824Y236729D01*
X204871Y236696D01*
X204922Y236656D01*
X204973Y236609D01*
X205024Y236550D01*
X205068Y236489D01*
Y236485D01*
X205071Y236481D01*
X205079Y236470D01*
X205082Y236456D01*
X205100Y236419D01*
X205119Y236372D01*
X205140Y236310D01*
X205155Y236241D01*
X205170Y236165D01*
X205173Y236081D01*
Y236063D01*
X205170Y236045D01*
Y236015D01*
X205166Y235983D01*
X205159Y235946D01*
X205148Y235903D01*
X205137Y235859D01*
X205122Y235808D01*
X205104Y235757D01*
X205082Y235706D01*
X205053Y235651D01*
X205020Y235600D01*
X204984Y235549D01*
X204940Y235498D01*
X204889Y235451D01*
X204886Y235448D01*
X204875Y235440D01*
X204860Y235429D01*
X204835Y235415D01*
X204802Y235393D01*
X204766Y235375D01*
X204718Y235353D01*
X204667Y235331D01*
X204605Y235306D01*
X204536Y235284D01*
X204460Y235265D01*
X204376Y235247D01*
X204281Y235229D01*
X204180Y235218D01*
X204070Y235211D01*
X203954Y235207D01*
X203950D01*
X203947D01*
X203936D01*
X203921D01*
X203885Y235211D01*
X203834D01*
X203776Y235215D01*
X203706Y235222D01*
X203630Y235229D01*
X203546Y235240D01*
X203463Y235255D01*
X203372Y235273D01*
X203284Y235295D01*
X203197Y235320D01*
X203113Y235353D01*
X203033Y235389D01*
X202957Y235429D01*
X202891Y235477D01*
X202887Y235480D01*
X202880Y235488D01*
X202866Y235502D01*
X202844Y235520D01*
X202822Y235542D01*
X202800Y235571D01*
X202771Y235608D01*
X202745Y235644D01*
X202720Y235688D01*
X202691Y235735D01*
X202669Y235790D01*
X202643Y235844D01*
X202625Y235906D01*
X202611Y235972D01*
X202603Y236041D01*
X202600Y236114D01*
Y236143D01*
X202603Y236165D01*
Y236190D01*
X202607Y236219D01*
X202622Y236288D01*
X202640Y236365D01*
X202669Y236445D01*
X202713Y236525D01*
X202738Y236565D01*
X202767Y236601D01*
X202771Y236605D01*
X202775Y236609D01*
X202785Y236620D01*
X202796Y236631D01*
X202815Y236649D01*
X202836Y236663D01*
X202887Y236703D01*
X202953Y236743D01*
X203033Y236780D01*
X203124Y236812D01*
X203226Y236834D01*
X203251Y236525D01*
X203248D01*
X203244Y236521D01*
X203222Y236518D01*
X203189Y236507D01*
X203149Y236492D01*
X203106Y236478D01*
X203062Y236456D01*
X203022Y236430D01*
X202989Y236405D01*
X202982Y236398D01*
X202967Y236383D01*
X202946Y236357D01*
X202920Y236321D01*
X202898Y236274D01*
X202876Y236223D01*
X202862Y236161D01*
X202855Y236095D01*
Y236070D01*
X202858Y236041D01*
X202866Y236008D01*
X202876Y235964D01*
X202891Y235921D01*
X202909Y235877D01*
X202938Y235833D01*
X202942Y235826D01*
X202957Y235808D01*
X202982Y235782D01*
X203018Y235750D01*
X203062Y235713D01*
X203113Y235673D01*
X203179Y235637D01*
X203251Y235600D01*
X203255D01*
X203262Y235597D01*
X203273Y235593D01*
X203288Y235586D01*
X203310Y235582D01*
X203335Y235575D01*
X203364Y235568D01*
X203401Y235560D01*
X203441Y235549D01*
X203484Y235542D01*
X203532Y235535D01*
X203583Y235531D01*
X203641Y235524D01*
X203699Y235520D01*
X203765Y235517D01*
X203830D01*
X203826Y235520D01*
X203805Y235535D01*
X203776Y235560D01*
X203739Y235593D01*
X203695Y235630D01*
X203655Y235677D01*
X203615Y235728D01*
X203579Y235786D01*
Y235790D01*
X203575Y235793D01*
X203564Y235815D01*
X203554Y235848D01*
X203535Y235892D01*
X203521Y235943D01*
X203510Y236001D01*
X203499Y236063D01*
X203495Y236128D01*
Y236157D01*
X203499Y236179D01*
X203502Y236208D01*
X203506Y236237D01*
X203513Y236274D01*
X203524Y236310D01*
X203550Y236394D01*
X203568Y236438D01*
X203593Y236481D01*
X203619Y236525D01*
X203648Y236572D01*
X203684Y236616D01*
X203725Y236656D01*
X203728Y236660D01*
X203735Y236667D01*
X203746Y236678D01*
X203765Y236689D01*
X203790Y236707D01*
X203816Y236725D01*
X203848Y236743D01*
X203885Y236765D01*
X203925Y236787D01*
X203968Y236805D01*
X204019Y236823D01*
X204070Y236842D01*
X204125Y236853D01*
X204187Y236863D01*
X204249Y236871D01*
X204314Y236874D01*
X204318D01*
X204325D01*
X204336D01*
X204354D01*
X204376Y236871D01*
D02*
G37*
G36*
X205130Y233220D02*
X205126D01*
X205111D01*
X205090D01*
X205060Y233224D01*
X205028Y233227D01*
X204991Y233234D01*
X204955Y233242D01*
X204915Y233256D01*
X204911D01*
X204907Y233260D01*
X204886Y233267D01*
X204853Y233282D01*
X204809Y233304D01*
X204758Y233333D01*
X204700Y233369D01*
X204642Y233409D01*
X204580Y233460D01*
X204576D01*
X204573Y233467D01*
X204551Y233486D01*
X204518Y233518D01*
X204471Y233566D01*
X204416Y233620D01*
X204351Y233689D01*
X204278Y233773D01*
X204201Y233864D01*
X204198Y233868D01*
X204187Y233882D01*
X204169Y233904D01*
X204147Y233930D01*
X204118Y233962D01*
X204085Y234002D01*
X204048Y234043D01*
X204009Y234090D01*
X203921Y234181D01*
X203834Y234272D01*
X203790Y234315D01*
X203746Y234355D01*
X203706Y234392D01*
X203666Y234421D01*
X203663D01*
X203659Y234428D01*
X203648Y234436D01*
X203633Y234443D01*
X203593Y234468D01*
X203546Y234497D01*
X203488Y234523D01*
X203426Y234548D01*
X203357Y234563D01*
X203291Y234570D01*
X203288D01*
X203284D01*
X203262Y234567D01*
X203226Y234563D01*
X203186Y234552D01*
X203135Y234538D01*
X203084Y234512D01*
X203033Y234479D01*
X202982Y234436D01*
X202975Y234428D01*
X202960Y234410D01*
X202942Y234385D01*
X202917Y234345D01*
X202895Y234294D01*
X202873Y234235D01*
X202858Y234166D01*
X202855Y234090D01*
Y234068D01*
X202858Y234053D01*
X202862Y234010D01*
X202873Y233959D01*
X202887Y233904D01*
X202913Y233842D01*
X202946Y233784D01*
X202989Y233729D01*
X202997Y233722D01*
X203015Y233708D01*
X203044Y233686D01*
X203088Y233664D01*
X203138Y233638D01*
X203204Y233617D01*
X203277Y233602D01*
X203361Y233595D01*
X203328Y233278D01*
X203324D01*
X203313Y233282D01*
X203295D01*
X203270Y233285D01*
X203240Y233293D01*
X203208Y233300D01*
X203168Y233311D01*
X203128Y233322D01*
X203040Y233351D01*
X202953Y233395D01*
X202909Y233420D01*
X202866Y233453D01*
X202825Y233486D01*
X202789Y233522D01*
X202785Y233526D01*
X202782Y233533D01*
X202771Y233544D01*
X202760Y233562D01*
X202745Y233584D01*
X202731Y233609D01*
X202713Y233638D01*
X202694Y233675D01*
X202676Y233715D01*
X202658Y233759D01*
X202643Y233806D01*
X202629Y233857D01*
X202618Y233911D01*
X202607Y233970D01*
X202603Y234032D01*
X202600Y234097D01*
Y234134D01*
X202603Y234159D01*
X202607Y234188D01*
X202611Y234225D01*
X202618Y234264D01*
X202625Y234305D01*
X202651Y234399D01*
X202687Y234494D01*
X202709Y234541D01*
X202734Y234589D01*
X202767Y234632D01*
X202804Y234672D01*
X202807Y234676D01*
X202811Y234683D01*
X202825Y234690D01*
X202840Y234705D01*
X202858Y234723D01*
X202884Y234741D01*
X202909Y234760D01*
X202942Y234781D01*
X203011Y234818D01*
X203099Y234854D01*
X203142Y234869D01*
X203193Y234876D01*
X203244Y234883D01*
X203299Y234887D01*
X203306D01*
X203324D01*
X203353Y234883D01*
X203393Y234880D01*
X203437Y234872D01*
X203488Y234858D01*
X203543Y234843D01*
X203597Y234821D01*
X203604Y234818D01*
X203623Y234810D01*
X203652Y234796D01*
X203692Y234774D01*
X203735Y234745D01*
X203790Y234709D01*
X203845Y234665D01*
X203906Y234614D01*
X203914Y234607D01*
X203936Y234589D01*
X203954Y234570D01*
X203972Y234552D01*
X203994Y234530D01*
X204023Y234501D01*
X204052Y234472D01*
X204085Y234436D01*
X204121Y234399D01*
X204161Y234355D01*
X204201Y234308D01*
X204249Y234257D01*
X204296Y234199D01*
X204347Y234141D01*
X204351Y234137D01*
X204358Y234130D01*
X204369Y234115D01*
X204383Y234097D01*
X204405Y234075D01*
X204427Y234050D01*
X204474Y233992D01*
X204529Y233930D01*
X204584Y233871D01*
X204631Y233820D01*
X204649Y233799D01*
X204667Y233780D01*
X204671Y233777D01*
X204682Y233766D01*
X204696Y233751D01*
X204718Y233733D01*
X204744Y233715D01*
X204769Y233693D01*
X204831Y233649D01*
Y234891D01*
X205130D01*
Y233220D01*
D02*
G37*
G36*
X204351Y232976D02*
X204373Y232969D01*
X204402Y232958D01*
X204434Y232947D01*
X204474Y232932D01*
X204518Y232914D01*
X204565Y232892D01*
X204667Y232841D01*
X204769Y232776D01*
X204820Y232736D01*
X204871Y232696D01*
X204915Y232652D01*
X204959Y232601D01*
X204962Y232597D01*
X204969Y232590D01*
X204977Y232572D01*
X204991Y232554D01*
X205010Y232525D01*
X205028Y232495D01*
X205046Y232455D01*
X205064Y232415D01*
X205086Y232368D01*
X205104Y232317D01*
X205122Y232262D01*
X205140Y232204D01*
X205155Y232142D01*
X205162Y232077D01*
X205170Y232008D01*
X205173Y231935D01*
Y231895D01*
X205170Y231866D01*
Y231833D01*
X205166Y231793D01*
X205159Y231749D01*
X205151Y231698D01*
X205133Y231593D01*
X205104Y231484D01*
X205064Y231374D01*
X205039Y231323D01*
X205010Y231272D01*
X205006Y231269D01*
X205002Y231261D01*
X204991Y231247D01*
X204977Y231232D01*
X204962Y231211D01*
X204940Y231185D01*
X204915Y231156D01*
X204886Y231127D01*
X204853Y231098D01*
X204820Y231065D01*
X204736Y230999D01*
X204638Y230938D01*
X204529Y230883D01*
X204525D01*
X204514Y230876D01*
X204496Y230872D01*
X204474Y230861D01*
X204445Y230854D01*
X204409Y230843D01*
X204369Y230828D01*
X204325Y230817D01*
X204278Y230806D01*
X204223Y230792D01*
X204110Y230774D01*
X203983Y230759D01*
X203852Y230752D01*
X203848D01*
X203834D01*
X203812D01*
X203786Y230756D01*
X203750D01*
X203714Y230759D01*
X203666Y230763D01*
X203619Y230770D01*
X203513Y230788D01*
X203397Y230814D01*
X203280Y230850D01*
X203168Y230901D01*
X203164Y230905D01*
X203153Y230908D01*
X203138Y230916D01*
X203120Y230930D01*
X203095Y230945D01*
X203066Y230963D01*
X203000Y231010D01*
X202927Y231072D01*
X202855Y231145D01*
X202782Y231229D01*
X202720Y231327D01*
X202716Y231331D01*
X202713Y231342D01*
X202705Y231356D01*
X202694Y231374D01*
X202683Y231403D01*
X202673Y231433D01*
X202658Y231469D01*
X202643Y231509D01*
X202629Y231553D01*
X202614Y231600D01*
X202592Y231702D01*
X202574Y231818D01*
X202567Y231939D01*
Y231975D01*
X202571Y232000D01*
X202574Y232033D01*
X202578Y232073D01*
X202582Y232113D01*
X202592Y232161D01*
X202614Y232259D01*
X202647Y232368D01*
X202669Y232423D01*
X202694Y232474D01*
X202727Y232525D01*
X202760Y232576D01*
X202764Y232579D01*
X202767Y232587D01*
X202778Y232601D01*
X202796Y232619D01*
X202815Y232637D01*
X202840Y232663D01*
X202869Y232688D01*
X202898Y232717D01*
X202935Y232747D01*
X202978Y232776D01*
X203022Y232808D01*
X203069Y232838D01*
X203124Y232863D01*
X203179Y232892D01*
X203237Y232914D01*
X203302Y232936D01*
X203379Y232608D01*
X203375D01*
X203368Y232605D01*
X203353Y232597D01*
X203335Y232590D01*
X203313Y232583D01*
X203284Y232572D01*
X203226Y232543D01*
X203160Y232506D01*
X203095Y232463D01*
X203033Y232408D01*
X202978Y232350D01*
X202971Y232343D01*
X202957Y232321D01*
X202938Y232284D01*
X202913Y232237D01*
X202891Y232175D01*
X202869Y232106D01*
X202855Y232022D01*
X202851Y231931D01*
Y231902D01*
X202855Y231884D01*
Y231858D01*
X202858Y231829D01*
X202869Y231760D01*
X202884Y231684D01*
X202909Y231604D01*
X202946Y231520D01*
X202993Y231444D01*
Y231440D01*
X203000Y231436D01*
X203018Y231411D01*
X203047Y231378D01*
X203091Y231338D01*
X203146Y231291D01*
X203208Y231247D01*
X203284Y231207D01*
X203368Y231171D01*
X203372D01*
X203379Y231167D01*
X203390Y231163D01*
X203408Y231160D01*
X203430Y231152D01*
X203455Y231145D01*
X203517Y231134D01*
X203590Y231120D01*
X203670Y231105D01*
X203757Y231098D01*
X203852Y231094D01*
X203856D01*
X203867D01*
X203885D01*
X203906D01*
X203932Y231098D01*
X203965D01*
X204001Y231101D01*
X204041Y231105D01*
X204129Y231116D01*
X204223Y231134D01*
X204318Y231156D01*
X204413Y231185D01*
X204416D01*
X204423Y231189D01*
X204434Y231196D01*
X204452Y231203D01*
X204496Y231225D01*
X204547Y231258D01*
X204605Y231298D01*
X204667Y231349D01*
X204722Y231407D01*
X204773Y231476D01*
Y231480D01*
X204777Y231487D01*
X204784Y231498D01*
X204791Y231513D01*
X204798Y231531D01*
X204809Y231553D01*
X204831Y231604D01*
X204853Y231669D01*
X204871Y231742D01*
X204886Y231822D01*
X204889Y231906D01*
Y231931D01*
X204886Y231953D01*
Y231979D01*
X204882Y232004D01*
X204868Y232070D01*
X204849Y232146D01*
X204820Y232223D01*
X204780Y232303D01*
X204758Y232343D01*
X204729Y232379D01*
X204726Y232383D01*
X204722Y232386D01*
X204711Y232397D01*
X204700Y232412D01*
X204682Y232426D01*
X204660Y232445D01*
X204638Y232466D01*
X204609Y232485D01*
X204576Y232506D01*
X204540Y232532D01*
X204503Y232554D01*
X204460Y232576D01*
X204413Y232594D01*
X204362Y232612D01*
X204307Y232630D01*
X204249Y232645D01*
X204332Y232980D01*
X204336D01*
X204351Y232976D01*
D02*
G37*
G36*
X156500Y322679D02*
X155532D01*
X155466Y322682D01*
X155393Y322686D01*
X155321Y322693D01*
X155248Y322704D01*
X155186Y322715D01*
X155182D01*
X155175Y322719D01*
X155164D01*
X155150Y322726D01*
X155110Y322737D01*
X155059Y322755D01*
X155000Y322780D01*
X154938Y322813D01*
X154877Y322850D01*
X154818Y322897D01*
X154815Y322901D01*
X154811Y322904D01*
X154800Y322915D01*
X154786Y322926D01*
X154749Y322962D01*
X154706Y323013D01*
X154658Y323075D01*
X154607Y323148D01*
X154560Y323232D01*
X154520Y323326D01*
Y323330D01*
X154516Y323337D01*
X154509Y323352D01*
X154505Y323374D01*
X154494Y323399D01*
X154487Y323428D01*
X154480Y323461D01*
X154469Y323501D01*
X154458Y323541D01*
X154451Y323589D01*
X154432Y323691D01*
X154422Y323803D01*
X154418Y323927D01*
Y323931D01*
Y323938D01*
Y323956D01*
Y323974D01*
X154422Y324000D01*
Y324029D01*
X154425Y324098D01*
X154436Y324178D01*
X154447Y324262D01*
X154465Y324349D01*
X154487Y324437D01*
Y324440D01*
X154491Y324448D01*
X154494Y324459D01*
X154498Y324473D01*
X154513Y324513D01*
X154534Y324564D01*
X154556Y324622D01*
X154585Y324681D01*
X154622Y324742D01*
X154658Y324801D01*
X154662Y324808D01*
X154676Y324826D01*
X154698Y324852D01*
X154727Y324884D01*
X154760Y324921D01*
X154800Y324957D01*
X154840Y324997D01*
X154887Y325030D01*
X154895Y325034D01*
X154909Y325045D01*
X154935Y325059D01*
X154971Y325077D01*
X155015Y325099D01*
X155066Y325117D01*
X155124Y325139D01*
X155190Y325157D01*
X155197D01*
X155208Y325161D01*
X155219Y325165D01*
X155255Y325168D01*
X155306Y325176D01*
X155364Y325183D01*
X155433Y325190D01*
X155510Y325194D01*
X155594Y325197D01*
X156500D01*
Y322679D01*
D02*
G37*
G36*
X153322Y325237D02*
X153355Y325234D01*
X153391Y325230D01*
X153431Y325223D01*
X153475Y325212D01*
X153573Y325186D01*
X153624Y325168D01*
X153672Y325150D01*
X153723Y325125D01*
X153774Y325096D01*
X153821Y325063D01*
X153865Y325023D01*
X153868Y325019D01*
X153876Y325012D01*
X153886Y325001D01*
X153901Y324983D01*
X153916Y324961D01*
X153937Y324935D01*
X153956Y324906D01*
X153978Y324870D01*
X153999Y324833D01*
X154017Y324790D01*
X154054Y324699D01*
X154069Y324644D01*
X154079Y324590D01*
X154087Y324531D01*
X154090Y324473D01*
Y324469D01*
Y324462D01*
Y324448D01*
X154087Y324433D01*
Y324411D01*
X154083Y324386D01*
X154076Y324327D01*
X154061Y324262D01*
X154039Y324196D01*
X154007Y324127D01*
X153967Y324062D01*
Y324058D01*
X153959Y324055D01*
X153945Y324036D01*
X153916Y324007D01*
X153876Y323971D01*
X153825Y323934D01*
X153763Y323894D01*
X153694Y323862D01*
X153610Y323836D01*
X153613D01*
X153617Y323832D01*
X153628Y323829D01*
X153643Y323821D01*
X153675Y323807D01*
X153719Y323785D01*
X153766Y323756D01*
X153814Y323720D01*
X153857Y323680D01*
X153897Y323636D01*
X153901Y323629D01*
X153912Y323614D01*
X153927Y323585D01*
X153941Y323549D01*
X153959Y323501D01*
X153974Y323447D01*
X153985Y323385D01*
X153988Y323319D01*
Y323316D01*
Y323308D01*
Y323294D01*
X153985Y323272D01*
X153981Y323250D01*
X153978Y323221D01*
X153963Y323159D01*
X153941Y323086D01*
X153905Y323010D01*
X153883Y322970D01*
X153857Y322930D01*
X153825Y322893D01*
X153792Y322857D01*
X153788Y322853D01*
X153781Y322850D01*
X153770Y322839D01*
X153755Y322828D01*
X153737Y322813D01*
X153712Y322799D01*
X153683Y322780D01*
X153654Y322762D01*
X153617Y322744D01*
X153577Y322726D01*
X153533Y322711D01*
X153486Y322697D01*
X153384Y322675D01*
X153326Y322671D01*
X153268Y322668D01*
X153235D01*
X153213Y322671D01*
X153184Y322675D01*
X153151Y322679D01*
X153115Y322682D01*
X153078Y322693D01*
X152991Y322715D01*
X152904Y322748D01*
X152860Y322770D01*
X152816Y322795D01*
X152776Y322828D01*
X152736Y322861D01*
X152733Y322864D01*
X152729Y322868D01*
X152718Y322879D01*
X152703Y322893D01*
X152689Y322915D01*
X152671Y322937D01*
X152634Y322992D01*
X152598Y323061D01*
X152565Y323141D01*
X152540Y323232D01*
X152536Y323279D01*
X152532Y323330D01*
Y323334D01*
Y323337D01*
Y323359D01*
X152536Y323392D01*
X152543Y323432D01*
X152554Y323483D01*
X152572Y323534D01*
X152594Y323585D01*
X152627Y323636D01*
X152631Y323643D01*
X152645Y323658D01*
X152667Y323680D01*
X152696Y323709D01*
X152736Y323741D01*
X152784Y323774D01*
X152838Y323807D01*
X152904Y323836D01*
X152900D01*
X152893Y323840D01*
X152882Y323843D01*
X152867Y323851D01*
X152824Y323869D01*
X152773Y323894D01*
X152718Y323931D01*
X152660Y323971D01*
X152605Y324022D01*
X152554Y324080D01*
Y324084D01*
X152551Y324087D01*
X152536Y324109D01*
X152514Y324146D01*
X152492Y324193D01*
X152471Y324251D01*
X152449Y324320D01*
X152434Y324397D01*
X152430Y324480D01*
Y324484D01*
Y324495D01*
Y324513D01*
X152434Y324535D01*
X152438Y324560D01*
X152441Y324593D01*
X152449Y324630D01*
X152460Y324670D01*
X152485Y324753D01*
X152503Y324801D01*
X152529Y324844D01*
X152554Y324892D01*
X152583Y324935D01*
X152620Y324979D01*
X152660Y325023D01*
X152663Y325026D01*
X152671Y325034D01*
X152682Y325045D01*
X152700Y325056D01*
X152725Y325074D01*
X152751Y325092D01*
X152784Y325110D01*
X152820Y325132D01*
X152860Y325154D01*
X152907Y325172D01*
X152958Y325190D01*
X153009Y325208D01*
X153068Y325219D01*
X153129Y325230D01*
X153191Y325237D01*
X153260Y325241D01*
X153297D01*
X153322Y325237D01*
D02*
G37*
G36*
X185934Y131516D02*
X185970D01*
X186007Y131512D01*
X186054Y131509D01*
X186101Y131501D01*
X186207Y131483D01*
X186323Y131458D01*
X186440Y131421D01*
X186553Y131370D01*
X186556Y131367D01*
X186567Y131363D01*
X186582Y131356D01*
X186600Y131341D01*
X186626Y131327D01*
X186655Y131309D01*
X186720Y131261D01*
X186793Y131199D01*
X186866Y131127D01*
X186939Y131043D01*
X187001Y130945D01*
X187004Y130941D01*
X187008Y130930D01*
X187015Y130915D01*
X187026Y130897D01*
X187037Y130868D01*
X187048Y130839D01*
X187062Y130803D01*
X187077Y130763D01*
X187092Y130719D01*
X187106Y130672D01*
X187128Y130570D01*
X187146Y130453D01*
X187153Y130333D01*
Y130297D01*
X187150Y130271D01*
X187146Y130238D01*
X187143Y130198D01*
X187139Y130158D01*
X187128Y130111D01*
X187106Y130013D01*
X187073Y129904D01*
X187051Y129849D01*
X187026Y129798D01*
X186993Y129747D01*
X186960Y129696D01*
X186957Y129692D01*
X186953Y129685D01*
X186942Y129671D01*
X186924Y129652D01*
X186906Y129634D01*
X186880Y129609D01*
X186851Y129583D01*
X186822Y129554D01*
X186786Y129525D01*
X186742Y129496D01*
X186698Y129463D01*
X186651Y129434D01*
X186597Y129409D01*
X186542Y129379D01*
X186484Y129358D01*
X186418Y129336D01*
X186342Y129663D01*
X186345D01*
X186353Y129667D01*
X186367Y129674D01*
X186385Y129682D01*
X186407Y129689D01*
X186436Y129700D01*
X186495Y129729D01*
X186560Y129765D01*
X186626Y129809D01*
X186688Y129864D01*
X186742Y129922D01*
X186749Y129929D01*
X186764Y129951D01*
X186782Y129987D01*
X186808Y130035D01*
X186829Y130096D01*
X186851Y130166D01*
X186866Y130249D01*
X186870Y130340D01*
Y130369D01*
X186866Y130388D01*
Y130413D01*
X186862Y130442D01*
X186851Y130511D01*
X186837Y130588D01*
X186811Y130668D01*
X186775Y130752D01*
X186727Y130828D01*
Y130832D01*
X186720Y130835D01*
X186702Y130861D01*
X186673Y130894D01*
X186629Y130934D01*
X186575Y130981D01*
X186513Y131025D01*
X186436Y131065D01*
X186353Y131101D01*
X186349D01*
X186342Y131105D01*
X186331Y131108D01*
X186313Y131112D01*
X186291Y131119D01*
X186265Y131127D01*
X186203Y131138D01*
X186131Y131152D01*
X186050Y131167D01*
X185963Y131174D01*
X185869Y131178D01*
X185865D01*
X185854D01*
X185836D01*
X185814D01*
X185788Y131174D01*
X185756D01*
X185719Y131170D01*
X185679Y131167D01*
X185592Y131156D01*
X185497Y131138D01*
X185403Y131116D01*
X185308Y131087D01*
X185304D01*
X185297Y131083D01*
X185286Y131076D01*
X185268Y131068D01*
X185224Y131046D01*
X185173Y131014D01*
X185115Y130974D01*
X185053Y130923D01*
X184999Y130865D01*
X184948Y130795D01*
Y130792D01*
X184944Y130784D01*
X184937Y130773D01*
X184929Y130759D01*
X184922Y130741D01*
X184911Y130719D01*
X184889Y130668D01*
X184868Y130602D01*
X184849Y130530D01*
X184835Y130450D01*
X184831Y130366D01*
Y130340D01*
X184835Y130318D01*
Y130293D01*
X184838Y130268D01*
X184853Y130202D01*
X184871Y130126D01*
X184900Y130049D01*
X184940Y129969D01*
X184962Y129929D01*
X184991Y129893D01*
X184995Y129889D01*
X184999Y129885D01*
X185009Y129874D01*
X185020Y129860D01*
X185039Y129845D01*
X185060Y129827D01*
X185082Y129805D01*
X185111Y129787D01*
X185144Y129765D01*
X185180Y129740D01*
X185217Y129718D01*
X185261Y129696D01*
X185308Y129678D01*
X185359Y129660D01*
X185414Y129641D01*
X185472Y129627D01*
X185388Y129292D01*
X185384D01*
X185370Y129296D01*
X185348Y129303D01*
X185319Y129314D01*
X185286Y129325D01*
X185246Y129339D01*
X185202Y129358D01*
X185155Y129379D01*
X185053Y129430D01*
X184951Y129496D01*
X184900Y129536D01*
X184849Y129576D01*
X184806Y129620D01*
X184762Y129671D01*
X184758Y129674D01*
X184751Y129682D01*
X184744Y129700D01*
X184729Y129718D01*
X184711Y129747D01*
X184693Y129776D01*
X184675Y129816D01*
X184656Y129856D01*
X184634Y129904D01*
X184616Y129955D01*
X184598Y130009D01*
X184580Y130067D01*
X184565Y130129D01*
X184558Y130195D01*
X184551Y130264D01*
X184547Y130337D01*
Y130377D01*
X184551Y130406D01*
Y130439D01*
X184554Y130479D01*
X184562Y130522D01*
X184569Y130573D01*
X184587Y130679D01*
X184616Y130788D01*
X184656Y130897D01*
X184682Y130948D01*
X184711Y130999D01*
X184715Y131003D01*
X184718Y131010D01*
X184729Y131025D01*
X184744Y131039D01*
X184758Y131061D01*
X184780Y131087D01*
X184806Y131116D01*
X184835Y131145D01*
X184868Y131174D01*
X184900Y131207D01*
X184984Y131272D01*
X185082Y131334D01*
X185192Y131389D01*
X185195D01*
X185206Y131396D01*
X185224Y131400D01*
X185246Y131411D01*
X185275Y131418D01*
X185312Y131429D01*
X185352Y131443D01*
X185395Y131454D01*
X185443Y131465D01*
X185497Y131480D01*
X185610Y131498D01*
X185737Y131512D01*
X185869Y131520D01*
X185872D01*
X185887D01*
X185908D01*
X185934Y131516D01*
D02*
G37*
G36*
X186487Y128768D02*
X186495Y128761D01*
X186498Y128746D01*
X186509Y128728D01*
X186520Y128706D01*
X186535Y128681D01*
X186571Y128619D01*
X186611Y128546D01*
X186662Y128473D01*
X186720Y128397D01*
X186782Y128320D01*
X186786Y128316D01*
X186789Y128313D01*
X186800Y128302D01*
X186811Y128287D01*
X186848Y128255D01*
X186891Y128211D01*
X186942Y128167D01*
X187001Y128120D01*
X187059Y128080D01*
X187121Y128043D01*
Y127843D01*
X184591D01*
Y128153D01*
X186560D01*
X186556Y128156D01*
X186542Y128175D01*
X186520Y128196D01*
X186495Y128233D01*
X186462Y128273D01*
X186425Y128324D01*
X186385Y128382D01*
X186345Y128448D01*
Y128451D01*
X186342Y128455D01*
X186327Y128477D01*
X186309Y128513D01*
X186287Y128557D01*
X186262Y128608D01*
X186236Y128662D01*
X186211Y128717D01*
X186189Y128771D01*
X186487D01*
Y128768D01*
D02*
G37*
G36*
X185945Y127046D02*
X185989D01*
X186036Y127042D01*
X186091Y127039D01*
X186203Y127028D01*
X186323Y127010D01*
X186444Y126988D01*
X186498Y126973D01*
X186553Y126959D01*
X186556D01*
X186564Y126955D01*
X186578Y126948D01*
X186597Y126941D01*
X186622Y126933D01*
X186647Y126919D01*
X186709Y126890D01*
X186775Y126853D01*
X186844Y126806D01*
X186913Y126751D01*
X186971Y126686D01*
Y126682D01*
X186979Y126679D01*
X186986Y126668D01*
X186993Y126653D01*
X187008Y126635D01*
X187019Y126613D01*
X187048Y126558D01*
X187073Y126493D01*
X187099Y126416D01*
X187113Y126325D01*
X187121Y126227D01*
Y126194D01*
X187117Y126154D01*
X187110Y126107D01*
X187099Y126052D01*
X187084Y125994D01*
X187066Y125932D01*
X187037Y125874D01*
Y125870D01*
X187033Y125867D01*
X187022Y125849D01*
X187004Y125820D01*
X186979Y125783D01*
X186942Y125743D01*
X186902Y125699D01*
X186855Y125659D01*
X186800Y125619D01*
X186793Y125616D01*
X186775Y125601D01*
X186742Y125586D01*
X186695Y125561D01*
X186640Y125539D01*
X186578Y125510D01*
X186505Y125485D01*
X186425Y125463D01*
X186422D01*
X186415Y125459D01*
X186404Y125455D01*
X186385Y125452D01*
X186363Y125448D01*
X186338Y125445D01*
X186305Y125437D01*
X186269Y125434D01*
X186229Y125426D01*
X186185Y125423D01*
X186134Y125419D01*
X186083Y125412D01*
X186025Y125408D01*
X185967D01*
X185901Y125405D01*
X185832D01*
X185828D01*
X185814D01*
X185788D01*
X185759D01*
X185719Y125408D01*
X185676D01*
X185628Y125412D01*
X185577Y125415D01*
X185461Y125426D01*
X185341Y125445D01*
X185224Y125466D01*
X185170Y125481D01*
X185115Y125499D01*
X185111D01*
X185104Y125503D01*
X185090Y125510D01*
X185071Y125517D01*
X185046Y125525D01*
X185020Y125539D01*
X184959Y125568D01*
X184893Y125605D01*
X184820Y125652D01*
X184755Y125707D01*
X184693Y125772D01*
Y125776D01*
X184686Y125779D01*
X184678Y125790D01*
X184671Y125805D01*
X184660Y125823D01*
X184645Y125841D01*
X184620Y125896D01*
X184595Y125961D01*
X184569Y126038D01*
X184554Y126129D01*
X184547Y126227D01*
Y126264D01*
X184551Y126289D01*
X184554Y126318D01*
X184562Y126355D01*
X184569Y126395D01*
X184580Y126438D01*
X184595Y126482D01*
X184609Y126529D01*
X184631Y126577D01*
X184656Y126624D01*
X184686Y126671D01*
X184722Y126719D01*
X184762Y126762D01*
X184806Y126802D01*
X184809Y126806D01*
X184820Y126813D01*
X184838Y126824D01*
X184868Y126842D01*
X184900Y126860D01*
X184944Y126879D01*
X184995Y126904D01*
X185053Y126926D01*
X185119Y126948D01*
X185195Y126970D01*
X185279Y126992D01*
X185373Y127010D01*
X185475Y127028D01*
X185585Y127039D01*
X185705Y127046D01*
X185832Y127050D01*
X185836D01*
X185850D01*
X185876D01*
X185905D01*
X185945Y127046D01*
D02*
G37*
G36*
X177434Y131516D02*
X177470D01*
X177507Y131512D01*
X177554Y131509D01*
X177601Y131501D01*
X177707Y131483D01*
X177823Y131458D01*
X177940Y131421D01*
X178053Y131370D01*
X178056Y131367D01*
X178067Y131363D01*
X178082Y131356D01*
X178100Y131341D01*
X178126Y131327D01*
X178155Y131309D01*
X178220Y131261D01*
X178293Y131199D01*
X178366Y131127D01*
X178439Y131043D01*
X178500Y130945D01*
X178504Y130941D01*
X178508Y130930D01*
X178515Y130915D01*
X178526Y130897D01*
X178537Y130868D01*
X178548Y130839D01*
X178562Y130803D01*
X178577Y130763D01*
X178592Y130719D01*
X178606Y130672D01*
X178628Y130570D01*
X178646Y130453D01*
X178653Y130333D01*
Y130297D01*
X178650Y130271D01*
X178646Y130238D01*
X178642Y130198D01*
X178639Y130158D01*
X178628Y130111D01*
X178606Y130013D01*
X178573Y129904D01*
X178551Y129849D01*
X178526Y129798D01*
X178493Y129747D01*
X178461Y129696D01*
X178457Y129692D01*
X178453Y129685D01*
X178442Y129671D01*
X178424Y129652D01*
X178406Y129634D01*
X178380Y129609D01*
X178351Y129583D01*
X178322Y129554D01*
X178286Y129525D01*
X178242Y129496D01*
X178198Y129463D01*
X178151Y129434D01*
X178096Y129409D01*
X178042Y129379D01*
X177984Y129358D01*
X177918Y129336D01*
X177842Y129663D01*
X177845D01*
X177853Y129667D01*
X177867Y129674D01*
X177885Y129682D01*
X177907Y129689D01*
X177936Y129700D01*
X177995Y129729D01*
X178060Y129765D01*
X178126Y129809D01*
X178188Y129864D01*
X178242Y129922D01*
X178249Y129929D01*
X178264Y129951D01*
X178282Y129987D01*
X178308Y130035D01*
X178329Y130096D01*
X178351Y130166D01*
X178366Y130249D01*
X178369Y130340D01*
Y130369D01*
X178366Y130388D01*
Y130413D01*
X178362Y130442D01*
X178351Y130511D01*
X178337Y130588D01*
X178311Y130668D01*
X178275Y130752D01*
X178227Y130828D01*
Y130832D01*
X178220Y130835D01*
X178202Y130861D01*
X178173Y130894D01*
X178129Y130934D01*
X178075Y130981D01*
X178013Y131025D01*
X177936Y131065D01*
X177853Y131101D01*
X177849D01*
X177842Y131105D01*
X177831Y131108D01*
X177813Y131112D01*
X177791Y131119D01*
X177765Y131127D01*
X177703Y131138D01*
X177631Y131152D01*
X177550Y131167D01*
X177463Y131174D01*
X177368Y131178D01*
X177365D01*
X177354D01*
X177336D01*
X177314D01*
X177288Y131174D01*
X177256D01*
X177219Y131170D01*
X177179Y131167D01*
X177092Y131156D01*
X176997Y131138D01*
X176903Y131116D01*
X176808Y131087D01*
X176804D01*
X176797Y131083D01*
X176786Y131076D01*
X176768Y131068D01*
X176724Y131046D01*
X176673Y131014D01*
X176615Y130974D01*
X176553Y130923D01*
X176498Y130865D01*
X176448Y130795D01*
Y130792D01*
X176444Y130784D01*
X176437Y130773D01*
X176429Y130759D01*
X176422Y130741D01*
X176411Y130719D01*
X176389Y130668D01*
X176367Y130602D01*
X176349Y130530D01*
X176335Y130450D01*
X176331Y130366D01*
Y130340D01*
X176335Y130318D01*
Y130293D01*
X176338Y130268D01*
X176353Y130202D01*
X176371Y130126D01*
X176400Y130049D01*
X176440Y129969D01*
X176462Y129929D01*
X176491Y129893D01*
X176495Y129889D01*
X176498Y129885D01*
X176509Y129874D01*
X176520Y129860D01*
X176539Y129845D01*
X176560Y129827D01*
X176582Y129805D01*
X176611Y129787D01*
X176644Y129765D01*
X176681Y129740D01*
X176717Y129718D01*
X176761Y129696D01*
X176808Y129678D01*
X176859Y129660D01*
X176913Y129641D01*
X176972Y129627D01*
X176888Y129292D01*
X176884D01*
X176870Y129296D01*
X176848Y129303D01*
X176819Y129314D01*
X176786Y129325D01*
X176746Y129339D01*
X176702Y129358D01*
X176655Y129379D01*
X176553Y129430D01*
X176451Y129496D01*
X176400Y129536D01*
X176349Y129576D01*
X176306Y129620D01*
X176262Y129671D01*
X176258Y129674D01*
X176251Y129682D01*
X176244Y129700D01*
X176229Y129718D01*
X176211Y129747D01*
X176193Y129776D01*
X176175Y129816D01*
X176156Y129856D01*
X176135Y129904D01*
X176116Y129955D01*
X176098Y130009D01*
X176080Y130067D01*
X176065Y130129D01*
X176058Y130195D01*
X176051Y130264D01*
X176047Y130337D01*
Y130377D01*
X176051Y130406D01*
Y130439D01*
X176054Y130479D01*
X176062Y130522D01*
X176069Y130573D01*
X176087Y130679D01*
X176116Y130788D01*
X176156Y130897D01*
X176182Y130948D01*
X176211Y130999D01*
X176215Y131003D01*
X176218Y131010D01*
X176229Y131025D01*
X176244Y131039D01*
X176258Y131061D01*
X176280Y131087D01*
X176306Y131116D01*
X176335Y131145D01*
X176367Y131174D01*
X176400Y131207D01*
X176484Y131272D01*
X176582Y131334D01*
X176691Y131389D01*
X176695D01*
X176706Y131396D01*
X176724Y131400D01*
X176746Y131411D01*
X176775Y131418D01*
X176812Y131429D01*
X176852Y131443D01*
X176895Y131454D01*
X176943Y131465D01*
X176997Y131480D01*
X177110Y131498D01*
X177237Y131512D01*
X177368Y131520D01*
X177372D01*
X177387D01*
X177409D01*
X177434Y131516D01*
D02*
G37*
G36*
X177831Y129005D02*
X177864Y129001D01*
X177904Y128997D01*
X177944Y128990D01*
X177991Y128979D01*
X178086Y128954D01*
X178137Y128935D01*
X178191Y128913D01*
X178242Y128888D01*
X178289Y128855D01*
X178340Y128823D01*
X178384Y128782D01*
X178388Y128779D01*
X178395Y128771D01*
X178406Y128761D01*
X178420Y128742D01*
X178439Y128721D01*
X178461Y128691D01*
X178479Y128662D01*
X178504Y128626D01*
X178526Y128589D01*
X178544Y128546D01*
X178584Y128448D01*
X178599Y128397D01*
X178610Y128338D01*
X178617Y128280D01*
X178621Y128218D01*
Y128193D01*
X178617Y128175D01*
Y128156D01*
X178613Y128131D01*
X178602Y128069D01*
X178588Y128000D01*
X178562Y127923D01*
X178530Y127847D01*
X178486Y127770D01*
Y127767D01*
X178479Y127763D01*
X178471Y127752D01*
X178461Y127738D01*
X178431Y127701D01*
X178391Y127654D01*
X178337Y127607D01*
X178271Y127552D01*
X178195Y127505D01*
X178107Y127461D01*
X178104D01*
X178096Y127457D01*
X178082Y127450D01*
X178064Y127443D01*
X178038Y127436D01*
X178006Y127425D01*
X177969Y127417D01*
X177929Y127407D01*
X177882Y127396D01*
X177827Y127385D01*
X177769Y127377D01*
X177707Y127370D01*
X177638Y127363D01*
X177565Y127356D01*
X177485Y127352D01*
X177401D01*
X177398D01*
X177379D01*
X177354D01*
X177321D01*
X177281Y127356D01*
X177234D01*
X177179Y127359D01*
X177125Y127366D01*
X177001Y127377D01*
X176870Y127396D01*
X176746Y127421D01*
X176684Y127439D01*
X176630Y127457D01*
X176626D01*
X176619Y127461D01*
X176604Y127468D01*
X176582Y127476D01*
X176560Y127487D01*
X176531Y127501D01*
X176469Y127538D01*
X176400Y127581D01*
X176327Y127632D01*
X176258Y127698D01*
X176196Y127770D01*
Y127774D01*
X176189Y127781D01*
X176182Y127792D01*
X176175Y127807D01*
X176164Y127829D01*
X176149Y127851D01*
X176135Y127880D01*
X176124Y127909D01*
X176094Y127978D01*
X176069Y128062D01*
X176054Y128153D01*
X176047Y128255D01*
Y128284D01*
X176051Y128302D01*
Y128327D01*
X176054Y128357D01*
X176069Y128426D01*
X176087Y128502D01*
X176116Y128582D01*
X176156Y128662D01*
X176182Y128702D01*
X176211Y128739D01*
X176215Y128742D01*
X176218Y128746D01*
X176229Y128757D01*
X176240Y128768D01*
X176258Y128782D01*
X176280Y128801D01*
X176331Y128837D01*
X176397Y128873D01*
X176477Y128910D01*
X176568Y128939D01*
X176673Y128961D01*
X176699Y128662D01*
X176695D01*
X176688Y128659D01*
X176681D01*
X176666Y128655D01*
X176626Y128644D01*
X176582Y128630D01*
X176531Y128611D01*
X176480Y128586D01*
X176433Y128557D01*
X176393Y128520D01*
X176389Y128517D01*
X176378Y128502D01*
X176364Y128477D01*
X176349Y128448D01*
X176331Y128408D01*
X176316Y128360D01*
X176306Y128306D01*
X176302Y128247D01*
Y128222D01*
X176306Y128196D01*
X176309Y128164D01*
X176316Y128124D01*
X176327Y128084D01*
X176342Y128040D01*
X176364Y128000D01*
X176367Y127996D01*
X176375Y127982D01*
X176389Y127960D01*
X176411Y127938D01*
X176437Y127909D01*
X176466Y127880D01*
X176498Y127851D01*
X176539Y127822D01*
X176542Y127818D01*
X176560Y127811D01*
X176586Y127796D01*
X176619Y127781D01*
X176662Y127763D01*
X176713Y127745D01*
X176771Y127727D01*
X176837Y127709D01*
X176841D01*
X176844Y127705D01*
X176855D01*
X176870Y127701D01*
X176906Y127694D01*
X176953Y127683D01*
X177012Y127676D01*
X177074Y127669D01*
X177143Y127665D01*
X177216Y127661D01*
X177219D01*
X177230D01*
X177248D01*
X177278D01*
X177270Y127665D01*
X177252Y127680D01*
X177226Y127701D01*
X177190Y127727D01*
X177154Y127763D01*
X177114Y127807D01*
X177074Y127858D01*
X177037Y127916D01*
X177034Y127923D01*
X177023Y127945D01*
X177008Y127978D01*
X176994Y128018D01*
X176975Y128073D01*
X176961Y128131D01*
X176950Y128196D01*
X176946Y128266D01*
Y128295D01*
X176950Y128316D01*
X176953Y128346D01*
X176957Y128375D01*
X176964Y128411D01*
X176975Y128448D01*
X177001Y128531D01*
X177019Y128575D01*
X177041Y128619D01*
X177066Y128666D01*
X177099Y128710D01*
X177132Y128753D01*
X177172Y128793D01*
X177176Y128797D01*
X177183Y128804D01*
X177194Y128812D01*
X177212Y128826D01*
X177237Y128844D01*
X177263Y128863D01*
X177296Y128881D01*
X177332Y128899D01*
X177372Y128921D01*
X177416Y128939D01*
X177467Y128957D01*
X177518Y128975D01*
X177576Y128990D01*
X177638Y128997D01*
X177700Y129005D01*
X177769Y129008D01*
X177772D01*
X177787D01*
X177805D01*
X177831Y129005D01*
D02*
G37*
%LPC*%
G36*
X208327Y299626D02*
X207744D01*
Y297704D01*
X208341D01*
X208367Y297708D01*
X208421Y297711D01*
X208483Y297715D01*
X208549Y297722D01*
X208614Y297733D01*
X208669Y297748D01*
X208676Y297751D01*
X208694Y297755D01*
X208720Y297766D01*
X208752Y297780D01*
X208789Y297802D01*
X208825Y297824D01*
X208862Y297849D01*
X208898Y297879D01*
X208902Y297886D01*
X208916Y297901D01*
X208938Y297926D01*
X208964Y297962D01*
X208993Y298010D01*
X209025Y298064D01*
X209055Y298126D01*
X209080Y298195D01*
Y298199D01*
X209084Y298206D01*
X209087Y298217D01*
X209091Y298232D01*
X209095Y298250D01*
X209102Y298275D01*
X209109Y298301D01*
X209116Y298330D01*
X209127Y298403D01*
X209138Y298486D01*
X209146Y298581D01*
X209149Y298683D01*
Y298687D01*
Y298701D01*
Y298720D01*
X209146Y298749D01*
Y298781D01*
X209142Y298818D01*
X209138Y298862D01*
X209135Y298905D01*
X209116Y299003D01*
X209095Y299105D01*
X209062Y299200D01*
X209040Y299247D01*
X209018Y299287D01*
Y299291D01*
X209011Y299298D01*
X209004Y299309D01*
X208996Y299324D01*
X208967Y299360D01*
X208931Y299404D01*
X208884Y299451D01*
X208829Y299499D01*
X208767Y299538D01*
X208701Y299571D01*
X208694Y299575D01*
X208676Y299578D01*
X208643Y299589D01*
X208596Y299600D01*
X208538Y299608D01*
X208465Y299619D01*
X208421Y299622D01*
X208374D01*
X208327Y299626D01*
D02*
G37*
G36*
X157050Y160047D02*
X157046D01*
X157032D01*
X157013D01*
X156984Y160043D01*
X156951D01*
X156915Y160040D01*
X156871Y160036D01*
X156828Y160032D01*
X156729Y160014D01*
X156628Y159992D01*
X156533Y159960D01*
X156485Y159938D01*
X156446Y159916D01*
X156442D01*
X156435Y159909D01*
X156424Y159901D01*
X156409Y159894D01*
X156373Y159865D01*
X156329Y159829D01*
X156282Y159781D01*
X156234Y159727D01*
X156194Y159665D01*
X156162Y159599D01*
X156158Y159592D01*
X156154Y159574D01*
X156143Y159541D01*
X156132Y159494D01*
X156125Y159435D01*
X156114Y159363D01*
X156111Y159319D01*
Y159272D01*
X156107Y159224D01*
Y158642D01*
X158029D01*
Y159239D01*
X158025Y159264D01*
X158022Y159319D01*
X158018Y159381D01*
X158011Y159446D01*
X158000Y159512D01*
X157985Y159566D01*
X157982Y159574D01*
X157978Y159592D01*
X157967Y159617D01*
X157952Y159650D01*
X157931Y159687D01*
X157909Y159723D01*
X157883Y159759D01*
X157854Y159796D01*
X157847Y159800D01*
X157832Y159814D01*
X157807Y159836D01*
X157770Y159861D01*
X157723Y159890D01*
X157668Y159923D01*
X157607Y159952D01*
X157537Y159978D01*
X157534D01*
X157527Y159982D01*
X157516Y159985D01*
X157501Y159989D01*
X157483Y159992D01*
X157457Y160000D01*
X157432Y160007D01*
X157403Y160014D01*
X157330Y160025D01*
X157246Y160036D01*
X157152Y160043D01*
X157050Y160047D01*
D02*
G37*
G36*
X288920Y302468D02*
X288916D01*
X288902D01*
X288883D01*
X288854Y302465D01*
X288822D01*
X288785Y302461D01*
X288741Y302457D01*
X288698Y302454D01*
X288599Y302435D01*
X288498Y302414D01*
X288403Y302381D01*
X288356Y302359D01*
X288316Y302337D01*
X288312D01*
X288305Y302330D01*
X288294Y302323D01*
X288279Y302315D01*
X288243Y302286D01*
X288199Y302250D01*
X288152Y302203D01*
X288104Y302148D01*
X288064Y302086D01*
X288032Y302021D01*
X288028Y302013D01*
X288024Y301995D01*
X288013Y301962D01*
X288002Y301915D01*
X287995Y301857D01*
X287984Y301784D01*
X287981Y301740D01*
Y301693D01*
X287977Y301646D01*
Y301063D01*
X289899D01*
Y301660D01*
X289895Y301686D01*
X289892Y301740D01*
X289888Y301802D01*
X289881Y301868D01*
X289870Y301933D01*
X289855Y301988D01*
X289852Y301995D01*
X289848Y302013D01*
X289837Y302039D01*
X289823Y302071D01*
X289801Y302108D01*
X289779Y302144D01*
X289753Y302181D01*
X289724Y302217D01*
X289717Y302221D01*
X289702Y302235D01*
X289677Y302257D01*
X289640Y302283D01*
X289593Y302312D01*
X289539Y302344D01*
X289477Y302374D01*
X289408Y302399D01*
X289404D01*
X289397Y302403D01*
X289386Y302406D01*
X289371Y302410D01*
X289353Y302414D01*
X289328Y302421D01*
X289302Y302428D01*
X289273Y302435D01*
X289200Y302446D01*
X289116Y302457D01*
X289022Y302465D01*
X288920Y302468D01*
D02*
G37*
G36*
X280150Y304478D02*
X280147D01*
X280139D01*
X280125D01*
X280107Y304474D01*
X280085D01*
X280059Y304470D01*
X280001Y304459D01*
X279936Y304445D01*
X279866Y304419D01*
X279801Y304383D01*
X279739Y304336D01*
X279732Y304328D01*
X279714Y304310D01*
X279692Y304281D01*
X279662Y304241D01*
X279633Y304190D01*
X279612Y304132D01*
X279593Y304063D01*
X279586Y303986D01*
Y303964D01*
X279590Y303950D01*
X279593Y303913D01*
X279604Y303862D01*
X279623Y303808D01*
X279652Y303746D01*
X279688Y303688D01*
X279739Y303629D01*
X279746Y303622D01*
X279764Y303608D01*
X279797Y303582D01*
X279844Y303557D01*
X279899Y303531D01*
X279968Y303506D01*
X280045Y303491D01*
X280132Y303484D01*
X280139D01*
X280158D01*
X280190Y303487D01*
X280230Y303491D01*
X280278Y303498D01*
X280329Y303513D01*
X280383Y303527D01*
X280438Y303549D01*
X280445Y303553D01*
X280463Y303564D01*
X280489Y303578D01*
X280522Y303600D01*
X280554Y303626D01*
X280594Y303659D01*
X280627Y303695D01*
X280660Y303739D01*
X280663Y303746D01*
X280671Y303761D01*
X280685Y303786D01*
X280696Y303819D01*
X280711Y303855D01*
X280725Y303899D01*
X280733Y303946D01*
X280736Y303997D01*
Y304015D01*
X280733Y304030D01*
X280729Y304066D01*
X280718Y304114D01*
X280696Y304165D01*
X280671Y304223D01*
X280631Y304281D01*
X280609Y304310D01*
X280580Y304336D01*
X280576D01*
X280573Y304343D01*
X280551Y304357D01*
X280514Y304379D01*
X280467Y304408D01*
X280405Y304434D01*
X280332Y304456D01*
X280249Y304470D01*
X280150Y304478D01*
D02*
G37*
G36*
X279670Y302468D02*
X279666D01*
X279652D01*
X279633D01*
X279604Y302465D01*
X279572D01*
X279535Y302461D01*
X279491Y302457D01*
X279448Y302454D01*
X279349Y302435D01*
X279248Y302414D01*
X279153Y302381D01*
X279106Y302359D01*
X279066Y302337D01*
X279062D01*
X279055Y302330D01*
X279044Y302323D01*
X279029Y302315D01*
X278993Y302286D01*
X278949Y302250D01*
X278902Y302203D01*
X278854Y302148D01*
X278814Y302086D01*
X278782Y302021D01*
X278778Y302013D01*
X278774Y301995D01*
X278763Y301962D01*
X278752Y301915D01*
X278745Y301857D01*
X278734Y301784D01*
X278731Y301740D01*
Y301693D01*
X278727Y301646D01*
Y301063D01*
X280649D01*
Y301660D01*
X280645Y301686D01*
X280642Y301740D01*
X280638Y301802D01*
X280631Y301868D01*
X280620Y301933D01*
X280605Y301988D01*
X280602Y301995D01*
X280598Y302013D01*
X280587Y302039D01*
X280573Y302071D01*
X280551Y302108D01*
X280529Y302144D01*
X280503Y302181D01*
X280474Y302217D01*
X280467Y302221D01*
X280452Y302235D01*
X280427Y302257D01*
X280391Y302283D01*
X280343Y302312D01*
X280289Y302344D01*
X280227Y302374D01*
X280158Y302399D01*
X280154D01*
X280147Y302403D01*
X280136Y302406D01*
X280121Y302410D01*
X280103Y302414D01*
X280078Y302421D01*
X280052Y302428D01*
X280023Y302435D01*
X279950Y302446D01*
X279866Y302457D01*
X279772Y302465D01*
X279670Y302468D01*
D02*
G37*
G36*
X270463D02*
X270460D01*
X270445D01*
X270427D01*
X270398Y302465D01*
X270365D01*
X270329Y302461D01*
X270285Y302457D01*
X270241Y302454D01*
X270143Y302435D01*
X270041Y302414D01*
X269947Y302381D01*
X269899Y302359D01*
X269859Y302337D01*
X269856D01*
X269848Y302330D01*
X269837Y302323D01*
X269823Y302315D01*
X269786Y302286D01*
X269743Y302250D01*
X269695Y302203D01*
X269648Y302148D01*
X269608Y302086D01*
X269575Y302021D01*
X269572Y302013D01*
X269568Y301995D01*
X269557Y301962D01*
X269546Y301915D01*
X269539Y301857D01*
X269528Y301784D01*
X269524Y301740D01*
Y301693D01*
X269521Y301646D01*
Y301063D01*
X271443D01*
Y301660D01*
X271439Y301686D01*
X271435Y301740D01*
X271432Y301802D01*
X271424Y301868D01*
X271413Y301933D01*
X271399Y301988D01*
X271395Y301995D01*
X271392Y302013D01*
X271381Y302039D01*
X271366Y302071D01*
X271344Y302108D01*
X271322Y302144D01*
X271297Y302181D01*
X271268Y302217D01*
X271261Y302221D01*
X271246Y302235D01*
X271221Y302257D01*
X271184Y302283D01*
X271137Y302312D01*
X271082Y302344D01*
X271020Y302374D01*
X270951Y302399D01*
X270948D01*
X270940Y302403D01*
X270929Y302406D01*
X270915Y302410D01*
X270897Y302414D01*
X270871Y302421D01*
X270846Y302428D01*
X270817Y302435D01*
X270744Y302446D01*
X270660Y302457D01*
X270565Y302465D01*
X270463Y302468D01*
D02*
G37*
G36*
X288429Y106615D02*
X288425D01*
X288422D01*
X288400Y106612D01*
X288367Y106608D01*
X288327Y106601D01*
X288280Y106586D01*
X288233Y106568D01*
X288182Y106539D01*
X288138Y106502D01*
X288134Y106499D01*
X288120Y106481D01*
X288102Y106455D01*
X288083Y106422D01*
X288061Y106378D01*
X288043Y106328D01*
X288029Y106269D01*
X288025Y106204D01*
Y106197D01*
X288029Y106175D01*
X288032Y106142D01*
X288040Y106098D01*
X288054Y106051D01*
X288072Y106004D01*
X288102Y105953D01*
X288138Y105909D01*
X288142Y105905D01*
X288160Y105891D01*
X288182Y105873D01*
X288214Y105851D01*
X288254Y105829D01*
X288302Y105811D01*
X288356Y105796D01*
X288415Y105792D01*
X288418D01*
X288422D01*
X288444D01*
X288476Y105800D01*
X288516Y105807D01*
X288560Y105822D01*
X288608Y105843D01*
X288655Y105873D01*
X288702Y105913D01*
X288706Y105916D01*
X288720Y105935D01*
X288738Y105960D01*
X288760Y105993D01*
X288782Y106036D01*
X288800Y106084D01*
X288815Y106142D01*
X288819Y106204D01*
Y106233D01*
X288811Y106266D01*
X288804Y106309D01*
X288790Y106357D01*
X288771Y106408D01*
X288742Y106455D01*
X288702Y106502D01*
X288699Y106506D01*
X288684Y106520D01*
X288658Y106539D01*
X288626Y106557D01*
X288586Y106579D01*
X288538Y106597D01*
X288487Y106612D01*
X288429Y106615D01*
D02*
G37*
G36*
X287268Y106717D02*
X287261D01*
X287246D01*
X287221Y106713D01*
X287188Y106710D01*
X287148Y106702D01*
X287104Y106692D01*
X287060Y106677D01*
X287013Y106659D01*
X287010Y106655D01*
X286991Y106648D01*
X286969Y106633D01*
X286944Y106612D01*
X286911Y106586D01*
X286878Y106553D01*
X286849Y106517D01*
X286820Y106473D01*
X286817Y106466D01*
X286809Y106451D01*
X286798Y106426D01*
X286788Y106393D01*
X286777Y106353D01*
X286766Y106306D01*
X286758Y106255D01*
X286755Y106204D01*
Y106182D01*
X286758Y106167D01*
X286762Y106124D01*
X286773Y106073D01*
X286791Y106015D01*
X286813Y105953D01*
X286849Y105894D01*
X286897Y105836D01*
X286904Y105829D01*
X286922Y105814D01*
X286955Y105789D01*
X286995Y105763D01*
X287046Y105738D01*
X287108Y105712D01*
X287181Y105698D01*
X287257Y105691D01*
X287261D01*
X287268D01*
X287279D01*
X287294Y105694D01*
X287333Y105698D01*
X287388Y105709D01*
X287443Y105727D01*
X287505Y105753D01*
X287566Y105789D01*
X287625Y105840D01*
X287632Y105847D01*
X287647Y105865D01*
X287672Y105898D01*
X287701Y105942D01*
X287727Y105996D01*
X287752Y106062D01*
X287767Y106135D01*
X287774Y106215D01*
Y106237D01*
X287770Y106251D01*
X287767Y106291D01*
X287756Y106342D01*
X287738Y106400D01*
X287712Y106459D01*
X287676Y106520D01*
X287628Y106575D01*
X287621Y106582D01*
X287603Y106597D01*
X287570Y106619D01*
X287530Y106644D01*
X287475Y106673D01*
X287414Y106695D01*
X287344Y106710D01*
X287268Y106717D01*
D02*
G37*
G36*
X219606Y158472D02*
X219570D01*
X219545Y158468D01*
X219512Y158464D01*
X219475Y158457D01*
X219435Y158450D01*
X219392Y158439D01*
X219341Y158424D01*
X219293Y158410D01*
X219242Y158388D01*
X219188Y158362D01*
X219137Y158333D01*
X219086Y158297D01*
X219035Y158260D01*
X218988Y158213D01*
X218984Y158209D01*
X218977Y158202D01*
X218966Y158188D01*
X218951Y158166D01*
X218929Y158140D01*
X218911Y158107D01*
X218889Y158068D01*
X218867Y158024D01*
X218842Y157973D01*
X218820Y157915D01*
X218802Y157853D01*
X218784Y157783D01*
X218765Y157711D01*
X218755Y157631D01*
X218747Y157543D01*
X218744Y157452D01*
Y157445D01*
Y157431D01*
Y157405D01*
X218747Y157372D01*
X218751Y157332D01*
X218758Y157285D01*
X218765Y157230D01*
X218773Y157176D01*
X218802Y157052D01*
X218820Y156990D01*
X218846Y156928D01*
X218871Y156866D01*
X218904Y156808D01*
X218940Y156750D01*
X218984Y156699D01*
X218988Y156695D01*
X218995Y156688D01*
X219009Y156673D01*
X219028Y156659D01*
X219053Y156637D01*
X219082Y156615D01*
X219115Y156593D01*
X219155Y156568D01*
X219195Y156542D01*
X219242Y156520D01*
X219293Y156499D01*
X219348Y156477D01*
X219410Y156462D01*
X219472Y156448D01*
X219537Y156440D01*
X219606Y156437D01*
X219639D01*
X219672Y156440D01*
X219716Y156444D01*
X219770Y156451D01*
X219825Y156466D01*
X219887Y156480D01*
X219945Y156502D01*
X219938Y156506D01*
X219919Y156520D01*
X219887Y156539D01*
X219847Y156561D01*
X219796Y156582D01*
X219741Y156608D01*
X219679Y156630D01*
X219614Y156648D01*
X219697Y156888D01*
X219701D01*
X219712Y156885D01*
X219726Y156881D01*
X219745Y156874D01*
X219770Y156866D01*
X219799Y156855D01*
X219865Y156830D01*
X219941Y156793D01*
X220021Y156753D01*
X220098Y156706D01*
X220174Y156648D01*
X220178Y156651D01*
X220189Y156659D01*
X220203Y156677D01*
X220221Y156699D01*
X220243Y156728D01*
X220269Y156761D01*
X220294Y156801D01*
X220323Y156848D01*
X220349Y156903D01*
X220374Y156965D01*
X220400Y157030D01*
X220422Y157099D01*
X220444Y157179D01*
X220458Y157263D01*
X220465Y157354D01*
X220469Y157452D01*
Y157456D01*
Y157467D01*
Y157481D01*
Y157503D01*
X220465Y157532D01*
Y157562D01*
X220462Y157598D01*
X220455Y157634D01*
X220444Y157718D01*
X220425Y157809D01*
X220400Y157900D01*
X220363Y157987D01*
Y157991D01*
X220360Y157998D01*
X220353Y158009D01*
X220345Y158024D01*
X220320Y158068D01*
X220287Y158118D01*
X220243Y158177D01*
X220189Y158235D01*
X220127Y158293D01*
X220058Y158344D01*
X220054D01*
X220050Y158351D01*
X220040Y158355D01*
X220021Y158366D01*
X220003Y158373D01*
X219981Y158384D01*
X219927Y158410D01*
X219861Y158431D01*
X219785Y158453D01*
X219697Y158468D01*
X219606Y158472D01*
D02*
G37*
G36*
X148109Y190673D02*
X146187D01*
Y190076D01*
X146191Y190051D01*
X146195Y189996D01*
X146198Y189934D01*
X146205Y189869D01*
X146216Y189803D01*
X146231Y189748D01*
X146235Y189741D01*
X146238Y189723D01*
X146249Y189698D01*
X146264Y189665D01*
X146286Y189628D01*
X146307Y189592D01*
X146333Y189556D01*
X146362Y189519D01*
X146369Y189515D01*
X146384Y189501D01*
X146409Y189479D01*
X146446Y189454D01*
X146493Y189425D01*
X146548Y189392D01*
X146609Y189363D01*
X146679Y189337D01*
X146682D01*
X146690Y189333D01*
X146701Y189330D01*
X146715Y189326D01*
X146733Y189323D01*
X146759Y189315D01*
X146784Y189308D01*
X146813Y189301D01*
X146886Y189290D01*
X146970Y189279D01*
X147064Y189272D01*
X147166Y189268D01*
X147170D01*
X147185D01*
X147203D01*
X147232Y189272D01*
X147265D01*
X147301Y189275D01*
X147345Y189279D01*
X147389Y189283D01*
X147487Y189301D01*
X147589Y189323D01*
X147683Y189355D01*
X147731Y189377D01*
X147771Y189399D01*
X147774D01*
X147782Y189406D01*
X147792Y189414D01*
X147807Y189421D01*
X147844Y189450D01*
X147887Y189486D01*
X147934Y189534D01*
X147982Y189588D01*
X148022Y189650D01*
X148055Y189716D01*
X148058Y189723D01*
X148062Y189741D01*
X148073Y189774D01*
X148084Y189821D01*
X148091Y189880D01*
X148102Y189952D01*
X148106Y189996D01*
Y190043D01*
X148109Y190091D01*
Y190673D01*
D02*
G37*
G36*
X137609D02*
X135687D01*
Y190076D01*
X135691Y190051D01*
X135695Y189996D01*
X135698Y189934D01*
X135705Y189869D01*
X135716Y189803D01*
X135731Y189748D01*
X135735Y189741D01*
X135738Y189723D01*
X135749Y189698D01*
X135764Y189665D01*
X135786Y189628D01*
X135807Y189592D01*
X135833Y189556D01*
X135862Y189519D01*
X135869Y189515D01*
X135884Y189501D01*
X135909Y189479D01*
X135946Y189454D01*
X135993Y189425D01*
X136048Y189392D01*
X136109Y189363D01*
X136179Y189337D01*
X136182D01*
X136190Y189333D01*
X136200Y189330D01*
X136215Y189326D01*
X136233Y189323D01*
X136259Y189315D01*
X136284Y189308D01*
X136313Y189301D01*
X136386Y189290D01*
X136470Y189279D01*
X136565Y189272D01*
X136666Y189268D01*
X136670D01*
X136685D01*
X136703D01*
X136732Y189272D01*
X136765D01*
X136801Y189275D01*
X136845Y189279D01*
X136889Y189283D01*
X136987Y189301D01*
X137089Y189323D01*
X137183Y189355D01*
X137231Y189377D01*
X137271Y189399D01*
X137274D01*
X137282Y189406D01*
X137293Y189414D01*
X137307Y189421D01*
X137344Y189450D01*
X137387Y189486D01*
X137434Y189534D01*
X137482Y189588D01*
X137522Y189650D01*
X137555Y189716D01*
X137558Y189723D01*
X137562Y189741D01*
X137573Y189774D01*
X137584Y189821D01*
X137591Y189880D01*
X137602Y189952D01*
X137606Y189996D01*
Y190043D01*
X137609Y190091D01*
Y190673D01*
D02*
G37*
G36*
X219508Y129416D02*
X219472D01*
X219446Y129413D01*
X219413Y129409D01*
X219377Y129402D01*
X219337Y129395D01*
X219293Y129384D01*
X219242Y129369D01*
X219195Y129355D01*
X219144Y129333D01*
X219089Y129307D01*
X219038Y129278D01*
X218987Y129242D01*
X218936Y129205D01*
X218889Y129158D01*
X218885Y129154D01*
X218878Y129147D01*
X218867Y129132D01*
X218853Y129111D01*
X218831Y129085D01*
X218813Y129052D01*
X218791Y129012D01*
X218769Y128969D01*
X218743Y128918D01*
X218722Y128859D01*
X218704Y128798D01*
X218685Y128728D01*
X218667Y128656D01*
X218656Y128576D01*
X218649Y128488D01*
X218645Y128397D01*
Y128390D01*
Y128375D01*
Y128350D01*
X218649Y128317D01*
X218653Y128277D01*
X218660Y128230D01*
X218667Y128175D01*
X218674Y128121D01*
X218704Y127997D01*
X218722Y127935D01*
X218747Y127873D01*
X218773Y127811D01*
X218805Y127753D01*
X218842Y127695D01*
X218885Y127644D01*
X218889Y127640D01*
X218896Y127633D01*
X218911Y127618D01*
X218929Y127604D01*
X218955Y127582D01*
X218984Y127560D01*
X219017Y127538D01*
X219057Y127513D01*
X219097Y127487D01*
X219144Y127465D01*
X219195Y127444D01*
X219250Y127422D01*
X219311Y127407D01*
X219373Y127393D01*
X219439Y127385D01*
X219508Y127382D01*
X219541D01*
X219573Y127385D01*
X219617Y127389D01*
X219672Y127396D01*
X219726Y127411D01*
X219788Y127425D01*
X219847Y127447D01*
X219839Y127451D01*
X219821Y127465D01*
X219788Y127483D01*
X219748Y127505D01*
X219697Y127527D01*
X219643Y127553D01*
X219581Y127575D01*
X219515Y127593D01*
X219599Y127833D01*
X219603D01*
X219614Y127829D01*
X219628Y127826D01*
X219646Y127818D01*
X219672Y127811D01*
X219701Y127800D01*
X219766Y127775D01*
X219843Y127738D01*
X219923Y127698D01*
X219999Y127651D01*
X220076Y127593D01*
X220079Y127596D01*
X220090Y127604D01*
X220105Y127622D01*
X220123Y127644D01*
X220145Y127673D01*
X220170Y127706D01*
X220196Y127746D01*
X220225Y127793D01*
X220251Y127848D01*
X220276Y127909D01*
X220302Y127975D01*
X220323Y128044D01*
X220345Y128124D01*
X220360Y128208D01*
X220367Y128299D01*
X220371Y128397D01*
Y128401D01*
Y128412D01*
Y128426D01*
Y128448D01*
X220367Y128477D01*
Y128506D01*
X220363Y128543D01*
X220356Y128579D01*
X220345Y128663D01*
X220327Y128754D01*
X220302Y128845D01*
X220265Y128932D01*
Y128936D01*
X220261Y128943D01*
X220254Y128954D01*
X220247Y128969D01*
X220221Y129012D01*
X220189Y129063D01*
X220145Y129122D01*
X220090Y129180D01*
X220028Y129238D01*
X219959Y129289D01*
X219956D01*
X219952Y129296D01*
X219941Y129300D01*
X219923Y129311D01*
X219905Y129318D01*
X219883Y129329D01*
X219828Y129355D01*
X219763Y129376D01*
X219686Y129398D01*
X219599Y129413D01*
X219508Y129416D01*
D02*
G37*
G36*
X204332Y236558D02*
X204329D01*
X204322D01*
X204307D01*
X204289Y236554D01*
X204267D01*
X204241Y236550D01*
X204183Y236540D01*
X204118Y236525D01*
X204048Y236500D01*
X203983Y236463D01*
X203921Y236416D01*
X203914Y236408D01*
X203896Y236390D01*
X203874Y236361D01*
X203845Y236321D01*
X203816Y236270D01*
X203794Y236212D01*
X203776Y236143D01*
X203768Y236066D01*
Y236045D01*
X203772Y236030D01*
X203776Y235994D01*
X203786Y235943D01*
X203805Y235888D01*
X203834Y235826D01*
X203870Y235768D01*
X203921Y235710D01*
X203928Y235702D01*
X203947Y235688D01*
X203979Y235662D01*
X204027Y235637D01*
X204081Y235611D01*
X204150Y235586D01*
X204227Y235571D01*
X204314Y235564D01*
X204322D01*
X204340D01*
X204373Y235568D01*
X204413Y235571D01*
X204460Y235579D01*
X204511Y235593D01*
X204565Y235608D01*
X204620Y235630D01*
X204627Y235633D01*
X204645Y235644D01*
X204671Y235659D01*
X204704Y235681D01*
X204736Y235706D01*
X204777Y235739D01*
X204809Y235775D01*
X204842Y235819D01*
X204846Y235826D01*
X204853Y235841D01*
X204868Y235866D01*
X204878Y235899D01*
X204893Y235935D01*
X204907Y235979D01*
X204915Y236026D01*
X204919Y236077D01*
Y236095D01*
X204915Y236110D01*
X204911Y236146D01*
X204900Y236194D01*
X204878Y236245D01*
X204853Y236303D01*
X204813Y236361D01*
X204791Y236390D01*
X204762Y236416D01*
X204758D01*
X204755Y236423D01*
X204733Y236438D01*
X204696Y236459D01*
X204649Y236489D01*
X204587Y236514D01*
X204514Y236536D01*
X204431Y236550D01*
X204332Y236558D01*
D02*
G37*
G36*
X156165Y324899D02*
X155568D01*
X155543Y324895D01*
X155488Y324892D01*
X155426Y324888D01*
X155361Y324881D01*
X155295Y324870D01*
X155241Y324855D01*
X155233Y324852D01*
X155215Y324848D01*
X155190Y324837D01*
X155157Y324822D01*
X155120Y324801D01*
X155084Y324779D01*
X155048Y324753D01*
X155011Y324724D01*
X155008Y324717D01*
X154993Y324702D01*
X154971Y324677D01*
X154946Y324640D01*
X154917Y324593D01*
X154884Y324539D01*
X154855Y324477D01*
X154829Y324408D01*
Y324404D01*
X154826Y324397D01*
X154822Y324386D01*
X154818Y324371D01*
X154815Y324353D01*
X154807Y324327D01*
X154800Y324302D01*
X154793Y324273D01*
X154782Y324200D01*
X154771Y324116D01*
X154764Y324022D01*
X154760Y323920D01*
Y323916D01*
Y323902D01*
Y323883D01*
X154764Y323854D01*
Y323821D01*
X154767Y323785D01*
X154771Y323741D01*
X154775Y323698D01*
X154793Y323600D01*
X154815Y323498D01*
X154847Y323403D01*
X154869Y323356D01*
X154891Y323316D01*
Y323312D01*
X154898Y323305D01*
X154906Y323294D01*
X154913Y323279D01*
X154942Y323243D01*
X154979Y323199D01*
X155026Y323152D01*
X155080Y323104D01*
X155142Y323064D01*
X155208Y323032D01*
X155215Y323028D01*
X155233Y323024D01*
X155266Y323013D01*
X155313Y323003D01*
X155372Y322995D01*
X155444Y322984D01*
X155488Y322981D01*
X155535D01*
X155583Y322977D01*
X156165D01*
Y324899D01*
D02*
G37*
G36*
X153260Y324986D02*
X153239D01*
X153224Y324983D01*
X153180Y324979D01*
X153129Y324968D01*
X153071Y324950D01*
X153009Y324928D01*
X152951Y324892D01*
X152893Y324844D01*
X152885Y324837D01*
X152871Y324819D01*
X152845Y324786D01*
X152820Y324746D01*
X152795Y324695D01*
X152769Y324633D01*
X152754Y324560D01*
X152747Y324484D01*
Y324480D01*
Y324473D01*
Y324462D01*
X152751Y324448D01*
X152754Y324408D01*
X152765Y324353D01*
X152784Y324298D01*
X152809Y324236D01*
X152845Y324175D01*
X152896Y324116D01*
X152904Y324109D01*
X152922Y324095D01*
X152955Y324069D01*
X152998Y324040D01*
X153053Y324014D01*
X153118Y323989D01*
X153191Y323974D01*
X153271Y323967D01*
X153293D01*
X153308Y323971D01*
X153348Y323974D01*
X153399Y323985D01*
X153457Y324004D01*
X153515Y324029D01*
X153577Y324065D01*
X153632Y324113D01*
X153639Y324120D01*
X153654Y324138D01*
X153675Y324171D01*
X153701Y324211D01*
X153730Y324266D01*
X153752Y324327D01*
X153766Y324397D01*
X153774Y324473D01*
Y324480D01*
Y324495D01*
X153770Y324520D01*
X153766Y324553D01*
X153759Y324593D01*
X153748Y324637D01*
X153734Y324681D01*
X153715Y324728D01*
X153712Y324731D01*
X153705Y324750D01*
X153690Y324772D01*
X153668Y324797D01*
X153643Y324830D01*
X153610Y324863D01*
X153573Y324892D01*
X153530Y324921D01*
X153523Y324924D01*
X153508Y324932D01*
X153482Y324943D01*
X153450Y324954D01*
X153410Y324964D01*
X153362Y324975D01*
X153311Y324983D01*
X153260Y324986D01*
D02*
G37*
G36*
Y323716D02*
X153253D01*
X153231Y323712D01*
X153199Y323709D01*
X153155Y323701D01*
X153108Y323687D01*
X153060Y323669D01*
X153009Y323639D01*
X152966Y323603D01*
X152962Y323600D01*
X152947Y323581D01*
X152929Y323559D01*
X152907Y323527D01*
X152885Y323487D01*
X152867Y323439D01*
X152853Y323385D01*
X152849Y323326D01*
Y323323D01*
Y323319D01*
Y323297D01*
X152856Y323265D01*
X152864Y323225D01*
X152878Y323181D01*
X152900Y323134D01*
X152929Y323086D01*
X152969Y323039D01*
X152973Y323035D01*
X152991Y323021D01*
X153016Y323003D01*
X153049Y322981D01*
X153093Y322959D01*
X153140Y322941D01*
X153199Y322926D01*
X153260Y322922D01*
X153289D01*
X153322Y322930D01*
X153366Y322937D01*
X153413Y322952D01*
X153464Y322970D01*
X153512Y322999D01*
X153559Y323039D01*
X153562Y323043D01*
X153577Y323057D01*
X153595Y323083D01*
X153613Y323115D01*
X153635Y323155D01*
X153654Y323203D01*
X153668Y323254D01*
X153672Y323312D01*
Y323316D01*
Y323319D01*
X153668Y323341D01*
X153664Y323374D01*
X153657Y323414D01*
X153643Y323461D01*
X153624Y323509D01*
X153595Y323559D01*
X153559Y323603D01*
X153555Y323607D01*
X153537Y323621D01*
X153512Y323639D01*
X153479Y323658D01*
X153435Y323680D01*
X153384Y323698D01*
X153326Y323712D01*
X153260Y323716D01*
D02*
G37*
G36*
X185832Y126733D02*
X185825D01*
X185807D01*
X185774D01*
X185730Y126730D01*
X185683D01*
X185625Y126726D01*
X185563Y126722D01*
X185497Y126715D01*
X185355Y126697D01*
X185286Y126686D01*
X185221Y126671D01*
X185159Y126657D01*
X185100Y126635D01*
X185049Y126613D01*
X185006Y126587D01*
X185002D01*
X184999Y126580D01*
X184973Y126562D01*
X184940Y126529D01*
X184904Y126489D01*
X184868Y126435D01*
X184835Y126373D01*
X184809Y126304D01*
X184806Y126267D01*
X184802Y126227D01*
Y126205D01*
X184806Y126191D01*
X184813Y126154D01*
X184827Y126103D01*
X184853Y126049D01*
X184889Y125987D01*
X184911Y125958D01*
X184940Y125929D01*
X184969Y125900D01*
X185006Y125870D01*
X185009D01*
X185017Y125863D01*
X185028Y125856D01*
X185046Y125849D01*
X185071Y125834D01*
X185104Y125823D01*
X185141Y125809D01*
X185184Y125794D01*
X185239Y125783D01*
X185297Y125768D01*
X185366Y125754D01*
X185439Y125743D01*
X185526Y125736D01*
X185617Y125728D01*
X185719Y125721D01*
X185832D01*
X185836D01*
X185839D01*
X185858D01*
X185890D01*
X185934Y125725D01*
X185981D01*
X186040Y125728D01*
X186101Y125732D01*
X186171Y125739D01*
X186309Y125758D01*
X186378Y125768D01*
X186444Y125783D01*
X186505Y125798D01*
X186564Y125820D01*
X186615Y125841D01*
X186658Y125867D01*
X186662D01*
X186666Y125874D01*
X186677Y125881D01*
X186691Y125892D01*
X186724Y125925D01*
X186764Y125965D01*
X186800Y126020D01*
X186833Y126082D01*
X186848Y126114D01*
X186859Y126151D01*
X186862Y126191D01*
X186866Y126231D01*
Y126253D01*
X186862Y126267D01*
X186855Y126307D01*
X186844Y126355D01*
X186822Y126409D01*
X186789Y126467D01*
X186768Y126497D01*
X186746Y126526D01*
X186717Y126551D01*
X186684Y126577D01*
X186680D01*
X186673Y126584D01*
X186658Y126591D01*
X186640Y126602D01*
X186611Y126613D01*
X186578Y126628D01*
X186538Y126638D01*
X186491Y126653D01*
X186436Y126668D01*
X186374Y126682D01*
X186305Y126697D01*
X186229Y126708D01*
X186142Y126719D01*
X186047Y126726D01*
X185945Y126730D01*
X185832Y126733D01*
D02*
G37*
G36*
X177758Y128691D02*
X177754D01*
X177747D01*
X177736D01*
X177718Y128688D01*
X177696D01*
X177674Y128684D01*
X177620Y128673D01*
X177558Y128655D01*
X177492Y128633D01*
X177427Y128597D01*
X177368Y128550D01*
X177361Y128542D01*
X177347Y128524D01*
X177321Y128491D01*
X177296Y128451D01*
X177267Y128397D01*
X177241Y128335D01*
X177226Y128266D01*
X177219Y128189D01*
Y128167D01*
X177223Y128153D01*
X177226Y128113D01*
X177237Y128065D01*
X177256Y128007D01*
X177281Y127949D01*
X177318Y127891D01*
X177368Y127836D01*
X177376Y127829D01*
X177398Y127814D01*
X177430Y127792D01*
X177478Y127763D01*
X177536Y127738D01*
X177605Y127716D01*
X177689Y127701D01*
X177783Y127694D01*
X177787D01*
X177794D01*
X177809D01*
X177827Y127698D01*
X177853D01*
X177878Y127701D01*
X177936Y127712D01*
X178006Y127727D01*
X178078Y127752D01*
X178147Y127789D01*
X178209Y127836D01*
X178213D01*
X178217Y127843D01*
X178235Y127861D01*
X178260Y127891D01*
X178289Y127931D01*
X178315Y127982D01*
X178340Y128040D01*
X178359Y128105D01*
X178366Y128142D01*
Y128200D01*
X178362Y128215D01*
X178359Y128255D01*
X178344Y128302D01*
X178326Y128360D01*
X178293Y128422D01*
X178253Y128484D01*
X178224Y128513D01*
X178195Y128542D01*
X178191D01*
X178188Y128550D01*
X178177Y128557D01*
X178166Y128564D01*
X178129Y128589D01*
X178078Y128615D01*
X178016Y128644D01*
X177940Y128670D01*
X177853Y128684D01*
X177758Y128691D01*
D02*
G37*
%LPD*%
D10*
X166669Y349079D02*
X242260D01*
Y245732D02*
Y349079D01*
X166669Y245732D02*
X242260D01*
X166669D02*
Y349079D01*
X153890Y149941D02*
Y166673D01*
X161370D01*
Y149941D02*
Y166673D01*
X153890Y149941D02*
X161370D01*
X294362Y170776D02*
Y180224D01*
X289638Y170776D02*
X294362D01*
X289638D02*
Y180224D01*
X294362D01*
X293862Y137776D02*
Y147224D01*
X289138Y137776D02*
X293862D01*
X289138D02*
Y147224D01*
X293862D01*
X285760Y292362D02*
Y309095D01*
X293240D01*
Y292362D02*
Y309095D01*
X285760Y292362D02*
X293240D01*
X276510D02*
Y309095D01*
X283990D01*
Y292362D02*
Y309095D01*
X276510Y292362D02*
X283990D01*
X267260D02*
Y309095D01*
X274740D01*
Y292362D02*
Y309095D01*
X267260Y292362D02*
X274740D01*
X284138Y116224D02*
X288862D01*
X284138Y106776D02*
Y116224D01*
Y106776D02*
X288862D01*
Y116224D01*
X260138Y222276D02*
X264862D01*
Y231724D01*
X260138D02*
X264862D01*
X260138Y222276D02*
Y231724D01*
X202457Y142417D02*
Y169583D01*
Y142417D02*
X234347D01*
Y169583D01*
X202457D02*
X234347D01*
X199724Y177138D02*
Y181862D01*
X190276D02*
X199724D01*
X190276Y177138D02*
Y181862D01*
Y177138D02*
X199724D01*
X142890Y199374D02*
X150370D01*
X142890Y182642D02*
Y199374D01*
Y182642D02*
X150370D01*
Y199374D01*
X132390D02*
X139870D01*
X132390Y182642D02*
Y199374D01*
Y182642D02*
X139870D01*
Y199374D01*
X202358Y113362D02*
Y140528D01*
Y113362D02*
X234248D01*
Y140528D01*
X202358D02*
X234248D01*
X199681Y204142D02*
Y208866D01*
X190232D02*
X199681D01*
X190232Y204142D02*
Y208866D01*
Y204142D02*
X199681D01*
X193311Y226087D02*
X198035D01*
Y235535D01*
X193311D02*
X198035D01*
X193311Y226087D02*
Y235535D01*
X202811Y226028D02*
X207535D01*
Y235476D01*
X202811D02*
X207535D01*
X202811Y226028D02*
Y235476D01*
X161421Y322335D02*
Y326665D01*
X151579D02*
X161421D01*
X151579Y322335D02*
Y326665D01*
Y322335D02*
X161421D01*
X182185Y136244D02*
X186909D01*
X182185Y126795D02*
Y136244D01*
Y126795D02*
X186909D01*
Y136244D01*
X173685D02*
X178409D01*
X173685Y126795D02*
Y136244D01*
Y126795D02*
X178409D01*
Y136244D01*
M02*
