G04*
G04 #@! TF.GenerationSoftware,Altium Limited,Altium Designer,20.1.12 (249)*
G04*
G04 Layer_Color=8388736*
%FSLAX25Y25*%
%MOIN*%
G70*
G04*
G04 #@! TF.SameCoordinates,D1749837-0096-4F70-BC88-1939EB490A75*
G04*
G04*
G04 #@! TF.FilePolarity,Positive*
G04*
G01*
G75*
%ADD12C,0.00600*%
%ADD100C,0.01000*%
%ADD116C,0.00394*%
D12*
X379101Y221903D02*
X380101Y219904D01*
X382100Y217904D01*
X384099D01*
X385099Y218904D01*
Y220903D01*
X384099Y221903D01*
X383100D01*
X382100Y220903D01*
Y217904D01*
X379101Y227901D02*
X380101Y225902D01*
X382100Y223902D01*
X384099D01*
X385099Y224902D01*
Y226902D01*
X384099Y227901D01*
X383100D01*
X382100Y226902D01*
Y223902D01*
X385099Y229901D02*
X384099D01*
Y230900D01*
X385099D01*
Y229901D01*
X380101Y234899D02*
X379101Y235898D01*
Y237898D01*
X380101Y238898D01*
X381100D01*
X382100Y237898D01*
X383100Y238898D01*
X384099D01*
X385099Y237898D01*
Y235898D01*
X384099Y234899D01*
X383100D01*
X382100Y235898D01*
X381100Y234899D01*
X380101D01*
X382100Y235898D02*
Y237898D01*
X380101Y240897D02*
X379101Y241897D01*
Y243896D01*
X380101Y244896D01*
X384099D01*
X385099Y243896D01*
Y241897D01*
X384099Y240897D01*
X380101D01*
X226153Y77399D02*
X222154D01*
Y74400D01*
X224154Y75400D01*
X225153D01*
X226153Y74400D01*
Y72401D01*
X225153Y71401D01*
X223154D01*
X222154Y72401D01*
X228152Y77399D02*
X232151D01*
Y76399D01*
X228152Y72401D01*
Y71401D01*
X234151D02*
Y72401D01*
X235150D01*
Y71401D01*
X234151D01*
X239149Y76399D02*
X240148Y77399D01*
X242148D01*
X243148Y76399D01*
Y72401D01*
X242148Y71401D01*
X240148D01*
X239149Y72401D01*
Y76399D01*
X249146Y71401D02*
X245147D01*
X249146Y75400D01*
Y76399D01*
X248146Y77399D01*
X246147D01*
X245147Y76399D01*
D100*
X339500Y364500D02*
X382500D01*
X339500Y101500D02*
X382500D01*
X381500Y246496D02*
Y364500D01*
Y101500D02*
Y216304D01*
X379500Y358500D02*
X381500Y364500D01*
X383500Y358500D01*
X381500Y101500D02*
X383500Y107500D01*
X379500D02*
X381500Y101500D01*
X349500Y74000D02*
Y111500D01*
X125000Y74000D02*
Y111000D01*
X250746Y75000D02*
X349500D01*
X125000D02*
X220554D01*
X343500Y77000D02*
X349500Y75000D01*
X343500Y73000D02*
X349500Y75000D01*
X125000D02*
X131000Y73000D01*
X125000Y75000D02*
X131000Y77000D01*
D116*
X125728Y136764D02*
Y172846D01*
X125307Y182689D02*
X126488D01*
Y182099D01*
X126291Y181902D01*
X125897D01*
X125701Y182099D01*
Y182689D01*
X126291Y180721D02*
X126488Y180918D01*
Y181311D01*
X126291Y181508D01*
X125504D01*
X125307Y181311D01*
Y180918D01*
X125504Y180721D01*
X126488Y180327D02*
X125307D01*
Y179737D01*
X125504Y179540D01*
X125701D01*
X125897Y179737D01*
Y180327D01*
Y179737D01*
X126094Y179540D01*
X126291D01*
X126488Y179737D01*
Y180327D01*
Y177179D02*
Y177966D01*
X125307D01*
Y177179D01*
X125897Y177966D02*
Y177573D01*
X126488Y176785D02*
X125307D01*
Y176195D01*
X125504Y175998D01*
X126291D01*
X126488Y176195D01*
Y176785D01*
X126291Y174818D02*
X126488Y175014D01*
Y175408D01*
X126291Y175605D01*
X125504D01*
X125307Y175408D01*
Y175014D01*
X125504Y174818D01*
X125897D01*
Y175211D01*
X126488Y173637D02*
Y174424D01*
X125307D01*
Y173637D01*
X125897Y174424D02*
Y174030D01*
M02*
