G04*
G04 #@! TF.GenerationSoftware,Altium Limited,Altium Designer,20.1.12 (249)*
G04*
G04 Layer_Color=8388736*
%FSLAX25Y25*%
%MOIN*%
G70*
G04*
G04 #@! TF.SameCoordinates,D1749837-0096-4F70-BC88-1939EB490A75*
G04*
G04*
G04 #@! TF.FilePolarity,Negative*
G04*
G01*
G75*
%ADD23R,0.03543X0.02953*%
%ADD36R,0.05906X0.12992*%
%ADD37R,0.05906X0.04724*%
%ADD53R,0.03847X0.02272*%
%ADD54R,0.03453X0.03847*%
%ADD55R,0.08374X0.04043*%
%ADD56R,0.04043X0.08374*%
%ADD57R,0.05736X0.05736*%
%ADD58R,0.03650X0.04043*%
%ADD59R,0.04240X0.04043*%
%ADD60R,0.04043X0.03453*%
%ADD61R,0.05933X0.02272*%
%ADD62R,0.08768X0.06307*%
%ADD63R,0.07980X0.09850*%
%ADD64R,0.07980X0.05126*%
%ADD65R,0.04240X0.14279*%
%ADD66R,0.41248X0.35933*%
%ADD67R,0.04043X0.04437*%
%ADD68R,0.05618X0.07980*%
%ADD69R,0.06799X0.09083*%
%ADD70R,0.06799X0.09161*%
%ADD71R,0.04043X0.03650*%
%ADD72R,0.05618X0.04437*%
%ADD73R,0.06406X0.13492*%
%ADD74R,0.06406X0.05224*%
%ADD75R,0.03453X0.04043*%
%ADD76R,0.03847X0.03453*%
%ADD77R,0.03256X0.04043*%
%ADD78R,0.04043X0.03256*%
%ADD79R,0.04831X0.04437*%
%ADD80R,0.05815X0.02075*%
%ADD81R,0.05815X0.02862*%
%ADD82R,0.04647X0.01681*%
%ADD83R,0.01681X0.04647*%
%ADD84R,0.06500X0.06500*%
%ADD85R,0.07980X0.04043*%
%ADD86R,0.07980X0.13098*%
%ADD87R,0.04240X0.04240*%
%ADD88R,0.03650X0.03650*%
%ADD89R,0.04437X0.05618*%
%ADD90C,0.05618*%
%ADD91R,0.05618X0.05618*%
%ADD92C,0.06406*%
%ADD93R,0.06406X0.06406*%
%ADD94R,0.06406X0.06406*%
%ADD95C,0.06799*%
%ADD96R,0.06799X0.06799*%
%ADD97C,0.22500*%
%ADD98C,0.02700*%
D23*
X291500Y144862D02*
D03*
Y140138D02*
D03*
X286500Y109138D02*
D03*
Y113862D02*
D03*
X184547Y129157D02*
D03*
Y133882D02*
D03*
D36*
X230902Y126945D02*
D03*
D37*
X205705Y117890D02*
D03*
Y126945D02*
D03*
Y136000D02*
D03*
D53*
X284000Y230453D02*
D03*
Y224547D02*
D03*
X289500Y230405D02*
D03*
Y224500D02*
D03*
X291500Y160547D02*
D03*
Y166453D02*
D03*
X244000Y113953D02*
D03*
Y108047D02*
D03*
D54*
X307559Y309533D02*
D03*
X302441D02*
D03*
X307559Y303167D02*
D03*
X302441D02*
D03*
X307500Y296800D02*
D03*
X302382D02*
D03*
X307559Y290433D02*
D03*
X302441D02*
D03*
X307559Y284067D02*
D03*
X302441D02*
D03*
X307559Y277700D02*
D03*
X302441D02*
D03*
X307559Y271333D02*
D03*
X302441D02*
D03*
X307559Y264967D02*
D03*
X302441D02*
D03*
X307559Y245867D02*
D03*
X302441D02*
D03*
X307559Y252233D02*
D03*
X302441D02*
D03*
X307559Y258600D02*
D03*
X302441D02*
D03*
X307559Y239500D02*
D03*
X302441D02*
D03*
X307559Y315900D02*
D03*
X302441D02*
D03*
X307559Y335000D02*
D03*
X302441D02*
D03*
X307559Y322267D02*
D03*
X302441D02*
D03*
X307500Y328633D02*
D03*
X302382D02*
D03*
X283441Y288000D02*
D03*
X288559D02*
D03*
X153941Y306500D02*
D03*
X159059D02*
D03*
D55*
X171000Y319000D02*
D03*
Y314000D02*
D03*
Y309000D02*
D03*
Y304000D02*
D03*
Y299000D02*
D03*
Y294000D02*
D03*
Y289000D02*
D03*
Y284000D02*
D03*
Y279000D02*
D03*
Y274000D02*
D03*
Y269000D02*
D03*
Y264000D02*
D03*
Y259000D02*
D03*
Y254000D02*
D03*
X237929D02*
D03*
Y259000D02*
D03*
Y264000D02*
D03*
Y269000D02*
D03*
Y274000D02*
D03*
Y279000D02*
D03*
Y284000D02*
D03*
Y289000D02*
D03*
Y294000D02*
D03*
Y299000D02*
D03*
Y304000D02*
D03*
Y309000D02*
D03*
Y314000D02*
D03*
Y319000D02*
D03*
D56*
X181965Y250063D02*
D03*
X186965D02*
D03*
X191965D02*
D03*
X196965D02*
D03*
X201965D02*
D03*
X206965D02*
D03*
X211965D02*
D03*
X216965D02*
D03*
X221965D02*
D03*
X226965D02*
D03*
D57*
X193303Y296697D02*
D03*
X200528D02*
D03*
X207752D02*
D03*
X193303Y289472D02*
D03*
X200528D02*
D03*
X207752D02*
D03*
X193303Y282248D02*
D03*
X200528D02*
D03*
X207752D02*
D03*
D58*
X160685Y174921D02*
D03*
X155764D02*
D03*
X159961Y131500D02*
D03*
X155039D02*
D03*
D59*
X157630Y152106D02*
D03*
Y164508D02*
D03*
X289500Y294528D02*
D03*
Y306929D02*
D03*
X280250Y294528D02*
D03*
Y306929D02*
D03*
X271000Y294528D02*
D03*
Y306929D02*
D03*
X146630Y184807D02*
D03*
Y197209D02*
D03*
X136130Y184807D02*
D03*
Y197209D02*
D03*
D60*
X292000Y177862D02*
D03*
Y173138D02*
D03*
X262500Y229362D02*
D03*
Y224638D02*
D03*
X195673Y233173D02*
D03*
Y228449D02*
D03*
X205173Y233114D02*
D03*
Y228390D02*
D03*
X176047Y129157D02*
D03*
Y133882D02*
D03*
D61*
X141909Y159461D02*
D03*
Y156902D02*
D03*
Y154342D02*
D03*
Y151784D02*
D03*
Y149224D02*
D03*
D62*
X140492Y164037D02*
D03*
Y144648D02*
D03*
D63*
X131437Y165809D02*
D03*
Y142876D02*
D03*
D64*
Y157640D02*
D03*
Y151045D02*
D03*
D65*
X274500Y224500D02*
D03*
X254500D02*
D03*
X255000Y111000D02*
D03*
X275000D02*
D03*
D66*
X264500Y186114D02*
D03*
X265000Y149386D02*
D03*
D67*
X159059Y315500D02*
D03*
X153941D02*
D03*
X197559Y197500D02*
D03*
X192441D02*
D03*
X191882Y170500D02*
D03*
X197000D02*
D03*
X192441Y189500D02*
D03*
X197559D02*
D03*
X197654Y214504D02*
D03*
X192535D02*
D03*
D68*
X157173Y236299D02*
D03*
Y223701D02*
D03*
X178827Y236299D02*
D03*
Y223701D02*
D03*
D69*
X227000Y178409D02*
D03*
X212000D02*
D03*
D70*
X227000Y214591D02*
D03*
X212000D02*
D03*
D71*
X214173Y228291D02*
D03*
Y233213D02*
D03*
X223173Y228291D02*
D03*
Y233213D02*
D03*
X192047Y133980D02*
D03*
Y129059D02*
D03*
D72*
X233173Y227799D02*
D03*
Y233705D02*
D03*
D73*
X231000Y156000D02*
D03*
D74*
X205803Y146945D02*
D03*
Y156000D02*
D03*
Y165055D02*
D03*
D75*
X192638Y179500D02*
D03*
X197362D02*
D03*
X192595Y206504D02*
D03*
X197319D02*
D03*
D76*
X195500Y156941D02*
D03*
Y162059D02*
D03*
X192303Y145886D02*
D03*
Y151004D02*
D03*
X198303Y151004D02*
D03*
Y145886D02*
D03*
D77*
X160409Y145343D02*
D03*
X154504D02*
D03*
D78*
X168047Y128795D02*
D03*
Y134701D02*
D03*
D79*
X261000Y299500D02*
D03*
Y305012D02*
D03*
X252500Y299500D02*
D03*
Y305012D02*
D03*
D80*
X282516Y271957D02*
D03*
Y274516D02*
D03*
Y277075D02*
D03*
Y269398D02*
D03*
Y266839D02*
D03*
X259484D02*
D03*
Y269398D02*
D03*
Y277075D02*
D03*
Y274516D02*
D03*
Y271957D02*
D03*
Y264280D02*
D03*
Y261720D02*
D03*
Y259161D02*
D03*
Y256602D02*
D03*
Y248925D02*
D03*
Y251484D02*
D03*
Y254043D02*
D03*
X282516D02*
D03*
Y251484D02*
D03*
Y248925D02*
D03*
Y256602D02*
D03*
Y259161D02*
D03*
Y261720D02*
D03*
Y264280D02*
D03*
D81*
X259484Y280028D02*
D03*
Y245972D02*
D03*
X282516D02*
D03*
Y280028D02*
D03*
D82*
X185611Y160185D02*
D03*
X169457D02*
D03*
Y158217D02*
D03*
Y156248D02*
D03*
Y154279D02*
D03*
Y152311D02*
D03*
Y150343D02*
D03*
X185611D02*
D03*
Y152311D02*
D03*
Y154279D02*
D03*
Y156248D02*
D03*
Y158217D02*
D03*
D83*
X172613Y147187D02*
D03*
X174581D02*
D03*
X176550D02*
D03*
X178518D02*
D03*
X180487D02*
D03*
X182455D02*
D03*
X180487Y163341D02*
D03*
X178518D02*
D03*
X176550D02*
D03*
X174581D02*
D03*
X172613D02*
D03*
X182455D02*
D03*
D84*
X177534Y155264D02*
D03*
D85*
X158433Y201350D02*
D03*
Y192295D02*
D03*
Y183240D02*
D03*
D86*
X181661Y192295D02*
D03*
D87*
X165961Y215000D02*
D03*
X161039D02*
D03*
X159961Y245500D02*
D03*
X155039D02*
D03*
D88*
X153547Y324500D02*
D03*
X159453D02*
D03*
D89*
X160409Y138842D02*
D03*
X154504D02*
D03*
D90*
X309000Y192000D02*
D03*
Y218000D02*
D03*
D91*
X299158Y192000D02*
D03*
Y218000D02*
D03*
D92*
X300500Y349000D02*
D03*
X290500D02*
D03*
X280500D02*
D03*
X270500D02*
D03*
X260500D02*
D03*
X344079Y331035D02*
D03*
Y321035D02*
D03*
Y311035D02*
D03*
Y301035D02*
D03*
Y291035D02*
D03*
Y281035D02*
D03*
Y271035D02*
D03*
Y261035D02*
D03*
Y251035D02*
D03*
Y241035D02*
D03*
Y231035D02*
D03*
Y221035D02*
D03*
Y211035D02*
D03*
Y201035D02*
D03*
Y191035D02*
D03*
X334079Y331035D02*
D03*
Y321035D02*
D03*
Y311035D02*
D03*
Y301035D02*
D03*
Y291035D02*
D03*
Y281035D02*
D03*
Y271035D02*
D03*
Y261035D02*
D03*
Y251035D02*
D03*
Y241035D02*
D03*
Y231035D02*
D03*
Y221035D02*
D03*
Y211035D02*
D03*
Y201035D02*
D03*
Y191035D02*
D03*
X324079Y331035D02*
D03*
Y321035D02*
D03*
Y311035D02*
D03*
Y301035D02*
D03*
Y291035D02*
D03*
Y281035D02*
D03*
Y271035D02*
D03*
Y261035D02*
D03*
Y251035D02*
D03*
Y241035D02*
D03*
Y231035D02*
D03*
Y221035D02*
D03*
Y211035D02*
D03*
Y201035D02*
D03*
Y191035D02*
D03*
X266500Y335500D02*
D03*
X276500D02*
D03*
X286500D02*
D03*
X133500Y216500D02*
D03*
X143500Y226500D02*
D03*
X133500D02*
D03*
X143500Y236500D02*
D03*
X133500D02*
D03*
X143500Y246500D02*
D03*
X133500D02*
D03*
X143500Y256500D02*
D03*
X133500D02*
D03*
X143500Y266500D02*
D03*
X133500D02*
D03*
X143500Y276500D02*
D03*
X133500D02*
D03*
X143500Y286500D02*
D03*
X133500D02*
D03*
X143500Y296500D02*
D03*
X133500D02*
D03*
X143500Y306500D02*
D03*
X133500D02*
D03*
X143500Y316500D02*
D03*
X133500D02*
D03*
X143500Y326500D02*
D03*
X133500D02*
D03*
X143500Y336500D02*
D03*
X133500D02*
D03*
X188000Y115500D02*
D03*
X178000D02*
D03*
X168000D02*
D03*
X286500Y323000D02*
D03*
X276500D02*
D03*
X266500D02*
D03*
D93*
X250500Y349000D02*
D03*
X256500Y335500D02*
D03*
X158000Y115500D02*
D03*
X256500Y323000D02*
D03*
D94*
X344079Y181035D02*
D03*
X334079D02*
D03*
X324079D02*
D03*
X143500Y216500D02*
D03*
D95*
X333000Y159343D02*
D03*
D96*
Y139657D02*
D03*
D97*
X338000Y113000D02*
D03*
Y353000D02*
D03*
X136500D02*
D03*
Y113000D02*
D03*
D98*
X262500Y233500D02*
D03*
X265500Y242500D02*
D03*
X277500Y272500D02*
D03*
X275500Y269500D02*
D03*
X179500Y309000D02*
D03*
X163000Y254000D02*
D03*
X159500Y259500D02*
D03*
X246500Y313000D02*
D03*
X246041Y258574D02*
D03*
X187000Y242500D02*
D03*
X207000D02*
D03*
X230000Y264000D02*
D03*
X199500Y243858D02*
D03*
X239000Y252163D02*
D03*
X186265Y237735D02*
D03*
X159290Y268983D02*
D03*
X179090Y313981D02*
D03*
X244454Y303167D02*
D03*
X253500Y261000D02*
D03*
X177000Y242000D02*
D03*
X179000Y273500D02*
D03*
X229975Y297025D02*
D03*
X163000Y274000D02*
D03*
X230000Y269000D02*
D03*
X162500Y264000D02*
D03*
X207000Y306500D02*
D03*
X259250Y295000D02*
D03*
X255058Y296442D02*
D03*
X271400Y289651D02*
D03*
X278000Y277000D02*
D03*
X177791Y173208D02*
D03*
X174500Y168000D02*
D03*
X163762Y154148D02*
D03*
X182587Y170000D02*
D03*
X163630Y150606D02*
D03*
X180735Y172265D02*
D03*
X170500Y242000D02*
D03*
X166000Y196000D02*
D03*
X169000Y219000D02*
D03*
X157000Y170000D02*
D03*
X140500Y173500D02*
D03*
X190500Y185000D02*
D03*
X181500Y183000D02*
D03*
X246920Y323594D02*
D03*
X249500Y318000D02*
D03*
X134500Y181000D02*
D03*
X283022Y311522D02*
D03*
X164000Y134000D02*
D03*
X282500Y283500D02*
D03*
X284500Y213000D02*
D03*
X288500Y193500D02*
D03*
X296000Y166000D02*
D03*
X297000Y143000D02*
D03*
X295000Y114000D02*
D03*
X251000Y276000D02*
D03*
X254000Y265000D02*
D03*
X254737Y279989D02*
D03*
X264988Y273012D02*
D03*
X239000Y239000D02*
D03*
X218500Y230973D02*
D03*
X191000Y225500D02*
D03*
X208000Y204000D02*
D03*
X241100Y237000D02*
D03*
X202000Y179000D02*
D03*
X165405Y183240D02*
D03*
X150130Y156893D02*
D03*
X173500Y138500D02*
D03*
X211031Y146978D02*
D03*
X186541Y143710D02*
D03*
X205000Y160500D02*
D03*
X214000Y127500D02*
D03*
X184000Y138500D02*
D03*
X151296Y160875D02*
D03*
M02*
