G04*
G04 #@! TF.GenerationSoftware,Altium Limited,Altium Designer,20.1.12 (249)*
G04*
G04 Layer_Physical_Order=2*
G04 Layer_Color=16711680*
%FSLAX25Y25*%
%MOIN*%
G70*
G04*
G04 #@! TF.SameCoordinates,D1749837-0096-4F70-BC88-1939EB490A75*
G04*
G04*
G04 #@! TF.FilePolarity,Positive*
G04*
G01*
G75*
%ADD99C,0.02000*%
%ADD100C,0.01000*%
%ADD101C,0.00800*%
%ADD102C,0.01200*%
%ADD103C,0.05118*%
%ADD104R,0.05118X0.05118*%
%ADD105C,0.05906*%
%ADD106R,0.05906X0.05906*%
%ADD107R,0.05906X0.05906*%
%ADD108C,0.06299*%
%ADD109R,0.06299X0.06299*%
%ADD110C,0.22000*%
%ADD111C,0.02200*%
%ADD112R,0.13780X0.03740*%
%ADD113R,0.35433X0.40748*%
G36*
X331149Y362971D02*
X331284Y362489D01*
X331161Y362414D01*
X329772Y361228D01*
X328586Y359839D01*
X327632Y358283D01*
X326934Y356596D01*
X326507Y354820D01*
X326403Y353500D01*
X338000D01*
Y353000D01*
X338500D01*
Y341404D01*
X339820Y341507D01*
X341596Y341934D01*
X343283Y342632D01*
X344839Y343586D01*
X346228Y344772D01*
X347414Y346161D01*
X347489Y346284D01*
X347971Y346149D01*
X347971Y332230D01*
X347471Y332130D01*
X347182Y332827D01*
X346613Y333569D01*
X345870Y334139D01*
X345006Y334497D01*
X344579Y334553D01*
Y331035D01*
Y327518D01*
X345006Y327574D01*
X345870Y327932D01*
X346613Y328502D01*
X347182Y329244D01*
X347471Y329940D01*
X347971Y329841D01*
Y322230D01*
X347471Y322130D01*
X347182Y322827D01*
X346613Y323569D01*
X345870Y324139D01*
X345006Y324497D01*
X344579Y324553D01*
Y321035D01*
Y317518D01*
X345006Y317574D01*
X345870Y317932D01*
X346613Y318502D01*
X347182Y319244D01*
X347471Y319940D01*
X347971Y319841D01*
X347971Y312230D01*
X347471Y312130D01*
X347182Y312827D01*
X346613Y313569D01*
X345870Y314139D01*
X345006Y314497D01*
X344579Y314553D01*
Y311035D01*
Y307518D01*
X345006Y307574D01*
X345870Y307932D01*
X346613Y308502D01*
X347182Y309244D01*
X347471Y309940D01*
X347971Y309841D01*
Y302230D01*
X347471Y302130D01*
X347182Y302827D01*
X346613Y303569D01*
X345870Y304139D01*
X345006Y304497D01*
X344579Y304553D01*
Y301035D01*
Y297518D01*
X345006Y297574D01*
X345870Y297932D01*
X346613Y298502D01*
X347182Y299244D01*
X347471Y299940D01*
X347971Y299841D01*
X347971Y292230D01*
X347471Y292130D01*
X347182Y292827D01*
X346613Y293569D01*
X345870Y294139D01*
X345006Y294497D01*
X344579Y294553D01*
Y291035D01*
Y287518D01*
X345006Y287574D01*
X345870Y287932D01*
X346613Y288502D01*
X347182Y289244D01*
X347471Y289940D01*
X347971Y289841D01*
Y282230D01*
X347471Y282130D01*
X347182Y282827D01*
X346613Y283569D01*
X345870Y284139D01*
X345006Y284497D01*
X344579Y284553D01*
Y281035D01*
Y277518D01*
X345006Y277574D01*
X345870Y277932D01*
X346613Y278502D01*
X347182Y279244D01*
X347471Y279940D01*
X347971Y279841D01*
Y272230D01*
X347471Y272130D01*
X347182Y272827D01*
X346613Y273569D01*
X345870Y274139D01*
X345006Y274497D01*
X344579Y274553D01*
Y271035D01*
Y267518D01*
X345006Y267574D01*
X345870Y267932D01*
X346613Y268502D01*
X347182Y269244D01*
X347471Y269940D01*
X347971Y269841D01*
X347971Y262230D01*
X347471Y262130D01*
X347182Y262827D01*
X346613Y263569D01*
X345870Y264139D01*
X345006Y264497D01*
X344579Y264553D01*
Y261035D01*
Y257518D01*
X345006Y257574D01*
X345870Y257932D01*
X346613Y258502D01*
X347182Y259244D01*
X347471Y259940D01*
X347971Y259841D01*
Y252230D01*
X347471Y252131D01*
X347182Y252827D01*
X346613Y253569D01*
X345870Y254139D01*
X345006Y254497D01*
X344579Y254553D01*
Y251035D01*
Y247518D01*
X345006Y247574D01*
X345870Y247932D01*
X346613Y248502D01*
X347182Y249244D01*
X347471Y249940D01*
X347971Y249841D01*
X347971Y242230D01*
X347471Y242130D01*
X347182Y242827D01*
X346613Y243569D01*
X345870Y244139D01*
X345006Y244497D01*
X344579Y244553D01*
Y241035D01*
Y237518D01*
X345006Y237574D01*
X345870Y237932D01*
X346613Y238502D01*
X347182Y239244D01*
X347471Y239940D01*
X347971Y239841D01*
Y232230D01*
X347471Y232131D01*
X347182Y232827D01*
X346613Y233569D01*
X345870Y234139D01*
X345006Y234497D01*
X344579Y234553D01*
Y231035D01*
Y227518D01*
X345006Y227574D01*
X345870Y227932D01*
X346613Y228502D01*
X347182Y229244D01*
X347471Y229940D01*
X347971Y229841D01*
Y222230D01*
X347471Y222130D01*
X347182Y222827D01*
X346613Y223569D01*
X345870Y224139D01*
X345006Y224497D01*
X344579Y224553D01*
Y221035D01*
Y217518D01*
X345006Y217574D01*
X345870Y217932D01*
X346613Y218502D01*
X347182Y219244D01*
X347471Y219940D01*
X347971Y219841D01*
Y212230D01*
X347471Y212130D01*
X347182Y212827D01*
X346613Y213569D01*
X345870Y214139D01*
X345006Y214497D01*
X344579Y214553D01*
Y211035D01*
Y207518D01*
X345006Y207574D01*
X345870Y207932D01*
X346613Y208502D01*
X347182Y209244D01*
X347471Y209940D01*
X347971Y209841D01*
Y202230D01*
X347471Y202131D01*
X347182Y202827D01*
X346613Y203569D01*
X345870Y204139D01*
X345006Y204497D01*
X344579Y204553D01*
Y201035D01*
Y197518D01*
X345006Y197574D01*
X345870Y197932D01*
X346613Y198502D01*
X347182Y199244D01*
X347471Y199940D01*
X347971Y199841D01*
X347971Y192230D01*
X347471Y192130D01*
X347182Y192827D01*
X346613Y193569D01*
X345870Y194139D01*
X345006Y194497D01*
X344579Y194553D01*
Y191035D01*
Y187518D01*
X345006Y187574D01*
X345870Y187932D01*
X346613Y188502D01*
X347182Y189244D01*
X347471Y189940D01*
X347971Y189841D01*
Y184948D01*
X347632Y184588D01*
X347471Y184588D01*
X344579D01*
Y181035D01*
Y177483D01*
X347471D01*
X347971Y177123D01*
X347971Y119852D01*
X347489Y119716D01*
X347414Y119839D01*
X346228Y121228D01*
X344839Y122414D01*
X343283Y123368D01*
X341596Y124066D01*
X339820Y124493D01*
X338500Y124597D01*
Y113000D01*
X338000D01*
Y112500D01*
X326403D01*
X326507Y111180D01*
X326934Y109404D01*
X327632Y107717D01*
X328586Y106161D01*
X329772Y104772D01*
X331161Y103586D01*
X331284Y103511D01*
X331149Y103029D01*
X143351Y103029D01*
X143216Y103511D01*
X143339Y103586D01*
X144728Y104772D01*
X145914Y106161D01*
X146868Y107717D01*
X147566Y109404D01*
X147993Y111180D01*
X148097Y112500D01*
X136500D01*
Y113000D01*
X136000D01*
Y124597D01*
X134680Y124493D01*
X132904Y124066D01*
X131217Y123368D01*
X129661Y122414D01*
X128272Y121228D01*
X127086Y119839D01*
X127011Y119716D01*
X126529Y119851D01*
X126529Y346149D01*
X127011Y346284D01*
X127086Y346161D01*
X128272Y344772D01*
X129661Y343586D01*
X131217Y342632D01*
X132904Y341934D01*
X134680Y341507D01*
X136000Y341404D01*
Y353000D01*
X136500D01*
Y353500D01*
X148097D01*
X147993Y354820D01*
X147566Y356596D01*
X146868Y358283D01*
X145914Y359839D01*
X144728Y361228D01*
X143339Y362414D01*
X143216Y362489D01*
X143351Y362971D01*
X331149Y362971D01*
D02*
G37*
%LPC*%
G36*
X261000Y352518D02*
Y349500D01*
X264018D01*
X263961Y349927D01*
X263603Y350792D01*
X263034Y351534D01*
X262292Y352103D01*
X261427Y352461D01*
X261000Y352518D01*
D02*
G37*
G36*
X260000D02*
X259573Y352461D01*
X258708Y352103D01*
X257966Y351534D01*
X257397Y350792D01*
X257039Y349927D01*
X256982Y349500D01*
X260000D01*
Y352518D01*
D02*
G37*
G36*
X264018Y348500D02*
X261000D01*
Y345482D01*
X261427Y345539D01*
X262292Y345897D01*
X263034Y346466D01*
X263603Y347208D01*
X263961Y348073D01*
X264018Y348500D01*
D02*
G37*
G36*
X260000D02*
X256982D01*
X257039Y348073D01*
X257397Y347208D01*
X257966Y346466D01*
X258708Y345897D01*
X259573Y345539D01*
X260000Y345482D01*
Y348500D01*
D02*
G37*
G36*
X254053Y352553D02*
X246947D01*
Y345447D01*
X254053D01*
Y352553D01*
D02*
G37*
G36*
X290500Y352583D02*
X289573Y352461D01*
X288708Y352103D01*
X287966Y351534D01*
X287397Y350792D01*
X287039Y349927D01*
X286917Y349000D01*
X287039Y348073D01*
X287397Y347208D01*
X287966Y346466D01*
X288708Y345897D01*
X289573Y345539D01*
X290500Y345417D01*
X291427Y345539D01*
X292292Y345897D01*
X293034Y346466D01*
X293603Y347208D01*
X293961Y348073D01*
X294083Y349000D01*
X293961Y349927D01*
X293603Y350792D01*
X293034Y351534D01*
X292292Y352103D01*
X291427Y352461D01*
X290500Y352583D01*
D02*
G37*
G36*
X337500Y352500D02*
X326403D01*
X326507Y351180D01*
X326934Y349404D01*
X327632Y347717D01*
X328586Y346161D01*
X329772Y344772D01*
X331161Y343586D01*
X332717Y342632D01*
X334404Y341934D01*
X336180Y341507D01*
X337500Y341404D01*
Y352500D01*
D02*
G37*
G36*
X148097D02*
X137000D01*
Y341404D01*
X138320Y341507D01*
X140096Y341934D01*
X141783Y342632D01*
X143339Y343586D01*
X144728Y344772D01*
X145914Y346161D01*
X146868Y347717D01*
X147566Y349404D01*
X147993Y351180D01*
X148097Y352500D01*
D02*
G37*
G36*
X134000Y340018D02*
Y337000D01*
X137018D01*
X136961Y337427D01*
X136603Y338292D01*
X136034Y339034D01*
X135292Y339603D01*
X134427Y339961D01*
X134000Y340018D01*
D02*
G37*
G36*
X133000D02*
X132573Y339961D01*
X131708Y339603D01*
X130966Y339034D01*
X130397Y338292D01*
X130039Y337427D01*
X129982Y337000D01*
X133000D01*
Y340018D01*
D02*
G37*
G36*
X300500Y352583D02*
X299573Y352461D01*
X298708Y352103D01*
X297966Y351534D01*
X297397Y350792D01*
X297039Y349927D01*
X296917Y349000D01*
X297039Y348073D01*
X297397Y347208D01*
X297966Y346466D01*
X298708Y345897D01*
X299480Y345577D01*
Y344332D01*
X290530Y335382D01*
X290067Y335626D01*
X289961Y336427D01*
X289603Y337292D01*
X289034Y338034D01*
X288292Y338603D01*
X287427Y338961D01*
X286500Y339083D01*
X285573Y338961D01*
X284708Y338603D01*
X283966Y338034D01*
X283397Y337292D01*
X283039Y336427D01*
X282917Y335500D01*
X283039Y334573D01*
X283397Y333708D01*
X283966Y332966D01*
X284708Y332397D01*
X285573Y332039D01*
X286374Y331933D01*
X286618Y331470D01*
X280145Y324996D01*
X279446D01*
X279034Y325534D01*
X278292Y326103D01*
X277427Y326461D01*
X276626Y326567D01*
X276382Y327030D01*
X281174Y331822D01*
X281395Y332153D01*
X281472Y332543D01*
Y343263D01*
X281520Y343500D01*
Y345577D01*
X282292Y345897D01*
X283034Y346466D01*
X283603Y347208D01*
X283961Y348073D01*
X284083Y349000D01*
X283961Y349927D01*
X283603Y350792D01*
X283034Y351534D01*
X282292Y352103D01*
X281427Y352461D01*
X280500Y352583D01*
X279573Y352461D01*
X278708Y352103D01*
X277966Y351534D01*
X277397Y350792D01*
X277039Y349927D01*
X276917Y349000D01*
X277039Y348073D01*
X277397Y347208D01*
X277966Y346466D01*
X278708Y345897D01*
X279480Y345577D01*
Y343690D01*
X279433Y343453D01*
Y338266D01*
X278933Y338111D01*
X278292Y338603D01*
X277427Y338961D01*
X276500Y339083D01*
X275573Y338961D01*
X274708Y338603D01*
X273966Y338034D01*
X273397Y337292D01*
X273039Y336427D01*
X272917Y335500D01*
X273039Y334573D01*
X273397Y333708D01*
X273966Y332966D01*
X274708Y332397D01*
X275573Y332039D01*
X276500Y331917D01*
X277427Y332039D01*
X278063Y332302D01*
X278346Y331878D01*
X271826Y325358D01*
X271605Y325027D01*
X271528Y324637D01*
Y323880D01*
X270530Y322882D01*
X270067Y323126D01*
X269961Y323927D01*
X269603Y324792D01*
X269034Y325534D01*
X268292Y326103D01*
X267427Y326461D01*
X266500Y326583D01*
X265573Y326461D01*
X264708Y326103D01*
X263966Y325534D01*
X263397Y324792D01*
X263039Y323927D01*
X262917Y323000D01*
X263039Y322073D01*
X263105Y321912D01*
X260824Y319631D01*
X260053D01*
Y322500D01*
X252947D01*
Y319631D01*
X250012D01*
X249819Y319670D01*
X249654Y320212D01*
X251721Y322279D01*
X251942Y322610D01*
X252020Y323000D01*
Y336897D01*
X252485Y337363D01*
X252947Y337172D01*
Y336000D01*
X260053D01*
Y338433D01*
X263734D01*
X263889Y337933D01*
X263397Y337292D01*
X263039Y336427D01*
X262917Y335500D01*
X263039Y334573D01*
X263397Y333708D01*
X263966Y332966D01*
X264708Y332397D01*
X265573Y332039D01*
X266500Y331917D01*
X267427Y332039D01*
X268292Y332397D01*
X269034Y332966D01*
X269603Y333708D01*
X269961Y334573D01*
X270083Y335500D01*
X269961Y336427D01*
X269603Y337292D01*
X269034Y338034D01*
X268292Y338603D01*
X267910Y338761D01*
X267793Y339351D01*
X271221Y342779D01*
X271442Y343110D01*
X271520Y343500D01*
Y345577D01*
X272292Y345897D01*
X273034Y346466D01*
X273603Y347208D01*
X273961Y348073D01*
X274083Y349000D01*
X273961Y349927D01*
X273603Y350792D01*
X273034Y351534D01*
X272292Y352103D01*
X271427Y352461D01*
X270500Y352583D01*
X269573Y352461D01*
X268708Y352103D01*
X267966Y351534D01*
X267397Y350792D01*
X267039Y349927D01*
X266917Y349000D01*
X267039Y348073D01*
X267397Y347208D01*
X267966Y346466D01*
X268708Y345897D01*
X269480Y345577D01*
Y343922D01*
X266030Y340472D01*
X253133D01*
X252743Y340395D01*
X252412Y340174D01*
X250279Y338041D01*
X250058Y337710D01*
X249980Y337320D01*
Y323422D01*
X224779Y298221D01*
X224558Y297890D01*
X224480Y297500D01*
Y268500D01*
X224558Y268110D01*
X224779Y267779D01*
X228315Y264243D01*
X228267Y264000D01*
X228399Y263337D01*
X228774Y262774D01*
X229337Y262399D01*
X230000Y262267D01*
X230663Y262399D01*
X231226Y262774D01*
X231601Y263337D01*
X231733Y264000D01*
X231601Y264663D01*
X231226Y265226D01*
X230663Y265601D01*
X230000Y265733D01*
X229757Y265685D01*
X226520Y268922D01*
Y270385D01*
X226981Y270577D01*
X228315Y269243D01*
X228267Y269000D01*
X228399Y268337D01*
X228774Y267774D01*
X229337Y267399D01*
X230000Y267267D01*
X230663Y267399D01*
X231226Y267774D01*
X231601Y268337D01*
X231733Y269000D01*
X231601Y269663D01*
X231226Y270226D01*
X230663Y270601D01*
X230000Y270733D01*
X229757Y270685D01*
X227920Y272522D01*
Y296210D01*
X228139Y296283D01*
X228417Y296293D01*
X228420Y296291D01*
X228749Y295799D01*
X229311Y295424D01*
X229975Y295292D01*
X230218Y295340D01*
X240080Y285478D01*
Y254035D01*
X239580Y253781D01*
X239000Y253896D01*
X238337Y253764D01*
X237774Y253389D01*
X237399Y252826D01*
X237267Y252163D01*
X237399Y251500D01*
X237774Y250937D01*
X237980Y250800D01*
Y248422D01*
X222779Y233221D01*
X222558Y232890D01*
X222480Y232500D01*
Y210952D01*
X216547Y205020D01*
X209363D01*
X209226Y205226D01*
X208663Y205601D01*
X208000Y205733D01*
X207337Y205601D01*
X206774Y205226D01*
X206399Y204663D01*
X206267Y204000D01*
X206399Y203337D01*
X206774Y202774D01*
X206980Y202637D01*
Y168750D01*
X207058Y168360D01*
X207279Y168029D01*
X212980Y162328D01*
Y148021D01*
X212480Y147869D01*
X212257Y148203D01*
X211695Y148579D01*
X211031Y148711D01*
X210368Y148579D01*
X209806Y148203D01*
X209668Y147997D01*
X197945D01*
X183520Y162422D01*
Y168579D01*
X183812Y168774D01*
X184188Y169337D01*
X184320Y170000D01*
X184188Y170663D01*
X183812Y171226D01*
X183250Y171601D01*
X182802Y171690D01*
X182451Y172177D01*
X182468Y172265D01*
X182336Y172928D01*
X181960Y173491D01*
X181398Y173866D01*
X180735Y173998D01*
X180072Y173866D01*
X179923Y173767D01*
X179392Y173872D01*
X179017Y174434D01*
X178454Y174810D01*
X177791Y174942D01*
X177128Y174810D01*
X176565Y174434D01*
X176215Y173909D01*
X176080Y173882D01*
X175750Y173661D01*
X170583Y168494D01*
X170362Y168164D01*
X170284Y167773D01*
Y159799D01*
X169784Y159592D01*
X166629Y162747D01*
Y182013D01*
X166631Y182015D01*
X167007Y182577D01*
X167139Y183240D01*
X167138Y183243D01*
X191865Y207969D01*
X192130Y208366D01*
X192224Y208835D01*
Y224273D01*
X192226Y224274D01*
X192601Y224837D01*
X192733Y225500D01*
X192601Y226163D01*
X192226Y226726D01*
X191663Y227101D01*
X191000Y227233D01*
X190337Y227101D01*
X189774Y226726D01*
X189399Y226163D01*
X189267Y225500D01*
X189399Y224837D01*
X189774Y224274D01*
X189777Y224273D01*
Y209341D01*
X165408Y184973D01*
X165405Y184974D01*
X164742Y184842D01*
X164180Y184466D01*
X163804Y183904D01*
X163672Y183240D01*
X163804Y182577D01*
X164180Y182015D01*
X164182Y182013D01*
Y162240D01*
X164275Y161772D01*
X164540Y161375D01*
X168001Y157914D01*
Y153928D01*
X166023Y151950D01*
X164877D01*
X164681Y152184D01*
X164764Y152773D01*
X164988Y152923D01*
X165364Y153485D01*
X165496Y154148D01*
X165364Y154812D01*
X164988Y155374D01*
X164426Y155750D01*
X163762Y155882D01*
X163099Y155750D01*
X162537Y155374D01*
X162399Y155168D01*
X153297D01*
X151815Y156650D01*
X151863Y156893D01*
X151731Y157556D01*
X151356Y158118D01*
X150793Y158494D01*
X150130Y158626D01*
X149467Y158494D01*
X148904Y158118D01*
X148723Y157848D01*
X148223Y158000D01*
Y159652D01*
X150069D01*
X150070Y159650D01*
X150632Y159274D01*
X151296Y159142D01*
X151959Y159274D01*
X152521Y159650D01*
X152897Y160212D01*
X153029Y160875D01*
X152897Y161538D01*
X152521Y162101D01*
X151959Y162477D01*
X151296Y162608D01*
X150632Y162477D01*
X150070Y162101D01*
X150069Y162099D01*
X147703D01*
X147235Y162005D01*
X146838Y161740D01*
X146135Y161037D01*
X145870Y160640D01*
X145776Y160172D01*
Y137500D01*
X145870Y137032D01*
X146135Y136635D01*
X156776Y125993D01*
Y119053D01*
X154447D01*
Y111947D01*
X161553D01*
Y119053D01*
X159223D01*
Y126500D01*
X159130Y126968D01*
X158865Y127365D01*
X148223Y138007D01*
Y155786D01*
X148723Y155938D01*
X148904Y155667D01*
X149467Y155291D01*
X150130Y155159D01*
X150373Y155208D01*
X152153Y153427D01*
X152484Y153206D01*
X152874Y153129D01*
X162399D01*
X162537Y152923D01*
X162872Y152699D01*
X162901Y152549D01*
X162845Y152127D01*
X162404Y151832D01*
X162029Y151270D01*
X161897Y150606D01*
X162029Y149943D01*
X162404Y149381D01*
X162777Y149132D01*
Y135227D01*
X162774Y135226D01*
X162399Y134663D01*
X162267Y134000D01*
X162399Y133337D01*
X162774Y132774D01*
X163337Y132399D01*
X164000Y132267D01*
X164663Y132399D01*
X165226Y132774D01*
X165601Y133337D01*
X165733Y134000D01*
X165601Y134663D01*
X165226Y135226D01*
X165224Y135227D01*
Y149503D01*
X166530D01*
X166594Y149516D01*
X166980Y149199D01*
Y118923D01*
X166208Y118603D01*
X165466Y118034D01*
X164897Y117292D01*
X164539Y116427D01*
X164417Y115500D01*
X164539Y114573D01*
X164897Y113708D01*
X165466Y112966D01*
X166208Y112397D01*
X167073Y112039D01*
X168000Y111917D01*
X168927Y112039D01*
X169792Y112397D01*
X170534Y112966D01*
X171103Y113708D01*
X171461Y114573D01*
X171583Y115500D01*
X171461Y116427D01*
X171103Y117292D01*
X170534Y118034D01*
X169792Y118603D01*
X169020Y118923D01*
Y149512D01*
X172025Y152517D01*
X172246Y152848D01*
X172323Y153238D01*
Y166943D01*
X172512Y167080D01*
X173152Y166958D01*
X173274Y166774D01*
X173480Y166637D01*
Y155751D01*
X173558Y155361D01*
X173779Y155030D01*
X184856Y143954D01*
X184808Y143710D01*
X184939Y143047D01*
X185222Y142625D01*
X185022Y142125D01*
X173135D01*
X172745Y142047D01*
X172415Y141826D01*
X170679Y140091D01*
X170458Y139760D01*
X170380Y139370D01*
Y131926D01*
X170458Y131535D01*
X170679Y131205D01*
X176980Y124903D01*
Y118923D01*
X176208Y118603D01*
X175466Y118034D01*
X174897Y117292D01*
X174539Y116427D01*
X174417Y115500D01*
X174539Y114573D01*
X174897Y113708D01*
X175466Y112966D01*
X176208Y112397D01*
X177073Y112039D01*
X178000Y111917D01*
X178927Y112039D01*
X179792Y112397D01*
X180534Y112966D01*
X181103Y113708D01*
X181461Y114573D01*
X181583Y115500D01*
X181461Y116427D01*
X181103Y117292D01*
X180534Y118034D01*
X179792Y118603D01*
X179020Y118923D01*
Y125326D01*
X178942Y125716D01*
X178721Y126047D01*
X172420Y132348D01*
Y136628D01*
X172920Y136882D01*
X173500Y136767D01*
X174163Y136899D01*
X174726Y137274D01*
X174727Y137276D01*
X182773D01*
X182774Y137274D01*
X183337Y136899D01*
X184000Y136767D01*
X184663Y136899D01*
X185226Y137274D01*
X185601Y137837D01*
X185733Y138500D01*
X185601Y139163D01*
X185319Y139586D01*
X185518Y140086D01*
X186905D01*
X187295Y140163D01*
X187626Y140384D01*
X189362Y142120D01*
X189583Y142450D01*
X189660Y142841D01*
Y152691D01*
X190160Y152898D01*
X196801Y146257D01*
X197132Y146036D01*
X197522Y145958D01*
X209668D01*
X209806Y145752D01*
X210368Y145376D01*
X211031Y145244D01*
X211695Y145376D01*
X212257Y145752D01*
X212480Y146086D01*
X212980Y145935D01*
Y128863D01*
X212774Y128726D01*
X212399Y128163D01*
X212267Y127500D01*
X212399Y126837D01*
X212774Y126274D01*
X213337Y125899D01*
X214000Y125767D01*
X214663Y125899D01*
X215226Y126274D01*
X215601Y126837D01*
X215733Y127500D01*
X215601Y128163D01*
X215226Y128726D01*
X215020Y128863D01*
Y162750D01*
X214942Y163140D01*
X214721Y163471D01*
X209020Y169172D01*
Y202637D01*
X209226Y202774D01*
X209363Y202980D01*
X216970D01*
X217360Y203058D01*
X217691Y203279D01*
X224221Y209809D01*
X224442Y210140D01*
X224520Y210530D01*
Y232078D01*
X239580Y247139D01*
X240080Y246940D01*
Y241522D01*
X239243Y240685D01*
X239000Y240733D01*
X238337Y240601D01*
X237774Y240226D01*
X237399Y239663D01*
X237267Y239000D01*
X237399Y238337D01*
X237774Y237774D01*
X238337Y237399D01*
X238913Y237284D01*
X239082Y237178D01*
X239399Y236836D01*
X239499Y236337D01*
X239874Y235774D01*
X240437Y235399D01*
X241100Y235267D01*
X241763Y235399D01*
X242326Y235774D01*
X242701Y236337D01*
X242833Y237000D01*
X242785Y237243D01*
X244662Y239120D01*
X244883Y239451D01*
X244961Y239841D01*
Y256702D01*
X245461Y256956D01*
X246041Y256841D01*
X246705Y256973D01*
X247267Y257348D01*
X247405Y257555D01*
X264574D01*
X264964Y257632D01*
X265295Y257853D01*
X275257Y267815D01*
X275500Y267767D01*
X276163Y267899D01*
X276726Y268274D01*
X277101Y268837D01*
X277233Y269500D01*
X277101Y270163D01*
X276726Y270726D01*
X276163Y271101D01*
X275500Y271233D01*
X274837Y271101D01*
X274274Y270726D01*
X273899Y270163D01*
X273767Y269500D01*
X273815Y269257D01*
X264152Y259594D01*
X255206D01*
X254939Y260094D01*
X255101Y260337D01*
X255233Y261000D01*
X255141Y261462D01*
X264964Y271284D01*
X264988Y271279D01*
X265651Y271411D01*
X266213Y271786D01*
X266589Y272349D01*
X266721Y273012D01*
X266589Y273675D01*
X266213Y274238D01*
X265651Y274613D01*
X264988Y274745D01*
X264325Y274613D01*
X263762Y274238D01*
X263387Y273675D01*
X263255Y273012D01*
X263346Y272550D01*
X256169Y265373D01*
X255626Y265538D01*
X255601Y265663D01*
X255226Y266226D01*
X254663Y266601D01*
X254000Y266733D01*
X253757Y266685D01*
X252020Y268422D01*
Y274637D01*
X252226Y274774D01*
X252601Y275337D01*
X252733Y276000D01*
X252601Y276663D01*
X252226Y277226D01*
X251663Y277601D01*
X251000Y277733D01*
X250337Y277601D01*
X249774Y277226D01*
X249399Y276663D01*
X249267Y276000D01*
X249399Y275337D01*
X249774Y274774D01*
X249980Y274637D01*
Y268000D01*
X250058Y267610D01*
X250279Y267279D01*
X252315Y265243D01*
X252267Y265000D01*
X252399Y264337D01*
X252774Y263774D01*
X253337Y263399D01*
X253313Y262894D01*
X253165Y262667D01*
X252837Y262601D01*
X252274Y262226D01*
X251899Y261663D01*
X251767Y261000D01*
X251899Y260337D01*
X252061Y260094D01*
X251794Y259594D01*
X247405D01*
X247267Y259800D01*
X246775Y260128D01*
X246601Y260662D01*
X247321Y261382D01*
X247542Y261713D01*
X247620Y262103D01*
Y301021D01*
X247542Y301411D01*
X247321Y301742D01*
X246139Y302924D01*
X246187Y303167D01*
X246055Y303831D01*
X245680Y304393D01*
X245117Y304768D01*
X244454Y304901D01*
X243791Y304768D01*
X243228Y304393D01*
X242853Y303831D01*
X242721Y303167D01*
X242853Y302504D01*
X243228Y301942D01*
X243791Y301566D01*
X244454Y301434D01*
X244697Y301482D01*
X245580Y300599D01*
Y262525D01*
X243220Y260165D01*
X242999Y259834D01*
X242922Y259444D01*
Y240264D01*
X241411Y238753D01*
X240950Y238943D01*
X240885Y239443D01*
X241821Y240379D01*
X242042Y240710D01*
X242120Y241100D01*
Y285900D01*
X242042Y286290D01*
X241821Y286621D01*
X231660Y296782D01*
X231708Y297025D01*
X231576Y297688D01*
X231201Y298251D01*
X230708Y298580D01*
X230535Y299113D01*
X244284Y312862D01*
X244827Y312698D01*
X244899Y312337D01*
X245274Y311774D01*
X245837Y311399D01*
X246500Y311267D01*
X246743Y311315D01*
X247480Y310578D01*
Y309000D01*
X247558Y308610D01*
X247779Y308279D01*
X251284Y304774D01*
Y282423D01*
X251361Y282033D01*
X251582Y281702D01*
X253053Y280232D01*
X253004Y279989D01*
X253136Y279325D01*
X253512Y278763D01*
X254074Y278387D01*
X254737Y278255D01*
X255401Y278387D01*
X255963Y278763D01*
X256339Y279325D01*
X256471Y279989D01*
X256339Y280652D01*
X255963Y281214D01*
X255401Y281590D01*
X254737Y281722D01*
X254495Y281674D01*
X253323Y282845D01*
Y295079D01*
X253823Y295231D01*
X253832Y295216D01*
X254395Y294841D01*
X255058Y294709D01*
X255118Y294721D01*
X273559Y276279D01*
X273890Y276058D01*
X274280Y275980D01*
X276637D01*
X276774Y275774D01*
X277337Y275399D01*
X278000Y275267D01*
X278663Y275399D01*
X279226Y275774D01*
X279601Y276337D01*
X279733Y277000D01*
X279601Y277663D01*
X279226Y278226D01*
X278663Y278601D01*
X278000Y278733D01*
X277337Y278601D01*
X276774Y278226D01*
X276637Y278020D01*
X274703D01*
X270690Y282032D01*
X270936Y282493D01*
X271000Y282480D01*
X281137D01*
X281274Y282274D01*
X281837Y281899D01*
X282500Y281767D01*
X283163Y281899D01*
X283726Y282274D01*
X284101Y282837D01*
X284233Y283500D01*
X284101Y284163D01*
X283726Y284726D01*
X283163Y285101D01*
X282500Y285233D01*
X281837Y285101D01*
X281274Y284726D01*
X281137Y284520D01*
X271422D01*
X260976Y294966D01*
X260983Y295000D01*
X260851Y295663D01*
X260476Y296226D01*
X259913Y296601D01*
X259250Y296733D01*
X258587Y296601D01*
X258024Y296226D01*
X257696Y295734D01*
X257162Y295560D01*
X256707Y296016D01*
X256791Y296442D01*
X256743Y296685D01*
X268367Y308309D01*
X272828D01*
X273218Y308386D01*
X273549Y308607D01*
X284800Y319859D01*
X285573Y319539D01*
X286500Y319417D01*
X287427Y319539D01*
X288292Y319897D01*
X288680Y320194D01*
X289010Y319818D01*
X282230Y313038D01*
X281796Y312748D01*
X281420Y312185D01*
X281288Y311522D01*
X281420Y310859D01*
X281796Y310297D01*
X282230Y310006D01*
X291754Y300483D01*
X282554Y291283D01*
X271913D01*
X271400Y291384D01*
X270737Y291252D01*
X270174Y290877D01*
X269799Y290314D01*
X269667Y289651D01*
X269799Y288988D01*
X270174Y288425D01*
X270737Y288050D01*
X271400Y287918D01*
X271913Y288020D01*
X283229D01*
X283854Y288144D01*
X284383Y288498D01*
X295215Y299329D01*
X295568Y299858D01*
X295692Y300483D01*
X295568Y301107D01*
X295215Y301636D01*
X285329Y311522D01*
X312175Y338369D01*
X324438D01*
X330684Y332123D01*
X330617Y331963D01*
X330495Y331035D01*
X330617Y330108D01*
X330975Y329244D01*
X331545Y328502D01*
X332287Y327932D01*
X333151Y327574D01*
X334079Y327452D01*
X335006Y327574D01*
X335870Y327932D01*
X336613Y328502D01*
X337182Y329244D01*
X337540Y330108D01*
X337662Y331035D01*
X337540Y331963D01*
X337182Y332827D01*
X336613Y333569D01*
X335870Y334139D01*
X335006Y334497D01*
X334079Y334619D01*
X333151Y334497D01*
X332991Y334430D01*
X326268Y341154D01*
X325738Y341507D01*
X325114Y341631D01*
X311500D01*
X310875Y341507D01*
X310346Y341154D01*
X289682Y320490D01*
X289306Y320820D01*
X289603Y321208D01*
X289961Y322073D01*
X290083Y323000D01*
X289961Y323927D01*
X289603Y324792D01*
X289034Y325534D01*
X288292Y326103D01*
X287427Y326461D01*
X286500Y326583D01*
X285573Y326461D01*
X284937Y326198D01*
X284654Y326622D01*
X301221Y343189D01*
X301442Y343520D01*
X301520Y343910D01*
Y345577D01*
X302292Y345897D01*
X303034Y346466D01*
X303603Y347208D01*
X303961Y348073D01*
X304083Y349000D01*
X303961Y349927D01*
X303603Y350792D01*
X303034Y351534D01*
X302292Y352103D01*
X301427Y352461D01*
X300500Y352583D01*
D02*
G37*
G36*
X137018Y336000D02*
X134000D01*
Y332982D01*
X134427Y333039D01*
X135292Y333397D01*
X136034Y333966D01*
X136603Y334708D01*
X136961Y335573D01*
X137018Y336000D01*
D02*
G37*
G36*
X133000D02*
X129982D01*
X130039Y335573D01*
X130397Y334708D01*
X130966Y333966D01*
X131708Y333397D01*
X132573Y333039D01*
X133000Y332982D01*
Y336000D01*
D02*
G37*
G36*
X143500Y340083D02*
X142573Y339961D01*
X141708Y339603D01*
X140966Y339034D01*
X140397Y338292D01*
X140039Y337427D01*
X139917Y336500D01*
X140039Y335573D01*
X140397Y334708D01*
X140966Y333966D01*
X141708Y333397D01*
X142573Y333039D01*
X143500Y332917D01*
X144427Y333039D01*
X145292Y333397D01*
X146034Y333966D01*
X146603Y334708D01*
X146961Y335573D01*
X147083Y336500D01*
X146961Y337427D01*
X146603Y338292D01*
X146034Y339034D01*
X145292Y339603D01*
X144427Y339961D01*
X143500Y340083D01*
D02*
G37*
G36*
X260053Y335000D02*
X257000D01*
Y331947D01*
X260053D01*
Y335000D01*
D02*
G37*
G36*
X256000D02*
X252947D01*
Y331947D01*
X256000D01*
Y335000D01*
D02*
G37*
G36*
X343579Y334553D02*
X343151Y334497D01*
X342287Y334139D01*
X341545Y333569D01*
X340975Y332827D01*
X340617Y331963D01*
X340561Y331535D01*
X343579D01*
Y334553D01*
D02*
G37*
G36*
Y330535D02*
X340561D01*
X340617Y330108D01*
X340975Y329244D01*
X341545Y328502D01*
X342287Y327932D01*
X343151Y327574D01*
X343579Y327518D01*
Y330535D01*
D02*
G37*
G36*
X324079Y334619D02*
X323151Y334497D01*
X322287Y334139D01*
X321545Y333569D01*
X320975Y332827D01*
X320617Y331963D01*
X320495Y331035D01*
X320617Y330108D01*
X320975Y329244D01*
X321545Y328502D01*
X322287Y327932D01*
X323151Y327574D01*
X324079Y327452D01*
X325006Y327574D01*
X325870Y327932D01*
X326613Y328502D01*
X327182Y329244D01*
X327540Y330108D01*
X327662Y331035D01*
X327540Y331963D01*
X327182Y332827D01*
X326613Y333569D01*
X325870Y334139D01*
X325006Y334497D01*
X324079Y334619D01*
D02*
G37*
G36*
X144000Y330018D02*
Y327000D01*
X147018D01*
X146961Y327427D01*
X146603Y328292D01*
X146034Y329034D01*
X145292Y329603D01*
X144427Y329961D01*
X144000Y330018D01*
D02*
G37*
G36*
X143000D02*
X142573Y329961D01*
X141708Y329603D01*
X140966Y329034D01*
X140397Y328292D01*
X140039Y327427D01*
X139982Y327000D01*
X143000D01*
Y330018D01*
D02*
G37*
G36*
X260053Y326553D02*
X257000D01*
Y323500D01*
X260053D01*
Y326553D01*
D02*
G37*
G36*
X256000D02*
X252947D01*
Y323500D01*
X256000D01*
Y326553D01*
D02*
G37*
G36*
X147018Y326000D02*
X144000D01*
Y322982D01*
X144427Y323039D01*
X145292Y323397D01*
X146034Y323966D01*
X146603Y324708D01*
X146961Y325573D01*
X147018Y326000D01*
D02*
G37*
G36*
X143000D02*
X139982D01*
X140039Y325573D01*
X140397Y324708D01*
X140966Y323966D01*
X141708Y323397D01*
X142573Y323039D01*
X143000Y322982D01*
Y326000D01*
D02*
G37*
G36*
X133500Y330083D02*
X132573Y329961D01*
X131708Y329603D01*
X130966Y329034D01*
X130397Y328292D01*
X130039Y327427D01*
X129917Y326500D01*
X130039Y325573D01*
X130397Y324708D01*
X130966Y323966D01*
X131708Y323397D01*
X132573Y323039D01*
X133500Y322917D01*
X134427Y323039D01*
X135292Y323397D01*
X136034Y323966D01*
X136603Y324708D01*
X136961Y325573D01*
X137083Y326500D01*
X136961Y327427D01*
X136603Y328292D01*
X136034Y329034D01*
X135292Y329603D01*
X134427Y329961D01*
X133500Y330083D01*
D02*
G37*
G36*
X239898Y349138D02*
X169032D01*
X168572Y348947D01*
X168382Y348488D01*
Y323685D01*
X168572Y323226D01*
X169032Y323036D01*
X238551D01*
X238742Y322574D01*
X231780Y315612D01*
X179602D01*
X179090Y315714D01*
X178426Y315582D01*
X177864Y315206D01*
X177488Y314644D01*
X177356Y313981D01*
X177488Y313317D01*
X177864Y312755D01*
X178426Y312379D01*
X179090Y312247D01*
X179318Y312293D01*
X180900Y310710D01*
X180581Y310322D01*
X180467Y310398D01*
X180163Y310601D01*
X179500Y310733D01*
X178837Y310601D01*
X178274Y310226D01*
X177899Y309663D01*
X177767Y309000D01*
X177899Y308337D01*
X178274Y307774D01*
X178480Y307637D01*
Y294500D01*
X178558Y294110D01*
X178779Y293779D01*
X213480Y259078D01*
Y242922D01*
X201279Y230721D01*
X201058Y230390D01*
X200980Y230000D01*
Y180363D01*
X200774Y180226D01*
X200399Y179663D01*
X200267Y179000D01*
X200399Y178337D01*
X200774Y177774D01*
X200980Y177637D01*
Y163500D01*
X201058Y163110D01*
X201279Y162779D01*
X203315Y160743D01*
X203267Y160500D01*
X203399Y159837D01*
X203774Y159274D01*
X204337Y158899D01*
X205000Y158767D01*
X205663Y158899D01*
X206226Y159274D01*
X206601Y159837D01*
X206733Y160500D01*
X206601Y161163D01*
X206226Y161726D01*
X205663Y162101D01*
X205000Y162233D01*
X204757Y162185D01*
X203020Y163922D01*
Y177637D01*
X203226Y177774D01*
X203601Y178337D01*
X203733Y179000D01*
X203601Y179663D01*
X203226Y180226D01*
X203020Y180363D01*
Y229578D01*
X215221Y241779D01*
X215442Y242110D01*
X215520Y242500D01*
Y259500D01*
X215442Y259890D01*
X215221Y260221D01*
X180520Y294922D01*
Y307637D01*
X180726Y307774D01*
X181101Y308337D01*
X181233Y309000D01*
X181101Y309663D01*
X180898Y309967D01*
X180822Y310081D01*
X181210Y310400D01*
X182276Y309334D01*
Y298500D01*
X182370Y298032D01*
X182635Y297635D01*
X217277Y262993D01*
Y232200D01*
X217274Y232199D01*
X216899Y231637D01*
X216767Y230973D01*
X216899Y230310D01*
X217274Y229748D01*
X217837Y229372D01*
X218500Y229240D01*
X219163Y229372D01*
X219726Y229748D01*
X220101Y230310D01*
X220233Y230973D01*
X220101Y231637D01*
X219726Y232199D01*
X219724Y232200D01*
Y263500D01*
X219630Y263968D01*
X219365Y264365D01*
X184723Y299007D01*
Y309841D01*
X184630Y310309D01*
X184365Y310706D01*
X183184Y311887D01*
X183375Y312349D01*
X232456D01*
X233080Y312473D01*
X233610Y312827D01*
X242745Y321963D01*
X246407D01*
X246920Y321861D01*
X247583Y321993D01*
X248145Y322368D01*
X248521Y322931D01*
X248653Y323594D01*
X248521Y324257D01*
X248145Y324820D01*
X247583Y325195D01*
X246920Y325327D01*
X246407Y325225D01*
X242069D01*
X241445Y325101D01*
X241047Y324835D01*
X240547Y325027D01*
Y348488D01*
X240357Y348947D01*
X239898Y349138D01*
D02*
G37*
G36*
X343579Y324553D02*
X343151Y324497D01*
X342287Y324139D01*
X341545Y323569D01*
X340975Y322827D01*
X340617Y321963D01*
X340561Y321535D01*
X343579D01*
Y324553D01*
D02*
G37*
G36*
Y320535D02*
X340561D01*
X340617Y320108D01*
X340975Y319244D01*
X341545Y318502D01*
X342287Y317932D01*
X343151Y317574D01*
X343579Y317518D01*
Y320535D01*
D02*
G37*
G36*
X334079Y324619D02*
X333151Y324497D01*
X332287Y324139D01*
X331545Y323569D01*
X330975Y322827D01*
X330617Y321963D01*
X330495Y321035D01*
X330617Y320108D01*
X330975Y319244D01*
X331545Y318502D01*
X332287Y317932D01*
X333151Y317574D01*
X334079Y317452D01*
X335006Y317574D01*
X335870Y317932D01*
X336613Y318502D01*
X337182Y319244D01*
X337540Y320108D01*
X337662Y321035D01*
X337540Y321963D01*
X337182Y322827D01*
X336613Y323569D01*
X335870Y324139D01*
X335006Y324497D01*
X334079Y324619D01*
D02*
G37*
G36*
X324079D02*
X323151Y324497D01*
X322287Y324139D01*
X321545Y323569D01*
X320975Y322827D01*
X320617Y321963D01*
X320495Y321035D01*
X320617Y320108D01*
X320975Y319244D01*
X321545Y318502D01*
X322287Y317932D01*
X323151Y317574D01*
X324079Y317452D01*
X325006Y317574D01*
X325870Y317932D01*
X326613Y318502D01*
X327182Y319244D01*
X327540Y320108D01*
X327662Y321035D01*
X327540Y321963D01*
X327182Y322827D01*
X326613Y323569D01*
X325870Y324139D01*
X325006Y324497D01*
X324079Y324619D01*
D02*
G37*
G36*
X143500Y320083D02*
X142573Y319961D01*
X141708Y319603D01*
X140966Y319034D01*
X140397Y318292D01*
X140039Y317427D01*
X139917Y316500D01*
X140039Y315573D01*
X140397Y314708D01*
X140966Y313966D01*
X141708Y313397D01*
X142573Y313039D01*
X143500Y312917D01*
X144427Y313039D01*
X145292Y313397D01*
X146034Y313966D01*
X146603Y314708D01*
X146961Y315573D01*
X147083Y316500D01*
X146961Y317427D01*
X146603Y318292D01*
X146034Y319034D01*
X145292Y319603D01*
X144427Y319961D01*
X143500Y320083D01*
D02*
G37*
G36*
X133500D02*
X132573Y319961D01*
X131708Y319603D01*
X130966Y319034D01*
X130397Y318292D01*
X130039Y317427D01*
X129917Y316500D01*
X130039Y315573D01*
X130397Y314708D01*
X130966Y313966D01*
X131708Y313397D01*
X132573Y313039D01*
X133500Y312917D01*
X134427Y313039D01*
X135292Y313397D01*
X136034Y313966D01*
X136603Y314708D01*
X136961Y315573D01*
X137083Y316500D01*
X136961Y317427D01*
X136603Y318292D01*
X136034Y319034D01*
X135292Y319603D01*
X134427Y319961D01*
X133500Y320083D01*
D02*
G37*
G36*
X343579Y314553D02*
X343151Y314497D01*
X342287Y314139D01*
X341545Y313569D01*
X340975Y312827D01*
X340617Y311963D01*
X340561Y311535D01*
X343579D01*
Y314553D01*
D02*
G37*
G36*
Y310535D02*
X340561D01*
X340617Y310108D01*
X340975Y309244D01*
X341545Y308502D01*
X342287Y307932D01*
X343151Y307574D01*
X343579Y307518D01*
Y310535D01*
D02*
G37*
G36*
X334079Y314619D02*
X333151Y314497D01*
X332287Y314139D01*
X331545Y313569D01*
X330975Y312827D01*
X330617Y311963D01*
X330495Y311035D01*
X330617Y310108D01*
X330975Y309244D01*
X331545Y308502D01*
X332287Y307932D01*
X333151Y307574D01*
X334079Y307452D01*
X335006Y307574D01*
X335870Y307932D01*
X336613Y308502D01*
X337182Y309244D01*
X337540Y310108D01*
X337662Y311035D01*
X337540Y311963D01*
X337182Y312827D01*
X336613Y313569D01*
X335870Y314139D01*
X335006Y314497D01*
X334079Y314619D01*
D02*
G37*
G36*
X324079D02*
X323151Y314497D01*
X322287Y314139D01*
X321545Y313569D01*
X320975Y312827D01*
X320617Y311963D01*
X320495Y311035D01*
X320617Y310108D01*
X320975Y309244D01*
X321545Y308502D01*
X322287Y307932D01*
X323151Y307574D01*
X324079Y307452D01*
X325006Y307574D01*
X325870Y307932D01*
X326613Y308502D01*
X327182Y309244D01*
X327540Y310108D01*
X327662Y311035D01*
X327540Y311963D01*
X327182Y312827D01*
X326613Y313569D01*
X325870Y314139D01*
X325006Y314497D01*
X324079Y314619D01*
D02*
G37*
G36*
X143500Y310083D02*
X142573Y309961D01*
X141708Y309603D01*
X140966Y309034D01*
X140397Y308292D01*
X140039Y307427D01*
X139917Y306500D01*
X140039Y305573D01*
X140397Y304708D01*
X140966Y303966D01*
X141708Y303397D01*
X142573Y303039D01*
X143500Y302917D01*
X144427Y303039D01*
X145292Y303397D01*
X146034Y303966D01*
X146603Y304708D01*
X146961Y305573D01*
X147083Y306500D01*
X146961Y307427D01*
X146603Y308292D01*
X146034Y309034D01*
X145292Y309603D01*
X144427Y309961D01*
X143500Y310083D01*
D02*
G37*
G36*
X133500D02*
X132573Y309961D01*
X131708Y309603D01*
X130966Y309034D01*
X130397Y308292D01*
X130039Y307427D01*
X129917Y306500D01*
X130039Y305573D01*
X130397Y304708D01*
X130966Y303966D01*
X131708Y303397D01*
X132573Y303039D01*
X133500Y302917D01*
X134427Y303039D01*
X135292Y303397D01*
X136034Y303966D01*
X136603Y304708D01*
X136961Y305573D01*
X137083Y306500D01*
X136961Y307427D01*
X136603Y308292D01*
X136034Y309034D01*
X135292Y309603D01*
X134427Y309961D01*
X133500Y310083D01*
D02*
G37*
G36*
X343579Y304553D02*
X343151Y304497D01*
X342287Y304139D01*
X341545Y303569D01*
X340975Y302827D01*
X340617Y301963D01*
X340561Y301535D01*
X343579D01*
Y304553D01*
D02*
G37*
G36*
Y300535D02*
X340561D01*
X340617Y300108D01*
X340975Y299244D01*
X341545Y298502D01*
X342287Y297932D01*
X343151Y297574D01*
X343579Y297518D01*
Y300535D01*
D02*
G37*
G36*
X334079Y304619D02*
X333151Y304497D01*
X332287Y304139D01*
X331545Y303569D01*
X330975Y302827D01*
X330617Y301963D01*
X330495Y301035D01*
X330617Y300108D01*
X330975Y299244D01*
X331545Y298502D01*
X332287Y297932D01*
X333151Y297574D01*
X334079Y297452D01*
X335006Y297574D01*
X335870Y297932D01*
X336613Y298502D01*
X337182Y299244D01*
X337540Y300108D01*
X337662Y301035D01*
X337540Y301963D01*
X337182Y302827D01*
X336613Y303569D01*
X335870Y304139D01*
X335006Y304497D01*
X334079Y304619D01*
D02*
G37*
G36*
X324079D02*
X323151Y304497D01*
X322287Y304139D01*
X321545Y303569D01*
X320975Y302827D01*
X320617Y301963D01*
X320495Y301035D01*
X320617Y300108D01*
X320975Y299244D01*
X321545Y298502D01*
X322287Y297932D01*
X323151Y297574D01*
X324079Y297452D01*
X325006Y297574D01*
X325870Y297932D01*
X326613Y298502D01*
X327182Y299244D01*
X327540Y300108D01*
X327662Y301035D01*
X327540Y301963D01*
X327182Y302827D01*
X326613Y303569D01*
X325870Y304139D01*
X325006Y304497D01*
X324079Y304619D01*
D02*
G37*
G36*
X134000Y300018D02*
Y297000D01*
X137018D01*
X136961Y297427D01*
X136603Y298292D01*
X136034Y299034D01*
X135292Y299603D01*
X134427Y299961D01*
X134000Y300018D01*
D02*
G37*
G36*
X133000D02*
X132573Y299961D01*
X131708Y299603D01*
X130966Y299034D01*
X130397Y298292D01*
X130039Y297427D01*
X129982Y297000D01*
X133000D01*
Y300018D01*
D02*
G37*
G36*
X137018Y296000D02*
X134000D01*
Y292982D01*
X134427Y293039D01*
X135292Y293397D01*
X136034Y293966D01*
X136603Y294708D01*
X136961Y295573D01*
X137018Y296000D01*
D02*
G37*
G36*
X133000D02*
X129982D01*
X130039Y295573D01*
X130397Y294708D01*
X130966Y293966D01*
X131708Y293397D01*
X132573Y293039D01*
X133000Y292982D01*
Y296000D01*
D02*
G37*
G36*
X143500Y300083D02*
X142573Y299961D01*
X141708Y299603D01*
X140966Y299034D01*
X140397Y298292D01*
X140039Y297427D01*
X139917Y296500D01*
X140039Y295573D01*
X140397Y294708D01*
X140966Y293966D01*
X141708Y293397D01*
X142573Y293039D01*
X143500Y292917D01*
X144427Y293039D01*
X145292Y293397D01*
X146034Y293966D01*
X146603Y294708D01*
X146961Y295573D01*
X147083Y296500D01*
X146961Y297427D01*
X146603Y298292D01*
X146034Y299034D01*
X145292Y299603D01*
X144427Y299961D01*
X143500Y300083D01*
D02*
G37*
G36*
X343579Y294553D02*
X343151Y294497D01*
X342287Y294139D01*
X341545Y293569D01*
X340975Y292827D01*
X340617Y291963D01*
X340561Y291535D01*
X343579D01*
Y294553D01*
D02*
G37*
G36*
Y290535D02*
X340561D01*
X340617Y290108D01*
X340975Y289244D01*
X341545Y288502D01*
X342287Y287932D01*
X343151Y287574D01*
X343579Y287518D01*
Y290535D01*
D02*
G37*
G36*
X334079Y294619D02*
X333151Y294497D01*
X332287Y294139D01*
X331545Y293569D01*
X330975Y292827D01*
X330617Y291963D01*
X330495Y291035D01*
X330617Y290108D01*
X330975Y289244D01*
X331545Y288502D01*
X332287Y287932D01*
X333151Y287574D01*
X334079Y287452D01*
X335006Y287574D01*
X335870Y287932D01*
X336613Y288502D01*
X337182Y289244D01*
X337540Y290108D01*
X337662Y291035D01*
X337540Y291963D01*
X337182Y292827D01*
X336613Y293569D01*
X335870Y294139D01*
X335006Y294497D01*
X334079Y294619D01*
D02*
G37*
G36*
X324079D02*
X323151Y294497D01*
X322287Y294139D01*
X321545Y293569D01*
X320975Y292827D01*
X320617Y291963D01*
X320495Y291035D01*
X320617Y290108D01*
X320975Y289244D01*
X321545Y288502D01*
X322287Y287932D01*
X323151Y287574D01*
X324079Y287452D01*
X325006Y287574D01*
X325870Y287932D01*
X326613Y288502D01*
X327182Y289244D01*
X327540Y290108D01*
X327662Y291035D01*
X327540Y291963D01*
X327182Y292827D01*
X326613Y293569D01*
X325870Y294139D01*
X325006Y294497D01*
X324079Y294619D01*
D02*
G37*
G36*
X343579Y284553D02*
X343151Y284497D01*
X342287Y284139D01*
X341545Y283569D01*
X340975Y282827D01*
X340617Y281963D01*
X340561Y281535D01*
X343579D01*
Y284553D01*
D02*
G37*
G36*
Y280535D02*
X340561D01*
X340617Y280108D01*
X340975Y279244D01*
X341545Y278502D01*
X342287Y277932D01*
X343151Y277574D01*
X343579Y277518D01*
Y280535D01*
D02*
G37*
G36*
X334079Y284619D02*
X333151Y284497D01*
X332287Y284139D01*
X331545Y283569D01*
X330975Y282827D01*
X330617Y281963D01*
X330495Y281035D01*
X330617Y280108D01*
X330975Y279244D01*
X331545Y278502D01*
X332287Y277932D01*
X333151Y277574D01*
X334079Y277452D01*
X335006Y277574D01*
X335870Y277932D01*
X336613Y278502D01*
X337182Y279244D01*
X337540Y280108D01*
X337662Y281035D01*
X337540Y281963D01*
X337182Y282827D01*
X336613Y283569D01*
X335870Y284139D01*
X335006Y284497D01*
X334079Y284619D01*
D02*
G37*
G36*
X324079D02*
X323151Y284497D01*
X322287Y284139D01*
X321545Y283569D01*
X320975Y282827D01*
X320617Y281963D01*
X320495Y281035D01*
X320617Y280108D01*
X320975Y279244D01*
X321545Y278502D01*
X322287Y277932D01*
X323151Y277574D01*
X324079Y277452D01*
X325006Y277574D01*
X325870Y277932D01*
X326613Y278502D01*
X327182Y279244D01*
X327540Y280108D01*
X327662Y281035D01*
X327540Y281963D01*
X327182Y282827D01*
X326613Y283569D01*
X325870Y284139D01*
X325006Y284497D01*
X324079Y284619D01*
D02*
G37*
G36*
X143500Y290083D02*
X142573Y289961D01*
X141708Y289603D01*
X140966Y289034D01*
X140397Y288292D01*
X140039Y287427D01*
X139917Y286500D01*
X140039Y285573D01*
X140397Y284708D01*
X140966Y283966D01*
X141708Y283397D01*
X142573Y283039D01*
X143500Y282917D01*
X144427Y283039D01*
X145292Y283397D01*
X146034Y283966D01*
X146603Y284708D01*
X146923Y285480D01*
X150078D01*
X161315Y274243D01*
X161267Y274000D01*
X161399Y273337D01*
X161774Y272774D01*
X162337Y272399D01*
X163000Y272267D01*
X163663Y272399D01*
X164226Y272774D01*
X164601Y273337D01*
X164733Y274000D01*
X164601Y274663D01*
X164226Y275226D01*
X163663Y275601D01*
X163000Y275733D01*
X162757Y275685D01*
X151221Y287221D01*
X150890Y287442D01*
X150500Y287520D01*
X146923D01*
X146603Y288292D01*
X146034Y289034D01*
X145292Y289603D01*
X144427Y289961D01*
X143500Y290083D01*
D02*
G37*
G36*
X343579Y274553D02*
X343151Y274497D01*
X342287Y274139D01*
X341545Y273569D01*
X340975Y272827D01*
X340617Y271963D01*
X340561Y271535D01*
X343579D01*
Y274553D01*
D02*
G37*
G36*
X133500Y290083D02*
X132573Y289961D01*
X131708Y289603D01*
X130966Y289034D01*
X130397Y288292D01*
X130039Y287427D01*
X129917Y286500D01*
X130039Y285573D01*
X130397Y284708D01*
X130966Y283966D01*
X131708Y283397D01*
X132573Y283039D01*
X133500Y282917D01*
X134427Y283039D01*
X135200Y283359D01*
X138826Y279732D01*
X139157Y279511D01*
X139547Y279433D01*
X140734D01*
X140889Y278933D01*
X140397Y278292D01*
X140039Y277427D01*
X139917Y276500D01*
X140039Y275573D01*
X140397Y274708D01*
X140966Y273966D01*
X141708Y273397D01*
X142573Y273039D01*
X143500Y272917D01*
X144427Y273039D01*
X145292Y273397D01*
X145632Y273658D01*
X147355Y271934D01*
X147164Y271472D01*
X139970D01*
X136642Y274800D01*
X136961Y275573D01*
X137083Y276500D01*
X136961Y277427D01*
X136603Y278292D01*
X136034Y279034D01*
X135292Y279603D01*
X134427Y279961D01*
X133500Y280083D01*
X132573Y279961D01*
X131708Y279603D01*
X130966Y279034D01*
X130397Y278292D01*
X130039Y277427D01*
X129917Y276500D01*
X130039Y275573D01*
X130397Y274708D01*
X130966Y273966D01*
X131708Y273397D01*
X132573Y273039D01*
X133500Y272917D01*
X134427Y273039D01*
X135200Y273358D01*
X138826Y269732D01*
X139157Y269511D01*
X139547Y269433D01*
X140734D01*
X140889Y268933D01*
X140397Y268292D01*
X140039Y267427D01*
X139917Y266500D01*
X140039Y265573D01*
X140397Y264708D01*
X140966Y263966D01*
X141708Y263397D01*
X142573Y263039D01*
X143500Y262917D01*
X144427Y263039D01*
X145200Y263358D01*
X149779Y258779D01*
X150110Y258558D01*
X150500Y258480D01*
X158137D01*
X158274Y258274D01*
X158656Y258020D01*
X158504Y257520D01*
X146923D01*
X146603Y258292D01*
X146034Y259034D01*
X145292Y259603D01*
X144427Y259961D01*
X143500Y260083D01*
X142573Y259961D01*
X141708Y259603D01*
X140966Y259034D01*
X140397Y258292D01*
X140039Y257427D01*
X139917Y256500D01*
X140039Y255573D01*
X140397Y254708D01*
X140966Y253966D01*
X141708Y253397D01*
X142573Y253039D01*
X143500Y252917D01*
X144427Y253039D01*
X145292Y253397D01*
X146034Y253966D01*
X146603Y254708D01*
X146923Y255480D01*
X160078D01*
X161315Y254243D01*
X161267Y254000D01*
X161399Y253337D01*
X161774Y252774D01*
X162337Y252399D01*
X163000Y252267D01*
X163663Y252399D01*
X164226Y252774D01*
X164601Y253337D01*
X164733Y254000D01*
X164601Y254663D01*
X164226Y255226D01*
X163663Y255601D01*
X163000Y255733D01*
X162757Y255685D01*
X161221Y257221D01*
X160890Y257442D01*
X160500Y257520D01*
X160496D01*
X160344Y258020D01*
X160726Y258274D01*
X161101Y258837D01*
X161233Y259500D01*
X161101Y260163D01*
X160726Y260726D01*
X160163Y261101D01*
X159500Y261233D01*
X158837Y261101D01*
X158274Y260726D01*
X158137Y260520D01*
X150922D01*
X146642Y264800D01*
X146961Y265573D01*
X147083Y266500D01*
X146961Y267427D01*
X146603Y268292D01*
X146111Y268933D01*
X146266Y269433D01*
X147876D01*
X154030Y263279D01*
X154361Y263058D01*
X154751Y262980D01*
X161137D01*
X161274Y262774D01*
X161837Y262399D01*
X162500Y262267D01*
X163163Y262399D01*
X163726Y262774D01*
X164101Y263337D01*
X164233Y264000D01*
X164101Y264663D01*
X163726Y265226D01*
X163519Y265364D01*
X163671Y265864D01*
X172383D01*
X172773Y265941D01*
X173104Y266162D01*
X178757Y271815D01*
X179000Y271767D01*
X179663Y271899D01*
X180226Y272274D01*
X180601Y272837D01*
X180733Y273500D01*
X180601Y274163D01*
X180226Y274726D01*
X179663Y275101D01*
X179000Y275233D01*
X178337Y275101D01*
X177774Y274726D01*
X177399Y274163D01*
X177267Y273500D01*
X177315Y273257D01*
X171961Y267903D01*
X161162D01*
X160907Y268403D01*
X161023Y268983D01*
X160891Y269647D01*
X160515Y270209D01*
X159953Y270585D01*
X159290Y270717D01*
X159047Y270668D01*
X148541Y281174D01*
X148210Y281395D01*
X147820Y281472D01*
X139970D01*
X136642Y284800D01*
X136961Y285573D01*
X137083Y286500D01*
X136961Y287427D01*
X136603Y288292D01*
X136034Y289034D01*
X135292Y289603D01*
X134427Y289961D01*
X133500Y290083D01*
D02*
G37*
G36*
X343579Y270535D02*
X340561D01*
X340617Y270108D01*
X340975Y269244D01*
X341545Y268502D01*
X342287Y267932D01*
X343151Y267574D01*
X343579Y267518D01*
Y270535D01*
D02*
G37*
G36*
X334079Y274619D02*
X333151Y274497D01*
X332287Y274139D01*
X331545Y273569D01*
X330975Y272827D01*
X330617Y271963D01*
X330495Y271035D01*
X330617Y270108D01*
X330975Y269244D01*
X331545Y268502D01*
X332287Y267932D01*
X333151Y267574D01*
X334079Y267452D01*
X335006Y267574D01*
X335870Y267932D01*
X336613Y268502D01*
X337182Y269244D01*
X337540Y270108D01*
X337662Y271035D01*
X337540Y271963D01*
X337182Y272827D01*
X336613Y273569D01*
X335870Y274139D01*
X335006Y274497D01*
X334079Y274619D01*
D02*
G37*
G36*
X324079D02*
X323151Y274497D01*
X322287Y274139D01*
X321545Y273569D01*
X320975Y272827D01*
X320617Y271963D01*
X320495Y271035D01*
X320617Y270108D01*
X320975Y269244D01*
X321545Y268502D01*
X322287Y267932D01*
X323151Y267574D01*
X324079Y267452D01*
X325006Y267574D01*
X325870Y267932D01*
X326613Y268502D01*
X327182Y269244D01*
X327540Y270108D01*
X327662Y271035D01*
X327540Y271963D01*
X327182Y272827D01*
X326613Y273569D01*
X325870Y274139D01*
X325006Y274497D01*
X324079Y274619D01*
D02*
G37*
G36*
X133500Y270083D02*
X132573Y269961D01*
X131708Y269603D01*
X130966Y269034D01*
X130397Y268292D01*
X130039Y267427D01*
X129917Y266500D01*
X130039Y265573D01*
X130397Y264708D01*
X130966Y263966D01*
X131708Y263397D01*
X132573Y263039D01*
X133500Y262917D01*
X134427Y263039D01*
X135292Y263397D01*
X136034Y263966D01*
X136603Y264708D01*
X136961Y265573D01*
X137083Y266500D01*
X136961Y267427D01*
X136603Y268292D01*
X136034Y269034D01*
X135292Y269603D01*
X134427Y269961D01*
X133500Y270083D01*
D02*
G37*
G36*
X343579Y264553D02*
X343151Y264497D01*
X342287Y264139D01*
X341545Y263569D01*
X340975Y262827D01*
X340617Y261963D01*
X340561Y261535D01*
X343579D01*
Y264553D01*
D02*
G37*
G36*
Y260535D02*
X340561D01*
X340617Y260108D01*
X340975Y259244D01*
X341545Y258502D01*
X342287Y257932D01*
X343151Y257574D01*
X343579Y257518D01*
Y260535D01*
D02*
G37*
G36*
X334079Y264619D02*
X333151Y264497D01*
X332287Y264139D01*
X331545Y263569D01*
X330975Y262827D01*
X330617Y261963D01*
X330495Y261035D01*
X330617Y260108D01*
X330975Y259244D01*
X331545Y258502D01*
X332287Y257932D01*
X333151Y257574D01*
X334079Y257452D01*
X335006Y257574D01*
X335870Y257932D01*
X336613Y258502D01*
X337182Y259244D01*
X337540Y260108D01*
X337662Y261035D01*
X337540Y261963D01*
X337182Y262827D01*
X336613Y263569D01*
X335870Y264139D01*
X335006Y264497D01*
X334079Y264619D01*
D02*
G37*
G36*
X324079D02*
X323151Y264497D01*
X322287Y264139D01*
X321545Y263569D01*
X320975Y262827D01*
X320617Y261963D01*
X320495Y261035D01*
X320617Y260108D01*
X320975Y259244D01*
X321545Y258502D01*
X322287Y257932D01*
X323151Y257574D01*
X324079Y257452D01*
X325006Y257574D01*
X325870Y257932D01*
X326613Y258502D01*
X327182Y259244D01*
X327540Y260108D01*
X327662Y261035D01*
X327540Y261963D01*
X327182Y262827D01*
X326613Y263569D01*
X325870Y264139D01*
X325006Y264497D01*
X324079Y264619D01*
D02*
G37*
G36*
X133500Y260083D02*
X132573Y259961D01*
X131708Y259603D01*
X130966Y259034D01*
X130397Y258292D01*
X130039Y257427D01*
X129917Y256500D01*
X130039Y255573D01*
X130359Y254800D01*
X128826Y253268D01*
X128605Y252937D01*
X128528Y252547D01*
Y244863D01*
X128605Y244473D01*
X128826Y244142D01*
X132545Y240423D01*
X132380Y239881D01*
X131708Y239603D01*
X130966Y239034D01*
X130397Y238292D01*
X130039Y237427D01*
X129917Y236500D01*
X130039Y235573D01*
X130397Y234708D01*
X130966Y233966D01*
X131708Y233397D01*
X132573Y233039D01*
X133500Y232917D01*
X134427Y233039D01*
X135292Y233397D01*
X136034Y233966D01*
X136603Y234708D01*
X136961Y235573D01*
X137083Y236500D01*
X136961Y237427D01*
X136603Y238292D01*
X136111Y238933D01*
X136266Y239433D01*
X140734D01*
X140889Y238933D01*
X140397Y238292D01*
X140039Y237427D01*
X139917Y236500D01*
X140039Y235573D01*
X140397Y234708D01*
X140966Y233966D01*
X141708Y233397D01*
X142573Y233039D01*
X143500Y232917D01*
X144427Y233039D01*
X145292Y233397D01*
X145978Y233923D01*
X146387Y233514D01*
X146718Y233293D01*
X147108Y233215D01*
X198735D01*
X199125Y233293D01*
X199456Y233514D01*
X206757Y240815D01*
X207000Y240767D01*
X207663Y240899D01*
X208226Y241274D01*
X208601Y241837D01*
X208733Y242500D01*
X208601Y243163D01*
X208226Y243726D01*
X207663Y244101D01*
X207000Y244233D01*
X206337Y244101D01*
X205774Y243726D01*
X205399Y243163D01*
X205267Y242500D01*
X205315Y242257D01*
X198313Y235255D01*
X192991D01*
X192800Y235716D01*
X199257Y242173D01*
X199500Y242125D01*
X200163Y242257D01*
X200726Y242633D01*
X201101Y243195D01*
X201233Y243858D01*
X201101Y244522D01*
X200726Y245084D01*
X200163Y245460D01*
X199500Y245592D01*
X198837Y245460D01*
X198274Y245084D01*
X197899Y244522D01*
X197767Y243858D01*
X197815Y243615D01*
X190854Y236654D01*
X188137D01*
X187883Y237155D01*
X187998Y237735D01*
X187866Y238398D01*
X187491Y238961D01*
X186928Y239336D01*
X186265Y239468D01*
X186022Y239420D01*
X178221Y247221D01*
X177890Y247442D01*
X177500Y247520D01*
X146923D01*
X146603Y248292D01*
X146111Y248933D01*
X146266Y249433D01*
X178625D01*
X185315Y242743D01*
X185267Y242500D01*
X185399Y241837D01*
X185774Y241274D01*
X186337Y240899D01*
X187000Y240767D01*
X187663Y240899D01*
X188226Y241274D01*
X188601Y241837D01*
X188733Y242500D01*
X188601Y243163D01*
X188226Y243726D01*
X187663Y244101D01*
X187000Y244233D01*
X186757Y244185D01*
X179768Y251174D01*
X179437Y251395D01*
X179047Y251472D01*
X137453D01*
X137063Y251395D01*
X136732Y251174D01*
X135200Y249641D01*
X134427Y249961D01*
X133500Y250083D01*
X132573Y249961D01*
X131708Y249603D01*
X131067Y249111D01*
X130567Y249266D01*
Y252125D01*
X131800Y253359D01*
X132573Y253039D01*
X133500Y252917D01*
X134427Y253039D01*
X135292Y253397D01*
X136034Y253966D01*
X136603Y254708D01*
X136961Y255573D01*
X137083Y256500D01*
X136961Y257427D01*
X136603Y258292D01*
X136034Y259034D01*
X135292Y259603D01*
X134427Y259961D01*
X133500Y260083D01*
D02*
G37*
G36*
X343579Y254553D02*
X343151Y254497D01*
X342287Y254139D01*
X341545Y253569D01*
X340975Y252827D01*
X340617Y251963D01*
X340561Y251535D01*
X343579D01*
Y254553D01*
D02*
G37*
G36*
Y250535D02*
X340561D01*
X340617Y250108D01*
X340975Y249244D01*
X341545Y248502D01*
X342287Y247932D01*
X343151Y247574D01*
X343579Y247518D01*
Y250535D01*
D02*
G37*
G36*
X334079Y254619D02*
X333151Y254497D01*
X332287Y254139D01*
X331545Y253569D01*
X330975Y252827D01*
X330617Y251963D01*
X330495Y251035D01*
X330617Y250108D01*
X330975Y249244D01*
X331545Y248502D01*
X332287Y247932D01*
X333151Y247574D01*
X334079Y247452D01*
X335006Y247574D01*
X335870Y247932D01*
X336613Y248502D01*
X337182Y249244D01*
X337540Y250108D01*
X337662Y251035D01*
X337540Y251963D01*
X337182Y252827D01*
X336613Y253569D01*
X335870Y254139D01*
X335006Y254497D01*
X334079Y254619D01*
D02*
G37*
G36*
X324079D02*
X323151Y254497D01*
X322287Y254139D01*
X321545Y253569D01*
X320975Y252827D01*
X320617Y251963D01*
X320495Y251035D01*
X320617Y250108D01*
X320975Y249244D01*
X321545Y248502D01*
X322287Y247932D01*
X323151Y247574D01*
X324079Y247452D01*
X325006Y247574D01*
X325870Y247932D01*
X326613Y248502D01*
X327182Y249244D01*
X327540Y250108D01*
X327662Y251035D01*
X327540Y251963D01*
X327182Y252827D01*
X326613Y253569D01*
X325870Y254139D01*
X325006Y254497D01*
X324079Y254619D01*
D02*
G37*
G36*
X343579Y244553D02*
X343151Y244497D01*
X342287Y244139D01*
X341545Y243569D01*
X340975Y242827D01*
X340617Y241963D01*
X340561Y241535D01*
X343579D01*
Y244553D01*
D02*
G37*
G36*
Y240535D02*
X340561D01*
X340617Y240108D01*
X340975Y239244D01*
X341545Y238502D01*
X342287Y237932D01*
X343151Y237574D01*
X343579Y237518D01*
Y240535D01*
D02*
G37*
G36*
X334079Y244619D02*
X333151Y244497D01*
X332287Y244139D01*
X331545Y243569D01*
X330975Y242827D01*
X330617Y241963D01*
X330495Y241035D01*
X330617Y240108D01*
X330975Y239244D01*
X331545Y238502D01*
X332287Y237932D01*
X333151Y237574D01*
X334079Y237452D01*
X335006Y237574D01*
X335870Y237932D01*
X336613Y238502D01*
X337182Y239244D01*
X337540Y240108D01*
X337662Y241035D01*
X337540Y241963D01*
X337182Y242827D01*
X336613Y243569D01*
X335870Y244139D01*
X335006Y244497D01*
X334079Y244619D01*
D02*
G37*
G36*
X324079D02*
X323151Y244497D01*
X322287Y244139D01*
X321545Y243569D01*
X320975Y242827D01*
X320617Y241963D01*
X320495Y241035D01*
X320617Y240108D01*
X320975Y239244D01*
X321545Y238502D01*
X322287Y237932D01*
X323151Y237574D01*
X324079Y237452D01*
X325006Y237574D01*
X325870Y237932D01*
X326613Y238502D01*
X327182Y239244D01*
X327540Y240108D01*
X327662Y241035D01*
X327540Y241963D01*
X327182Y242827D01*
X326613Y243569D01*
X325870Y244139D01*
X325006Y244497D01*
X324079Y244619D01*
D02*
G37*
G36*
X265500Y243622D02*
X265071Y243536D01*
X264707Y243293D01*
X261707Y240293D01*
X261464Y239929D01*
X261378Y239500D01*
X261379Y239500D01*
Y233500D01*
X261464Y233071D01*
X261707Y232707D01*
X262071Y232464D01*
X262500Y232379D01*
X262929Y232464D01*
X263293Y232707D01*
X263536Y233071D01*
X263621Y233500D01*
Y239035D01*
X266293Y241707D01*
X266536Y242071D01*
X266622Y242500D01*
X266536Y242929D01*
X266293Y243293D01*
X265929Y243536D01*
X265500Y243622D01*
D02*
G37*
G36*
X343579Y234553D02*
X343151Y234497D01*
X342287Y234139D01*
X341545Y233569D01*
X340975Y232827D01*
X340617Y231963D01*
X340561Y231535D01*
X343579D01*
Y234553D01*
D02*
G37*
G36*
Y230535D02*
X340561D01*
X340617Y230108D01*
X340975Y229244D01*
X341545Y228502D01*
X342287Y227932D01*
X343151Y227574D01*
X343579Y227518D01*
Y230535D01*
D02*
G37*
G36*
X334079Y234619D02*
X333151Y234497D01*
X332287Y234139D01*
X331545Y233569D01*
X330975Y232827D01*
X330617Y231963D01*
X330495Y231035D01*
X330617Y230108D01*
X330975Y229244D01*
X331545Y228502D01*
X332287Y227932D01*
X333151Y227574D01*
X334079Y227452D01*
X335006Y227574D01*
X335870Y227932D01*
X336613Y228502D01*
X337182Y229244D01*
X337540Y230108D01*
X337662Y231035D01*
X337540Y231963D01*
X337182Y232827D01*
X336613Y233569D01*
X335870Y234139D01*
X335006Y234497D01*
X334079Y234619D01*
D02*
G37*
G36*
X324079D02*
X323151Y234497D01*
X322287Y234139D01*
X321545Y233569D01*
X320975Y232827D01*
X320617Y231963D01*
X320495Y231035D01*
X320617Y230108D01*
X320975Y229244D01*
X321545Y228502D01*
X322287Y227932D01*
X323151Y227574D01*
X324079Y227452D01*
X325006Y227574D01*
X325870Y227932D01*
X326613Y228502D01*
X327182Y229244D01*
X327540Y230108D01*
X327662Y231035D01*
X327540Y231963D01*
X327182Y232827D01*
X326613Y233569D01*
X325870Y234139D01*
X325006Y234497D01*
X324079Y234619D01*
D02*
G37*
G36*
X143500Y230083D02*
X142573Y229961D01*
X141708Y229603D01*
X140966Y229034D01*
X140397Y228292D01*
X140039Y227427D01*
X139917Y226500D01*
X140039Y225573D01*
X140397Y224708D01*
X140966Y223966D01*
X141708Y223397D01*
X142573Y223039D01*
X143500Y222917D01*
X144427Y223039D01*
X145292Y223397D01*
X146034Y223966D01*
X146603Y224708D01*
X146961Y225573D01*
X147083Y226500D01*
X146961Y227427D01*
X146603Y228292D01*
X146034Y229034D01*
X145292Y229603D01*
X144427Y229961D01*
X143500Y230083D01*
D02*
G37*
G36*
X133500D02*
X132573Y229961D01*
X131708Y229603D01*
X130966Y229034D01*
X130397Y228292D01*
X130039Y227427D01*
X129917Y226500D01*
X130039Y225573D01*
X130397Y224708D01*
X130966Y223966D01*
X131708Y223397D01*
X132573Y223039D01*
X133500Y222917D01*
X134427Y223039D01*
X135292Y223397D01*
X136034Y223966D01*
X136603Y224708D01*
X136961Y225573D01*
X137083Y226500D01*
X136961Y227427D01*
X136603Y228292D01*
X136034Y229034D01*
X135292Y229603D01*
X134427Y229961D01*
X133500Y230083D01*
D02*
G37*
G36*
X343579Y224553D02*
X343151Y224497D01*
X342287Y224139D01*
X341545Y223569D01*
X340975Y222827D01*
X340617Y221963D01*
X340561Y221535D01*
X343579D01*
Y224553D01*
D02*
G37*
G36*
X309500Y221121D02*
Y218500D01*
X312121D01*
X312078Y218825D01*
X311759Y219593D01*
X311253Y220253D01*
X310593Y220759D01*
X309825Y221078D01*
X309500Y221121D01*
D02*
G37*
G36*
X308500D02*
X308175Y221078D01*
X307407Y220759D01*
X306747Y220253D01*
X306241Y219593D01*
X305922Y218825D01*
X305879Y218500D01*
X308500D01*
Y221121D01*
D02*
G37*
G36*
X343579Y220535D02*
X340561D01*
X340617Y220108D01*
X340975Y219244D01*
X341545Y218502D01*
X342287Y217932D01*
X343151Y217574D01*
X343579Y217518D01*
Y220535D01*
D02*
G37*
G36*
X334079Y224619D02*
X333151Y224497D01*
X332287Y224139D01*
X331545Y223569D01*
X330975Y222827D01*
X330617Y221963D01*
X330495Y221035D01*
X330617Y220108D01*
X330975Y219244D01*
X331545Y218502D01*
X332287Y217932D01*
X333151Y217574D01*
X334079Y217452D01*
X335006Y217574D01*
X335870Y217932D01*
X336613Y218502D01*
X337182Y219244D01*
X337540Y220108D01*
X337662Y221035D01*
X337540Y221963D01*
X337182Y222827D01*
X336613Y223569D01*
X335870Y224139D01*
X335006Y224497D01*
X334079Y224619D01*
D02*
G37*
G36*
X324079D02*
X323151Y224497D01*
X322287Y224139D01*
X321545Y223569D01*
X320975Y222827D01*
X320617Y221963D01*
X320495Y221035D01*
X320617Y220108D01*
X320975Y219244D01*
X321545Y218502D01*
X322287Y217932D01*
X323151Y217574D01*
X324079Y217452D01*
X325006Y217574D01*
X325870Y217932D01*
X326613Y218502D01*
X327182Y219244D01*
X327540Y220108D01*
X327662Y221035D01*
X327540Y221963D01*
X327182Y222827D01*
X326613Y223569D01*
X325870Y224139D01*
X325006Y224497D01*
X324079Y224619D01*
D02*
G37*
G36*
X147053Y220053D02*
X144000D01*
Y217000D01*
X147053D01*
Y220053D01*
D02*
G37*
G36*
X143000D02*
X139947D01*
Y217000D01*
X143000D01*
Y220053D01*
D02*
G37*
G36*
X312121Y217500D02*
X309500D01*
Y214879D01*
X309825Y214922D01*
X310593Y215241D01*
X311253Y215747D01*
X311759Y216407D01*
X312078Y217175D01*
X312121Y217500D01*
D02*
G37*
G36*
X308500D02*
X305879D01*
X305922Y217175D01*
X306241Y216407D01*
X306747Y215747D01*
X307407Y215241D01*
X308175Y214922D01*
X308500Y214879D01*
Y217500D01*
D02*
G37*
G36*
X302316Y221159D02*
X295998D01*
Y214841D01*
X302316D01*
Y221159D01*
D02*
G37*
G36*
X147053Y216000D02*
X144000D01*
Y212947D01*
X147053D01*
Y216000D01*
D02*
G37*
G36*
X143000D02*
X139947D01*
Y212947D01*
X143000D01*
Y216000D01*
D02*
G37*
G36*
X133500Y220083D02*
X132573Y219961D01*
X131708Y219603D01*
X130966Y219034D01*
X130397Y218292D01*
X130039Y217427D01*
X129917Y216500D01*
X130039Y215573D01*
X130397Y214708D01*
X130966Y213966D01*
X131708Y213397D01*
X132573Y213039D01*
X133500Y212917D01*
X134427Y213039D01*
X135292Y213397D01*
X136034Y213966D01*
X136603Y214708D01*
X136961Y215573D01*
X137083Y216500D01*
X136961Y217427D01*
X136603Y218292D01*
X136034Y219034D01*
X135292Y219603D01*
X134427Y219961D01*
X133500Y220083D01*
D02*
G37*
G36*
X343579Y214553D02*
X343151Y214497D01*
X342287Y214139D01*
X341545Y213569D01*
X340975Y212827D01*
X340617Y211963D01*
X340561Y211535D01*
X343579D01*
Y214553D01*
D02*
G37*
G36*
Y210535D02*
X340561D01*
X340617Y210108D01*
X340975Y209244D01*
X341545Y208502D01*
X342287Y207932D01*
X343151Y207574D01*
X343579Y207518D01*
Y210535D01*
D02*
G37*
G36*
X334079Y214619D02*
X333151Y214497D01*
X332287Y214139D01*
X331545Y213569D01*
X330975Y212827D01*
X330617Y211963D01*
X330495Y211035D01*
X330617Y210108D01*
X330975Y209244D01*
X331545Y208502D01*
X332287Y207932D01*
X333151Y207574D01*
X334079Y207452D01*
X335006Y207574D01*
X335870Y207932D01*
X336613Y208502D01*
X337182Y209244D01*
X337540Y210108D01*
X337662Y211035D01*
X337540Y211963D01*
X337182Y212827D01*
X336613Y213569D01*
X335870Y214139D01*
X335006Y214497D01*
X334079Y214619D01*
D02*
G37*
G36*
X324079D02*
X323151Y214497D01*
X322287Y214139D01*
X321545Y213569D01*
X320975Y212827D01*
X320617Y211963D01*
X320495Y211035D01*
X320617Y210108D01*
X320975Y209244D01*
X321545Y208502D01*
X322287Y207932D01*
X323151Y207574D01*
X324079Y207452D01*
X325006Y207574D01*
X325870Y207932D01*
X326613Y208502D01*
X327182Y209244D01*
X327540Y210108D01*
X327662Y211035D01*
X327540Y211963D01*
X327182Y212827D01*
X326613Y213569D01*
X325870Y214139D01*
X325006Y214497D01*
X324079Y214619D01*
D02*
G37*
G36*
X343579Y204553D02*
X343151Y204497D01*
X342287Y204139D01*
X341545Y203569D01*
X340975Y202827D01*
X340617Y201963D01*
X340561Y201535D01*
X343579D01*
Y204553D01*
D02*
G37*
G36*
Y200535D02*
X340561D01*
X340617Y200108D01*
X340975Y199244D01*
X341545Y198502D01*
X342287Y197932D01*
X343151Y197574D01*
X343579Y197518D01*
Y200535D01*
D02*
G37*
G36*
X334079Y204619D02*
X333151Y204497D01*
X332287Y204139D01*
X331545Y203569D01*
X330975Y202827D01*
X330617Y201963D01*
X330495Y201035D01*
X330617Y200108D01*
X330975Y199244D01*
X331545Y198502D01*
X332287Y197932D01*
X333151Y197574D01*
X334079Y197452D01*
X335006Y197574D01*
X335870Y197932D01*
X336613Y198502D01*
X337182Y199244D01*
X337540Y200108D01*
X337662Y201035D01*
X337540Y201963D01*
X337182Y202827D01*
X336613Y203569D01*
X335870Y204139D01*
X335006Y204497D01*
X334079Y204619D01*
D02*
G37*
G36*
X324079D02*
X323151Y204497D01*
X322287Y204139D01*
X321545Y203569D01*
X320975Y202827D01*
X320617Y201963D01*
X320495Y201035D01*
X320617Y200108D01*
X320975Y199244D01*
X321545Y198502D01*
X322287Y197932D01*
X323151Y197574D01*
X324079Y197452D01*
X325006Y197574D01*
X325870Y197932D01*
X326613Y198502D01*
X327182Y199244D01*
X327540Y200108D01*
X327662Y201035D01*
X327540Y201963D01*
X327182Y202827D01*
X326613Y203569D01*
X325870Y204139D01*
X325006Y204497D01*
X324079Y204619D01*
D02*
G37*
G36*
X264317Y215474D02*
X246500D01*
Y195000D01*
X264317D01*
Y215474D01*
D02*
G37*
G36*
X245500D02*
X227683D01*
Y195000D01*
X245500D01*
Y215474D01*
D02*
G37*
G36*
X169000Y220631D02*
X168376Y220507D01*
X167847Y220153D01*
X167493Y219624D01*
X167369Y219000D01*
Y199676D01*
X164847Y197153D01*
X164493Y196624D01*
X164369Y196000D01*
X164493Y195376D01*
X164847Y194846D01*
X165376Y194493D01*
X166000Y194369D01*
X166624Y194493D01*
X167154Y194846D01*
X170153Y197846D01*
X170507Y198376D01*
X170631Y199000D01*
Y219000D01*
X170507Y219624D01*
X170153Y220153D01*
X169624Y220507D01*
X169000Y220631D01*
D02*
G37*
G36*
X309500Y195121D02*
Y192500D01*
X312121D01*
X312078Y192825D01*
X311759Y193593D01*
X311253Y194253D01*
X310593Y194759D01*
X309825Y195078D01*
X309500Y195121D01*
D02*
G37*
G36*
X308500D02*
X308175Y195078D01*
X307407Y194759D01*
X306747Y194253D01*
X306241Y193593D01*
X305922Y192825D01*
X305879Y192500D01*
X308500D01*
Y195121D01*
D02*
G37*
G36*
X343579Y194553D02*
X343151Y194497D01*
X342287Y194139D01*
X341545Y193569D01*
X340975Y192827D01*
X340617Y191963D01*
X340561Y191535D01*
X343579D01*
Y194553D01*
D02*
G37*
G36*
X312121Y191500D02*
X309500D01*
Y188880D01*
X309825Y188922D01*
X310593Y189241D01*
X311253Y189747D01*
X311759Y190407D01*
X312078Y191175D01*
X312121Y191500D01*
D02*
G37*
G36*
X308500D02*
X305879D01*
X305922Y191175D01*
X306241Y190407D01*
X306747Y189747D01*
X307407Y189241D01*
X308175Y188922D01*
X308500Y188880D01*
Y191500D01*
D02*
G37*
G36*
X284500Y214733D02*
X283837Y214601D01*
X283274Y214226D01*
X282899Y213663D01*
X282767Y213000D01*
X282777Y212947D01*
X282754Y212832D01*
Y206970D01*
X276896D01*
Y206131D01*
X274500D01*
X273876Y206007D01*
X273346Y205654D01*
X269346Y201654D01*
X268993Y201124D01*
X268869Y200500D01*
Y161500D01*
X268993Y160876D01*
X269346Y160346D01*
X270847Y158846D01*
X271376Y158493D01*
X272000Y158369D01*
X275896D01*
Y157530D01*
X290876D01*
Y158369D01*
X329346D01*
X329347Y158364D01*
X329725Y157451D01*
X330326Y156668D01*
X331109Y156067D01*
X332021Y155689D01*
X333000Y155561D01*
X333979Y155689D01*
X334891Y156067D01*
X335674Y156668D01*
X336275Y157451D01*
X336653Y158364D01*
X336782Y159343D01*
X336653Y160321D01*
X336275Y161233D01*
X335674Y162017D01*
X334891Y162618D01*
X333979Y162996D01*
X333000Y163125D01*
X332021Y162996D01*
X331109Y162618D01*
X330326Y162017D01*
X329957Y161536D01*
X329479Y161631D01*
X292997D01*
X292806Y162093D01*
X295043Y164330D01*
X295680D01*
X296000Y164267D01*
X296663Y164399D01*
X297226Y164774D01*
X297601Y165337D01*
X297733Y166000D01*
X297601Y166663D01*
X297226Y167226D01*
X296663Y167601D01*
X296000Y167733D01*
X295337Y167601D01*
X295324Y167593D01*
X294367D01*
X293743Y167469D01*
X293214Y167115D01*
X288568Y162470D01*
X275896D01*
Y161631D01*
X272676D01*
X272131Y162176D01*
Y199824D01*
X275176Y202869D01*
X276896D01*
Y202030D01*
X289568D01*
X295967Y195631D01*
Y193559D01*
X295998Y193401D01*
Y188841D01*
X302316D01*
Y195159D01*
X299230D01*
Y196307D01*
X299106Y196931D01*
X298752Y197461D01*
X291876Y204337D01*
Y206970D01*
X286017D01*
Y212211D01*
X286101Y212337D01*
X286233Y213000D01*
X286101Y213663D01*
X285726Y214226D01*
X285163Y214601D01*
X284500Y214733D01*
D02*
G37*
G36*
X343579Y190535D02*
X340561D01*
X340617Y190108D01*
X340975Y189244D01*
X341545Y188502D01*
X342287Y187932D01*
X343151Y187574D01*
X343579Y187518D01*
Y190535D01*
D02*
G37*
G36*
X334079Y194619D02*
X333151Y194497D01*
X332287Y194139D01*
X331545Y193569D01*
X330975Y192827D01*
X330617Y191963D01*
X330495Y191035D01*
X330617Y190108D01*
X330975Y189244D01*
X331545Y188502D01*
X332287Y187932D01*
X333151Y187574D01*
X334079Y187452D01*
X335006Y187574D01*
X335870Y187932D01*
X336613Y188502D01*
X337182Y189244D01*
X337540Y190108D01*
X337662Y191035D01*
X337540Y191963D01*
X337182Y192827D01*
X336613Y193569D01*
X335870Y194139D01*
X335006Y194497D01*
X334079Y194619D01*
D02*
G37*
G36*
X324079D02*
X323151Y194497D01*
X322287Y194139D01*
X321545Y193569D01*
X320975Y192827D01*
X320617Y191963D01*
X320495Y191035D01*
X320617Y190108D01*
X320975Y189244D01*
X321545Y188502D01*
X322287Y187932D01*
X323151Y187574D01*
X324079Y187452D01*
X325006Y187574D01*
X325870Y187932D01*
X326613Y188502D01*
X327182Y189244D01*
X327540Y190108D01*
X327662Y191035D01*
X327540Y191963D01*
X327182Y192827D01*
X326613Y193569D01*
X325870Y194139D01*
X325006Y194497D01*
X324079Y194619D01*
D02*
G37*
G36*
X288500Y195233D02*
X287837Y195101D01*
X287274Y194726D01*
X286984Y194291D01*
X283232Y190539D01*
X282879Y190010D01*
X282754Y189386D01*
Y186970D01*
X276896D01*
Y182030D01*
X291876D01*
Y186970D01*
X286017D01*
Y188710D01*
X289291Y191984D01*
X289726Y192274D01*
X290101Y192837D01*
X290233Y193500D01*
X290101Y194163D01*
X289726Y194726D01*
X289163Y195101D01*
X288500Y195233D01*
D02*
G37*
G36*
X190500Y186122D02*
X190071Y186036D01*
X189707Y185793D01*
X188035Y184122D01*
X181500D01*
X181071Y184036D01*
X180707Y183793D01*
X180464Y183429D01*
X180378Y183000D01*
X180464Y182571D01*
X180707Y182207D01*
X181071Y181964D01*
X181500Y181878D01*
X188500D01*
X188500Y181878D01*
X188929Y181964D01*
X189293Y182207D01*
X191293Y184207D01*
X191536Y184571D01*
X191622Y185000D01*
X191536Y185429D01*
X191293Y185793D01*
X190929Y186036D01*
X190500Y186122D01*
D02*
G37*
G36*
X343579Y184588D02*
X340526D01*
Y181535D01*
X343579D01*
Y184588D01*
D02*
G37*
G36*
Y180535D02*
X340526D01*
Y177483D01*
X343579D01*
Y180535D01*
D02*
G37*
G36*
X337632Y184588D02*
X330526D01*
Y177483D01*
X337632D01*
Y184588D01*
D02*
G37*
G36*
X327631D02*
X320526D01*
Y177483D01*
X327631D01*
Y184588D01*
D02*
G37*
G36*
X264317Y194000D02*
X246500D01*
Y173526D01*
X264317D01*
Y194000D01*
D02*
G37*
G36*
X245500D02*
X227683D01*
Y173526D01*
X245500D01*
Y194000D01*
D02*
G37*
G36*
X153500Y175131D02*
X140500D01*
X139876Y175007D01*
X139347Y174653D01*
X138993Y174124D01*
X138869Y173500D01*
X138993Y172876D01*
X139347Y172346D01*
X139876Y171993D01*
X140500Y171869D01*
X152824D01*
X155847Y168846D01*
X156376Y168493D01*
X157000Y168369D01*
X157624Y168493D01*
X158153Y168846D01*
X158507Y169376D01*
X158631Y170000D01*
X158507Y170624D01*
X158153Y171153D01*
X154654Y174653D01*
X154124Y175007D01*
X153500Y175131D01*
D02*
G37*
G36*
X263316Y170974D02*
X245500D01*
Y150500D01*
X263316D01*
Y170974D01*
D02*
G37*
G36*
X244500D02*
X226683D01*
Y150500D01*
X244500D01*
Y170974D01*
D02*
G37*
G36*
X336750Y143407D02*
X333500D01*
Y140157D01*
X336750D01*
Y143407D01*
D02*
G37*
G36*
X332500D02*
X329250D01*
Y140157D01*
X332500D01*
Y143407D01*
D02*
G37*
G36*
X336750Y139157D02*
X333500D01*
Y135908D01*
X336750D01*
Y139157D01*
D02*
G37*
G36*
X332500D02*
X329250D01*
Y135908D01*
X332500D01*
Y139157D01*
D02*
G37*
G36*
X244500Y149500D02*
X226683D01*
Y129026D01*
X244500D01*
Y149500D01*
D02*
G37*
G36*
X188500Y119018D02*
Y116000D01*
X191518D01*
X191461Y116427D01*
X191103Y117292D01*
X190534Y118034D01*
X189792Y118603D01*
X188927Y118961D01*
X188500Y119018D01*
D02*
G37*
G36*
X187500D02*
X187073Y118961D01*
X186208Y118603D01*
X185466Y118034D01*
X184897Y117292D01*
X184539Y116427D01*
X184482Y116000D01*
X187500D01*
Y119018D01*
D02*
G37*
G36*
X337500Y124597D02*
X336180Y124493D01*
X334404Y124066D01*
X332717Y123368D01*
X331161Y122414D01*
X329772Y121228D01*
X328586Y119839D01*
X327632Y118283D01*
X326934Y116596D01*
X326507Y114820D01*
X326403Y113500D01*
X337500D01*
Y124597D01*
D02*
G37*
G36*
X137000D02*
Y113500D01*
X148097D01*
X147993Y114820D01*
X147566Y116596D01*
X146868Y118283D01*
X145914Y119839D01*
X144728Y121228D01*
X143339Y122414D01*
X141783Y123368D01*
X140096Y124066D01*
X138320Y124493D01*
X137000Y124597D01*
D02*
G37*
G36*
X134500Y182733D02*
X133837Y182601D01*
X133274Y182226D01*
X132899Y181663D01*
X132767Y181000D01*
X132869Y180488D01*
Y138500D01*
X132993Y137876D01*
X133346Y137346D01*
X148846Y121846D01*
X149376Y121493D01*
X149566Y121455D01*
X149869Y121153D01*
Y110500D01*
X149993Y109876D01*
X150347Y109346D01*
X152847Y106846D01*
X153376Y106493D01*
X154000Y106369D01*
X243353D01*
X243978Y106493D01*
X244507Y106846D01*
X274153Y136493D01*
X274507Y137022D01*
X274602Y137499D01*
X281754D01*
Y125614D01*
X281879Y124990D01*
X282232Y124461D01*
X293484Y113209D01*
X293774Y112774D01*
X294337Y112399D01*
X295000Y112267D01*
X295663Y112399D01*
X296226Y112774D01*
X296601Y113337D01*
X296733Y114000D01*
X296601Y114663D01*
X296226Y115226D01*
X295791Y115516D01*
X285017Y126290D01*
Y137530D01*
X290876D01*
Y138369D01*
X294000D01*
X294624Y138493D01*
X295153Y138847D01*
X297791Y141484D01*
X298226Y141774D01*
X298601Y142337D01*
X298733Y143000D01*
X298601Y143663D01*
X298226Y144226D01*
X297663Y144601D01*
X297000Y144733D01*
X296337Y144601D01*
X295774Y144226D01*
X295484Y143791D01*
X293324Y141631D01*
X290876D01*
Y142470D01*
X275896D01*
Y140761D01*
X273801D01*
X273177Y140637D01*
X272648Y140284D01*
X271847Y139482D01*
X271493Y138953D01*
X271369Y138328D01*
Y138322D01*
X263778Y130732D01*
X263316Y130924D01*
Y149500D01*
X245500D01*
Y129026D01*
X261419D01*
X261610Y128564D01*
X242678Y109631D01*
X154676D01*
X153131Y111176D01*
Y121828D01*
X153007Y122453D01*
X152654Y122982D01*
X151482Y124153D01*
X150953Y124507D01*
X150762Y124545D01*
X136131Y139176D01*
Y180488D01*
X136233Y181000D01*
X136101Y181663D01*
X135726Y182226D01*
X135163Y182601D01*
X134500Y182733D01*
D02*
G37*
G36*
X191518Y115000D02*
X188500D01*
Y111982D01*
X188927Y112039D01*
X189792Y112397D01*
X190534Y112966D01*
X191103Y113708D01*
X191461Y114573D01*
X191518Y115000D01*
D02*
G37*
G36*
X187500D02*
X184482D01*
X184539Y114573D01*
X184897Y113708D01*
X185466Y112966D01*
X186208Y112397D01*
X187073Y112039D01*
X187500Y111982D01*
Y115000D01*
D02*
G37*
%LPD*%
G36*
X283302Y324563D02*
X283039Y323927D01*
X282917Y323000D01*
X283039Y322073D01*
X283359Y321300D01*
X272406Y310348D01*
X267944D01*
X267554Y310270D01*
X267223Y310049D01*
X255301Y298127D01*
X255058Y298175D01*
X254395Y298043D01*
X253832Y297668D01*
X253823Y297653D01*
X253323Y297805D01*
Y305197D01*
X253245Y305587D01*
X253024Y305918D01*
X249519Y309422D01*
Y311000D01*
X249442Y311390D01*
X249221Y311721D01*
X248185Y312757D01*
X248233Y313000D01*
X248101Y313663D01*
X247823Y314080D01*
X248026Y314580D01*
X264690D01*
X265080Y314658D01*
X265411Y314879D01*
X272577Y322045D01*
X273119Y321880D01*
X273397Y321208D01*
X273966Y320466D01*
X274708Y319897D01*
X275573Y319539D01*
X276500Y319417D01*
X277427Y319539D01*
X278292Y319897D01*
X279034Y320466D01*
X279603Y321208D01*
X279961Y322073D01*
X280078Y322957D01*
X280567D01*
X280957Y323035D01*
X281288Y323256D01*
X282878Y324846D01*
X283302Y324563D01*
D02*
G37*
G36*
X177128Y171607D02*
X177791Y171475D01*
X178454Y171607D01*
X178603Y171706D01*
X179134Y171602D01*
X179467Y171103D01*
Y161307D01*
X179545Y160916D01*
X179766Y160586D01*
X187621Y152730D01*
Y145583D01*
X187121Y145328D01*
X186541Y145444D01*
X186298Y145396D01*
X175520Y156174D01*
Y166637D01*
X175726Y166774D01*
X176101Y167337D01*
X176233Y168000D01*
X176101Y168663D01*
X175726Y169226D01*
X175234Y169554D01*
X175060Y170088D01*
X176799Y171827D01*
X177128Y171607D01*
D02*
G37*
G36*
X157605Y269226D02*
X157556Y268983D01*
X157672Y268403D01*
X157417Y267903D01*
X154270D01*
X146856Y275318D01*
X146961Y275573D01*
X147083Y276500D01*
X146961Y277427D01*
X146603Y278292D01*
X146111Y278933D01*
X146266Y279433D01*
X147398D01*
X157605Y269226D01*
D02*
G37*
G36*
X140889Y248933D02*
X140397Y248292D01*
X140039Y247427D01*
X139917Y246500D01*
X140039Y245573D01*
X140397Y244708D01*
X140966Y243966D01*
X141708Y243397D01*
X142573Y243039D01*
X143500Y242917D01*
X144427Y243039D01*
X145292Y243397D01*
X146034Y243966D01*
X146603Y244708D01*
X146923Y245480D01*
X177078D01*
X184580Y237978D01*
X184532Y237735D01*
X184647Y237155D01*
X184393Y236654D01*
X165259D01*
X160740Y241174D01*
X160409Y241395D01*
X160019Y241472D01*
X134379D01*
X133382Y242470D01*
X133626Y242933D01*
X134427Y243039D01*
X135292Y243397D01*
X136034Y243966D01*
X136603Y244708D01*
X136961Y245573D01*
X137083Y246500D01*
X136961Y247427D01*
X136642Y248200D01*
X137875Y249433D01*
X140734D01*
X140889Y248933D01*
D02*
G37*
G36*
X163313Y235716D02*
X163122Y235255D01*
X147530D01*
X146991Y235794D01*
X147083Y236500D01*
X146961Y237427D01*
X146603Y238292D01*
X146111Y238933D01*
X146266Y239433D01*
X159596D01*
X163313Y235716D01*
D02*
G37*
%LPC*%
G36*
X177000Y243631D02*
X170500D01*
X169876Y243507D01*
X169346Y243154D01*
X168993Y242624D01*
X168869Y242000D01*
X168993Y241376D01*
X169346Y240846D01*
X169876Y240493D01*
X170500Y240369D01*
X177000D01*
X177624Y240493D01*
X178154Y240846D01*
X178507Y241376D01*
X178631Y242000D01*
X178507Y242624D01*
X178154Y243154D01*
X177624Y243507D01*
X177000Y243631D01*
D02*
G37*
%LPD*%
D99*
X325114Y340000D02*
X334079Y331035D01*
X311500Y340000D02*
X325114D01*
X283022Y311522D02*
X311500Y340000D01*
X284386Y204500D02*
X289405D01*
X297598Y196307D01*
Y193559D02*
Y196307D01*
Y193559D02*
X299158Y192000D01*
X288405Y160000D02*
X329479D01*
X140500Y173500D02*
X153500D01*
X157000Y170000D01*
X271400Y289651D02*
X283229D01*
X154000Y108000D02*
X243353D01*
X150000Y123000D02*
X150328D01*
X151500Y121828D01*
Y110500D02*
Y121828D01*
Y110500D02*
X154000Y108000D01*
X134500Y138500D02*
X150000Y123000D01*
X134500Y138500D02*
Y181000D01*
X283386Y125614D02*
Y140000D01*
X179090Y313981D02*
X179360D01*
X232456D01*
X170500Y242000D02*
X177000D01*
X169000Y199000D02*
Y219000D01*
X166000Y196000D02*
X169000Y199000D01*
X242069Y323594D02*
X246920D01*
X232456Y313981D02*
X242069Y323594D01*
X249500Y318000D02*
X261500D01*
X266500Y323000D01*
X273000Y138328D02*
X273801Y139130D01*
X282516D01*
X283386Y140000D01*
X273000Y137647D02*
Y138328D01*
X243353Y108000D02*
X273000Y137647D01*
X283229Y289651D02*
X294061Y300483D01*
X283022Y311522D02*
X294061Y300483D01*
X284386Y189386D02*
X288500Y193500D01*
X284386Y184500D02*
Y189386D01*
X284500Y212946D02*
Y213000D01*
X284386Y212832D02*
X284500Y212946D01*
X284386Y204500D02*
Y212832D01*
X274500Y204500D02*
X284386D01*
X270500Y200500D02*
X274500Y204500D01*
X270500Y161500D02*
Y200500D01*
X272000Y160000D02*
X283386D01*
X270500Y161500D02*
X272000Y160000D01*
X283386D02*
X288405D01*
X294367Y165962D01*
X295962D01*
X296000Y166000D01*
X283386Y140000D02*
X294000D01*
X297000Y143000D01*
X283386Y125614D02*
X295000Y114000D01*
D100*
X262500Y239500D02*
X265500Y242500D01*
X262500Y233500D02*
Y239500D01*
X181500Y183000D02*
X188500D01*
X190500Y185000D01*
D101*
X229975Y297025D02*
X241100Y285900D01*
Y241100D02*
Y285900D01*
X243941Y239841D02*
Y259444D01*
X241100Y237000D02*
X243941Y239841D01*
X239000Y239000D02*
X241100Y241100D01*
X264574Y258574D02*
X275500Y269500D01*
X246041Y258574D02*
X264574D01*
X259250Y295000D02*
X259500D01*
X271000Y283500D02*
X282500D01*
X259500Y295000D02*
X271000Y283500D01*
X255058Y296222D02*
X274280Y277000D01*
X255058Y296222D02*
Y296442D01*
X274280Y277000D02*
X278000D01*
X266453Y339453D02*
X270500Y343500D01*
Y349000D01*
X280453Y343453D02*
X280500Y343500D01*
Y349512D01*
X272547Y324637D02*
X280453Y332543D01*
Y343453D01*
X300500Y343910D02*
Y349000D01*
X280567Y323977D02*
X300500Y343910D01*
X277477Y323977D02*
X280567D01*
X276500Y323000D02*
X277477Y323977D01*
X179500Y294500D02*
X214500Y259500D01*
X179500Y294500D02*
Y309000D01*
X152874Y154148D02*
X163762D01*
X174500Y155751D02*
Y168000D01*
X171303Y153238D02*
Y167773D01*
X176470Y172940D01*
X174500Y155751D02*
X186541Y143710D01*
X168000Y149934D02*
X171303Y153238D01*
X176470Y172940D02*
X177523D01*
X177791Y173208D01*
X180487Y161307D02*
Y172017D01*
X188641Y142841D02*
Y153153D01*
X180487Y161307D02*
X188641Y153153D01*
X197522Y146978D02*
X211031D01*
X182500Y162000D02*
X197522Y146978D01*
X182500Y162000D02*
Y169913D01*
X225500Y268500D02*
Y297500D01*
X251000Y323000D02*
Y337320D01*
X225500Y297500D02*
X251000Y323000D01*
Y337320D02*
X253133Y339453D01*
X245580Y315600D02*
X264690D01*
X226900Y272100D02*
Y296920D01*
X245580Y315600D01*
X248500Y309000D02*
Y311000D01*
X252303Y282423D02*
Y305197D01*
X248500Y309000D02*
X252303Y305197D01*
X246500Y313000D02*
X248500Y311000D01*
X264690Y315600D02*
X272547Y323457D01*
Y324637D01*
X226900Y272100D02*
X230000Y269000D01*
X225500Y268500D02*
X230000Y264000D01*
X253133Y339453D02*
X266453D01*
X272828Y309328D02*
X286500Y323000D01*
X267944Y309328D02*
X272828D01*
X255058Y296442D02*
X267944Y309328D01*
X252303Y282423D02*
X254737Y279989D01*
X178000Y116500D02*
Y125326D01*
X171400Y131926D02*
Y139370D01*
X173135Y141105D01*
X186905D01*
X180487Y172017D02*
X180735Y172265D01*
X171400Y131926D02*
X178000Y125326D01*
X186905Y141105D02*
X188641Y142841D01*
X168000Y116500D02*
Y149934D01*
X253500Y261000D02*
Y261262D01*
X251000Y268000D02*
X254000Y265000D01*
X264988Y272750D02*
Y273012D01*
X251000Y268000D02*
Y276000D01*
X246600Y262103D02*
Y301021D01*
X253500Y261262D02*
X264988Y272750D01*
X144231Y276500D02*
X153848Y266883D01*
X172383D01*
X179000Y273500D01*
X143500Y276500D02*
X144231D01*
X148299Y270453D02*
X154751Y264000D01*
X150500Y286500D02*
X163000Y274000D01*
X147820Y280453D02*
X159290Y268983D01*
X139547Y270453D02*
X148299D01*
X139547Y280453D02*
X147820D01*
X143500Y286500D02*
X150500D01*
X154751Y264000D02*
X162500D01*
X239000Y248000D02*
Y252163D01*
X243941Y259444D02*
X246600Y262103D01*
X244454Y303167D02*
X246600Y301021D01*
X129547Y244863D02*
X133957Y240453D01*
X144843Y236500D02*
X147108Y234235D01*
X129547Y244863D02*
Y252547D01*
X133500Y256500D01*
X160500D02*
X163000Y254000D01*
X214500Y242500D02*
Y259500D01*
X216970Y204000D02*
X223500Y210530D01*
Y232500D01*
X143500Y236500D02*
X144843D01*
X133957Y240453D02*
X160019D01*
X150500Y259500D02*
X159500D01*
X143500Y256500D02*
X160500D01*
X133500Y286500D02*
X139547Y280453D01*
X164836Y235635D02*
X191277D01*
X208000Y204000D02*
X216970D01*
X133500Y246500D02*
X137453Y250453D01*
X133500Y276500D02*
X139547Y270453D01*
X177500Y246500D02*
X186265Y237735D01*
X179047Y250453D02*
X187000Y242500D01*
X198735Y234235D02*
X207000Y242500D01*
X202000Y230000D02*
X214500Y242500D01*
X143500Y266500D02*
X150500Y259500D01*
X160019Y240453D02*
X164836Y235635D01*
X191277D02*
X199500Y243858D01*
X223500Y232500D02*
X239000Y248000D01*
X147108Y234235D02*
X198735D01*
X143500Y246500D02*
X177500D01*
X137453Y250453D02*
X179047D01*
X208000Y168750D02*
Y204000D01*
X202000Y179000D02*
Y230000D01*
X182500Y169913D02*
X182587Y170000D01*
X202000Y163500D02*
X205000Y160500D01*
X202000Y163500D02*
Y179000D01*
X214000Y127500D02*
Y162750D01*
X150130Y156893D02*
X152874Y154148D01*
X208000Y168750D02*
X214000Y162750D01*
D102*
X147000Y137500D02*
X158000Y126500D01*
X147000Y137500D02*
Y160172D01*
X158000Y116500D02*
Y126500D01*
X179360Y313981D02*
X183500Y309841D01*
X164000Y134000D02*
Y149529D01*
X163630Y150606D02*
X163750Y150727D01*
X173500Y138500D02*
X184000D01*
X191000Y208835D02*
Y225500D01*
X218500Y230973D02*
Y263500D01*
X183500Y298500D02*
Y309841D01*
Y298500D02*
X218500Y263500D01*
X165405Y183240D02*
X191000Y208835D01*
X147703Y160875D02*
X151296D01*
X163750Y150727D02*
X166530D01*
X169224Y153421D02*
Y158421D01*
X147000Y160172D02*
X147703Y160875D01*
X165405Y162240D02*
Y183240D01*
Y162240D02*
X169224Y158421D01*
X166530Y150727D02*
X169224Y153421D01*
D103*
X309000Y192000D02*
D03*
Y218000D02*
D03*
D104*
X299158Y192000D02*
D03*
Y218000D02*
D03*
D105*
X300500Y349000D02*
D03*
X290500D02*
D03*
X280500D02*
D03*
X270500D02*
D03*
X260500D02*
D03*
X344079Y331035D02*
D03*
Y321035D02*
D03*
Y311035D02*
D03*
Y301035D02*
D03*
Y291035D02*
D03*
Y281035D02*
D03*
Y271035D02*
D03*
Y261035D02*
D03*
Y251035D02*
D03*
Y241035D02*
D03*
Y231035D02*
D03*
Y221035D02*
D03*
Y211035D02*
D03*
Y201035D02*
D03*
Y191035D02*
D03*
X334079Y331035D02*
D03*
Y321035D02*
D03*
Y311035D02*
D03*
Y301035D02*
D03*
Y291035D02*
D03*
Y281035D02*
D03*
Y271035D02*
D03*
Y261035D02*
D03*
Y251035D02*
D03*
Y241035D02*
D03*
Y231035D02*
D03*
Y221035D02*
D03*
Y211035D02*
D03*
Y201035D02*
D03*
Y191035D02*
D03*
X324079Y331035D02*
D03*
Y321035D02*
D03*
Y311035D02*
D03*
Y301035D02*
D03*
Y291035D02*
D03*
Y281035D02*
D03*
Y271035D02*
D03*
Y261035D02*
D03*
Y251035D02*
D03*
Y241035D02*
D03*
Y231035D02*
D03*
Y221035D02*
D03*
Y211035D02*
D03*
Y201035D02*
D03*
Y191035D02*
D03*
X266500Y335500D02*
D03*
X276500D02*
D03*
X286500D02*
D03*
X133500Y216500D02*
D03*
X143500Y226500D02*
D03*
X133500D02*
D03*
X143500Y236500D02*
D03*
X133500D02*
D03*
X143500Y246500D02*
D03*
X133500D02*
D03*
X143500Y256500D02*
D03*
X133500D02*
D03*
X143500Y266500D02*
D03*
X133500D02*
D03*
X143500Y276500D02*
D03*
X133500D02*
D03*
X143500Y286500D02*
D03*
X133500D02*
D03*
X143500Y296500D02*
D03*
X133500D02*
D03*
X143500Y306500D02*
D03*
X133500D02*
D03*
X143500Y316500D02*
D03*
X133500D02*
D03*
X143500Y326500D02*
D03*
X133500D02*
D03*
X143500Y336500D02*
D03*
X133500D02*
D03*
X188000Y115500D02*
D03*
X178000D02*
D03*
X168000D02*
D03*
X286500Y323000D02*
D03*
X276500D02*
D03*
X266500D02*
D03*
D106*
X250500Y349000D02*
D03*
X256500Y335500D02*
D03*
X158000Y115500D02*
D03*
X256500Y323000D02*
D03*
D107*
X344079Y181035D02*
D03*
X334079D02*
D03*
X324079D02*
D03*
X143500Y216500D02*
D03*
D108*
X333000Y159343D02*
D03*
D109*
Y139657D02*
D03*
D110*
X338000Y113000D02*
D03*
Y353000D02*
D03*
X136500D02*
D03*
Y113000D02*
D03*
D111*
X262500Y233500D02*
D03*
X265500Y242500D02*
D03*
X277500Y272500D02*
D03*
X275500Y269500D02*
D03*
X179500Y309000D02*
D03*
X163000Y254000D02*
D03*
X159500Y259500D02*
D03*
X246500Y313000D02*
D03*
X246041Y258574D02*
D03*
X187000Y242500D02*
D03*
X207000D02*
D03*
X230000Y264000D02*
D03*
X199500Y243858D02*
D03*
X239000Y252163D02*
D03*
X186265Y237735D02*
D03*
X159290Y268983D02*
D03*
X179090Y313981D02*
D03*
X244454Y303167D02*
D03*
X253500Y261000D02*
D03*
X177000Y242000D02*
D03*
X179000Y273500D02*
D03*
X229975Y297025D02*
D03*
X163000Y274000D02*
D03*
X230000Y269000D02*
D03*
X162500Y264000D02*
D03*
X207000Y306500D02*
D03*
X259250Y295000D02*
D03*
X255058Y296442D02*
D03*
X271400Y289651D02*
D03*
X278000Y277000D02*
D03*
X177791Y173208D02*
D03*
X174500Y168000D02*
D03*
X163762Y154148D02*
D03*
X182587Y170000D02*
D03*
X163630Y150606D02*
D03*
X180735Y172265D02*
D03*
X170500Y242000D02*
D03*
X166000Y196000D02*
D03*
X169000Y219000D02*
D03*
X157000Y170000D02*
D03*
X140500Y173500D02*
D03*
X190500Y185000D02*
D03*
X181500Y183000D02*
D03*
X246920Y323594D02*
D03*
X249500Y318000D02*
D03*
X134500Y181000D02*
D03*
X283022Y311522D02*
D03*
X164000Y134000D02*
D03*
X282500Y283500D02*
D03*
X284500Y213000D02*
D03*
X288500Y193500D02*
D03*
X296000Y166000D02*
D03*
X297000Y143000D02*
D03*
X295000Y114000D02*
D03*
X251000Y276000D02*
D03*
X254000Y265000D02*
D03*
X254737Y279989D02*
D03*
X264988Y273012D02*
D03*
X239000Y239000D02*
D03*
X218500Y230973D02*
D03*
X191000Y225500D02*
D03*
X208000Y204000D02*
D03*
X241100Y237000D02*
D03*
X202000Y179000D02*
D03*
X165405Y183240D02*
D03*
X150130Y156893D02*
D03*
X173500Y138500D02*
D03*
X211031Y146978D02*
D03*
X186541Y143710D02*
D03*
X205000Y160500D02*
D03*
X214000Y127500D02*
D03*
X184000Y138500D02*
D03*
X151296Y160875D02*
D03*
D112*
X283386Y160000D02*
D03*
Y140000D02*
D03*
X284386Y204500D02*
D03*
Y184500D02*
D03*
D113*
X245000Y150000D02*
D03*
X246000Y194500D02*
D03*
M02*
