G04*
G04 #@! TF.GenerationSoftware,Altium Limited,Altium Designer,20.1.12 (249)*
G04*
G04 Layer_Physical_Order=1*
G04 Layer_Color=255*
%FSLAX25Y25*%
%MOIN*%
G70*
G04*
G04 #@! TF.SameCoordinates,D1749837-0096-4F70-BC88-1939EB490A75*
G04*
G04*
G04 #@! TF.FilePolarity,Positive*
G04*
G01*
G75*
%ADD12C,0.00600*%
%ADD16R,0.03347X0.01772*%
%ADD17R,0.02953X0.03347*%
%ADD18R,0.07874X0.03543*%
%ADD19R,0.03543X0.07874*%
%ADD20R,0.05236X0.05236*%
%ADD21R,0.03150X0.03543*%
%ADD22R,0.03740X0.03543*%
%ADD23R,0.03543X0.02953*%
%ADD24R,0.05433X0.01772*%
%ADD25R,0.08268X0.05807*%
%ADD26R,0.07480X0.09350*%
%ADD27R,0.07480X0.04626*%
%ADD28R,0.03740X0.13780*%
%ADD29R,0.40748X0.35433*%
%ADD30R,0.03543X0.03937*%
%ADD31R,0.05118X0.07480*%
%ADD32R,0.06299X0.08583*%
%ADD33R,0.06299X0.08661*%
%ADD34R,0.03543X0.03150*%
%ADD35R,0.05118X0.03937*%
%ADD36R,0.05906X0.12992*%
%ADD37R,0.05906X0.04724*%
%ADD38R,0.02953X0.03543*%
%ADD39R,0.03347X0.02953*%
%ADD40R,0.02756X0.03543*%
%ADD41R,0.03543X0.02756*%
%ADD42R,0.04331X0.03937*%
%ADD43R,0.05315X0.01575*%
%ADD44R,0.05315X0.02362*%
%ADD45R,0.04147X0.01181*%
%ADD46R,0.01181X0.04147*%
%ADD47R,0.06000X0.06000*%
%ADD48R,0.07480X0.03543*%
%ADD49R,0.07480X0.12598*%
%ADD50R,0.03740X0.03740*%
%ADD51R,0.03150X0.03150*%
%ADD52R,0.03937X0.05118*%
%ADD99C,0.02000*%
%ADD100C,0.01000*%
%ADD101C,0.00800*%
%ADD102C,0.01200*%
%ADD103C,0.05118*%
%ADD104R,0.05118X0.05118*%
%ADD105C,0.05906*%
%ADD106R,0.05906X0.05906*%
%ADD107R,0.05906X0.05906*%
%ADD108C,0.06299*%
%ADD109R,0.06299X0.06299*%
%ADD110C,0.22000*%
%ADD111C,0.02200*%
G36*
X291876Y352817D02*
X291593Y352393D01*
X291427Y352461D01*
X290500Y352583D01*
X289573Y352461D01*
X288708Y352103D01*
X287966Y351534D01*
X287397Y350792D01*
X287039Y349927D01*
X286917Y349000D01*
X287039Y348073D01*
X287397Y347208D01*
X287966Y346466D01*
X288708Y345897D01*
X288886Y345823D01*
X289003Y345233D01*
X287493Y343724D01*
X273500D01*
X273032Y343630D01*
X272635Y343365D01*
X267996Y338726D01*
X267427Y338961D01*
X266500Y339083D01*
X265573Y338961D01*
X264708Y338603D01*
X263966Y338034D01*
X263397Y337292D01*
X263039Y336427D01*
X262917Y335500D01*
X263039Y334573D01*
X263397Y333708D01*
X263966Y332966D01*
X264708Y332397D01*
X265277Y332161D01*
Y326339D01*
X264708Y326103D01*
X263966Y325534D01*
X263397Y324792D01*
X263039Y323927D01*
X262917Y323000D01*
X263039Y322073D01*
X263274Y321504D01*
X260135Y318365D01*
X259870Y317968D01*
X259776Y317500D01*
Y307580D01*
X258235D01*
Y302443D01*
X258235Y302443D01*
Y302068D01*
X258235D01*
X258235Y301943D01*
Y298030D01*
X258215Y297932D01*
X258235Y297833D01*
Y296932D01*
X258235D01*
X258332Y296431D01*
X258024Y296226D01*
X257887Y296020D01*
X257101D01*
X256784Y296406D01*
X256791Y296442D01*
X256659Y297105D01*
X256284Y297668D01*
X255721Y298043D01*
X255564Y298075D01*
X255265Y298373D01*
Y300627D01*
X256386Y301748D01*
X256607Y302078D01*
X256685Y302468D01*
Y316515D01*
X256607Y316905D01*
X256386Y317236D01*
X254637Y318985D01*
X254828Y319447D01*
X256000D01*
Y322500D01*
X252947D01*
Y321328D01*
X252485Y321137D01*
X251020Y322603D01*
Y345447D01*
X254053D01*
Y352553D01*
X246947D01*
Y345447D01*
X248980D01*
Y324704D01*
X248880Y324621D01*
X248214Y324717D01*
X248145Y324820D01*
X247583Y325195D01*
X246920Y325327D01*
X246256Y325195D01*
X245694Y324820D01*
X245520Y324559D01*
X245020Y324710D01*
Y349500D01*
X244942Y349890D01*
X244721Y350221D01*
X243221Y351721D01*
X242890Y351942D01*
X242500Y352020D01*
X158034D01*
X157966Y352097D01*
X157796Y352489D01*
X159676Y354369D01*
X290324D01*
X291876Y352817D01*
D02*
G37*
G36*
X331149Y362971D02*
X331284Y362489D01*
X331161Y362414D01*
X329772Y361228D01*
X328586Y359839D01*
X327632Y358283D01*
X326934Y356596D01*
X326507Y354820D01*
X326403Y353500D01*
X338000D01*
Y353000D01*
X338500D01*
Y341404D01*
X339820Y341507D01*
X341596Y341934D01*
X343283Y342632D01*
X344839Y343586D01*
X346228Y344772D01*
X347414Y346161D01*
X347489Y346284D01*
X347971Y346149D01*
X347971Y332230D01*
X347471Y332130D01*
X347182Y332827D01*
X346613Y333569D01*
X345870Y334139D01*
X345006Y334497D01*
X344579Y334553D01*
Y331035D01*
X344079D01*
Y330535D01*
X340561D01*
X340617Y330108D01*
X340975Y329244D01*
X341545Y328502D01*
X342287Y327932D01*
X342447Y327866D01*
Y324205D01*
X342287Y324139D01*
X341545Y323569D01*
X340975Y322827D01*
X340617Y321963D01*
X340561Y321535D01*
X344079D01*
Y320535D01*
X340561D01*
X340617Y320108D01*
X340975Y319244D01*
X341545Y318502D01*
X342287Y317932D01*
X342447Y317866D01*
Y314205D01*
X342287Y314139D01*
X341545Y313569D01*
X340975Y312827D01*
X340617Y311963D01*
X340561Y311535D01*
X344079D01*
Y310535D01*
X340561D01*
X340617Y310108D01*
X340975Y309244D01*
X341545Y308502D01*
X342287Y307932D01*
X342447Y307866D01*
Y304205D01*
X342287Y304139D01*
X341545Y303569D01*
X340975Y302827D01*
X340617Y301963D01*
X340561Y301535D01*
X344079D01*
Y300535D01*
X340561D01*
X340617Y300108D01*
X340975Y299244D01*
X341545Y298502D01*
X342287Y297932D01*
X342447Y297866D01*
Y294205D01*
X342287Y294139D01*
X341545Y293569D01*
X340975Y292827D01*
X340617Y291963D01*
X340561Y291535D01*
X344079D01*
Y290535D01*
X340561D01*
X340617Y290108D01*
X340975Y289244D01*
X341545Y288502D01*
X342287Y287932D01*
X342447Y287866D01*
Y284205D01*
X342287Y284139D01*
X341545Y283569D01*
X340975Y282827D01*
X340617Y281963D01*
X340561Y281535D01*
X344079D01*
Y280535D01*
X340561D01*
X340617Y280108D01*
X340975Y279244D01*
X341545Y278502D01*
X342287Y277932D01*
X342447Y277866D01*
Y274205D01*
X342287Y274139D01*
X341545Y273569D01*
X340975Y272827D01*
X340617Y271963D01*
X340561Y271535D01*
X344079D01*
Y270535D01*
X340561D01*
X340617Y270108D01*
X340975Y269244D01*
X341545Y268502D01*
X342287Y267932D01*
X342447Y267866D01*
Y264205D01*
X342287Y264139D01*
X341545Y263569D01*
X340975Y262827D01*
X340617Y261963D01*
X340561Y261535D01*
X344079D01*
Y260535D01*
X340561D01*
X340617Y260108D01*
X340975Y259244D01*
X341545Y258502D01*
X342287Y257932D01*
X342447Y257866D01*
Y254205D01*
X342287Y254139D01*
X341545Y253569D01*
X340975Y252827D01*
X340617Y251963D01*
X340561Y251535D01*
X344079D01*
Y250535D01*
X340561D01*
X340617Y250108D01*
X340975Y249244D01*
X341545Y248502D01*
X342287Y247932D01*
X342447Y247866D01*
Y244205D01*
X342287Y244139D01*
X341545Y243569D01*
X340975Y242827D01*
X340617Y241963D01*
X340561Y241535D01*
X344079D01*
Y240535D01*
X340561D01*
X340617Y240108D01*
X340975Y239244D01*
X341545Y238502D01*
X342287Y237932D01*
X342447Y237866D01*
Y234205D01*
X342287Y234139D01*
X341545Y233569D01*
X340975Y232827D01*
X340617Y231963D01*
X340561Y231535D01*
X344079D01*
Y230535D01*
X340561D01*
X340617Y230108D01*
X340975Y229244D01*
X341545Y228502D01*
X342287Y227932D01*
X342447Y227866D01*
Y224205D01*
X342287Y224139D01*
X341545Y223569D01*
X340975Y222827D01*
X340617Y221963D01*
X340561Y221535D01*
X344079D01*
Y220535D01*
X340561D01*
X340617Y220108D01*
X340975Y219244D01*
X341545Y218502D01*
X342287Y217932D01*
X342447Y217866D01*
Y214205D01*
X342287Y214139D01*
X341545Y213569D01*
X340975Y212827D01*
X340617Y211963D01*
X340561Y211535D01*
X344079D01*
Y210535D01*
X340561D01*
X340617Y210108D01*
X340975Y209244D01*
X341545Y208502D01*
X342287Y207932D01*
X342447Y207866D01*
Y204205D01*
X342287Y204139D01*
X341545Y203569D01*
X340975Y202827D01*
X340617Y201963D01*
X340561Y201535D01*
X344079D01*
Y200535D01*
X340561D01*
X340617Y200108D01*
X340975Y199244D01*
X341545Y198502D01*
X342287Y197932D01*
X342447Y197866D01*
Y194205D01*
X342287Y194139D01*
X341545Y193569D01*
X340975Y192827D01*
X340617Y191963D01*
X340561Y191535D01*
X344079D01*
Y190535D01*
X340561D01*
X340617Y190108D01*
X340975Y189244D01*
X341545Y188502D01*
X342287Y187932D01*
X342447Y187866D01*
Y184588D01*
X340526D01*
Y181535D01*
X344079D01*
Y181035D01*
X344579D01*
Y177483D01*
X347471D01*
X347971Y177123D01*
X347971Y119852D01*
X347489Y119716D01*
X347414Y119839D01*
X346228Y121228D01*
X344839Y122414D01*
X343283Y123368D01*
X341596Y124066D01*
X339820Y124493D01*
X338500Y124597D01*
Y113000D01*
X338000D01*
Y112500D01*
X326403D01*
X326507Y111180D01*
X326934Y109404D01*
X327632Y107717D01*
X328586Y106161D01*
X329772Y104772D01*
X331161Y103586D01*
X331284Y103511D01*
X331149Y103029D01*
X277516Y103029D01*
X277470Y103510D01*
X277470Y103529D01*
Y112231D01*
X284128D01*
Y111786D01*
X288872D01*
Y112231D01*
X294808D01*
X294994Y112268D01*
X295000Y112267D01*
X295663Y112399D01*
X296226Y112774D01*
X296601Y113337D01*
X296733Y114000D01*
X296601Y114663D01*
X296226Y115226D01*
X295663Y115601D01*
X295000Y115733D01*
X294337Y115601D01*
X294175Y115494D01*
X288872D01*
Y115939D01*
X284128D01*
Y115494D01*
X277470D01*
Y118490D01*
X272530D01*
Y103529D01*
X272484Y103029D01*
X257516D01*
X257470Y103510D01*
X257470Y103529D01*
Y111713D01*
X257501Y111870D01*
Y119694D01*
X259676Y121869D01*
X300328D01*
X300953Y121993D01*
X301482Y122346D01*
X302654Y123518D01*
X303007Y124047D01*
X303131Y124672D01*
Y150667D01*
X309833Y157369D01*
X329788D01*
X330326Y156668D01*
X331109Y156067D01*
X332021Y155689D01*
X333000Y155561D01*
X333979Y155689D01*
X334891Y156067D01*
X335674Y156668D01*
X336275Y157451D01*
X336653Y158364D01*
X336782Y159343D01*
X336653Y160321D01*
X336275Y161233D01*
X335674Y162017D01*
X334891Y162618D01*
X333979Y162996D01*
X333000Y163125D01*
X332021Y162996D01*
X331109Y162618D01*
X330326Y162017D01*
X329725Y161233D01*
X329475Y160631D01*
X309157D01*
X308533Y160507D01*
X308004Y160153D01*
X300346Y152496D01*
X299993Y151967D01*
X299869Y151342D01*
Y125347D01*
X299653Y125131D01*
X259000D01*
X259000Y125131D01*
X258376Y125007D01*
X257846Y124653D01*
X254716Y121524D01*
X254363Y120994D01*
X254239Y120370D01*
Y118490D01*
X252530D01*
Y112631D01*
X248187D01*
X246273Y114546D01*
Y115439D01*
X245215D01*
X245183Y115460D01*
X244559Y115584D01*
X244000D01*
X243376Y115460D01*
X243344Y115439D01*
X241727D01*
Y112467D01*
X243344D01*
X243376Y112446D01*
X243854Y112350D01*
X246172Y110033D01*
X245965Y109533D01*
X245869Y109533D01*
X244500D01*
Y108547D01*
X246273D01*
Y109161D01*
Y109188D01*
D01*
X246273Y109302D01*
X246454Y109408D01*
X246753Y109583D01*
X246887Y109493D01*
X247512Y109369D01*
X252530D01*
Y103529D01*
X252484Y103029D01*
X143351Y103029D01*
X143216Y103511D01*
X143339Y103586D01*
X144728Y104772D01*
X145914Y106161D01*
X146868Y107717D01*
X147566Y109404D01*
X147993Y111180D01*
X148097Y112500D01*
X136500D01*
Y113000D01*
X136000D01*
Y124597D01*
X134680Y124493D01*
X132904Y124066D01*
X131217Y123368D01*
X129661Y122414D01*
X128272Y121228D01*
X127086Y119839D01*
X127011Y119716D01*
X126529Y119851D01*
Y180010D01*
X126991Y180202D01*
X130347Y176847D01*
X130876Y176493D01*
X131500Y176369D01*
X139724D01*
X140349Y176493D01*
X140878Y176847D01*
X144131Y180100D01*
X144593Y179908D01*
Y173426D01*
X144717Y172801D01*
X145071Y172272D01*
X146999Y170344D01*
Y165106D01*
Y161107D01*
X146576Y160684D01*
X145226D01*
Y163537D01*
X140492D01*
Y164537D01*
X145226D01*
Y167541D01*
X142131D01*
Y173500D01*
X142007Y174124D01*
X141654Y174653D01*
X141124Y175007D01*
X140500Y175131D01*
X139876Y175007D01*
X139347Y174653D01*
X138993Y174124D01*
X138869Y173500D01*
Y167541D01*
X135777D01*
Y171084D01*
X131937D01*
Y165809D01*
X131437D01*
Y165309D01*
X127097D01*
Y160534D01*
Y158140D01*
X131437D01*
X135777D01*
Y160534D01*
X138593D01*
Y157975D01*
Y155416D01*
Y152857D01*
Y152284D01*
X141909D01*
X145226D01*
Y153323D01*
X150110D01*
Y149110D01*
X150188Y148720D01*
X150409Y148389D01*
X152526Y146272D01*
Y143650D01*
X152064Y143459D01*
X150230Y145293D01*
X149866Y145536D01*
X149437Y145622D01*
X149437Y145622D01*
X145226D01*
Y148151D01*
X145226D01*
Y148724D01*
X141909D01*
X138593D01*
Y148151D01*
X135777D01*
Y150545D01*
X131437D01*
X127097D01*
Y148132D01*
Y143376D01*
X131437D01*
Y142876D01*
X131937D01*
Y137601D01*
X135777D01*
Y141144D01*
X139992D01*
Y144648D01*
X140992D01*
Y141144D01*
X145226D01*
Y143378D01*
X148972D01*
X151935Y140416D01*
Y139342D01*
X154004D01*
Y142002D01*
X153522D01*
X153014Y142509D01*
X153206Y142971D01*
X156482D01*
Y147534D01*
X156699Y147666D01*
X156976Y147727D01*
X158431Y146272D01*
Y142971D01*
X159390D01*
Y142002D01*
X157841D01*
Y135684D01*
X162065D01*
X162361Y135184D01*
X162356Y135175D01*
X162250Y135109D01*
X162149D01*
X161681Y135016D01*
X161284Y134750D01*
X160405Y133872D01*
X157786D01*
Y129128D01*
X162135D01*
Y130277D01*
X164453D01*
X164921Y130370D01*
X165176Y130540D01*
X165583Y130376D01*
X165676Y130285D01*
Y126817D01*
X170419D01*
Y127776D01*
X170961D01*
X171351Y127853D01*
X171682Y128074D01*
X173214Y129606D01*
X173676Y129415D01*
Y127081D01*
X173878D01*
Y125622D01*
X160465D01*
X157236Y128850D01*
Y130425D01*
X157236Y130425D01*
X157214Y130534D01*
Y131000D01*
X155039D01*
X152865D01*
Y129128D01*
X154993D01*
Y128386D01*
X154993Y128386D01*
X155078Y127957D01*
X155321Y127593D01*
X159207Y123707D01*
X159571Y123464D01*
X160000Y123378D01*
X160000Y123378D01*
X174414D01*
X174414Y123378D01*
X174843Y123464D01*
X175207Y123707D01*
X175793Y124293D01*
X175793Y124293D01*
X176036Y124657D01*
X176122Y125086D01*
Y127081D01*
X178419D01*
Y128036D01*
X182176D01*
Y127081D01*
X184047D01*
Y129157D01*
Y131234D01*
X182176D01*
Y130279D01*
X178419D01*
Y131234D01*
X176018D01*
X175751Y131734D01*
X175799Y131806D01*
X178419D01*
Y135958D01*
X177569D01*
Y144513D01*
X183646D01*
Y149152D01*
X188284D01*
Y153260D01*
X189330D01*
X189629Y153320D01*
X189927Y153074D01*
X190030Y152943D01*
Y148927D01*
X194576D01*
Y151638D01*
X195418Y152480D01*
X196030D01*
Y148928D01*
X200576D01*
Y149455D01*
X201076Y149662D01*
X202250Y148488D01*
Y143983D01*
X209356D01*
Y145525D01*
X209625Y145661D01*
X209856Y145719D01*
X210368Y145376D01*
X211031Y145244D01*
X211695Y145376D01*
X212257Y145752D01*
X212633Y146314D01*
X212765Y146978D01*
X212633Y147641D01*
X212257Y148203D01*
X211695Y148579D01*
X211031Y148711D01*
X210368Y148579D01*
X209856Y148237D01*
X209625Y148294D01*
X209356Y148430D01*
Y149907D01*
X203715D01*
X201897Y151725D01*
X201567Y151946D01*
X201176Y152023D01*
X200576D01*
Y153080D01*
X200576D01*
X200422Y153580D01*
X200442Y153610D01*
X200520Y154000D01*
Y158330D01*
X202778Y160588D01*
X202976Y160553D01*
X203288Y160391D01*
X203399Y159837D01*
X203649Y159462D01*
X203410Y158962D01*
X202250D01*
Y153038D01*
X209356D01*
Y154980D01*
X227447D01*
Y148904D01*
X234553D01*
Y163096D01*
X233520D01*
Y185500D01*
X233442Y185890D01*
X233221Y186221D01*
X226252Y193190D01*
X225922Y193411D01*
X225532Y193488D01*
X197698D01*
X196716Y194470D01*
X196908Y194931D01*
X199931D01*
Y196480D01*
X206000D01*
X206390Y196558D01*
X206721Y196779D01*
X212721Y202779D01*
X212942Y203110D01*
X213020Y203500D01*
Y209660D01*
X215750D01*
Y218902D01*
X222428D01*
X223250Y218079D01*
Y209660D01*
X230750D01*
Y219521D01*
X224692D01*
X223571Y220642D01*
X223241Y220863D01*
X222990Y220913D01*
X223040Y221413D01*
X236500D01*
X236890Y221491D01*
X237221Y221712D01*
X241821Y226312D01*
X242042Y226642D01*
X242120Y227033D01*
Y235637D01*
X242326Y235774D01*
X242701Y236337D01*
X242833Y237000D01*
X242701Y237663D01*
X242326Y238226D01*
X241763Y238601D01*
X241187Y238716D01*
X241018Y238822D01*
X240701Y239164D01*
X240601Y239663D01*
X240226Y240226D01*
X239663Y240601D01*
X239000Y240733D01*
X238337Y240601D01*
X237774Y240226D01*
X237399Y239663D01*
X237267Y239000D01*
X237399Y238337D01*
X237774Y237774D01*
X237980Y237637D01*
Y228106D01*
X236794Y226920D01*
X236332Y227112D01*
Y230368D01*
X230014D01*
Y229672D01*
X225545D01*
Y230466D01*
X220802D01*
Y229672D01*
X220277D01*
X220009Y230172D01*
X220101Y230310D01*
X220233Y230973D01*
X220139Y231449D01*
X220466Y231862D01*
X220802Y231780D01*
Y231038D01*
X222673D01*
Y233213D01*
Y235387D01*
X220802D01*
Y234295D01*
X216545D01*
Y235387D01*
X214673D01*
Y233213D01*
Y231038D01*
X216239D01*
X216298Y230966D01*
X216297Y230956D01*
X215909Y230466D01*
X211802D01*
Y229672D01*
X207545D01*
Y230466D01*
X202802D01*
Y229672D01*
X198045D01*
Y230525D01*
X193302D01*
Y228103D01*
X192114Y226915D01*
X191943D01*
X191663Y227101D01*
X191000Y227233D01*
X190337Y227101D01*
X189774Y226726D01*
X189399Y226163D01*
X189267Y225500D01*
X189399Y224837D01*
X189774Y224274D01*
X190337Y223899D01*
X191000Y223767D01*
X191663Y223899D01*
X192226Y224274D01*
X192355Y224468D01*
X192621D01*
X193089Y224561D01*
X193486Y224826D01*
X195032Y226372D01*
X198045D01*
Y227225D01*
X202802D01*
Y226313D01*
X202802D01*
X202712Y225850D01*
X195831D01*
X195440Y225773D01*
X195110Y225552D01*
X189358Y219800D01*
X189247Y219726D01*
X188747Y219974D01*
Y229468D01*
X192840Y233560D01*
X193302Y233369D01*
Y231097D01*
X195173D01*
Y233173D01*
Y235272D01*
X194991Y235712D01*
X197218Y237939D01*
X218025D01*
X218415Y238016D01*
X218746Y238237D01*
X226035Y245526D01*
X228238D01*
X228336Y245506D01*
X231918D01*
X233946Y243479D01*
X234276Y243258D01*
X234667Y243180D01*
X241610D01*
X242000Y243258D01*
X242331Y243479D01*
X251974Y253122D01*
X252436Y252931D01*
Y246045D01*
X252513Y245655D01*
X252734Y245324D01*
X261779Y236279D01*
X262110Y236058D01*
X262500Y235980D01*
X299941D01*
X300331Y236058D01*
X300662Y236279D01*
X301610Y237227D01*
X304517D01*
Y241773D01*
X301060D01*
X300853Y242273D01*
X302173Y243593D01*
X304517D01*
Y248140D01*
X301373D01*
X301182Y248602D01*
X302540Y249960D01*
X304517D01*
Y254507D01*
X301740D01*
X301548Y254969D01*
X302906Y256327D01*
X304517D01*
Y260873D01*
X301606D01*
X301415Y261335D01*
X302773Y262693D01*
X304517D01*
Y267240D01*
X300365D01*
Y263169D01*
X299681Y262486D01*
X299220Y262677D01*
Y264457D01*
X299242Y264490D01*
X299320Y264880D01*
Y268207D01*
X301365D01*
X301755Y268285D01*
X302085Y268506D01*
X302624Y269044D01*
X302635Y269060D01*
X304517D01*
Y273606D01*
X300365D01*
Y270246D01*
X298769D01*
X298518Y270196D01*
X298125Y270421D01*
X298018Y270529D01*
Y273220D01*
X299975Y275178D01*
X300365Y275427D01*
Y275427D01*
X300365Y275427D01*
X304517D01*
Y279973D01*
X300365D01*
Y277418D01*
X300000D01*
X299649Y277348D01*
X299351Y277149D01*
X297380Y275177D01*
X296918Y275369D01*
Y280120D01*
X298880Y282082D01*
X300365D01*
Y281793D01*
X304517D01*
Y286340D01*
X300365D01*
Y283918D01*
X298500D01*
X298149Y283848D01*
X297851Y283649D01*
X296280Y282077D01*
X295818Y282269D01*
Y286520D01*
X298380Y289082D01*
X300365D01*
Y288160D01*
X304517D01*
Y292706D01*
X300365D01*
Y290918D01*
X298000D01*
X297649Y290848D01*
X297351Y290649D01*
X295180Y288477D01*
X294718Y288669D01*
Y290280D01*
X295249Y290811D01*
X295448Y291109D01*
X295518Y291460D01*
Y292220D01*
X298880Y295582D01*
X300306D01*
Y294527D01*
X304458D01*
Y299073D01*
X300306D01*
Y297418D01*
X298500D01*
X298149Y297348D01*
X297851Y297149D01*
X294880Y294177D01*
X294418Y294369D01*
Y295923D01*
X299903Y301408D01*
X300365Y301217D01*
Y300893D01*
X304517D01*
Y305440D01*
X302240D01*
X302048Y305902D01*
X302085Y305939D01*
X302307Y306270D01*
X302384Y306660D01*
Y307260D01*
X304517D01*
Y311807D01*
X300365D01*
X300118Y312204D01*
Y312682D01*
X301062Y313627D01*
X304517D01*
Y318173D01*
X300460D01*
X300174Y318594D01*
X301573Y319993D01*
X304517D01*
Y324540D01*
X300768D01*
X300560Y325040D01*
X301881Y326360D01*
X304458D01*
Y330907D01*
X300693D01*
X300486Y331406D01*
X301806Y332727D01*
X304517D01*
Y337273D01*
X300365D01*
Y334169D01*
X297084Y330888D01*
X296584Y331095D01*
Y347863D01*
X297084Y347963D01*
X297397Y347208D01*
X297966Y346466D01*
X298708Y345897D01*
X299573Y345539D01*
X300500Y345417D01*
X301427Y345539D01*
X302292Y345897D01*
X303034Y346466D01*
X303603Y347208D01*
X303961Y348073D01*
X304083Y349000D01*
X303961Y349927D01*
X303603Y350792D01*
X303034Y351534D01*
X302292Y352103D01*
X301427Y352461D01*
X300500Y352583D01*
X299573Y352461D01*
X298708Y352103D01*
X297966Y351534D01*
X297397Y350792D01*
X297231Y350393D01*
X296731Y350492D01*
Y351900D01*
X296731Y351900D01*
X296607Y352524D01*
X296253Y353053D01*
X292154Y357154D01*
X291624Y357507D01*
X291000Y357631D01*
X159000D01*
X158376Y357507D01*
X157846Y357154D01*
X143377Y342684D01*
X142788D01*
X142652Y343165D01*
X143339Y343586D01*
X144728Y344772D01*
X145914Y346161D01*
X146868Y347717D01*
X147566Y349404D01*
X147993Y351180D01*
X148097Y352500D01*
X137000D01*
Y341404D01*
X138320Y341507D01*
X139287Y341739D01*
X139541Y341286D01*
X137346Y339092D01*
X136993Y338563D01*
X136465Y338472D01*
X136034Y339034D01*
X135292Y339603D01*
X134427Y339961D01*
X134000Y340018D01*
Y336500D01*
X133500D01*
Y336000D01*
X129982D01*
X130039Y335573D01*
X130397Y334708D01*
X130880Y334079D01*
X130714Y333579D01*
X130447D01*
X130447Y333579D01*
X129823Y333454D01*
X129294Y333101D01*
X126991Y330798D01*
X126529Y330990D01*
Y346149D01*
X127011Y346284D01*
X127086Y346161D01*
X128272Y344772D01*
X129661Y343586D01*
X131217Y342632D01*
X132904Y341934D01*
X134680Y341507D01*
X136000Y341404D01*
Y353000D01*
X136500D01*
Y353500D01*
X148097D01*
X147993Y354820D01*
X147566Y356596D01*
X146868Y358283D01*
X145914Y359839D01*
X144728Y361228D01*
X143339Y362414D01*
X143216Y362489D01*
X143351Y362971D01*
X331149Y362971D01*
D02*
G37*
G36*
X293321Y346057D02*
Y331129D01*
X291347Y329153D01*
X290993Y328624D01*
X290869Y328000D01*
Y322176D01*
X290317Y321624D01*
X289893Y321907D01*
X289961Y322073D01*
X290083Y323000D01*
X289961Y323927D01*
X289603Y324792D01*
X289034Y325534D01*
X288292Y326103D01*
X287427Y326461D01*
X286500Y326583D01*
X285573Y326461D01*
X284708Y326103D01*
X283966Y325534D01*
X283397Y324792D01*
X283372Y324733D01*
X282872Y324832D01*
Y330147D01*
X282795Y330537D01*
X282574Y330868D01*
X279642Y333800D01*
X279961Y334573D01*
X280083Y335500D01*
X279961Y336427D01*
X279603Y337292D01*
X279111Y337933D01*
X279266Y338433D01*
X282125D01*
X283359Y337200D01*
X283039Y336427D01*
X282917Y335500D01*
X283039Y334573D01*
X283397Y333708D01*
X283966Y332966D01*
X284708Y332397D01*
X285573Y332039D01*
X286500Y331917D01*
X287427Y332039D01*
X288292Y332397D01*
X289034Y332966D01*
X289603Y333708D01*
X289961Y334573D01*
X290083Y335500D01*
X289961Y336427D01*
X289603Y337292D01*
X289034Y338034D01*
X288292Y338603D01*
X287427Y338961D01*
X286500Y339083D01*
X285573Y338961D01*
X284800Y338642D01*
X283268Y340174D01*
X282937Y340395D01*
X282547Y340472D01*
X274863D01*
X274472Y340395D01*
X274142Y340174D01*
X271826Y337858D01*
X271605Y337527D01*
X271528Y337137D01*
Y333203D01*
X271605Y332813D01*
X271826Y332482D01*
X277330Y326978D01*
X277096Y326505D01*
X276500Y326583D01*
X275573Y326461D01*
X274708Y326103D01*
X273966Y325534D01*
X273397Y324792D01*
X273039Y323927D01*
X272917Y323000D01*
X273039Y322073D01*
X273358Y321300D01*
X263935Y311877D01*
X263715Y311547D01*
X263637Y311157D01*
Y307580D01*
X262224D01*
Y316993D01*
X265004Y319774D01*
X265573Y319539D01*
X266500Y319417D01*
X267427Y319539D01*
X268292Y319897D01*
X269034Y320466D01*
X269603Y321208D01*
X269961Y322073D01*
X270083Y323000D01*
X269961Y323927D01*
X269603Y324792D01*
X269034Y325534D01*
X268292Y326103D01*
X267723Y326339D01*
Y332161D01*
X268292Y332397D01*
X269034Y332966D01*
X269603Y333708D01*
X269961Y334573D01*
X270083Y335500D01*
X269961Y336427D01*
X269726Y336996D01*
X274007Y341277D01*
X288000D01*
X288468Y341370D01*
X288865Y341635D01*
X291365Y344135D01*
X291630Y344532D01*
X291723Y345000D01*
Y345661D01*
X292292Y345897D01*
X292821Y346303D01*
X293321Y346057D01*
D02*
G37*
G36*
X132221Y329816D02*
X131708Y329603D01*
X130966Y329034D01*
X130397Y328292D01*
X130039Y327427D01*
X129917Y326500D01*
X130039Y325573D01*
X130397Y324708D01*
X130966Y323966D01*
X131708Y323397D01*
X132573Y323039D01*
X133500Y322917D01*
X134427Y323039D01*
X134996Y323274D01*
X136724Y321546D01*
Y318956D01*
X136224Y318786D01*
X136034Y319034D01*
X135292Y319603D01*
X134427Y319961D01*
X133500Y320083D01*
X132573Y319961D01*
X131708Y319603D01*
X130966Y319034D01*
X130397Y318292D01*
X130039Y317427D01*
X129917Y316500D01*
X130039Y315573D01*
X130397Y314708D01*
X130966Y313966D01*
X131708Y313397D01*
X132573Y313039D01*
X133500Y312917D01*
X134427Y313039D01*
X135200Y313358D01*
X138826Y309732D01*
X139157Y309511D01*
X139547Y309433D01*
X140734D01*
X140889Y308933D01*
X140397Y308292D01*
X140039Y307427D01*
X139917Y306500D01*
X140039Y305573D01*
X140397Y304708D01*
X140966Y303966D01*
X141708Y303397D01*
X142573Y303039D01*
X143500Y302917D01*
X144427Y303039D01*
X145200Y303359D01*
X146624Y301934D01*
X146432Y301472D01*
X139970D01*
X136642Y304800D01*
X136961Y305573D01*
X137083Y306500D01*
X136961Y307427D01*
X136603Y308292D01*
X136034Y309034D01*
X135292Y309603D01*
X134427Y309961D01*
X133500Y310083D01*
X132573Y309961D01*
X131708Y309603D01*
X130966Y309034D01*
X130397Y308292D01*
X130039Y307427D01*
X129917Y306500D01*
X130039Y305573D01*
X130397Y304708D01*
X130966Y303966D01*
X131708Y303397D01*
X132573Y303039D01*
X133500Y302917D01*
X134427Y303039D01*
X135200Y303359D01*
X138826Y299732D01*
X139157Y299511D01*
X139547Y299433D01*
X140734D01*
X140889Y298933D01*
X140397Y298292D01*
X140039Y297427D01*
X139917Y296500D01*
X140039Y295573D01*
X140397Y294708D01*
X140966Y293966D01*
X141708Y293397D01*
X142573Y293039D01*
X143500Y292917D01*
X144427Y293039D01*
X145200Y293358D01*
X150279Y288279D01*
X150610Y288058D01*
X151000Y287980D01*
X166463D01*
Y286628D01*
X166463D01*
Y286372D01*
X166463D01*
Y285020D01*
X163500D01*
X163110Y284942D01*
X162779Y284721D01*
X151448Y273390D01*
X151227Y273060D01*
X151150Y272669D01*
Y233590D01*
X151227Y233200D01*
X151448Y232869D01*
X154645Y229672D01*
X154811Y229561D01*
X155831Y228541D01*
X155624Y228041D01*
X154014D01*
Y219361D01*
X158890D01*
X160020Y218231D01*
Y217470D01*
X158569D01*
Y213580D01*
X158069Y213373D01*
X146642Y224800D01*
X146961Y225573D01*
X147083Y226500D01*
X146961Y227427D01*
X146603Y228292D01*
X146034Y229034D01*
X145292Y229603D01*
X144427Y229961D01*
X143500Y230083D01*
X142573Y229961D01*
X141708Y229603D01*
X141067Y229111D01*
X140567Y229266D01*
Y230453D01*
X140489Y230843D01*
X140268Y231174D01*
X136642Y234800D01*
X136961Y235573D01*
X137083Y236500D01*
X136961Y237427D01*
X136603Y238292D01*
X136034Y239034D01*
X135292Y239603D01*
X134427Y239961D01*
X133500Y240083D01*
X132573Y239961D01*
X131708Y239603D01*
X131067Y239111D01*
X130567Y239266D01*
Y243734D01*
X131067Y243889D01*
X131708Y243397D01*
X132573Y243039D01*
X133500Y242917D01*
X134427Y243039D01*
X135292Y243397D01*
X136034Y243966D01*
X136603Y244708D01*
X136961Y245573D01*
X137083Y246500D01*
X136961Y247427D01*
X136603Y248292D01*
X136034Y249034D01*
X135292Y249603D01*
X134427Y249961D01*
X133500Y250083D01*
X132573Y249961D01*
X131708Y249603D01*
X131067Y249111D01*
X130567Y249266D01*
Y253734D01*
X131067Y253889D01*
X131708Y253397D01*
X132573Y253039D01*
X133500Y252917D01*
X134427Y253039D01*
X135292Y253397D01*
X136034Y253966D01*
X136603Y254708D01*
X136961Y255573D01*
X137083Y256500D01*
X136961Y257427D01*
X136603Y258292D01*
X136034Y259034D01*
X135292Y259603D01*
X134427Y259961D01*
X133500Y260083D01*
X132573Y259961D01*
X131708Y259603D01*
X131067Y259111D01*
X130567Y259266D01*
Y262125D01*
X131800Y263358D01*
X132573Y263039D01*
X133500Y262917D01*
X134427Y263039D01*
X135292Y263397D01*
X136034Y263966D01*
X136603Y264708D01*
X136961Y265573D01*
X137083Y266500D01*
X136961Y267427D01*
X136603Y268292D01*
X136034Y269034D01*
X135292Y269603D01*
X134427Y269961D01*
X133500Y270083D01*
X132573Y269961D01*
X131708Y269603D01*
X130966Y269034D01*
X130397Y268292D01*
X130039Y267427D01*
X129917Y266500D01*
X130039Y265573D01*
X130359Y264800D01*
X129640Y264083D01*
X129179Y264274D01*
Y328372D01*
X131123Y330316D01*
X132122D01*
X132221Y329816D01*
D02*
G37*
G36*
X242980Y349078D02*
Y318795D01*
X242966Y318786D01*
X242466Y319053D01*
Y321372D01*
X238429D01*
Y319000D01*
X237429D01*
Y321372D01*
X233392D01*
Y320631D01*
X223000D01*
X222376Y320507D01*
X221847Y320153D01*
X218847Y317154D01*
X218493Y316624D01*
X218369Y316000D01*
Y309621D01*
X208663Y299915D01*
X208252D01*
Y297197D01*
X210970D01*
Y297608D01*
X221153Y307791D01*
X221507Y308321D01*
X221631Y308945D01*
Y315324D01*
X223676Y317369D01*
X233392D01*
Y316628D01*
X233392Y316628D01*
Y316372D01*
X233392D01*
X233392Y316128D01*
Y311628D01*
X233392D01*
Y311372D01*
X233392D01*
Y306872D01*
X233392Y306500D01*
X233392Y306128D01*
Y301872D01*
X233392Y301500D01*
X233392Y301128D01*
Y298648D01*
X230957D01*
X230687Y298594D01*
X230638Y298626D01*
X229975Y298758D01*
X229311Y298626D01*
X228749Y298251D01*
X228374Y297688D01*
X228242Y297025D01*
X228374Y296362D01*
X228749Y295799D01*
X229311Y295424D01*
X229975Y295292D01*
X230638Y295424D01*
X231201Y295799D01*
X231576Y296362D01*
X231625Y296609D01*
X232990D01*
X233392Y296372D01*
X233392Y296109D01*
Y291872D01*
X233392Y291500D01*
X233392Y291128D01*
Y286872D01*
X233392Y286500D01*
X233392Y286128D01*
Y281628D01*
X233392D01*
Y281372D01*
X233392D01*
Y276628D01*
X233392D01*
Y276372D01*
X233392D01*
Y275020D01*
X195323D01*
X191775Y278568D01*
X191966Y279030D01*
X192803D01*
Y281748D01*
X190085D01*
Y280911D01*
X189623Y280720D01*
X185918Y284425D01*
Y312224D01*
X185840Y312615D01*
X185619Y312945D01*
X176029Y322536D01*
X176236Y323036D01*
X239898D01*
X240357Y323226D01*
X240547Y323685D01*
Y348488D01*
X240357Y348947D01*
X239898Y349138D01*
X169032D01*
X168572Y348947D01*
X168382Y348488D01*
Y325015D01*
X167920Y324824D01*
X160023Y332721D01*
X159693Y332942D01*
X159302Y333020D01*
X145622D01*
X145452Y333520D01*
X146034Y333966D01*
X146603Y334708D01*
X146961Y335573D01*
X147083Y336500D01*
X146961Y337427D01*
X146642Y338200D01*
X158422Y349980D01*
X242078D01*
X242980Y349078D01*
D02*
G37*
G36*
X158331Y328583D02*
Y326675D01*
X157278D01*
Y325000D01*
X159453D01*
Y324500D01*
X159953D01*
Y322325D01*
X161628D01*
Y323378D01*
X162870D01*
X166463Y319786D01*
Y319500D01*
X171000D01*
Y318500D01*
X166463D01*
Y316723D01*
X161431D01*
Y318069D01*
X156813D01*
X156687Y318069D01*
X156313D01*
X156187Y318069D01*
X154961D01*
Y322325D01*
X155722D01*
Y326675D01*
X151372D01*
Y322325D01*
X152921D01*
Y318069D01*
X151569D01*
Y312931D01*
X156187D01*
X156313Y312931D01*
X156687D01*
X156813Y312931D01*
X157835D01*
Y312238D01*
X156283Y310686D01*
X156031Y310518D01*
X154287Y308773D01*
X153398D01*
X148959Y313212D01*
X148562Y313478D01*
X148094Y313571D01*
X146273D01*
X146114Y314071D01*
X146603Y314708D01*
X146961Y315573D01*
X147083Y316500D01*
X146961Y317427D01*
X146603Y318292D01*
X146034Y319034D01*
X145292Y319603D01*
X144427Y319961D01*
X143500Y320083D01*
X142573Y319961D01*
X141800Y319641D01*
X140567Y320875D01*
Y323734D01*
X141067Y323889D01*
X141708Y323397D01*
X142573Y323039D01*
X143000Y322982D01*
Y326500D01*
X143500D01*
Y327000D01*
X147018D01*
X146961Y327427D01*
X146684Y328098D01*
X147965Y329379D01*
X157535D01*
X158331Y328583D01*
D02*
G37*
G36*
X183879Y311802D02*
Y284002D01*
X183956Y283612D01*
X184177Y283281D01*
X193939Y273520D01*
X193732Y273020D01*
X181175D01*
X180727Y273468D01*
X180733Y273500D01*
X180601Y274163D01*
X180226Y274726D01*
X179663Y275101D01*
X179000Y275233D01*
X178337Y275101D01*
X177774Y274726D01*
X177399Y274163D01*
X177267Y273500D01*
X177399Y272837D01*
X177774Y272274D01*
X178305Y271920D01*
X178311Y271883D01*
X178038Y271420D01*
X177188D01*
X175537Y273070D01*
Y276372D01*
X175537D01*
Y276628D01*
X175537D01*
Y281372D01*
X175537D01*
Y281628D01*
X175537D01*
Y286372D01*
X175537D01*
Y286628D01*
X175537D01*
Y291372D01*
X175537D01*
Y291628D01*
X175537D01*
Y296372D01*
X175537D01*
Y296628D01*
X175537D01*
Y301372D01*
X175537D01*
Y301628D01*
X175537D01*
Y306372D01*
X175537Y306372D01*
Y306628D01*
X175537D01*
X175537Y306872D01*
Y307980D01*
X178137D01*
X178274Y307774D01*
X178837Y307399D01*
X179500Y307267D01*
X180163Y307399D01*
X180726Y307774D01*
X181101Y308337D01*
X181233Y309000D01*
X181101Y309663D01*
X180726Y310226D01*
X180163Y310601D01*
X179500Y310733D01*
X178837Y310601D01*
X178274Y310226D01*
X178137Y310020D01*
X175537D01*
Y311372D01*
X175537D01*
Y311628D01*
X175537D01*
Y312776D01*
X177850D01*
X177864Y312755D01*
X178426Y312379D01*
X179090Y312247D01*
X179753Y312379D01*
X180315Y312755D01*
X180691Y313317D01*
X180823Y313981D01*
X180781Y314193D01*
X181241Y314440D01*
X183879Y311802D01*
D02*
G37*
G36*
X245766Y319427D02*
X247984Y317209D01*
X248274Y316774D01*
X248709Y316484D01*
X250869Y314324D01*
Y307580D01*
X249735D01*
Y304324D01*
X249273Y304133D01*
X243685Y309721D01*
X243354Y309942D01*
X242964Y310020D01*
X242466D01*
Y311372D01*
X242466D01*
Y311480D01*
X242820Y311980D01*
X245137D01*
X245274Y311774D01*
X245837Y311399D01*
X246500Y311267D01*
X247163Y311399D01*
X247726Y311774D01*
X248101Y312337D01*
X248233Y313000D01*
X248101Y313663D01*
X247726Y314226D01*
X247163Y314601D01*
X246500Y314733D01*
X245837Y314601D01*
X245274Y314226D01*
X245137Y314020D01*
X242466D01*
Y314930D01*
X244721Y317184D01*
X244942Y317515D01*
X245020Y317905D01*
Y319644D01*
X245520Y319796D01*
X245766Y319427D01*
D02*
G37*
G36*
X166463Y311628D02*
X166463D01*
Y311372D01*
X166463D01*
Y308070D01*
X165912Y307520D01*
X161135D01*
Y308773D01*
X158538D01*
X158331Y309273D01*
X159924Y310866D01*
X160189Y311263D01*
X160283Y311732D01*
Y312931D01*
X161431D01*
Y314277D01*
X166463D01*
Y311628D01*
D02*
G37*
G36*
X293980Y319966D02*
Y307937D01*
X292432Y306389D01*
X291970Y306580D01*
Y309301D01*
X291131D01*
Y313245D01*
Y317824D01*
X293480Y320173D01*
X293980Y319966D01*
D02*
G37*
G36*
X287869Y312570D02*
Y309301D01*
X287030D01*
Y304557D01*
X286593Y304405D01*
X283157D01*
X282720Y304557D01*
X282720Y304905D01*
Y308913D01*
X283813Y310006D01*
X284247Y310297D01*
X284623Y310859D01*
X284755Y311522D01*
X284623Y312185D01*
X284247Y312748D01*
X284066Y312869D01*
X284218Y313369D01*
X287070D01*
X287869Y312570D01*
D02*
G37*
G36*
X249735Y300787D02*
Y296932D01*
X253028D01*
X253345Y296545D01*
X253325Y296442D01*
X253457Y295779D01*
X253630Y295520D01*
X253362Y295020D01*
X242820D01*
X242466Y295373D01*
X242466Y296500D01*
X242466Y296872D01*
Y301128D01*
X242466Y301500D01*
X242466Y302182D01*
X242966Y302334D01*
X243228Y301942D01*
X243791Y301566D01*
X244454Y301434D01*
X245117Y301566D01*
X245680Y301942D01*
X246055Y302504D01*
X246187Y303167D01*
X246073Y303742D01*
X246315Y303955D01*
X246485Y304036D01*
X249735Y300787D01*
D02*
G37*
G36*
X151329Y303106D02*
X151660Y302885D01*
X152050Y302807D01*
X166463D01*
Y301628D01*
X166463D01*
Y301372D01*
X166463D01*
Y300020D01*
X151422D01*
X146642Y304800D01*
X146961Y305573D01*
X147083Y306500D01*
X147062Y306667D01*
X147535Y306900D01*
X151329Y303106D01*
D02*
G37*
G36*
X281977Y312869D02*
X281796Y312748D01*
X281506Y312313D01*
X279097Y309904D01*
X278743Y309375D01*
X278728Y309301D01*
X277780D01*
X277780Y304557D01*
X277343Y304405D01*
X274802D01*
X274412Y304328D01*
X274081Y304107D01*
X268938Y298963D01*
X268476Y299155D01*
Y304080D01*
X268530Y304557D01*
X273470D01*
Y307543D01*
X273501Y307701D01*
Y309351D01*
X273847Y309697D01*
X275828D01*
X276453Y309821D01*
X276982Y310175D01*
X280176Y313369D01*
X281825D01*
X281977Y312869D01*
D02*
G37*
G36*
X166463Y296628D02*
X166463D01*
Y296372D01*
X166463D01*
Y295020D01*
X154442D01*
X151944Y297518D01*
X152135Y297980D01*
X166463D01*
Y296628D01*
D02*
G37*
G36*
X153299Y293279D02*
X153630Y293058D01*
X154020Y292980D01*
X166463D01*
Y291628D01*
X166463D01*
Y291372D01*
X166463D01*
Y290020D01*
X151422D01*
X146642Y294800D01*
X146961Y295573D01*
X147083Y296500D01*
X146961Y297427D01*
X146603Y298292D01*
X146111Y298933D01*
X146266Y299433D01*
X147145D01*
X153299Y293279D01*
D02*
G37*
G36*
X287030Y292156D02*
X290105D01*
X290489Y291656D01*
X290480Y291613D01*
Y290273D01*
X286483D01*
Y287001D01*
X286021Y286809D01*
X285517Y287313D01*
Y287500D01*
X283441D01*
Y288000D01*
X282941D01*
Y290273D01*
X281365D01*
X281270Y290734D01*
Y292156D01*
X282720D01*
Y293508D01*
X287030D01*
Y292156D01*
D02*
G37*
G36*
X258024Y293774D02*
X258516Y293446D01*
X258690Y292912D01*
X252169Y286391D01*
X242868D01*
X242466Y286628D01*
X242466Y286891D01*
Y291128D01*
X242466Y291500D01*
X242466Y291872D01*
Y292980D01*
X255500D01*
X255890Y293058D01*
X256221Y293279D01*
X256922Y293980D01*
X257887D01*
X258024Y293774D01*
D02*
G37*
G36*
X251648Y283890D02*
X247777Y280020D01*
X242466D01*
Y281372D01*
X242466D01*
Y281628D01*
X242466D01*
Y284352D01*
X251457D01*
X251648Y283890D01*
D02*
G37*
G36*
X279230Y286986D02*
X279239Y286945D01*
Y280809D01*
X279258Y280710D01*
Y278805D01*
X278758Y278538D01*
X278663Y278601D01*
X278000Y278733D01*
X277520Y278638D01*
X277020Y278945D01*
Y290514D01*
X277091Y290585D01*
X277312Y290916D01*
X277390Y291306D01*
Y291891D01*
X277780Y292156D01*
X279230D01*
Y286986D01*
D02*
G37*
G36*
X253095Y279530D02*
X253136Y279325D01*
X253512Y278763D01*
X254074Y278387D01*
X254737Y278255D01*
X255401Y278387D01*
X255727Y278605D01*
X256227Y278338D01*
Y277286D01*
X256022Y277245D01*
X255692Y277024D01*
X247420Y268753D01*
X247199Y268422D01*
X247122Y268032D01*
Y260446D01*
X246622Y260192D01*
X246041Y260307D01*
X245378Y260175D01*
X245145Y260020D01*
X242466D01*
Y261372D01*
X242466D01*
Y261628D01*
X242466D01*
Y266128D01*
X242466Y266500D01*
X242466Y266872D01*
Y271128D01*
X242466Y271500D01*
X242466Y271872D01*
Y276372D01*
X242466D01*
Y276628D01*
X242466D01*
Y277980D01*
X248200D01*
X248590Y278058D01*
X248921Y278279D01*
X249518Y278877D01*
X249980Y278685D01*
Y277363D01*
X249774Y277226D01*
X249399Y276663D01*
X249267Y276000D01*
X249399Y275337D01*
X249774Y274774D01*
X250337Y274399D01*
X251000Y274267D01*
X251663Y274399D01*
X252226Y274774D01*
X252601Y275337D01*
X252733Y276000D01*
X252601Y276663D01*
X252226Y277226D01*
X252020Y277363D01*
Y279161D01*
X252553Y279695D01*
X253095Y279530D01*
D02*
G37*
G36*
X268530Y295018D02*
Y292156D01*
X269730D01*
Y289971D01*
X269667Y289651D01*
X269799Y288988D01*
X270174Y288425D01*
X270737Y288050D01*
X271400Y287918D01*
X271880Y288013D01*
X272380Y287706D01*
Y278877D01*
X267076Y273572D01*
X266542Y273746D01*
X266213Y274238D01*
X265651Y274613D01*
X264988Y274745D01*
X264325Y274613D01*
X263762Y274238D01*
X263387Y273675D01*
X263255Y273012D01*
X263305Y272758D01*
X263242Y272706D01*
X262742Y272943D01*
Y275687D01*
Y278246D01*
Y281809D01*
X256227D01*
Y281639D01*
X255727Y281372D01*
X255401Y281590D01*
X255196Y281631D01*
X255032Y282173D01*
X268068Y295210D01*
X268530Y295018D01*
D02*
G37*
G36*
X233392Y272627D02*
X233392Y271500D01*
X233392Y271128D01*
Y270020D01*
X231363D01*
X231226Y270226D01*
X230663Y270601D01*
X230000Y270733D01*
X229337Y270601D01*
X228774Y270226D01*
X228399Y269663D01*
X228267Y269000D01*
X228399Y268337D01*
X228774Y267774D01*
X229337Y267399D01*
X230000Y267267D01*
X230663Y267399D01*
X231226Y267774D01*
X231363Y267980D01*
X233039D01*
X233392Y267627D01*
X233392Y266500D01*
X233392Y266128D01*
Y265020D01*
X231363D01*
X231226Y265226D01*
X230663Y265601D01*
X230000Y265733D01*
X229337Y265601D01*
X228774Y265226D01*
X228399Y264663D01*
X228330Y264319D01*
X227788Y264154D01*
X219461Y272480D01*
X219669Y272980D01*
X233039D01*
X233392Y272627D01*
D02*
G37*
G36*
X161572Y274923D02*
X161399Y274663D01*
X161267Y274000D01*
X161399Y273337D01*
X161774Y272774D01*
X162337Y272399D01*
X163000Y272267D01*
X163663Y272399D01*
X164226Y272774D01*
X164363Y272980D01*
X166463D01*
Y271872D01*
X166463Y271628D01*
X166463D01*
Y271372D01*
X166463D01*
Y270020D01*
X160642D01*
X160515Y270209D01*
X159953Y270585D01*
X159290Y270717D01*
X158626Y270585D01*
X158064Y270209D01*
X157688Y269647D01*
X157556Y268983D01*
X157688Y268320D01*
X158064Y267758D01*
X158626Y267382D01*
X159290Y267250D01*
X159953Y267382D01*
X160515Y267758D01*
X160664Y267980D01*
X166463D01*
Y266628D01*
X166463D01*
Y266372D01*
X166463D01*
Y265020D01*
X163863D01*
X163726Y265226D01*
X163163Y265601D01*
X162500Y265733D01*
X161837Y265601D01*
X161274Y265226D01*
X160899Y264663D01*
X160767Y264000D01*
X160899Y263337D01*
X161274Y262774D01*
X161837Y262399D01*
X162500Y262267D01*
X163163Y262399D01*
X163726Y262774D01*
X163863Y262980D01*
X166109D01*
X166463Y262627D01*
X166463Y261500D01*
X166463Y261128D01*
Y260020D01*
X161130D01*
X161101Y260163D01*
X160726Y260726D01*
X160163Y261101D01*
X159500Y261233D01*
X158837Y261101D01*
X158274Y260726D01*
X157899Y260163D01*
X157767Y259500D01*
X157899Y258837D01*
X158274Y258274D01*
X158837Y257899D01*
X159500Y257767D01*
X160163Y257899D01*
X160307Y257995D01*
X160379Y257980D01*
X166109D01*
X166463Y257627D01*
X166463Y256500D01*
X166463Y256128D01*
Y255020D01*
X164363D01*
X164226Y255226D01*
X163663Y255601D01*
X163000Y255733D01*
X162337Y255601D01*
X161774Y255226D01*
X161399Y254663D01*
X161267Y254000D01*
X161399Y253337D01*
X161774Y252774D01*
X162337Y252399D01*
X163000Y252267D01*
X163663Y252399D01*
X164226Y252774D01*
X164363Y252980D01*
X166463D01*
Y251628D01*
X174312D01*
X174503Y251166D01*
X173291Y249954D01*
X173070Y249623D01*
X172992Y249233D01*
Y218319D01*
X168893Y214220D01*
X168431Y214411D01*
Y214500D01*
X165961D01*
Y215500D01*
X168768D01*
X170115Y216848D01*
X170469Y217377D01*
X170593Y218001D01*
Y218808D01*
X170631Y219000D01*
X170507Y219624D01*
X170153Y220153D01*
X169624Y220507D01*
X169000Y220631D01*
X168376Y220507D01*
X168092Y220318D01*
X167592Y220585D01*
Y239500D01*
X167673Y239599D01*
X169730D01*
X170355Y239723D01*
X170884Y240077D01*
X171653Y240846D01*
X172007Y241376D01*
X172131Y242000D01*
X172007Y242624D01*
X171653Y243154D01*
X171124Y243507D01*
X170500Y243631D01*
X169876Y243507D01*
X169346Y243154D01*
X169055Y242862D01*
X164906D01*
X162768Y245000D01*
X160461D01*
Y242693D01*
X163077Y240077D01*
X164329Y238824D01*
Y217470D01*
X162059D01*
Y218653D01*
X161981Y219044D01*
X161760Y219374D01*
X160332Y220803D01*
Y228041D01*
X158193D01*
Y228641D01*
X158115Y229031D01*
X157894Y229362D01*
X156142Y231114D01*
X155976Y231225D01*
X155704Y231497D01*
X155895Y231959D01*
X160332D01*
Y240639D01*
X158193D01*
Y241503D01*
X158115Y241893D01*
X157894Y242224D01*
X157588Y242530D01*
X157671Y243030D01*
X159461D01*
Y245500D01*
Y247970D01*
X156059D01*
Y270117D01*
X161184Y275242D01*
X161572Y274923D01*
D02*
G37*
G36*
X219207Y265481D02*
X219016Y265020D01*
X175537D01*
Y266372D01*
X175537D01*
Y266628D01*
X175537D01*
Y267980D01*
X216708D01*
X219207Y265481D01*
D02*
G37*
G36*
X227647Y255062D02*
X227455Y254600D01*
X224836D01*
X224593Y254600D01*
Y254600D01*
X224336D01*
Y254600D01*
X221035D01*
X219914Y255721D01*
X219583Y255942D01*
X219193Y256020D01*
X179779D01*
X179388Y255942D01*
X179058Y255721D01*
X175999Y252662D01*
X175537Y252853D01*
X175537Y256500D01*
X175537Y256872D01*
Y261128D01*
X175537Y261500D01*
X175537Y261872D01*
Y262980D01*
X219728D01*
X227647Y255062D01*
D02*
G37*
G36*
X296082Y263642D02*
Y261380D01*
X287104Y252402D01*
X285773D01*
Y254133D01*
X285795Y254155D01*
X285856Y254167D01*
X286154Y254366D01*
X295620Y263833D01*
X296082Y263642D01*
D02*
G37*
G36*
X273609Y269560D02*
X273776Y269455D01*
X273899Y268837D01*
X274274Y268274D01*
X274837Y267899D01*
X275500Y267767D01*
X276163Y267899D01*
X276726Y268274D01*
X276829Y268429D01*
X279258D01*
Y265451D01*
Y262892D01*
Y260333D01*
Y257774D01*
Y255215D01*
Y252656D01*
Y249837D01*
X278796Y249646D01*
X273678Y254764D01*
X273347Y254985D01*
X272957Y255063D01*
X262742D01*
Y259059D01*
X262905Y259091D01*
X263235Y259312D01*
X269978Y266055D01*
X270199Y266386D01*
X270249Y266635D01*
X273292Y269679D01*
X273609Y269560D01*
D02*
G37*
G36*
X166463Y281628D02*
X166463D01*
Y281372D01*
X166463D01*
Y280020D01*
X163500D01*
X163110Y279942D01*
X162779Y279721D01*
X154318Y271260D01*
X154097Y270930D01*
X154020Y270539D01*
Y247970D01*
X153189D01*
Y272247D01*
X163922Y282980D01*
X166463D01*
Y281628D01*
D02*
G37*
G36*
X222689Y245064D02*
X217603Y239978D01*
X211140D01*
X210949Y240440D01*
X216035Y245526D01*
X219336D01*
X219336Y245526D01*
X219593D01*
Y245526D01*
X219836Y245526D01*
X222498D01*
X222689Y245064D01*
D02*
G37*
G36*
X300365Y253132D02*
Y250669D01*
X293107Y243411D01*
X290644D01*
X290453Y243873D01*
X299903Y253323D01*
X300365Y253132D01*
D02*
G37*
G36*
X275480Y247578D02*
Y244756D01*
X275558Y244365D01*
X275779Y244035D01*
X278143Y241670D01*
X278474Y241449D01*
X278864Y241372D01*
X293529D01*
X293919Y241449D01*
X294250Y241670D01*
X299903Y247323D01*
X300365Y247132D01*
Y244669D01*
X295016Y239320D01*
X279122D01*
X268796Y249646D01*
X268465Y249867D01*
X268075Y249945D01*
X262742D01*
Y250465D01*
X272593D01*
X275480Y247578D01*
D02*
G37*
G36*
X277077Y238481D02*
X276885Y238020D01*
X262922D01*
X257212Y243729D01*
X257404Y244191D01*
X258984D01*
Y245972D01*
X259484D01*
Y246472D01*
X262742D01*
Y247906D01*
X267653D01*
X277077Y238481D01*
D02*
G37*
G36*
X179593Y252719D02*
Y250563D01*
X181965D01*
Y250063D01*
X182465D01*
Y245526D01*
X184336D01*
Y245526D01*
X184593D01*
Y245526D01*
X185945D01*
Y243840D01*
X185774Y243726D01*
X185399Y243163D01*
X185267Y242500D01*
X185399Y241837D01*
X185774Y241274D01*
X186337Y240899D01*
X187000Y240767D01*
X187185Y240803D01*
X187431Y240343D01*
X186508Y239420D01*
X186265Y239468D01*
X185602Y239336D01*
X185039Y238961D01*
X184664Y238398D01*
X184532Y237735D01*
X184664Y237072D01*
X185039Y236509D01*
X185531Y236180D01*
X185705Y235647D01*
X182807Y232749D01*
X182586Y232418D01*
X182508Y232028D01*
Y221567D01*
X182486Y221552D01*
X181986Y221819D01*
Y228041D01*
X175668D01*
Y219361D01*
X180105D01*
X180296Y218899D01*
X173147Y211750D01*
X169960D01*
X169768Y212211D01*
X174733Y217176D01*
X174954Y217507D01*
X175031Y217897D01*
Y240858D01*
X175274Y241023D01*
X175600Y240845D01*
X175668Y240639D01*
X175668D01*
X175668Y240639D01*
Y231959D01*
X181986D01*
Y240639D01*
X178629D01*
X178362Y241139D01*
X178545Y241414D01*
X178670Y242038D01*
Y242296D01*
X181465Y245091D01*
Y249563D01*
X179593D01*
Y247833D01*
X175885Y244125D01*
X175531Y243596D01*
X175031Y243647D01*
Y248811D01*
X179131Y252910D01*
X179593Y252719D01*
D02*
G37*
G36*
X132511Y230457D02*
X132527Y230327D01*
X132429Y229902D01*
X131708Y229603D01*
X130966Y229034D01*
X130397Y228292D01*
X130039Y227427D01*
X129917Y226500D01*
X130039Y225573D01*
X130397Y224708D01*
X130966Y223966D01*
X131708Y223397D01*
X132573Y223039D01*
X133500Y222917D01*
X134427Y223039D01*
X135200Y223358D01*
X136433Y222125D01*
Y219266D01*
X135933Y219111D01*
X135292Y219603D01*
X134427Y219961D01*
X133500Y220083D01*
X132573Y219961D01*
X131708Y219603D01*
X130966Y219034D01*
X130397Y218292D01*
X130039Y217427D01*
X129917Y216500D01*
X130039Y215573D01*
X130397Y214708D01*
X130966Y213966D01*
X131708Y213397D01*
X132573Y213039D01*
X133500Y212917D01*
X134262Y213017D01*
X141470Y205809D01*
X141800Y205588D01*
X142191Y205510D01*
X175309D01*
X175699Y205588D01*
X176030Y205809D01*
X185188Y214967D01*
X185650Y214775D01*
Y199195D01*
X182161D01*
Y192295D01*
X181161D01*
Y199195D01*
X177321D01*
Y193927D01*
X166495D01*
X166446Y194427D01*
X166586Y194455D01*
X167115Y194808D01*
X167154Y194846D01*
X167507Y195376D01*
X167631Y196000D01*
X167507Y196624D01*
X167154Y197153D01*
X166624Y197507D01*
X166000Y197631D01*
X165808Y197593D01*
X164068D01*
X163444Y197469D01*
X162915Y197115D01*
X160466Y194667D01*
X158933D01*
Y192295D01*
Y189924D01*
X162773D01*
Y190664D01*
X177321D01*
Y187703D01*
X166171Y176553D01*
X162860D01*
Y177293D01*
X161185D01*
Y174921D01*
X160685D01*
Y174421D01*
X158510D01*
Y174203D01*
X158439Y174155D01*
X157939Y174423D01*
Y177293D01*
X155896D01*
X152856Y180333D01*
Y192614D01*
X152732Y193238D01*
X152378Y193768D01*
X149100Y197046D01*
Y197273D01*
X152058Y200231D01*
X154093D01*
Y198979D01*
X162773D01*
Y203722D01*
X154093D01*
Y203494D01*
X151382D01*
X150758Y203369D01*
X150228Y203016D01*
X146793Y199580D01*
X144160D01*
Y198840D01*
X138600D01*
Y199580D01*
X133660D01*
Y194837D01*
X138600D01*
Y195577D01*
X144160D01*
Y194837D01*
X146695D01*
X149593Y191938D01*
Y187196D01*
X149100Y187179D01*
Y187179D01*
X144160D01*
Y184742D01*
X139049Y179631D01*
X136231D01*
X135964Y180131D01*
X136101Y180337D01*
X136233Y181000D01*
X136131Y181512D01*
Y182435D01*
X138600D01*
Y187179D01*
X133660D01*
Y184644D01*
X133346Y184331D01*
X132993Y183801D01*
X132869Y183177D01*
Y181512D01*
X132767Y181000D01*
X132899Y180337D01*
X133036Y180131D01*
X132769Y179631D01*
X132176D01*
X129179Y182629D01*
Y233136D01*
X129640Y233328D01*
X132511Y230457D01*
D02*
G37*
G36*
X202931Y220913D02*
X202681Y220863D01*
X202350Y220642D01*
X198780Y217072D01*
X195282D01*
Y217072D01*
X194907D01*
Y217072D01*
X192302D01*
X192111Y217534D01*
X195990Y221413D01*
X202882D01*
X202931Y220913D01*
D02*
G37*
G36*
X208250Y209660D02*
X210980D01*
Y203922D01*
X209816Y202758D01*
X209428Y203077D01*
X209601Y203337D01*
X209733Y204000D01*
X209601Y204663D01*
X209226Y205226D01*
X208663Y205601D01*
X208000Y205733D01*
X207757Y205685D01*
X206217Y207225D01*
X205886Y207446D01*
X205496Y207523D01*
X199395D01*
Y208876D01*
X196437D01*
X193877Y211435D01*
X194085Y211935D01*
X194907D01*
Y211935D01*
X195282D01*
Y211935D01*
X200025D01*
Y215434D01*
X203493Y218902D01*
X208250D01*
Y209660D01*
D02*
G37*
G36*
X155767Y210811D02*
X155575Y210349D01*
X143773D01*
X141637Y212485D01*
X141828Y212947D01*
X143000D01*
Y216500D01*
X143500D01*
Y217000D01*
X147053D01*
Y218818D01*
X147553Y219025D01*
X155767Y210811D01*
D02*
G37*
G36*
X195243Y206800D02*
Y204132D01*
X199395D01*
Y205484D01*
X205074D01*
X206315Y204243D01*
X206267Y204000D01*
X206399Y203337D01*
X206774Y202774D01*
X207337Y202399D01*
X208000Y202267D01*
X208663Y202399D01*
X208923Y202572D01*
X209242Y202184D01*
X205578Y198520D01*
X199931D01*
Y200068D01*
X195187D01*
X195187Y200068D01*
X194813D01*
Y200068D01*
X194687Y200068D01*
X190691D01*
Y202719D01*
X192095Y204122D01*
Y206504D01*
X193095D01*
Y204132D01*
X194671D01*
Y206581D01*
X195171Y206848D01*
X195243Y206800D01*
D02*
G37*
G36*
X185650Y181592D02*
X178702Y174644D01*
X178454Y174810D01*
X177791Y174942D01*
X177128Y174810D01*
X176565Y174434D01*
X176190Y173872D01*
X176058Y173208D01*
X176190Y172545D01*
X176565Y171983D01*
X177128Y171607D01*
X177498Y171533D01*
Y166014D01*
X175520D01*
Y166637D01*
X175726Y166774D01*
X176101Y167337D01*
X176233Y168000D01*
X176101Y168663D01*
X175726Y169226D01*
X175163Y169601D01*
X174500Y169733D01*
X173837Y169601D01*
X173274Y169226D01*
X172899Y168663D01*
X172767Y168000D01*
X172899Y167337D01*
X173274Y166774D01*
X173480Y166637D01*
Y166014D01*
X171422D01*
Y161376D01*
X166783D01*
Y159429D01*
X165803D01*
X164346Y160886D01*
Y165921D01*
X164346Y165921D01*
X164261Y166350D01*
X164017Y166714D01*
X164017Y166714D01*
X161807Y168925D01*
Y172550D01*
X162860D01*
Y173290D01*
X166847D01*
X167471Y173414D01*
X168000Y173768D01*
X179628Y185396D01*
X180378D01*
Y183000D01*
X180464Y182571D01*
X180707Y182207D01*
X181071Y181964D01*
X181500Y181878D01*
X181929Y181964D01*
X182293Y182207D01*
X182536Y182571D01*
X182622Y183000D01*
Y185396D01*
X185650D01*
Y181592D01*
D02*
G37*
G36*
X231480Y185078D02*
Y163096D01*
X227447D01*
Y157020D01*
X209356D01*
Y158962D01*
X206823D01*
Y159385D01*
X206745Y159775D01*
X206625Y159955D01*
X206733Y160500D01*
X206601Y161163D01*
X206314Y161593D01*
X206507Y162093D01*
X209356D01*
Y168017D01*
X202250D01*
Y163191D01*
X202231Y163093D01*
Y162925D01*
X198779Y159473D01*
X198558Y159142D01*
X198480Y158752D01*
Y154873D01*
X198234Y154770D01*
X197773Y155111D01*
Y159017D01*
X193227D01*
Y157960D01*
X191991D01*
X191601Y157883D01*
X191270Y157662D01*
X188907Y155299D01*
X188284D01*
Y157026D01*
Y161376D01*
X183646D01*
Y166014D01*
X183540D01*
Y168593D01*
X183812Y168774D01*
X184188Y169337D01*
X184320Y170000D01*
X184188Y170663D01*
X183812Y171226D01*
X183250Y171601D01*
X182802Y171690D01*
X182451Y172177D01*
X182468Y172265D01*
X182342Y172900D01*
X188790Y179348D01*
X189011Y179679D01*
X189089Y180069D01*
Y184232D01*
X189589Y184384D01*
X189707Y184207D01*
X190071Y183964D01*
X190500Y183878D01*
X190929Y183964D01*
X191016Y184022D01*
X191516Y183755D01*
Y181872D01*
X190561D01*
Y180000D01*
X192638D01*
X194714D01*
Y181872D01*
X193759D01*
Y186932D01*
X194813D01*
Y186932D01*
X195187D01*
Y186932D01*
X198489D01*
X203840Y181580D01*
X204171Y181359D01*
X204561Y181281D01*
X208250D01*
Y173518D01*
X215750D01*
Y183301D01*
X209349D01*
X209250Y183320D01*
X204984D01*
X199931Y188373D01*
Y191449D01*
X225109D01*
X231480Y185078D01*
D02*
G37*
G36*
X149100Y182435D02*
X149593Y182419D01*
Y179657D01*
X149717Y179033D01*
X150071Y178504D01*
X153589Y174986D01*
Y172550D01*
X156589D01*
X156781Y172088D01*
X155847Y171153D01*
X155493Y170624D01*
X155369Y170000D01*
X155493Y169376D01*
X155847Y168846D01*
X156376Y168493D01*
X157000Y168369D01*
X157624Y168493D01*
X158153Y168846D01*
X159101Y169794D01*
X159564Y169603D01*
Y168461D01*
X159564Y168461D01*
X159649Y168032D01*
X159892Y167668D01*
X160237Y167323D01*
X159973Y166879D01*
X155160D01*
Y166738D01*
X150261D01*
Y171020D01*
X150137Y171644D01*
X149784Y172174D01*
X147856Y174101D01*
Y182435D01*
X149100D01*
Y182435D01*
D02*
G37*
G36*
X162103Y165457D02*
Y160421D01*
X162103Y160421D01*
X162188Y159992D01*
X162431Y159628D01*
X164219Y157841D01*
X164012Y157341D01*
X154076D01*
X153686Y157263D01*
X153355Y157042D01*
X151910Y155597D01*
X151522Y155916D01*
X151731Y156229D01*
X151863Y156893D01*
X151731Y157556D01*
X151356Y158118D01*
X150793Y158494D01*
X150130Y158626D01*
X149467Y158494D01*
X148904Y158118D01*
X148767Y157912D01*
X147818D01*
X147674Y158412D01*
X147948Y158596D01*
X148753Y159401D01*
X149254Y159501D01*
X149679Y159784D01*
X149980D01*
X150070Y159650D01*
X150632Y159274D01*
X151296Y159142D01*
X151959Y159274D01*
X152521Y159650D01*
X152897Y160212D01*
X153029Y160875D01*
X152897Y161538D01*
X152521Y162101D01*
X151959Y162477D01*
X151296Y162608D01*
X150761Y162502D01*
X150379Y162718D01*
X150261Y162830D01*
Y163475D01*
X155160D01*
Y162136D01*
X160100D01*
Y166753D01*
X160543Y167016D01*
X162103Y165457D01*
D02*
G37*
G36*
X162176Y154892D02*
X162159Y154801D01*
X162029Y154148D01*
X162161Y153485D01*
X162537Y152923D01*
X162872Y152699D01*
X162901Y152549D01*
X162845Y152127D01*
X162404Y151832D01*
X162029Y151270D01*
X161897Y150606D01*
X162029Y149943D01*
X162404Y149381D01*
X162967Y149005D01*
X163630Y148873D01*
X164293Y149005D01*
X164464Y149119D01*
X169457D01*
X169622Y149152D01*
X171422D01*
Y144513D01*
X171593D01*
Y143827D01*
X168052D01*
X165815Y146063D01*
X165485Y146284D01*
X165094Y146362D01*
X162387D01*
Y147714D01*
X159873D01*
X158650Y148938D01*
Y149735D01*
X160100D01*
Y154478D01*
X155160D01*
Y149735D01*
X156610D01*
Y148516D01*
X156687Y148129D01*
X156667Y148099D01*
X156361Y147714D01*
X153968D01*
X152149Y149532D01*
Y153333D01*
X152488Y153401D01*
X152818Y153622D01*
X154498Y155301D01*
X161893D01*
X162176Y154892D01*
D02*
G37*
G36*
X166909Y142086D02*
X167240Y141865D01*
X167630Y141788D01*
X174112D01*
X174503Y141865D01*
X174833Y142086D01*
X175030Y142283D01*
X175530Y142076D01*
Y139376D01*
X175030Y139270D01*
X174726Y139726D01*
X174163Y140101D01*
X173500Y140233D01*
X172837Y140101D01*
X172274Y139726D01*
X172145Y139532D01*
X172049D01*
X171581Y139439D01*
X171184Y139174D01*
X168689Y136679D01*
X165676D01*
Y135452D01*
X165406Y135317D01*
X165176Y135259D01*
X164663Y135601D01*
X164000Y135733D01*
X163453Y135625D01*
X163094Y135845D01*
X162978Y135963D01*
Y142002D01*
X161429D01*
Y142971D01*
X162387D01*
Y144323D01*
X164672D01*
X166909Y142086D01*
D02*
G37*
G36*
X175530Y137624D02*
Y135958D01*
X173676D01*
Y132952D01*
X170919Y130195D01*
X170419Y130403D01*
Y130773D01*
X166163D01*
X165956Y131273D01*
X167406Y132723D01*
X170419D01*
Y134948D01*
X172556Y137085D01*
X172557D01*
X172837Y136899D01*
X173500Y136767D01*
X174163Y136899D01*
X174726Y137274D01*
X175030Y137730D01*
X175530Y137624D01*
D02*
G37*
%LPC*%
G36*
X261000Y352518D02*
Y349500D01*
X264018D01*
X263961Y349927D01*
X263603Y350792D01*
X263034Y351534D01*
X262292Y352103D01*
X261427Y352461D01*
X261000Y352518D01*
D02*
G37*
G36*
X260000D02*
X259573Y352461D01*
X258708Y352103D01*
X257966Y351534D01*
X257397Y350792D01*
X257039Y349927D01*
X256982Y349500D01*
X260000D01*
Y352518D01*
D02*
G37*
G36*
X280500Y352583D02*
X279573Y352461D01*
X278708Y352103D01*
X277966Y351534D01*
X277397Y350792D01*
X277039Y349927D01*
X276917Y349000D01*
X277039Y348073D01*
X277397Y347208D01*
X277966Y346466D01*
X278708Y345897D01*
X279573Y345539D01*
X280500Y345417D01*
X281427Y345539D01*
X282292Y345897D01*
X283034Y346466D01*
X283603Y347208D01*
X283961Y348073D01*
X284083Y349000D01*
X283961Y349927D01*
X283603Y350792D01*
X283034Y351534D01*
X282292Y352103D01*
X281427Y352461D01*
X280500Y352583D01*
D02*
G37*
G36*
X270500D02*
X269573Y352461D01*
X268708Y352103D01*
X267966Y351534D01*
X267397Y350792D01*
X267039Y349927D01*
X266917Y349000D01*
X267039Y348073D01*
X267397Y347208D01*
X267966Y346466D01*
X268708Y345897D01*
X269573Y345539D01*
X270500Y345417D01*
X271427Y345539D01*
X272292Y345897D01*
X273034Y346466D01*
X273603Y347208D01*
X273961Y348073D01*
X274083Y349000D01*
X273961Y349927D01*
X273603Y350792D01*
X273034Y351534D01*
X272292Y352103D01*
X271427Y352461D01*
X270500Y352583D01*
D02*
G37*
G36*
X264018Y348500D02*
X256982D01*
X257039Y348073D01*
X257397Y347208D01*
X257966Y346466D01*
X258708Y345897D01*
X259379Y345619D01*
Y339965D01*
X258467Y339053D01*
X257000D01*
Y336000D01*
X260053D01*
Y337467D01*
X261293Y338707D01*
X261293Y338707D01*
X261536Y339071D01*
X261621Y339500D01*
Y345619D01*
X262292Y345897D01*
X263034Y346466D01*
X263603Y347208D01*
X263961Y348073D01*
X264018Y348500D01*
D02*
G37*
G36*
X256000Y339053D02*
X252947D01*
Y336000D01*
X256000D01*
Y339053D01*
D02*
G37*
G36*
X260053Y335000D02*
X252947D01*
Y331947D01*
X255379D01*
Y326553D01*
X252947D01*
Y323500D01*
X260053D01*
Y326553D01*
X257622D01*
Y331947D01*
X260053D01*
Y335000D01*
D02*
G37*
G36*
Y322500D02*
X257000D01*
Y319447D01*
X260053D01*
Y322500D01*
D02*
G37*
G36*
X337500Y352500D02*
X326403D01*
X326507Y351180D01*
X326934Y349404D01*
X327632Y347717D01*
X328586Y346161D01*
X329772Y344772D01*
X331161Y343586D01*
X332717Y342632D01*
X334404Y341934D01*
X336180Y341507D01*
X337500Y341404D01*
Y352500D01*
D02*
G37*
G36*
X133000Y340018D02*
X132573Y339961D01*
X131708Y339603D01*
X130966Y339034D01*
X130397Y338292D01*
X130039Y337427D01*
X129982Y337000D01*
X133000D01*
Y340018D01*
D02*
G37*
G36*
X343579Y334553D02*
X343151Y334497D01*
X342287Y334139D01*
X341545Y333569D01*
X340975Y332827D01*
X340617Y331963D01*
X340561Y331535D01*
X343579D01*
Y334553D01*
D02*
G37*
G36*
X309635Y337273D02*
X305483D01*
Y332727D01*
X308537D01*
X308635Y332707D01*
X320459D01*
X320769Y332329D01*
X320617Y331963D01*
X320495Y331035D01*
X320617Y330108D01*
X320975Y329244D01*
X321545Y328502D01*
X322287Y327932D01*
X323151Y327574D01*
X324079Y327452D01*
X325006Y327574D01*
X325870Y327932D01*
X326613Y328502D01*
X327182Y329244D01*
X327540Y330108D01*
X327662Y331035D01*
X327540Y331963D01*
X327182Y332827D01*
X326613Y333569D01*
X325870Y334139D01*
X325006Y334497D01*
X324079Y334619D01*
X323151Y334497D01*
X322287Y334139D01*
X322083Y333982D01*
X321618Y334448D01*
X321287Y334669D01*
X320897Y334746D01*
X309635D01*
Y337273D01*
D02*
G37*
G36*
X309576Y330907D02*
X305424D01*
Y326360D01*
X309576D01*
Y327614D01*
X316059D01*
X320937Y322735D01*
X320617Y321963D01*
X320495Y321035D01*
X320617Y320108D01*
X320975Y319244D01*
X321545Y318502D01*
X322287Y317932D01*
X323151Y317574D01*
X324079Y317452D01*
X325006Y317574D01*
X325870Y317932D01*
X326613Y318502D01*
X327182Y319244D01*
X327540Y320108D01*
X327662Y321035D01*
X327540Y321963D01*
X327182Y322827D01*
X326613Y323569D01*
X325870Y324139D01*
X325006Y324497D01*
X324079Y324619D01*
X323151Y324497D01*
X322379Y324177D01*
X317202Y329354D01*
X316871Y329575D01*
X316481Y329653D01*
X309576D01*
Y330907D01*
D02*
G37*
G36*
X309635Y324540D02*
X305483D01*
Y319993D01*
X309635D01*
Y321247D01*
X312425D01*
X320937Y312735D01*
X320617Y311963D01*
X320495Y311035D01*
X320617Y310108D01*
X320975Y309244D01*
X321545Y308502D01*
X322287Y307932D01*
X323151Y307574D01*
X324079Y307452D01*
X325006Y307574D01*
X325870Y307932D01*
X326613Y308502D01*
X327182Y309244D01*
X327540Y310108D01*
X327662Y311035D01*
X327540Y311963D01*
X327182Y312827D01*
X326613Y313569D01*
X325870Y314139D01*
X325006Y314497D01*
X324079Y314619D01*
X323151Y314497D01*
X322379Y314177D01*
X313568Y322988D01*
X313238Y323209D01*
X312848Y323286D01*
X309635D01*
Y324540D01*
D02*
G37*
G36*
X334079Y334619D02*
X333151Y334497D01*
X332287Y334139D01*
X331545Y333569D01*
X330975Y332827D01*
X330617Y331963D01*
X330495Y331035D01*
X330617Y330108D01*
X330975Y329244D01*
X331545Y328502D01*
X332287Y327932D01*
X332447Y327866D01*
Y324205D01*
X332287Y324139D01*
X331545Y323569D01*
X330975Y322827D01*
X330617Y321963D01*
X330495Y321035D01*
X330617Y320108D01*
X330975Y319244D01*
X331545Y318502D01*
X332287Y317932D01*
X332447Y317866D01*
Y314205D01*
X332287Y314139D01*
X331545Y313569D01*
X330975Y312827D01*
X330617Y311963D01*
X330495Y311035D01*
X330617Y310108D01*
X330975Y309244D01*
X331545Y308502D01*
X332287Y307932D01*
X332447Y307866D01*
Y304205D01*
X332287Y304139D01*
X331545Y303569D01*
X330975Y302827D01*
X330617Y301963D01*
X330495Y301035D01*
X330617Y300108D01*
X330975Y299244D01*
X331545Y298502D01*
X332287Y297932D01*
X332447Y297866D01*
Y294205D01*
X332287Y294139D01*
X331545Y293569D01*
X330975Y292827D01*
X330617Y291963D01*
X330495Y291035D01*
X330617Y290108D01*
X330975Y289244D01*
X331545Y288502D01*
X332287Y287932D01*
X332447Y287866D01*
Y284205D01*
X332287Y284139D01*
X331545Y283569D01*
X330975Y282827D01*
X330617Y281963D01*
X330495Y281035D01*
X330617Y280108D01*
X330975Y279244D01*
X331545Y278502D01*
X332287Y277932D01*
X332447Y277866D01*
Y274205D01*
X332287Y274139D01*
X331545Y273569D01*
X330975Y272827D01*
X330617Y271963D01*
X330495Y271035D01*
X330617Y270108D01*
X330975Y269244D01*
X331545Y268502D01*
X332287Y267932D01*
X332447Y267866D01*
Y264205D01*
X332287Y264139D01*
X331545Y263569D01*
X330975Y262827D01*
X330617Y261963D01*
X330495Y261035D01*
X330617Y260108D01*
X330975Y259244D01*
X331545Y258502D01*
X332287Y257932D01*
X332447Y257866D01*
Y254205D01*
X332287Y254139D01*
X331545Y253569D01*
X330975Y252827D01*
X330617Y251963D01*
X330495Y251035D01*
X330617Y250108D01*
X330975Y249244D01*
X331545Y248502D01*
X332287Y247932D01*
X332447Y247866D01*
Y244205D01*
X332287Y244139D01*
X331545Y243569D01*
X330975Y242827D01*
X330617Y241963D01*
X330495Y241035D01*
X330617Y240108D01*
X330975Y239244D01*
X331545Y238502D01*
X332287Y237932D01*
X332447Y237866D01*
Y234205D01*
X332287Y234139D01*
X331545Y233569D01*
X330975Y232827D01*
X330617Y231963D01*
X330495Y231035D01*
X330617Y230108D01*
X330975Y229244D01*
X331545Y228502D01*
X332287Y227932D01*
X332447Y227866D01*
Y224205D01*
X332287Y224139D01*
X331545Y223569D01*
X330975Y222827D01*
X330617Y221963D01*
X330495Y221035D01*
X330617Y220108D01*
X330975Y219244D01*
X331545Y218502D01*
X332287Y217932D01*
X332447Y217866D01*
Y214205D01*
X332287Y214139D01*
X331545Y213569D01*
X330975Y212827D01*
X330617Y211963D01*
X330495Y211035D01*
X330617Y210108D01*
X330975Y209244D01*
X331545Y208502D01*
X332287Y207932D01*
X332447Y207866D01*
Y204205D01*
X332287Y204139D01*
X331545Y203569D01*
X330975Y202827D01*
X330617Y201963D01*
X330495Y201035D01*
X330617Y200108D01*
X330975Y199244D01*
X331545Y198502D01*
X332287Y197932D01*
X332447Y197866D01*
Y194205D01*
X332287Y194139D01*
X331545Y193569D01*
X330975Y192827D01*
X330617Y191963D01*
X330495Y191035D01*
X330617Y190108D01*
X330975Y189244D01*
X331545Y188502D01*
X332287Y187932D01*
X332447Y187866D01*
Y184588D01*
X330526D01*
Y179790D01*
X328070Y177333D01*
X327631Y177602D01*
X327631Y177933D01*
Y184588D01*
X321968D01*
X315400Y191156D01*
Y197619D01*
X315862Y197810D01*
X320937Y192735D01*
X320617Y191963D01*
X320495Y191035D01*
X320617Y190108D01*
X320975Y189244D01*
X321545Y188502D01*
X322287Y187932D01*
X323151Y187574D01*
X324079Y187452D01*
X325006Y187574D01*
X325870Y187932D01*
X326613Y188502D01*
X327182Y189244D01*
X327540Y190108D01*
X327662Y191035D01*
X327540Y191963D01*
X327182Y192827D01*
X326613Y193569D01*
X325870Y194139D01*
X325006Y194497D01*
X324079Y194619D01*
X323151Y194497D01*
X322379Y194177D01*
X316888Y199668D01*
Y206131D01*
X317350Y206322D01*
X320937Y202735D01*
X320617Y201963D01*
X320495Y201035D01*
X320617Y200108D01*
X320975Y199244D01*
X321545Y198502D01*
X322287Y197932D01*
X323151Y197574D01*
X324079Y197452D01*
X325006Y197574D01*
X325870Y197932D01*
X326613Y198502D01*
X327182Y199244D01*
X327540Y200108D01*
X327662Y201035D01*
X327540Y201963D01*
X327182Y202827D01*
X326613Y203569D01*
X325870Y204139D01*
X325006Y204497D01*
X324079Y204619D01*
X323151Y204497D01*
X322379Y204177D01*
X318188Y208368D01*
Y214831D01*
X318650Y215022D01*
X320937Y212735D01*
X320617Y211963D01*
X320495Y211035D01*
X320617Y210108D01*
X320975Y209244D01*
X321545Y208502D01*
X322287Y207932D01*
X323151Y207574D01*
X324079Y207452D01*
X325006Y207574D01*
X325870Y207932D01*
X326613Y208502D01*
X327182Y209244D01*
X327540Y210108D01*
X327662Y211035D01*
X327540Y211963D01*
X327182Y212827D01*
X326613Y213569D01*
X325870Y214139D01*
X325006Y214497D01*
X324079Y214619D01*
X323151Y214497D01*
X322379Y214177D01*
X319488Y217068D01*
Y222360D01*
X319411Y222750D01*
X319190Y223081D01*
X316155Y226116D01*
Y226864D01*
X316617Y227055D01*
X320937Y222735D01*
X320617Y221963D01*
X320495Y221035D01*
X320617Y220108D01*
X320975Y219244D01*
X321545Y218502D01*
X322287Y217932D01*
X323151Y217574D01*
X324079Y217452D01*
X325006Y217574D01*
X325870Y217932D01*
X326613Y218502D01*
X327182Y219244D01*
X327540Y220108D01*
X327662Y221035D01*
X327540Y221963D01*
X327182Y222827D01*
X326613Y223569D01*
X325870Y224139D01*
X325006Y224497D01*
X324079Y224619D01*
X323151Y224497D01*
X322379Y224177D01*
X317455Y229101D01*
Y235564D01*
X317917Y235755D01*
X320937Y232735D01*
X320617Y231963D01*
X320495Y231035D01*
X320617Y230108D01*
X320975Y229244D01*
X321545Y228502D01*
X322287Y227932D01*
X323151Y227574D01*
X324079Y227452D01*
X325006Y227574D01*
X325870Y227932D01*
X326613Y228502D01*
X327182Y229244D01*
X327540Y230108D01*
X327662Y231035D01*
X327540Y231963D01*
X327182Y232827D01*
X326613Y233569D01*
X325870Y234139D01*
X325006Y234497D01*
X324079Y234619D01*
X323151Y234497D01*
X322379Y234177D01*
X318755Y237801D01*
Y244264D01*
X319217Y244455D01*
X320937Y242735D01*
X320617Y241963D01*
X320495Y241035D01*
X320617Y240108D01*
X320975Y239244D01*
X321545Y238502D01*
X322287Y237932D01*
X323151Y237574D01*
X324079Y237452D01*
X325006Y237574D01*
X325870Y237932D01*
X326613Y238502D01*
X327182Y239244D01*
X327540Y240108D01*
X327662Y241035D01*
X327540Y241963D01*
X327182Y242827D01*
X326613Y243569D01*
X325870Y244139D01*
X325006Y244497D01*
X324079Y244619D01*
X323151Y244497D01*
X322379Y244177D01*
X320055Y246501D01*
Y250551D01*
X320555Y250583D01*
X320617Y250108D01*
X320975Y249244D01*
X321545Y248502D01*
X322287Y247932D01*
X323151Y247574D01*
X324079Y247452D01*
X325006Y247574D01*
X325870Y247932D01*
X326613Y248502D01*
X327182Y249244D01*
X327540Y250108D01*
X327662Y251035D01*
X327540Y251963D01*
X327182Y252827D01*
X326613Y253569D01*
X325870Y254139D01*
X325098Y254459D01*
Y255587D01*
X325021Y255977D01*
X324800Y256308D01*
X324150Y256957D01*
X324329Y257485D01*
X325006Y257574D01*
X325870Y257932D01*
X326613Y258502D01*
X327182Y259244D01*
X327540Y260108D01*
X327662Y261035D01*
X327540Y261963D01*
X327182Y262827D01*
X326613Y263569D01*
X325870Y264139D01*
X325006Y264497D01*
X324079Y264619D01*
X323151Y264497D01*
X322379Y264177D01*
X319822Y266734D01*
Y273197D01*
X320284Y273388D01*
X320937Y272735D01*
X320617Y271963D01*
X320495Y271035D01*
X320617Y270108D01*
X320975Y269244D01*
X321545Y268502D01*
X322287Y267932D01*
X323151Y267574D01*
X324079Y267452D01*
X325006Y267574D01*
X325870Y267932D01*
X326613Y268502D01*
X327182Y269244D01*
X327540Y270108D01*
X327662Y271035D01*
X327540Y271963D01*
X327182Y272827D01*
X326613Y273569D01*
X325870Y274139D01*
X325006Y274497D01*
X324079Y274619D01*
X323151Y274497D01*
X322379Y274177D01*
X321122Y275434D01*
Y278310D01*
X321622Y278442D01*
X322287Y277932D01*
X323151Y277574D01*
X324079Y277452D01*
X325006Y277574D01*
X325870Y277932D01*
X326613Y278502D01*
X327182Y279244D01*
X327540Y280108D01*
X327662Y281035D01*
X327540Y281963D01*
X327182Y282827D01*
X326613Y283569D01*
X325870Y284139D01*
X325006Y284497D01*
X324079Y284619D01*
X323151Y284497D01*
X322964Y284419D01*
X316888Y290495D01*
Y294660D01*
X316811Y295050D01*
X316590Y295381D01*
X309635Y302335D01*
Y305111D01*
X310135Y305318D01*
X321566Y293888D01*
X321545Y293569D01*
X320975Y292827D01*
X320617Y291963D01*
X320495Y291035D01*
X320617Y290108D01*
X320975Y289244D01*
X321545Y288502D01*
X322287Y287932D01*
X323151Y287574D01*
X324079Y287452D01*
X325006Y287574D01*
X325870Y287932D01*
X326613Y288502D01*
X327182Y289244D01*
X327540Y290108D01*
X327662Y291035D01*
X327540Y291963D01*
X327182Y292827D01*
X326613Y293569D01*
X325870Y294139D01*
X325006Y294497D01*
X324079Y294619D01*
X323761Y294577D01*
X309635Y308702D01*
Y311478D01*
X310135Y311685D01*
X320529Y301291D01*
X320529Y301291D01*
X320495Y301035D01*
X320617Y300108D01*
X320975Y299244D01*
X321545Y298502D01*
X322287Y297932D01*
X323151Y297574D01*
X324079Y297452D01*
X325006Y297574D01*
X325870Y297932D01*
X326613Y298502D01*
X327182Y299244D01*
X327540Y300108D01*
X327662Y301035D01*
X327540Y301963D01*
X327182Y302827D01*
X326613Y303569D01*
X325870Y304139D01*
X325006Y304497D01*
X324079Y304619D01*
X323151Y304497D01*
X322287Y304139D01*
X321545Y303569D01*
X321160Y303544D01*
X309635Y315069D01*
Y318173D01*
X305483D01*
Y313627D01*
X308193D01*
X309514Y312306D01*
X309307Y311807D01*
X305483D01*
Y307260D01*
X308193D01*
X309514Y305940D01*
X309307Y305440D01*
X305483D01*
Y300893D01*
X308193D01*
X309514Y299573D01*
X309307Y299073D01*
X309193Y299073D01*
X309193Y299073D01*
X309188Y299073D01*
X305424D01*
Y294527D01*
X308135D01*
X309455Y293207D01*
X309248Y292706D01*
X305483D01*
Y288160D01*
X308193D01*
X309514Y286840D01*
X309307Y286340D01*
X305483D01*
Y281793D01*
X308193D01*
X309514Y280473D01*
X309307Y279973D01*
X305483D01*
Y275427D01*
X308193D01*
X309514Y274107D01*
X309307Y273606D01*
X305483D01*
Y269060D01*
X308193D01*
X309514Y267740D01*
X309307Y267240D01*
X305483D01*
Y262693D01*
X308193D01*
X309514Y261373D01*
X309307Y260873D01*
X305483D01*
Y256327D01*
X308193D01*
X309514Y255007D01*
X309307Y254507D01*
X305483D01*
Y249960D01*
X308193D01*
X309514Y248640D01*
X309307Y248140D01*
X305483D01*
Y243593D01*
X308193D01*
X309514Y242273D01*
X309307Y241773D01*
X305483D01*
Y237227D01*
X306540D01*
Y227754D01*
X306617Y227364D01*
X306838Y227033D01*
X313361Y220510D01*
Y190734D01*
X313438Y190344D01*
X313659Y190013D01*
X320526Y183146D01*
Y177483D01*
X327148D01*
X327512Y177483D01*
X327781Y177044D01*
X324368Y173631D01*
X313176D01*
X307791Y179016D01*
X307262Y179369D01*
X306638Y179494D01*
X294372D01*
Y179939D01*
X292231D01*
X290131Y182038D01*
Y192988D01*
X290233Y193500D01*
X290131Y194012D01*
Y203500D01*
Y206667D01*
X298306Y214841D01*
X302316D01*
Y221159D01*
X295998D01*
Y217148D01*
X287347Y208496D01*
X287015Y207999D01*
X286926Y207924D01*
X286509Y207798D01*
X286154Y208154D01*
X285624Y208507D01*
X285000Y208631D01*
X276666D01*
X265533Y219764D01*
X265004Y220117D01*
X264380Y220242D01*
X256970D01*
Y223006D01*
X260128D01*
Y222561D01*
X264872D01*
Y226714D01*
X260128D01*
Y226269D01*
X256970D01*
Y231990D01*
X252030D01*
Y217010D01*
X255212D01*
X255370Y216979D01*
X263704D01*
X274837Y205847D01*
X275366Y205493D01*
X275990Y205369D01*
X284324D01*
X284800Y204893D01*
X284609Y204431D01*
X265000D01*
Y186614D01*
X285474D01*
Y203566D01*
X285936Y203757D01*
X286869Y202824D01*
Y194012D01*
X286767Y193500D01*
X286869Y192988D01*
Y181362D01*
X286993Y180738D01*
X287347Y180209D01*
X289628Y177927D01*
Y175786D01*
X294372D01*
Y176231D01*
X305962D01*
X309550Y172643D01*
X290347Y153439D01*
X289993Y152910D01*
X289869Y152285D01*
Y146939D01*
X289128D01*
Y142786D01*
X293872D01*
Y143231D01*
X294462D01*
X295484Y142209D01*
X295774Y141774D01*
X296337Y141399D01*
X297000Y141267D01*
X297663Y141399D01*
X298226Y141774D01*
X298601Y142337D01*
X298733Y143000D01*
X298601Y143663D01*
X298226Y144226D01*
X297791Y144516D01*
X296291Y146016D01*
X295762Y146369D01*
X295138Y146494D01*
X293872D01*
Y146939D01*
X293131D01*
Y151610D01*
X311890Y170369D01*
X325043D01*
X325668Y170493D01*
X326197Y170846D01*
X332833Y177483D01*
X337632D01*
Y184588D01*
X335710D01*
Y187866D01*
X335870Y187932D01*
X336613Y188502D01*
X337182Y189244D01*
X337540Y190108D01*
X337662Y191035D01*
X337540Y191963D01*
X337182Y192827D01*
X336613Y193569D01*
X335870Y194139D01*
X335710Y194205D01*
Y197866D01*
X335870Y197932D01*
X336613Y198502D01*
X337182Y199244D01*
X337540Y200108D01*
X337662Y201035D01*
X337540Y201963D01*
X337182Y202827D01*
X336613Y203569D01*
X335870Y204139D01*
X335710Y204205D01*
Y207866D01*
X335870Y207932D01*
X336613Y208502D01*
X337182Y209244D01*
X337540Y210108D01*
X337662Y211035D01*
X337540Y211963D01*
X337182Y212827D01*
X336613Y213569D01*
X335870Y214139D01*
X335710Y214205D01*
Y217866D01*
X335870Y217932D01*
X336613Y218502D01*
X337182Y219244D01*
X337540Y220108D01*
X337662Y221035D01*
X337540Y221963D01*
X337182Y222827D01*
X336613Y223569D01*
X335870Y224139D01*
X335710Y224205D01*
Y227866D01*
X335870Y227932D01*
X336613Y228502D01*
X337182Y229244D01*
X337540Y230108D01*
X337662Y231035D01*
X337540Y231963D01*
X337182Y232827D01*
X336613Y233569D01*
X335870Y234139D01*
X335710Y234205D01*
Y237866D01*
X335870Y237932D01*
X336613Y238502D01*
X337182Y239244D01*
X337540Y240108D01*
X337662Y241035D01*
X337540Y241963D01*
X337182Y242827D01*
X336613Y243569D01*
X335870Y244139D01*
X335710Y244205D01*
Y247866D01*
X335870Y247932D01*
X336613Y248502D01*
X337182Y249244D01*
X337540Y250108D01*
X337662Y251035D01*
X337540Y251963D01*
X337182Y252827D01*
X336613Y253569D01*
X335870Y254139D01*
X335710Y254205D01*
Y257866D01*
X335870Y257932D01*
X336613Y258502D01*
X337182Y259244D01*
X337540Y260108D01*
X337662Y261035D01*
X337540Y261963D01*
X337182Y262827D01*
X336613Y263569D01*
X335870Y264139D01*
X335710Y264205D01*
Y267866D01*
X335870Y267932D01*
X336613Y268502D01*
X337182Y269244D01*
X337540Y270108D01*
X337662Y271035D01*
X337540Y271963D01*
X337182Y272827D01*
X336613Y273569D01*
X335870Y274139D01*
X335710Y274205D01*
Y277866D01*
X335870Y277932D01*
X336613Y278502D01*
X337182Y279244D01*
X337540Y280108D01*
X337662Y281035D01*
X337540Y281963D01*
X337182Y282827D01*
X336613Y283569D01*
X335870Y284139D01*
X335710Y284205D01*
Y287866D01*
X335870Y287932D01*
X336613Y288502D01*
X337182Y289244D01*
X337540Y290108D01*
X337662Y291035D01*
X337540Y291963D01*
X337182Y292827D01*
X336613Y293569D01*
X335870Y294139D01*
X335710Y294205D01*
Y297866D01*
X335870Y297932D01*
X336613Y298502D01*
X337182Y299244D01*
X337540Y300108D01*
X337662Y301035D01*
X337540Y301963D01*
X337182Y302827D01*
X336613Y303569D01*
X335870Y304139D01*
X335710Y304205D01*
Y307866D01*
X335870Y307932D01*
X336613Y308502D01*
X337182Y309244D01*
X337540Y310108D01*
X337662Y311035D01*
X337540Y311963D01*
X337182Y312827D01*
X336613Y313569D01*
X335870Y314139D01*
X335710Y314205D01*
Y317866D01*
X335870Y317932D01*
X336613Y318502D01*
X337182Y319244D01*
X337540Y320108D01*
X337662Y321035D01*
X337540Y321963D01*
X337182Y322827D01*
X336613Y323569D01*
X335870Y324139D01*
X335710Y324205D01*
Y327866D01*
X335870Y327932D01*
X336613Y328502D01*
X337182Y329244D01*
X337540Y330108D01*
X337662Y331035D01*
X337540Y331963D01*
X337182Y332827D01*
X336613Y333569D01*
X335870Y334139D01*
X335006Y334497D01*
X334079Y334619D01*
D02*
G37*
G36*
X232673Y236273D02*
X230014D01*
Y234295D01*
X225545D01*
Y235387D01*
X223673D01*
Y233213D01*
Y231038D01*
X225545D01*
Y232052D01*
X230014D01*
Y231136D01*
X232673D01*
Y233705D01*
Y236273D01*
D02*
G37*
G36*
X213673Y235387D02*
X211802D01*
Y234295D01*
X207545D01*
Y235191D01*
X205673D01*
Y233114D01*
Y231038D01*
X207545D01*
Y232052D01*
X211802D01*
Y231038D01*
X213673D01*
Y233213D01*
Y235387D01*
D02*
G37*
G36*
X236332Y236273D02*
X233673D01*
Y234205D01*
X236332D01*
Y236273D01*
D02*
G37*
G36*
Y233205D02*
X233673D01*
Y231136D01*
X236332D01*
Y233205D01*
D02*
G37*
G36*
X198045Y235250D02*
X196173D01*
Y233173D01*
Y231097D01*
X198045D01*
Y232052D01*
X202802D01*
Y231038D01*
X204673D01*
Y233114D01*
Y235191D01*
X202802D01*
Y234295D01*
X198045D01*
Y235250D01*
D02*
G37*
G36*
X286273Y231939D02*
X284500D01*
Y230953D01*
X286273D01*
Y231939D01*
D02*
G37*
G36*
X283500D02*
X281727D01*
Y230953D01*
X283500D01*
Y231939D01*
D02*
G37*
G36*
X291773Y231891D02*
X290000D01*
Y230906D01*
X291773D01*
Y231891D01*
D02*
G37*
G36*
X289000D02*
X287227D01*
Y230906D01*
X289000D01*
Y231891D01*
D02*
G37*
G36*
X262500Y234622D02*
X262071Y234536D01*
X261707Y234293D01*
X261464Y233929D01*
X261379Y233500D01*
Y231439D01*
X260128D01*
Y229862D01*
X262500D01*
X264872D01*
Y231439D01*
X263621D01*
Y233500D01*
X263536Y233929D01*
X263293Y234293D01*
X262929Y234536D01*
X262500Y234622D01*
D02*
G37*
G36*
X286273Y229953D02*
X284500D01*
Y228967D01*
X286273D01*
Y229953D01*
D02*
G37*
G36*
X283500D02*
X281727D01*
Y228967D01*
X283500D01*
Y229953D01*
D02*
G37*
G36*
X291773Y229906D02*
X290000D01*
Y228920D01*
X291773D01*
Y229906D01*
D02*
G37*
G36*
X289000D02*
X287227D01*
Y228920D01*
X289000D01*
Y229906D01*
D02*
G37*
G36*
X264872Y228862D02*
X263000D01*
Y227286D01*
X264872D01*
Y228862D01*
D02*
G37*
G36*
X262000D02*
X260128D01*
Y227286D01*
X262000D01*
Y228862D01*
D02*
G37*
G36*
X276970Y231990D02*
X272030D01*
Y217010D01*
X274663D01*
X279788Y211885D01*
X280318Y211531D01*
X280942Y211407D01*
X283824D01*
X283837Y211399D01*
X284500Y211267D01*
X285163Y211399D01*
X285726Y211774D01*
X286101Y212337D01*
X286233Y213000D01*
X286101Y213663D01*
X285726Y214226D01*
X285163Y214601D01*
X284500Y214733D01*
X284180Y214670D01*
X281618D01*
X276970Y219317D01*
Y222916D01*
X283905D01*
X284024Y222892D01*
X289381D01*
X289500Y222869D01*
X290124Y222993D01*
X290156Y223014D01*
X291773D01*
Y225986D01*
X290168D01*
X290101Y226031D01*
X289476Y226155D01*
X284119D01*
X284000Y226179D01*
X276970D01*
Y231990D01*
D02*
G37*
G36*
X309500Y221121D02*
Y218500D01*
X312121D01*
X312078Y218825D01*
X311759Y219593D01*
X311253Y220253D01*
X310593Y220759D01*
X309825Y221078D01*
X309500Y221121D01*
D02*
G37*
G36*
X308500D02*
X308175Y221078D01*
X307407Y220759D01*
X306747Y220253D01*
X306241Y219593D01*
X305922Y218825D01*
X305879Y218500D01*
X308500D01*
Y221121D01*
D02*
G37*
G36*
X312121Y217500D02*
X309500D01*
Y214879D01*
X309825Y214922D01*
X310593Y215241D01*
X311253Y215747D01*
X311759Y216407D01*
X312078Y217175D01*
X312121Y217500D01*
D02*
G37*
G36*
X308500D02*
X305879D01*
X305922Y217175D01*
X306241Y216407D01*
X306747Y215747D01*
X307407Y215241D01*
X308175Y214922D01*
X308500Y214879D01*
Y217500D01*
D02*
G37*
G36*
X309500Y195121D02*
Y192500D01*
X312121D01*
X312078Y192825D01*
X311759Y193593D01*
X311253Y194253D01*
X310593Y194759D01*
X309825Y195078D01*
X309500Y195121D01*
D02*
G37*
G36*
X308500D02*
X308175Y195078D01*
X307407Y194759D01*
X306747Y194253D01*
X306241Y193593D01*
X305922Y192825D01*
X305879Y192500D01*
X308500D01*
Y195121D01*
D02*
G37*
G36*
X312121Y191500D02*
X309500D01*
Y188880D01*
X309825Y188922D01*
X310593Y189241D01*
X311253Y189747D01*
X311759Y190407D01*
X312078Y191175D01*
X312121Y191500D01*
D02*
G37*
G36*
X308500D02*
X305879D01*
X305922Y191175D01*
X306241Y190407D01*
X306747Y189747D01*
X307407Y189241D01*
X308175Y188922D01*
X308500Y188880D01*
Y191500D01*
D02*
G37*
G36*
X302316Y195159D02*
X295998D01*
Y188841D01*
X302316D01*
Y195159D01*
D02*
G37*
G36*
X264000Y204431D02*
X243526D01*
Y186614D01*
X264000D01*
Y204431D01*
D02*
G37*
G36*
X343579Y180535D02*
X340526D01*
Y177483D01*
X343579D01*
Y180535D01*
D02*
G37*
G36*
X294372Y175214D02*
X292500D01*
Y173638D01*
X294372D01*
Y175214D01*
D02*
G37*
G36*
X291500D02*
X289628D01*
Y173638D01*
X291500D01*
Y175214D01*
D02*
G37*
G36*
X294372Y172638D02*
X292500D01*
Y171061D01*
X294372D01*
Y172638D01*
D02*
G37*
G36*
X291500D02*
X289628D01*
Y171061D01*
X291500D01*
Y172638D01*
D02*
G37*
G36*
X130937Y171084D02*
X127097D01*
Y166309D01*
X130937D01*
Y171084D01*
D02*
G37*
G36*
X295493Y168084D02*
X291500D01*
X290876Y167960D01*
X290844Y167939D01*
X289227D01*
Y164967D01*
X290844D01*
X290876Y164946D01*
X291500Y164821D01*
X294743D01*
X294774Y164774D01*
X295337Y164399D01*
X296000Y164267D01*
X296663Y164399D01*
X297226Y164774D01*
X297601Y165337D01*
X297733Y166000D01*
X297601Y166663D01*
X297226Y167226D01*
X296663Y167601D01*
X296649Y167604D01*
X296647Y167606D01*
X296117Y167960D01*
X295493Y168084D01*
D02*
G37*
G36*
X293773Y162033D02*
X292000D01*
Y161047D01*
X293773D01*
Y162033D01*
D02*
G37*
G36*
X291000D02*
X289227D01*
Y161047D01*
X291000D01*
Y162033D01*
D02*
G37*
G36*
X293773Y160047D02*
X292000D01*
Y159061D01*
X293773D01*
Y160047D01*
D02*
G37*
G36*
X291000D02*
X289227D01*
Y159061D01*
X291000D01*
Y160047D01*
D02*
G37*
G36*
X135777Y157140D02*
X131437D01*
X127097D01*
Y154727D01*
X130315D01*
Y153958D01*
X127097D01*
Y151545D01*
X131437D01*
X135777D01*
Y153958D01*
X132559D01*
Y154727D01*
X135777D01*
Y157140D01*
D02*
G37*
G36*
X285474Y185614D02*
X243526D01*
Y167798D01*
X243566D01*
X244026Y167702D01*
X244026Y167298D01*
Y149886D01*
X265000D01*
X285974D01*
Y167702D01*
X285934D01*
X285474Y167798D01*
X285474Y168202D01*
Y185614D01*
D02*
G37*
G36*
X145226Y151284D02*
X141909D01*
X138593D01*
Y150298D01*
Y149724D01*
X141909D01*
X145226D01*
Y150298D01*
Y151284D01*
D02*
G37*
G36*
X194576Y147962D02*
X190030D01*
Y145054D01*
X189706Y144730D01*
X187904D01*
X187766Y144936D01*
X187204Y145312D01*
X186541Y145444D01*
X185878Y145312D01*
X185315Y144936D01*
X184939Y144374D01*
X184808Y143710D01*
X184939Y143047D01*
X185315Y142485D01*
X185878Y142109D01*
X186541Y141977D01*
X187204Y142109D01*
X187766Y142485D01*
X187904Y142691D01*
X190128D01*
X190518Y142769D01*
X190784Y142946D01*
X191284Y142809D01*
Y140003D01*
X191361Y139613D01*
X191582Y139282D01*
X194209Y136655D01*
X194002Y136155D01*
X189676D01*
Y135155D01*
X186919D01*
Y135958D01*
X185771D01*
Y137682D01*
X185678Y138150D01*
X185667Y138166D01*
X185733Y138500D01*
X185601Y139163D01*
X185226Y139726D01*
X184663Y140101D01*
X184000Y140233D01*
X183337Y140101D01*
X182774Y139726D01*
X182399Y139163D01*
X182267Y138500D01*
X182399Y137837D01*
X182774Y137274D01*
X183324Y136907D01*
Y135958D01*
X182176D01*
Y131806D01*
X186919D01*
Y132708D01*
X189676D01*
Y131806D01*
X194419D01*
Y135738D01*
X194919Y135945D01*
X196980Y133884D01*
Y120000D01*
X197058Y119610D01*
X197279Y119279D01*
X197779Y118779D01*
X198110Y118558D01*
X198500Y118480D01*
X202152D01*
Y114928D01*
X209258D01*
Y120852D01*
X202152D01*
Y120520D01*
X199020D01*
Y134306D01*
X198942Y134696D01*
X198721Y135027D01*
X193323Y140426D01*
Y143809D01*
X194576D01*
Y147962D01*
D02*
G37*
G36*
X293872Y142214D02*
X292000D01*
Y140638D01*
X293872D01*
Y142214D01*
D02*
G37*
G36*
X291000D02*
X289128D01*
Y140638D01*
X291000D01*
Y142214D01*
D02*
G37*
G36*
X336750Y143407D02*
X333500D01*
Y140157D01*
X336750D01*
Y143407D01*
D02*
G37*
G36*
X332500D02*
X329250D01*
Y140157D01*
X332500D01*
Y143407D01*
D02*
G37*
G36*
X157072Y142002D02*
X155004D01*
Y139342D01*
X157072D01*
Y142002D01*
D02*
G37*
G36*
X293872Y139638D02*
X292000D01*
Y138061D01*
X293872D01*
Y139638D01*
D02*
G37*
G36*
X291000D02*
X289128D01*
Y138061D01*
X291000D01*
Y139638D01*
D02*
G37*
G36*
X130937Y142376D02*
X127097D01*
Y137601D01*
X130937D01*
Y142376D01*
D02*
G37*
G36*
X336750Y139157D02*
X333500D01*
Y135908D01*
X336750D01*
Y139157D01*
D02*
G37*
G36*
X332500D02*
X329250D01*
Y135908D01*
X332500D01*
Y139157D01*
D02*
G37*
G36*
X200576Y147962D02*
X196030D01*
Y143809D01*
X197283D01*
Y142811D01*
X197361Y142421D01*
X197582Y142090D01*
X202152Y137520D01*
Y133038D01*
X209258D01*
Y138962D01*
X203594D01*
X199323Y143233D01*
Y143809D01*
X200576D01*
Y147962D01*
D02*
G37*
G36*
X157072Y138342D02*
X154504D01*
X151935D01*
Y135684D01*
X153918D01*
Y133872D01*
X152865D01*
Y132000D01*
X155039D01*
X157214D01*
Y133872D01*
X156161D01*
Y135684D01*
X157072D01*
Y138342D01*
D02*
G37*
G36*
X285974Y148886D02*
X265500D01*
Y131069D01*
X285974D01*
Y148886D01*
D02*
G37*
G36*
X264500D02*
X244026D01*
Y131069D01*
X264500D01*
Y148886D01*
D02*
G37*
G36*
X194419Y131234D02*
X192547D01*
Y129559D01*
X194419D01*
Y131234D01*
D02*
G37*
G36*
X234454Y134041D02*
X227349D01*
Y128520D01*
X215363D01*
X215226Y128726D01*
X214663Y129101D01*
X214000Y129233D01*
X213337Y129101D01*
X212774Y128726D01*
X212399Y128163D01*
X212359Y127964D01*
X209258D01*
Y129907D01*
X202152D01*
Y123983D01*
X209258D01*
Y125925D01*
X213297D01*
X213337Y125899D01*
X214000Y125767D01*
X214663Y125899D01*
X215226Y126274D01*
X215363Y126480D01*
X227349D01*
Y119849D01*
X234454D01*
Y134041D01*
D02*
G37*
G36*
X194419Y128559D02*
X192547D01*
Y126884D01*
X194419D01*
Y128559D01*
D02*
G37*
G36*
X186919Y131234D02*
X185047D01*
Y129157D01*
Y127081D01*
X186919D01*
Y128036D01*
X189676D01*
Y126884D01*
X191547D01*
Y129059D01*
Y131234D01*
X189676D01*
Y130279D01*
X186919D01*
Y131234D01*
D02*
G37*
G36*
X188500Y119018D02*
Y116000D01*
X191518D01*
X191461Y116427D01*
X191103Y117292D01*
X190534Y118034D01*
X189792Y118603D01*
X188927Y118961D01*
X188500Y119018D01*
D02*
G37*
G36*
X187500D02*
X187073Y118961D01*
X186208Y118603D01*
X185466Y118034D01*
X184897Y117292D01*
X184539Y116427D01*
X184482Y116000D01*
X187500D01*
Y119018D01*
D02*
G37*
G36*
X337500Y124597D02*
X336180Y124493D01*
X334404Y124066D01*
X332717Y123368D01*
X331161Y122414D01*
X329772Y121228D01*
X328586Y119839D01*
X327632Y118283D01*
X326934Y116596D01*
X326507Y114820D01*
X326403Y113500D01*
X337500D01*
Y124597D01*
D02*
G37*
G36*
X137000D02*
Y113500D01*
X148097D01*
X147993Y114820D01*
X147566Y116596D01*
X146868Y118283D01*
X145914Y119839D01*
X144728Y121228D01*
X143339Y122414D01*
X141783Y123368D01*
X140096Y124066D01*
X138320Y124493D01*
X137000Y124597D01*
D02*
G37*
G36*
X191518Y115000D02*
X188500D01*
Y111982D01*
X188927Y112039D01*
X189792Y112397D01*
X190534Y112966D01*
X191103Y113708D01*
X191461Y114573D01*
X191518Y115000D01*
D02*
G37*
G36*
X187500D02*
X184482D01*
X184539Y114573D01*
X184897Y113708D01*
X185466Y112966D01*
X186208Y112397D01*
X187073Y112039D01*
X187500Y111982D01*
Y115000D01*
D02*
G37*
G36*
X161553Y119053D02*
X154447D01*
Y111947D01*
X161553D01*
Y119053D01*
D02*
G37*
G36*
X178000Y119083D02*
X177073Y118961D01*
X176208Y118603D01*
X175466Y118034D01*
X174897Y117292D01*
X174539Y116427D01*
X174417Y115500D01*
X174539Y114573D01*
X174897Y113708D01*
X175466Y112966D01*
X176208Y112397D01*
X177073Y112039D01*
X178000Y111917D01*
X178927Y112039D01*
X179792Y112397D01*
X180534Y112966D01*
X181103Y113708D01*
X181461Y114573D01*
X181583Y115500D01*
X181461Y116427D01*
X181103Y117292D01*
X180534Y118034D01*
X179792Y118603D01*
X178927Y118961D01*
X178000Y119083D01*
D02*
G37*
G36*
X168000D02*
X167073Y118961D01*
X166208Y118603D01*
X165466Y118034D01*
X164897Y117292D01*
X164539Y116427D01*
X164417Y115500D01*
X164539Y114573D01*
X164897Y113708D01*
X165466Y112966D01*
X166208Y112397D01*
X167073Y112039D01*
X168000Y111917D01*
X168927Y112039D01*
X169792Y112397D01*
X170534Y112966D01*
X171103Y113708D01*
X171461Y114573D01*
X171583Y115500D01*
X171461Y116427D01*
X171103Y117292D01*
X170534Y118034D01*
X169792Y118603D01*
X168927Y118961D01*
X168000Y119083D01*
D02*
G37*
G36*
X288872Y111214D02*
X287000D01*
Y109638D01*
X288872D01*
Y111214D01*
D02*
G37*
G36*
X286000D02*
X284128D01*
Y109638D01*
X286000D01*
Y111214D01*
D02*
G37*
G36*
X243500Y109533D02*
X241727D01*
Y108547D01*
X243500D01*
Y109533D01*
D02*
G37*
G36*
X288872Y108638D02*
X287000D01*
Y107061D01*
X288872D01*
Y108638D01*
D02*
G37*
G36*
X286000D02*
X284128D01*
Y107061D01*
X286000D01*
Y108638D01*
D02*
G37*
G36*
X246273Y107547D02*
X244500D01*
Y106561D01*
X246273D01*
Y107547D01*
D02*
G37*
G36*
X243500D02*
X241727D01*
Y106561D01*
X243500D01*
Y107547D01*
D02*
G37*
%LPD*%
G36*
X319083Y283578D02*
Y280808D01*
X318621Y280616D01*
X309635Y289602D01*
Y292319D01*
X310135Y292526D01*
X319083Y283578D01*
D02*
G37*
G36*
X317783Y278571D02*
Y275741D01*
X317321Y275550D01*
X309635Y283235D01*
Y286011D01*
X310135Y286218D01*
X317783Y278571D01*
D02*
G37*
G36*
X311516Y240271D02*
Y225893D01*
X311054Y225701D01*
X308579Y228176D01*
Y237227D01*
X309635D01*
Y241444D01*
X310135Y241652D01*
X311516Y240271D01*
D02*
G37*
%LPC*%
G36*
X134000Y300018D02*
Y297000D01*
X137018D01*
X136961Y297427D01*
X136603Y298292D01*
X136034Y299034D01*
X135292Y299603D01*
X134427Y299961D01*
X134000Y300018D01*
D02*
G37*
G36*
X133000D02*
X132573Y299961D01*
X131708Y299603D01*
X130966Y299034D01*
X130397Y298292D01*
X130039Y297427D01*
X129982Y297000D01*
X133000D01*
Y300018D01*
D02*
G37*
G36*
X137018Y296000D02*
X134000D01*
Y292982D01*
X134427Y293039D01*
X135292Y293397D01*
X136034Y293966D01*
X136603Y294708D01*
X136961Y295573D01*
X137018Y296000D01*
D02*
G37*
G36*
X133000D02*
X129982D01*
X130039Y295573D01*
X130397Y294708D01*
X130966Y293966D01*
X131708Y293397D01*
X132573Y293039D01*
X133000Y292982D01*
Y296000D01*
D02*
G37*
G36*
X143500Y290083D02*
X142573Y289961D01*
X141708Y289603D01*
X140966Y289034D01*
X140397Y288292D01*
X140039Y287427D01*
X139917Y286500D01*
X140039Y285573D01*
X140397Y284708D01*
X140966Y283966D01*
X141708Y283397D01*
X142573Y283039D01*
X143500Y282917D01*
X144427Y283039D01*
X145292Y283397D01*
X146034Y283966D01*
X146603Y284708D01*
X146961Y285573D01*
X147083Y286500D01*
X146961Y287427D01*
X146603Y288292D01*
X146034Y289034D01*
X145292Y289603D01*
X144427Y289961D01*
X143500Y290083D01*
D02*
G37*
G36*
X133500D02*
X132573Y289961D01*
X131708Y289603D01*
X130966Y289034D01*
X130397Y288292D01*
X130039Y287427D01*
X129917Y286500D01*
X130039Y285573D01*
X130397Y284708D01*
X130966Y283966D01*
X131708Y283397D01*
X132573Y283039D01*
X133500Y282917D01*
X134427Y283039D01*
X135292Y283397D01*
X136034Y283966D01*
X136603Y284708D01*
X136961Y285573D01*
X137083Y286500D01*
X136961Y287427D01*
X136603Y288292D01*
X136034Y289034D01*
X135292Y289603D01*
X134427Y289961D01*
X133500Y290083D01*
D02*
G37*
G36*
X143500Y280083D02*
X142573Y279961D01*
X141708Y279603D01*
X140966Y279034D01*
X140397Y278292D01*
X140039Y277427D01*
X139917Y276500D01*
X140039Y275573D01*
X140397Y274708D01*
X140966Y273966D01*
X141708Y273397D01*
X142573Y273039D01*
X143500Y272917D01*
X144427Y273039D01*
X145292Y273397D01*
X146034Y273966D01*
X146603Y274708D01*
X146961Y275573D01*
X147083Y276500D01*
X146961Y277427D01*
X146603Y278292D01*
X146034Y279034D01*
X145292Y279603D01*
X144427Y279961D01*
X143500Y280083D01*
D02*
G37*
G36*
X133500D02*
X132573Y279961D01*
X131708Y279603D01*
X130966Y279034D01*
X130397Y278292D01*
X130039Y277427D01*
X129917Y276500D01*
X130039Y275573D01*
X130397Y274708D01*
X130966Y273966D01*
X131708Y273397D01*
X132573Y273039D01*
X133500Y272917D01*
X134427Y273039D01*
X135292Y273397D01*
X136034Y273966D01*
X136603Y274708D01*
X136961Y275573D01*
X137083Y276500D01*
X136961Y277427D01*
X136603Y278292D01*
X136034Y279034D01*
X135292Y279603D01*
X134427Y279961D01*
X133500Y280083D01*
D02*
G37*
G36*
X143500Y270083D02*
X142573Y269961D01*
X141708Y269603D01*
X140966Y269034D01*
X140397Y268292D01*
X140039Y267427D01*
X139917Y266500D01*
X140039Y265573D01*
X140397Y264708D01*
X140966Y263966D01*
X141708Y263397D01*
X142573Y263039D01*
X143500Y262917D01*
X144427Y263039D01*
X145292Y263397D01*
X146034Y263966D01*
X146603Y264708D01*
X146961Y265573D01*
X147083Y266500D01*
X146961Y267427D01*
X146603Y268292D01*
X146034Y269034D01*
X145292Y269603D01*
X144427Y269961D01*
X143500Y270083D01*
D02*
G37*
G36*
Y260083D02*
X142573Y259961D01*
X141708Y259603D01*
X140966Y259034D01*
X140397Y258292D01*
X140039Y257427D01*
X139917Y256500D01*
X140039Y255573D01*
X140397Y254708D01*
X140966Y253966D01*
X141708Y253397D01*
X142573Y253039D01*
X143500Y252917D01*
X144427Y253039D01*
X145292Y253397D01*
X146034Y253966D01*
X146603Y254708D01*
X146961Y255573D01*
X147083Y256500D01*
X146961Y257427D01*
X146603Y258292D01*
X146034Y259034D01*
X145292Y259603D01*
X144427Y259961D01*
X143500Y260083D01*
D02*
G37*
G36*
Y250083D02*
X142573Y249961D01*
X141708Y249603D01*
X140966Y249034D01*
X140397Y248292D01*
X140039Y247427D01*
X139917Y246500D01*
X140039Y245573D01*
X140397Y244708D01*
X140966Y243966D01*
X141708Y243397D01*
X142573Y243039D01*
X143500Y242917D01*
X144427Y243039D01*
X145292Y243397D01*
X146034Y243966D01*
X146603Y244708D01*
X146961Y245573D01*
X147083Y246500D01*
X146961Y247427D01*
X146603Y248292D01*
X146034Y249034D01*
X145292Y249603D01*
X144427Y249961D01*
X143500Y250083D01*
D02*
G37*
G36*
Y240083D02*
X142573Y239961D01*
X141708Y239603D01*
X140966Y239034D01*
X140397Y238292D01*
X140039Y237427D01*
X139917Y236500D01*
X140039Y235573D01*
X140397Y234708D01*
X140966Y233966D01*
X141708Y233397D01*
X142573Y233039D01*
X143500Y232917D01*
X144427Y233039D01*
X145292Y233397D01*
X146034Y233966D01*
X146603Y234708D01*
X146961Y235573D01*
X147083Y236500D01*
X146961Y237427D01*
X146603Y238292D01*
X146034Y239034D01*
X145292Y239603D01*
X144427Y239961D01*
X143500Y240083D01*
D02*
G37*
G36*
X207252Y299915D02*
X204534D01*
Y298328D01*
X203746D01*
Y299915D01*
X201028D01*
Y296697D01*
Y293479D01*
X203746D01*
Y295065D01*
X204534D01*
Y293479D01*
X206121D01*
Y292690D01*
X204534D01*
Y289972D01*
X210970D01*
Y292690D01*
X209383D01*
Y293479D01*
X210970D01*
Y296197D01*
X207752D01*
Y296697D01*
X207252D01*
Y299915D01*
D02*
G37*
G36*
X200028D02*
X197309D01*
Y298328D01*
X196521D01*
Y299915D01*
X193803D01*
Y296697D01*
X193303D01*
Y296197D01*
X190085D01*
Y293479D01*
X191672D01*
Y292690D01*
X190085D01*
Y289972D01*
X196521D01*
Y292690D01*
X194934D01*
Y293479D01*
X196521D01*
Y295065D01*
X197309D01*
Y293479D01*
X200028D01*
Y296697D01*
Y299915D01*
D02*
G37*
G36*
X192803D02*
X190085D01*
Y297197D01*
X192803D01*
Y299915D01*
D02*
G37*
G36*
X203746Y292690D02*
X201028D01*
Y289972D01*
X203746D01*
Y292690D01*
D02*
G37*
G36*
X200028D02*
X197309D01*
Y289972D01*
X200028D01*
Y292690D01*
D02*
G37*
G36*
X210970Y288972D02*
X204534D01*
Y286254D01*
X206121D01*
Y285466D01*
X204534D01*
Y283879D01*
X203746D01*
Y285466D01*
X202159D01*
Y286254D01*
X203746D01*
Y288972D01*
X197309D01*
Y286254D01*
X198896D01*
Y285466D01*
X197309D01*
Y283879D01*
X196521D01*
Y285466D01*
X194934D01*
Y286254D01*
X196521D01*
Y288972D01*
X190085D01*
Y286254D01*
X191672D01*
Y285466D01*
X190085D01*
Y282748D01*
X193303D01*
Y282248D01*
X193803D01*
Y279030D01*
X196521D01*
Y280617D01*
X197309D01*
Y279030D01*
X200028D01*
Y282248D01*
X201028D01*
Y279030D01*
X203746D01*
Y280617D01*
X204534D01*
Y279030D01*
X207252D01*
Y282248D01*
X207752D01*
Y282748D01*
X210970D01*
Y285466D01*
X209383D01*
Y286254D01*
X210970D01*
Y288972D01*
D02*
G37*
G36*
Y281748D02*
X208252D01*
Y279030D01*
X210970D01*
Y281748D01*
D02*
G37*
G36*
X147018Y326000D02*
X144000D01*
Y322982D01*
X144427Y323039D01*
X145292Y323397D01*
X146034Y323966D01*
X146603Y324708D01*
X146961Y325573D01*
X147018Y326000D01*
D02*
G37*
G36*
X158953Y324000D02*
X157278D01*
Y322325D01*
X158953D01*
Y324000D01*
D02*
G37*
G36*
X283941Y290273D02*
Y288500D01*
X285517D01*
Y290273D01*
X283941D01*
D02*
G37*
G36*
X162431Y247970D02*
X160461D01*
Y246000D01*
X162431D01*
Y247970D01*
D02*
G37*
G36*
X263047Y245472D02*
X259984D01*
Y244191D01*
X261156D01*
X263410Y241937D01*
X263410Y241936D01*
X263774Y241693D01*
X264204Y241608D01*
X264855D01*
X265071Y241464D01*
X265500Y241378D01*
X265929Y241464D01*
X266293Y241707D01*
X266536Y242071D01*
X266621Y242500D01*
X266536Y242929D01*
X266293Y243293D01*
X266063Y243523D01*
X265700Y243766D01*
X265270Y243851D01*
X265270Y243851D01*
X264668D01*
X263047Y245472D01*
D02*
G37*
G36*
X157933Y194667D02*
X154093D01*
Y192795D01*
X157933D01*
Y194667D01*
D02*
G37*
G36*
Y191795D02*
X154093D01*
Y189924D01*
X157933D01*
Y191795D01*
D02*
G37*
G36*
X162773Y185612D02*
X154093D01*
Y180868D01*
X162773D01*
Y182017D01*
X164179D01*
X164180Y182015D01*
X164742Y181639D01*
X165405Y181507D01*
X166069Y181639D01*
X166631Y182015D01*
X167007Y182577D01*
X167139Y183240D01*
X167007Y183904D01*
X166631Y184466D01*
X166069Y184842D01*
X165405Y184974D01*
X164742Y184842D01*
X164180Y184466D01*
X164179Y184464D01*
X162773D01*
Y185612D01*
D02*
G37*
G36*
X160185Y177293D02*
X158510D01*
Y175421D01*
X160185D01*
Y177293D01*
D02*
G37*
G36*
X147053Y216000D02*
X144000D01*
Y212947D01*
X147053D01*
Y216000D01*
D02*
G37*
G36*
X199439Y181872D02*
X195286D01*
Y177128D01*
X199439D01*
Y177980D01*
X200637D01*
X200774Y177774D01*
X201337Y177399D01*
X202000Y177267D01*
X202663Y177399D01*
X203226Y177774D01*
X203601Y178337D01*
X203733Y179000D01*
X203601Y179663D01*
X203226Y180226D01*
X202663Y180601D01*
X202000Y180733D01*
X201337Y180601D01*
X200774Y180226D01*
X200637Y180020D01*
X199439D01*
Y181872D01*
D02*
G37*
G36*
X230750Y183301D02*
X223250D01*
Y174960D01*
X219810Y171520D01*
X199372D01*
Y173068D01*
X194754D01*
X194628Y173068D01*
X194254D01*
X193759Y173385D01*
Y177128D01*
X194714D01*
Y179000D01*
X192638D01*
X190561D01*
Y177128D01*
X191516D01*
Y173068D01*
X189510D01*
Y171000D01*
X191882D01*
Y170000D01*
X189510D01*
Y167931D01*
X190760D01*
Y165480D01*
X190760Y165480D01*
X190846Y165051D01*
X191089Y164687D01*
X193217Y162559D01*
X195000D01*
Y164135D01*
X194813D01*
X193003Y165945D01*
Y167931D01*
X194128D01*
X194254Y167931D01*
X194628D01*
X194754Y167931D01*
X199372D01*
Y169480D01*
X220232D01*
X220622Y169558D01*
X220953Y169779D01*
X224692Y173518D01*
X230750D01*
Y183301D01*
D02*
G37*
G36*
X197773Y164135D02*
X196000D01*
Y162559D01*
X197773D01*
Y164135D01*
D02*
G37*
G36*
Y161559D02*
X196000D01*
Y159983D01*
X197773D01*
Y161559D01*
D02*
G37*
G36*
X195000D02*
X193227D01*
Y159983D01*
X195000D01*
Y161559D01*
D02*
G37*
%LPD*%
D12*
X279852Y299186D02*
X292186D01*
X299200Y306200D02*
Y313062D01*
X302441Y316303D01*
X292186Y299186D02*
X299200Y306200D01*
X293500Y296303D02*
X300197Y303000D01*
X293500Y291916D02*
Y296303D01*
X300197Y303000D02*
X302441D01*
X294600Y292600D02*
X298500Y296500D01*
X302382D01*
X294600Y291460D02*
Y292600D01*
X298500Y283000D02*
X302441D01*
X296000Y280500D02*
X298500Y283000D01*
X295900Y265733D02*
X296000Y265833D01*
Y280500D01*
X285505Y255015D02*
X295900Y265410D01*
X297000Y261000D02*
Y265278D01*
X297100Y265377D01*
X284386Y254043D02*
X285357Y255015D01*
X295900Y265410D02*
Y265733D01*
X297100Y273600D02*
X300000Y276500D01*
X297100Y265377D02*
Y273600D01*
X282516Y254043D02*
X284386D01*
X285357Y255015D02*
X285505D01*
X301941Y276500D02*
X302441Y277000D01*
X300000Y276500D02*
X301941D01*
X302244Y290000D02*
X302441Y289803D01*
X298000Y290000D02*
X302244D01*
X294900Y286900D02*
X298000Y290000D01*
X282516Y256602D02*
X283003Y257090D01*
X285701D02*
X294900Y266289D01*
X283003Y257090D02*
X285701D01*
X294900Y266289D02*
Y286900D01*
X287484Y251484D02*
X297000Y261000D01*
X282516Y259161D02*
X282854Y259500D01*
X286556D01*
X293800Y266744D01*
X287221Y261720D02*
X292500Y267000D01*
Y267303D02*
X292700Y267503D01*
X282516Y261720D02*
X287221D01*
X292500Y267000D02*
Y267303D01*
X292700Y291116D02*
X293500Y291916D01*
X292700Y267503D02*
Y291116D01*
X293800Y290660D02*
X294600Y291460D01*
X293800Y266744D02*
Y290660D01*
X282516Y251484D02*
X287484D01*
D16*
X284000Y230453D02*
D03*
Y224547D02*
D03*
X289500Y230405D02*
D03*
Y224500D02*
D03*
X291500Y160547D02*
D03*
Y166453D02*
D03*
X244000Y113953D02*
D03*
Y108047D02*
D03*
D17*
X307559Y309533D02*
D03*
X302441D02*
D03*
X307559Y303167D02*
D03*
X302441D02*
D03*
X307500Y296800D02*
D03*
X302382D02*
D03*
X307559Y290433D02*
D03*
X302441D02*
D03*
X307559Y284067D02*
D03*
X302441D02*
D03*
X307559Y277700D02*
D03*
X302441D02*
D03*
X307559Y271333D02*
D03*
X302441D02*
D03*
X307559Y264967D02*
D03*
X302441D02*
D03*
X307559Y245867D02*
D03*
X302441D02*
D03*
X307559Y252233D02*
D03*
X302441D02*
D03*
X307559Y258600D02*
D03*
X302441D02*
D03*
X307559Y239500D02*
D03*
X302441D02*
D03*
X307559Y315900D02*
D03*
X302441D02*
D03*
X307559Y335000D02*
D03*
X302441D02*
D03*
X307559Y322267D02*
D03*
X302441D02*
D03*
X307500Y328633D02*
D03*
X302382D02*
D03*
X283441Y288000D02*
D03*
X288559D02*
D03*
X153941Y306500D02*
D03*
X159059D02*
D03*
D18*
X171000Y319000D02*
D03*
Y314000D02*
D03*
Y309000D02*
D03*
Y304000D02*
D03*
Y299000D02*
D03*
Y294000D02*
D03*
Y289000D02*
D03*
Y284000D02*
D03*
Y279000D02*
D03*
Y274000D02*
D03*
Y269000D02*
D03*
Y264000D02*
D03*
Y259000D02*
D03*
Y254000D02*
D03*
X237929D02*
D03*
Y259000D02*
D03*
Y264000D02*
D03*
Y269000D02*
D03*
Y274000D02*
D03*
Y279000D02*
D03*
Y284000D02*
D03*
Y289000D02*
D03*
Y294000D02*
D03*
Y299000D02*
D03*
Y304000D02*
D03*
Y309000D02*
D03*
Y314000D02*
D03*
Y319000D02*
D03*
D19*
X181965Y250063D02*
D03*
X186965D02*
D03*
X191965D02*
D03*
X196965D02*
D03*
X201965D02*
D03*
X206965D02*
D03*
X211965D02*
D03*
X216965D02*
D03*
X221965D02*
D03*
X226965D02*
D03*
D20*
X193303Y296697D02*
D03*
X200528D02*
D03*
X207752D02*
D03*
X193303Y289472D02*
D03*
X200528D02*
D03*
X207752D02*
D03*
X193303Y282248D02*
D03*
X200528D02*
D03*
X207752D02*
D03*
D21*
X160685Y174921D02*
D03*
X155764D02*
D03*
X159961Y131500D02*
D03*
X155039D02*
D03*
D22*
X157630Y152106D02*
D03*
Y164508D02*
D03*
X289500Y294528D02*
D03*
Y306929D02*
D03*
X280250Y294528D02*
D03*
Y306929D02*
D03*
X271000Y294528D02*
D03*
Y306929D02*
D03*
X146630Y184807D02*
D03*
Y197209D02*
D03*
X136130Y184807D02*
D03*
Y197209D02*
D03*
D23*
X292000Y177862D02*
D03*
Y173138D02*
D03*
X291500Y144862D02*
D03*
Y140138D02*
D03*
X286500Y109138D02*
D03*
Y113862D02*
D03*
X262500Y229362D02*
D03*
Y224638D02*
D03*
X195673Y233173D02*
D03*
Y228449D02*
D03*
X205173Y233114D02*
D03*
Y228390D02*
D03*
X184547Y129157D02*
D03*
Y133882D02*
D03*
X176047Y129157D02*
D03*
Y133882D02*
D03*
D24*
X141909Y159461D02*
D03*
Y156902D02*
D03*
Y154342D02*
D03*
Y151784D02*
D03*
Y149224D02*
D03*
D25*
X140492Y164037D02*
D03*
Y144648D02*
D03*
D26*
X131437Y165809D02*
D03*
Y142876D02*
D03*
D27*
Y157640D02*
D03*
Y151045D02*
D03*
D28*
X274500Y224500D02*
D03*
X254500D02*
D03*
X255000Y111000D02*
D03*
X275000D02*
D03*
D29*
X264500Y186114D02*
D03*
X265000Y149386D02*
D03*
D30*
X159059Y315500D02*
D03*
X153941D02*
D03*
X197559Y197500D02*
D03*
X192441D02*
D03*
X191882Y170500D02*
D03*
X197000D02*
D03*
X192441Y189500D02*
D03*
X197559D02*
D03*
X197654Y214504D02*
D03*
X192535D02*
D03*
D31*
X157173Y236299D02*
D03*
Y223701D02*
D03*
X178827Y236299D02*
D03*
Y223701D02*
D03*
D32*
X227000Y178409D02*
D03*
X212000D02*
D03*
D33*
X227000Y214591D02*
D03*
X212000D02*
D03*
D34*
X214173Y228291D02*
D03*
Y233213D02*
D03*
X223173Y228291D02*
D03*
Y233213D02*
D03*
X192047Y133980D02*
D03*
Y129059D02*
D03*
D35*
X233173Y227799D02*
D03*
Y233705D02*
D03*
D36*
X231000Y156000D02*
D03*
X230902Y126945D02*
D03*
D37*
X205803Y146945D02*
D03*
Y156000D02*
D03*
Y165055D02*
D03*
X205705Y117890D02*
D03*
Y126945D02*
D03*
Y136000D02*
D03*
D38*
X192638Y179500D02*
D03*
X197362D02*
D03*
X192595Y206504D02*
D03*
X197319D02*
D03*
D39*
X195500Y156941D02*
D03*
Y162059D02*
D03*
X192303Y145886D02*
D03*
Y151004D02*
D03*
X198303Y151004D02*
D03*
Y145886D02*
D03*
D40*
X160409Y145343D02*
D03*
X154504D02*
D03*
D41*
X168047Y128795D02*
D03*
Y134701D02*
D03*
D42*
X261000Y299500D02*
D03*
Y305012D02*
D03*
X252500Y299500D02*
D03*
Y305012D02*
D03*
D43*
X282516Y271957D02*
D03*
Y274516D02*
D03*
Y277075D02*
D03*
Y269398D02*
D03*
Y266839D02*
D03*
X259484D02*
D03*
Y269398D02*
D03*
Y277075D02*
D03*
Y274516D02*
D03*
Y271957D02*
D03*
Y264280D02*
D03*
Y261720D02*
D03*
Y259161D02*
D03*
Y256602D02*
D03*
Y248925D02*
D03*
Y251484D02*
D03*
Y254043D02*
D03*
X282516D02*
D03*
Y251484D02*
D03*
Y248925D02*
D03*
Y256602D02*
D03*
Y259161D02*
D03*
Y261720D02*
D03*
Y264280D02*
D03*
D44*
X259484Y280028D02*
D03*
Y245972D02*
D03*
X282516D02*
D03*
Y280028D02*
D03*
D45*
X185611Y160185D02*
D03*
X169457D02*
D03*
Y158217D02*
D03*
Y156248D02*
D03*
Y154279D02*
D03*
Y152311D02*
D03*
Y150343D02*
D03*
X185611D02*
D03*
Y152311D02*
D03*
Y154279D02*
D03*
Y156248D02*
D03*
Y158217D02*
D03*
D46*
X172613Y147187D02*
D03*
X174581D02*
D03*
X176550D02*
D03*
X178518D02*
D03*
X180487D02*
D03*
X182455D02*
D03*
X180487Y163341D02*
D03*
X178518D02*
D03*
X176550D02*
D03*
X174581D02*
D03*
X172613D02*
D03*
X182455D02*
D03*
D47*
X177534Y155264D02*
D03*
D48*
X158433Y201350D02*
D03*
Y192295D02*
D03*
Y183240D02*
D03*
D49*
X181661Y192295D02*
D03*
D50*
X165961Y215000D02*
D03*
X161039D02*
D03*
X159961Y245500D02*
D03*
X155039D02*
D03*
D51*
X153547Y324500D02*
D03*
X159453D02*
D03*
D52*
X160409Y138842D02*
D03*
X154504D02*
D03*
D99*
X291500Y152285D02*
X311215Y172000D01*
X312500D01*
X344079Y321035D02*
Y331035D01*
Y311035D02*
Y321035D01*
Y301035D02*
Y311035D01*
Y291035D02*
Y301035D01*
Y281035D02*
Y291035D01*
Y271035D02*
Y281035D01*
Y261035D02*
Y271035D01*
Y251035D02*
Y261035D01*
Y241035D02*
Y251035D01*
Y231035D02*
Y241035D01*
Y221035D02*
Y231035D01*
Y211035D02*
Y221035D01*
Y201035D02*
Y211035D01*
Y191035D02*
Y201035D01*
Y181035D02*
Y191035D01*
X334079Y321035D02*
Y331035D01*
Y311035D02*
Y321035D01*
Y301035D02*
Y311035D01*
Y291035D02*
Y301035D01*
Y281035D02*
Y291035D01*
Y271035D02*
Y281035D01*
Y261035D02*
Y271035D01*
Y251035D02*
Y261035D01*
Y241035D02*
Y251035D01*
Y231035D02*
Y241035D01*
Y221035D02*
Y231035D01*
Y211035D02*
Y221035D01*
Y201035D02*
Y211035D01*
Y191035D02*
Y201035D01*
Y181035D02*
Y191035D01*
X325043Y172000D02*
X334079Y181035D01*
X312500Y172000D02*
X325043D01*
X292000Y177862D02*
X306638D01*
X312500Y172000D01*
X288500Y207343D02*
X299158Y218000D01*
X288500Y203500D02*
Y207343D01*
X301500Y151342D02*
X309157Y159000D01*
X332658D02*
X333000Y159343D01*
X309157Y159000D02*
X332658D01*
X284000Y224547D02*
X284024Y224524D01*
X289476D01*
X289500Y224500D01*
X291705Y177862D02*
X292000D01*
X291228Y178339D02*
X291705Y177862D01*
X291228Y178339D02*
Y178634D01*
X288500Y181362D02*
X291228Y178634D01*
X288500Y181362D02*
Y193500D01*
X289500Y318500D02*
X292500Y321500D01*
X294953Y349601D02*
X295100Y349749D01*
X291000Y356000D02*
X295100Y351900D01*
X292500Y321500D02*
Y328000D01*
X294953Y330453D01*
X295100Y349749D02*
Y351900D01*
X294953Y330453D02*
Y349601D01*
X289500Y313245D02*
Y318500D01*
X177038Y242971D02*
X181965Y247898D01*
X193303Y282248D02*
Y289472D01*
X207752Y282248D02*
Y289472D01*
X200528Y282248D02*
Y289472D01*
X193303Y296697D02*
X200528D01*
X220000Y308945D02*
Y316000D01*
X193303Y282248D02*
X200528D01*
X181965Y247898D02*
Y250063D01*
X207752Y289472D02*
Y296697D01*
X223000Y319000D02*
X237929D01*
X220000Y316000D02*
X223000Y319000D01*
X200528Y296697D02*
X207752D01*
X193303Y289472D02*
Y296697D01*
X177038Y242038D02*
Y242971D01*
X177000Y242000D02*
X177038Y242038D01*
X207752Y296697D02*
X220000Y308945D01*
X200528Y282248D02*
X207752D01*
X271362Y289689D02*
Y294166D01*
Y289689D02*
X271400Y289651D01*
X271000Y294528D02*
X271362Y294166D01*
X159000Y356000D02*
X291000D01*
X276500Y323000D02*
X277211Y323711D01*
X130447Y331947D02*
X136947D01*
X138500Y333500D02*
Y337939D01*
X136947Y331947D02*
X138500Y333500D01*
X127547Y181953D02*
Y329047D01*
X130447Y331947D01*
X141614Y341053D02*
X144053D01*
X159000Y356000D01*
X138500Y337939D02*
X141614Y341053D01*
X164230Y241230D02*
X165961Y239500D01*
X159961Y245500D02*
X164230Y241230D01*
X169730D02*
X170500Y242000D01*
X164230Y241230D02*
X169730D01*
X160402Y192295D02*
X181661D01*
X158433D02*
X160402D01*
X164068Y195962D01*
X165962D01*
X166000Y196000D01*
X165961Y215000D02*
X168962Y218001D01*
Y218962D01*
X169000Y219000D01*
X165961Y215000D02*
Y239500D01*
X157000Y170000D02*
X160110Y173110D01*
X140492Y164037D02*
X140500Y164045D01*
Y173500D01*
X166847Y174921D02*
X181500Y189575D01*
X246920Y320580D02*
Y323594D01*
Y320580D02*
X249500Y318000D01*
X252500Y315000D01*
Y305012D02*
Y315000D01*
X134500Y181000D02*
Y183177D01*
X136130Y184807D01*
X280250Y308751D02*
X283022Y311522D01*
X280250Y306929D02*
Y308751D01*
X289500Y306929D02*
Y313245D01*
X279500Y315000D02*
X287745D01*
X289500Y313245D01*
X273172Y311328D02*
X275828D01*
X279500Y315000D01*
X271000Y306929D02*
X271098D01*
X271870Y307701D01*
Y310027D01*
X273172Y311328D01*
X146126Y184402D02*
X146224D01*
X139724Y178000D02*
X146126Y184402D01*
X131500Y178000D02*
X139724D01*
X127547Y181953D02*
X131500Y178000D01*
X285000Y207000D02*
X288500Y203500D01*
Y193500D02*
Y203500D01*
X275990Y207000D02*
X285000D01*
X254500Y219480D02*
Y224500D01*
Y219480D02*
X255370Y218610D01*
X264380D01*
X275990Y207000D01*
X274500Y219480D02*
Y224500D01*
Y219480D02*
X280942Y213038D01*
X284462D01*
X284500Y213000D01*
X300328Y123500D02*
X301500Y124672D01*
X259000Y123500D02*
X300328D01*
X255870Y120370D02*
X259000Y123500D01*
X301500Y124672D02*
Y151342D01*
X291500Y144862D02*
Y152285D01*
X254500Y224500D02*
X254638Y224638D01*
X262500D01*
X274500Y224500D02*
X274547Y224547D01*
X284000D01*
X244000Y113953D02*
X244559D01*
X247512Y111000D01*
X255000D01*
X284500Y213000D02*
X284538Y212962D01*
X291500Y166453D02*
X295493D01*
X295946Y166000D01*
X296000D01*
X291500Y144862D02*
X295138D01*
X297000Y143000D01*
X286500Y113862D02*
X294808D01*
X294946Y114000D01*
X295000D01*
X255870Y111870D02*
Y120370D01*
X255000Y111000D02*
X255870Y111870D01*
X275870Y113862D02*
X286500D01*
X275000Y112992D02*
X275870Y113862D01*
X275000Y111000D02*
Y112992D01*
X151382Y201862D02*
X157547D01*
X146224Y173426D02*
X148630Y171020D01*
X147500Y196339D02*
Y196437D01*
X146728Y197209D02*
X147500Y196437D01*
X146630Y197209D02*
X146728D01*
X146224Y173426D02*
Y184402D01*
X155764Y174921D02*
Y175118D01*
X136130Y197209D02*
X146630D01*
X151224Y179657D02*
X155764Y175118D01*
X151224Y179657D02*
Y192614D01*
X146728Y197209D02*
X151382Y201862D01*
X147500Y196339D02*
X151224Y192614D01*
X160685Y174921D02*
X166847D01*
X148630Y161008D02*
Y165106D01*
X157032D02*
X157630Y164508D01*
X148630Y165106D02*
Y171020D01*
Y165106D02*
X157032D01*
D100*
X262500Y229362D02*
Y233500D01*
X259484Y245972D02*
X260961D01*
X264204Y242730D01*
X265270D01*
X265500Y242500D01*
X277500Y272500D02*
X277825D01*
X278368Y271957D01*
X282516D01*
X288000Y273000D02*
Y283441D01*
X283441Y287803D02*
Y288000D01*
Y287803D02*
X286110Y285134D01*
X286307D01*
X288000Y283441D01*
X282516Y271957D02*
X286957D01*
X288000Y273000D01*
X160685Y168461D02*
Y174921D01*
X169457Y158217D02*
X174581D01*
X177534Y155264D01*
X195673Y233173D02*
X232642D01*
X192441Y189303D02*
X192638D01*
X260500Y339500D02*
Y349000D01*
X131437Y165809D02*
X133209Y164037D01*
X140492D01*
X131437Y157640D02*
Y165809D01*
Y151045D02*
Y157640D01*
Y142876D02*
Y151045D01*
X133209Y144648D02*
X140492D01*
X131437Y142876D02*
X133209Y144648D01*
X181500Y189575D02*
Y192134D01*
Y183000D02*
Y189575D01*
X191169Y188031D02*
X192441Y189303D01*
X191169Y187835D02*
Y188031D01*
X190730Y187395D02*
X191169Y187835D01*
X190730Y185230D02*
Y187395D01*
X190500Y185000D02*
X190730Y185230D01*
X181500Y192134D02*
X181661Y192295D01*
X256500Y323000D02*
Y335500D01*
X260500Y339500D01*
X158000Y330500D02*
X159453Y329047D01*
X168835Y319000D02*
X171000D01*
X192595Y206209D02*
Y206504D01*
X232642Y233173D02*
X233173Y233705D01*
X159453Y324500D02*
Y329047D01*
Y324500D02*
X163335D01*
X147500Y330500D02*
X158000D01*
X189569Y203183D02*
X192595Y206209D01*
X143500Y326500D02*
X147500Y330500D01*
X163335Y324500D02*
X168835Y319000D01*
X189569Y191931D02*
X190500Y191000D01*
X192638Y171256D02*
Y179500D01*
Y189303D01*
X189569Y191931D02*
Y203183D01*
X140492Y144648D02*
X140640Y144500D01*
X141909Y146065D02*
Y149224D01*
X140492Y144648D02*
X141909Y146065D01*
X155039Y131500D02*
X156114Y130425D01*
X154504Y138842D02*
Y139433D01*
Y138842D02*
X155039Y138307D01*
X174414Y124500D02*
X175000Y125086D01*
X169366Y158307D02*
X169457Y158217D01*
X195303Y162059D02*
X195500D01*
X141909Y149224D02*
Y151784D01*
X156114Y128386D02*
Y130425D01*
X163224Y160421D02*
X165339Y158307D01*
X160685Y168461D02*
X163224Y165921D01*
X175000Y125086D02*
Y128181D01*
X155039Y131500D02*
Y138307D01*
X163224Y160421D02*
Y165921D01*
X140640Y144500D02*
X149437D01*
X184547Y129157D02*
X191949D01*
X176047D02*
X184547D01*
X175976D02*
X176047D01*
X165339Y158307D02*
X169366D01*
X191882Y165480D02*
X195303Y162059D01*
X191882Y170500D02*
X192638Y171256D01*
X156114Y128386D02*
X160000Y124500D01*
X149437Y144500D02*
X154504Y139433D01*
X175000Y128181D02*
X175976Y129157D01*
X191882Y165480D02*
Y170500D01*
X160000Y124500D02*
X174414D01*
D101*
X253455Y246045D02*
Y254207D01*
Y246045D02*
X262500Y237000D01*
X259484Y256602D02*
X259683Y256801D01*
X262500Y237000D02*
X299941D01*
X261354Y248925D02*
X268075D01*
X299941Y237000D02*
X301168Y238227D01*
X278700Y238300D02*
X295438D01*
X268075Y248925D02*
X278700Y238300D01*
X262514Y260033D02*
X269257Y266776D01*
X262226Y260033D02*
X262514D01*
X269257Y267086D02*
X276000Y273828D01*
X269257Y266776D02*
Y267086D01*
X261354Y259161D02*
X262226Y260033D01*
X276000Y273828D02*
Y290936D01*
X275500Y269500D02*
X275551Y269449D01*
X282465D01*
X262126Y265051D02*
X262556D01*
X274700Y277195D01*
X302441Y322303D02*
Y322500D01*
X261354Y264280D02*
X262126Y265051D01*
X273400Y278454D02*
Y292013D01*
X274700Y277195D02*
Y291475D01*
X261354Y266839D02*
X262126Y267610D01*
X262556D02*
X273400Y278454D01*
X262126Y267610D02*
X262556D01*
X282465Y269449D02*
X282516Y269398D01*
X285000Y283500D02*
X286600Y281900D01*
X282516Y274516D02*
X286131D01*
X286600Y274984D01*
Y281900D01*
X286550Y266839D02*
X289500Y269789D01*
Y287059D01*
X288559Y288000D02*
X289500Y287059D01*
X312535Y224616D02*
Y240694D01*
X323102Y302012D02*
X324079Y301035D01*
Y251035D02*
Y255587D01*
X321250Y302012D02*
X323102D01*
X324079Y281035D02*
Y281863D01*
X307559Y309336D02*
X323102Y293794D01*
X307559Y334803D02*
X308635Y333727D01*
X320897D01*
X323588Y331035D02*
X324079D01*
X323102Y292012D02*
X324079Y291035D01*
X318803Y266312D02*
X324079Y261035D01*
X307559Y290236D02*
Y290433D01*
Y290236D02*
X318803Y278993D01*
Y266312D02*
Y278993D01*
X307559Y227754D02*
X314380Y220933D01*
Y190734D02*
Y220933D01*
Y190734D02*
X324079Y181035D01*
X307559Y227754D02*
Y239500D01*
Y283870D02*
Y284067D01*
X317503Y262163D02*
X324079Y255587D01*
X317503Y262163D02*
Y273926D01*
X307559Y283870D02*
X317503Y273926D01*
X307559Y277503D02*
X316203Y268860D01*
Y259803D02*
Y268860D01*
X319035Y246079D02*
X324079Y241035D01*
X316203Y259803D02*
X319035Y256971D01*
X307559Y277503D02*
Y277700D01*
X319035Y246079D02*
Y256971D01*
X314903Y259265D02*
X317735Y256432D01*
X314903Y259265D02*
Y263793D01*
X317735Y237379D02*
X324079Y231035D01*
X307559Y271136D02*
X314903Y263793D01*
X307559Y271136D02*
Y271333D01*
X317735Y237379D02*
Y256432D01*
X316435Y228679D02*
Y255894D01*
X307559Y264770D02*
Y264967D01*
X316435Y228679D02*
X324079Y221035D01*
X307559Y264770D02*
X316435Y255894D01*
X315135Y225693D02*
X318469Y222360D01*
Y216646D02*
Y222360D01*
Y216646D02*
X324079Y211035D01*
X307559Y258403D02*
Y258600D01*
Y258403D02*
X315135Y250827D01*
Y225693D02*
Y250827D01*
X307559Y252036D02*
X313835Y245760D01*
X317169Y207945D02*
Y221821D01*
X313835Y225155D02*
Y245760D01*
X307559Y252036D02*
Y252233D01*
X317169Y207945D02*
X324079Y201035D01*
X313835Y225155D02*
X317169Y221821D01*
X316481Y328633D02*
X324079Y321035D01*
X307500Y328633D02*
X316481D01*
X312848Y322267D02*
X324079Y311035D01*
X307559Y322267D02*
X312848D01*
X307559Y334803D02*
Y335000D01*
X320897Y333727D02*
X323588Y331035D01*
X307559Y315703D02*
X321250Y302012D01*
X307559Y315703D02*
Y315900D01*
X323102Y292012D02*
Y293794D01*
X307559Y309336D02*
Y309533D01*
Y302970D02*
Y303167D01*
X315869Y290073D02*
Y294660D01*
Y290073D02*
X324079Y281863D01*
X307559Y302970D02*
X315869Y294660D01*
X320103Y275011D02*
Y284000D01*
X307500Y296603D02*
X320103Y284000D01*
X307500Y296603D02*
Y296800D01*
X320103Y275011D02*
X324079Y271035D01*
X312535Y224616D02*
X315869Y221283D01*
Y199246D02*
X324079Y191035D01*
X315869Y199246D02*
Y221283D01*
X307559Y245670D02*
Y245867D01*
Y245670D02*
X312535Y240694D01*
X301365Y309424D02*
X302441Y310500D01*
X301365Y306660D02*
Y309424D01*
X292270Y297566D02*
X301365Y306660D01*
X292270Y292383D02*
Y297566D01*
X295438Y238300D02*
X302441Y245303D01*
Y239303D02*
Y239500D01*
X301365Y238227D02*
X302441Y239303D01*
X301168Y238227D02*
X301365D01*
X253455Y254207D02*
X254800Y255552D01*
Y255800D01*
X241610Y244200D02*
X253500Y256090D01*
Y261000D01*
X234667Y244200D02*
X241610D01*
X255602Y256602D02*
X259484D01*
X254800Y255800D02*
X255602Y256602D01*
X282500Y283500D02*
X285000D01*
X282516Y274516D02*
X282516Y274516D01*
X282516Y266839D02*
X286550D01*
X274802Y303386D02*
X290871D01*
X295000Y307515D02*
Y327362D01*
X296500Y307176D02*
Y322421D01*
X291748Y300586D02*
X298000Y306838D01*
X291310Y301986D02*
X296500Y307176D01*
Y322421D02*
X302382Y328303D01*
X290871Y303386D02*
X295000Y307515D01*
X298000Y306838D02*
Y317862D01*
X279272Y300586D02*
X291748D01*
X278693Y301986D02*
X291310D01*
X275070Y296384D02*
X279272Y300586D01*
X298000Y317862D02*
X302441Y322303D01*
X295000Y327362D02*
X302441Y334803D01*
X298769Y269227D02*
X301365D01*
X298200Y259200D02*
Y264780D01*
X298300Y264880D01*
Y268758D02*
X298769Y269227D01*
X298300Y264880D02*
Y268758D01*
X301365Y269227D02*
X301903Y269765D01*
X287925Y248925D02*
X298200Y259200D01*
X291500Y268000D02*
Y291613D01*
X288000Y264500D02*
X291500Y268000D01*
Y291613D02*
X292270Y292383D01*
X284773Y264500D02*
X288000D01*
X282516Y245972D02*
X287472D01*
X299500Y258000D02*
Y260862D01*
X287472Y245972D02*
X299500Y258000D01*
X282516Y248925D02*
X287925D01*
X299500Y260862D02*
X302441Y263803D01*
X279444Y243791D02*
X288929D01*
X293529Y242391D02*
X302441Y251303D01*
Y263803D02*
Y264000D01*
Y245303D02*
Y245500D01*
X278864Y242391D02*
X293529D01*
X302441Y251303D02*
Y251500D01*
Y257303D02*
Y257500D01*
X288929Y243791D02*
X302441Y257303D01*
Y289803D02*
Y290000D01*
X282516Y256602D02*
X284386D01*
X302382Y328303D02*
Y328500D01*
X302441Y334803D02*
Y335000D01*
X186965Y242535D02*
Y250063D01*
X186265Y237735D02*
X191965Y243434D01*
X209587Y242500D02*
X211965Y244878D01*
X232341Y246526D02*
X234667Y244200D01*
X218500Y272000D02*
X231063Y259437D01*
X200593Y245330D02*
Y248691D01*
X230000Y264000D02*
X237929D01*
X179253Y273500D02*
X180753Y272000D01*
X163000Y274000D02*
X171000D01*
X243621Y304000D02*
X244454Y303167D01*
X230354Y297025D02*
X230957Y297628D01*
X235764Y259000D02*
X245236D01*
X228336Y246526D02*
X232341D01*
X200593Y248691D02*
X201965Y250063D01*
X238329Y304000D02*
X243621D01*
X211965Y244878D02*
Y250063D01*
X239000Y252163D02*
Y252929D01*
X159879Y259500D02*
X160379Y259000D01*
X171000D01*
X230957Y297628D02*
X236558D01*
X179000Y273500D02*
X179253D01*
X159500Y259500D02*
X159879D01*
X159306Y269000D02*
X171000D01*
X229975Y297025D02*
X230354D01*
X199500Y244237D02*
X200593Y245330D01*
X207000Y242500D02*
X209587D01*
X235326Y259437D02*
X235764Y259000D01*
X163000Y254000D02*
X171000D01*
X230000Y269000D02*
X237929D01*
X241094Y313000D02*
X246500D01*
X226965Y247898D02*
Y250063D01*
X237929Y254000D02*
X239000Y252929D01*
X240094Y314000D02*
X241094Y313000D01*
X231063Y259437D02*
X235326D01*
X162500Y264000D02*
X171000D01*
Y309000D02*
X179500D01*
X191965Y243434D02*
Y250063D01*
X226965Y247898D02*
X228336Y246526D01*
X237929Y304000D02*
X243621D01*
X236558Y297628D02*
X237929Y299000D01*
X180753Y272000D02*
X218500D01*
X199500Y243858D02*
Y244237D01*
X245662Y258574D02*
X246041D01*
X186965Y242535D02*
X187000Y242500D01*
X237929Y304000D02*
X238329Y303600D01*
X245236Y259000D02*
X245662Y258574D01*
X159290Y268983D02*
X159306Y269000D01*
X250000Y348500D02*
X250500Y349000D01*
X250000Y322180D02*
Y348500D01*
X256500Y295000D02*
X259250D01*
X255500Y294000D02*
X256500Y295000D01*
X259250D02*
X261000Y296750D01*
X252591Y285372D02*
X266056Y298837D01*
X239301Y285372D02*
X252591D01*
X266056Y298837D02*
Y309021D01*
X237929Y294000D02*
X255500D01*
X259235Y297932D02*
X260803Y299500D01*
X261000D01*
X252697D02*
X254867Y297330D01*
Y296633D02*
Y297330D01*
Y296633D02*
X255058Y296442D01*
X273770Y297063D02*
X278693Y301986D01*
X275070Y291845D02*
Y296384D01*
X276370Y295704D02*
X279852Y299186D01*
X276000Y290936D02*
X276370Y291306D01*
X273400Y292013D02*
X273770Y292383D01*
Y297063D01*
X274700Y291475D02*
X275070Y291845D01*
X276370Y291306D02*
Y295704D01*
X278000Y277000D02*
X282441D01*
X282516Y277075D01*
X169076Y322227D02*
X174896D01*
X159302Y332000D02*
X169076Y322227D01*
X139547Y328137D02*
X143410Y332000D01*
X159302D01*
X151130Y149110D02*
X154504Y145736D01*
X174581Y143276D02*
Y147187D01*
X180487Y163341D02*
Y172017D01*
X178518Y163341D02*
Y173018D01*
X182455Y163341D02*
X182521Y163407D01*
X172130Y142807D02*
X174112D01*
X182521Y163407D02*
Y169934D01*
X169427Y154250D02*
X169457Y154279D01*
X172613Y143290D02*
Y147187D01*
X174112Y142807D02*
X174581Y143276D01*
X174500Y163422D02*
Y168000D01*
X182521Y169934D02*
X182587Y170000D01*
X163762Y154148D02*
X163864Y154250D01*
X169427D01*
X172130Y142807D02*
X172613Y143290D01*
X177791Y173208D02*
X177981Y173018D01*
X178518D01*
X174500Y163422D02*
X174581Y163341D01*
X250000Y322180D02*
X255665Y316515D01*
X264656Y302960D02*
Y311157D01*
X266056Y309021D02*
X272235Y315200D01*
X274290D02*
X280453Y321363D01*
X261197Y299500D02*
X264656Y302960D01*
X280453Y321363D02*
Y325297D01*
X272547Y333203D02*
X280453Y325297D01*
X272235Y315200D02*
X274290D01*
X143500Y336500D02*
X158000Y351000D01*
X242500D01*
X174896Y322227D02*
X184898Y312224D01*
Y284002D02*
Y312224D01*
X168835Y309000D02*
X171000D01*
X184898Y284002D02*
X194901Y274000D01*
X168245Y212130D02*
X174012Y217897D01*
Y249233D02*
X179779Y255000D01*
X174012Y217897D02*
Y249233D01*
X179779Y255000D02*
X219193D01*
X244000Y317905D02*
Y349500D01*
X240094Y314000D02*
X244000Y317905D01*
X242500Y351000D02*
X244000Y349500D01*
X255665Y302468D02*
Y316515D01*
X252697Y299500D02*
X255665Y302468D01*
X261000Y296750D02*
Y299500D01*
X267457Y298257D02*
Y308442D01*
X248200Y279000D02*
X267457Y298257D01*
X237929Y279000D02*
X248200D01*
X281853Y320783D02*
Y330147D01*
X272815Y313800D02*
X274870D01*
X281853Y320783D01*
X267457Y308442D02*
X272815Y313800D01*
X288128Y308301D02*
X289500Y306929D01*
X252500Y299500D02*
X252697D01*
X261000D02*
X261197D01*
X180618Y172618D02*
X188069Y180069D01*
X251000Y276000D02*
Y279584D01*
X250735Y301068D02*
X252303Y299500D01*
X250735Y301068D02*
Y301229D01*
X252303Y299500D02*
X252500D01*
X259484Y259161D02*
X261354D01*
X256413Y271185D02*
X256842D01*
X259484Y266839D02*
X261354D01*
X262126Y270169D02*
X262556D01*
X261354Y269398D02*
X262126Y270169D01*
X259484Y269398D02*
X261354D01*
X256413Y276303D02*
X256842D01*
X257614Y277075D02*
X259484D01*
X256413Y273744D02*
X256842D01*
X257614Y274516D02*
X259484D01*
X256842Y276303D02*
X257614Y277075D01*
X256842Y273744D02*
X257614Y274516D01*
X264720Y272744D02*
X264988Y273012D01*
X278858Y244377D02*
X279444Y243791D01*
X276500Y244756D02*
X278864Y242391D01*
X272547Y337137D02*
X274863Y339453D01*
X254737Y279989D02*
X254777Y280028D01*
X254000Y263500D02*
Y265000D01*
X257614Y271957D02*
X259484D01*
X256842Y271185D02*
X257614Y271957D01*
X259484Y264280D02*
X261354D01*
X264720Y272333D02*
Y272744D01*
X272957Y254043D02*
X278858Y248142D01*
X273016Y251484D02*
X276500Y248000D01*
X278858Y244377D02*
Y248142D01*
X276500Y244756D02*
Y248000D01*
X272547Y333203D02*
Y337137D01*
X281039Y280028D02*
X282516D01*
X282547Y339453D02*
X286500Y335500D01*
X250941Y255512D02*
Y265714D01*
X249541Y256091D02*
Y266873D01*
X255780Y261720D02*
X259484D01*
X254000Y263500D02*
X255780Y261720D01*
X250941Y265714D02*
X256413Y271185D01*
X280250Y286986D02*
X280258Y286978D01*
Y280809D02*
Y286978D01*
X280250Y294528D02*
X289500D01*
X276500Y335500D02*
X281853Y330147D01*
X274863Y339453D02*
X282547D01*
X249541Y266873D02*
X256413Y273744D01*
X248141Y268032D02*
X256413Y276303D01*
X254777Y280028D02*
X259484D01*
X280258Y280809D02*
X281039Y280028D01*
X262556Y270169D02*
X264720Y272333D01*
X264656Y311157D02*
X276500Y323000D01*
X248141Y256671D02*
Y268032D01*
X280250Y286986D02*
Y294528D01*
X259484Y254043D02*
X272957D01*
X259484Y251484D02*
X273016D01*
X251000Y279584D02*
X274802Y303386D01*
X171000Y264000D02*
X220150D01*
X176765Y270400D02*
X217710D01*
X171000Y269000D02*
X217130D01*
X217710Y270400D02*
X232536Y255574D01*
X217130Y269000D02*
X231136Y254994D01*
X220150Y264000D02*
X229736Y254414D01*
X232536Y252270D02*
Y255574D01*
X229736Y251110D02*
Y254414D01*
X231136Y251690D02*
Y254994D01*
X173165Y274000D02*
X176765Y270400D01*
X239000Y227684D02*
Y239000D01*
X133257Y231153D02*
X134437D01*
X138853Y213827D02*
X143350Y209330D01*
X139547Y224863D02*
Y228023D01*
X139547Y228023D02*
Y230453D01*
Y228023D02*
X139547Y228023D01*
X155366Y230393D02*
X155421D01*
X157173Y228641D01*
X156509Y242166D02*
X157173Y241503D01*
X156509Y242166D02*
Y244030D01*
X155039Y245500D02*
X156509Y244030D01*
X153569Y246000D02*
X155039Y244530D01*
X153547Y324500D02*
X153941Y324106D01*
X171000Y274000D02*
X173165D01*
X190350Y217472D02*
X190607D01*
X189770Y218872D02*
X189872D01*
X197319Y206504D02*
Y206799D01*
X192535Y211335D02*
Y214504D01*
X197654D02*
Y214701D01*
X195895Y248993D02*
X196965Y250063D01*
X221965D02*
Y252228D01*
X219193Y255000D02*
X221965Y252228D01*
X236146Y224831D02*
X239000Y227684D01*
X232536Y252270D02*
X233578Y251228D01*
X234047Y250947D01*
X232998Y249828D02*
X233630Y249419D01*
X234047Y250947D02*
X235583D01*
X238130Y248400D01*
X237929Y284000D02*
X239301Y285372D01*
X133500Y215220D02*
Y216500D01*
X129547Y234863D02*
X133257Y231153D01*
X129547Y262547D02*
X133500Y266500D01*
X137453Y213248D02*
Y222547D01*
X138147Y224283D02*
X138853Y223577D01*
X137453Y213248D02*
X142771Y207930D01*
X138147Y224283D02*
Y227443D01*
X138853Y213827D02*
Y223577D01*
X139547Y320453D02*
X143500Y316500D01*
X157173Y222520D02*
Y223701D01*
Y236299D02*
Y241503D01*
X161039Y215000D02*
Y218653D01*
X170827Y303827D02*
X171000Y304000D01*
X186669Y215772D02*
X189770Y218872D01*
X188069Y215192D02*
X190350Y217472D01*
X192535Y211335D02*
X195995Y207876D01*
X196242D01*
X197319Y206799D01*
X197654Y214701D02*
X199025Y216072D01*
X199222D01*
X195895Y244395D02*
Y248993D01*
X200825Y241758D02*
X206965Y247898D01*
Y250063D01*
X212000Y203500D02*
Y214591D01*
X216965Y247898D02*
Y250063D01*
X227000Y214591D02*
Y215772D01*
X233630Y249419D02*
X236049Y247000D01*
X129547Y234863D02*
Y262547D01*
X139547Y320453D02*
Y328137D01*
X157173Y223701D02*
Y228641D01*
X155039Y245500D02*
Y270539D01*
X153941Y315500D02*
Y324106D01*
X183528Y220688D02*
Y232028D01*
X187728Y218949D02*
Y229890D01*
X184928Y220108D02*
Y231050D01*
X186328Y219529D02*
Y230470D01*
X241100Y227033D02*
Y237000D01*
X157173Y222520D02*
X161039Y218653D01*
X143957Y220453D02*
X147567D01*
X134437Y231153D02*
X138147Y227443D01*
X139547Y300453D02*
X147567D01*
X139547Y310453D02*
X145424D01*
X190607Y217472D02*
X195567Y222433D01*
X166335Y306500D02*
X168835Y309000D01*
X197319Y206504D02*
X205496D01*
X208000Y204000D01*
X203071Y219921D02*
X222850D01*
X196796Y238958D02*
X218025D01*
X235246Y245600D02*
X241030D01*
X236049Y247000D02*
X240450D01*
X231136Y251690D02*
X232998Y249828D01*
X238130Y248400D02*
X239870D01*
X237929Y309000D02*
X242964D01*
X143500Y226500D02*
X157870Y212130D01*
X133500Y215220D02*
X142191Y206530D01*
X133500Y226500D02*
X137453Y222547D01*
X139547Y224863D02*
X143957Y220453D01*
X147567D02*
X157290Y210730D01*
X152169Y233590D02*
X155366Y230393D01*
X133500Y236500D02*
X139547Y230453D01*
X152169Y272669D02*
X163500Y284000D01*
X155039Y270539D02*
X163500Y279000D01*
X143500Y306500D02*
X151000Y299000D01*
X133500Y306500D02*
X139547Y300453D01*
X147567D02*
X154020Y294000D01*
X133500Y316500D02*
X139547Y310453D01*
X145424D02*
X152050Y303827D01*
X174149Y209330D02*
X184928Y220108D01*
X175309Y206530D02*
X187728Y218949D01*
X173569Y210730D02*
X183528Y220688D01*
X174729Y207930D02*
X186328Y219529D01*
X222850Y219921D02*
X227000Y215772D01*
X199222Y216072D02*
X203071Y219921D01*
X218025Y238958D02*
X226965Y247898D01*
X209425Y240358D02*
X216965Y247898D01*
X236500Y222433D02*
X241100Y227033D01*
X229736Y251110D02*
X235246Y245600D01*
X152169Y233590D02*
Y272669D01*
X143500Y296500D02*
X151000Y289000D01*
X157290Y210730D02*
X173569D01*
X157870Y212130D02*
X168245D01*
X195567Y222433D02*
X236500D01*
X195831Y224831D02*
X236146D01*
X195636Y241758D02*
X200825D01*
X194901Y274000D02*
X237929D01*
X163500Y279000D02*
X171000D01*
X163500Y284000D02*
X171000D01*
X151000Y289000D02*
X171000D01*
X154020Y294000D02*
X171000D01*
X151000Y299000D02*
X171000D01*
X159059Y306500D02*
X166335D01*
X189872Y218872D02*
X195831Y224831D01*
X196216Y240358D02*
X209425D01*
X184928Y231050D02*
X195636Y241758D01*
X187728Y229890D02*
X196796Y238958D01*
X186328Y230470D02*
X196216Y240358D01*
X183528Y232028D02*
X195895Y244395D01*
X152050Y303827D02*
X170827D01*
X142191Y206530D02*
X175309D01*
X143350Y209330D02*
X174149D01*
X142771Y207930D02*
X174729D01*
X240450Y247000D02*
X249541Y256091D01*
X239870Y248400D02*
X248141Y256671D01*
X242964Y309000D02*
X250735Y301229D01*
X205705Y126945D02*
X214000D01*
X241030Y245600D02*
X250941Y255512D01*
X178518Y173018D02*
X186669Y181169D01*
X188069Y180069D02*
Y215192D01*
X186669Y181169D02*
Y215772D01*
X197362Y179500D02*
X197862Y179000D01*
X197559Y189303D02*
Y189500D01*
X192441Y197303D02*
Y197500D01*
Y197303D02*
X197276Y192469D01*
X212000Y178409D02*
Y179551D01*
X209250Y182301D02*
X212000Y179551D01*
X227500Y177768D02*
Y178909D01*
X197862Y179000D02*
X202000D01*
X204561Y182301D02*
X209250D01*
X197276Y192469D02*
X225532D01*
X197559Y197500D02*
X206000D01*
X197559Y189303D02*
X204561Y182301D01*
X206000Y197500D02*
X212000Y203500D01*
X225532Y192469D02*
X232500Y185500D01*
X230346Y127500D02*
X230902Y126945D01*
X232500Y157500D02*
Y185500D01*
X231000Y156000D02*
X232500Y157500D01*
X220232Y170500D02*
X227500Y177768D01*
X141909Y156902D02*
X141918Y156893D01*
X150630Y154342D02*
X151130Y153842D01*
X154504Y145343D02*
Y145736D01*
X154076Y145771D02*
X154504Y145343D01*
X160409D02*
X165094D01*
X160409D02*
Y145736D01*
X170961Y128795D02*
X174676Y132510D01*
Y132806D01*
X169384Y156321D02*
X169457Y156248D01*
X185611Y154279D02*
X189330D01*
X199000Y153500D02*
X199500Y154000D01*
Y158752D01*
X194996Y153500D02*
X199000D01*
X204095Y119500D02*
X205705Y117890D01*
X205213Y146945D02*
X205803D01*
X203250Y148907D02*
X205213Y146945D01*
X203250Y148907D02*
Y148930D01*
X201176Y151004D02*
X203250Y148930D01*
X205803Y156000D02*
Y159385D01*
X203250Y162502D02*
Y163093D01*
X205213Y165055D01*
X205803D01*
X210999Y146945D02*
X211031Y146978D01*
X151130Y149110D02*
Y153842D01*
X157630Y148516D02*
Y152106D01*
X160409Y138842D02*
Y145343D01*
X176550Y134384D02*
Y147187D01*
X186541Y143710D02*
X190128D01*
X198000Y120000D02*
X198500Y119500D01*
X192500Y151004D02*
X194996Y153500D01*
X198303Y142811D02*
Y145886D01*
X205114Y136000D02*
X205705D01*
X205000Y160188D02*
Y160500D01*
Y160188D02*
X205803Y159385D01*
X198000Y120000D02*
Y134306D01*
X157630Y148516D02*
X160409Y145736D01*
X141909Y154342D02*
X150630D01*
X152097D01*
X154076Y156321D01*
X141918Y156893D02*
X150130D01*
X174676Y132806D02*
X175752Y133882D01*
X168047Y128795D02*
X170961D01*
X176047Y133882D02*
X176550Y134384D01*
X175752Y133882D02*
X176047D01*
X167630Y142807D02*
X172130D01*
X192303Y151004D02*
X192500D01*
X189330Y154279D02*
X191991Y156941D01*
X195500D01*
X198500Y119500D02*
X204095D01*
X198303Y151004D02*
X201176D01*
X205803Y146945D02*
X210999D01*
X165094Y145343D02*
X167630Y142807D01*
X192303Y140003D02*
Y145886D01*
X190128Y143710D02*
X192303Y145886D01*
X199500Y158752D02*
X203250Y162502D01*
X198303Y142811D02*
X205114Y136000D01*
X154076Y156321D02*
X169384D01*
X192303Y140003D02*
X198000Y134306D01*
X205803Y156000D02*
X231000D01*
X214000Y127500D02*
X230346D01*
X197000Y170500D02*
X220232D01*
D102*
X179070Y314000D02*
X179090Y313981D01*
X171000Y314000D02*
X179070D01*
X164207Y150798D02*
X165720Y152311D01*
X163630Y150606D02*
X163900D01*
X164164Y150343D01*
X163821Y150798D02*
X164207D01*
X164164Y150343D02*
X169457D01*
X163630Y150606D02*
X163821Y150798D01*
X165720Y152311D02*
X169457D01*
X218500Y228449D02*
X232524D01*
X195673D02*
X218500D01*
X290500Y345000D02*
Y349000D01*
X273500Y342500D02*
X288000D01*
X290500Y345000D01*
X261000Y305012D02*
Y317500D01*
X266500Y323000D01*
X168835Y314000D02*
X171000D01*
X159961Y131500D02*
Y131697D01*
X162149Y133885D01*
X163885D01*
X164000Y134000D01*
X266500Y323000D02*
Y335500D01*
X273500Y342500D01*
X153941Y306500D02*
Y306697D01*
X156896Y309652D01*
X156980D01*
X153065Y307573D02*
X153941Y306697D01*
X152868Y307573D02*
X153065D01*
X191000Y225500D02*
X191191Y225691D01*
X192621D02*
X195378Y228449D01*
X195673D01*
X218500D02*
Y230973D01*
X137947Y316180D02*
Y322053D01*
Y316180D02*
X141780Y312347D01*
X156980Y309652D02*
X159059Y311732D01*
Y315500D01*
X133500Y326500D02*
X137947Y322053D01*
X191191Y225691D02*
X192621D01*
X167335Y315500D02*
X168835Y314000D01*
X232524Y228449D02*
X233173Y227799D01*
X148094Y312347D02*
X152868Y307573D01*
X141780Y312347D02*
X148094D01*
X159059Y315500D02*
X167335D01*
X158433Y183240D02*
X165405D01*
X148630Y161008D02*
X151163D01*
X151296Y160875D01*
X172049Y138309D02*
X173309D01*
X173500Y138500D01*
X147083Y159461D02*
X148630Y161008D01*
X168047Y134701D02*
X168441D01*
X184597Y133931D02*
X191998D01*
X184547Y133882D02*
X184597Y133931D01*
X167654Y134701D02*
X168047D01*
X141909Y159461D02*
X147083D01*
X184547Y133882D02*
Y137682D01*
X168441Y134701D02*
X172049Y138309D01*
X159961Y131500D02*
X164453D01*
X167654Y134701D01*
D103*
X309000Y192000D02*
D03*
Y218000D02*
D03*
D104*
X299158Y192000D02*
D03*
Y218000D02*
D03*
D105*
X300500Y349000D02*
D03*
X290500D02*
D03*
X280500D02*
D03*
X270500D02*
D03*
X260500D02*
D03*
X344079Y331035D02*
D03*
Y321035D02*
D03*
Y311035D02*
D03*
Y301035D02*
D03*
Y291035D02*
D03*
Y281035D02*
D03*
Y271035D02*
D03*
Y261035D02*
D03*
Y251035D02*
D03*
Y241035D02*
D03*
Y231035D02*
D03*
Y221035D02*
D03*
Y211035D02*
D03*
Y201035D02*
D03*
Y191035D02*
D03*
X334079Y331035D02*
D03*
Y321035D02*
D03*
Y311035D02*
D03*
Y301035D02*
D03*
Y291035D02*
D03*
Y281035D02*
D03*
Y271035D02*
D03*
Y261035D02*
D03*
Y251035D02*
D03*
Y241035D02*
D03*
Y231035D02*
D03*
Y221035D02*
D03*
Y211035D02*
D03*
Y201035D02*
D03*
Y191035D02*
D03*
X324079Y331035D02*
D03*
Y321035D02*
D03*
Y311035D02*
D03*
Y301035D02*
D03*
Y291035D02*
D03*
Y281035D02*
D03*
Y271035D02*
D03*
Y261035D02*
D03*
Y251035D02*
D03*
Y241035D02*
D03*
Y231035D02*
D03*
Y221035D02*
D03*
Y211035D02*
D03*
Y201035D02*
D03*
Y191035D02*
D03*
X266500Y335500D02*
D03*
X276500D02*
D03*
X286500D02*
D03*
X133500Y216500D02*
D03*
X143500Y226500D02*
D03*
X133500D02*
D03*
X143500Y236500D02*
D03*
X133500D02*
D03*
X143500Y246500D02*
D03*
X133500D02*
D03*
X143500Y256500D02*
D03*
X133500D02*
D03*
X143500Y266500D02*
D03*
X133500D02*
D03*
X143500Y276500D02*
D03*
X133500D02*
D03*
X143500Y286500D02*
D03*
X133500D02*
D03*
X143500Y296500D02*
D03*
X133500D02*
D03*
X143500Y306500D02*
D03*
X133500D02*
D03*
X143500Y316500D02*
D03*
X133500D02*
D03*
X143500Y326500D02*
D03*
X133500D02*
D03*
X143500Y336500D02*
D03*
X133500D02*
D03*
X188000Y115500D02*
D03*
X178000D02*
D03*
X168000D02*
D03*
X286500Y323000D02*
D03*
X276500D02*
D03*
X266500D02*
D03*
D106*
X250500Y349000D02*
D03*
X256500Y335500D02*
D03*
X158000Y115500D02*
D03*
X256500Y323000D02*
D03*
D107*
X344079Y181035D02*
D03*
X334079D02*
D03*
X324079D02*
D03*
X143500Y216500D02*
D03*
D108*
X333000Y159343D02*
D03*
D109*
Y139657D02*
D03*
D110*
X338000Y113000D02*
D03*
Y353000D02*
D03*
X136500D02*
D03*
Y113000D02*
D03*
D111*
X262500Y233500D02*
D03*
X265500Y242500D02*
D03*
X277500Y272500D02*
D03*
X275500Y269500D02*
D03*
X179500Y309000D02*
D03*
X163000Y254000D02*
D03*
X159500Y259500D02*
D03*
X246500Y313000D02*
D03*
X246041Y258574D02*
D03*
X187000Y242500D02*
D03*
X207000D02*
D03*
X230000Y264000D02*
D03*
X199500Y243858D02*
D03*
X239000Y252163D02*
D03*
X186265Y237735D02*
D03*
X159290Y268983D02*
D03*
X179090Y313981D02*
D03*
X244454Y303167D02*
D03*
X253500Y261000D02*
D03*
X177000Y242000D02*
D03*
X179000Y273500D02*
D03*
X229975Y297025D02*
D03*
X163000Y274000D02*
D03*
X230000Y269000D02*
D03*
X162500Y264000D02*
D03*
X207000Y306500D02*
D03*
X259250Y295000D02*
D03*
X255058Y296442D02*
D03*
X271400Y289651D02*
D03*
X278000Y277000D02*
D03*
X177791Y173208D02*
D03*
X174500Y168000D02*
D03*
X163762Y154148D02*
D03*
X182587Y170000D02*
D03*
X163630Y150606D02*
D03*
X180735Y172265D02*
D03*
X170500Y242000D02*
D03*
X166000Y196000D02*
D03*
X169000Y219000D02*
D03*
X157000Y170000D02*
D03*
X140500Y173500D02*
D03*
X190500Y185000D02*
D03*
X181500Y183000D02*
D03*
X246920Y323594D02*
D03*
X249500Y318000D02*
D03*
X134500Y181000D02*
D03*
X283022Y311522D02*
D03*
X164000Y134000D02*
D03*
X282500Y283500D02*
D03*
X284500Y213000D02*
D03*
X288500Y193500D02*
D03*
X296000Y166000D02*
D03*
X297000Y143000D02*
D03*
X295000Y114000D02*
D03*
X251000Y276000D02*
D03*
X254000Y265000D02*
D03*
X254737Y279989D02*
D03*
X264988Y273012D02*
D03*
X239000Y239000D02*
D03*
X218500Y230973D02*
D03*
X191000Y225500D02*
D03*
X208000Y204000D02*
D03*
X241100Y237000D02*
D03*
X202000Y179000D02*
D03*
X165405Y183240D02*
D03*
X150130Y156893D02*
D03*
X173500Y138500D02*
D03*
X211031Y146978D02*
D03*
X186541Y143710D02*
D03*
X205000Y160500D02*
D03*
X214000Y127500D02*
D03*
X184000Y138500D02*
D03*
X151296Y160875D02*
D03*
M02*
