M48
;Layer_Color=9474304
;FILE_FORMAT=2:5
INCH,TZ
;TYPE=PLATED
T1F00S00C0.01200
T2F00S00C0.03150
T3F00S00C0.03543
T4F00S00C0.04331
T5F00S00C0.10000
%
T01
X164000Y134000
X173500Y138500
X184000
X186541Y143710
X211031Y146978
X214000Y127500
X163630Y150606
X163762Y154148
X297000Y143000
X295000Y114000
X296000Y166000
X288500Y193500
X284500Y213000
X262500Y233500
X265500Y242500
X241100Y237000
X239000Y239000
Y252163
X246041Y258574
X253500Y261000
X254000Y265000
X251000Y276000
X254737Y279989
X255058Y296442
X259250Y295000
X271400Y289651
X282500Y283500
X278000Y277000
X277500Y272500
X275500Y269500
X264988Y273012
X230000Y269000
Y264000
X229975Y297025
X244454Y303167
X207000Y306500
X179500Y309000
X179000Y273500
X163000Y274000
X159290Y268983
X162500Y264000
X159500Y259500
X163000Y254000
X170500Y242000
X177000
X187000Y242500
X186265Y237735
X191000Y225500
X199500Y243858
X207000Y242500
X218500Y230973
X208000Y204000
X202000Y179000
X190500Y185000
X181500Y183000
X180735Y172265
X177791Y173208
X182587Y170000
X174500Y168000
X157000Y170000
X165405Y183240
X166000Y196000
X169000Y219000
X205000Y160500
X283022Y311522
X134500Y181000
X140500Y173500
X151296Y160875
X150130Y156893
X179090Y313981
X246500Y313000
X249500Y318000
X246920Y323594
T02
X299158Y192000
X309000
Y218000
X299158
T03
X158000Y115500
X168000
X178000
X188000
X324079Y181035
X334079
X344079
Y191035
Y201035
Y211035
Y221035
Y231035
Y241035
Y251035
Y261035
Y271035
Y281035
Y291035
Y301035
Y311035
X334079
Y301035
Y291035
Y281035
Y271035
Y261035
Y251035
Y241035
Y231035
Y221035
Y211035
Y201035
Y191035
X324079
Y201035
Y211035
Y221035
Y231035
Y241035
Y251035
Y261035
Y271035
Y281035
Y291035
Y301035
Y311035
X143500Y306500
Y296500
Y286500
Y276500
Y266500
Y256500
Y246500
Y236500
Y226500
Y216500
X133500
Y226500
Y236500
Y246500
Y256500
Y266500
Y276500
Y286500
Y296500
Y306500
Y316500
X143500
Y326500
X133500
Y336500
X143500
X256500Y335500
X266500
X276500
X286500
Y323000
X276500
X266500
X256500
X260500Y349000
X270500
X280500
X290500
X300500
X250500
X324079Y331035
X334079
X344079
Y321035
X334079
X324079
T04
X333000Y139657
Y159343
T05
X136500Y113000
X338000
X136500Y353000
X338000
M30
