G04*
G04 #@! TF.GenerationSoftware,Altium Limited,Altium Designer,20.1.12 (249)*
G04*
G04 Layer_Color=16711935*
%FSLAX25Y25*%
%MOIN*%
G70*
G04*
G04 #@! TF.SameCoordinates,D1749837-0096-4F70-BC88-1939EB490A75*
G04*
G04*
G04 #@! TF.FilePolarity,Positive*
G04*
G01*
G75*
%ADD10C,0.00787*%
%ADD116C,0.00394*%
D10*
X168835Y348685D02*
X240094D01*
Y247898D02*
Y348685D01*
X168835Y247898D02*
X240094D01*
X168835D02*
Y348685D01*
X154283Y152697D02*
Y163917D01*
X160976D01*
Y152697D02*
Y163917D01*
X154283Y152697D02*
X160976D01*
X293870Y172055D02*
Y178945D01*
X290130Y172055D02*
X293870D01*
X290130D02*
Y178945D01*
X293870D01*
X293370Y139055D02*
Y145945D01*
X289630Y139055D02*
X293370D01*
X289630D02*
Y145945D01*
X293370D01*
X286154Y295118D02*
Y306339D01*
X292846D01*
Y295118D02*
Y306339D01*
X286154Y295118D02*
X292846D01*
X276904D02*
Y306339D01*
X283596D01*
Y295118D02*
Y306339D01*
X276904Y295118D02*
X283596D01*
X267653D02*
Y306339D01*
X274346D01*
Y295118D02*
Y306339D01*
X267653Y295118D02*
X274346D01*
X284630Y114945D02*
X288370D01*
X284630Y108055D02*
Y114945D01*
Y108055D02*
X288370D01*
Y114945D01*
X260630Y223555D02*
X264370D01*
Y230445D01*
X260630D02*
X264370D01*
X260630Y223555D02*
Y230445D01*
X211118Y142811D02*
Y169189D01*
Y142811D02*
X225685D01*
Y169189D01*
X211118D02*
X225685D01*
X198445Y177630D02*
Y181370D01*
X191555D02*
X198445D01*
X191555Y177630D02*
Y181370D01*
Y177630D02*
X198445D01*
X143283Y196618D02*
X149976D01*
X143283Y185398D02*
Y196618D01*
Y185398D02*
X149976D01*
Y196618D01*
X132783D02*
X139476D01*
X132783Y185398D02*
Y196618D01*
Y185398D02*
X139476D01*
Y196618D01*
X211020Y113756D02*
Y140134D01*
Y113756D02*
X225587D01*
Y140134D01*
X211020D02*
X225587D01*
X198402Y204634D02*
Y208374D01*
X191512D02*
X198402D01*
X191512Y204634D02*
Y208374D01*
Y204634D02*
X198402D01*
X193803Y227366D02*
X197543D01*
Y234256D01*
X193803D02*
X197543D01*
X193803Y227366D02*
Y234256D01*
X203303Y227307D02*
X207043D01*
Y234197D01*
X203303D02*
X207043D01*
X203303Y227307D02*
Y234197D01*
X159846Y322728D02*
Y326272D01*
X153154D02*
X159846D01*
X153154Y322728D02*
Y326272D01*
Y322728D02*
X159846D01*
X182677Y134965D02*
X186417D01*
X182677Y128075D02*
Y134965D01*
Y128075D02*
X186417D01*
Y134965D01*
X174177D02*
X177917D01*
X174177Y128075D02*
Y134965D01*
Y128075D02*
X177917D01*
Y134965D01*
D116*
X316480Y192000D02*
G03*
X316480Y192000I-12402J0D01*
G01*
Y218000D02*
G03*
X316480Y218000I-12402J0D01*
G01*
X122954Y140760D02*
G03*
X122075Y140347I0J-1142D01*
G01*
X130453Y169697D02*
G03*
X129690Y169106I0J-787D01*
G01*
X122075Y168338D02*
G03*
X122954Y167925I879J729D01*
G01*
X133184Y169106D02*
G03*
X132421Y169697I-762J-197D01*
G01*
X129690Y139579D02*
G03*
X130453Y138988I762J197D01*
G01*
X132421D02*
G03*
X133184Y139579I0J787D01*
G01*
X175172Y159595D02*
G03*
X175172Y159595I-1969J0D01*
G01*
X282228Y230847D02*
X285772D01*
X282228Y224153D02*
X285772D01*
Y230847D01*
X282228Y224153D02*
Y230847D01*
X301555Y307663D02*
X308445D01*
X301555Y311403D02*
X308445D01*
Y307663D02*
Y311403D01*
X301555Y307663D02*
Y311403D01*
Y301296D02*
X308445D01*
X301555Y305037D02*
X308445D01*
Y301296D02*
Y305037D01*
X301555Y301296D02*
Y305037D01*
X301496Y294930D02*
X308386D01*
X301496Y298670D02*
X308386D01*
Y294930D02*
Y298670D01*
X301496Y294930D02*
Y298670D01*
X301555Y288563D02*
X308445D01*
X301555Y292303D02*
X308445D01*
Y288563D02*
Y292303D01*
X301555Y288563D02*
Y292303D01*
Y282196D02*
X308445D01*
X301555Y285937D02*
X308445D01*
Y282196D02*
Y285937D01*
X301555Y282196D02*
Y285937D01*
Y275830D02*
X308445D01*
X301555Y279570D02*
X308445D01*
Y275830D02*
Y279570D01*
X301555Y275830D02*
Y279570D01*
Y269463D02*
X308445D01*
X301555Y273203D02*
X308445D01*
Y269463D02*
Y273203D01*
X301555Y269463D02*
Y273203D01*
Y263097D02*
X308445D01*
X301555Y266837D02*
X308445D01*
Y263097D02*
Y266837D01*
X301555Y263097D02*
Y266837D01*
Y243997D02*
X308445D01*
X301555Y247737D02*
X308445D01*
Y243997D02*
Y247737D01*
X301555Y243997D02*
Y247737D01*
Y250363D02*
X308445D01*
X301555Y254103D02*
X308445D01*
Y250363D02*
Y254103D01*
X301555Y250363D02*
Y254103D01*
Y256730D02*
X308445D01*
X301555Y260470D02*
X308445D01*
Y256730D02*
Y260470D01*
X301555Y256730D02*
Y260470D01*
Y237630D02*
X308445D01*
X301555Y241370D02*
X308445D01*
Y237630D02*
Y241370D01*
X301555Y237630D02*
Y241370D01*
Y314030D02*
X308445D01*
X301555Y317770D02*
X308445D01*
Y314030D02*
Y317770D01*
X301555Y314030D02*
Y317770D01*
Y333130D02*
X308445D01*
X301555Y336870D02*
X308445D01*
Y333130D02*
Y336870D01*
X301555Y333130D02*
Y336870D01*
Y320396D02*
X308445D01*
X301555Y324137D02*
X308445D01*
Y320396D02*
Y324137D01*
X301555Y320396D02*
Y324137D01*
X301496Y326763D02*
X308386D01*
X301496Y330503D02*
X308386D01*
Y326763D02*
Y330503D01*
X301496Y326763D02*
Y330503D01*
X287728Y230799D02*
X291272D01*
X287728Y224106D02*
X291272D01*
Y230799D01*
X287728Y224106D02*
Y230799D01*
X282555Y289870D02*
X289445D01*
X282555Y286130D02*
X289445D01*
X282555D02*
Y289870D01*
X289445Y286130D02*
Y289870D01*
X161669Y173051D02*
Y176791D01*
X154780Y173051D02*
Y176791D01*
Y173051D02*
X161669D01*
X154780Y176791D02*
X161669D01*
X289728Y160153D02*
X293272D01*
X289728Y166847D02*
X293272D01*
X289728Y160153D02*
Y166847D01*
X293272Y160153D02*
Y166847D01*
X316858Y129815D02*
X349142D01*
Y169185D01*
X316858D02*
X349142D01*
X316858Y129815D02*
Y169185D01*
X122973Y166941D02*
X141476D01*
X122973Y141744D02*
X141476D01*
X121782Y139994D02*
X122691Y139240D01*
X121280Y166154D02*
X122203D01*
X121782Y168691D02*
X122691Y169445D01*
X121280Y142532D02*
X122203D01*
X122188Y170051D02*
X122691Y169445D01*
X122203Y142532D02*
Y166154D01*
X121280D02*
X121280Y166166D01*
X121280Y166178D01*
X121280Y166191D01*
X121281Y166203D01*
X121281Y166215D01*
X121282Y166228D01*
X121282Y166240D01*
X121283Y166252D01*
X121284Y166264D01*
X121286Y166277D01*
X121287Y166289D01*
X121288Y166301D01*
X121290Y166313D01*
X121291Y166325D01*
X121293Y166337D01*
X121295Y166349D01*
X121297Y166361D01*
X121299Y166373D01*
X121301Y166385D01*
X121304Y166397D01*
X121306Y166409D01*
X121309Y166420D01*
X121311Y166432D01*
X121314Y166443D01*
X121317Y166455D01*
X121320Y166466D01*
X121323Y166478D01*
X121326Y166489D01*
X121330Y166500D01*
X121333Y166511D01*
X121337Y166522D01*
X121340Y166533D01*
X121344Y166544D01*
X121348Y166554D01*
X121352Y166565D01*
X121356Y166576D01*
X121360Y166586D01*
X121364Y166596D01*
X121369Y166606D01*
X121373Y166616D01*
X121378Y166626D01*
X121383Y166636D01*
X121387Y166646D01*
X121392Y166656D01*
X121397Y166665D01*
X121402Y166674D01*
X121407Y166683D01*
X121413Y166693D01*
X121418Y166701D01*
X121423Y166710D01*
X121429Y166719D01*
X121434Y166727D01*
X121440Y166736D01*
X121446Y166744D01*
X121452Y166752D01*
X121458Y166760D01*
X121464Y166768D01*
X121470Y166776D01*
X121476Y166783D01*
X121482Y166791D01*
X121488Y166798D01*
X121495Y166805D01*
X121501Y166812D01*
X121508Y166818D01*
X121514Y166825D01*
X121521Y166831D01*
X121527Y166838D01*
X121534Y166844D01*
X121541Y166849D01*
X121548Y166855D01*
X121555Y166861D01*
X121562Y166866D01*
X121569Y166871D01*
X121576Y166876D01*
X121583Y166881D01*
X121590Y166886D01*
X121597Y166890D01*
X121604Y166894D01*
X121612Y166899D01*
X121619Y166902D01*
X121626Y166906D01*
X121634Y166910D01*
X121641Y166913D01*
X121649Y166916D01*
X121656Y166919D01*
X121663Y166922D01*
X121671Y166925D01*
X121679Y166927D01*
X121686Y166929D01*
X121694Y166931D01*
X121702Y166933D01*
X121709Y166935D01*
X121717Y166936D01*
X121724Y166937D01*
X121732Y166938D01*
X121740Y166939D01*
X121748Y166940D01*
X121755Y166941D01*
X121763Y166941D01*
X121771Y166941D01*
X122203Y166154D02*
X122203Y166166D01*
X122203Y166178D01*
X122203Y166191D01*
X122204Y166203D01*
X122204Y166215D01*
X122205Y166228D01*
X122206Y166240D01*
X122207Y166252D01*
X122208Y166264D01*
X122209Y166277D01*
X122210Y166289D01*
X122211Y166301D01*
X122213Y166313D01*
X122215Y166325D01*
X122216Y166337D01*
X122218Y166349D01*
X122220Y166361D01*
X122222Y166373D01*
X122224Y166385D01*
X122227Y166397D01*
X122229Y166409D01*
X122232Y166420D01*
X122234Y166432D01*
X122237Y166443D01*
X122240Y166455D01*
X122243Y166466D01*
X122246Y166478D01*
X122249Y166489D01*
X122253Y166500D01*
X122256Y166511D01*
X122260Y166522D01*
X122264Y166533D01*
X122267Y166544D01*
X122271Y166554D01*
X122275Y166565D01*
X122279Y166576D01*
X122283Y166586D01*
X122288Y166596D01*
X122292Y166606D01*
X122297Y166616D01*
X122301Y166626D01*
X122306Y166636D01*
X122311Y166646D01*
X122315Y166656D01*
X122320Y166665D01*
X122326Y166674D01*
X122331Y166683D01*
X122336Y166693D01*
X122341Y166701D01*
X122347Y166710D01*
X122352Y166719D01*
X122358Y166727D01*
X122363Y166736D01*
X122369Y166744D01*
X122375Y166752D01*
X122381Y166760D01*
X122387Y166768D01*
X122393Y166776D01*
X122399Y166783D01*
X122405Y166791D01*
X122411Y166798D01*
X122418Y166805D01*
X122424Y166812D01*
X122431Y166818D01*
X122437Y166825D01*
X122444Y166831D01*
X122450Y166838D01*
X122457Y166844D01*
X122464Y166849D01*
X122471Y166855D01*
X122478Y166861D01*
X122485Y166866D01*
X122492Y166871D01*
X122499Y166876D01*
X122506Y166881D01*
X122513Y166886D01*
X122520Y166890D01*
X122528Y166894D01*
X122535Y166899D01*
X122542Y166902D01*
X122549Y166906D01*
X122557Y166910D01*
X122564Y166913D01*
X122572Y166916D01*
X122579Y166919D01*
X122587Y166922D01*
X122594Y166925D01*
X122602Y166927D01*
X122609Y166929D01*
X122617Y166931D01*
X122625Y166933D01*
X122632Y166935D01*
X122640Y166936D01*
X122648Y166937D01*
X122655Y166938D01*
X122663Y166939D01*
X122671Y166940D01*
X122678Y166941D01*
X122686Y166941D01*
X122694Y166941D01*
X122686Y141744D02*
X122694Y141744D01*
X122678Y141744D02*
X122686Y141744D01*
X122671Y141745D02*
X122678Y141744D01*
X122663Y141746D02*
X122671Y141745D01*
X122655Y141746D02*
X122663Y141746D01*
X122648Y141748D02*
X122655Y141746D01*
X122640Y141749D02*
X122648Y141748D01*
X122632Y141750D02*
X122640Y141749D01*
X122625Y141752D02*
X122632Y141750D01*
X122617Y141754D02*
X122625Y141752D01*
X122609Y141756D02*
X122617Y141754D01*
X122602Y141758D02*
X122609Y141756D01*
X122594Y141761D02*
X122602Y141758D01*
X122587Y141763D02*
X122594Y141761D01*
X122579Y141766D02*
X122587Y141763D01*
X122572Y141769D02*
X122579Y141766D01*
X122564Y141772D02*
X122572Y141769D01*
X122557Y141775D02*
X122564Y141772D01*
X122549Y141779D02*
X122557Y141775D01*
X122542Y141783D02*
X122549Y141779D01*
X122535Y141787D02*
X122542Y141783D01*
X122528Y141791D02*
X122535Y141787D01*
X122520Y141795D02*
X122528Y141791D01*
X122513Y141799D02*
X122520Y141795D01*
X122506Y141804D02*
X122513Y141799D01*
X122499Y141809D02*
X122506Y141804D01*
X122492Y141814D02*
X122499Y141809D01*
X122485Y141819D02*
X122492Y141814D01*
X122478Y141824D02*
X122485Y141819D01*
X122471Y141830D02*
X122478Y141824D01*
X122464Y141836D02*
X122471Y141830D01*
X122457Y141841D02*
X122464Y141836D01*
X122450Y141848D02*
X122457Y141841D01*
X122444Y141854D02*
X122450Y141848D01*
X122437Y141860D02*
X122444Y141854D01*
X122431Y141867D02*
X122437Y141860D01*
X122424Y141873D02*
X122431Y141867D01*
X122418Y141880D02*
X122424Y141873D01*
X122411Y141887D02*
X122418Y141880D01*
X122405Y141894D02*
X122411Y141887D01*
X122399Y141902D02*
X122405Y141894D01*
X122393Y141909D02*
X122399Y141902D01*
X122387Y141917D02*
X122393Y141909D01*
X122381Y141925D02*
X122387Y141917D01*
X122375Y141933D02*
X122381Y141925D01*
X122369Y141941D02*
X122375Y141933D01*
X122363Y141949D02*
X122369Y141941D01*
X122358Y141957D02*
X122363Y141949D01*
X122352Y141966D02*
X122358Y141957D01*
X122347Y141975D02*
X122352Y141966D01*
X122341Y141983D02*
X122347Y141975D01*
X122336Y141992D02*
X122341Y141983D01*
X122331Y142002D02*
X122336Y141992D01*
X122326Y142011D02*
X122331Y142002D01*
X122320Y142020D02*
X122326Y142011D01*
X122315Y142030D02*
X122320Y142020D01*
X122311Y142039D02*
X122315Y142030D01*
X122306Y142049D02*
X122311Y142039D01*
X122301Y142059D02*
X122306Y142049D01*
X122297Y142069D02*
X122301Y142059D01*
X122292Y142079D02*
X122297Y142069D01*
X122288Y142089D02*
X122292Y142079D01*
X122283Y142099D02*
X122288Y142089D01*
X122279Y142110D02*
X122283Y142099D01*
X122275Y142120D02*
X122279Y142110D01*
X122271Y142131D02*
X122275Y142120D01*
X122267Y142141D02*
X122271Y142131D01*
X122264Y142152D02*
X122267Y142141D01*
X122260Y142163D02*
X122264Y142152D01*
X122256Y142174D02*
X122260Y142163D01*
X122253Y142185D02*
X122256Y142174D01*
X122249Y142196D02*
X122253Y142185D01*
X122246Y142208D02*
X122249Y142196D01*
X122243Y142219D02*
X122246Y142208D01*
X122240Y142230D02*
X122243Y142219D01*
X122237Y142242D02*
X122240Y142230D01*
X122234Y142253D02*
X122237Y142242D01*
X122232Y142265D02*
X122234Y142253D01*
X122229Y142276D02*
X122232Y142265D01*
X122227Y142288D02*
X122229Y142276D01*
X122224Y142300D02*
X122227Y142288D01*
X122222Y142312D02*
X122224Y142300D01*
X122220Y142324D02*
X122222Y142312D01*
X122218Y142336D02*
X122220Y142324D01*
X122216Y142348D02*
X122218Y142336D01*
X122215Y142360D02*
X122216Y142348D01*
X122213Y142372D02*
X122215Y142360D01*
X122211Y142384D02*
X122213Y142372D01*
X122210Y142396D02*
X122211Y142384D01*
X122209Y142408D02*
X122210Y142396D01*
X122208Y142421D02*
X122209Y142408D01*
X122207Y142433D02*
X122208Y142421D01*
X122206Y142445D02*
X122207Y142433D01*
X122205Y142457D02*
X122206Y142445D01*
X122204Y142470D02*
X122205Y142457D01*
X122204Y142482D02*
X122204Y142470D01*
X122203Y142494D02*
X122204Y142482D01*
X122203Y142507D02*
X122203Y142494D01*
X122203Y142519D02*
X122203Y142507D01*
X122203Y142532D02*
X122203Y142519D01*
X122691Y139240D02*
X122973Y139579D01*
X121763Y141744D02*
X121771Y141744D01*
X121755Y141744D02*
X121763Y141744D01*
X121748Y141745D02*
X121755Y141744D01*
X121740Y141746D02*
X121748Y141745D01*
X121732Y141746D02*
X121740Y141746D01*
X121724Y141748D02*
X121732Y141746D01*
X121717Y141749D02*
X121724Y141748D01*
X121709Y141750D02*
X121717Y141749D01*
X121702Y141752D02*
X121709Y141750D01*
X121694Y141754D02*
X121702Y141752D01*
X121686Y141756D02*
X121694Y141754D01*
X121679Y141758D02*
X121686Y141756D01*
X121671Y141761D02*
X121679Y141758D01*
X121663Y141763D02*
X121671Y141761D01*
X121656Y141766D02*
X121663Y141763D01*
X121649Y141769D02*
X121656Y141766D01*
X121641Y141772D02*
X121649Y141769D01*
X121634Y141775D02*
X121641Y141772D01*
X121626Y141779D02*
X121634Y141775D01*
X121619Y141783D02*
X121626Y141779D01*
X121612Y141787D02*
X121619Y141783D01*
X121604Y141791D02*
X121612Y141787D01*
X121597Y141795D02*
X121604Y141791D01*
X121590Y141799D02*
X121597Y141795D01*
X121583Y141804D02*
X121590Y141799D01*
X121576Y141809D02*
X121583Y141804D01*
X121569Y141814D02*
X121576Y141809D01*
X121562Y141819D02*
X121569Y141814D01*
X121555Y141824D02*
X121562Y141819D01*
X121548Y141830D02*
X121555Y141824D01*
X121541Y141836D02*
X121548Y141830D01*
X121534Y141841D02*
X121541Y141836D01*
X121527Y141848D02*
X121534Y141841D01*
X121521Y141854D02*
X121527Y141848D01*
X121514Y141860D02*
X121521Y141854D01*
X121508Y141867D02*
X121514Y141860D01*
X121501Y141873D02*
X121508Y141867D01*
X121495Y141880D02*
X121501Y141873D01*
X121488Y141887D02*
X121495Y141880D01*
X121482Y141894D02*
X121488Y141887D01*
X121476Y141902D02*
X121482Y141894D01*
X121470Y141909D02*
X121476Y141902D01*
X121464Y141917D02*
X121470Y141909D01*
X121458Y141925D02*
X121464Y141917D01*
X121452Y141933D02*
X121458Y141925D01*
X121446Y141941D02*
X121452Y141933D01*
X121440Y141949D02*
X121446Y141941D01*
X121434Y141957D02*
X121440Y141949D01*
X121429Y141966D02*
X121434Y141957D01*
X121423Y141975D02*
X121429Y141966D01*
X121418Y141983D02*
X121423Y141975D01*
X121413Y141992D02*
X121418Y141983D01*
X121407Y142002D02*
X121413Y141992D01*
X121402Y142011D02*
X121407Y142002D01*
X121397Y142020D02*
X121402Y142011D01*
X121392Y142030D02*
X121397Y142020D01*
X121387Y142039D02*
X121392Y142030D01*
X121383Y142049D02*
X121387Y142039D01*
X121378Y142059D02*
X121383Y142049D01*
X121373Y142069D02*
X121378Y142059D01*
X121369Y142079D02*
X121373Y142069D01*
X121364Y142089D02*
X121369Y142079D01*
X121360Y142099D02*
X121364Y142089D01*
X121356Y142110D02*
X121360Y142099D01*
X121352Y142120D02*
X121356Y142110D01*
X121348Y142131D02*
X121352Y142120D01*
X121344Y142141D02*
X121348Y142131D01*
X121340Y142152D02*
X121344Y142141D01*
X121337Y142163D02*
X121340Y142152D01*
X121333Y142174D02*
X121337Y142163D01*
X121330Y142185D02*
X121333Y142174D01*
X121326Y142196D02*
X121330Y142185D01*
X121323Y142208D02*
X121326Y142196D01*
X121320Y142219D02*
X121323Y142208D01*
X121317Y142230D02*
X121320Y142219D01*
X121314Y142242D02*
X121317Y142230D01*
X121311Y142253D02*
X121314Y142242D01*
X121309Y142265D02*
X121311Y142253D01*
X121306Y142276D02*
X121309Y142265D01*
X121304Y142288D02*
X121306Y142276D01*
X121301Y142300D02*
X121304Y142288D01*
X121299Y142312D02*
X121301Y142300D01*
X121297Y142324D02*
X121299Y142312D01*
X121295Y142336D02*
X121297Y142324D01*
X121293Y142348D02*
X121295Y142336D01*
X121291Y142360D02*
X121293Y142348D01*
X121290Y142372D02*
X121291Y142360D01*
X121288Y142384D02*
X121290Y142372D01*
X121287Y142396D02*
X121288Y142384D01*
X121286Y142408D02*
X121287Y142396D01*
X121284Y142421D02*
X121286Y142408D01*
X121283Y142433D02*
X121284Y142421D01*
X121282Y142445D02*
X121283Y142433D01*
X121282Y142457D02*
X121282Y142445D01*
X121281Y142470D02*
X121282Y142457D01*
X121281Y142482D02*
X121281Y142470D01*
X121280Y142494D02*
X121281Y142482D01*
X121280Y142507D02*
X121280Y142494D01*
X121280Y142519D02*
X121280Y142507D01*
X121280Y142532D02*
X121280Y142519D01*
X141476Y142532D02*
X142657D01*
X122954Y140760D02*
X122973D01*
X141476Y166154D02*
X142657D01*
X141476Y139579D02*
Y169106D01*
X121280Y169297D02*
X122188Y170051D01*
X121280Y139388D02*
X121782Y139994D01*
X122954Y167925D02*
X122973D01*
X121782Y168691D02*
X122075Y168338D01*
X142657Y142532D02*
Y166154D01*
X121280Y169297D02*
X121782Y168691D01*
X121771Y141744D02*
X122694D01*
X130453Y169697D02*
X132421D01*
X122691Y169445D02*
X122973Y169106D01*
Y139579D02*
Y169106D01*
X141476D01*
X122694Y141744D02*
X122973D01*
X121782Y139994D02*
X122075Y140347D01*
X122973Y139579D02*
X141476D01*
X121771Y166941D02*
X122694D01*
X130453Y138988D02*
X132421D01*
X121280Y142532D02*
Y166154D01*
X122188Y138634D02*
X122691Y139240D01*
X122694Y166941D02*
X122973D01*
X121280Y139388D02*
X122188Y138634D01*
X244028Y211705D02*
X284972D01*
X244028Y174894D02*
X284972D01*
Y211705D01*
X244028Y174894D02*
Y211705D01*
X244528Y123795D02*
X285472D01*
X244528Y160606D02*
X285472D01*
X244528Y123795D02*
Y160606D01*
X285472Y123795D02*
Y160606D01*
X160043Y313531D02*
Y317469D01*
X152957Y313531D02*
Y317469D01*
Y313531D02*
X160043D01*
X152957Y317469D02*
X160043D01*
X152252Y237480D02*
X183748D01*
Y222520D02*
Y237480D01*
X152252Y222520D02*
X183748D01*
X152252D02*
Y237480D01*
X245772Y107653D02*
Y114347D01*
X242228Y107653D02*
Y114347D01*
X245772D01*
X242228Y107653D02*
X245772D01*
X220110Y184689D02*
Y208311D01*
X233890Y184689D02*
Y208311D01*
X220110Y184689D02*
X233890D01*
X220110Y208311D02*
X233890D01*
X212303Y227307D02*
Y234197D01*
X216043Y227307D02*
Y234197D01*
X212303Y227307D02*
X216043D01*
X212303Y234197D02*
X216043D01*
X230516Y226618D02*
Y234886D01*
X235831Y226618D02*
Y234886D01*
X230516Y226618D02*
X235831D01*
X230516Y234886D02*
X235831D01*
X153055Y304630D02*
Y308370D01*
X159945Y304630D02*
Y308370D01*
X153055D02*
X159945D01*
X153055Y304630D02*
X159945D01*
X221303Y227307D02*
Y234197D01*
X225043Y227307D02*
Y234197D01*
X221303Y227307D02*
X225043D01*
X221303Y234197D02*
X225043D01*
X193630Y156055D02*
X197370D01*
X193630Y162945D02*
X197370D01*
X193630Y156055D02*
Y162945D01*
X197370Y156055D02*
Y162945D01*
X160803Y143472D02*
Y147213D01*
X154110Y143472D02*
Y147213D01*
Y143472D02*
X160803D01*
X154110Y147213D02*
X160803D01*
X166177Y128402D02*
X169917D01*
X166177Y135094D02*
X169917D01*
X166177Y128402D02*
Y135094D01*
X169917Y128402D02*
Y135094D01*
X205110Y184689D02*
Y208311D01*
X218890Y184689D02*
Y208311D01*
X205110Y184689D02*
X218890D01*
X205110Y208311D02*
X218890D01*
X259032Y298713D02*
X262968D01*
X259032Y305799D02*
X262968D01*
X259032Y298713D02*
Y305799D01*
X262968Y298713D02*
Y305799D01*
X262339Y282095D02*
X279661D01*
X262339Y243905D02*
Y282095D01*
Y243905D02*
X279661D01*
Y282095D01*
X250532Y298713D02*
X254468D01*
X250532Y305799D02*
X254468D01*
X250532Y298713D02*
Y305799D01*
X254468Y298713D02*
Y305799D01*
X190433Y145000D02*
X194173D01*
X190433Y151890D02*
X194173D01*
X190433Y145000D02*
Y151890D01*
X194173Y145000D02*
Y151890D01*
X196433Y151890D02*
X200173D01*
X196433Y145000D02*
X200173D01*
Y151890D01*
X196433Y145000D02*
Y151890D01*
X154055Y129630D02*
X160945D01*
X154055Y133370D02*
X160945D01*
Y129630D02*
Y133370D01*
X154055Y129630D02*
Y133370D01*
X198543Y195531D02*
Y199469D01*
X191457Y195531D02*
Y199469D01*
Y195531D02*
X198543D01*
X191457Y199469D02*
X198543D01*
X190898Y168532D02*
Y172468D01*
X197984Y168532D02*
Y172468D01*
X190898D02*
X197984D01*
X190898Y168532D02*
X197984D01*
X191457Y187531D02*
Y191469D01*
X198543Y187531D02*
Y191469D01*
X191457D02*
X198543D01*
X191457Y187531D02*
X198543D01*
X198638Y212535D02*
Y216472D01*
X191551Y212535D02*
Y216472D01*
Y212535D02*
X198638D01*
X191551Y216472D02*
X198638D01*
X169660Y147390D02*
X185408D01*
Y163138D01*
X169660Y147390D02*
Y163138D01*
X185408D01*
X162764Y179106D02*
Y205484D01*
X177331Y179106D02*
Y205484D01*
X162764D02*
X177331D01*
X162764Y179106D02*
X177331D01*
X166847Y213228D02*
Y216772D01*
X160153Y213228D02*
Y216772D01*
Y213228D02*
X166847D01*
X160153Y216772D02*
X166847D01*
X160846Y243728D02*
Y247272D01*
X154154Y243728D02*
Y247272D01*
Y243728D02*
X160846D01*
X154154Y247272D02*
X160846D01*
X193917Y128075D02*
Y134965D01*
X190177Y128075D02*
Y134965D01*
X193917D01*
X190177Y128075D02*
X193917D01*
X153323Y136185D02*
X161591D01*
X153323Y141500D02*
X161591D01*
Y136185D02*
Y141500D01*
X153323Y136185D02*
Y141500D01*
M02*
