G04*
G04 #@! TF.GenerationSoftware,Altium Limited,Altium Designer,21.5.1 (32)*
G04*
G04 Layer_Physical_Order=2*
G04 Layer_Color=16711680*
%FSLAX25Y25*%
%MOIN*%
G70*
G04*
G04 #@! TF.SameCoordinates,57825C85-18FE-47E2-A138-B6FF28981A54*
G04*
G04*
G04 #@! TF.FilePolarity,Positive*
G04*
G01*
G75*
%ADD14C,0.01000*%
%ADD89C,0.05000*%
%ADD90C,0.02500*%
%ADD91C,0.05906*%
%ADD92R,0.05906X0.05906*%
%ADD93R,0.05906X0.05906*%
%ADD94R,0.06299X0.06299*%
%ADD95C,0.06299*%
%ADD96C,0.23000*%
%ADD97C,0.02800*%
%ADD98C,0.02400*%
%ADD99C,0.05000*%
%ADD100C,0.01000*%
%ADD101R,0.01968X0.01968*%
G36*
X349730Y173613D02*
X350548Y173619D01*
X352171Y173417D01*
X353754Y173005D01*
X355269Y172388D01*
X356689Y171577D01*
X357992Y170588D01*
X359153Y169436D01*
X360153Y168141D01*
X360975Y166727D01*
X361603Y165217D01*
X362029Y163637D01*
X362243Y162016D01*
X362243Y161198D01*
X362243Y161198D01*
X362243Y161198D01*
X362103Y15240D01*
X361887Y14829D01*
X361588Y14826D01*
X361378Y14613D01*
X361381Y14314D01*
X361593Y14104D01*
X361603Y14104D01*
X362103Y13692D01*
Y13576D01*
X361896Y12008D01*
X361487Y10481D01*
X360882Y9020D01*
X360091Y7650D01*
X359128Y6396D01*
X358636Y5903D01*
X358247Y6221D01*
X358303Y6305D01*
X358419Y6890D01*
Y7276D01*
X358303Y7861D01*
X357971Y8357D01*
X351648Y14680D01*
X351152Y15011D01*
X350567Y15128D01*
X349982Y15011D01*
X349485Y14680D01*
X349154Y14184D01*
X349038Y13598D01*
X349154Y13013D01*
X349485Y12517D01*
X355422Y6581D01*
X355477Y6305D01*
X355808Y5808D01*
X356305Y5477D01*
X356890Y5360D01*
X357475Y5477D01*
X357720Y5054D01*
X356756Y4315D01*
X355386Y3524D01*
X353925Y2919D01*
X352398Y2510D01*
X350830Y2303D01*
X350039D01*
X16831Y2233D01*
X16825Y2233D01*
X16813Y2234D01*
X16801Y2234D01*
X16789Y2235D01*
X16783Y2236D01*
X16777Y2235D01*
X16767Y2234D01*
X16756Y2234D01*
X16745Y2234D01*
X15922Y2227D01*
X14298Y2427D01*
X12715Y2840D01*
X11200Y3456D01*
X9778Y4266D01*
X8475Y5255D01*
X7314Y6407D01*
X6313Y7701D01*
X5491Y9116D01*
X4862Y10626D01*
X4436Y12206D01*
X4221Y13827D01*
X4221Y14653D01*
X4222Y14667D01*
X4222Y14682D01*
X4224Y14696D01*
X4225Y14704D01*
X4224Y14711D01*
X4222Y14726D01*
X4221Y14741D01*
X4221Y14756D01*
X4223Y161772D01*
X4216Y162546D01*
X4407Y164083D01*
X4797Y165582D01*
X5381Y167017D01*
X6148Y168362D01*
X7085Y169596D01*
X8175Y170695D01*
X9401Y171642D01*
X10740Y172421D01*
X12170Y173016D01*
X13665Y173419D01*
X15201Y173623D01*
X15975Y173623D01*
X15975Y173623D01*
X349730Y173613D01*
D02*
G37*
%LPC*%
G36*
X312765Y171866D02*
X311724D01*
X310718Y171597D01*
X309817Y171076D01*
X309081Y170340D01*
X308561Y169439D01*
X308291Y168434D01*
Y167393D01*
X308561Y166388D01*
X309081Y165486D01*
X309817Y164750D01*
X310718Y164230D01*
X311724Y163961D01*
X312765D01*
X313770Y164230D01*
X314671Y164750D01*
X315407Y165486D01*
X315928Y166388D01*
X316197Y167393D01*
Y168434D01*
X315928Y169439D01*
X315407Y170340D01*
X314671Y171076D01*
X313770Y171597D01*
X312765Y171866D01*
D02*
G37*
G36*
X302765D02*
X301724D01*
X300718Y171597D01*
X299817Y171076D01*
X299081Y170340D01*
X298561Y169439D01*
X298291Y168434D01*
Y167393D01*
X298561Y166388D01*
X299081Y165486D01*
X299817Y164750D01*
X300718Y164230D01*
X301724Y163961D01*
X302765D01*
X303770Y164230D01*
X304671Y164750D01*
X305407Y165486D01*
X305927Y166388D01*
X306197Y167393D01*
Y168434D01*
X305927Y169439D01*
X305407Y170340D01*
X304671Y171076D01*
X303770Y171597D01*
X302765Y171866D01*
D02*
G37*
G36*
X292764D02*
X291724D01*
X290718Y171597D01*
X289817Y171076D01*
X289081Y170340D01*
X288561Y169439D01*
X288291Y168434D01*
Y167393D01*
X288561Y166388D01*
X289081Y165486D01*
X289817Y164750D01*
X290718Y164230D01*
X291724Y163961D01*
X292764D01*
X293770Y164230D01*
X294671Y164750D01*
X295407Y165486D01*
X295928Y166388D01*
X296197Y167393D01*
Y168434D01*
X295928Y169439D01*
X295407Y170340D01*
X294671Y171076D01*
X293770Y171597D01*
X292764Y171866D01*
D02*
G37*
G36*
X282765D02*
X281724D01*
X280718Y171597D01*
X279817Y171076D01*
X279081Y170340D01*
X278561Y169439D01*
X278291Y168434D01*
Y167393D01*
X278561Y166388D01*
X279081Y165486D01*
X279817Y164750D01*
X280718Y164230D01*
X281724Y163961D01*
X282765D01*
X283770Y164230D01*
X284671Y164750D01*
X285407Y165486D01*
X285928Y166388D01*
X286197Y167393D01*
Y168434D01*
X285928Y169439D01*
X285407Y170340D01*
X284671Y171076D01*
X283770Y171597D01*
X282765Y171866D01*
D02*
G37*
G36*
X272764D02*
X271724D01*
X270718Y171597D01*
X269817Y171076D01*
X269081Y170340D01*
X268561Y169439D01*
X268291Y168434D01*
Y167393D01*
X268561Y166388D01*
X269081Y165486D01*
X269817Y164750D01*
X270718Y164230D01*
X271724Y163961D01*
X272764D01*
X273770Y164230D01*
X274671Y164750D01*
X275407Y165486D01*
X275927Y166388D01*
X276197Y167393D01*
Y168434D01*
X275927Y169439D01*
X275407Y170340D01*
X274671Y171076D01*
X273770Y171597D01*
X272764Y171866D01*
D02*
G37*
G36*
X262765D02*
X261724D01*
X260718Y171597D01*
X259817Y171076D01*
X259081Y170340D01*
X258561Y169439D01*
X258291Y168434D01*
Y167393D01*
X258561Y166388D01*
X259081Y165486D01*
X259817Y164750D01*
X260718Y164230D01*
X261724Y163961D01*
X262765D01*
X263770Y164230D01*
X264671Y164750D01*
X265407Y165486D01*
X265928Y166388D01*
X266197Y167393D01*
Y168434D01*
X265928Y169439D01*
X265407Y170340D01*
X264671Y171076D01*
X263770Y171597D01*
X262765Y171866D01*
D02*
G37*
G36*
X252765D02*
X251724D01*
X250718Y171597D01*
X249817Y171076D01*
X249081Y170340D01*
X248561Y169439D01*
X248291Y168434D01*
Y167393D01*
X248561Y166388D01*
X249081Y165486D01*
X249817Y164750D01*
X250718Y164230D01*
X251724Y163961D01*
X252765D01*
X253770Y164230D01*
X254671Y164750D01*
X255407Y165486D01*
X255927Y166388D01*
X256197Y167393D01*
Y168434D01*
X255927Y169439D01*
X255407Y170340D01*
X254671Y171076D01*
X253770Y171597D01*
X252765Y171866D01*
D02*
G37*
G36*
X242764D02*
X241724D01*
X240718Y171597D01*
X239817Y171076D01*
X239081Y170340D01*
X238561Y169439D01*
X238291Y168434D01*
Y167393D01*
X238561Y166388D01*
X239081Y165486D01*
X239817Y164750D01*
X240718Y164230D01*
X241724Y163961D01*
X242764D01*
X243770Y164230D01*
X244671Y164750D01*
X245407Y165486D01*
X245928Y166388D01*
X246197Y167393D01*
Y168434D01*
X245928Y169439D01*
X245407Y170340D01*
X244671Y171076D01*
X243770Y171597D01*
X242764Y171866D01*
D02*
G37*
G36*
X232765D02*
X231724D01*
X230718Y171597D01*
X229817Y171076D01*
X229081Y170340D01*
X228561Y169439D01*
X228291Y168434D01*
Y167393D01*
X228561Y166388D01*
X229081Y165486D01*
X229817Y164750D01*
X230718Y164230D01*
X231724Y163961D01*
X232765D01*
X233770Y164230D01*
X234671Y164750D01*
X235407Y165486D01*
X235928Y166388D01*
X236197Y167393D01*
Y168434D01*
X235928Y169439D01*
X235407Y170340D01*
X234671Y171076D01*
X233770Y171597D01*
X232765Y171866D01*
D02*
G37*
G36*
X202765D02*
X201724D01*
X200718Y171597D01*
X199817Y171076D01*
X199081Y170340D01*
X198561Y169439D01*
X198291Y168434D01*
Y167393D01*
X198561Y166388D01*
X199081Y165486D01*
X199817Y164750D01*
X200718Y164230D01*
X201724Y163961D01*
X202765D01*
X203770Y164230D01*
X204671Y164750D01*
X205407Y165486D01*
X205927Y166388D01*
X206197Y167393D01*
Y168434D01*
X205927Y169439D01*
X205407Y170340D01*
X204671Y171076D01*
X203770Y171597D01*
X202765Y171866D01*
D02*
G37*
G36*
X192764D02*
X191724D01*
X190718Y171597D01*
X189817Y171076D01*
X189081Y170340D01*
X188561Y169439D01*
X188291Y168434D01*
Y167393D01*
X188561Y166388D01*
X189081Y165486D01*
X189817Y164750D01*
X190718Y164230D01*
X191724Y163961D01*
X192764D01*
X193770Y164230D01*
X194671Y164750D01*
X195407Y165486D01*
X195928Y166388D01*
X196197Y167393D01*
Y168434D01*
X195928Y169439D01*
X195407Y170340D01*
X194671Y171076D01*
X193770Y171597D01*
X192764Y171866D01*
D02*
G37*
G36*
X172765D02*
X171724D01*
X170718Y171597D01*
X169817Y171076D01*
X169081Y170340D01*
X168561Y169439D01*
X168291Y168434D01*
Y167393D01*
X168561Y166388D01*
X169081Y165486D01*
X169817Y164750D01*
X170718Y164230D01*
X171724Y163961D01*
X172765D01*
X173770Y164230D01*
X174671Y164750D01*
X175407Y165486D01*
X175927Y166388D01*
X176197Y167393D01*
Y168434D01*
X175927Y169439D01*
X175407Y170340D01*
X174671Y171076D01*
X173770Y171597D01*
X172765Y171866D01*
D02*
G37*
G36*
X150808Y157140D02*
X42028D01*
X41442Y157023D01*
X40946Y156692D01*
X28482Y144228D01*
X28303D01*
X27494Y143893D01*
X26875Y143274D01*
X26540Y142465D01*
Y141590D01*
X26875Y140781D01*
X27494Y140163D01*
X28303Y139828D01*
X29178D01*
X29986Y140163D01*
X30605Y140781D01*
X30940Y141590D01*
Y142360D01*
X42661Y154081D01*
X150175D01*
X161469Y142786D01*
Y142312D01*
X161804Y141503D01*
X162423Y140884D01*
X163232Y140549D01*
X164107D01*
X164915Y140884D01*
X165534Y141503D01*
X165869Y142312D01*
Y143187D01*
X165534Y143995D01*
X164915Y144614D01*
X164107Y144949D01*
X163632D01*
X151890Y156692D01*
X151393Y157023D01*
X150808Y157140D01*
D02*
G37*
G36*
X222764Y171866D02*
X221724D01*
X220718Y171597D01*
X219817Y171076D01*
X219081Y170340D01*
X218561Y169439D01*
X218291Y168434D01*
Y167393D01*
X218561Y166388D01*
X219081Y165486D01*
X219817Y164750D01*
X220715Y164232D01*
Y162024D01*
X195962Y137272D01*
X195420Y137436D01*
X195406Y137507D01*
X213326Y155427D01*
X213657Y155923D01*
X213773Y156509D01*
Y164232D01*
X214671Y164750D01*
X215407Y165486D01*
X215928Y166388D01*
X216197Y167393D01*
Y168434D01*
X215928Y169439D01*
X215407Y170340D01*
X214671Y171076D01*
X213770Y171597D01*
X212765Y171866D01*
X211724D01*
X210718Y171597D01*
X209817Y171076D01*
X209081Y170340D01*
X208561Y169439D01*
X208291Y168434D01*
Y167393D01*
X208561Y166388D01*
X209081Y165486D01*
X209817Y164750D01*
X210715Y164232D01*
Y157142D01*
X203161Y149588D01*
X202670Y149686D01*
X202554Y149967D01*
X201935Y150585D01*
X201127Y150920D01*
X200251D01*
X199443Y150585D01*
X198824Y149967D01*
X198489Y149158D01*
Y149032D01*
X197972Y148515D01*
X197898D01*
X197313Y148399D01*
X196817Y148067D01*
X192958Y144209D01*
X189916D01*
X188214Y145911D01*
X188546Y146713D01*
Y147589D01*
X188211Y148397D01*
X187592Y149016D01*
X186784Y149351D01*
X185909D01*
X185100Y149016D01*
X184481Y148397D01*
X184146Y147589D01*
Y146713D01*
X184481Y145905D01*
X185096Y145290D01*
X185201Y144762D01*
X185533Y144266D01*
X187753Y142046D01*
Y140240D01*
X193159D01*
X193351Y139778D01*
X192958Y139386D01*
X187753D01*
Y138882D01*
X186966D01*
X186679Y139168D01*
X185871Y139503D01*
X184995D01*
X184187Y139168D01*
X183568Y138549D01*
X183233Y137741D01*
Y136865D01*
X183568Y136057D01*
X184187Y135438D01*
X184995Y135103D01*
X185871D01*
X186679Y135438D01*
X187064Y135823D01*
X187753D01*
Y135417D01*
X193455D01*
X193646Y134955D01*
X192958Y134268D01*
X187753D01*
Y133813D01*
X186523D01*
X186187Y134149D01*
X185379Y134484D01*
X184503D01*
X183695Y134149D01*
X183076Y133530D01*
X182741Y132721D01*
Y131846D01*
X183076Y131037D01*
X183695Y130418D01*
X184503Y130084D01*
X185379D01*
X186187Y130418D01*
X186523Y130754D01*
X187753D01*
Y130299D01*
X189144D01*
X189230Y130158D01*
X188950Y129658D01*
X188644D01*
X187835Y129323D01*
X187499Y128988D01*
X162644D01*
X141373Y150258D01*
Y150733D01*
X141038Y151541D01*
X140419Y152160D01*
X139611Y152495D01*
X138736D01*
X137927Y152160D01*
X137308Y151541D01*
X136973Y150733D01*
Y149858D01*
X137308Y149049D01*
X137927Y148430D01*
X138736Y148095D01*
X139210D01*
X160768Y126537D01*
X160561Y126037D01*
X136523D01*
X136187Y126373D01*
X135379Y126708D01*
X134503D01*
X133695Y126373D01*
X133076Y125754D01*
X132741Y124945D01*
Y124070D01*
X133076Y123262D01*
X133355Y122982D01*
X132781Y122408D01*
X132446Y121599D01*
Y120724D01*
X132781Y119915D01*
X133399Y119296D01*
X134208Y118961D01*
X134845D01*
X135203Y118604D01*
X135699Y118272D01*
X136284Y118156D01*
X139032D01*
X140806Y116382D01*
X141302Y116050D01*
X141887Y115934D01*
X182392D01*
X182728Y115598D01*
X183536Y115263D01*
X184412D01*
X185220Y115598D01*
X185556Y115934D01*
X237316D01*
X239251Y113999D01*
X239060Y113537D01*
X185440D01*
X185105Y113873D01*
X184296Y114208D01*
X183421D01*
X182612Y113873D01*
X181993Y113254D01*
X181658Y112445D01*
Y111570D01*
X181993Y110762D01*
X182612Y110143D01*
X183421Y109808D01*
X184296D01*
X185105Y110143D01*
X185440Y110478D01*
X239327D01*
X240788Y109018D01*
X240581Y108518D01*
X194432D01*
Y108972D01*
X187064D01*
Y108540D01*
X185636D01*
X185278Y108898D01*
X184469Y109233D01*
X183594D01*
X182785Y108898D01*
X182167Y108279D01*
X181832Y107471D01*
Y106595D01*
X182167Y105787D01*
X182785Y105168D01*
X183594Y104833D01*
X184069D01*
X204767Y84134D01*
Y79078D01*
X204268Y78790D01*
X203770Y79077D01*
X202765Y79347D01*
X201724D01*
X200718Y79077D01*
X199817Y78557D01*
X199081Y77821D01*
X198561Y76919D01*
X198291Y75914D01*
Y74873D01*
X198561Y73868D01*
X199081Y72967D01*
X199817Y72231D01*
X200718Y71710D01*
X201724Y71441D01*
X202765D01*
X203770Y71710D01*
X204671Y72231D01*
X205407Y72967D01*
X205703Y73479D01*
X206199Y73545D01*
X214875Y64869D01*
X215371Y64537D01*
X215956Y64421D01*
X221408D01*
X228016Y57813D01*
Y57141D01*
X227774Y56778D01*
X130006D01*
X116522Y70262D01*
Y105020D01*
X116492Y105249D01*
Y105481D01*
X116432Y105704D01*
X116402Y105933D01*
X116314Y106147D01*
X116254Y106371D01*
X116138Y106571D01*
X116049Y106785D01*
X115909Y106968D01*
X115793Y107169D01*
X115629Y107332D01*
X115488Y107516D01*
X115305Y107657D01*
X115141Y107820D01*
X114941Y107936D01*
X114757Y108077D01*
X114543Y108166D01*
X114343Y108281D01*
X114120Y108341D01*
X113906Y108430D01*
X113676Y108460D01*
X113453Y108520D01*
X113222D01*
X112992Y108550D01*
X111452D01*
X94629Y125373D01*
Y126913D01*
X94509Y127827D01*
X94377Y128146D01*
Y132480D01*
X94346Y132710D01*
Y132941D01*
X94287Y133165D01*
X94258Y133384D01*
X94273Y133405D01*
X94686Y133663D01*
X107974Y120375D01*
X108470Y120044D01*
X109055Y119927D01*
X119580D01*
X119915Y119592D01*
X120724Y119257D01*
X121599D01*
X122408Y119592D01*
X122643Y119827D01*
X123143Y119620D01*
Y74297D01*
X122504Y73658D01*
X122363Y73474D01*
X122199Y73311D01*
X122084Y73110D01*
X121943Y72926D01*
X121854Y72713D01*
X121739Y72512D01*
X121679Y72289D01*
X121590Y72075D01*
X121560Y71846D01*
X121500Y71622D01*
Y71391D01*
X121470Y71161D01*
X121500Y70932D01*
Y70701D01*
X121560Y70477D01*
X121590Y70248D01*
X121679Y70034D01*
X121739Y69810D01*
X121854Y69610D01*
X121943Y69396D01*
X122084Y69213D01*
X122199Y69012D01*
X122363Y68849D01*
X122504Y68665D01*
X122687Y68524D01*
X122851Y68361D01*
X123051Y68245D01*
X123235Y68104D01*
X123449Y68016D01*
X123649Y67900D01*
X123873Y67840D01*
X124086Y67751D01*
X124316Y67721D01*
X124539Y67661D01*
X124771D01*
X125000Y67631D01*
X125229Y67661D01*
X125461D01*
X125684Y67721D01*
X125914Y67751D01*
X126127Y67840D01*
X126351Y67900D01*
X126551Y68016D01*
X126765Y68104D01*
X126949Y68245D01*
X127149Y68361D01*
X127313Y68524D01*
X127496Y68665D01*
X129169Y70338D01*
X129730Y71070D01*
X130083Y71921D01*
X130203Y72835D01*
Y140945D01*
X130203Y140945D01*
X130083Y141859D01*
X129730Y142710D01*
X129169Y143441D01*
X124451Y148159D01*
X124645Y148664D01*
X124960Y148700D01*
X125230Y148430D01*
X126039Y148095D01*
X126914D01*
X127723Y148430D01*
X128341Y149049D01*
X128676Y149858D01*
Y150733D01*
X128341Y151541D01*
X127723Y152160D01*
X126914Y152495D01*
X126039D01*
X125230Y152160D01*
X124894Y151825D01*
X62303D01*
X61718Y151708D01*
X61222Y151377D01*
X54958Y145113D01*
X54188D01*
X53380Y144779D01*
X52761Y144160D01*
X52426Y143351D01*
Y142476D01*
X52761Y141667D01*
X53380Y141048D01*
X54188Y140713D01*
X55064D01*
X55484Y140888D01*
X55767Y140464D01*
X55120Y139817D01*
X45873D01*
X45537Y140153D01*
X44729Y140487D01*
X43854D01*
X43045Y140153D01*
X42426Y139534D01*
X42091Y138725D01*
Y137850D01*
X42426Y137041D01*
X43045Y136422D01*
X43854Y136087D01*
X44729D01*
X45537Y136422D01*
X45873Y136758D01*
X55754D01*
X56339Y136874D01*
X56835Y137206D01*
X61905Y142276D01*
X62469Y142132D01*
X62702Y141569D01*
X63321Y140950D01*
X64129Y140615D01*
X65004D01*
X65237Y140711D01*
X65320Y140695D01*
X69284D01*
X69620Y140359D01*
X70429Y140024D01*
X71304D01*
X72112Y140359D01*
X72731Y140978D01*
X73066Y141787D01*
Y142662D01*
X72731Y143471D01*
X72112Y144089D01*
X71304Y144424D01*
X70429D01*
X69620Y144089D01*
X69284Y143754D01*
X66559D01*
X66432Y144061D01*
X65813Y144680D01*
X65250Y144913D01*
X65106Y145477D01*
X65541Y145912D01*
X93752D01*
X102887Y136776D01*
X103383Y136444D01*
X103969Y136328D01*
X112493D01*
X118863Y129958D01*
Y129484D01*
X119198Y128675D01*
X119817Y128056D01*
X120625Y127721D01*
X121501D01*
X122309Y128056D01*
X122643Y128390D01*
X123143Y128183D01*
Y123293D01*
X122643Y123086D01*
X122408Y123322D01*
X121599Y123657D01*
X120724D01*
X119915Y123322D01*
X119580Y122986D01*
X109689D01*
X94033Y138641D01*
X93537Y138973D01*
X92952Y139089D01*
X63678D01*
X63343Y139425D01*
X62534Y139760D01*
X61659D01*
X60850Y139425D01*
X60231Y138806D01*
X59896Y137997D01*
Y137122D01*
X60231Y136314D01*
X60850Y135695D01*
X61659Y135360D01*
X62534D01*
X63343Y135695D01*
X63678Y136030D01*
X88965D01*
X89076Y135560D01*
X89072Y135530D01*
X88898Y135397D01*
X88697Y135281D01*
X88534Y135117D01*
X88350Y134976D01*
X88209Y134793D01*
X88046Y134629D01*
X87930Y134429D01*
X87789Y134245D01*
X87701Y134032D01*
X87585Y133831D01*
X87525Y133608D01*
X87436Y133394D01*
X87406Y133165D01*
X87347Y132941D01*
Y132710D01*
X87316Y132480D01*
Y127165D01*
X87436Y126252D01*
X87569Y125933D01*
Y123910D01*
X87689Y122997D01*
X88042Y122145D01*
X88603Y121414D01*
X107493Y102524D01*
X108225Y101962D01*
X109076Y101610D01*
X109462Y101559D01*
Y68799D01*
X109582Y67886D01*
X109935Y67034D01*
X110496Y66303D01*
X126047Y50752D01*
X126778Y50191D01*
X127630Y49838D01*
X128543Y49718D01*
X232996D01*
X233910Y49838D01*
X234761Y50191D01*
X235492Y50752D01*
X239769Y55028D01*
X240330Y55759D01*
X240682Y56611D01*
X240803Y57524D01*
Y60795D01*
X290479D01*
X290953Y60479D01*
X291831Y60304D01*
X292709Y60479D01*
X293453Y60976D01*
X293950Y61721D01*
X294125Y62598D01*
X293950Y63476D01*
X293453Y64221D01*
X292962Y64711D01*
X292218Y65209D01*
X291340Y65383D01*
X239539D01*
X239345Y65577D01*
X238614Y66138D01*
X237763Y66491D01*
X236849Y66611D01*
X235935Y66491D01*
X235084Y66138D01*
X234353Y65577D01*
X233792Y64846D01*
X233439Y63995D01*
X233381Y63556D01*
X233115Y63125D01*
X232640Y63125D01*
X231150Y64615D01*
X231044Y65147D01*
X230713Y65643D01*
X227935Y68421D01*
X227438Y68753D01*
X226853Y68869D01*
X225125D01*
X223006Y70988D01*
X223155Y71546D01*
X223770Y71710D01*
X224671Y72231D01*
X225407Y72967D01*
X225927Y73868D01*
X226197Y74873D01*
Y75914D01*
X225927Y76919D01*
X225407Y77821D01*
X224671Y78557D01*
X223770Y79077D01*
X222764Y79347D01*
X221724D01*
X220718Y79077D01*
X219817Y78557D01*
X219081Y77821D01*
X218785Y77308D01*
X218289Y77243D01*
X206943Y88589D01*
Y94284D01*
X207278Y94620D01*
X207613Y95429D01*
Y96304D01*
X207278Y97112D01*
X206660Y97731D01*
X205851Y98066D01*
X204976D01*
X204167Y97731D01*
X203548Y97112D01*
X203213Y96304D01*
Y95429D01*
X203548Y94620D01*
X203884Y94284D01*
Y89997D01*
X203422Y89805D01*
X188685Y104542D01*
X188877Y105004D01*
X194432D01*
Y105459D01*
X240415D01*
X248635Y97238D01*
X248557Y96845D01*
X247938Y96227D01*
X247603Y95418D01*
Y94943D01*
X241163Y88503D01*
X240831Y88007D01*
X240715Y87421D01*
Y79075D01*
X239817Y78557D01*
X239081Y77821D01*
X238561Y76919D01*
X238291Y75914D01*
Y74873D01*
X238561Y73868D01*
X239081Y72967D01*
X239817Y72231D01*
X240718Y71710D01*
X241724Y71441D01*
X242764D01*
X243770Y71710D01*
X244671Y72231D01*
X245407Y72967D01*
X245928Y73868D01*
X246197Y74873D01*
Y75914D01*
X245928Y76919D01*
X245407Y77821D01*
X244671Y78557D01*
X243774Y79075D01*
Y86788D01*
X249766Y92780D01*
X250241D01*
X251049Y93115D01*
X251550Y93616D01*
X252160Y93713D01*
X259228Y86646D01*
X259286Y86354D01*
X259617Y85858D01*
X268560Y76915D01*
X268291Y75914D01*
Y74873D01*
X268561Y73868D01*
X269081Y72967D01*
X269817Y72231D01*
X270718Y71710D01*
X271724Y71441D01*
X272764D01*
X273770Y71710D01*
X274671Y72231D01*
X275407Y72967D01*
X275824Y73689D01*
X276287Y73981D01*
X276287Y73981D01*
X276608Y73917D01*
X276872Y73864D01*
X277197Y73864D01*
X278563D01*
X279081Y72967D01*
X279817Y72231D01*
X280718Y71710D01*
X281724Y71441D01*
X282765D01*
X283770Y71710D01*
X284671Y72231D01*
X285407Y72967D01*
X285928Y73868D01*
X286145Y74681D01*
X286660Y74896D01*
X287201Y74424D01*
X287415Y74302D01*
X287620Y74165D01*
X287673Y74155D01*
X287719Y74128D01*
X287964Y74097D01*
X288206Y74049D01*
X288512Y74049D01*
X288561Y73868D01*
X289081Y72967D01*
X289817Y72231D01*
X290718Y71710D01*
X291724Y71441D01*
X292764D01*
X293770Y71710D01*
X294671Y72231D01*
X295407Y72967D01*
X295928Y73868D01*
X296142Y74668D01*
X296661Y74883D01*
X297215Y74413D01*
X297423Y74297D01*
X297620Y74165D01*
X297682Y74153D01*
X297737Y74122D01*
X297972Y74095D01*
X298205Y74049D01*
X298512D01*
X298561Y73868D01*
X299081Y72967D01*
X299817Y72231D01*
X300718Y71710D01*
X301724Y71441D01*
X302765D01*
X303770Y71710D01*
X304671Y72231D01*
X305407Y72967D01*
X305927Y73868D01*
X306197Y74873D01*
Y75914D01*
X305927Y76919D01*
X305407Y77821D01*
X305374Y77854D01*
X305584Y78307D01*
X308337Y78087D01*
X308399Y78094D01*
X308459Y78082D01*
X308663D01*
X308943Y77582D01*
X308561Y76919D01*
X308291Y75914D01*
Y74873D01*
X308561Y73868D01*
X309081Y72967D01*
X309817Y72231D01*
X310718Y71710D01*
X311724Y71441D01*
X312765D01*
X313770Y71710D01*
X314671Y72231D01*
X315407Y72967D01*
X315928Y73868D01*
X316197Y74873D01*
Y75914D01*
X315928Y76919D01*
X315407Y77821D01*
X314671Y78557D01*
X313770Y79077D01*
X313082Y79261D01*
X312861Y79779D01*
X313033Y80086D01*
X313229Y80159D01*
X313252Y80174D01*
X313280Y80179D01*
X313505Y80330D01*
X313736Y80472D01*
X313753Y80495D01*
X313776Y80511D01*
X316042Y82777D01*
X316374Y83273D01*
X316490Y83858D01*
Y111856D01*
X318012D01*
X318597Y111973D01*
X319093Y112304D01*
X323380Y116591D01*
X324381Y116323D01*
X325422D01*
X326427Y116592D01*
X327329Y117113D01*
X328065Y117849D01*
X328585Y118750D01*
X328854Y119755D01*
Y120796D01*
X328585Y121801D01*
X328065Y122703D01*
X327329Y123439D01*
X326427Y123959D01*
X325422Y124228D01*
X324381D01*
X323376Y123959D01*
X322475Y123439D01*
X321739Y122703D01*
X321218Y121801D01*
X320949Y120796D01*
Y119755D01*
X321217Y118754D01*
X317378Y114915D01*
X315546D01*
X315390Y114884D01*
X314890Y115295D01*
Y121108D01*
X317264D01*
X317849Y121225D01*
X318345Y121556D01*
X323380Y126591D01*
X324381Y126323D01*
X325422D01*
X326427Y126592D01*
X327329Y127113D01*
X328065Y127848D01*
X328585Y128750D01*
X328854Y129755D01*
Y130796D01*
X328585Y131801D01*
X328065Y132703D01*
X327329Y133439D01*
X326427Y133959D01*
X325422Y134228D01*
X324381D01*
X323376Y133959D01*
X322475Y133439D01*
X321739Y132703D01*
X321218Y131801D01*
X320949Y130796D01*
Y129755D01*
X321217Y128754D01*
X316630Y124167D01*
X314169D01*
X313583Y124051D01*
X313087Y123719D01*
X312279Y122911D01*
X311948Y122415D01*
X311831Y121830D01*
Y85648D01*
X309134Y82950D01*
X286930Y84659D01*
X286400Y84878D01*
X286499Y85378D01*
X309646D01*
X310036Y85456D01*
X310367Y85677D01*
X310588Y86007D01*
X310665Y86398D01*
Y157264D01*
X310588Y157654D01*
X310481Y157813D01*
X310707Y158313D01*
X312949D01*
X342871Y128392D01*
X342602Y127391D01*
Y126350D01*
X342872Y125344D01*
X343392Y124443D01*
X344128Y123707D01*
X345029Y123187D01*
X346035Y122917D01*
X347076D01*
X348081Y123187D01*
X348982Y123707D01*
X349718Y124443D01*
X350238Y125344D01*
X350508Y126350D01*
Y127391D01*
X350238Y128396D01*
X349718Y129297D01*
X348982Y130033D01*
X348081Y130553D01*
X347076Y130823D01*
X346035D01*
X345034Y130555D01*
X315670Y159918D01*
X315861Y160380D01*
X316591D01*
X341021Y135950D01*
X341517Y135618D01*
X342102Y135502D01*
X342829D01*
X342872Y135344D01*
X343392Y134443D01*
X344128Y133707D01*
X345029Y133187D01*
X346035Y132917D01*
X347076D01*
X348081Y133187D01*
X348982Y133707D01*
X349718Y134443D01*
X350238Y135344D01*
X350508Y136350D01*
Y137390D01*
X350238Y138396D01*
X349718Y139297D01*
X348982Y140033D01*
X348081Y140553D01*
X347076Y140823D01*
X346035D01*
X345029Y140553D01*
X344128Y140033D01*
X343392Y139297D01*
X343124Y138832D01*
X342528Y138768D01*
X318306Y162991D01*
X317810Y163322D01*
X317224Y163439D01*
X281791D01*
X281206Y163322D01*
X280710Y162991D01*
X267969Y150250D01*
X222645D01*
X222309Y150585D01*
X221501Y150920D01*
X220625D01*
X219817Y150585D01*
X219198Y149967D01*
X218863Y149158D01*
Y148283D01*
X219198Y147474D01*
X219817Y146855D01*
X220395Y146616D01*
X220295Y146116D01*
X211122D01*
X210537Y146000D01*
X210041Y145668D01*
X203580Y139208D01*
X203106D01*
X202808Y139085D01*
X202525Y139508D01*
X223325Y160309D01*
X223657Y160805D01*
X223774Y161391D01*
Y164232D01*
X224671Y164750D01*
X225407Y165486D01*
X225927Y166388D01*
X226197Y167393D01*
Y168434D01*
X225927Y169439D01*
X225407Y170340D01*
X224671Y171076D01*
X223770Y171597D01*
X222764Y171866D01*
D02*
G37*
G36*
X347076Y120823D02*
X346035D01*
X345029Y120554D01*
X344128Y120033D01*
X343392Y119297D01*
X342872Y118396D01*
X342602Y117391D01*
Y116350D01*
X342872Y115344D01*
X343392Y114443D01*
X344128Y113707D01*
X345029Y113187D01*
X346035Y112917D01*
X347076D01*
X348081Y113187D01*
X348982Y113707D01*
X349718Y114443D01*
X350238Y115344D01*
X350508Y116350D01*
Y117391D01*
X350238Y118396D01*
X349718Y119297D01*
X348982Y120033D01*
X348081Y120554D01*
X347076Y120823D01*
D02*
G37*
G36*
X325422Y114228D02*
X324381D01*
X323376Y113959D01*
X322475Y113439D01*
X321739Y112703D01*
X321218Y111801D01*
X320949Y110796D01*
Y109755D01*
X321218Y108750D01*
X321739Y107849D01*
X322475Y107113D01*
X323376Y106592D01*
X324381Y106323D01*
X325422D01*
X326427Y106592D01*
X327329Y107113D01*
X328065Y107849D01*
X328585Y108750D01*
X328854Y109755D01*
Y110796D01*
X328585Y111801D01*
X328065Y112703D01*
X327329Y113439D01*
X326427Y113959D01*
X325422Y114228D01*
D02*
G37*
G36*
X347076Y110823D02*
X346035D01*
X345029Y110554D01*
X344128Y110033D01*
X343392Y109297D01*
X342872Y108396D01*
X342602Y107390D01*
Y106350D01*
X342872Y105344D01*
X343392Y104443D01*
X344128Y103707D01*
X345029Y103187D01*
X346035Y102917D01*
X347076D01*
X348081Y103187D01*
X348982Y103707D01*
X349718Y104443D01*
X350238Y105344D01*
X350508Y106350D01*
Y107390D01*
X350238Y108396D01*
X349718Y109297D01*
X348982Y110033D01*
X348081Y110554D01*
X347076Y110823D01*
D02*
G37*
G36*
X28917Y108650D02*
X20618D01*
Y100350D01*
X28917D01*
Y108650D01*
D02*
G37*
G36*
X262765Y79347D02*
X261724D01*
X260718Y79077D01*
X259817Y78557D01*
X259081Y77821D01*
X258561Y76919D01*
X258291Y75914D01*
Y74873D01*
X258561Y73868D01*
X259081Y72967D01*
X259817Y72231D01*
X260718Y71710D01*
X261724Y71441D01*
X262765D01*
X263770Y71710D01*
X264671Y72231D01*
X265407Y72967D01*
X265928Y73868D01*
X266197Y74873D01*
Y75914D01*
X265928Y76919D01*
X265407Y77821D01*
X264671Y78557D01*
X263770Y79077D01*
X262765Y79347D01*
D02*
G37*
G36*
X252765D02*
X251724D01*
X250718Y79077D01*
X249817Y78557D01*
X249081Y77821D01*
X248561Y76919D01*
X248291Y75914D01*
Y74873D01*
X248561Y73868D01*
X249081Y72967D01*
X249817Y72231D01*
X250718Y71710D01*
X251724Y71441D01*
X252765D01*
X253770Y71710D01*
X254671Y72231D01*
X255407Y72967D01*
X255927Y73868D01*
X256197Y74873D01*
Y75914D01*
X255927Y76919D01*
X255407Y77821D01*
X254671Y78557D01*
X253770Y79077D01*
X252765Y79347D01*
D02*
G37*
G36*
X232765D02*
X231724D01*
X230718Y79077D01*
X229817Y78557D01*
X229081Y77821D01*
X228561Y76919D01*
X228291Y75914D01*
Y74873D01*
X228561Y73868D01*
X229081Y72967D01*
X229817Y72231D01*
X230718Y71710D01*
X231724Y71441D01*
X232765D01*
X233770Y71710D01*
X234671Y72231D01*
X235407Y72967D01*
X235928Y73868D01*
X236197Y74873D01*
Y75914D01*
X235928Y76919D01*
X235407Y77821D01*
X234671Y78557D01*
X233770Y79077D01*
X232765Y79347D01*
D02*
G37*
G36*
X163036Y101117D02*
X162161D01*
X161352Y100782D01*
X160733Y100163D01*
X160398Y99355D01*
Y98480D01*
X160733Y97671D01*
X161352Y97052D01*
X162161Y96717D01*
X163036D01*
X163845Y97052D01*
X164180Y97388D01*
X168087D01*
X188560Y76915D01*
X188291Y75914D01*
Y74873D01*
X188561Y73868D01*
X189081Y72967D01*
X189817Y72231D01*
X190718Y71710D01*
X191724Y71441D01*
X192764D01*
X193770Y71710D01*
X194671Y72231D01*
X195407Y72967D01*
X195928Y73868D01*
X196197Y74873D01*
Y75914D01*
X195928Y76919D01*
X195407Y77821D01*
X194671Y78557D01*
X193770Y79077D01*
X192764Y79347D01*
X191724D01*
X190723Y79078D01*
X169802Y99999D01*
X169306Y100330D01*
X168720Y100447D01*
X164180D01*
X163845Y100782D01*
X163036Y101117D01*
D02*
G37*
G36*
X182764Y79347D02*
X181724D01*
X180718Y79077D01*
X179817Y78557D01*
X179081Y77821D01*
X178561Y76919D01*
X178291Y75914D01*
Y74873D01*
X178561Y73868D01*
X179081Y72967D01*
X179817Y72231D01*
X180718Y71710D01*
X181724Y71441D01*
X182764D01*
X183770Y71710D01*
X184671Y72231D01*
X185407Y72967D01*
X185927Y73868D01*
X186197Y74873D01*
Y75914D01*
X185927Y76919D01*
X185407Y77821D01*
X184671Y78557D01*
X183770Y79077D01*
X182764Y79347D01*
D02*
G37*
G36*
X172765D02*
X171724D01*
X170718Y79077D01*
X169817Y78557D01*
X169081Y77821D01*
X168561Y76919D01*
X168291Y75914D01*
Y74873D01*
X168561Y73868D01*
X169081Y72967D01*
X169817Y72231D01*
X170718Y71710D01*
X171724Y71441D01*
X172765D01*
X173770Y71710D01*
X174671Y72231D01*
X175407Y72967D01*
X175927Y73868D01*
X176197Y74873D01*
Y75914D01*
X175927Y76919D01*
X175407Y77821D01*
X174671Y78557D01*
X173770Y79077D01*
X172765Y79347D01*
D02*
G37*
G36*
X26619Y66472D02*
X25743D01*
X24935Y66137D01*
X24316Y65518D01*
X23981Y64709D01*
Y63834D01*
X24316Y63025D01*
X24935Y62407D01*
X25743Y62072D01*
X26619D01*
X27427Y62407D01*
X27763Y62742D01*
X104677D01*
X120568Y46852D01*
Y46377D01*
X120903Y45569D01*
X121521Y44950D01*
X122330Y44615D01*
X123205D01*
X124014Y44950D01*
X124633Y45569D01*
X124968Y46377D01*
Y47253D01*
X124633Y48061D01*
X124014Y48680D01*
X123205Y49015D01*
X122731D01*
X106393Y65353D01*
X105896Y65685D01*
X105311Y65801D01*
X27763D01*
X27427Y66137D01*
X26619Y66472D01*
D02*
G37*
G36*
X64205Y43015D02*
X63330D01*
X62521Y42680D01*
X61903Y42061D01*
X61568Y41253D01*
Y40778D01*
X59918Y39128D01*
X51385D01*
X51049Y39463D01*
X50241Y39798D01*
X49365D01*
X48557Y39463D01*
X47938Y38845D01*
X47603Y38036D01*
Y37161D01*
X47938Y36352D01*
X48557Y35733D01*
X49365Y35398D01*
X50241D01*
X51049Y35733D01*
X51385Y36069D01*
X60551D01*
X61137Y36185D01*
X61633Y36517D01*
X63731Y38615D01*
X64205D01*
X65014Y38950D01*
X65633Y39569D01*
X65968Y40377D01*
Y41253D01*
X65633Y42061D01*
X65014Y42680D01*
X64205Y43015D01*
D02*
G37*
G36*
X249749Y52692D02*
X248873D01*
X248065Y52357D01*
X247446Y51738D01*
X247111Y50930D01*
Y50055D01*
X247446Y49246D01*
X248065Y48627D01*
X248873Y48292D01*
X249749D01*
X250557Y48627D01*
X250893Y48963D01*
X275351D01*
X278785Y45528D01*
X278867Y45120D01*
X279198Y44623D01*
X282643Y41179D01*
Y40704D01*
X282977Y39895D01*
X283596Y39277D01*
X284405Y38942D01*
X285280D01*
X286089Y39277D01*
X286708Y39895D01*
X287042Y40704D01*
Y41579D01*
X286708Y42388D01*
X286089Y43007D01*
X285280Y43342D01*
X284805D01*
X281774Y46373D01*
X281692Y46782D01*
X281361Y47278D01*
X277066Y51574D01*
X276570Y51905D01*
X275984Y52021D01*
X250893D01*
X250557Y52357D01*
X249749Y52692D01*
D02*
G37*
G36*
X335777Y33563D02*
X327871D01*
Y25657D01*
X335777D01*
Y33563D01*
D02*
G37*
G36*
X322344D02*
X321304D01*
X320298Y33294D01*
X319397Y32773D01*
X318661Y32037D01*
X318141Y31136D01*
X317871Y30131D01*
Y29090D01*
X318141Y28084D01*
X318661Y27183D01*
X319397Y26447D01*
X320298Y25927D01*
X321304Y25657D01*
X322344D01*
X323350Y25927D01*
X324251Y26447D01*
X324987Y27183D01*
X325507Y28084D01*
X325777Y29090D01*
Y30131D01*
X325507Y31136D01*
X324987Y32037D01*
X324251Y32773D01*
X323350Y33294D01*
X322344Y33563D01*
D02*
G37*
G36*
X312345D02*
X311304D01*
X310298Y33294D01*
X309397Y32773D01*
X308661Y32037D01*
X308141Y31136D01*
X307871Y30131D01*
Y29090D01*
X308141Y28084D01*
X308661Y27183D01*
X309397Y26447D01*
X310298Y25927D01*
X311304Y25657D01*
X312345D01*
X313350Y25927D01*
X314251Y26447D01*
X314987Y27183D01*
X315508Y28084D01*
X315777Y29090D01*
Y30131D01*
X315508Y31136D01*
X314987Y32037D01*
X314251Y32773D01*
X313350Y33294D01*
X312345Y33563D01*
D02*
G37*
G36*
X302344D02*
X301304D01*
X300298Y33294D01*
X299397Y32773D01*
X298661Y32037D01*
X298141Y31136D01*
X297871Y30131D01*
Y29090D01*
X298141Y28084D01*
X298661Y27183D01*
X299397Y26447D01*
X300298Y25927D01*
X301304Y25657D01*
X302344D01*
X303350Y25927D01*
X304251Y26447D01*
X304987Y27183D01*
X305507Y28084D01*
X305777Y29090D01*
Y30131D01*
X305507Y31136D01*
X304987Y32037D01*
X304251Y32773D01*
X303350Y33294D01*
X302344Y33563D01*
D02*
G37*
G36*
X291960D02*
X284055D01*
Y25657D01*
X291960D01*
Y33563D01*
D02*
G37*
G36*
X278528D02*
X277487D01*
X276482Y33294D01*
X275580Y32773D01*
X274844Y32037D01*
X274324Y31136D01*
X274055Y30131D01*
Y29090D01*
X274324Y28084D01*
X274844Y27183D01*
X275580Y26447D01*
X276482Y25927D01*
X277487Y25657D01*
X278528D01*
X279533Y25927D01*
X280434Y26447D01*
X281170Y27183D01*
X281691Y28084D01*
X281960Y29090D01*
Y30131D01*
X281691Y31136D01*
X281170Y32037D01*
X280434Y32773D01*
X279533Y33294D01*
X278528Y33563D01*
D02*
G37*
G36*
X268528D02*
X267487D01*
X266482Y33294D01*
X265580Y32773D01*
X264844Y32037D01*
X264324Y31136D01*
X264055Y30131D01*
Y29090D01*
X264324Y28084D01*
X264844Y27183D01*
X265580Y26447D01*
X266482Y25927D01*
X267487Y25657D01*
X268528D01*
X269533Y25927D01*
X270434Y26447D01*
X271170Y27183D01*
X271691Y28084D01*
X271960Y29090D01*
Y30131D01*
X271691Y31136D01*
X271170Y32037D01*
X270434Y32773D01*
X269533Y33294D01*
X268528Y33563D01*
D02*
G37*
G36*
X258528D02*
X257487D01*
X256482Y33294D01*
X255580Y32773D01*
X254844Y32037D01*
X254324Y31136D01*
X254055Y30131D01*
Y29090D01*
X254324Y28084D01*
X254844Y27183D01*
X255580Y26447D01*
X256482Y25927D01*
X257487Y25657D01*
X258528D01*
X259533Y25927D01*
X260435Y26447D01*
X261170Y27183D01*
X261691Y28084D01*
X261960Y29090D01*
Y30131D01*
X261691Y31136D01*
X261170Y32037D01*
X260435Y32773D01*
X259533Y33294D01*
X258528Y33563D01*
D02*
G37*
G36*
X208143D02*
X200238D01*
Y25657D01*
X208143D01*
Y33563D01*
D02*
G37*
G36*
X194711D02*
X193670D01*
X192665Y33294D01*
X191764Y32773D01*
X191028Y32037D01*
X190507Y31136D01*
X190238Y30131D01*
Y29090D01*
X190507Y28084D01*
X191028Y27183D01*
X191764Y26447D01*
X192665Y25927D01*
X193670Y25657D01*
X194711D01*
X195716Y25927D01*
X196618Y26447D01*
X197354Y27183D01*
X197874Y28084D01*
X198143Y29090D01*
Y30131D01*
X197874Y31136D01*
X197354Y32037D01*
X196618Y32773D01*
X195716Y33294D01*
X194711Y33563D01*
D02*
G37*
G36*
X184711D02*
X183670D01*
X182665Y33294D01*
X181764Y32773D01*
X181028Y32037D01*
X180507Y31136D01*
X180238Y30131D01*
Y29090D01*
X180507Y28084D01*
X181028Y27183D01*
X181764Y26447D01*
X182665Y25927D01*
X183670Y25657D01*
X184711D01*
X185716Y25927D01*
X186618Y26447D01*
X187354Y27183D01*
X187874Y28084D01*
X188144Y29090D01*
Y30131D01*
X187874Y31136D01*
X187354Y32037D01*
X186618Y32773D01*
X185716Y33294D01*
X184711Y33563D01*
D02*
G37*
G36*
X174711D02*
X173670D01*
X172665Y33294D01*
X171764Y32773D01*
X171028Y32037D01*
X170507Y31136D01*
X170238Y30131D01*
Y29090D01*
X170507Y28084D01*
X171028Y27183D01*
X171764Y26447D01*
X172665Y25927D01*
X173670Y25657D01*
X174711D01*
X175716Y25927D01*
X176618Y26447D01*
X177354Y27183D01*
X177874Y28084D01*
X178144Y29090D01*
Y30131D01*
X177874Y31136D01*
X177354Y32037D01*
X176618Y32773D01*
X175716Y33294D01*
X174711Y33563D01*
D02*
G37*
G36*
X163563D02*
X155657D01*
Y25657D01*
X163563D01*
Y33563D01*
D02*
G37*
G36*
X150131D02*
X149090D01*
X148084Y33294D01*
X147183Y32773D01*
X146447Y32037D01*
X145927Y31136D01*
X145658Y30131D01*
Y29090D01*
X145927Y28084D01*
X146447Y27183D01*
X147183Y26447D01*
X148084Y25927D01*
X149090Y25657D01*
X150131D01*
X151136Y25927D01*
X152037Y26447D01*
X152773Y27183D01*
X153294Y28084D01*
X153563Y29090D01*
Y30131D01*
X153294Y31136D01*
X152773Y32037D01*
X152037Y32773D01*
X151136Y33294D01*
X150131Y33563D01*
D02*
G37*
G36*
X140131D02*
X139090D01*
X138084Y33294D01*
X137183Y32773D01*
X136447Y32037D01*
X135927Y31136D01*
X135658Y30131D01*
Y29090D01*
X135927Y28084D01*
X136447Y27183D01*
X137183Y26447D01*
X138084Y25927D01*
X139090Y25657D01*
X140131D01*
X141136Y25927D01*
X142037Y26447D01*
X142773Y27183D01*
X143294Y28084D01*
X143563Y29090D01*
Y30131D01*
X143294Y31136D01*
X142773Y32037D01*
X142037Y32773D01*
X141136Y33294D01*
X140131Y33563D01*
D02*
G37*
G36*
X130131D02*
X129090D01*
X128085Y33294D01*
X127183Y32773D01*
X126447Y32037D01*
X125927Y31136D01*
X125657Y30131D01*
Y29090D01*
X125927Y28084D01*
X126447Y27183D01*
X127183Y26447D01*
X128085Y25927D01*
X129090Y25657D01*
X130131D01*
X131136Y25927D01*
X132037Y26447D01*
X132773Y27183D01*
X133294Y28084D01*
X133563Y29090D01*
Y30131D01*
X133294Y31136D01*
X132773Y32037D01*
X132037Y32773D01*
X131136Y33294D01*
X130131Y33563D01*
D02*
G37*
G36*
X332345Y23563D02*
X331304D01*
X330298Y23294D01*
X329397Y22773D01*
X328661Y22037D01*
X328141Y21136D01*
X327871Y20131D01*
Y19090D01*
X328141Y18085D01*
X328661Y17183D01*
X329397Y16447D01*
X330298Y15927D01*
X331304Y15657D01*
X332345D01*
X333350Y15927D01*
X334251Y16447D01*
X334987Y17183D01*
X335507Y18085D01*
X335777Y19090D01*
Y20131D01*
X335507Y21136D01*
X334987Y22037D01*
X334251Y22773D01*
X333350Y23294D01*
X332345Y23563D01*
D02*
G37*
G36*
X322344D02*
X321304D01*
X320298Y23294D01*
X319397Y22773D01*
X318661Y22037D01*
X318141Y21136D01*
X317871Y20131D01*
Y19090D01*
X318141Y18085D01*
X318661Y17183D01*
X319397Y16447D01*
X320298Y15927D01*
X321304Y15657D01*
X322344D01*
X323350Y15927D01*
X324251Y16447D01*
X324987Y17183D01*
X325507Y18085D01*
X325777Y19090D01*
Y20131D01*
X325507Y21136D01*
X324987Y22037D01*
X324251Y22773D01*
X323350Y23294D01*
X322344Y23563D01*
D02*
G37*
G36*
X312345D02*
X311304D01*
X310298Y23294D01*
X309397Y22773D01*
X308661Y22037D01*
X308141Y21136D01*
X307871Y20131D01*
Y19090D01*
X308141Y18085D01*
X308661Y17183D01*
X309397Y16447D01*
X310298Y15927D01*
X311304Y15657D01*
X312345D01*
X313350Y15927D01*
X314251Y16447D01*
X314987Y17183D01*
X315508Y18085D01*
X315777Y19090D01*
Y20131D01*
X315508Y21136D01*
X314987Y22037D01*
X314251Y22773D01*
X313350Y23294D01*
X312345Y23563D01*
D02*
G37*
G36*
X302344D02*
X301304D01*
X300298Y23294D01*
X299397Y22773D01*
X298661Y22037D01*
X298141Y21136D01*
X297871Y20131D01*
Y19090D01*
X298141Y18085D01*
X298661Y17183D01*
X299397Y16447D01*
X300298Y15927D01*
X301304Y15657D01*
X302344D01*
X303350Y15927D01*
X304251Y16447D01*
X304987Y17183D01*
X305507Y18085D01*
X305777Y19090D01*
Y20131D01*
X305507Y21136D01*
X304987Y22037D01*
X304251Y22773D01*
X303350Y23294D01*
X302344Y23563D01*
D02*
G37*
G36*
X288528D02*
X287487D01*
X286482Y23294D01*
X285580Y22773D01*
X284844Y22037D01*
X284324Y21136D01*
X284055Y20131D01*
Y19090D01*
X284324Y18085D01*
X284844Y17183D01*
X285580Y16447D01*
X286482Y15927D01*
X287487Y15657D01*
X288528D01*
X289533Y15927D01*
X290435Y16447D01*
X291170Y17183D01*
X291691Y18085D01*
X291960Y19090D01*
Y20131D01*
X291691Y21136D01*
X291170Y22037D01*
X290435Y22773D01*
X289533Y23294D01*
X288528Y23563D01*
D02*
G37*
G36*
X278528D02*
X277487D01*
X276482Y23294D01*
X275580Y22773D01*
X274844Y22037D01*
X274324Y21136D01*
X274055Y20131D01*
Y19090D01*
X274324Y18085D01*
X274844Y17183D01*
X275580Y16447D01*
X276482Y15927D01*
X277487Y15657D01*
X278528D01*
X279533Y15927D01*
X280434Y16447D01*
X281170Y17183D01*
X281691Y18085D01*
X281960Y19090D01*
Y20131D01*
X281691Y21136D01*
X281170Y22037D01*
X280434Y22773D01*
X279533Y23294D01*
X278528Y23563D01*
D02*
G37*
G36*
X268528D02*
X267487D01*
X266482Y23294D01*
X265580Y22773D01*
X264844Y22037D01*
X264324Y21136D01*
X264055Y20131D01*
Y19090D01*
X264324Y18085D01*
X264844Y17183D01*
X265580Y16447D01*
X266482Y15927D01*
X267487Y15657D01*
X268528D01*
X269533Y15927D01*
X270434Y16447D01*
X271170Y17183D01*
X271691Y18085D01*
X271960Y19090D01*
Y20131D01*
X271691Y21136D01*
X271170Y22037D01*
X270434Y22773D01*
X269533Y23294D01*
X268528Y23563D01*
D02*
G37*
G36*
X258528D02*
X257487D01*
X256482Y23294D01*
X255580Y22773D01*
X254844Y22037D01*
X254324Y21136D01*
X254055Y20131D01*
Y19090D01*
X254324Y18085D01*
X254844Y17183D01*
X255580Y16447D01*
X256482Y15927D01*
X257487Y15657D01*
X258528D01*
X259533Y15927D01*
X260435Y16447D01*
X261170Y17183D01*
X261691Y18085D01*
X261960Y19090D01*
Y20131D01*
X261691Y21136D01*
X261170Y22037D01*
X260435Y22773D01*
X259533Y23294D01*
X258528Y23563D01*
D02*
G37*
G36*
X204711D02*
X203670D01*
X202665Y23294D01*
X201764Y22773D01*
X201028Y22037D01*
X200507Y21136D01*
X200238Y20131D01*
Y19090D01*
X200507Y18085D01*
X201028Y17183D01*
X201764Y16447D01*
X202665Y15927D01*
X203670Y15657D01*
X204711D01*
X205716Y15927D01*
X206618Y16447D01*
X207354Y17183D01*
X207874Y18085D01*
X208143Y19090D01*
Y20131D01*
X207874Y21136D01*
X207354Y22037D01*
X206618Y22773D01*
X205716Y23294D01*
X204711Y23563D01*
D02*
G37*
G36*
X194711D02*
X193670D01*
X192665Y23294D01*
X191764Y22773D01*
X191028Y22037D01*
X190507Y21136D01*
X190238Y20131D01*
Y19090D01*
X190507Y18085D01*
X191028Y17183D01*
X191764Y16447D01*
X192665Y15927D01*
X193670Y15657D01*
X194711D01*
X195716Y15927D01*
X196618Y16447D01*
X197354Y17183D01*
X197874Y18085D01*
X198143Y19090D01*
Y20131D01*
X197874Y21136D01*
X197354Y22037D01*
X196618Y22773D01*
X195716Y23294D01*
X194711Y23563D01*
D02*
G37*
G36*
X184711D02*
X183670D01*
X182665Y23294D01*
X181764Y22773D01*
X181028Y22037D01*
X180507Y21136D01*
X180238Y20131D01*
Y19090D01*
X180507Y18085D01*
X181028Y17183D01*
X181764Y16447D01*
X182665Y15927D01*
X183670Y15657D01*
X184711D01*
X185716Y15927D01*
X186618Y16447D01*
X187354Y17183D01*
X187874Y18085D01*
X188144Y19090D01*
Y20131D01*
X187874Y21136D01*
X187354Y22037D01*
X186618Y22773D01*
X185716Y23294D01*
X184711Y23563D01*
D02*
G37*
G36*
X174711D02*
X173670D01*
X172665Y23294D01*
X171764Y22773D01*
X171028Y22037D01*
X170507Y21136D01*
X170238Y20131D01*
Y19090D01*
X170507Y18085D01*
X171028Y17183D01*
X171764Y16447D01*
X172665Y15927D01*
X173670Y15657D01*
X174711D01*
X175716Y15927D01*
X176618Y16447D01*
X177354Y17183D01*
X177874Y18085D01*
X178144Y19090D01*
Y20131D01*
X177874Y21136D01*
X177354Y22037D01*
X176618Y22773D01*
X175716Y23294D01*
X174711Y23563D01*
D02*
G37*
G36*
X160131D02*
X159090D01*
X158084Y23294D01*
X157183Y22773D01*
X156447Y22037D01*
X155927Y21136D01*
X155657Y20131D01*
Y19090D01*
X155927Y18085D01*
X156447Y17183D01*
X157183Y16447D01*
X158084Y15927D01*
X159090Y15657D01*
X160131D01*
X161136Y15927D01*
X162037Y16447D01*
X162773Y17183D01*
X163294Y18085D01*
X163563Y19090D01*
Y20131D01*
X163294Y21136D01*
X162773Y22037D01*
X162037Y22773D01*
X161136Y23294D01*
X160131Y23563D01*
D02*
G37*
G36*
X150131D02*
X149090D01*
X148084Y23294D01*
X147183Y22773D01*
X146447Y22037D01*
X145927Y21136D01*
X145658Y20131D01*
Y19090D01*
X145927Y18085D01*
X146447Y17183D01*
X147183Y16447D01*
X148084Y15927D01*
X149090Y15657D01*
X150131D01*
X151136Y15927D01*
X152037Y16447D01*
X152773Y17183D01*
X153294Y18085D01*
X153563Y19090D01*
Y20131D01*
X153294Y21136D01*
X152773Y22037D01*
X152037Y22773D01*
X151136Y23294D01*
X150131Y23563D01*
D02*
G37*
G36*
X140131D02*
X139090D01*
X138084Y23294D01*
X137183Y22773D01*
X136447Y22037D01*
X135927Y21136D01*
X135658Y20131D01*
Y19090D01*
X135927Y18085D01*
X136447Y17183D01*
X137183Y16447D01*
X138084Y15927D01*
X139090Y15657D01*
X140131D01*
X141136Y15927D01*
X142037Y16447D01*
X142773Y17183D01*
X143294Y18085D01*
X143563Y19090D01*
Y20131D01*
X143294Y21136D01*
X142773Y22037D01*
X142037Y22773D01*
X141136Y23294D01*
X140131Y23563D01*
D02*
G37*
G36*
X130131D02*
X129090D01*
X128085Y23294D01*
X127183Y22773D01*
X126447Y22037D01*
X125927Y21136D01*
X125657Y20131D01*
Y19090D01*
X125927Y18085D01*
X126447Y17183D01*
X127183Y16447D01*
X128085Y15927D01*
X129090Y15657D01*
X130131D01*
X131136Y15927D01*
X132037Y16447D01*
X132773Y17183D01*
X133294Y18085D01*
X133563Y19090D01*
Y20131D01*
X133294Y21136D01*
X132773Y22037D01*
X132037Y22773D01*
X131136Y23294D01*
X130131Y23563D01*
D02*
G37*
%LPD*%
G36*
X283823Y156839D02*
Y86398D01*
X283833Y86348D01*
X283504Y85871D01*
X283171Y85822D01*
X281311Y87682D01*
Y97929D01*
X281195Y98514D01*
X280863Y99010D01*
X276644Y103230D01*
Y105035D01*
X269276D01*
Y104581D01*
X266444D01*
X266404Y104621D01*
X265595Y104956D01*
X264720D01*
X263911Y104621D01*
X263292Y104002D01*
X262958Y103193D01*
Y102318D01*
X263292Y101510D01*
X263911Y100891D01*
X264200Y100771D01*
Y100230D01*
X264108Y100192D01*
X263489Y99573D01*
X263329Y99186D01*
X262739Y99069D01*
X238778Y123030D01*
X238282Y123362D01*
X237697Y123478D01*
X194432D01*
Y123835D01*
X187064D01*
Y123380D01*
X186228D01*
X185695Y123912D01*
X184886Y124247D01*
X184011D01*
X183203Y123912D01*
X182584Y123293D01*
X182249Y122485D01*
Y121610D01*
X182584Y120801D01*
X183203Y120182D01*
X183343Y120124D01*
Y119583D01*
X182728Y119328D01*
X182392Y118993D01*
X172561D01*
X172251Y119493D01*
X172476Y120035D01*
Y120910D01*
X172141Y121719D01*
X171522Y122337D01*
X170713Y122672D01*
X170238D01*
X167482Y125429D01*
X167689Y125929D01*
X187499D01*
X187835Y125593D01*
X188644Y125258D01*
X189519D01*
X190328Y125593D01*
X190663Y125929D01*
X249801D01*
X250386Y126045D01*
X250882Y126377D01*
X259928Y135423D01*
X259969D01*
X260554Y135539D01*
X261050Y135870D01*
X269693Y144513D01*
X270168D01*
X270976Y144848D01*
X271595Y145467D01*
X271930Y146276D01*
Y147151D01*
X271595Y147959D01*
X271153Y148401D01*
X271080Y149035D01*
X273890Y151846D01*
X273933Y151840D01*
X274373Y151621D01*
Y150023D01*
X273922Y149573D01*
X273587Y148764D01*
Y147889D01*
X273922Y147081D01*
X274541Y146462D01*
X275350Y146127D01*
X276225D01*
X277034Y146462D01*
X277653Y147081D01*
X277987Y147889D01*
Y148764D01*
X277653Y149573D01*
X277432Y149794D01*
Y151154D01*
X283323Y157046D01*
X283823Y156839D01*
D02*
G37*
G36*
X267530Y147151D02*
Y146676D01*
X259335Y138481D01*
X259294D01*
X258709Y138365D01*
X258213Y138033D01*
X249167Y128988D01*
X234855D01*
X234664Y129450D01*
X240747Y135533D01*
X241078Y136029D01*
X241195Y136614D01*
Y137788D01*
X241530Y138124D01*
X241865Y138933D01*
Y139808D01*
X241530Y140616D01*
X240912Y141235D01*
X240103Y141570D01*
X239228D01*
X238419Y141235D01*
X237800Y140616D01*
X237465Y139808D01*
Y138933D01*
X237800Y138124D01*
X238136Y137788D01*
Y137248D01*
X231798Y130909D01*
X195121D01*
Y132105D01*
X201043Y138026D01*
X201467Y137743D01*
X201343Y137445D01*
Y136570D01*
X201678Y135762D01*
X202297Y135143D01*
X203106Y134808D01*
X203981D01*
X204789Y135143D01*
X205408Y135762D01*
X205743Y136570D01*
Y137045D01*
X211755Y143057D01*
X251272D01*
X251608Y142721D01*
X252417Y142387D01*
X253292D01*
X254100Y142721D01*
X254719Y143340D01*
X255054Y144149D01*
Y145024D01*
X254719Y145833D01*
X254100Y146452D01*
X253523Y146691D01*
X253622Y147191D01*
X267503D01*
X267530Y147151D01*
D02*
G37*
D14*
X286497Y83158D02*
G03*
X282591Y84240I-4253J-7764D01*
G01*
X276218Y76191D02*
G03*
X276281Y75992I979J203D01*
G01*
X276218Y76191D02*
G03*
X272532Y79436I-3974J-797D01*
G01*
X285457Y80044D02*
G03*
X281967Y81040I-3213J-4651D01*
G01*
X286013Y81591D02*
G03*
X281930Y82640I-3768J-6197D01*
G01*
X284905Y78451D02*
G03*
X282009Y79440I-2661J-3057D01*
G01*
X295096Y78273D02*
G03*
X291434Y79365I-2852J-2880D01*
G01*
X293991Y80770D02*
G03*
X291430Y80988I-1747J-5376D01*
G01*
X189081Y127458D02*
X249801D01*
X259294Y136952D01*
X343406Y20866D02*
X349410Y14862D01*
X349803D02*
Y23720D01*
Y14862D02*
X355807Y20866D01*
X356004D01*
X349410Y14862D02*
X349803D01*
X350468Y13697D02*
X350583D01*
X356126Y8153D01*
X313583Y159843D02*
X346555Y126870D01*
X275902Y151788D02*
X283957Y159843D01*
X313583D01*
X275902Y148442D02*
Y151788D01*
X229631Y63971D02*
X232677Y60925D01*
X226853Y67340D02*
X229631Y64562D01*
Y63971D02*
Y64562D01*
X224491Y67340D02*
X226853D01*
X26181Y64272D02*
X105311D01*
X122768Y46815D01*
X280279Y45705D02*
X284842Y41142D01*
X275984Y50492D02*
X280279Y46197D01*
Y45705D02*
Y46197D01*
X197898Y146986D02*
X198605D01*
X193137Y142224D02*
X197898Y146986D01*
X200340Y148721D02*
X200689D01*
X198605Y146986D02*
X200340Y148721D01*
X28740Y142028D02*
Y142323D01*
X42028Y155610D01*
X150808D01*
X241048Y106988D02*
X260699Y87337D01*
Y86939D02*
Y87337D01*
X242244Y87421D02*
X249803Y94980D01*
X242244Y75394D02*
Y87421D01*
X192743Y106988D02*
X241048D01*
X260699Y86939D02*
X272244Y75394D01*
X259294Y136952D02*
X259969D01*
X268602Y148721D02*
X281791Y161909D01*
X221063Y148721D02*
X268602D01*
X259969Y136952D02*
X269730Y146713D01*
X186614Y145347D02*
Y146883D01*
Y145347D02*
X189737Y142224D01*
X186346Y147151D02*
X186614Y146883D01*
X189688Y137352D02*
X189737Y137402D01*
X185433Y137303D02*
X185482Y137352D01*
X189688D01*
X134941Y124508D02*
X166240D01*
X170276Y120472D01*
X141887Y117463D02*
X183974D01*
X139665Y119685D02*
X141887Y117463D01*
X183974D02*
X237950D01*
X109055Y121457D02*
X121161D01*
X92952Y137560D02*
X109055Y121457D01*
X54921Y142913D02*
X62303Y150295D01*
X55754Y138287D02*
X64907Y147441D01*
X54626Y142913D02*
X54921D01*
X44291Y138287D02*
X55754D01*
X62303Y150295D02*
X126476D01*
X222042Y65950D02*
X230217Y57776D01*
Y57579D02*
Y57776D01*
X215956Y65950D02*
X222042D01*
X108689Y142941D02*
X108957Y143209D01*
X107705Y142941D02*
X108689D01*
X104921Y140157D02*
X107705Y142941D01*
X64907Y147441D02*
X94385D01*
X103969Y137857D01*
X113127D01*
X121063Y129921D01*
X218191Y73639D02*
X224491Y67340D01*
X62096Y137560D02*
X92952D01*
X275787Y148327D02*
X275902Y148442D01*
X134646Y121161D02*
X134808D01*
X136284Y119685D02*
X139665D01*
X134808Y121161D02*
X136284Y119685D01*
X150808Y155610D02*
X163669Y142749D01*
X168720Y98917D02*
X192244Y75394D01*
X162598Y98917D02*
X168720D01*
X184054Y107011D02*
X206297Y84768D01*
X189026Y107011D02*
X189048Y106988D01*
X184054Y107011D02*
X189026D01*
X184032Y107033D02*
X184054Y107011D01*
X293991Y80770D02*
X308459Y79612D01*
X286497Y83158D02*
X309298Y81404D01*
X282323Y84508D02*
X282591Y84240D01*
X279782Y87049D02*
X282323Y84508D01*
X276281Y75992D02*
X276287Y75980D01*
X272532Y79436D02*
X272532Y79436D01*
X239961Y112008D02*
X272532Y79436D01*
X284905Y78451D02*
X288206Y75578D01*
X291199Y80988D02*
X291430D01*
X287064Y79394D02*
X289726Y79234D01*
X286013Y81590D02*
X291199Y80988D01*
X288206Y75578D02*
X288580Y75578D01*
X281657Y82839D02*
X281930Y82640D01*
X281943Y81040D02*
X281967Y81040D01*
X281930Y81040D02*
X281943D01*
X288580Y75578D02*
X292060D01*
X280092Y83982D02*
X281657Y82839D01*
X309750Y81404D02*
X313361Y85014D01*
X285457Y80044D02*
X287064Y79394D01*
X309298Y81404D02*
X309750D01*
X280745Y79440D02*
X282009D01*
X289726Y79234D02*
X290796D01*
X291434Y79365D01*
X295096Y78273D02*
X295478Y77895D01*
X310221Y79612D02*
X312112Y81375D01*
X308459Y79612D02*
X310221D01*
X312112Y81375D02*
X312695Y81592D01*
X279429Y82382D02*
X280472Y81339D01*
X281408Y81040D01*
X277644Y79739D02*
X280745Y79440D01*
X276970Y80413D02*
X277644Y79739D01*
X281408Y81040D02*
X281930Y81040D01*
X278449Y84740D02*
X280092Y83982D01*
X279782Y87049D02*
Y97929D01*
X275000Y80413D02*
X276970D01*
X237950Y117463D02*
X275000Y80413D01*
X276872Y75394D02*
X277197Y75394D01*
X276287Y75980D02*
X276872Y75394D01*
X183858Y112008D02*
X239961D01*
X277197Y75394D02*
X282244D01*
X139173Y150295D02*
X162010Y127458D01*
X189081D01*
X346394Y137031D02*
X346555Y136870D01*
X342102Y137031D02*
X346394D01*
X281791Y161909D02*
X317224D01*
X342102Y137031D01*
X211122Y144587D02*
X252854D01*
X203543Y137008D02*
X211122Y144587D01*
X239665Y136614D02*
Y139370D01*
X232431Y129380D02*
X239665Y136614D01*
X193137Y137402D02*
X212244Y156509D01*
Y167913D01*
X193137Y132283D02*
X222244Y161391D01*
Y167913D01*
X189613Y132283D02*
X189675Y132221D01*
X189675D01*
X184941Y132283D02*
X189613D01*
X277264Y82382D02*
X279429D01*
X237697Y121949D02*
X277264Y82382D01*
X312695Y81592D02*
X314961Y83858D01*
X274561Y88627D02*
Y98130D01*
Y88627D02*
X278449Y84740D01*
X295478Y77895D02*
X298205Y75578D01*
X314961Y112800D02*
X315546Y113386D01*
X314961Y83858D02*
Y112800D01*
X315546Y113386D02*
X318012D01*
X313361Y85014D02*
Y121830D01*
X314169Y122638D01*
X318012Y113386D02*
X324902Y120276D01*
X314169Y122638D02*
X317264D01*
X298205Y75578D02*
X302060D01*
X292060D02*
X292244Y75394D01*
X192546Y121949D02*
X237697D01*
X302060Y75578D02*
X302244Y75394D01*
X274660Y103051D02*
X279782Y97929D01*
X265453Y103051D02*
X271260D01*
X265158Y102756D02*
X265453Y103051D01*
X265551Y98130D02*
X271161D01*
X265354Y98327D02*
X265551Y98130D01*
X317264Y122638D02*
X324902Y130276D01*
X192516Y129380D02*
X232431D01*
X189675Y132221D02*
X192516Y129380D01*
X192448Y121850D02*
X192546Y121949D01*
X184611Y122047D02*
X184808Y121850D01*
X189048D01*
X206297Y75609D02*
Y84768D01*
Y75609D02*
X215956Y65950D01*
X205413Y87956D02*
X218191Y75178D01*
X205413Y87956D02*
Y95866D01*
X218191Y73639D02*
Y75178D01*
X64729Y142815D02*
X65320Y142224D01*
X64567Y142815D02*
X64729D01*
X65320Y142224D02*
X70866D01*
X249311Y50492D02*
X275984D01*
X49803Y37598D02*
X60551D01*
X63768Y40815D01*
D89*
X232996Y53248D02*
X237272Y57524D01*
Y62658D01*
X236849Y63081D02*
X237272Y62658D01*
X91099Y123910D02*
X109990Y105020D01*
X112992D01*
X91099Y123910D02*
Y126913D01*
X90847Y127165D02*
X91099Y126913D01*
X128543Y53248D02*
X232996D01*
X112992Y68799D02*
X128543Y53248D01*
X126673Y72835D02*
Y140945D01*
X120923Y146695D02*
X126673Y140945D01*
X113976Y146695D02*
X120923D01*
X125000Y71161D02*
X126673Y72835D01*
X112992Y68799D02*
Y105020D01*
X90847Y127165D02*
Y132480D01*
D90*
X236857Y63089D02*
X291340D01*
X236849Y63081D02*
X236857Y63089D01*
X291340D02*
X291831Y62598D01*
D91*
X301824Y19610D02*
D03*
Y29610D02*
D03*
X311824Y19610D02*
D03*
Y29610D02*
D03*
X321824Y19610D02*
D03*
Y29610D02*
D03*
X331824Y19610D02*
D03*
X258007D02*
D03*
Y29610D02*
D03*
X268007Y19610D02*
D03*
Y29610D02*
D03*
X278007Y19610D02*
D03*
Y29610D02*
D03*
X288007Y19610D02*
D03*
X174191D02*
D03*
Y29610D02*
D03*
X184191Y19610D02*
D03*
Y29610D02*
D03*
X194191Y19610D02*
D03*
Y29610D02*
D03*
X204191Y19610D02*
D03*
X129610D02*
D03*
Y29610D02*
D03*
X139610Y19610D02*
D03*
Y29610D02*
D03*
X149610Y19610D02*
D03*
Y29610D02*
D03*
X159610Y19610D02*
D03*
X324902Y130276D02*
D03*
Y120276D02*
D03*
Y110276D02*
D03*
X346555Y136870D02*
D03*
Y126870D02*
D03*
Y116870D02*
D03*
Y106870D02*
D03*
X312244Y167913D02*
D03*
X302244D02*
D03*
X292244D02*
D03*
X282244D02*
D03*
X272244D02*
D03*
X262244D02*
D03*
X252244D02*
D03*
X242244D02*
D03*
X232244D02*
D03*
X222244D02*
D03*
X212244D02*
D03*
X202244D02*
D03*
X192244D02*
D03*
X182244D02*
D03*
X172244D02*
D03*
X312244Y75394D02*
D03*
X302244D02*
D03*
X292244D02*
D03*
X282244D02*
D03*
X272244D02*
D03*
X262244D02*
D03*
X252244D02*
D03*
X242244D02*
D03*
X232244D02*
D03*
X222244D02*
D03*
X212244D02*
D03*
X202244D02*
D03*
X192244D02*
D03*
X182244D02*
D03*
X172244D02*
D03*
X301824Y9610D02*
D03*
X311824D02*
D03*
X321824D02*
D03*
X258007D02*
D03*
X268007D02*
D03*
X278007D02*
D03*
X174191D02*
D03*
X184191D02*
D03*
X194191D02*
D03*
X149610D02*
D03*
X139610D02*
D03*
X129610D02*
D03*
D92*
X331824Y29610D02*
D03*
X288007D02*
D03*
X204191D02*
D03*
X159610D02*
D03*
X322244Y167913D02*
D03*
Y75394D02*
D03*
X331824Y9610D02*
D03*
X288007D02*
D03*
X204191D02*
D03*
X159610D02*
D03*
D93*
X324902Y100276D02*
D03*
X346555Y96870D02*
D03*
D94*
X24768Y104500D02*
D03*
D95*
Y84815D02*
D03*
D96*
X349803Y14862D02*
D03*
X16535Y161319D02*
D03*
X349606Y161221D02*
D03*
X16535Y14665D02*
D03*
D97*
X343406Y20866D02*
D03*
X356004D02*
D03*
X349803Y23720D02*
D03*
X356126Y8153D02*
D03*
X343528Y8547D02*
D03*
X349925Y5988D02*
D03*
X358784Y14846D02*
D03*
X340945Y14961D02*
D03*
X121268Y13815D02*
D03*
X117768Y20815D02*
D03*
X114268Y13815D02*
D03*
X107268Y97815D02*
D03*
Y69815D02*
D03*
X110768Y20815D02*
D03*
X107268Y13815D02*
D03*
X100268Y97815D02*
D03*
Y69815D02*
D03*
X103768Y20815D02*
D03*
X100268Y13815D02*
D03*
X93268Y97815D02*
D03*
Y83815D02*
D03*
X96768Y76815D02*
D03*
X93268Y69815D02*
D03*
Y55815D02*
D03*
Y27815D02*
D03*
X96768Y20815D02*
D03*
X93268Y13815D02*
D03*
X86268Y97815D02*
D03*
X89768Y90815D02*
D03*
X86268Y83815D02*
D03*
X89768Y76815D02*
D03*
X86268Y69815D02*
D03*
Y55815D02*
D03*
X89768Y34815D02*
D03*
X86268Y27815D02*
D03*
X89768Y20815D02*
D03*
X86268Y13815D02*
D03*
X82768Y90815D02*
D03*
Y76815D02*
D03*
X79268Y55815D02*
D03*
X82768Y48815D02*
D03*
X79268Y41815D02*
D03*
X82768Y34815D02*
D03*
X79268Y27815D02*
D03*
X82768Y20815D02*
D03*
X79268Y13815D02*
D03*
X72268Y55815D02*
D03*
X75768Y34815D02*
D03*
X72268Y27815D02*
D03*
X75768Y20815D02*
D03*
X72268Y13815D02*
D03*
X68768Y34815D02*
D03*
X65268Y27815D02*
D03*
X68768Y20815D02*
D03*
X65268Y13815D02*
D03*
X61768Y34815D02*
D03*
X58268Y27815D02*
D03*
X61768Y20815D02*
D03*
X58268Y13815D02*
D03*
X51268Y27815D02*
D03*
X54768Y20815D02*
D03*
X51268Y13815D02*
D03*
X44268Y83815D02*
D03*
Y55815D02*
D03*
Y27815D02*
D03*
X47768Y20815D02*
D03*
X44268Y13815D02*
D03*
X40768Y90815D02*
D03*
X37268Y83815D02*
D03*
X40768Y76815D02*
D03*
X37268Y69815D02*
D03*
Y55815D02*
D03*
Y27815D02*
D03*
X40768Y20815D02*
D03*
X37268Y13815D02*
D03*
X33768Y90815D02*
D03*
Y76815D02*
D03*
X30268Y27815D02*
D03*
X33768Y20815D02*
D03*
X23268Y69815D02*
D03*
X26768Y48815D02*
D03*
X23268Y41815D02*
D03*
X26768Y34815D02*
D03*
X16268Y69815D02*
D03*
X19768Y62815D02*
D03*
X16268Y55815D02*
D03*
X19768Y48815D02*
D03*
X16268Y41815D02*
D03*
X19768Y34815D02*
D03*
X12768Y90815D02*
D03*
X9268Y83815D02*
D03*
X12768Y76815D02*
D03*
X9268Y69815D02*
D03*
X12768Y62815D02*
D03*
X9268Y55815D02*
D03*
X12768Y48815D02*
D03*
X9268Y41815D02*
D03*
X12768Y34815D02*
D03*
X10335Y154823D02*
D03*
X22343Y154626D02*
D03*
X358563Y161122D02*
D03*
X340354Y161024D02*
D03*
X349508Y170079D02*
D03*
X356299Y155413D02*
D03*
X342913D02*
D03*
X349508Y152362D02*
D03*
X356299Y167421D02*
D03*
X343110D02*
D03*
X7579Y14764D02*
D03*
X9843Y20472D02*
D03*
Y8465D02*
D03*
X23228Y20472D02*
D03*
X25787Y14862D02*
D03*
X23031Y8465D02*
D03*
X16634Y5807D02*
D03*
X16634Y23524D02*
D03*
X16634Y170276D02*
D03*
X25394Y161221D02*
D03*
X22343Y168012D02*
D03*
X16732Y152067D02*
D03*
X10335Y168012D02*
D03*
X7677Y161221D02*
D03*
D98*
X232677Y60925D02*
D03*
X236849Y63081D02*
D03*
X26181Y64272D02*
D03*
X284842Y41142D02*
D03*
X91099Y123910D02*
D03*
X205906Y161516D02*
D03*
X200689Y148721D02*
D03*
X28740Y142028D02*
D03*
X249803Y94980D02*
D03*
X269730Y146713D02*
D03*
X221063Y148721D02*
D03*
X186346Y147151D02*
D03*
X185433Y137303D02*
D03*
X170276Y120472D02*
D03*
X121161Y121457D02*
D03*
X54626Y142913D02*
D03*
X279626Y148819D02*
D03*
X258319Y132724D02*
D03*
X252854Y60039D02*
D03*
X230217Y57579D02*
D03*
X108957Y143209D02*
D03*
X104921Y140157D02*
D03*
X325590Y141929D02*
D03*
X243996Y132579D02*
D03*
X250827Y132992D02*
D03*
X93996Y158760D02*
D03*
X78740Y130512D02*
D03*
X93012Y143602D02*
D03*
X78051Y144587D02*
D03*
X275787Y148327D02*
D03*
X126575Y118996D02*
D03*
X126673Y140945D02*
D03*
X134941Y124508D02*
D03*
X134646Y121161D02*
D03*
X163669Y142749D02*
D03*
X162598Y98917D02*
D03*
X121063Y129921D02*
D03*
X126476Y150295D02*
D03*
X139173D02*
D03*
X44291Y138287D02*
D03*
X239665Y139370D02*
D03*
X184941Y132283D02*
D03*
X265158Y102756D02*
D03*
X265354Y98327D02*
D03*
X252854Y144587D02*
D03*
X203543Y137008D02*
D03*
X189081Y127458D02*
D03*
X184449Y122047D02*
D03*
X205413Y95866D02*
D03*
X183974Y117463D02*
D03*
X184032Y107033D02*
D03*
X183858Y112008D02*
D03*
X64567Y142815D02*
D03*
X70866Y142224D02*
D03*
X291831Y62598D02*
D03*
X249311Y50492D02*
D03*
X122768Y46815D02*
D03*
X107283Y126870D02*
D03*
X62096Y137560D02*
D03*
X49803Y37598D02*
D03*
X63768Y40815D02*
D03*
D99*
X113976Y146695D02*
D03*
X112992Y105020D02*
D03*
X125000Y71161D02*
D03*
X90847Y132480D02*
D03*
D100*
X281930Y81040D02*
D03*
D101*
X274561Y98130D02*
D03*
X271161D02*
D03*
X274660Y103051D02*
D03*
X271260D02*
D03*
X189048Y106988D02*
D03*
X192448D02*
D03*
X189048Y121850D02*
D03*
X192448D02*
D03*
X189737Y132283D02*
D03*
X193137D02*
D03*
X189737Y137402D02*
D03*
X193137D02*
D03*
Y142224D02*
D03*
X189737D02*
D03*
M02*
