G04*
G04 #@! TF.GenerationSoftware,Altium Limited,Altium Designer,21.5.1 (32)*
G04*
G04 Layer_Color=32768*
%FSLAX25Y25*%
%MOIN*%
G70*
G04*
G04 #@! TF.SameCoordinates,57825C85-18FE-47E2-A138-B6FF28981A54*
G04*
G04*
G04 #@! TF.FilePolarity,Positive*
G04*
G01*
G75*
%ADD11C,0.00787*%
G36*
X41796Y35969D02*
X41829Y35965D01*
X41869Y35961D01*
X41909Y35958D01*
X41956Y35947D01*
X42055Y35925D01*
X42164Y35892D01*
X42219Y35870D01*
X42270Y35845D01*
X42320Y35812D01*
X42371Y35779D01*
X42375Y35776D01*
X42382Y35772D01*
X42397Y35761D01*
X42415Y35743D01*
X42433Y35725D01*
X42459Y35699D01*
X42484Y35670D01*
X42513Y35641D01*
X42542Y35605D01*
X42572Y35561D01*
X42604Y35517D01*
X42634Y35470D01*
X42659Y35415D01*
X42688Y35361D01*
X42710Y35303D01*
X42732Y35237D01*
X42404Y35161D01*
Y35164D01*
X42401Y35171D01*
X42393Y35186D01*
X42386Y35204D01*
X42379Y35226D01*
X42368Y35255D01*
X42339Y35313D01*
X42302Y35379D01*
X42259Y35445D01*
X42204Y35506D01*
X42146Y35561D01*
X42138Y35568D01*
X42117Y35583D01*
X42080Y35601D01*
X42033Y35627D01*
X41971Y35648D01*
X41902Y35670D01*
X41818Y35685D01*
X41727Y35688D01*
X41698D01*
X41680Y35685D01*
X41654D01*
X41625Y35681D01*
X41556Y35670D01*
X41480Y35656D01*
X41399Y35630D01*
X41316Y35594D01*
X41239Y35546D01*
X41236D01*
X41232Y35539D01*
X41207Y35521D01*
X41174Y35492D01*
X41134Y35448D01*
X41087Y35394D01*
X41043Y35332D01*
X41003Y35255D01*
X40966Y35171D01*
Y35168D01*
X40963Y35161D01*
X40959Y35150D01*
X40955Y35131D01*
X40948Y35110D01*
X40941Y35084D01*
X40930Y35022D01*
X40915Y34949D01*
X40901Y34869D01*
X40894Y34782D01*
X40890Y34687D01*
Y34684D01*
Y34673D01*
Y34655D01*
Y34633D01*
X40894Y34607D01*
Y34575D01*
X40897Y34538D01*
X40901Y34498D01*
X40912Y34411D01*
X40930Y34316D01*
X40952Y34222D01*
X40981Y34127D01*
Y34123D01*
X40985Y34116D01*
X40992Y34105D01*
X40999Y34087D01*
X41021Y34043D01*
X41054Y33992D01*
X41094Y33934D01*
X41145Y33872D01*
X41203Y33817D01*
X41272Y33766D01*
X41276D01*
X41283Y33763D01*
X41294Y33756D01*
X41309Y33748D01*
X41327Y33741D01*
X41349Y33730D01*
X41399Y33708D01*
X41465Y33686D01*
X41538Y33668D01*
X41618Y33654D01*
X41702Y33650D01*
X41727D01*
X41749Y33654D01*
X41774D01*
X41800Y33657D01*
X41865Y33672D01*
X41942Y33690D01*
X42018Y33719D01*
X42098Y33759D01*
X42138Y33781D01*
X42175Y33810D01*
X42178Y33814D01*
X42182Y33817D01*
X42193Y33828D01*
X42208Y33839D01*
X42222Y33858D01*
X42240Y33879D01*
X42262Y33901D01*
X42280Y33930D01*
X42302Y33963D01*
X42328Y33999D01*
X42350Y34036D01*
X42371Y34080D01*
X42390Y34127D01*
X42408Y34178D01*
X42426Y34232D01*
X42441Y34291D01*
X42775Y34207D01*
Y34203D01*
X42772Y34189D01*
X42764Y34167D01*
X42754Y34138D01*
X42743Y34105D01*
X42728Y34065D01*
X42710Y34021D01*
X42688Y33974D01*
X42637Y33872D01*
X42572Y33770D01*
X42532Y33719D01*
X42491Y33668D01*
X42448Y33625D01*
X42397Y33581D01*
X42393Y33577D01*
X42386Y33570D01*
X42368Y33563D01*
X42350Y33548D01*
X42320Y33530D01*
X42291Y33512D01*
X42251Y33494D01*
X42211Y33475D01*
X42164Y33453D01*
X42113Y33435D01*
X42058Y33417D01*
X42000Y33399D01*
X41938Y33384D01*
X41873Y33377D01*
X41804Y33370D01*
X41731Y33366D01*
X41691D01*
X41662Y33370D01*
X41629D01*
X41589Y33373D01*
X41545Y33381D01*
X41494Y33388D01*
X41389Y33406D01*
X41279Y33435D01*
X41170Y33475D01*
X41119Y33501D01*
X41068Y33530D01*
X41065Y33533D01*
X41057Y33537D01*
X41043Y33548D01*
X41028Y33563D01*
X41006Y33577D01*
X40981Y33599D01*
X40952Y33625D01*
X40923Y33654D01*
X40894Y33686D01*
X40861Y33719D01*
X40795Y33803D01*
X40733Y33901D01*
X40679Y34010D01*
Y34014D01*
X40672Y34025D01*
X40668Y34043D01*
X40657Y34065D01*
X40650Y34094D01*
X40639Y34130D01*
X40624Y34170D01*
X40613Y34214D01*
X40602Y34262D01*
X40588Y34316D01*
X40570Y34429D01*
X40555Y34556D01*
X40548Y34687D01*
Y34691D01*
Y34706D01*
Y34727D01*
X40551Y34753D01*
Y34789D01*
X40555Y34826D01*
X40559Y34873D01*
X40566Y34920D01*
X40584Y35026D01*
X40610Y35142D01*
X40646Y35259D01*
X40697Y35372D01*
X40701Y35375D01*
X40704Y35386D01*
X40712Y35401D01*
X40726Y35419D01*
X40741Y35445D01*
X40759Y35474D01*
X40806Y35539D01*
X40868Y35612D01*
X40941Y35685D01*
X41025Y35758D01*
X41123Y35820D01*
X41126Y35823D01*
X41137Y35827D01*
X41152Y35834D01*
X41170Y35845D01*
X41199Y35856D01*
X41228Y35867D01*
X41265Y35881D01*
X41305Y35896D01*
X41349Y35910D01*
X41396Y35925D01*
X41498Y35947D01*
X41614Y35965D01*
X41734Y35972D01*
X41771D01*
X41796Y35969D01*
D02*
G37*
G36*
X44224Y33410D02*
X43915D01*
Y35379D01*
X43911Y35375D01*
X43893Y35361D01*
X43871Y35339D01*
X43835Y35313D01*
X43795Y35281D01*
X43744Y35244D01*
X43685Y35204D01*
X43620Y35164D01*
X43616D01*
X43613Y35161D01*
X43591Y35146D01*
X43554Y35128D01*
X43511Y35106D01*
X43460Y35081D01*
X43405Y35055D01*
X43351Y35030D01*
X43296Y35008D01*
Y35306D01*
X43300D01*
X43307Y35313D01*
X43321Y35317D01*
X43340Y35328D01*
X43361Y35339D01*
X43387Y35353D01*
X43449Y35390D01*
X43522Y35430D01*
X43595Y35481D01*
X43671Y35539D01*
X43747Y35601D01*
X43751Y35605D01*
X43755Y35608D01*
X43766Y35619D01*
X43780Y35630D01*
X43813Y35667D01*
X43856Y35710D01*
X43900Y35761D01*
X43947Y35820D01*
X43988Y35878D01*
X44024Y35940D01*
X44224D01*
Y33410D01*
D02*
G37*
G36*
X133985Y100975D02*
X133993Y100968D01*
X134007Y100954D01*
X134029Y100939D01*
X134055Y100917D01*
X134084Y100888D01*
X134120Y100859D01*
X134164Y100826D01*
X134207Y100793D01*
X134258Y100753D01*
X134317Y100713D01*
X134375Y100673D01*
X134441Y100630D01*
X134510Y100586D01*
X134586Y100542D01*
X134662Y100499D01*
X134666Y100495D01*
X134681Y100488D01*
X134703Y100477D01*
X134735Y100459D01*
X134775Y100440D01*
X134819Y100418D01*
X134870Y100393D01*
X134928Y100368D01*
X134994Y100338D01*
X135059Y100306D01*
X135132Y100277D01*
X135208Y100247D01*
X135365Y100189D01*
X135532Y100135D01*
X135536D01*
X135547Y100131D01*
X135565Y100127D01*
X135587Y100120D01*
X135616Y100113D01*
X135653Y100106D01*
X135693Y100095D01*
X135736Y100087D01*
X135787Y100076D01*
X135842Y100065D01*
X135958Y100047D01*
X136086Y100029D01*
X136224Y100018D01*
Y99701D01*
X136220D01*
X136209D01*
X136195D01*
X136173Y99705D01*
X136144D01*
X136108Y99709D01*
X136068Y99712D01*
X136024Y99716D01*
X135973Y99723D01*
X135922Y99731D01*
X135860Y99742D01*
X135798Y99752D01*
X135733Y99763D01*
X135660Y99778D01*
X135511Y99814D01*
X135507D01*
X135492Y99818D01*
X135471Y99825D01*
X135438Y99836D01*
X135401Y99847D01*
X135358Y99862D01*
X135307Y99876D01*
X135252Y99898D01*
X135190Y99920D01*
X135128Y99942D01*
X134990Y99996D01*
X134845Y100062D01*
X134699Y100135D01*
X134695Y100138D01*
X134681Y100145D01*
X134662Y100156D01*
X134633Y100171D01*
X134601Y100189D01*
X134561Y100215D01*
X134517Y100240D01*
X134470Y100269D01*
X134364Y100338D01*
X134255Y100411D01*
X134142Y100495D01*
X134036Y100582D01*
Y99348D01*
X133738D01*
Y100979D01*
X133982D01*
X133985Y100975D01*
D02*
G37*
G36*
X135445Y99039D02*
X135467Y99032D01*
X135496Y99021D01*
X135529Y99010D01*
X135569Y98995D01*
X135613Y98977D01*
X135660Y98955D01*
X135762Y98904D01*
X135864Y98839D01*
X135915Y98799D01*
X135966Y98759D01*
X136009Y98715D01*
X136053Y98664D01*
X136057Y98660D01*
X136064Y98653D01*
X136071Y98635D01*
X136086Y98617D01*
X136104Y98588D01*
X136122Y98558D01*
X136140Y98518D01*
X136159Y98478D01*
X136180Y98431D01*
X136199Y98380D01*
X136217Y98326D01*
X136235Y98267D01*
X136249Y98205D01*
X136257Y98140D01*
X136264Y98071D01*
X136268Y97998D01*
Y97958D01*
X136264Y97929D01*
Y97896D01*
X136260Y97856D01*
X136253Y97812D01*
X136246Y97761D01*
X136228Y97656D01*
X136199Y97547D01*
X136159Y97437D01*
X136133Y97386D01*
X136104Y97335D01*
X136100Y97332D01*
X136097Y97325D01*
X136086Y97310D01*
X136071Y97295D01*
X136057Y97274D01*
X136035Y97248D01*
X136009Y97219D01*
X135980Y97190D01*
X135947Y97161D01*
X135915Y97128D01*
X135831Y97062D01*
X135733Y97000D01*
X135624Y96946D01*
X135620D01*
X135609Y96939D01*
X135591Y96935D01*
X135569Y96924D01*
X135540Y96917D01*
X135503Y96906D01*
X135463Y96891D01*
X135420Y96880D01*
X135372Y96869D01*
X135318Y96855D01*
X135205Y96837D01*
X135078Y96822D01*
X134946Y96815D01*
X134943D01*
X134928D01*
X134906D01*
X134881Y96819D01*
X134845D01*
X134808Y96822D01*
X134761Y96826D01*
X134713Y96833D01*
X134608Y96851D01*
X134491Y96877D01*
X134375Y96913D01*
X134262Y96964D01*
X134258Y96968D01*
X134248Y96971D01*
X134233Y96979D01*
X134215Y96993D01*
X134189Y97008D01*
X134160Y97026D01*
X134095Y97073D01*
X134022Y97135D01*
X133949Y97208D01*
X133876Y97292D01*
X133814Y97390D01*
X133811Y97394D01*
X133807Y97405D01*
X133800Y97419D01*
X133789Y97437D01*
X133778Y97466D01*
X133767Y97496D01*
X133753Y97532D01*
X133738Y97572D01*
X133723Y97616D01*
X133709Y97663D01*
X133687Y97765D01*
X133669Y97881D01*
X133661Y98001D01*
Y98038D01*
X133665Y98063D01*
X133669Y98096D01*
X133672Y98136D01*
X133676Y98176D01*
X133687Y98224D01*
X133709Y98322D01*
X133742Y98431D01*
X133763Y98486D01*
X133789Y98537D01*
X133822Y98588D01*
X133854Y98638D01*
X133858Y98642D01*
X133862Y98650D01*
X133873Y98664D01*
X133891Y98682D01*
X133909Y98700D01*
X133934Y98726D01*
X133964Y98751D01*
X133993Y98781D01*
X134029Y98810D01*
X134073Y98839D01*
X134116Y98871D01*
X134164Y98901D01*
X134218Y98926D01*
X134273Y98955D01*
X134331Y98977D01*
X134397Y98999D01*
X134473Y98671D01*
X134470D01*
X134462Y98668D01*
X134448Y98660D01*
X134430Y98653D01*
X134408Y98646D01*
X134379Y98635D01*
X134320Y98606D01*
X134255Y98569D01*
X134189Y98526D01*
X134127Y98471D01*
X134073Y98413D01*
X134066Y98406D01*
X134051Y98384D01*
X134033Y98347D01*
X134007Y98300D01*
X133985Y98238D01*
X133964Y98169D01*
X133949Y98085D01*
X133945Y97994D01*
Y97965D01*
X133949Y97947D01*
Y97922D01*
X133953Y97892D01*
X133964Y97823D01*
X133978Y97747D01*
X134004Y97667D01*
X134040Y97583D01*
X134087Y97506D01*
Y97503D01*
X134095Y97499D01*
X134113Y97474D01*
X134142Y97441D01*
X134186Y97401D01*
X134240Y97354D01*
X134302Y97310D01*
X134379Y97270D01*
X134462Y97233D01*
X134466D01*
X134473Y97230D01*
X134484Y97226D01*
X134502Y97223D01*
X134524Y97215D01*
X134550Y97208D01*
X134612Y97197D01*
X134684Y97183D01*
X134764Y97168D01*
X134852Y97161D01*
X134946Y97157D01*
X134950D01*
X134961D01*
X134979D01*
X135001D01*
X135027Y97161D01*
X135059D01*
X135096Y97164D01*
X135136Y97168D01*
X135223Y97179D01*
X135318Y97197D01*
X135412Y97219D01*
X135507Y97248D01*
X135511D01*
X135518Y97252D01*
X135529Y97259D01*
X135547Y97266D01*
X135591Y97288D01*
X135642Y97321D01*
X135700Y97361D01*
X135762Y97412D01*
X135816Y97470D01*
X135867Y97539D01*
Y97543D01*
X135871Y97550D01*
X135878Y97561D01*
X135886Y97576D01*
X135893Y97594D01*
X135904Y97616D01*
X135926Y97667D01*
X135947Y97732D01*
X135966Y97805D01*
X135980Y97885D01*
X135984Y97969D01*
Y97994D01*
X135980Y98016D01*
Y98042D01*
X135977Y98067D01*
X135962Y98133D01*
X135944Y98209D01*
X135915Y98286D01*
X135875Y98365D01*
X135853Y98406D01*
X135824Y98442D01*
X135820Y98446D01*
X135816Y98449D01*
X135805Y98460D01*
X135795Y98475D01*
X135776Y98489D01*
X135755Y98507D01*
X135733Y98529D01*
X135704Y98548D01*
X135671Y98569D01*
X135634Y98595D01*
X135598Y98617D01*
X135554Y98638D01*
X135507Y98657D01*
X135456Y98675D01*
X135401Y98693D01*
X135343Y98708D01*
X135427Y99043D01*
X135431D01*
X135445Y99039D01*
D02*
G37*
G36*
X144034Y84979D02*
X144081D01*
X144136Y84975D01*
X144190Y84968D01*
X144314Y84957D01*
X144445Y84939D01*
X144569Y84913D01*
X144631Y84895D01*
X144685Y84877D01*
X144689D01*
X144696Y84873D01*
X144711Y84866D01*
X144733Y84859D01*
X144755Y84848D01*
X144784Y84834D01*
X144845Y84797D01*
X144915Y84753D01*
X144987Y84702D01*
X145057Y84637D01*
X145118Y84564D01*
Y84561D01*
X145126Y84553D01*
X145133Y84542D01*
X145140Y84528D01*
X145151Y84506D01*
X145166Y84484D01*
X145180Y84455D01*
X145191Y84426D01*
X145220Y84357D01*
X145246Y84273D01*
X145261Y84182D01*
X145268Y84080D01*
Y84051D01*
X145264Y84033D01*
Y84007D01*
X145261Y83978D01*
X145246Y83909D01*
X145228Y83833D01*
X145199Y83752D01*
X145159Y83672D01*
X145133Y83632D01*
X145104Y83596D01*
X145100Y83592D01*
X145097Y83589D01*
X145086Y83578D01*
X145075Y83567D01*
X145057Y83552D01*
X145035Y83534D01*
X144984Y83498D01*
X144918Y83461D01*
X144838Y83425D01*
X144747Y83396D01*
X144642Y83374D01*
X144616Y83672D01*
X144620D01*
X144627Y83676D01*
X144634D01*
X144649Y83680D01*
X144689Y83691D01*
X144733Y83705D01*
X144784Y83723D01*
X144835Y83749D01*
X144882Y83778D01*
X144922Y83814D01*
X144926Y83818D01*
X144937Y83833D01*
X144951Y83858D01*
X144966Y83887D01*
X144984Y83927D01*
X144998Y83974D01*
X145009Y84029D01*
X145013Y84087D01*
Y84113D01*
X145009Y84138D01*
X145006Y84171D01*
X144998Y84211D01*
X144987Y84251D01*
X144973Y84295D01*
X144951Y84335D01*
X144947Y84338D01*
X144940Y84353D01*
X144926Y84375D01*
X144904Y84397D01*
X144878Y84426D01*
X144849Y84455D01*
X144816Y84484D01*
X144776Y84513D01*
X144773Y84517D01*
X144755Y84524D01*
X144729Y84539D01*
X144696Y84553D01*
X144653Y84571D01*
X144602Y84590D01*
X144543Y84608D01*
X144478Y84626D01*
X144474D01*
X144471Y84630D01*
X144460D01*
X144445Y84633D01*
X144409Y84641D01*
X144361Y84651D01*
X144303Y84659D01*
X144241Y84666D01*
X144172Y84670D01*
X144099Y84673D01*
X144096D01*
X144085D01*
X144067D01*
X144037D01*
X144045Y84670D01*
X144063Y84655D01*
X144088Y84633D01*
X144125Y84608D01*
X144161Y84571D01*
X144201Y84528D01*
X144241Y84477D01*
X144278Y84418D01*
X144281Y84411D01*
X144292Y84389D01*
X144307Y84357D01*
X144321Y84317D01*
X144340Y84262D01*
X144354Y84204D01*
X144365Y84138D01*
X144369Y84069D01*
Y84040D01*
X144365Y84018D01*
X144361Y83989D01*
X144358Y83960D01*
X144351Y83924D01*
X144340Y83887D01*
X144314Y83803D01*
X144296Y83760D01*
X144274Y83716D01*
X144249Y83669D01*
X144216Y83625D01*
X144183Y83581D01*
X144143Y83541D01*
X144139Y83538D01*
X144132Y83530D01*
X144121Y83523D01*
X144103Y83508D01*
X144078Y83490D01*
X144052Y83472D01*
X144019Y83454D01*
X143983Y83436D01*
X143943Y83414D01*
X143899Y83396D01*
X143848Y83377D01*
X143797Y83359D01*
X143739Y83345D01*
X143677Y83337D01*
X143615Y83330D01*
X143546Y83327D01*
X143542D01*
X143528D01*
X143510D01*
X143484Y83330D01*
X143451Y83334D01*
X143411Y83337D01*
X143371Y83345D01*
X143324Y83356D01*
X143229Y83381D01*
X143178Y83399D01*
X143124Y83421D01*
X143073Y83447D01*
X143026Y83479D01*
X142974Y83512D01*
X142931Y83552D01*
X142927Y83556D01*
X142920Y83563D01*
X142909Y83574D01*
X142894Y83592D01*
X142876Y83614D01*
X142854Y83643D01*
X142836Y83672D01*
X142811Y83709D01*
X142789Y83745D01*
X142771Y83789D01*
X142731Y83887D01*
X142716Y83938D01*
X142705Y83996D01*
X142698Y84054D01*
X142694Y84116D01*
Y84142D01*
X142698Y84160D01*
Y84178D01*
X142701Y84204D01*
X142712Y84266D01*
X142727Y84335D01*
X142753Y84411D01*
X142785Y84488D01*
X142829Y84564D01*
Y84568D01*
X142836Y84571D01*
X142843Y84582D01*
X142854Y84597D01*
X142884Y84633D01*
X142924Y84681D01*
X142978Y84728D01*
X143044Y84782D01*
X143120Y84830D01*
X143208Y84873D01*
X143211D01*
X143218Y84877D01*
X143233Y84884D01*
X143251Y84892D01*
X143277Y84899D01*
X143309Y84910D01*
X143346Y84917D01*
X143386Y84928D01*
X143433Y84939D01*
X143488Y84950D01*
X143546Y84957D01*
X143608Y84965D01*
X143677Y84972D01*
X143750Y84979D01*
X143830Y84983D01*
X143914D01*
X143917D01*
X143936D01*
X143961D01*
X143994D01*
X144034Y84979D01*
D02*
G37*
G36*
X144445Y83039D02*
X144467Y83032D01*
X144496Y83021D01*
X144529Y83010D01*
X144569Y82995D01*
X144613Y82977D01*
X144660Y82955D01*
X144762Y82904D01*
X144864Y82839D01*
X144915Y82799D01*
X144966Y82759D01*
X145009Y82715D01*
X145053Y82664D01*
X145057Y82660D01*
X145064Y82653D01*
X145071Y82635D01*
X145086Y82617D01*
X145104Y82588D01*
X145122Y82559D01*
X145140Y82518D01*
X145159Y82478D01*
X145180Y82431D01*
X145199Y82380D01*
X145217Y82326D01*
X145235Y82267D01*
X145249Y82205D01*
X145257Y82140D01*
X145264Y82071D01*
X145268Y81998D01*
Y81958D01*
X145264Y81929D01*
Y81896D01*
X145261Y81856D01*
X145253Y81812D01*
X145246Y81761D01*
X145228Y81656D01*
X145199Y81547D01*
X145159Y81437D01*
X145133Y81386D01*
X145104Y81335D01*
X145100Y81332D01*
X145097Y81324D01*
X145086Y81310D01*
X145071Y81295D01*
X145057Y81274D01*
X145035Y81248D01*
X145009Y81219D01*
X144980Y81190D01*
X144947Y81161D01*
X144915Y81128D01*
X144831Y81062D01*
X144733Y81001D01*
X144623Y80946D01*
X144620D01*
X144609Y80939D01*
X144591Y80935D01*
X144569Y80924D01*
X144540Y80917D01*
X144503Y80906D01*
X144463Y80891D01*
X144420Y80880D01*
X144372Y80870D01*
X144318Y80855D01*
X144205Y80837D01*
X144078Y80822D01*
X143946Y80815D01*
X143943D01*
X143928D01*
X143906D01*
X143881Y80819D01*
X143844D01*
X143808Y80822D01*
X143761Y80826D01*
X143713Y80833D01*
X143608Y80851D01*
X143491Y80877D01*
X143375Y80913D01*
X143262Y80964D01*
X143259Y80968D01*
X143248Y80971D01*
X143233Y80979D01*
X143215Y80993D01*
X143189Y81008D01*
X143160Y81026D01*
X143095Y81073D01*
X143022Y81135D01*
X142949Y81208D01*
X142876Y81292D01*
X142814Y81390D01*
X142811Y81394D01*
X142807Y81405D01*
X142800Y81419D01*
X142789Y81437D01*
X142778Y81467D01*
X142767Y81496D01*
X142753Y81532D01*
X142738Y81572D01*
X142723Y81616D01*
X142709Y81663D01*
X142687Y81765D01*
X142669Y81881D01*
X142661Y82002D01*
Y82038D01*
X142665Y82063D01*
X142669Y82096D01*
X142672Y82136D01*
X142676Y82176D01*
X142687Y82224D01*
X142709Y82322D01*
X142742Y82431D01*
X142763Y82486D01*
X142789Y82537D01*
X142822Y82588D01*
X142854Y82639D01*
X142858Y82642D01*
X142862Y82649D01*
X142873Y82664D01*
X142891Y82682D01*
X142909Y82700D01*
X142935Y82726D01*
X142964Y82751D01*
X142993Y82780D01*
X143029Y82810D01*
X143073Y82839D01*
X143116Y82872D01*
X143164Y82901D01*
X143218Y82926D01*
X143273Y82955D01*
X143331Y82977D01*
X143397Y82999D01*
X143473Y82671D01*
X143470D01*
X143462Y82668D01*
X143448Y82660D01*
X143430Y82653D01*
X143408Y82646D01*
X143379Y82635D01*
X143320Y82606D01*
X143255Y82569D01*
X143189Y82526D01*
X143127Y82471D01*
X143073Y82413D01*
X143066Y82406D01*
X143051Y82384D01*
X143033Y82347D01*
X143007Y82300D01*
X142985Y82238D01*
X142964Y82169D01*
X142949Y82085D01*
X142945Y81994D01*
Y81965D01*
X142949Y81947D01*
Y81921D01*
X142953Y81892D01*
X142964Y81823D01*
X142978Y81747D01*
X143004Y81667D01*
X143040Y81583D01*
X143087Y81507D01*
Y81503D01*
X143095Y81499D01*
X143113Y81474D01*
X143142Y81441D01*
X143186Y81401D01*
X143240Y81354D01*
X143302Y81310D01*
X143379Y81270D01*
X143462Y81234D01*
X143466D01*
X143473Y81230D01*
X143484Y81226D01*
X143502Y81223D01*
X143524Y81215D01*
X143550Y81208D01*
X143612Y81197D01*
X143684Y81183D01*
X143764Y81168D01*
X143852Y81161D01*
X143946Y81157D01*
X143950D01*
X143961D01*
X143979D01*
X144001D01*
X144027Y81161D01*
X144059D01*
X144096Y81164D01*
X144136Y81168D01*
X144223Y81179D01*
X144318Y81197D01*
X144412Y81219D01*
X144507Y81248D01*
X144511D01*
X144518Y81252D01*
X144529Y81259D01*
X144547Y81266D01*
X144591Y81288D01*
X144642Y81321D01*
X144700Y81361D01*
X144762Y81412D01*
X144816Y81470D01*
X144867Y81539D01*
Y81543D01*
X144871Y81550D01*
X144878Y81561D01*
X144886Y81576D01*
X144893Y81594D01*
X144904Y81616D01*
X144926Y81667D01*
X144947Y81732D01*
X144966Y81805D01*
X144980Y81885D01*
X144984Y81969D01*
Y81994D01*
X144980Y82016D01*
Y82042D01*
X144976Y82067D01*
X144962Y82133D01*
X144944Y82209D01*
X144915Y82285D01*
X144875Y82366D01*
X144853Y82406D01*
X144824Y82442D01*
X144820Y82446D01*
X144816Y82449D01*
X144806Y82460D01*
X144795Y82475D01*
X144776Y82489D01*
X144755Y82507D01*
X144733Y82529D01*
X144703Y82548D01*
X144671Y82569D01*
X144634Y82595D01*
X144598Y82617D01*
X144554Y82639D01*
X144507Y82657D01*
X144456Y82675D01*
X144401Y82693D01*
X144343Y82708D01*
X144427Y83043D01*
X144430D01*
X144445Y83039D01*
D02*
G37*
G36*
X79595Y135528D02*
X79628D01*
X79668Y135524D01*
X79711Y135517D01*
X79762Y135510D01*
X79868Y135492D01*
X79977Y135462D01*
X80086Y135422D01*
X80137Y135397D01*
X80188Y135368D01*
X80192Y135364D01*
X80199Y135361D01*
X80214Y135350D01*
X80228Y135335D01*
X80250Y135320D01*
X80275Y135299D01*
X80305Y135273D01*
X80334Y135244D01*
X80363Y135211D01*
X80396Y135178D01*
X80461Y135095D01*
X80523Y134996D01*
X80578Y134887D01*
Y134884D01*
X80585Y134873D01*
X80589Y134854D01*
X80599Y134833D01*
X80607Y134803D01*
X80618Y134767D01*
X80632Y134727D01*
X80643Y134683D01*
X80654Y134636D01*
X80669Y134581D01*
X80687Y134469D01*
X80701Y134341D01*
X80709Y134210D01*
Y134207D01*
Y134192D01*
Y134170D01*
X80705Y134145D01*
Y134108D01*
X80701Y134072D01*
X80698Y134025D01*
X80690Y133977D01*
X80672Y133872D01*
X80647Y133755D01*
X80610Y133639D01*
X80559Y133526D01*
X80556Y133522D01*
X80552Y133511D01*
X80545Y133497D01*
X80530Y133479D01*
X80516Y133453D01*
X80498Y133424D01*
X80450Y133359D01*
X80388Y133286D01*
X80316Y133213D01*
X80232Y133140D01*
X80134Y133078D01*
X80130Y133074D01*
X80119Y133071D01*
X80104Y133064D01*
X80086Y133053D01*
X80057Y133042D01*
X80028Y133031D01*
X79992Y133016D01*
X79952Y133002D01*
X79908Y132987D01*
X79861Y132973D01*
X79759Y132951D01*
X79642Y132933D01*
X79522Y132925D01*
X79486D01*
X79460Y132929D01*
X79427Y132933D01*
X79387Y132936D01*
X79347Y132940D01*
X79300Y132951D01*
X79202Y132973D01*
X79093Y133005D01*
X79038Y133027D01*
X78987Y133053D01*
X78936Y133086D01*
X78885Y133118D01*
X78881Y133122D01*
X78874Y133125D01*
X78860Y133136D01*
X78841Y133155D01*
X78823Y133173D01*
X78798Y133198D01*
X78772Y133227D01*
X78743Y133256D01*
X78714Y133293D01*
X78685Y133337D01*
X78652Y133380D01*
X78623Y133428D01*
X78597Y133482D01*
X78568Y133537D01*
X78547Y133595D01*
X78525Y133661D01*
X78852Y133737D01*
Y133733D01*
X78856Y133726D01*
X78863Y133712D01*
X78870Y133693D01*
X78878Y133671D01*
X78889Y133642D01*
X78918Y133584D01*
X78954Y133519D01*
X78998Y133453D01*
X79053Y133391D01*
X79111Y133337D01*
X79118Y133329D01*
X79140Y133315D01*
X79176Y133297D01*
X79224Y133271D01*
X79286Y133249D01*
X79355Y133227D01*
X79438Y133213D01*
X79529Y133209D01*
X79558D01*
X79577Y133213D01*
X79602D01*
X79631Y133217D01*
X79700Y133227D01*
X79777Y133242D01*
X79857Y133267D01*
X79941Y133304D01*
X80017Y133351D01*
X80021D01*
X80024Y133359D01*
X80050Y133377D01*
X80083Y133406D01*
X80123Y133449D01*
X80170Y133504D01*
X80214Y133566D01*
X80254Y133642D01*
X80290Y133726D01*
Y133730D01*
X80294Y133737D01*
X80297Y133748D01*
X80301Y133766D01*
X80308Y133788D01*
X80316Y133814D01*
X80326Y133875D01*
X80341Y133948D01*
X80356Y134028D01*
X80363Y134116D01*
X80366Y134210D01*
Y134214D01*
Y134225D01*
Y134243D01*
Y134265D01*
X80363Y134290D01*
Y134323D01*
X80359Y134360D01*
X80356Y134399D01*
X80345Y134487D01*
X80326Y134581D01*
X80305Y134676D01*
X80275Y134771D01*
Y134774D01*
X80272Y134782D01*
X80265Y134793D01*
X80257Y134811D01*
X80235Y134854D01*
X80203Y134906D01*
X80163Y134964D01*
X80112Y135026D01*
X80054Y135080D01*
X79984Y135131D01*
X79981D01*
X79973Y135135D01*
X79962Y135142D01*
X79948Y135149D01*
X79930Y135157D01*
X79908Y135168D01*
X79857Y135189D01*
X79791Y135211D01*
X79719Y135229D01*
X79638Y135244D01*
X79555Y135248D01*
X79529D01*
X79507Y135244D01*
X79482D01*
X79457Y135240D01*
X79391Y135226D01*
X79315Y135208D01*
X79238Y135178D01*
X79158Y135138D01*
X79118Y135117D01*
X79082Y135088D01*
X79078Y135084D01*
X79074Y135080D01*
X79063Y135069D01*
X79049Y135058D01*
X79034Y135040D01*
X79016Y135018D01*
X78994Y134996D01*
X78976Y134967D01*
X78954Y134935D01*
X78929Y134898D01*
X78907Y134862D01*
X78885Y134818D01*
X78867Y134771D01*
X78849Y134720D01*
X78830Y134665D01*
X78816Y134607D01*
X78481Y134691D01*
Y134694D01*
X78485Y134709D01*
X78492Y134731D01*
X78503Y134760D01*
X78514Y134793D01*
X78528Y134833D01*
X78547Y134876D01*
X78568Y134924D01*
X78619Y135026D01*
X78685Y135127D01*
X78725Y135178D01*
X78765Y135229D01*
X78809Y135273D01*
X78860Y135317D01*
X78863Y135320D01*
X78870Y135328D01*
X78889Y135335D01*
X78907Y135350D01*
X78936Y135368D01*
X78965Y135386D01*
X79005Y135404D01*
X79045Y135422D01*
X79093Y135444D01*
X79144Y135462D01*
X79198Y135481D01*
X79256Y135499D01*
X79318Y135513D01*
X79384Y135521D01*
X79453Y135528D01*
X79526Y135531D01*
X79566D01*
X79595Y135528D01*
D02*
G37*
G36*
X77342Y133519D02*
X77345Y133522D01*
X77364Y133537D01*
X77385Y133559D01*
X77422Y133584D01*
X77462Y133617D01*
X77513Y133653D01*
X77571Y133693D01*
X77636Y133733D01*
X77640D01*
X77644Y133737D01*
X77666Y133752D01*
X77702Y133770D01*
X77746Y133792D01*
X77797Y133817D01*
X77851Y133843D01*
X77906Y133868D01*
X77960Y133890D01*
Y133591D01*
X77957D01*
X77950Y133584D01*
X77935Y133581D01*
X77917Y133570D01*
X77895Y133559D01*
X77869Y133544D01*
X77808Y133508D01*
X77735Y133468D01*
X77662Y133417D01*
X77586Y133359D01*
X77509Y133297D01*
X77505Y133293D01*
X77502Y133289D01*
X77491Y133278D01*
X77476Y133267D01*
X77444Y133231D01*
X77400Y133187D01*
X77356Y133136D01*
X77309Y133078D01*
X77269Y133020D01*
X77232Y132958D01*
X77032D01*
Y135488D01*
X77342D01*
Y133519D01*
D02*
G37*
G36*
X76282Y135484D02*
Y135470D01*
Y135448D01*
X76279Y135419D01*
X76275Y135386D01*
X76268Y135350D01*
X76261Y135313D01*
X76246Y135273D01*
Y135269D01*
X76242Y135266D01*
X76235Y135244D01*
X76221Y135211D01*
X76199Y135168D01*
X76170Y135117D01*
X76133Y135058D01*
X76093Y135000D01*
X76042Y134938D01*
Y134935D01*
X76035Y134931D01*
X76017Y134909D01*
X75984Y134876D01*
X75937Y134829D01*
X75882Y134774D01*
X75813Y134709D01*
X75729Y134636D01*
X75638Y134560D01*
X75634Y134556D01*
X75620Y134545D01*
X75598Y134527D01*
X75573Y134505D01*
X75540Y134476D01*
X75500Y134443D01*
X75460Y134407D01*
X75412Y134367D01*
X75322Y134279D01*
X75230Y134192D01*
X75187Y134148D01*
X75147Y134105D01*
X75110Y134065D01*
X75081Y134025D01*
Y134021D01*
X75074Y134017D01*
X75067Y134006D01*
X75059Y133992D01*
X75034Y133952D01*
X75005Y133905D01*
X74979Y133846D01*
X74954Y133784D01*
X74939Y133715D01*
X74932Y133650D01*
Y133646D01*
Y133642D01*
X74936Y133621D01*
X74939Y133584D01*
X74950Y133544D01*
X74965Y133493D01*
X74990Y133442D01*
X75023Y133391D01*
X75067Y133340D01*
X75074Y133333D01*
X75092Y133318D01*
X75118Y133300D01*
X75158Y133275D01*
X75209Y133253D01*
X75267Y133231D01*
X75336Y133217D01*
X75412Y133213D01*
X75434D01*
X75449Y133217D01*
X75493Y133220D01*
X75543Y133231D01*
X75598Y133246D01*
X75660Y133271D01*
X75718Y133304D01*
X75773Y133347D01*
X75780Y133355D01*
X75795Y133373D01*
X75817Y133402D01*
X75838Y133446D01*
X75864Y133497D01*
X75886Y133562D01*
X75900Y133635D01*
X75907Y133719D01*
X76224Y133686D01*
Y133682D01*
X76221Y133671D01*
Y133653D01*
X76217Y133628D01*
X76210Y133599D01*
X76202Y133566D01*
X76191Y133526D01*
X76180Y133486D01*
X76151Y133398D01*
X76108Y133311D01*
X76082Y133267D01*
X76050Y133224D01*
X76017Y133184D01*
X75980Y133147D01*
X75977Y133144D01*
X75969Y133140D01*
X75959Y133129D01*
X75940Y133118D01*
X75918Y133104D01*
X75893Y133089D01*
X75864Y133071D01*
X75827Y133053D01*
X75787Y133035D01*
X75744Y133016D01*
X75696Y133002D01*
X75646Y132987D01*
X75591Y132976D01*
X75533Y132965D01*
X75471Y132962D01*
X75405Y132958D01*
X75369D01*
X75343Y132962D01*
X75314Y132965D01*
X75278Y132969D01*
X75238Y132976D01*
X75198Y132984D01*
X75103Y133009D01*
X75008Y133045D01*
X74961Y133067D01*
X74914Y133093D01*
X74870Y133125D01*
X74830Y133162D01*
X74826Y133166D01*
X74819Y133169D01*
X74812Y133184D01*
X74797Y133198D01*
X74779Y133217D01*
X74761Y133242D01*
X74743Y133267D01*
X74721Y133300D01*
X74685Y133369D01*
X74648Y133457D01*
X74634Y133500D01*
X74626Y133551D01*
X74619Y133602D01*
X74615Y133657D01*
Y133664D01*
Y133682D01*
X74619Y133712D01*
X74623Y133752D01*
X74630Y133795D01*
X74644Y133846D01*
X74659Y133901D01*
X74681Y133955D01*
X74685Y133963D01*
X74692Y133981D01*
X74706Y134010D01*
X74728Y134050D01*
X74757Y134094D01*
X74794Y134148D01*
X74837Y134203D01*
X74888Y134265D01*
X74896Y134272D01*
X74914Y134294D01*
X74932Y134312D01*
X74950Y134330D01*
X74972Y134352D01*
X75001Y134381D01*
X75030Y134410D01*
X75067Y134443D01*
X75103Y134480D01*
X75147Y134520D01*
X75194Y134560D01*
X75245Y134607D01*
X75303Y134654D01*
X75362Y134705D01*
X75365Y134709D01*
X75372Y134716D01*
X75387Y134727D01*
X75405Y134742D01*
X75427Y134764D01*
X75453Y134785D01*
X75511Y134833D01*
X75573Y134887D01*
X75631Y134942D01*
X75682Y134989D01*
X75704Y135007D01*
X75722Y135026D01*
X75726Y135029D01*
X75736Y135040D01*
X75751Y135055D01*
X75769Y135076D01*
X75787Y135102D01*
X75809Y135127D01*
X75853Y135189D01*
X74612D01*
Y135488D01*
X76282D01*
Y135484D01*
D02*
G37*
G36*
X93067Y146172D02*
X91097D01*
X91101Y146168D01*
X91115Y146150D01*
X91137Y146128D01*
X91163Y146092D01*
X91196Y146052D01*
X91232Y146001D01*
X91272Y145942D01*
X91312Y145877D01*
Y145873D01*
X91316Y145870D01*
X91330Y145848D01*
X91348Y145811D01*
X91370Y145768D01*
X91396Y145717D01*
X91421Y145662D01*
X91447Y145607D01*
X91469Y145553D01*
X91170D01*
Y145557D01*
X91163Y145564D01*
X91159Y145578D01*
X91148Y145597D01*
X91137Y145618D01*
X91123Y145644D01*
X91086Y145706D01*
X91046Y145779D01*
X90995Y145851D01*
X90937Y145928D01*
X90875Y146004D01*
X90872Y146008D01*
X90868Y146012D01*
X90857Y146022D01*
X90846Y146037D01*
X90810Y146070D01*
X90766Y146114D01*
X90715Y146157D01*
X90657Y146204D01*
X90599Y146245D01*
X90537Y146281D01*
Y146481D01*
X93067D01*
Y146172D01*
D02*
G37*
G36*
Y144213D02*
X91097D01*
X91101Y144210D01*
X91115Y144192D01*
X91137Y144170D01*
X91163Y144133D01*
X91196Y144093D01*
X91232Y144042D01*
X91272Y143984D01*
X91312Y143919D01*
Y143915D01*
X91316Y143911D01*
X91330Y143889D01*
X91348Y143853D01*
X91370Y143809D01*
X91396Y143758D01*
X91421Y143704D01*
X91447Y143649D01*
X91469Y143595D01*
X91170D01*
Y143598D01*
X91163Y143605D01*
X91159Y143620D01*
X91148Y143638D01*
X91137Y143660D01*
X91123Y143686D01*
X91086Y143747D01*
X91046Y143820D01*
X90995Y143893D01*
X90937Y143970D01*
X90875Y144046D01*
X90872Y144050D01*
X90868Y144053D01*
X90857Y144064D01*
X90846Y144079D01*
X90810Y144112D01*
X90766Y144155D01*
X90715Y144199D01*
X90657Y144246D01*
X90599Y144286D01*
X90537Y144323D01*
Y144523D01*
X93067D01*
Y144213D01*
D02*
G37*
G36*
X92288Y143070D02*
X92309Y143063D01*
X92339Y143052D01*
X92371Y143041D01*
X92411Y143027D01*
X92455Y143009D01*
X92502Y142987D01*
X92604Y142936D01*
X92706Y142870D01*
X92757Y142830D01*
X92808Y142790D01*
X92852Y142746D01*
X92896Y142695D01*
X92899Y142692D01*
X92906Y142685D01*
X92914Y142666D01*
X92928Y142648D01*
X92946Y142619D01*
X92965Y142590D01*
X92983Y142550D01*
X93001Y142510D01*
X93023Y142463D01*
X93041Y142412D01*
X93059Y142357D01*
X93077Y142299D01*
X93092Y142237D01*
X93099Y142171D01*
X93107Y142102D01*
X93110Y142029D01*
Y141989D01*
X93107Y141960D01*
Y141928D01*
X93103Y141887D01*
X93096Y141844D01*
X93088Y141793D01*
X93070Y141687D01*
X93041Y141578D01*
X93001Y141469D01*
X92976Y141418D01*
X92946Y141367D01*
X92943Y141363D01*
X92939Y141356D01*
X92928Y141341D01*
X92914Y141327D01*
X92899Y141305D01*
X92877Y141280D01*
X92852Y141251D01*
X92823Y141221D01*
X92790Y141192D01*
X92757Y141159D01*
X92673Y141094D01*
X92575Y141032D01*
X92466Y140977D01*
X92462D01*
X92451Y140970D01*
X92433Y140966D01*
X92411Y140956D01*
X92382Y140948D01*
X92346Y140937D01*
X92306Y140923D01*
X92262Y140912D01*
X92215Y140901D01*
X92160Y140886D01*
X92047Y140868D01*
X91920Y140854D01*
X91789Y140846D01*
X91785D01*
X91771D01*
X91749D01*
X91723Y140850D01*
X91687D01*
X91651Y140854D01*
X91603Y140857D01*
X91556Y140865D01*
X91450Y140883D01*
X91334Y140908D01*
X91217Y140945D01*
X91105Y140996D01*
X91101Y140999D01*
X91090Y141003D01*
X91075Y141010D01*
X91057Y141025D01*
X91032Y141039D01*
X91003Y141058D01*
X90937Y141105D01*
X90864Y141167D01*
X90792Y141240D01*
X90719Y141323D01*
X90657Y141421D01*
X90653Y141425D01*
X90650Y141436D01*
X90642Y141451D01*
X90631Y141469D01*
X90620Y141498D01*
X90610Y141527D01*
X90595Y141563D01*
X90580Y141604D01*
X90566Y141647D01*
X90551Y141694D01*
X90530Y141797D01*
X90511Y141913D01*
X90504Y142033D01*
Y142069D01*
X90508Y142095D01*
X90511Y142128D01*
X90515Y142168D01*
X90519Y142208D01*
X90530Y142255D01*
X90551Y142353D01*
X90584Y142463D01*
X90606Y142517D01*
X90631Y142568D01*
X90664Y142619D01*
X90697Y142670D01*
X90701Y142674D01*
X90704Y142681D01*
X90715Y142695D01*
X90733Y142714D01*
X90751Y142732D01*
X90777Y142757D01*
X90806Y142783D01*
X90835Y142812D01*
X90872Y142841D01*
X90915Y142870D01*
X90959Y142903D01*
X91006Y142932D01*
X91061Y142958D01*
X91115Y142987D01*
X91174Y143009D01*
X91239Y143030D01*
X91316Y142703D01*
X91312D01*
X91305Y142699D01*
X91290Y142692D01*
X91272Y142685D01*
X91250Y142677D01*
X91221Y142666D01*
X91163Y142637D01*
X91097Y142601D01*
X91032Y142557D01*
X90970Y142503D01*
X90915Y142444D01*
X90908Y142437D01*
X90894Y142415D01*
X90875Y142379D01*
X90850Y142332D01*
X90828Y142270D01*
X90806Y142201D01*
X90792Y142117D01*
X90788Y142026D01*
Y141997D01*
X90792Y141978D01*
Y141953D01*
X90795Y141924D01*
X90806Y141855D01*
X90821Y141778D01*
X90846Y141698D01*
X90883Y141614D01*
X90930Y141538D01*
Y141534D01*
X90937Y141531D01*
X90955Y141505D01*
X90984Y141472D01*
X91028Y141432D01*
X91083Y141385D01*
X91145Y141341D01*
X91221Y141301D01*
X91305Y141265D01*
X91308D01*
X91316Y141261D01*
X91327Y141258D01*
X91345Y141254D01*
X91367Y141247D01*
X91392Y141240D01*
X91454Y141229D01*
X91527Y141214D01*
X91607Y141200D01*
X91694Y141192D01*
X91789Y141189D01*
X91793D01*
X91803D01*
X91822D01*
X91844D01*
X91869Y141192D01*
X91902D01*
X91938Y141196D01*
X91978Y141200D01*
X92066Y141210D01*
X92160Y141229D01*
X92255Y141251D01*
X92349Y141280D01*
X92353D01*
X92360Y141283D01*
X92371Y141290D01*
X92390Y141298D01*
X92433Y141320D01*
X92484Y141352D01*
X92542Y141392D01*
X92604Y141443D01*
X92659Y141502D01*
X92710Y141571D01*
Y141574D01*
X92713Y141582D01*
X92721Y141593D01*
X92728Y141607D01*
X92735Y141625D01*
X92746Y141647D01*
X92768Y141698D01*
X92790Y141764D01*
X92808Y141837D01*
X92823Y141917D01*
X92826Y142000D01*
Y142026D01*
X92823Y142048D01*
Y142073D01*
X92819Y142099D01*
X92804Y142164D01*
X92786Y142241D01*
X92757Y142317D01*
X92717Y142397D01*
X92695Y142437D01*
X92666Y142473D01*
X92663Y142477D01*
X92659Y142481D01*
X92648Y142492D01*
X92637Y142506D01*
X92619Y142521D01*
X92597Y142539D01*
X92575Y142561D01*
X92546Y142579D01*
X92513Y142601D01*
X92477Y142626D01*
X92440Y142648D01*
X92397Y142670D01*
X92349Y142688D01*
X92299Y142706D01*
X92244Y142725D01*
X92186Y142739D01*
X92269Y143074D01*
X92273D01*
X92288Y143070D01*
D02*
G37*
G36*
X85500Y111217D02*
X85533D01*
X85573Y111213D01*
X85617Y111206D01*
X85668Y111199D01*
X85773Y111180D01*
X85883Y111151D01*
X85992Y111111D01*
X86043Y111086D01*
X86094Y111057D01*
X86097Y111053D01*
X86105Y111049D01*
X86119Y111038D01*
X86134Y111024D01*
X86156Y111009D01*
X86181Y110988D01*
X86210Y110962D01*
X86239Y110933D01*
X86268Y110900D01*
X86301Y110867D01*
X86367Y110784D01*
X86429Y110685D01*
X86483Y110576D01*
Y110573D01*
X86490Y110562D01*
X86494Y110544D01*
X86505Y110522D01*
X86512Y110493D01*
X86523Y110456D01*
X86538Y110416D01*
X86549Y110372D01*
X86560Y110325D01*
X86574Y110271D01*
X86592Y110158D01*
X86607Y110030D01*
X86614Y109899D01*
Y109896D01*
Y109881D01*
Y109859D01*
X86611Y109834D01*
Y109797D01*
X86607Y109761D01*
X86603Y109714D01*
X86596Y109666D01*
X86578Y109561D01*
X86552Y109444D01*
X86516Y109328D01*
X86465Y109215D01*
X86461Y109211D01*
X86458Y109200D01*
X86450Y109186D01*
X86436Y109168D01*
X86421Y109142D01*
X86403Y109113D01*
X86356Y109047D01*
X86294Y108975D01*
X86221Y108902D01*
X86137Y108829D01*
X86039Y108767D01*
X86036Y108764D01*
X86024Y108760D01*
X86010Y108753D01*
X85992Y108742D01*
X85963Y108731D01*
X85934Y108720D01*
X85897Y108705D01*
X85857Y108691D01*
X85813Y108676D01*
X85766Y108662D01*
X85664Y108640D01*
X85548Y108622D01*
X85428Y108614D01*
X85391D01*
X85366Y108618D01*
X85333Y108622D01*
X85293Y108625D01*
X85253Y108629D01*
X85206Y108640D01*
X85107Y108662D01*
X84998Y108694D01*
X84943Y108716D01*
X84892Y108742D01*
X84842Y108774D01*
X84791Y108807D01*
X84787Y108811D01*
X84780Y108815D01*
X84765Y108825D01*
X84747Y108844D01*
X84729Y108862D01*
X84703Y108887D01*
X84678Y108916D01*
X84649Y108946D01*
X84619Y108982D01*
X84590Y109026D01*
X84558Y109069D01*
X84528Y109117D01*
X84503Y109171D01*
X84474Y109226D01*
X84452Y109284D01*
X84430Y109350D01*
X84758Y109426D01*
Y109422D01*
X84762Y109415D01*
X84769Y109400D01*
X84776Y109382D01*
X84783Y109361D01*
X84794Y109331D01*
X84823Y109273D01*
X84860Y109208D01*
X84903Y109142D01*
X84958Y109080D01*
X85016Y109026D01*
X85023Y109018D01*
X85045Y109004D01*
X85082Y108986D01*
X85129Y108960D01*
X85191Y108938D01*
X85260Y108916D01*
X85344Y108902D01*
X85435Y108898D01*
X85464D01*
X85482Y108902D01*
X85508D01*
X85537Y108905D01*
X85606Y108916D01*
X85682Y108931D01*
X85763Y108956D01*
X85846Y108993D01*
X85923Y109040D01*
X85926D01*
X85930Y109047D01*
X85955Y109066D01*
X85988Y109095D01*
X86028Y109138D01*
X86076Y109193D01*
X86119Y109255D01*
X86159Y109331D01*
X86196Y109415D01*
Y109419D01*
X86199Y109426D01*
X86203Y109437D01*
X86207Y109455D01*
X86214Y109477D01*
X86221Y109502D01*
X86232Y109564D01*
X86247Y109637D01*
X86261Y109717D01*
X86268Y109805D01*
X86272Y109899D01*
Y109903D01*
Y109914D01*
Y109932D01*
Y109954D01*
X86268Y109979D01*
Y110012D01*
X86265Y110048D01*
X86261Y110089D01*
X86250Y110176D01*
X86232Y110271D01*
X86210Y110365D01*
X86181Y110460D01*
Y110463D01*
X86177Y110471D01*
X86170Y110482D01*
X86163Y110500D01*
X86141Y110544D01*
X86108Y110594D01*
X86068Y110653D01*
X86017Y110715D01*
X85959Y110769D01*
X85890Y110820D01*
X85886D01*
X85879Y110824D01*
X85868Y110831D01*
X85853Y110838D01*
X85835Y110846D01*
X85813Y110856D01*
X85763Y110878D01*
X85697Y110900D01*
X85624Y110918D01*
X85544Y110933D01*
X85460Y110937D01*
X85435D01*
X85413Y110933D01*
X85387D01*
X85362Y110929D01*
X85296Y110915D01*
X85220Y110897D01*
X85144Y110867D01*
X85064Y110827D01*
X85023Y110806D01*
X84987Y110776D01*
X84983Y110773D01*
X84980Y110769D01*
X84969Y110758D01*
X84954Y110747D01*
X84940Y110729D01*
X84922Y110707D01*
X84900Y110685D01*
X84882Y110656D01*
X84860Y110624D01*
X84834Y110587D01*
X84812Y110551D01*
X84791Y110507D01*
X84772Y110460D01*
X84754Y110409D01*
X84736Y110354D01*
X84721Y110296D01*
X84386Y110380D01*
Y110383D01*
X84390Y110398D01*
X84398Y110420D01*
X84408Y110449D01*
X84419Y110482D01*
X84434Y110522D01*
X84452Y110565D01*
X84474Y110613D01*
X84525Y110715D01*
X84590Y110817D01*
X84630Y110867D01*
X84671Y110918D01*
X84714Y110962D01*
X84765Y111006D01*
X84769Y111009D01*
X84776Y111017D01*
X84794Y111024D01*
X84812Y111038D01*
X84842Y111057D01*
X84871Y111075D01*
X84911Y111093D01*
X84951Y111111D01*
X84998Y111133D01*
X85049Y111151D01*
X85104Y111170D01*
X85162Y111188D01*
X85224Y111202D01*
X85289Y111210D01*
X85358Y111217D01*
X85431Y111221D01*
X85471D01*
X85500Y111217D01*
D02*
G37*
G36*
X83247Y109208D02*
X83251Y109211D01*
X83269Y109226D01*
X83291Y109248D01*
X83327Y109273D01*
X83367Y109306D01*
X83418Y109342D01*
X83477Y109382D01*
X83542Y109422D01*
X83546D01*
X83549Y109426D01*
X83571Y109441D01*
X83608Y109459D01*
X83651Y109481D01*
X83702Y109506D01*
X83757Y109532D01*
X83811Y109557D01*
X83866Y109579D01*
Y109280D01*
X83862D01*
X83855Y109273D01*
X83841Y109269D01*
X83822Y109259D01*
X83801Y109248D01*
X83775Y109233D01*
X83713Y109197D01*
X83640Y109157D01*
X83568Y109106D01*
X83491Y109047D01*
X83415Y108986D01*
X83411Y108982D01*
X83407Y108978D01*
X83397Y108967D01*
X83382Y108956D01*
X83349Y108920D01*
X83306Y108876D01*
X83262Y108825D01*
X83214Y108767D01*
X83174Y108709D01*
X83138Y108647D01*
X82938D01*
Y111177D01*
X83247D01*
Y109208D01*
D02*
G37*
G36*
X81384Y111217D02*
X81413Y111213D01*
X81449Y111206D01*
X81489Y111199D01*
X81533Y111188D01*
X81577Y111173D01*
X81624Y111159D01*
X81671Y111137D01*
X81718Y111111D01*
X81766Y111082D01*
X81813Y111046D01*
X81857Y111006D01*
X81897Y110962D01*
X81900Y110958D01*
X81908Y110948D01*
X81919Y110929D01*
X81937Y110900D01*
X81955Y110867D01*
X81973Y110824D01*
X81999Y110773D01*
X82020Y110715D01*
X82042Y110649D01*
X82064Y110573D01*
X82086Y110489D01*
X82104Y110394D01*
X82122Y110292D01*
X82133Y110183D01*
X82141Y110063D01*
X82144Y109936D01*
Y109932D01*
Y109917D01*
Y109892D01*
Y109863D01*
X82141Y109823D01*
Y109779D01*
X82137Y109732D01*
X82133Y109677D01*
X82122Y109564D01*
X82104Y109444D01*
X82082Y109324D01*
X82068Y109269D01*
X82053Y109215D01*
Y109211D01*
X82050Y109204D01*
X82042Y109189D01*
X82035Y109171D01*
X82028Y109146D01*
X82013Y109120D01*
X81984Y109058D01*
X81948Y108993D01*
X81900Y108924D01*
X81846Y108854D01*
X81780Y108796D01*
X81777D01*
X81773Y108789D01*
X81762Y108782D01*
X81748Y108774D01*
X81729Y108760D01*
X81708Y108749D01*
X81653Y108720D01*
X81587Y108694D01*
X81511Y108669D01*
X81420Y108654D01*
X81322Y108647D01*
X81289D01*
X81249Y108651D01*
X81201Y108658D01*
X81147Y108669D01*
X81089Y108683D01*
X81027Y108702D01*
X80969Y108731D01*
X80965D01*
X80961Y108734D01*
X80943Y108745D01*
X80914Y108764D01*
X80878Y108789D01*
X80838Y108825D01*
X80794Y108865D01*
X80754Y108913D01*
X80714Y108967D01*
X80710Y108975D01*
X80696Y108993D01*
X80681Y109026D01*
X80655Y109073D01*
X80634Y109127D01*
X80605Y109189D01*
X80579Y109262D01*
X80557Y109342D01*
Y109346D01*
X80554Y109353D01*
X80550Y109364D01*
X80546Y109382D01*
X80543Y109404D01*
X80539Y109430D01*
X80532Y109462D01*
X80528Y109499D01*
X80521Y109539D01*
X80517Y109582D01*
X80514Y109634D01*
X80506Y109684D01*
X80503Y109743D01*
Y109801D01*
X80499Y109866D01*
Y109936D01*
Y109939D01*
Y109954D01*
Y109979D01*
Y110008D01*
X80503Y110048D01*
Y110092D01*
X80506Y110139D01*
X80510Y110190D01*
X80521Y110307D01*
X80539Y110427D01*
X80561Y110544D01*
X80576Y110598D01*
X80594Y110653D01*
Y110656D01*
X80597Y110664D01*
X80605Y110678D01*
X80612Y110696D01*
X80619Y110722D01*
X80634Y110747D01*
X80663Y110809D01*
X80699Y110875D01*
X80747Y110948D01*
X80801Y111013D01*
X80867Y111075D01*
X80870D01*
X80874Y111082D01*
X80885Y111090D01*
X80899Y111097D01*
X80918Y111108D01*
X80936Y111122D01*
X80990Y111148D01*
X81056Y111173D01*
X81132Y111199D01*
X81223Y111213D01*
X81322Y111221D01*
X81358D01*
X81384Y111217D01*
D02*
G37*
G36*
X134562Y84979D02*
X134587Y84975D01*
X134620Y84972D01*
X134656Y84965D01*
X134696Y84954D01*
X134780Y84928D01*
X134827Y84910D01*
X134871Y84884D01*
X134918Y84859D01*
X134962Y84830D01*
X135006Y84793D01*
X135049Y84753D01*
X135053Y84750D01*
X135060Y84742D01*
X135071Y84732D01*
X135082Y84713D01*
X135100Y84688D01*
X135118Y84662D01*
X135137Y84630D01*
X135159Y84593D01*
X135180Y84553D01*
X135199Y84506D01*
X135217Y84455D01*
X135235Y84404D01*
X135246Y84346D01*
X135257Y84284D01*
X135264Y84222D01*
X135268Y84153D01*
Y84116D01*
X135264Y84091D01*
X135260Y84058D01*
X135257Y84022D01*
X135249Y83982D01*
X135239Y83938D01*
X135213Y83840D01*
X135195Y83789D01*
X135177Y83741D01*
X135151Y83691D01*
X135122Y83640D01*
X135089Y83592D01*
X135049Y83549D01*
X135046Y83545D01*
X135038Y83538D01*
X135028Y83527D01*
X135009Y83512D01*
X134987Y83498D01*
X134962Y83476D01*
X134933Y83458D01*
X134897Y83436D01*
X134860Y83414D01*
X134816Y83396D01*
X134725Y83359D01*
X134671Y83345D01*
X134616Y83334D01*
X134558Y83327D01*
X134500Y83323D01*
X134496D01*
X134489D01*
X134474D01*
X134460Y83327D01*
X134438D01*
X134412Y83330D01*
X134354Y83337D01*
X134289Y83352D01*
X134223Y83374D01*
X134154Y83407D01*
X134088Y83447D01*
X134085D01*
X134081Y83454D01*
X134063Y83469D01*
X134034Y83498D01*
X133997Y83538D01*
X133961Y83589D01*
X133921Y83650D01*
X133888Y83720D01*
X133863Y83803D01*
Y83800D01*
X133859Y83796D01*
X133855Y83785D01*
X133848Y83771D01*
X133834Y83738D01*
X133812Y83694D01*
X133783Y83647D01*
X133746Y83600D01*
X133706Y83556D01*
X133662Y83516D01*
X133655Y83512D01*
X133641Y83501D01*
X133612Y83487D01*
X133575Y83472D01*
X133528Y83454D01*
X133473Y83439D01*
X133411Y83428D01*
X133346Y83425D01*
X133342D01*
X133335D01*
X133320D01*
X133299Y83428D01*
X133277Y83432D01*
X133248Y83436D01*
X133186Y83450D01*
X133113Y83472D01*
X133036Y83508D01*
X132996Y83530D01*
X132956Y83556D01*
X132920Y83589D01*
X132884Y83621D01*
X132880Y83625D01*
X132876Y83632D01*
X132865Y83643D01*
X132854Y83658D01*
X132840Y83676D01*
X132825Y83701D01*
X132807Y83731D01*
X132789Y83760D01*
X132771Y83796D01*
X132753Y83836D01*
X132738Y83880D01*
X132723Y83927D01*
X132702Y84029D01*
X132698Y84087D01*
X132694Y84145D01*
Y84178D01*
X132698Y84200D01*
X132702Y84229D01*
X132705Y84262D01*
X132709Y84298D01*
X132720Y84335D01*
X132742Y84422D01*
X132774Y84509D01*
X132796Y84553D01*
X132822Y84597D01*
X132854Y84637D01*
X132887Y84677D01*
X132891Y84681D01*
X132895Y84684D01*
X132905Y84695D01*
X132920Y84710D01*
X132942Y84724D01*
X132964Y84742D01*
X133018Y84779D01*
X133087Y84815D01*
X133168Y84848D01*
X133258Y84873D01*
X133306Y84877D01*
X133357Y84881D01*
X133360D01*
X133364D01*
X133386D01*
X133419Y84877D01*
X133459Y84870D01*
X133510Y84859D01*
X133561Y84841D01*
X133612Y84819D01*
X133662Y84786D01*
X133670Y84782D01*
X133684Y84768D01*
X133706Y84746D01*
X133735Y84717D01*
X133768Y84677D01*
X133801Y84630D01*
X133834Y84575D01*
X133863Y84509D01*
Y84513D01*
X133866Y84520D01*
X133870Y84531D01*
X133877Y84546D01*
X133896Y84590D01*
X133921Y84641D01*
X133957Y84695D01*
X133997Y84753D01*
X134048Y84808D01*
X134107Y84859D01*
X134110D01*
X134114Y84863D01*
X134136Y84877D01*
X134172Y84899D01*
X134219Y84921D01*
X134278Y84943D01*
X134347Y84965D01*
X134423Y84979D01*
X134507Y84983D01*
X134511D01*
X134522D01*
X134540D01*
X134562Y84979D01*
D02*
G37*
G36*
X134445Y83039D02*
X134467Y83032D01*
X134496Y83021D01*
X134529Y83010D01*
X134569Y82995D01*
X134613Y82977D01*
X134660Y82955D01*
X134762Y82904D01*
X134864Y82839D01*
X134915Y82799D01*
X134966Y82759D01*
X135009Y82715D01*
X135053Y82664D01*
X135057Y82660D01*
X135064Y82653D01*
X135071Y82635D01*
X135086Y82617D01*
X135104Y82588D01*
X135122Y82559D01*
X135140Y82518D01*
X135159Y82478D01*
X135180Y82431D01*
X135199Y82380D01*
X135217Y82326D01*
X135235Y82267D01*
X135249Y82205D01*
X135257Y82140D01*
X135264Y82071D01*
X135268Y81998D01*
Y81958D01*
X135264Y81929D01*
Y81896D01*
X135260Y81856D01*
X135253Y81812D01*
X135246Y81761D01*
X135228Y81656D01*
X135199Y81547D01*
X135159Y81437D01*
X135133Y81386D01*
X135104Y81335D01*
X135100Y81332D01*
X135097Y81324D01*
X135086Y81310D01*
X135071Y81295D01*
X135057Y81274D01*
X135035Y81248D01*
X135009Y81219D01*
X134980Y81190D01*
X134947Y81161D01*
X134915Y81128D01*
X134831Y81062D01*
X134733Y81001D01*
X134624Y80946D01*
X134620D01*
X134609Y80939D01*
X134591Y80935D01*
X134569Y80924D01*
X134540Y80917D01*
X134503Y80906D01*
X134463Y80891D01*
X134420Y80880D01*
X134372Y80870D01*
X134318Y80855D01*
X134205Y80837D01*
X134078Y80822D01*
X133946Y80815D01*
X133943D01*
X133928D01*
X133906D01*
X133881Y80819D01*
X133844D01*
X133808Y80822D01*
X133761Y80826D01*
X133713Y80833D01*
X133608Y80851D01*
X133491Y80877D01*
X133375Y80913D01*
X133262Y80964D01*
X133258Y80968D01*
X133248Y80971D01*
X133233Y80979D01*
X133215Y80993D01*
X133189Y81008D01*
X133160Y81026D01*
X133095Y81073D01*
X133022Y81135D01*
X132949Y81208D01*
X132876Y81292D01*
X132814Y81390D01*
X132811Y81394D01*
X132807Y81405D01*
X132800Y81419D01*
X132789Y81437D01*
X132778Y81467D01*
X132767Y81496D01*
X132753Y81532D01*
X132738Y81572D01*
X132723Y81616D01*
X132709Y81663D01*
X132687Y81765D01*
X132669Y81881D01*
X132661Y82002D01*
Y82038D01*
X132665Y82063D01*
X132669Y82096D01*
X132672Y82136D01*
X132676Y82176D01*
X132687Y82224D01*
X132709Y82322D01*
X132742Y82431D01*
X132763Y82486D01*
X132789Y82537D01*
X132822Y82588D01*
X132854Y82639D01*
X132858Y82642D01*
X132862Y82649D01*
X132873Y82664D01*
X132891Y82682D01*
X132909Y82700D01*
X132934Y82726D01*
X132964Y82751D01*
X132993Y82780D01*
X133029Y82810D01*
X133073Y82839D01*
X133116Y82872D01*
X133164Y82901D01*
X133218Y82926D01*
X133273Y82955D01*
X133331Y82977D01*
X133397Y82999D01*
X133473Y82671D01*
X133470D01*
X133462Y82668D01*
X133448Y82660D01*
X133430Y82653D01*
X133408Y82646D01*
X133379Y82635D01*
X133320Y82606D01*
X133255Y82569D01*
X133189Y82526D01*
X133127Y82471D01*
X133073Y82413D01*
X133066Y82406D01*
X133051Y82384D01*
X133033Y82347D01*
X133007Y82300D01*
X132985Y82238D01*
X132964Y82169D01*
X132949Y82085D01*
X132945Y81994D01*
Y81965D01*
X132949Y81947D01*
Y81921D01*
X132953Y81892D01*
X132964Y81823D01*
X132978Y81747D01*
X133004Y81667D01*
X133040Y81583D01*
X133087Y81507D01*
Y81503D01*
X133095Y81499D01*
X133113Y81474D01*
X133142Y81441D01*
X133186Y81401D01*
X133240Y81354D01*
X133302Y81310D01*
X133379Y81270D01*
X133462Y81234D01*
X133466D01*
X133473Y81230D01*
X133484Y81226D01*
X133502Y81223D01*
X133524Y81215D01*
X133550Y81208D01*
X133612Y81197D01*
X133684Y81183D01*
X133764Y81168D01*
X133852Y81161D01*
X133946Y81157D01*
X133950D01*
X133961D01*
X133979D01*
X134001D01*
X134027Y81161D01*
X134059D01*
X134096Y81164D01*
X134136Y81168D01*
X134223Y81179D01*
X134318Y81197D01*
X134412Y81219D01*
X134507Y81248D01*
X134511D01*
X134518Y81252D01*
X134529Y81259D01*
X134547Y81266D01*
X134591Y81288D01*
X134642Y81321D01*
X134700Y81361D01*
X134762Y81412D01*
X134816Y81470D01*
X134867Y81539D01*
Y81543D01*
X134871Y81550D01*
X134878Y81561D01*
X134886Y81576D01*
X134893Y81594D01*
X134904Y81616D01*
X134926Y81667D01*
X134947Y81732D01*
X134966Y81805D01*
X134980Y81885D01*
X134984Y81969D01*
Y81994D01*
X134980Y82016D01*
Y82042D01*
X134976Y82067D01*
X134962Y82133D01*
X134944Y82209D01*
X134915Y82285D01*
X134875Y82366D01*
X134853Y82406D01*
X134824Y82442D01*
X134820Y82446D01*
X134816Y82449D01*
X134806Y82460D01*
X134795Y82475D01*
X134776Y82489D01*
X134755Y82507D01*
X134733Y82529D01*
X134704Y82548D01*
X134671Y82569D01*
X134634Y82595D01*
X134598Y82617D01*
X134554Y82639D01*
X134507Y82657D01*
X134456Y82675D01*
X134401Y82693D01*
X134343Y82708D01*
X134427Y83043D01*
X134431D01*
X134445Y83039D01*
D02*
G37*
G36*
X51404Y76474D02*
X51437D01*
X51477Y76470D01*
X51521Y76463D01*
X51572Y76455D01*
X51677Y76437D01*
X51786Y76408D01*
X51895Y76368D01*
X51946Y76343D01*
X51997Y76314D01*
X52001Y76310D01*
X52008Y76306D01*
X52023Y76295D01*
X52037Y76281D01*
X52059Y76266D01*
X52085Y76244D01*
X52114Y76219D01*
X52143Y76190D01*
X52172Y76157D01*
X52205Y76124D01*
X52270Y76041D01*
X52332Y75942D01*
X52387Y75833D01*
Y75829D01*
X52394Y75819D01*
X52398Y75800D01*
X52409Y75778D01*
X52416Y75749D01*
X52427Y75713D01*
X52441Y75673D01*
X52452Y75629D01*
X52463Y75582D01*
X52478Y75527D01*
X52496Y75414D01*
X52511Y75287D01*
X52518Y75156D01*
Y75152D01*
Y75138D01*
Y75116D01*
X52514Y75090D01*
Y75054D01*
X52511Y75018D01*
X52507Y74970D01*
X52500Y74923D01*
X52482Y74818D01*
X52456Y74701D01*
X52420Y74585D01*
X52369Y74472D01*
X52365Y74468D01*
X52361Y74457D01*
X52354Y74443D01*
X52340Y74424D01*
X52325Y74399D01*
X52307Y74370D01*
X52259Y74304D01*
X52198Y74231D01*
X52125Y74159D01*
X52041Y74086D01*
X51943Y74024D01*
X51939Y74020D01*
X51928Y74017D01*
X51914Y74009D01*
X51895Y73998D01*
X51866Y73988D01*
X51837Y73977D01*
X51801Y73962D01*
X51761Y73948D01*
X51717Y73933D01*
X51670Y73918D01*
X51568Y73897D01*
X51451Y73878D01*
X51331Y73871D01*
X51295D01*
X51269Y73875D01*
X51237Y73878D01*
X51197Y73882D01*
X51157Y73886D01*
X51109Y73897D01*
X51011Y73918D01*
X50902Y73951D01*
X50847Y73973D01*
X50796Y73998D01*
X50745Y74031D01*
X50694Y74064D01*
X50691Y74068D01*
X50683Y74071D01*
X50669Y74082D01*
X50651Y74100D01*
X50632Y74119D01*
X50607Y74144D01*
X50581Y74173D01*
X50552Y74202D01*
X50523Y74239D01*
X50494Y74282D01*
X50461Y74326D01*
X50432Y74373D01*
X50407Y74428D01*
X50378Y74483D01*
X50356Y74541D01*
X50334Y74606D01*
X50661Y74683D01*
Y74679D01*
X50665Y74672D01*
X50672Y74657D01*
X50680Y74639D01*
X50687Y74617D01*
X50698Y74588D01*
X50727Y74530D01*
X50763Y74464D01*
X50807Y74399D01*
X50862Y74337D01*
X50920Y74282D01*
X50927Y74275D01*
X50949Y74261D01*
X50985Y74242D01*
X51033Y74217D01*
X51095Y74195D01*
X51164Y74173D01*
X51248Y74159D01*
X51338Y74155D01*
X51368D01*
X51386Y74159D01*
X51411D01*
X51440Y74162D01*
X51510Y74173D01*
X51586Y74188D01*
X51666Y74213D01*
X51750Y74250D01*
X51826Y74297D01*
X51830D01*
X51834Y74304D01*
X51859Y74322D01*
X51892Y74352D01*
X51932Y74395D01*
X51979Y74450D01*
X52023Y74512D01*
X52063Y74588D01*
X52099Y74672D01*
Y74676D01*
X52103Y74683D01*
X52107Y74694D01*
X52110Y74712D01*
X52118Y74734D01*
X52125Y74759D01*
X52136Y74821D01*
X52150Y74894D01*
X52165Y74974D01*
X52172Y75061D01*
X52176Y75156D01*
Y75160D01*
Y75171D01*
Y75189D01*
Y75211D01*
X52172Y75236D01*
Y75269D01*
X52168Y75305D01*
X52165Y75345D01*
X52154Y75433D01*
X52136Y75527D01*
X52114Y75622D01*
X52085Y75717D01*
Y75720D01*
X52081Y75727D01*
X52074Y75738D01*
X52066Y75757D01*
X52045Y75800D01*
X52012Y75851D01*
X51972Y75910D01*
X51921Y75971D01*
X51863Y76026D01*
X51793Y76077D01*
X51790D01*
X51783Y76081D01*
X51772Y76088D01*
X51757Y76095D01*
X51739Y76102D01*
X51717Y76113D01*
X51666Y76135D01*
X51601Y76157D01*
X51528Y76175D01*
X51448Y76190D01*
X51364Y76193D01*
X51338D01*
X51317Y76190D01*
X51291D01*
X51266Y76186D01*
X51200Y76172D01*
X51124Y76153D01*
X51047Y76124D01*
X50967Y76084D01*
X50927Y76062D01*
X50891Y76033D01*
X50887Y76030D01*
X50884Y76026D01*
X50873Y76015D01*
X50858Y76004D01*
X50844Y75986D01*
X50825Y75964D01*
X50803Y75942D01*
X50785Y75913D01*
X50763Y75880D01*
X50738Y75844D01*
X50716Y75808D01*
X50694Y75764D01*
X50676Y75717D01*
X50658Y75666D01*
X50640Y75611D01*
X50625Y75553D01*
X50290Y75637D01*
Y75640D01*
X50294Y75655D01*
X50301Y75677D01*
X50312Y75706D01*
X50323Y75738D01*
X50337Y75778D01*
X50356Y75822D01*
X50378Y75869D01*
X50428Y75971D01*
X50494Y76073D01*
X50534Y76124D01*
X50574Y76175D01*
X50618Y76219D01*
X50669Y76263D01*
X50672Y76266D01*
X50680Y76274D01*
X50698Y76281D01*
X50716Y76295D01*
X50745Y76314D01*
X50774Y76332D01*
X50814Y76350D01*
X50854Y76368D01*
X50902Y76390D01*
X50953Y76408D01*
X51007Y76426D01*
X51065Y76445D01*
X51127Y76459D01*
X51193Y76466D01*
X51262Y76474D01*
X51335Y76477D01*
X51375D01*
X51404Y76474D01*
D02*
G37*
G36*
X50050Y76430D02*
Y76415D01*
Y76394D01*
X50046Y76364D01*
X50043Y76332D01*
X50035Y76295D01*
X50028Y76259D01*
X50014Y76219D01*
Y76215D01*
X50010Y76212D01*
X50003Y76190D01*
X49988Y76157D01*
X49966Y76113D01*
X49937Y76062D01*
X49901Y76004D01*
X49861Y75946D01*
X49810Y75884D01*
Y75880D01*
X49802Y75877D01*
X49784Y75855D01*
X49751Y75822D01*
X49704Y75775D01*
X49650Y75720D01*
X49580Y75655D01*
X49497Y75582D01*
X49406Y75505D01*
X49402Y75502D01*
X49387Y75491D01*
X49366Y75473D01*
X49340Y75451D01*
X49307Y75422D01*
X49267Y75389D01*
X49227Y75353D01*
X49180Y75313D01*
X49089Y75225D01*
X48998Y75138D01*
X48954Y75094D01*
X48914Y75050D01*
X48878Y75010D01*
X48849Y74970D01*
Y74967D01*
X48842Y74963D01*
X48834Y74952D01*
X48827Y74938D01*
X48801Y74898D01*
X48772Y74850D01*
X48747Y74792D01*
X48721Y74730D01*
X48707Y74661D01*
X48700Y74595D01*
Y74592D01*
Y74588D01*
X48703Y74566D01*
X48707Y74530D01*
X48718Y74490D01*
X48732Y74439D01*
X48758Y74388D01*
X48790Y74337D01*
X48834Y74286D01*
X48842Y74279D01*
X48860Y74264D01*
X48885Y74246D01*
X48925Y74221D01*
X48976Y74199D01*
X49034Y74177D01*
X49104Y74162D01*
X49180Y74159D01*
X49202D01*
X49216Y74162D01*
X49260Y74166D01*
X49311Y74177D01*
X49366Y74191D01*
X49428Y74217D01*
X49486Y74250D01*
X49540Y74293D01*
X49548Y74301D01*
X49562Y74319D01*
X49584Y74348D01*
X49606Y74392D01*
X49631Y74443D01*
X49653Y74508D01*
X49668Y74581D01*
X49675Y74665D01*
X49992Y74632D01*
Y74628D01*
X49988Y74617D01*
Y74599D01*
X49984Y74574D01*
X49977Y74545D01*
X49970Y74512D01*
X49959Y74472D01*
X49948Y74432D01*
X49919Y74344D01*
X49875Y74257D01*
X49850Y74213D01*
X49817Y74170D01*
X49784Y74129D01*
X49748Y74093D01*
X49744Y74089D01*
X49737Y74086D01*
X49726Y74075D01*
X49708Y74064D01*
X49686Y74050D01*
X49661Y74035D01*
X49631Y74017D01*
X49595Y73998D01*
X49555Y73980D01*
X49511Y73962D01*
X49464Y73948D01*
X49413Y73933D01*
X49358Y73922D01*
X49300Y73911D01*
X49238Y73908D01*
X49173Y73904D01*
X49136D01*
X49111Y73908D01*
X49082Y73911D01*
X49045Y73915D01*
X49005Y73922D01*
X48965Y73929D01*
X48871Y73955D01*
X48776Y73991D01*
X48729Y74013D01*
X48681Y74038D01*
X48638Y74071D01*
X48598Y74108D01*
X48594Y74111D01*
X48587Y74115D01*
X48579Y74129D01*
X48565Y74144D01*
X48547Y74162D01*
X48528Y74188D01*
X48510Y74213D01*
X48488Y74246D01*
X48452Y74315D01*
X48416Y74402D01*
X48401Y74446D01*
X48394Y74497D01*
X48386Y74548D01*
X48383Y74603D01*
Y74610D01*
Y74628D01*
X48386Y74657D01*
X48390Y74697D01*
X48397Y74741D01*
X48412Y74792D01*
X48426Y74847D01*
X48448Y74901D01*
X48452Y74909D01*
X48459Y74927D01*
X48474Y74956D01*
X48496Y74996D01*
X48525Y75039D01*
X48561Y75094D01*
X48605Y75149D01*
X48656Y75211D01*
X48663Y75218D01*
X48681Y75240D01*
X48700Y75258D01*
X48718Y75276D01*
X48740Y75298D01*
X48769Y75327D01*
X48798Y75356D01*
X48834Y75389D01*
X48871Y75425D01*
X48914Y75465D01*
X48962Y75505D01*
X49013Y75553D01*
X49071Y75600D01*
X49129Y75651D01*
X49133Y75655D01*
X49140Y75662D01*
X49154Y75673D01*
X49173Y75687D01*
X49195Y75709D01*
X49220Y75731D01*
X49278Y75778D01*
X49340Y75833D01*
X49398Y75888D01*
X49449Y75935D01*
X49471Y75953D01*
X49489Y75971D01*
X49493Y75975D01*
X49504Y75986D01*
X49518Y76000D01*
X49537Y76022D01*
X49555Y76048D01*
X49577Y76073D01*
X49620Y76135D01*
X48379D01*
Y76434D01*
X50050D01*
Y76430D01*
D02*
G37*
G36*
X49260Y67009D02*
X49289Y67005D01*
X49322Y67002D01*
X49358Y66995D01*
X49398Y66987D01*
X49486Y66965D01*
X49577Y66929D01*
X49624Y66907D01*
X49668Y66882D01*
X49711Y66849D01*
X49755Y66816D01*
X49759Y66812D01*
X49766Y66805D01*
X49777Y66794D01*
X49788Y66780D01*
X49806Y66762D01*
X49824Y66736D01*
X49846Y66711D01*
X49868Y66678D01*
X49890Y66641D01*
X49912Y66605D01*
X49952Y66518D01*
X49984Y66416D01*
X49995Y66361D01*
X50003Y66303D01*
X49693Y66263D01*
Y66267D01*
X49690Y66274D01*
X49686Y66288D01*
X49682Y66307D01*
X49679Y66328D01*
X49671Y66354D01*
X49653Y66408D01*
X49628Y66474D01*
X49595Y66536D01*
X49559Y66594D01*
X49515Y66645D01*
X49508Y66649D01*
X49493Y66663D01*
X49464Y66681D01*
X49428Y66700D01*
X49384Y66722D01*
X49329Y66740D01*
X49267Y66754D01*
X49202Y66758D01*
X49180D01*
X49165Y66754D01*
X49125Y66751D01*
X49075Y66740D01*
X49016Y66722D01*
X48954Y66696D01*
X48893Y66660D01*
X48834Y66609D01*
X48827Y66601D01*
X48809Y66580D01*
X48787Y66547D01*
X48758Y66503D01*
X48729Y66449D01*
X48707Y66387D01*
X48689Y66314D01*
X48681Y66234D01*
Y66230D01*
Y66223D01*
Y66212D01*
X48685Y66197D01*
X48689Y66157D01*
X48700Y66110D01*
X48714Y66052D01*
X48740Y65994D01*
X48776Y65935D01*
X48823Y65881D01*
X48831Y65873D01*
X48849Y65859D01*
X48878Y65837D01*
X48918Y65812D01*
X48969Y65786D01*
X49031Y65764D01*
X49100Y65750D01*
X49176Y65742D01*
X49209D01*
X49235Y65746D01*
X49267Y65750D01*
X49304Y65757D01*
X49347Y65764D01*
X49395Y65775D01*
X49358Y65502D01*
X49340D01*
X49326Y65506D01*
X49278D01*
X49238Y65499D01*
X49191Y65491D01*
X49136Y65480D01*
X49075Y65462D01*
X49016Y65437D01*
X48954Y65404D01*
X48951D01*
X48947Y65400D01*
X48929Y65386D01*
X48903Y65360D01*
X48874Y65327D01*
X48845Y65280D01*
X48820Y65225D01*
X48801Y65164D01*
X48794Y65127D01*
Y65087D01*
Y65084D01*
Y65080D01*
Y65058D01*
X48801Y65029D01*
X48809Y64989D01*
X48823Y64945D01*
X48842Y64898D01*
X48871Y64851D01*
X48911Y64807D01*
X48914Y64803D01*
X48932Y64789D01*
X48958Y64771D01*
X48991Y64749D01*
X49034Y64731D01*
X49085Y64712D01*
X49144Y64698D01*
X49209Y64694D01*
X49238D01*
X49271Y64701D01*
X49315Y64709D01*
X49362Y64723D01*
X49409Y64741D01*
X49460Y64771D01*
X49508Y64807D01*
X49511Y64811D01*
X49526Y64829D01*
X49548Y64854D01*
X49573Y64891D01*
X49599Y64938D01*
X49624Y64996D01*
X49646Y65065D01*
X49661Y65145D01*
X49970Y65091D01*
Y65087D01*
X49966Y65076D01*
X49963Y65062D01*
X49959Y65040D01*
X49952Y65014D01*
X49941Y64985D01*
X49919Y64916D01*
X49883Y64836D01*
X49839Y64756D01*
X49784Y64679D01*
X49715Y64610D01*
X49711Y64607D01*
X49704Y64603D01*
X49693Y64596D01*
X49679Y64585D01*
X49661Y64570D01*
X49635Y64556D01*
X49610Y64541D01*
X49577Y64523D01*
X49504Y64494D01*
X49420Y64465D01*
X49322Y64447D01*
X49271Y64439D01*
X49180D01*
X49140Y64443D01*
X49093Y64450D01*
X49034Y64461D01*
X48969Y64479D01*
X48903Y64501D01*
X48838Y64530D01*
X48834D01*
X48831Y64534D01*
X48809Y64545D01*
X48776Y64567D01*
X48740Y64592D01*
X48696Y64628D01*
X48652Y64669D01*
X48608Y64716D01*
X48572Y64771D01*
X48568Y64778D01*
X48558Y64796D01*
X48543Y64829D01*
X48525Y64869D01*
X48507Y64916D01*
X48492Y64971D01*
X48481Y65033D01*
X48478Y65095D01*
Y65102D01*
Y65124D01*
X48481Y65153D01*
X48488Y65193D01*
X48499Y65240D01*
X48518Y65291D01*
X48539Y65342D01*
X48568Y65393D01*
X48572Y65400D01*
X48583Y65415D01*
X48605Y65440D01*
X48634Y65469D01*
X48670Y65502D01*
X48714Y65539D01*
X48765Y65571D01*
X48827Y65604D01*
X48823D01*
X48816Y65608D01*
X48805Y65611D01*
X48790Y65615D01*
X48750Y65630D01*
X48700Y65651D01*
X48641Y65680D01*
X48583Y65717D01*
X48528Y65764D01*
X48478Y65819D01*
X48474Y65826D01*
X48459Y65848D01*
X48438Y65884D01*
X48416Y65932D01*
X48394Y65990D01*
X48372Y66059D01*
X48357Y66139D01*
X48354Y66227D01*
Y66230D01*
Y66241D01*
Y66259D01*
X48357Y66281D01*
X48361Y66310D01*
X48368Y66343D01*
X48376Y66379D01*
X48383Y66419D01*
X48412Y66507D01*
X48434Y66554D01*
X48456Y66598D01*
X48485Y66645D01*
X48518Y66692D01*
X48554Y66740D01*
X48598Y66783D01*
X48601Y66787D01*
X48608Y66794D01*
X48623Y66805D01*
X48641Y66820D01*
X48663Y66838D01*
X48692Y66856D01*
X48725Y66878D01*
X48765Y66896D01*
X48805Y66918D01*
X48852Y66940D01*
X48900Y66958D01*
X48954Y66976D01*
X49013Y66991D01*
X49075Y67002D01*
X49136Y67009D01*
X49205Y67013D01*
X49238D01*
X49260Y67009D01*
D02*
G37*
G36*
X51404D02*
X51437D01*
X51477Y67005D01*
X51521Y66998D01*
X51572Y66991D01*
X51677Y66973D01*
X51786Y66944D01*
X51895Y66904D01*
X51946Y66878D01*
X51997Y66849D01*
X52001Y66845D01*
X52008Y66842D01*
X52023Y66831D01*
X52037Y66816D01*
X52059Y66802D01*
X52085Y66780D01*
X52114Y66754D01*
X52143Y66725D01*
X52172Y66692D01*
X52205Y66660D01*
X52270Y66576D01*
X52332Y66478D01*
X52387Y66369D01*
Y66365D01*
X52394Y66354D01*
X52398Y66336D01*
X52409Y66314D01*
X52416Y66285D01*
X52427Y66248D01*
X52441Y66208D01*
X52452Y66165D01*
X52463Y66117D01*
X52478Y66063D01*
X52496Y65950D01*
X52511Y65822D01*
X52518Y65691D01*
Y65688D01*
Y65673D01*
Y65651D01*
X52514Y65626D01*
Y65589D01*
X52511Y65553D01*
X52507Y65506D01*
X52500Y65459D01*
X52482Y65353D01*
X52456Y65236D01*
X52420Y65120D01*
X52369Y65007D01*
X52365Y65004D01*
X52361Y64993D01*
X52354Y64978D01*
X52340Y64960D01*
X52325Y64934D01*
X52307Y64905D01*
X52259Y64840D01*
X52198Y64767D01*
X52125Y64694D01*
X52041Y64621D01*
X51943Y64559D01*
X51939Y64556D01*
X51928Y64552D01*
X51914Y64545D01*
X51895Y64534D01*
X51866Y64523D01*
X51837Y64512D01*
X51801Y64498D01*
X51761Y64483D01*
X51717Y64468D01*
X51670Y64454D01*
X51568Y64432D01*
X51451Y64414D01*
X51331Y64407D01*
X51295D01*
X51269Y64410D01*
X51237Y64414D01*
X51197Y64417D01*
X51157Y64421D01*
X51109Y64432D01*
X51011Y64454D01*
X50902Y64487D01*
X50847Y64508D01*
X50796Y64534D01*
X50745Y64567D01*
X50694Y64599D01*
X50691Y64603D01*
X50683Y64607D01*
X50669Y64618D01*
X50651Y64636D01*
X50632Y64654D01*
X50607Y64679D01*
X50581Y64709D01*
X50552Y64738D01*
X50523Y64774D01*
X50494Y64818D01*
X50461Y64862D01*
X50432Y64909D01*
X50407Y64963D01*
X50378Y65018D01*
X50356Y65076D01*
X50334Y65142D01*
X50661Y65218D01*
Y65215D01*
X50665Y65207D01*
X50672Y65193D01*
X50680Y65175D01*
X50687Y65153D01*
X50698Y65124D01*
X50727Y65065D01*
X50763Y65000D01*
X50807Y64934D01*
X50862Y64872D01*
X50920Y64818D01*
X50927Y64811D01*
X50949Y64796D01*
X50985Y64778D01*
X51033Y64752D01*
X51095Y64731D01*
X51164Y64709D01*
X51248Y64694D01*
X51338Y64690D01*
X51368D01*
X51386Y64694D01*
X51411D01*
X51440Y64698D01*
X51510Y64709D01*
X51586Y64723D01*
X51666Y64749D01*
X51750Y64785D01*
X51826Y64832D01*
X51830D01*
X51834Y64840D01*
X51859Y64858D01*
X51892Y64887D01*
X51932Y64931D01*
X51979Y64985D01*
X52023Y65047D01*
X52063Y65124D01*
X52099Y65207D01*
Y65211D01*
X52103Y65218D01*
X52107Y65229D01*
X52110Y65247D01*
X52118Y65269D01*
X52125Y65295D01*
X52136Y65357D01*
X52150Y65429D01*
X52165Y65509D01*
X52172Y65597D01*
X52176Y65691D01*
Y65695D01*
Y65706D01*
Y65724D01*
Y65746D01*
X52172Y65772D01*
Y65804D01*
X52168Y65841D01*
X52165Y65881D01*
X52154Y65968D01*
X52136Y66063D01*
X52114Y66157D01*
X52085Y66252D01*
Y66256D01*
X52081Y66263D01*
X52074Y66274D01*
X52066Y66292D01*
X52045Y66336D01*
X52012Y66387D01*
X51972Y66445D01*
X51921Y66507D01*
X51863Y66561D01*
X51793Y66612D01*
X51790D01*
X51783Y66616D01*
X51772Y66623D01*
X51757Y66631D01*
X51739Y66638D01*
X51717Y66649D01*
X51666Y66671D01*
X51601Y66692D01*
X51528Y66711D01*
X51448Y66725D01*
X51364Y66729D01*
X51338D01*
X51317Y66725D01*
X51291D01*
X51266Y66722D01*
X51200Y66707D01*
X51124Y66689D01*
X51047Y66660D01*
X50967Y66620D01*
X50927Y66598D01*
X50891Y66569D01*
X50887Y66565D01*
X50884Y66561D01*
X50873Y66550D01*
X50858Y66540D01*
X50844Y66521D01*
X50825Y66500D01*
X50803Y66478D01*
X50785Y66449D01*
X50763Y66416D01*
X50738Y66379D01*
X50716Y66343D01*
X50694Y66299D01*
X50676Y66252D01*
X50658Y66201D01*
X50640Y66146D01*
X50625Y66088D01*
X50290Y66172D01*
Y66176D01*
X50294Y66190D01*
X50301Y66212D01*
X50312Y66241D01*
X50323Y66274D01*
X50337Y66314D01*
X50356Y66358D01*
X50378Y66405D01*
X50428Y66507D01*
X50494Y66609D01*
X50534Y66660D01*
X50574Y66711D01*
X50618Y66754D01*
X50669Y66798D01*
X50672Y66802D01*
X50680Y66809D01*
X50698Y66816D01*
X50716Y66831D01*
X50745Y66849D01*
X50774Y66867D01*
X50814Y66885D01*
X50854Y66904D01*
X50902Y66925D01*
X50953Y66944D01*
X51007Y66962D01*
X51065Y66980D01*
X51127Y66995D01*
X51193Y67002D01*
X51262Y67009D01*
X51335Y67013D01*
X51375D01*
X51404Y67009D01*
D02*
G37*
G36*
X51404Y57311D02*
X51437D01*
X51477Y57308D01*
X51521Y57300D01*
X51572Y57293D01*
X51677Y57275D01*
X51786Y57246D01*
X51895Y57206D01*
X51946Y57180D01*
X51997Y57151D01*
X52001Y57148D01*
X52008Y57144D01*
X52023Y57133D01*
X52037Y57118D01*
X52059Y57104D01*
X52085Y57082D01*
X52114Y57057D01*
X52143Y57027D01*
X52172Y56995D01*
X52205Y56962D01*
X52270Y56878D01*
X52332Y56780D01*
X52387Y56671D01*
Y56667D01*
X52394Y56656D01*
X52398Y56638D01*
X52409Y56616D01*
X52416Y56587D01*
X52427Y56551D01*
X52441Y56511D01*
X52452Y56467D01*
X52463Y56420D01*
X52478Y56365D01*
X52496Y56252D01*
X52511Y56125D01*
X52518Y55994D01*
Y55990D01*
Y55976D01*
Y55954D01*
X52514Y55928D01*
Y55892D01*
X52511Y55855D01*
X52507Y55808D01*
X52500Y55761D01*
X52482Y55655D01*
X52456Y55539D01*
X52420Y55422D01*
X52369Y55309D01*
X52365Y55306D01*
X52361Y55295D01*
X52354Y55280D01*
X52340Y55262D01*
X52325Y55237D01*
X52307Y55207D01*
X52259Y55142D01*
X52198Y55069D01*
X52125Y54996D01*
X52041Y54923D01*
X51943Y54862D01*
X51939Y54858D01*
X51928Y54854D01*
X51914Y54847D01*
X51895Y54836D01*
X51866Y54825D01*
X51837Y54814D01*
X51801Y54800D01*
X51761Y54785D01*
X51717Y54771D01*
X51670Y54756D01*
X51568Y54734D01*
X51451Y54716D01*
X51331Y54709D01*
X51295D01*
X51269Y54712D01*
X51237Y54716D01*
X51197Y54720D01*
X51157Y54723D01*
X51109Y54734D01*
X51011Y54756D01*
X50902Y54789D01*
X50847Y54811D01*
X50796Y54836D01*
X50745Y54869D01*
X50694Y54902D01*
X50691Y54905D01*
X50683Y54909D01*
X50669Y54920D01*
X50651Y54938D01*
X50632Y54956D01*
X50607Y54982D01*
X50581Y55011D01*
X50552Y55040D01*
X50523Y55076D01*
X50494Y55120D01*
X50461Y55164D01*
X50432Y55211D01*
X50407Y55266D01*
X50378Y55320D01*
X50356Y55379D01*
X50334Y55444D01*
X50661Y55520D01*
Y55517D01*
X50665Y55510D01*
X50672Y55495D01*
X50680Y55477D01*
X50687Y55455D01*
X50698Y55426D01*
X50727Y55368D01*
X50763Y55302D01*
X50807Y55237D01*
X50862Y55175D01*
X50920Y55120D01*
X50927Y55113D01*
X50949Y55098D01*
X50985Y55080D01*
X51033Y55054D01*
X51095Y55033D01*
X51164Y55011D01*
X51248Y54996D01*
X51338Y54993D01*
X51368D01*
X51386Y54996D01*
X51411D01*
X51440Y55000D01*
X51510Y55011D01*
X51586Y55025D01*
X51666Y55051D01*
X51750Y55087D01*
X51826Y55135D01*
X51830D01*
X51834Y55142D01*
X51859Y55160D01*
X51892Y55189D01*
X51932Y55233D01*
X51979Y55287D01*
X52023Y55349D01*
X52063Y55426D01*
X52099Y55510D01*
Y55513D01*
X52103Y55520D01*
X52107Y55531D01*
X52110Y55550D01*
X52118Y55571D01*
X52125Y55597D01*
X52136Y55659D01*
X52150Y55732D01*
X52165Y55812D01*
X52172Y55899D01*
X52176Y55994D01*
Y55997D01*
Y56008D01*
Y56026D01*
Y56048D01*
X52172Y56074D01*
Y56107D01*
X52168Y56143D01*
X52165Y56183D01*
X52154Y56270D01*
X52136Y56365D01*
X52114Y56460D01*
X52085Y56554D01*
Y56558D01*
X52081Y56565D01*
X52074Y56576D01*
X52066Y56594D01*
X52045Y56638D01*
X52012Y56689D01*
X51972Y56747D01*
X51921Y56809D01*
X51863Y56864D01*
X51793Y56915D01*
X51790D01*
X51783Y56918D01*
X51772Y56925D01*
X51757Y56933D01*
X51739Y56940D01*
X51717Y56951D01*
X51666Y56973D01*
X51601Y56995D01*
X51528Y57013D01*
X51448Y57027D01*
X51364Y57031D01*
X51338D01*
X51317Y57027D01*
X51291D01*
X51266Y57024D01*
X51200Y57009D01*
X51124Y56991D01*
X51047Y56962D01*
X50967Y56922D01*
X50927Y56900D01*
X50891Y56871D01*
X50887Y56867D01*
X50884Y56864D01*
X50873Y56853D01*
X50858Y56842D01*
X50844Y56824D01*
X50825Y56802D01*
X50803Y56780D01*
X50785Y56751D01*
X50763Y56718D01*
X50738Y56682D01*
X50716Y56645D01*
X50694Y56602D01*
X50676Y56554D01*
X50658Y56503D01*
X50640Y56449D01*
X50625Y56390D01*
X50290Y56474D01*
Y56478D01*
X50294Y56492D01*
X50301Y56514D01*
X50312Y56543D01*
X50323Y56576D01*
X50337Y56616D01*
X50356Y56660D01*
X50378Y56707D01*
X50428Y56809D01*
X50494Y56911D01*
X50534Y56962D01*
X50574Y57013D01*
X50618Y57057D01*
X50669Y57100D01*
X50672Y57104D01*
X50680Y57111D01*
X50698Y57118D01*
X50716Y57133D01*
X50745Y57151D01*
X50774Y57169D01*
X50814Y57188D01*
X50854Y57206D01*
X50902Y57228D01*
X50953Y57246D01*
X51007Y57264D01*
X51065Y57282D01*
X51127Y57297D01*
X51193Y57304D01*
X51262Y57311D01*
X51335Y57315D01*
X51375D01*
X51404Y57311D01*
D02*
G37*
G36*
X49016Y56667D02*
X50112D01*
Y56383D01*
X48958Y54752D01*
X48707D01*
Y56383D01*
X48365D01*
Y56667D01*
X48707D01*
Y57271D01*
X49016D01*
Y56667D01*
D02*
G37*
G36*
X105151Y38132D02*
X105187D01*
X105223Y38129D01*
X105271Y38125D01*
X105318Y38118D01*
X105424Y38100D01*
X105540Y38074D01*
X105657Y38038D01*
X105769Y37987D01*
X105773Y37983D01*
X105784Y37980D01*
X105798Y37972D01*
X105817Y37958D01*
X105842Y37943D01*
X105871Y37925D01*
X105937Y37878D01*
X106010Y37816D01*
X106082Y37743D01*
X106155Y37659D01*
X106217Y37561D01*
X106221Y37557D01*
X106224Y37546D01*
X106232Y37532D01*
X106243Y37514D01*
X106254Y37484D01*
X106264Y37455D01*
X106279Y37419D01*
X106293Y37379D01*
X106308Y37335D01*
X106323Y37288D01*
X106344Y37186D01*
X106363Y37069D01*
X106370Y36949D01*
Y36913D01*
X106366Y36887D01*
X106363Y36855D01*
X106359Y36815D01*
X106355Y36775D01*
X106344Y36727D01*
X106323Y36629D01*
X106290Y36520D01*
X106268Y36465D01*
X106243Y36414D01*
X106210Y36363D01*
X106177Y36312D01*
X106173Y36309D01*
X106170Y36301D01*
X106159Y36287D01*
X106141Y36269D01*
X106123Y36250D01*
X106097Y36225D01*
X106068Y36200D01*
X106039Y36170D01*
X106002Y36141D01*
X105959Y36112D01*
X105915Y36079D01*
X105868Y36050D01*
X105813Y36025D01*
X105759Y35996D01*
X105700Y35974D01*
X105635Y35952D01*
X105558Y36280D01*
X105562D01*
X105569Y36283D01*
X105584Y36290D01*
X105602Y36298D01*
X105624Y36305D01*
X105653Y36316D01*
X105711Y36345D01*
X105777Y36382D01*
X105842Y36425D01*
X105904Y36480D01*
X105959Y36538D01*
X105966Y36545D01*
X105981Y36567D01*
X105999Y36604D01*
X106024Y36651D01*
X106046Y36713D01*
X106068Y36782D01*
X106082Y36866D01*
X106086Y36957D01*
Y36986D01*
X106082Y37004D01*
Y37029D01*
X106079Y37059D01*
X106068Y37128D01*
X106053Y37204D01*
X106028Y37284D01*
X105991Y37368D01*
X105944Y37444D01*
Y37448D01*
X105937Y37452D01*
X105919Y37477D01*
X105889Y37510D01*
X105846Y37550D01*
X105791Y37597D01*
X105729Y37641D01*
X105653Y37681D01*
X105569Y37717D01*
X105566D01*
X105558Y37721D01*
X105547Y37725D01*
X105529Y37728D01*
X105507Y37736D01*
X105482Y37743D01*
X105420Y37754D01*
X105347Y37768D01*
X105267Y37783D01*
X105180Y37790D01*
X105085Y37794D01*
X105081D01*
X105070D01*
X105052D01*
X105031D01*
X105005Y37790D01*
X104972D01*
X104936Y37787D01*
X104896Y37783D01*
X104808Y37772D01*
X104714Y37754D01*
X104619Y37732D01*
X104525Y37703D01*
X104521D01*
X104514Y37699D01*
X104503Y37692D01*
X104484Y37685D01*
X104441Y37663D01*
X104390Y37630D01*
X104332Y37590D01*
X104270Y37539D01*
X104215Y37481D01*
X104164Y37412D01*
Y37408D01*
X104160Y37401D01*
X104153Y37390D01*
X104146Y37375D01*
X104139Y37357D01*
X104128Y37335D01*
X104106Y37284D01*
X104084Y37219D01*
X104066Y37146D01*
X104051Y37066D01*
X104048Y36982D01*
Y36957D01*
X104051Y36935D01*
Y36909D01*
X104055Y36884D01*
X104069Y36818D01*
X104088Y36742D01*
X104117Y36665D01*
X104157Y36585D01*
X104179Y36545D01*
X104208Y36509D01*
X104211Y36505D01*
X104215Y36502D01*
X104226Y36491D01*
X104237Y36476D01*
X104255Y36462D01*
X104277Y36443D01*
X104299Y36422D01*
X104328Y36403D01*
X104361Y36382D01*
X104397Y36356D01*
X104434Y36334D01*
X104477Y36312D01*
X104525Y36294D01*
X104576Y36276D01*
X104630Y36258D01*
X104688Y36243D01*
X104605Y35908D01*
X104601D01*
X104586Y35912D01*
X104564Y35919D01*
X104535Y35930D01*
X104503Y35941D01*
X104463Y35956D01*
X104419Y35974D01*
X104372Y35996D01*
X104270Y36047D01*
X104168Y36112D01*
X104117Y36152D01*
X104066Y36192D01*
X104022Y36236D01*
X103979Y36287D01*
X103975Y36290D01*
X103968Y36298D01*
X103960Y36316D01*
X103946Y36334D01*
X103928Y36363D01*
X103909Y36393D01*
X103891Y36432D01*
X103873Y36472D01*
X103851Y36520D01*
X103833Y36571D01*
X103815Y36625D01*
X103797Y36684D01*
X103782Y36746D01*
X103775Y36811D01*
X103767Y36880D01*
X103764Y36953D01*
Y36993D01*
X103767Y37022D01*
Y37055D01*
X103771Y37095D01*
X103778Y37139D01*
X103786Y37190D01*
X103804Y37295D01*
X103833Y37404D01*
X103873Y37514D01*
X103898Y37565D01*
X103928Y37615D01*
X103931Y37619D01*
X103935Y37626D01*
X103946Y37641D01*
X103960Y37655D01*
X103975Y37677D01*
X103997Y37703D01*
X104022Y37732D01*
X104051Y37761D01*
X104084Y37790D01*
X104117Y37823D01*
X104200Y37889D01*
X104299Y37950D01*
X104408Y38005D01*
X104412D01*
X104423Y38012D01*
X104441Y38016D01*
X104463Y38027D01*
X104492Y38034D01*
X104528Y38045D01*
X104568Y38060D01*
X104612Y38070D01*
X104659Y38081D01*
X104714Y38096D01*
X104827Y38114D01*
X104954Y38129D01*
X105085Y38136D01*
X105089D01*
X105103D01*
X105125D01*
X105151Y38132D01*
D02*
G37*
G36*
X104492Y35300D02*
X104488D01*
X104481D01*
X104470Y35297D01*
X104452Y35293D01*
X104412Y35282D01*
X104357Y35268D01*
X104303Y35246D01*
X104241Y35217D01*
X104186Y35180D01*
X104135Y35137D01*
X104131Y35129D01*
X104117Y35115D01*
X104099Y35086D01*
X104077Y35046D01*
X104055Y35002D01*
X104037Y34947D01*
X104022Y34885D01*
X104018Y34816D01*
Y34795D01*
X104022Y34780D01*
X104026Y34736D01*
X104040Y34685D01*
X104059Y34623D01*
X104088Y34561D01*
X104131Y34496D01*
X104157Y34467D01*
X104186Y34438D01*
X104190Y34434D01*
X104193Y34431D01*
X104204Y34423D01*
X104215Y34412D01*
X104255Y34387D01*
X104306Y34358D01*
X104368Y34332D01*
X104444Y34307D01*
X104535Y34288D01*
X104583Y34281D01*
X104634D01*
X104637D01*
X104645D01*
X104659D01*
X104677Y34285D01*
X104699D01*
X104725Y34288D01*
X104783Y34299D01*
X104852Y34318D01*
X104921Y34343D01*
X104987Y34380D01*
X105049Y34431D01*
X105052D01*
X105056Y34438D01*
X105074Y34456D01*
X105100Y34489D01*
X105129Y34532D01*
X105154Y34591D01*
X105180Y34656D01*
X105198Y34733D01*
X105205Y34776D01*
Y34846D01*
X105201Y34875D01*
X105198Y34911D01*
X105187Y34955D01*
X105176Y34998D01*
X105158Y35046D01*
X105136Y35093D01*
X105132Y35097D01*
X105125Y35111D01*
X105107Y35133D01*
X105089Y35162D01*
X105063Y35191D01*
X105031Y35220D01*
X104998Y35253D01*
X104958Y35279D01*
X104998Y35570D01*
X106293Y35326D01*
Y34074D01*
X105999D01*
Y35082D01*
X105318Y35217D01*
X105322Y35213D01*
X105325Y35206D01*
X105333Y35195D01*
X105343Y35177D01*
X105354Y35155D01*
X105369Y35129D01*
X105398Y35071D01*
X105427Y34998D01*
X105453Y34918D01*
X105471Y34831D01*
X105478Y34787D01*
Y34707D01*
X105474Y34685D01*
X105471Y34656D01*
X105467Y34623D01*
X105460Y34587D01*
X105449Y34547D01*
X105424Y34460D01*
X105405Y34412D01*
X105380Y34365D01*
X105354Y34318D01*
X105325Y34270D01*
X105289Y34227D01*
X105249Y34183D01*
X105245Y34179D01*
X105238Y34172D01*
X105227Y34161D01*
X105209Y34147D01*
X105183Y34128D01*
X105158Y34110D01*
X105125Y34088D01*
X105089Y34067D01*
X105049Y34048D01*
X105005Y34027D01*
X104954Y34008D01*
X104903Y33990D01*
X104849Y33975D01*
X104787Y33965D01*
X104725Y33957D01*
X104659Y33954D01*
X104656D01*
X104645D01*
X104626D01*
X104601Y33957D01*
X104572Y33961D01*
X104539Y33965D01*
X104499Y33972D01*
X104459Y33979D01*
X104364Y34001D01*
X104266Y34037D01*
X104215Y34059D01*
X104168Y34088D01*
X104117Y34117D01*
X104069Y34154D01*
X104066Y34157D01*
X104055Y34165D01*
X104040Y34179D01*
X104022Y34198D01*
X104000Y34223D01*
X103971Y34252D01*
X103946Y34288D01*
X103917Y34329D01*
X103887Y34372D01*
X103862Y34423D01*
X103837Y34478D01*
X103811Y34536D01*
X103793Y34598D01*
X103778Y34667D01*
X103767Y34740D01*
X103764Y34816D01*
Y34849D01*
X103767Y34875D01*
X103771Y34904D01*
X103775Y34936D01*
X103778Y34977D01*
X103789Y35017D01*
X103811Y35107D01*
X103844Y35199D01*
X103866Y35246D01*
X103891Y35293D01*
X103920Y35337D01*
X103953Y35381D01*
X103957Y35384D01*
X103960Y35392D01*
X103975Y35399D01*
X103989Y35413D01*
X104008Y35432D01*
X104030Y35450D01*
X104059Y35471D01*
X104091Y35490D01*
X104124Y35512D01*
X104164Y35533D01*
X104252Y35574D01*
X104353Y35606D01*
X104408Y35617D01*
X104466Y35624D01*
X104492Y35300D01*
D02*
G37*
G36*
X117332Y38185D02*
X117368D01*
X117404Y38182D01*
X117452Y38178D01*
X117499Y38171D01*
X117605Y38153D01*
X117721Y38127D01*
X117838Y38091D01*
X117950Y38040D01*
X117954Y38036D01*
X117965Y38032D01*
X117980Y38025D01*
X117998Y38011D01*
X118023Y37996D01*
X118052Y37978D01*
X118118Y37931D01*
X118191Y37869D01*
X118263Y37796D01*
X118336Y37712D01*
X118398Y37614D01*
X118402Y37610D01*
X118405Y37599D01*
X118413Y37585D01*
X118424Y37567D01*
X118435Y37538D01*
X118446Y37508D01*
X118460Y37472D01*
X118475Y37432D01*
X118489Y37388D01*
X118504Y37341D01*
X118526Y37239D01*
X118544Y37122D01*
X118551Y37002D01*
Y36966D01*
X118547Y36941D01*
X118544Y36908D01*
X118540Y36868D01*
X118536Y36828D01*
X118526Y36780D01*
X118504Y36682D01*
X118471Y36573D01*
X118449Y36518D01*
X118424Y36467D01*
X118391Y36416D01*
X118358Y36365D01*
X118354Y36362D01*
X118351Y36355D01*
X118340Y36340D01*
X118322Y36322D01*
X118304Y36303D01*
X118278Y36278D01*
X118249Y36252D01*
X118220Y36223D01*
X118183Y36194D01*
X118140Y36165D01*
X118096Y36132D01*
X118049Y36103D01*
X117994Y36078D01*
X117940Y36049D01*
X117881Y36027D01*
X117816Y36005D01*
X117739Y36333D01*
X117743D01*
X117750Y36336D01*
X117765Y36344D01*
X117783Y36351D01*
X117805Y36358D01*
X117834Y36369D01*
X117892Y36398D01*
X117958Y36435D01*
X118023Y36478D01*
X118085Y36533D01*
X118140Y36591D01*
X118147Y36598D01*
X118162Y36620D01*
X118180Y36657D01*
X118205Y36704D01*
X118227Y36766D01*
X118249Y36835D01*
X118263Y36919D01*
X118267Y37010D01*
Y37039D01*
X118263Y37057D01*
Y37082D01*
X118260Y37112D01*
X118249Y37181D01*
X118234Y37257D01*
X118209Y37337D01*
X118173Y37421D01*
X118125Y37497D01*
Y37501D01*
X118118Y37505D01*
X118100Y37530D01*
X118071Y37563D01*
X118027Y37603D01*
X117972Y37650D01*
X117910Y37694D01*
X117834Y37734D01*
X117750Y37770D01*
X117747D01*
X117739Y37774D01*
X117728Y37778D01*
X117710Y37781D01*
X117688Y37789D01*
X117663Y37796D01*
X117601Y37807D01*
X117528Y37821D01*
X117448Y37836D01*
X117361Y37843D01*
X117266Y37847D01*
X117262D01*
X117252D01*
X117233D01*
X117212D01*
X117186Y37843D01*
X117153D01*
X117117Y37840D01*
X117077Y37836D01*
X116990Y37825D01*
X116895Y37807D01*
X116800Y37785D01*
X116706Y37756D01*
X116702D01*
X116695Y37752D01*
X116684Y37745D01*
X116666Y37738D01*
X116622Y37716D01*
X116571Y37683D01*
X116513Y37643D01*
X116451Y37592D01*
X116396Y37534D01*
X116345Y37465D01*
Y37461D01*
X116342Y37454D01*
X116334Y37443D01*
X116327Y37428D01*
X116320Y37410D01*
X116309Y37388D01*
X116287Y37337D01*
X116265Y37272D01*
X116247Y37199D01*
X116232Y37119D01*
X116229Y37035D01*
Y37010D01*
X116232Y36988D01*
Y36962D01*
X116236Y36937D01*
X116251Y36871D01*
X116269Y36795D01*
X116298Y36718D01*
X116338Y36638D01*
X116360Y36598D01*
X116389Y36562D01*
X116393Y36558D01*
X116396Y36555D01*
X116407Y36544D01*
X116418Y36529D01*
X116436Y36515D01*
X116458Y36496D01*
X116480Y36475D01*
X116509Y36456D01*
X116542Y36435D01*
X116578Y36409D01*
X116615Y36387D01*
X116658Y36365D01*
X116706Y36347D01*
X116756Y36329D01*
X116811Y36311D01*
X116869Y36296D01*
X116786Y35961D01*
X116782D01*
X116768Y35965D01*
X116746Y35972D01*
X116717Y35983D01*
X116684Y35994D01*
X116644Y36009D01*
X116600Y36027D01*
X116553Y36049D01*
X116451Y36100D01*
X116349Y36165D01*
X116298Y36205D01*
X116247Y36245D01*
X116203Y36289D01*
X116160Y36340D01*
X116156Y36344D01*
X116149Y36351D01*
X116141Y36369D01*
X116127Y36387D01*
X116109Y36416D01*
X116090Y36446D01*
X116072Y36485D01*
X116054Y36525D01*
X116032Y36573D01*
X116014Y36624D01*
X115996Y36678D01*
X115978Y36737D01*
X115963Y36799D01*
X115956Y36864D01*
X115948Y36933D01*
X115945Y37006D01*
Y37046D01*
X115948Y37075D01*
Y37108D01*
X115952Y37148D01*
X115959Y37192D01*
X115967Y37243D01*
X115985Y37348D01*
X116014Y37457D01*
X116054Y37567D01*
X116079Y37617D01*
X116109Y37668D01*
X116112Y37672D01*
X116116Y37679D01*
X116127Y37694D01*
X116141Y37709D01*
X116156Y37730D01*
X116178Y37756D01*
X116203Y37785D01*
X116232Y37814D01*
X116265Y37843D01*
X116298Y37876D01*
X116382Y37942D01*
X116480Y38003D01*
X116589Y38058D01*
X116593D01*
X116604Y38065D01*
X116622Y38069D01*
X116644Y38080D01*
X116673Y38087D01*
X116709Y38098D01*
X116749Y38113D01*
X116793Y38124D01*
X116840Y38134D01*
X116895Y38149D01*
X117008Y38167D01*
X117135Y38182D01*
X117266Y38189D01*
X117270D01*
X117284D01*
X117306D01*
X117332Y38185D01*
D02*
G37*
G36*
X117233Y35688D02*
X117284D01*
X117343Y35685D01*
X117412Y35677D01*
X117488Y35670D01*
X117572Y35659D01*
X117656Y35645D01*
X117747Y35627D01*
X117834Y35605D01*
X117921Y35579D01*
X118005Y35546D01*
X118085Y35510D01*
X118162Y35470D01*
X118227Y35423D01*
X118231Y35419D01*
X118238Y35412D01*
X118253Y35397D01*
X118274Y35379D01*
X118296Y35357D01*
X118318Y35328D01*
X118347Y35292D01*
X118373Y35255D01*
X118398Y35212D01*
X118427Y35164D01*
X118449Y35110D01*
X118475Y35055D01*
X118493Y34993D01*
X118507Y34928D01*
X118515Y34858D01*
X118518Y34786D01*
Y34756D01*
X118515Y34735D01*
Y34709D01*
X118511Y34680D01*
X118497Y34611D01*
X118478Y34534D01*
X118449Y34454D01*
X118405Y34374D01*
X118380Y34334D01*
X118351Y34298D01*
X118347Y34294D01*
X118344Y34291D01*
X118333Y34280D01*
X118322Y34269D01*
X118304Y34251D01*
X118282Y34236D01*
X118231Y34196D01*
X118165Y34156D01*
X118085Y34119D01*
X117994Y34087D01*
X117892Y34065D01*
X117867Y34374D01*
X117870D01*
X117874Y34378D01*
X117896Y34382D01*
X117929Y34392D01*
X117969Y34407D01*
X118012Y34422D01*
X118056Y34444D01*
X118096Y34469D01*
X118129Y34494D01*
X118136Y34502D01*
X118151Y34516D01*
X118173Y34542D01*
X118198Y34578D01*
X118220Y34626D01*
X118242Y34676D01*
X118256Y34738D01*
X118263Y34804D01*
Y34829D01*
X118260Y34858D01*
X118253Y34891D01*
X118242Y34935D01*
X118227Y34979D01*
X118209Y35022D01*
X118180Y35066D01*
X118176Y35073D01*
X118162Y35091D01*
X118136Y35117D01*
X118100Y35150D01*
X118056Y35186D01*
X118005Y35226D01*
X117940Y35263D01*
X117867Y35299D01*
X117863D01*
X117856Y35302D01*
X117845Y35306D01*
X117830Y35313D01*
X117808Y35317D01*
X117783Y35324D01*
X117754Y35332D01*
X117718Y35339D01*
X117677Y35350D01*
X117634Y35357D01*
X117587Y35364D01*
X117535Y35368D01*
X117477Y35375D01*
X117419Y35379D01*
X117353Y35383D01*
X117288D01*
X117292Y35379D01*
X117314Y35364D01*
X117343Y35339D01*
X117379Y35306D01*
X117423Y35270D01*
X117463Y35222D01*
X117503Y35171D01*
X117539Y35113D01*
Y35110D01*
X117543Y35106D01*
X117554Y35084D01*
X117565Y35051D01*
X117583Y35008D01*
X117597Y34957D01*
X117608Y34898D01*
X117619Y34837D01*
X117623Y34771D01*
Y34742D01*
X117619Y34720D01*
X117616Y34691D01*
X117612Y34662D01*
X117605Y34626D01*
X117594Y34589D01*
X117568Y34505D01*
X117550Y34462D01*
X117525Y34418D01*
X117499Y34374D01*
X117470Y34327D01*
X117434Y34283D01*
X117394Y34243D01*
X117390Y34240D01*
X117383Y34232D01*
X117372Y34221D01*
X117353Y34211D01*
X117328Y34192D01*
X117303Y34174D01*
X117270Y34156D01*
X117233Y34134D01*
X117193Y34112D01*
X117150Y34094D01*
X117099Y34076D01*
X117048Y34058D01*
X116993Y34047D01*
X116931Y34036D01*
X116869Y34029D01*
X116804Y34025D01*
X116800D01*
X116793D01*
X116782D01*
X116764D01*
X116742Y34029D01*
X116720D01*
X116662Y34039D01*
X116593Y34050D01*
X116520Y34069D01*
X116440Y34094D01*
X116363Y34130D01*
X116360D01*
X116356Y34134D01*
X116345Y34141D01*
X116331Y34149D01*
X116294Y34170D01*
X116247Y34203D01*
X116196Y34243D01*
X116145Y34291D01*
X116094Y34349D01*
X116050Y34411D01*
Y34414D01*
X116047Y34418D01*
X116040Y34429D01*
X116036Y34444D01*
X116018Y34480D01*
X115999Y34527D01*
X115978Y34589D01*
X115963Y34658D01*
X115948Y34735D01*
X115945Y34818D01*
Y34837D01*
X115948Y34855D01*
Y34884D01*
X115952Y34917D01*
X115959Y34953D01*
X115970Y34997D01*
X115981Y35040D01*
X115996Y35091D01*
X116014Y35142D01*
X116036Y35193D01*
X116065Y35248D01*
X116098Y35299D01*
X116134Y35350D01*
X116178Y35401D01*
X116229Y35448D01*
X116232Y35452D01*
X116243Y35459D01*
X116258Y35470D01*
X116283Y35484D01*
X116316Y35506D01*
X116352Y35524D01*
X116400Y35546D01*
X116451Y35568D01*
X116513Y35594D01*
X116582Y35616D01*
X116658Y35634D01*
X116742Y35652D01*
X116837Y35670D01*
X116939Y35681D01*
X117048Y35688D01*
X117164Y35692D01*
X117168D01*
X117172D01*
X117182D01*
X117197D01*
X117233Y35688D01*
D02*
G37*
G36*
X83778Y45315D02*
X83469D01*
Y47284D01*
X83465Y47280D01*
X83447Y47266D01*
X83425Y47244D01*
X83389Y47219D01*
X83348Y47186D01*
X83297Y47150D01*
X83239Y47109D01*
X83174Y47069D01*
X83170D01*
X83166Y47066D01*
X83145Y47051D01*
X83108Y47033D01*
X83065Y47011D01*
X83013Y46986D01*
X82959Y46960D01*
X82904Y46935D01*
X82850Y46913D01*
Y47211D01*
X82853D01*
X82861Y47219D01*
X82875Y47222D01*
X82893Y47233D01*
X82915Y47244D01*
X82941Y47259D01*
X83003Y47295D01*
X83075Y47335D01*
X83148Y47386D01*
X83225Y47444D01*
X83301Y47506D01*
X83305Y47510D01*
X83308Y47513D01*
X83319Y47524D01*
X83334Y47535D01*
X83367Y47572D01*
X83410Y47615D01*
X83454Y47666D01*
X83501Y47725D01*
X83541Y47783D01*
X83578Y47845D01*
X83778D01*
Y45315D01*
D02*
G37*
G36*
X81103Y45613D02*
X82344D01*
Y45315D01*
X80768D01*
Y47834D01*
X81103D01*
Y45613D01*
D02*
G37*
%LPC*%
G36*
X143532Y84641D02*
X143528D01*
X143521D01*
X143506D01*
X143488Y84637D01*
X143462D01*
X143437Y84633D01*
X143379Y84622D01*
X143309Y84608D01*
X143237Y84582D01*
X143167Y84546D01*
X143106Y84499D01*
X143102D01*
X143098Y84491D01*
X143080Y84473D01*
X143055Y84444D01*
X143026Y84404D01*
X143000Y84353D01*
X142974Y84295D01*
X142956Y84229D01*
X142949Y84193D01*
Y84135D01*
X142953Y84120D01*
X142956Y84080D01*
X142971Y84033D01*
X142989Y83974D01*
X143022Y83912D01*
X143062Y83851D01*
X143091Y83822D01*
X143120Y83792D01*
X143124D01*
X143127Y83785D01*
X143138Y83778D01*
X143149Y83771D01*
X143186Y83745D01*
X143237Y83720D01*
X143298Y83691D01*
X143375Y83665D01*
X143462Y83650D01*
X143557Y83643D01*
X143561D01*
X143568D01*
X143579D01*
X143597Y83647D01*
X143619D01*
X143641Y83650D01*
X143695Y83661D01*
X143757Y83680D01*
X143823Y83701D01*
X143888Y83738D01*
X143946Y83785D01*
X143954Y83792D01*
X143968Y83811D01*
X143994Y83843D01*
X144019Y83883D01*
X144048Y83938D01*
X144074Y84000D01*
X144088Y84069D01*
X144096Y84145D01*
Y84167D01*
X144092Y84182D01*
X144088Y84222D01*
X144078Y84269D01*
X144059Y84328D01*
X144034Y84386D01*
X143997Y84444D01*
X143946Y84499D01*
X143939Y84506D01*
X143917Y84520D01*
X143885Y84542D01*
X143837Y84571D01*
X143779Y84597D01*
X143710Y84619D01*
X143626Y84633D01*
X143532Y84641D01*
D02*
G37*
G36*
X81322Y110966D02*
X81300D01*
X81285Y110962D01*
X81249Y110955D01*
X81198Y110940D01*
X81143Y110915D01*
X81081Y110878D01*
X81052Y110856D01*
X81023Y110827D01*
X80994Y110798D01*
X80965Y110762D01*
Y110758D01*
X80958Y110751D01*
X80950Y110740D01*
X80943Y110722D01*
X80928Y110696D01*
X80918Y110664D01*
X80903Y110627D01*
X80888Y110583D01*
X80878Y110529D01*
X80863Y110471D01*
X80848Y110401D01*
X80838Y110329D01*
X80830Y110241D01*
X80823Y110150D01*
X80816Y110048D01*
Y109936D01*
Y109932D01*
Y109928D01*
Y109910D01*
Y109877D01*
X80819Y109834D01*
Y109786D01*
X80823Y109728D01*
X80827Y109666D01*
X80834Y109597D01*
X80852Y109459D01*
X80863Y109390D01*
X80878Y109324D01*
X80892Y109262D01*
X80914Y109204D01*
X80936Y109153D01*
X80961Y109109D01*
Y109106D01*
X80969Y109102D01*
X80976Y109091D01*
X80987Y109077D01*
X81020Y109044D01*
X81060Y109004D01*
X81114Y108967D01*
X81176Y108935D01*
X81209Y108920D01*
X81245Y108909D01*
X81285Y108905D01*
X81325Y108902D01*
X81347D01*
X81362Y108905D01*
X81402Y108913D01*
X81449Y108924D01*
X81504Y108946D01*
X81562Y108978D01*
X81591Y109000D01*
X81620Y109022D01*
X81646Y109051D01*
X81671Y109084D01*
Y109088D01*
X81678Y109095D01*
X81686Y109109D01*
X81697Y109127D01*
X81708Y109157D01*
X81722Y109189D01*
X81733Y109229D01*
X81748Y109277D01*
X81762Y109331D01*
X81777Y109393D01*
X81791Y109462D01*
X81802Y109539D01*
X81813Y109626D01*
X81820Y109721D01*
X81824Y109823D01*
X81828Y109936D01*
Y109943D01*
Y109961D01*
Y109994D01*
X81824Y110038D01*
Y110085D01*
X81820Y110143D01*
X81817Y110205D01*
X81809Y110271D01*
X81791Y110412D01*
X81780Y110482D01*
X81766Y110547D01*
X81751Y110609D01*
X81729Y110667D01*
X81708Y110718D01*
X81682Y110762D01*
Y110766D01*
X81675Y110769D01*
X81656Y110795D01*
X81624Y110827D01*
X81584Y110864D01*
X81529Y110900D01*
X81467Y110933D01*
X81398Y110958D01*
X81362Y110962D01*
X81322Y110966D01*
D02*
G37*
G36*
X133353Y84564D02*
X133350D01*
X133346D01*
X133324D01*
X133291Y84557D01*
X133251Y84549D01*
X133207Y84535D01*
X133160Y84513D01*
X133113Y84484D01*
X133066Y84444D01*
X133062Y84440D01*
X133047Y84422D01*
X133029Y84397D01*
X133007Y84364D01*
X132985Y84320D01*
X132967Y84273D01*
X132953Y84215D01*
X132949Y84153D01*
Y84124D01*
X132956Y84091D01*
X132964Y84047D01*
X132978Y84000D01*
X132996Y83949D01*
X133026Y83902D01*
X133066Y83854D01*
X133069Y83851D01*
X133084Y83836D01*
X133109Y83818D01*
X133142Y83800D01*
X133182Y83778D01*
X133229Y83760D01*
X133280Y83745D01*
X133339Y83741D01*
X133342D01*
X133346D01*
X133368Y83745D01*
X133400Y83749D01*
X133440Y83756D01*
X133488Y83771D01*
X133535Y83789D01*
X133586Y83818D01*
X133630Y83854D01*
X133633Y83858D01*
X133648Y83876D01*
X133666Y83902D01*
X133684Y83934D01*
X133706Y83978D01*
X133724Y84029D01*
X133739Y84087D01*
X133743Y84153D01*
Y84160D01*
X133739Y84182D01*
X133735Y84215D01*
X133728Y84258D01*
X133713Y84306D01*
X133695Y84353D01*
X133666Y84404D01*
X133630Y84448D01*
X133626Y84451D01*
X133608Y84466D01*
X133586Y84484D01*
X133553Y84506D01*
X133513Y84528D01*
X133466Y84546D01*
X133411Y84561D01*
X133353Y84564D01*
D02*
G37*
G36*
X134511Y84666D02*
X134507D01*
X134500D01*
X134489D01*
X134474Y84662D01*
X134434Y84659D01*
X134380Y84648D01*
X134325Y84630D01*
X134263Y84604D01*
X134201Y84568D01*
X134143Y84517D01*
X134136Y84509D01*
X134121Y84491D01*
X134096Y84459D01*
X134067Y84415D01*
X134041Y84360D01*
X134016Y84295D01*
X134001Y84222D01*
X133994Y84142D01*
Y84120D01*
X133997Y84105D01*
X134001Y84065D01*
X134012Y84014D01*
X134030Y83956D01*
X134056Y83898D01*
X134092Y83836D01*
X134139Y83781D01*
X134147Y83774D01*
X134165Y83760D01*
X134198Y83738D01*
X134238Y83712D01*
X134292Y83683D01*
X134354Y83661D01*
X134423Y83647D01*
X134500Y83640D01*
X134507D01*
X134522D01*
X134547Y83643D01*
X134580Y83647D01*
X134620Y83654D01*
X134663Y83665D01*
X134707Y83680D01*
X134755Y83698D01*
X134758Y83701D01*
X134776Y83709D01*
X134798Y83723D01*
X134824Y83745D01*
X134856Y83771D01*
X134889Y83803D01*
X134918Y83840D01*
X134947Y83883D01*
X134951Y83891D01*
X134958Y83905D01*
X134969Y83931D01*
X134980Y83964D01*
X134991Y84004D01*
X135002Y84051D01*
X135009Y84102D01*
X135013Y84153D01*
Y84175D01*
X135009Y84189D01*
X135006Y84233D01*
X134995Y84284D01*
X134976Y84342D01*
X134955Y84404D01*
X134918Y84462D01*
X134871Y84520D01*
X134864Y84528D01*
X134845Y84542D01*
X134813Y84568D01*
X134773Y84593D01*
X134722Y84619D01*
X134660Y84644D01*
X134587Y84659D01*
X134511Y84666D01*
D02*
G37*
G36*
X49810Y56383D02*
X49016D01*
Y55255D01*
X49810Y56383D01*
D02*
G37*
G36*
X116804Y35335D02*
X116797D01*
X116778D01*
X116746Y35332D01*
X116706Y35328D01*
X116658Y35321D01*
X116607Y35306D01*
X116553Y35292D01*
X116498Y35270D01*
X116491Y35266D01*
X116473Y35255D01*
X116447Y35241D01*
X116414Y35219D01*
X116382Y35193D01*
X116342Y35160D01*
X116309Y35124D01*
X116276Y35081D01*
X116272Y35073D01*
X116265Y35059D01*
X116251Y35033D01*
X116240Y35000D01*
X116225Y34964D01*
X116210Y34920D01*
X116203Y34873D01*
X116200Y34822D01*
Y34804D01*
X116203Y34789D01*
X116207Y34753D01*
X116218Y34705D01*
X116240Y34655D01*
X116265Y34596D01*
X116305Y34538D01*
X116327Y34509D01*
X116356Y34484D01*
X116360D01*
X116363Y34476D01*
X116385Y34462D01*
X116422Y34440D01*
X116469Y34411D01*
X116531Y34385D01*
X116604Y34363D01*
X116687Y34349D01*
X116786Y34341D01*
X116789D01*
X116797D01*
X116811D01*
X116829Y34345D01*
X116851D01*
X116877Y34349D01*
X116935Y34360D01*
X117000Y34374D01*
X117070Y34400D01*
X117135Y34436D01*
X117197Y34484D01*
X117204Y34491D01*
X117222Y34509D01*
X117244Y34538D01*
X117273Y34578D01*
X117303Y34629D01*
X117324Y34687D01*
X117343Y34756D01*
X117350Y34833D01*
Y34855D01*
X117346Y34869D01*
X117343Y34906D01*
X117332Y34957D01*
X117314Y35011D01*
X117284Y35073D01*
X117248Y35131D01*
X117197Y35190D01*
X117190Y35197D01*
X117172Y35212D01*
X117139Y35237D01*
X117091Y35263D01*
X117037Y35288D01*
X116968Y35313D01*
X116891Y35328D01*
X116804Y35335D01*
D02*
G37*
%LPD*%
D11*
X34725Y36237D02*
X46371D01*
Y30496D02*
Y36237D01*
X34725Y30496D02*
X46371D01*
X34725D02*
Y36237D01*
X133397Y90992D02*
Y102638D01*
X139138D01*
Y90992D02*
Y102638D01*
X133397Y90992D02*
X139138D01*
X140236Y72338D02*
X150300D01*
Y89292D01*
X140236D02*
X150300D01*
X140236Y72338D02*
Y89292D01*
X74885Y132661D02*
X86532D01*
X74885D02*
Y138402D01*
X86532D01*
Y132661D02*
Y138402D01*
X90240Y135023D02*
Y146670D01*
X95981D01*
Y135023D02*
Y146670D01*
X90240Y135023D02*
X95981D01*
X80791Y108350D02*
X92437D01*
X80791D02*
Y114091D01*
X92437D01*
Y108350D02*
Y114091D01*
X132397Y74992D02*
X138138D01*
Y86638D01*
X132397D02*
X138138D01*
X132397Y74992D02*
Y86638D01*
X44041Y71445D02*
X60995D01*
X44041D02*
Y81509D01*
X60995D01*
Y71445D02*
Y81509D01*
X44041Y61981D02*
X60995D01*
X44041D02*
Y72045D01*
X60995D01*
Y61981D02*
Y72045D01*
X46695Y54444D02*
X58341D01*
X46695D02*
Y60185D01*
X58341D01*
Y54444D02*
Y60185D01*
X98732Y46613D02*
X108796D01*
X98732Y29659D02*
Y46613D01*
Y29659D02*
X108796D01*
Y46613D01*
X110913Y46666D02*
X120977D01*
X110913Y29712D02*
Y46666D01*
Y29712D02*
X120977D01*
Y46666D01*
X65610Y58898D02*
X95925D01*
Y31732D02*
Y58898D01*
X65610Y31732D02*
X95925D01*
X65610D02*
Y58898D01*
M02*
