G04*
G04 #@! TF.GenerationSoftware,Altium Limited,Altium Designer,21.5.1 (32)*
G04*
G04 Layer_Color=255*
%FSLAX25Y25*%
%MOIN*%
G70*
G04*
G04 #@! TF.SameCoordinates,57825C85-18FE-47E2-A138-B6FF28981A54*
G04*
G04*
G04 #@! TF.FilePolarity,Positive*
G04*
G01*
G75*
%ADD91C,0.05906*%
%ADD92R,0.05906X0.05906*%
%ADD93R,0.05906X0.05906*%
%ADD94R,0.06299X0.06299*%
%ADD95C,0.06299*%
%ADD101R,0.01968X0.01968*%
D91*
X301824Y19610D02*
D03*
Y29610D02*
D03*
X311824Y19610D02*
D03*
Y29610D02*
D03*
X321824Y19610D02*
D03*
Y29610D02*
D03*
X331824Y19610D02*
D03*
X258007D02*
D03*
Y29610D02*
D03*
X268007Y19610D02*
D03*
Y29610D02*
D03*
X278007Y19610D02*
D03*
Y29610D02*
D03*
X288007Y19610D02*
D03*
X174191D02*
D03*
Y29610D02*
D03*
X184191Y19610D02*
D03*
Y29610D02*
D03*
X194191Y19610D02*
D03*
Y29610D02*
D03*
X204191Y19610D02*
D03*
X129610D02*
D03*
Y29610D02*
D03*
X139610Y19610D02*
D03*
Y29610D02*
D03*
X149610Y19610D02*
D03*
Y29610D02*
D03*
X159610Y19610D02*
D03*
X324902Y130276D02*
D03*
Y120276D02*
D03*
Y110276D02*
D03*
X346555Y136870D02*
D03*
Y126870D02*
D03*
Y116870D02*
D03*
Y106870D02*
D03*
X312244Y167913D02*
D03*
X302244D02*
D03*
X292244D02*
D03*
X282244D02*
D03*
X272244D02*
D03*
X262244D02*
D03*
X252244D02*
D03*
X242244D02*
D03*
X232244D02*
D03*
X222244D02*
D03*
X212244D02*
D03*
X202244D02*
D03*
X192244D02*
D03*
X182244D02*
D03*
X172244D02*
D03*
X312244Y75394D02*
D03*
X302244D02*
D03*
X292244D02*
D03*
X282244D02*
D03*
X272244D02*
D03*
X262244D02*
D03*
X252244D02*
D03*
X242244D02*
D03*
X232244D02*
D03*
X222244D02*
D03*
X212244D02*
D03*
X202244D02*
D03*
X192244D02*
D03*
X182244D02*
D03*
X172244D02*
D03*
X301824Y9610D02*
D03*
X311824D02*
D03*
X321824D02*
D03*
X258007D02*
D03*
X268007D02*
D03*
X278007D02*
D03*
X174191D02*
D03*
X184191D02*
D03*
X194191D02*
D03*
X149610D02*
D03*
X139610D02*
D03*
X129610D02*
D03*
D92*
X331824Y29610D02*
D03*
X288007D02*
D03*
X204191D02*
D03*
X159610D02*
D03*
X322244Y167913D02*
D03*
Y75394D02*
D03*
X331824Y9610D02*
D03*
X288007D02*
D03*
X204191D02*
D03*
X159610D02*
D03*
D93*
X324902Y100276D02*
D03*
X346555Y96870D02*
D03*
D94*
X24768Y104500D02*
D03*
D95*
Y84815D02*
D03*
D101*
X274561Y98130D02*
D03*
X271161D02*
D03*
X274660Y103051D02*
D03*
X271260D02*
D03*
X189048Y106988D02*
D03*
X192448D02*
D03*
X189048Y121850D02*
D03*
X192448D02*
D03*
X189737Y132283D02*
D03*
X193137D02*
D03*
X189737Y137402D02*
D03*
X193137D02*
D03*
Y142224D02*
D03*
X189737D02*
D03*
M02*
