G04*
G04 #@! TF.GenerationSoftware,Altium Limited,Altium Designer,21.5.1 (32)*
G04*
G04 Layer_Color=255*
%FSLAX25Y25*%
%MOIN*%
G70*
G04*
G04 #@! TF.SameCoordinates,57825C85-18FE-47E2-A138-B6FF28981A54*
G04*
G04*
G04 #@! TF.FilePolarity,Positive*
G04*
G01*
G75*
G04:AMPARAMS|DCode=18|XSize=43.31mil|YSize=23.62mil|CornerRadius=2.01mil|HoleSize=0mil|Usage=FLASHONLY|Rotation=180.000|XOffset=0mil|YOffset=0mil|HoleType=Round|Shape=RoundedRectangle|*
%AMROUNDEDRECTD18*
21,1,0.04331,0.01961,0,0,180.0*
21,1,0.03929,0.02362,0,0,180.0*
1,1,0.00402,-0.01965,0.00980*
1,1,0.00402,0.01965,0.00980*
1,1,0.00402,0.01965,-0.00980*
1,1,0.00402,-0.01965,-0.00980*
%
%ADD18ROUNDEDRECTD18*%
%ADD19C,0.03937*%
%ADD20R,0.02244X0.01614*%
%ADD21R,0.02244X0.01024*%
%ADD22R,0.01614X0.02244*%
%ADD23R,0.01024X0.02244*%
%ADD24R,0.02953X0.03347*%
%ADD25R,0.19685X0.19685*%
%ADD26R,0.03543X0.07874*%
%ADD27R,0.03963X0.03773*%
%ADD28R,0.03150X0.03150*%
%ADD29O,0.06496X0.02559*%
%ADD30R,0.03773X0.03963*%
%ADD31R,0.05315X0.01575*%
%ADD32R,0.05315X0.02362*%
%ADD33R,0.02165X0.02362*%
%ADD34R,0.06127X0.05924*%
G04:AMPARAMS|DCode=35|XSize=37.4mil|YSize=39.37mil|CornerRadius=9.35mil|HoleSize=0mil|Usage=FLASHONLY|Rotation=0.000|XOffset=0mil|YOffset=0mil|HoleType=Round|Shape=RoundedRectangle|*
%AMROUNDEDRECTD35*
21,1,0.03740,0.02067,0,0,0.0*
21,1,0.01870,0.03937,0,0,0.0*
1,1,0.01870,0.00935,-0.01034*
1,1,0.01870,-0.00935,-0.01034*
1,1,0.01870,-0.00935,0.01034*
1,1,0.01870,0.00935,0.01034*
%
%ADD35ROUNDEDRECTD35*%
%ADD36R,0.01181X0.04147*%
%ADD37R,0.04147X0.01181*%
%ADD38R,0.06000X0.06000*%
%ADD39R,0.03347X0.02953*%
G04:AMPARAMS|DCode=40|XSize=50mil|YSize=30mil|CornerRadius=7.5mil|HoleSize=0mil|Usage=FLASHONLY|Rotation=90.000|XOffset=0mil|YOffset=0mil|HoleType=Round|Shape=RoundedRectangle|*
%AMROUNDEDRECTD40*
21,1,0.05000,0.01500,0,0,90.0*
21,1,0.03500,0.03000,0,0,90.0*
1,1,0.01500,0.00750,0.01750*
1,1,0.01500,0.00750,-0.01750*
1,1,0.01500,-0.00750,-0.01750*
1,1,0.01500,-0.00750,0.01750*
%
%ADD40ROUNDEDRECTD40*%
G04:AMPARAMS|DCode=41|XSize=50mil|YSize=30mil|CornerRadius=7.5mil|HoleSize=0mil|Usage=FLASHONLY|Rotation=0.000|XOffset=0mil|YOffset=0mil|HoleType=Round|Shape=RoundedRectangle|*
%AMROUNDEDRECTD41*
21,1,0.05000,0.01500,0,0,0.0*
21,1,0.03500,0.03000,0,0,0.0*
1,1,0.01500,0.01750,-0.00750*
1,1,0.01500,-0.01750,-0.00750*
1,1,0.01500,-0.01750,0.00750*
1,1,0.01500,0.01750,0.00750*
%
%ADD41ROUNDEDRECTD41*%
%ADD42R,0.01181X0.01181*%
%ADD43R,0.01772X0.05433*%
%ADD44R,0.05610X0.06102*%
%ADD45R,0.03937X0.07480*%
%ADD46R,0.07087X0.07480*%
%ADD47R,0.06496X0.05118*%
%ADD48R,0.04331X0.05512*%
%ADD49R,0.03543X0.05512*%
%ADD50R,0.07480X0.12598*%
%ADD51R,0.07480X0.03543*%
%ADD52R,0.05924X0.06127*%
%ADD53R,0.07284X0.13386*%
G04:AMPARAMS|DCode=54|XSize=118.9mil|YSize=38.19mil|CornerRadius=9.55mil|HoleSize=0mil|Usage=FLASHONLY|Rotation=270.000|XOffset=0mil|YOffset=0mil|HoleType=Round|Shape=RoundedRectangle|*
%AMROUNDEDRECTD54*
21,1,0.11890,0.01909,0,0,270.0*
21,1,0.09980,0.03819,0,0,270.0*
1,1,0.01909,-0.00955,-0.04990*
1,1,0.01909,-0.00955,0.04990*
1,1,0.01909,0.00955,0.04990*
1,1,0.01909,0.00955,-0.04990*
%
%ADD54ROUNDEDRECTD54*%
%ADD88R,0.20039X0.24882*%
%ADD91C,0.05906*%
%ADD92R,0.05906X0.05906*%
%ADD93R,0.05906X0.05906*%
%ADD94R,0.06299X0.06299*%
%ADD95C,0.06299*%
D18*
X44638Y41835D02*
D03*
Y45575D02*
D03*
Y49315D02*
D03*
X55268D02*
D03*
Y45575D02*
D03*
Y41835D02*
D03*
D19*
X124768Y41815D02*
D03*
X167224Y149803D02*
D03*
X175984D02*
D03*
X32768Y66315D02*
D03*
D20*
X134961Y116437D02*
D03*
X131575D02*
D03*
X134961Y109941D02*
D03*
X131575D02*
D03*
X134961Y135827D02*
D03*
X131575D02*
D03*
X134961Y129331D02*
D03*
X131575D02*
D03*
X174252Y67224D02*
D03*
X170866D02*
D03*
X174252Y60728D02*
D03*
X170866D02*
D03*
X283760Y59055D02*
D03*
X287146D02*
D03*
X283760Y65551D02*
D03*
X287146D02*
D03*
D21*
X134961Y114173D02*
D03*
Y112205D02*
D03*
X131575Y114173D02*
D03*
Y112205D02*
D03*
X134961Y133563D02*
D03*
Y131595D02*
D03*
X131575Y133563D02*
D03*
Y131595D02*
D03*
X174252Y64961D02*
D03*
Y62992D02*
D03*
X170866Y64961D02*
D03*
Y62992D02*
D03*
X283760Y61319D02*
D03*
Y63287D02*
D03*
X287146Y61319D02*
D03*
Y63287D02*
D03*
D22*
X313091Y44114D02*
D03*
Y40728D02*
D03*
X319587Y44114D02*
D03*
Y40728D02*
D03*
X187303Y45295D02*
D03*
Y41909D02*
D03*
X193799Y45295D02*
D03*
Y41909D02*
D03*
X268012Y44035D02*
D03*
Y40650D02*
D03*
X274508Y44035D02*
D03*
Y40650D02*
D03*
X145571Y48228D02*
D03*
Y44842D02*
D03*
X152067Y48228D02*
D03*
Y44842D02*
D03*
D23*
X315354Y44114D02*
D03*
X317323D02*
D03*
X315354Y40728D02*
D03*
X317323D02*
D03*
X189567Y45295D02*
D03*
X191535D02*
D03*
X189567Y41909D02*
D03*
X191535D02*
D03*
X270276Y44035D02*
D03*
X272244D02*
D03*
X270276Y40650D02*
D03*
X272244D02*
D03*
X147835Y48228D02*
D03*
X149803D02*
D03*
X147835Y44842D02*
D03*
X149803D02*
D03*
D24*
X329232Y153051D02*
D03*
X324114D02*
D03*
X64665Y153248D02*
D03*
X59547D02*
D03*
X31327Y52815D02*
D03*
X26209D02*
D03*
X289665Y41339D02*
D03*
X294783D02*
D03*
X36220Y124409D02*
D03*
X31102D02*
D03*
X31201Y130118D02*
D03*
X36319D02*
D03*
X51673Y153347D02*
D03*
X46555D02*
D03*
X88976Y127264D02*
D03*
X83858D02*
D03*
X101083Y110433D02*
D03*
X106201D02*
D03*
X88976Y119685D02*
D03*
X83858D02*
D03*
X26209Y59315D02*
D03*
X31327D02*
D03*
D25*
X250827Y125768D02*
D03*
D26*
X280354Y88366D02*
D03*
X275354D02*
D03*
X270354D02*
D03*
X265354D02*
D03*
X260354D02*
D03*
X255354D02*
D03*
X250354D02*
D03*
X245354D02*
D03*
X240354D02*
D03*
X235354D02*
D03*
X230354D02*
D03*
X225354D02*
D03*
X220354D02*
D03*
X215354D02*
D03*
X210354D02*
D03*
X205354D02*
D03*
X200354D02*
D03*
X195354D02*
D03*
X190354D02*
D03*
Y155295D02*
D03*
X195354D02*
D03*
X200354D02*
D03*
X205354D02*
D03*
X210354D02*
D03*
X215354D02*
D03*
X220354D02*
D03*
X225354D02*
D03*
X230354D02*
D03*
X235354D02*
D03*
X240354D02*
D03*
X245354D02*
D03*
X250354D02*
D03*
X255354D02*
D03*
X260354D02*
D03*
X265354D02*
D03*
X270354D02*
D03*
X275354D02*
D03*
X280354D02*
D03*
D27*
X37690Y33366D02*
D03*
X43406D02*
D03*
X83566Y135531D02*
D03*
X77851D02*
D03*
X89472Y111221D02*
D03*
X83757D02*
D03*
X55376Y57315D02*
D03*
X49660D02*
D03*
D28*
X323917Y146752D02*
D03*
X329823D02*
D03*
X143799Y121407D02*
D03*
X149705D02*
D03*
X143799Y113976D02*
D03*
X149705D02*
D03*
X143799Y143700D02*
D03*
X149705D02*
D03*
X143799Y136269D02*
D03*
X149705D02*
D03*
X143799Y128838D02*
D03*
X149705D02*
D03*
X143799Y99114D02*
D03*
X149705D02*
D03*
X143799Y106545D02*
D03*
X149705D02*
D03*
D29*
X156299Y142303D02*
D03*
Y137303D02*
D03*
Y132303D02*
D03*
Y127303D02*
D03*
Y122303D02*
D03*
Y117303D02*
D03*
Y112303D02*
D03*
Y107303D02*
D03*
X178543Y142303D02*
D03*
Y137303D02*
D03*
Y132303D02*
D03*
Y127303D02*
D03*
Y122303D02*
D03*
Y117303D02*
D03*
Y112303D02*
D03*
Y107303D02*
D03*
D30*
X136268Y93957D02*
D03*
Y99673D02*
D03*
X93110Y137989D02*
D03*
Y143704D02*
D03*
X135268Y83673D02*
D03*
Y77957D02*
D03*
D31*
X243012Y55512D02*
D03*
Y58071D02*
D03*
Y60630D02*
D03*
Y52953D02*
D03*
Y50394D02*
D03*
X219980D02*
D03*
Y52953D02*
D03*
Y60630D02*
D03*
Y58071D02*
D03*
Y55512D02*
D03*
Y47835D02*
D03*
Y45276D02*
D03*
Y42717D02*
D03*
Y40157D02*
D03*
Y32480D02*
D03*
Y35039D02*
D03*
Y37598D02*
D03*
X243012D02*
D03*
Y35039D02*
D03*
Y32480D02*
D03*
Y40157D02*
D03*
Y42717D02*
D03*
Y45276D02*
D03*
Y47835D02*
D03*
D32*
X219980Y63583D02*
D03*
Y29528D02*
D03*
X243012D02*
D03*
Y63583D02*
D03*
D33*
X249508Y63189D02*
D03*
X252854D02*
D03*
D34*
X145268Y84361D02*
D03*
Y77269D02*
D03*
X103764Y34590D02*
D03*
Y41682D02*
D03*
X115945Y34643D02*
D03*
Y41735D02*
D03*
D35*
X32185Y137697D02*
D03*
X39665Y137697D02*
D03*
X35925Y146555D02*
D03*
X49606Y137598D02*
D03*
X57087Y137598D02*
D03*
X53347Y146457D02*
D03*
D36*
X112311Y118897D02*
D03*
Y135051D02*
D03*
X110343D02*
D03*
X108374D02*
D03*
X106405D02*
D03*
X104437D02*
D03*
X102469D02*
D03*
Y118897D02*
D03*
X104437D02*
D03*
X106405D02*
D03*
X108374D02*
D03*
X110343D02*
D03*
D37*
X99313Y131895D02*
D03*
Y129927D02*
D03*
Y127958D02*
D03*
Y125990D02*
D03*
Y124021D02*
D03*
Y122053D02*
D03*
X115467Y124021D02*
D03*
Y125990D02*
D03*
Y127958D02*
D03*
Y129927D02*
D03*
Y131895D02*
D03*
Y122053D02*
D03*
D38*
X107390Y126974D02*
D03*
D39*
X24016Y137303D02*
D03*
Y142421D02*
D03*
X34055Y45571D02*
D03*
Y40453D02*
D03*
D40*
X9497Y142457D02*
D03*
Y125457D02*
D03*
X15897Y142457D02*
D03*
Y125457D02*
D03*
D41*
X55878Y168408D02*
D03*
X38878D02*
D03*
X55878Y162008D02*
D03*
X38878D02*
D03*
D42*
X107827Y149323D02*
D03*
X105858D02*
D03*
X107827Y145780D02*
D03*
X105858D02*
D03*
D43*
X100224Y156551D02*
D03*
X102784D02*
D03*
X105342D02*
D03*
X107902D02*
D03*
X110461D02*
D03*
D44*
X95549Y156886D02*
D03*
X115136D02*
D03*
D45*
X99240Y167024D02*
D03*
D46*
X109870D02*
D03*
D47*
X92055D02*
D03*
X118630D02*
D03*
D48*
X78051Y144587D02*
D03*
D49*
X84744D02*
D03*
Y153248D02*
D03*
X77264D02*
D03*
D50*
X102154Y84315D02*
D03*
D51*
X125382Y93370D02*
D03*
Y84315D02*
D03*
Y75260D02*
D03*
D52*
X56064Y76477D02*
D03*
X48972D02*
D03*
X56064Y67013D02*
D03*
X48972D02*
D03*
D53*
X69842Y45315D02*
D03*
X91693D02*
D03*
D54*
X49268Y89315D02*
D03*
X67268D02*
D03*
D88*
X58268Y115024D02*
D03*
D91*
X301824Y19610D02*
D03*
Y29610D02*
D03*
X311824Y19610D02*
D03*
Y29610D02*
D03*
X321824Y19610D02*
D03*
Y29610D02*
D03*
X331824Y19610D02*
D03*
X258007D02*
D03*
Y29610D02*
D03*
X268007Y19610D02*
D03*
Y29610D02*
D03*
X278007Y19610D02*
D03*
Y29610D02*
D03*
X288007Y19610D02*
D03*
X174191D02*
D03*
Y29610D02*
D03*
X184191Y19610D02*
D03*
Y29610D02*
D03*
X194191Y19610D02*
D03*
Y29610D02*
D03*
X204191Y19610D02*
D03*
X129610D02*
D03*
Y29610D02*
D03*
X139610Y19610D02*
D03*
Y29610D02*
D03*
X149610Y19610D02*
D03*
Y29610D02*
D03*
X159610Y19610D02*
D03*
X324902Y130276D02*
D03*
Y120276D02*
D03*
Y110276D02*
D03*
X346555Y136870D02*
D03*
Y126870D02*
D03*
Y116870D02*
D03*
Y106870D02*
D03*
X312244Y167913D02*
D03*
X302244D02*
D03*
X292244D02*
D03*
X282244D02*
D03*
X272244D02*
D03*
X262244D02*
D03*
X252244D02*
D03*
X242244D02*
D03*
X232244D02*
D03*
X222244D02*
D03*
X212244D02*
D03*
X202244D02*
D03*
X192244D02*
D03*
X182244D02*
D03*
X172244D02*
D03*
X312244Y75394D02*
D03*
X302244D02*
D03*
X292244D02*
D03*
X282244D02*
D03*
X272244D02*
D03*
X262244D02*
D03*
X252244D02*
D03*
X242244D02*
D03*
X232244D02*
D03*
X222244D02*
D03*
X212244D02*
D03*
X202244D02*
D03*
X192244D02*
D03*
X182244D02*
D03*
X172244D02*
D03*
X301824Y9610D02*
D03*
X311824D02*
D03*
X321824D02*
D03*
X258007D02*
D03*
X268007D02*
D03*
X278007D02*
D03*
X174191D02*
D03*
X184191D02*
D03*
X194191D02*
D03*
X149610D02*
D03*
X139610D02*
D03*
X129610D02*
D03*
D92*
X331824Y29610D02*
D03*
X288007D02*
D03*
X204191D02*
D03*
X159610D02*
D03*
X322244Y167913D02*
D03*
Y75394D02*
D03*
X331824Y9610D02*
D03*
X288007D02*
D03*
X204191D02*
D03*
X159610D02*
D03*
D93*
X324902Y100276D02*
D03*
X346555Y96870D02*
D03*
D94*
X24768Y104500D02*
D03*
D95*
Y84815D02*
D03*
M02*
