M48
;Layer_Color=9474304
;FILE_FORMAT=2:5
INCH,TZ
;TYPE=PLATED
T1F00S00C0.01200
T2F00S00C0.01600
T3F00S00C0.02800
T4F00S00C0.03543
T5F00S00C0.04331
T6F00S00C0.13000
%
T01
X230217Y57579
X232677Y60925
X236849Y63081
X252854Y60039
X249311Y50492
X284842Y41142
X291831Y62598
X265354Y98327
X265158Y102756
X249803Y94980
X205413Y95866
X184032Y107033
X183858Y112008
X183974Y117463
X184449Y122047
X189081Y127458
X170276Y120472
X162598Y98917
X134646Y121161
X134941Y124508
X126575Y118996
X121161Y121457
X121063Y129921
X107283Y126870
X91099Y123910
X122768Y46815
X63768Y40815
X49803Y37598
X26181Y64272
X28740Y142028
X44291Y138287
X54626Y142913
X64567Y142815
X70866Y142224
X78051Y144587
X78740Y130512
X62096Y137560
X93012Y143602
X104921Y140157
X108957Y143209
X126673Y140945
X126476Y150295
X139173
X163669Y142749
X93996Y158760
X186346Y147151
X185433Y137303
X184941Y132283
X203543Y137008
X200689Y148721
X205906Y161516
X221063Y148721
X239665Y139370
X243996Y132579
X250827Y132992
X258319Y132724
X252854Y144587
X269730Y146713
X275787Y148327
X279626Y148819
X325590Y141929
T02
X343528Y8547
X349925Y5988
X356126Y8153
X358784Y14846
X356004Y20866
X349803Y23720
X343406Y20866
X340945Y14961
X121268Y13815
X114268
X107268
X100268
X93268
X86268
X79268
X72268
X65268
X58268
X51268
X44268
X37268
X40768Y20815
X47768
X54768
X61768
X68768
X75768
X82768
X89768
X96768
X103768
X110768
X117768
X93268Y27815
X86268
X79268
X72268
X65268
X58268
X51268
X44268
X37268
X30268
X33768Y20815
X23228Y20472
X25787Y14862
X23031Y8465
X26768Y34815
X23268Y41815
X26768Y48815
X37268Y55815
X44268
X37268Y69815
X40768Y76815
X33768
X37268Y83815
X44268
X40768Y90815
X33768
X23268Y69815
X86268
X93268
X100268
X107268
X96768Y76815
X89768
X82768
X86268Y83815
X93268
X89768Y90815
X82768
X86268Y97815
X93268
X100268
X107268
X93268Y55815
X86268
X79268
X72268
X82768Y48815
X79268Y41815
X82768Y34815
X89768
X75768
X68768
X61768
X19768
X12768
X16268Y41815
X9268
X12768Y48815
X19768
X16268Y55815
X9268
X12768Y62815
X19768
X16268Y69815
X9268
X12768Y76815
X9268Y83815
X12768Y90815
X16634Y23524
X9843Y20472
X7579Y14764
X9843Y8465
X16634Y5807
X16732Y152067
X10335Y154823
X7677Y161221
X10335Y168012
X16634Y170276
X22343Y168012
X25394Y161221
X22343Y154626
X342913Y155413
X340354Y161024
X343110Y167421
X349508Y170079
X356299Y167421
X358563Y161122
X356299Y155413
X349508Y152362
T03
X125000Y71161
X112992Y105020
X113976Y146695
X90847Y132480
T04
X346555Y96870
Y106870
Y116870
Y126870
X324902Y130276
Y120276
Y110276
Y100276
X322244Y75394
X312244
X302244
X292244
X282244
X272244
X262244
X252244
X242244
X232244
X222244
X212244
X202244
X192244
X182244
X184191Y29610
Y19610
X194191
Y29610
X204191
Y19610
Y9610
X194191
X184191
X258007
Y19610
Y29610
X268007
Y19610
X278007
Y29610
X288007
Y19610
Y9610
X278007
X268007
X301824
Y19610
Y29610
X311824
Y19610
X321824
Y29610
X331824
Y19610
Y9610
X321824
X311824
X174191
Y19610
Y29610
X159610
X149610
X139610
X129610
Y19610
X139610
X149610
X159610
Y9610
X149610
X139610
X129610
X172244Y75394
Y167913
X182244
X192244
X202244
X212244
X222244
X232244
X242244
X252244
X262244
X272244
X282244
X292244
X302244
X312244
X322244
X346555Y136870
T05
X24768Y84815
Y104500
T06
X349803Y14862
X16535Y14665
X16535Y161319
X349606Y161221
M30
