G04*
G04 #@! TF.GenerationSoftware,Altium Limited,Altium Designer,21.5.1 (32)*
G04*
G04 Layer_Color=16711935*
%FSLAX25Y25*%
%MOIN*%
G70*
G04*
G04 #@! TF.SameCoordinates,57825C85-18FE-47E2-A138-B6FF28981A54*
G04*
G04*
G04 #@! TF.FilePolarity,Negative*
G04*
G01*
G75*
%ADD79C,0.06706*%
%ADD80R,0.06706X0.06706*%
%ADD81R,0.06706X0.06706*%
%ADD82R,0.07099X0.07099*%
%ADD83C,0.07099*%
%ADD84C,0.23800*%
%ADD85C,0.03600*%
%ADD86C,0.03200*%
%ADD87C,0.05800*%
%ADD102R,0.02769X0.02769*%
D79*
X301824Y19610D02*
D03*
Y29610D02*
D03*
X311824Y19610D02*
D03*
Y29610D02*
D03*
X321824Y19610D02*
D03*
Y29610D02*
D03*
X331824Y19610D02*
D03*
X258007D02*
D03*
Y29610D02*
D03*
X268007Y19610D02*
D03*
Y29610D02*
D03*
X278007Y19610D02*
D03*
Y29610D02*
D03*
X288007Y19610D02*
D03*
X174191D02*
D03*
Y29610D02*
D03*
X184191Y19610D02*
D03*
Y29610D02*
D03*
X194191Y19610D02*
D03*
Y29610D02*
D03*
X204191Y19610D02*
D03*
X129610D02*
D03*
Y29610D02*
D03*
X139610Y19610D02*
D03*
Y29610D02*
D03*
X149610Y19610D02*
D03*
Y29610D02*
D03*
X159610Y19610D02*
D03*
X324902Y130276D02*
D03*
Y120276D02*
D03*
Y110276D02*
D03*
X346555Y136870D02*
D03*
Y126870D02*
D03*
Y116870D02*
D03*
Y106870D02*
D03*
X312244Y167913D02*
D03*
X302244D02*
D03*
X292244D02*
D03*
X282244D02*
D03*
X272244D02*
D03*
X262244D02*
D03*
X252244D02*
D03*
X242244D02*
D03*
X232244D02*
D03*
X222244D02*
D03*
X212244D02*
D03*
X202244D02*
D03*
X192244D02*
D03*
X182244D02*
D03*
X172244D02*
D03*
X312244Y75394D02*
D03*
X302244D02*
D03*
X292244D02*
D03*
X282244D02*
D03*
X272244D02*
D03*
X262244D02*
D03*
X252244D02*
D03*
X242244D02*
D03*
X232244D02*
D03*
X222244D02*
D03*
X212244D02*
D03*
X202244D02*
D03*
X192244D02*
D03*
X182244D02*
D03*
X172244D02*
D03*
X301824Y9610D02*
D03*
X311824D02*
D03*
X321824D02*
D03*
X258007D02*
D03*
X268007D02*
D03*
X278007D02*
D03*
X174191D02*
D03*
X184191D02*
D03*
X194191D02*
D03*
X149610D02*
D03*
X139610D02*
D03*
X129610D02*
D03*
D80*
X331824Y29610D02*
D03*
X288007D02*
D03*
X204191D02*
D03*
X159610D02*
D03*
X322244Y167913D02*
D03*
Y75394D02*
D03*
X331824Y9610D02*
D03*
X288007D02*
D03*
X204191D02*
D03*
X159610D02*
D03*
D81*
X324902Y100276D02*
D03*
X346555Y96870D02*
D03*
D82*
X24768Y104500D02*
D03*
D83*
Y84815D02*
D03*
D84*
X349803Y14862D02*
D03*
X16535Y161319D02*
D03*
X349606Y161221D02*
D03*
X16535Y14665D02*
D03*
D85*
X343406Y20866D02*
D03*
X356004D02*
D03*
X349803Y23720D02*
D03*
X356126Y8153D02*
D03*
X343528Y8547D02*
D03*
X349925Y5988D02*
D03*
X358784Y14846D02*
D03*
X340945Y14961D02*
D03*
X121268Y13815D02*
D03*
X117768Y20815D02*
D03*
X114268Y13815D02*
D03*
X107268Y97815D02*
D03*
Y69815D02*
D03*
X110768Y20815D02*
D03*
X107268Y13815D02*
D03*
X100268Y97815D02*
D03*
Y69815D02*
D03*
X103768Y20815D02*
D03*
X100268Y13815D02*
D03*
X93268Y97815D02*
D03*
Y83815D02*
D03*
X96768Y76815D02*
D03*
X93268Y69815D02*
D03*
Y55815D02*
D03*
Y27815D02*
D03*
X96768Y20815D02*
D03*
X93268Y13815D02*
D03*
X86268Y97815D02*
D03*
X89768Y90815D02*
D03*
X86268Y83815D02*
D03*
X89768Y76815D02*
D03*
X86268Y69815D02*
D03*
Y55815D02*
D03*
X89768Y34815D02*
D03*
X86268Y27815D02*
D03*
X89768Y20815D02*
D03*
X86268Y13815D02*
D03*
X82768Y90815D02*
D03*
Y76815D02*
D03*
X79268Y55815D02*
D03*
X82768Y48815D02*
D03*
X79268Y41815D02*
D03*
X82768Y34815D02*
D03*
X79268Y27815D02*
D03*
X82768Y20815D02*
D03*
X79268Y13815D02*
D03*
X72268Y55815D02*
D03*
X75768Y34815D02*
D03*
X72268Y27815D02*
D03*
X75768Y20815D02*
D03*
X72268Y13815D02*
D03*
X68768Y34815D02*
D03*
X65268Y27815D02*
D03*
X68768Y20815D02*
D03*
X65268Y13815D02*
D03*
X61768Y34815D02*
D03*
X58268Y27815D02*
D03*
X61768Y20815D02*
D03*
X58268Y13815D02*
D03*
X51268Y27815D02*
D03*
X54768Y20815D02*
D03*
X51268Y13815D02*
D03*
X44268Y83815D02*
D03*
Y55815D02*
D03*
Y27815D02*
D03*
X47768Y20815D02*
D03*
X44268Y13815D02*
D03*
X40768Y90815D02*
D03*
X37268Y83815D02*
D03*
X40768Y76815D02*
D03*
X37268Y69815D02*
D03*
Y55815D02*
D03*
Y27815D02*
D03*
X40768Y20815D02*
D03*
X37268Y13815D02*
D03*
X33768Y90815D02*
D03*
Y76815D02*
D03*
X30268Y27815D02*
D03*
X33768Y20815D02*
D03*
X23268Y69815D02*
D03*
X26768Y48815D02*
D03*
X23268Y41815D02*
D03*
X26768Y34815D02*
D03*
X16268Y69815D02*
D03*
X19768Y62815D02*
D03*
X16268Y55815D02*
D03*
X19768Y48815D02*
D03*
X16268Y41815D02*
D03*
X19768Y34815D02*
D03*
X12768Y90815D02*
D03*
X9268Y83815D02*
D03*
X12768Y76815D02*
D03*
X9268Y69815D02*
D03*
X12768Y62815D02*
D03*
X9268Y55815D02*
D03*
X12768Y48815D02*
D03*
X9268Y41815D02*
D03*
X12768Y34815D02*
D03*
X10335Y154823D02*
D03*
X22343Y154626D02*
D03*
X358563Y161122D02*
D03*
X340354Y161024D02*
D03*
X349508Y170079D02*
D03*
X356299Y155413D02*
D03*
X342913D02*
D03*
X349508Y152362D02*
D03*
X356299Y167421D02*
D03*
X343110D02*
D03*
X7579Y14764D02*
D03*
X9843Y20472D02*
D03*
Y8465D02*
D03*
X23228Y20472D02*
D03*
X25787Y14862D02*
D03*
X23031Y8465D02*
D03*
X16634Y5807D02*
D03*
X16634Y23524D02*
D03*
X16634Y170276D02*
D03*
X25394Y161221D02*
D03*
X22343Y168012D02*
D03*
X16732Y152067D02*
D03*
X10335Y168012D02*
D03*
X7677Y161221D02*
D03*
D86*
X232677Y60925D02*
D03*
X236849Y63081D02*
D03*
X26181Y64272D02*
D03*
X284842Y41142D02*
D03*
X91099Y123910D02*
D03*
X205906Y161516D02*
D03*
X200689Y148721D02*
D03*
X28740Y142028D02*
D03*
X249803Y94980D02*
D03*
X269730Y146713D02*
D03*
X221063Y148721D02*
D03*
X186346Y147151D02*
D03*
X185433Y137303D02*
D03*
X170276Y120472D02*
D03*
X121161Y121457D02*
D03*
X54626Y142913D02*
D03*
X279626Y148819D02*
D03*
X258319Y132724D02*
D03*
X252854Y60039D02*
D03*
X230217Y57579D02*
D03*
X108957Y143209D02*
D03*
X104921Y140157D02*
D03*
X325590Y141929D02*
D03*
X243996Y132579D02*
D03*
X250827Y132992D02*
D03*
X93996Y158760D02*
D03*
X78740Y130512D02*
D03*
X93012Y143602D02*
D03*
X78051Y144587D02*
D03*
X275787Y148327D02*
D03*
X126575Y118996D02*
D03*
X126673Y140945D02*
D03*
X134941Y124508D02*
D03*
X134646Y121161D02*
D03*
X163669Y142749D02*
D03*
X162598Y98917D02*
D03*
X121063Y129921D02*
D03*
X126476Y150295D02*
D03*
X139173D02*
D03*
X44291Y138287D02*
D03*
X239665Y139370D02*
D03*
X184941Y132283D02*
D03*
X265158Y102756D02*
D03*
X265354Y98327D02*
D03*
X252854Y144587D02*
D03*
X203543Y137008D02*
D03*
X189081Y127458D02*
D03*
X184449Y122047D02*
D03*
X205413Y95866D02*
D03*
X183974Y117463D02*
D03*
X184032Y107033D02*
D03*
X183858Y112008D02*
D03*
X64567Y142815D02*
D03*
X70866Y142224D02*
D03*
X291831Y62598D02*
D03*
X249311Y50492D02*
D03*
X122768Y46815D02*
D03*
X107283Y126870D02*
D03*
X62096Y137560D02*
D03*
X49803Y37598D02*
D03*
X63768Y40815D02*
D03*
D87*
X113976Y146695D02*
D03*
X112992Y105020D02*
D03*
X125000Y71161D02*
D03*
X90847Y132480D02*
D03*
D102*
X274561Y98130D02*
D03*
X271161D02*
D03*
X274660Y103051D02*
D03*
X271260D02*
D03*
X189048Y106988D02*
D03*
X192448D02*
D03*
X189048Y121850D02*
D03*
X192448D02*
D03*
X189737Y132283D02*
D03*
X193137D02*
D03*
X189737Y137402D02*
D03*
X193137D02*
D03*
Y142224D02*
D03*
X189737D02*
D03*
M02*
