G04*
G04 #@! TF.GenerationSoftware,Altium Limited,Altium Designer,21.5.1 (32)*
G04*
G04 Layer_Color=8388736*
%FSLAX25Y25*%
%MOIN*%
G70*
G04*
G04 #@! TF.SameCoordinates,57825C85-18FE-47E2-A138-B6FF28981A54*
G04*
G04*
G04 #@! TF.FilePolarity,Positive*
G04*
G01*
G75*
%ADD11C,0.00787*%
D11*
X53398Y39571D02*
Y51579D01*
X46508D02*
X53398D01*
X46508Y39571D02*
Y51579D01*
Y39571D02*
X53398D01*
X185827Y157461D02*
X309842D01*
X185827Y86201D02*
Y157461D01*
Y86201D02*
X309842D01*
Y157461D01*
X330217Y144980D02*
Y148524D01*
X323524D02*
X330217D01*
X323524Y144980D02*
Y148524D01*
Y144980D02*
X330217D01*
X150098Y119636D02*
Y123179D01*
X143405D02*
X150098D01*
X143405Y119636D02*
Y123179D01*
Y119636D02*
X150098D01*
Y112205D02*
Y115748D01*
X143405D02*
X150098D01*
X143405Y112205D02*
Y115748D01*
Y112205D02*
X150098D01*
Y141929D02*
Y145472D01*
X143405D02*
X150098D01*
X143405Y141929D02*
Y145472D01*
Y141929D02*
X150098D01*
Y134498D02*
Y138041D01*
X143405D02*
X150098D01*
X143405Y134498D02*
Y138041D01*
Y134498D02*
X150098D01*
Y127067D02*
Y130610D01*
X143405D02*
X150098D01*
X143405Y127067D02*
Y130610D01*
Y127067D02*
X150098D01*
Y97342D02*
Y100886D01*
X143405D02*
X150098D01*
X143405Y97342D02*
Y100886D01*
Y97342D02*
X150098D01*
Y104774D02*
Y108317D01*
X143405D02*
X150098D01*
X143405Y104774D02*
Y108317D01*
Y104774D02*
X150098D01*
X88413Y172732D02*
X122272D01*
X121268Y152457D02*
Y175016D01*
X89417D02*
X121268D01*
X89417Y152457D02*
Y175016D01*
Y152457D02*
X121268D01*
M02*
