G04*
G04 #@! TF.GenerationSoftware,Altium Limited,Altium Designer,21.5.1 (32)*
G04*
G04 Layer_Color=65535*
%FSLAX25Y25*%
%MOIN*%
G70*
G04*
G04 #@! TF.SameCoordinates,57825C85-18FE-47E2-A138-B6FF28981A54*
G04*
G04*
G04 #@! TF.FilePolarity,Positive*
G04*
G01*
G75*
%ADD10C,0.00984*%
%ADD11C,0.00787*%
%ADD12C,0.02362*%
%ADD13C,0.00394*%
%ADD14C,0.01000*%
%ADD15C,0.00600*%
%ADD16C,0.00500*%
%ADD17C,0.00400*%
G36*
X341436Y69427D02*
X342665D01*
Y69017D01*
X343895D01*
Y68607D01*
X343075D01*
Y68197D01*
X342665D01*
Y68607D01*
X342255D01*
Y69017D01*
X336927D01*
Y68607D01*
X335698D01*
Y68197D01*
X334878D01*
Y67787D01*
X334468D01*
Y67377D01*
X334058D01*
Y66967D01*
X333648D01*
Y66558D01*
X333238D01*
Y66148D01*
X332828D01*
Y65738D01*
X332419D01*
Y65328D01*
X332009D01*
Y64918D01*
X331599D01*
Y64508D01*
X331189D01*
Y64098D01*
X330779D01*
Y62869D01*
X330369D01*
Y62459D01*
Y62049D01*
X329960D01*
Y62459D01*
X329550D01*
Y62049D01*
X329140D01*
Y62869D01*
X329550D01*
Y63279D01*
X329960D01*
Y63688D01*
X329140D01*
Y63279D01*
X328730D01*
Y64098D01*
X329140D01*
Y64508D01*
X329550D01*
Y64918D01*
X329960D01*
Y65328D01*
X330369D01*
Y65738D01*
X330779D01*
Y66558D01*
X331189D01*
Y66967D01*
X331599D01*
Y67377D01*
X332419D01*
Y67787D01*
X333238D01*
Y68197D01*
X333648D01*
Y68607D01*
X334468D01*
Y69017D01*
X335698D01*
Y69427D01*
X336927D01*
Y69836D01*
X341436D01*
Y69427D01*
D02*
G37*
G36*
X344305Y67377D02*
X343895D01*
Y67787D01*
X344305D01*
Y67377D01*
D02*
G37*
G36*
X345124Y66558D02*
X344714D01*
Y66967D01*
X345124D01*
Y66558D01*
D02*
G37*
G36*
X108225D02*
X106995D01*
Y66967D01*
X108225D01*
Y66558D01*
D02*
G37*
G36*
X157408Y66148D02*
X156999D01*
Y64098D01*
X156589D01*
Y64508D01*
Y66558D01*
X156999D01*
Y67377D01*
X157408D01*
Y66148D01*
D02*
G37*
G36*
X150441Y66967D02*
X151260D01*
Y65738D01*
X151670D01*
Y64098D01*
X151260D01*
Y63279D01*
X150851D01*
Y63688D01*
X150441D01*
Y64098D01*
X150851D01*
Y64508D01*
X151260D01*
Y65328D01*
X150851D01*
Y66148D01*
X149211D01*
Y65738D01*
X148801D01*
Y64508D01*
X148391D01*
Y63688D01*
X148801D01*
Y62869D01*
X149211D01*
Y63279D01*
X150031D01*
Y63688D01*
X150441D01*
Y63279D01*
X150851D01*
Y62869D01*
X150441D01*
Y62459D01*
X148801D01*
Y62869D01*
X147982D01*
Y64098D01*
X147572D01*
Y65328D01*
X147982D01*
Y65738D01*
X148391D01*
Y66558D01*
X149211D01*
Y66967D01*
X150031D01*
Y67377D01*
X150441D01*
Y66967D01*
D02*
G37*
G36*
X143883D02*
X144703D01*
Y66148D01*
X145113D01*
Y63688D01*
X144703D01*
Y63279D01*
X144293D01*
Y63688D01*
X143883D01*
Y64098D01*
X144703D01*
Y65738D01*
X144293D01*
Y66148D01*
X143883D01*
Y66558D01*
X143473D01*
Y66148D01*
X142653D01*
Y65738D01*
X142244D01*
Y63279D01*
X143473D01*
Y63688D01*
X143883D01*
Y63279D01*
X144293D01*
Y62459D01*
X142244D01*
Y62869D01*
X141424D01*
Y65738D01*
X141834D01*
Y66148D01*
X142244D01*
Y66558D01*
X143063D01*
Y66967D01*
X143473D01*
Y67377D01*
X143883D01*
Y66967D01*
D02*
G37*
G36*
X352092Y62869D02*
X351682D01*
Y63688D01*
X352092D01*
Y62869D01*
D02*
G37*
G36*
X100438Y66967D02*
X101258D01*
Y66148D01*
X101667D01*
Y65328D01*
X101258D01*
Y64098D01*
X100438D01*
Y63688D01*
X101258D01*
Y63279D01*
X101667D01*
Y62869D01*
X100848D01*
Y63279D01*
X100438D01*
Y63688D01*
X100028D01*
Y64098D01*
X99618D01*
Y62459D01*
X98798D01*
Y63688D01*
X99208D01*
Y64098D01*
X98798D01*
Y64918D01*
X99208D01*
Y65738D01*
X98798D01*
Y66558D01*
X99208D01*
Y66967D01*
X100028D01*
Y67377D01*
X100438D01*
Y66967D01*
D02*
G37*
G36*
X345944Y68197D02*
X346764D01*
Y67787D01*
X346354D01*
Y67377D01*
X346764D01*
Y66967D01*
X347174D01*
Y66558D01*
X348403D01*
Y66148D01*
X349633D01*
Y65738D01*
X350043D01*
Y64918D01*
X350452D01*
Y63688D01*
X350862D01*
Y62459D01*
X350452D01*
Y63688D01*
X350043D01*
Y64508D01*
X349633D01*
Y64918D01*
X349223D01*
Y65328D01*
X348403D01*
Y65738D01*
X347583D01*
Y66148D01*
X347174D01*
Y66558D01*
X346354D01*
Y66967D01*
X345944D01*
Y66558D01*
X346354D01*
Y66148D01*
X346764D01*
Y65738D01*
X347583D01*
Y65328D01*
X347993D01*
Y64918D01*
X347174D01*
Y65328D01*
X346354D01*
Y65738D01*
X345944D01*
Y66148D01*
X345534D01*
Y67377D01*
X345944D01*
Y67787D01*
X345534D01*
Y68197D01*
X345124D01*
Y68607D01*
X345944D01*
Y68197D01*
D02*
G37*
G36*
X154949Y66558D02*
X155359D01*
Y65738D01*
X155769D01*
Y64508D01*
X156179D01*
Y64098D01*
X156589D01*
Y62459D01*
X156179D01*
Y63279D01*
X155769D01*
Y64508D01*
X155359D01*
Y65328D01*
X154949D01*
Y64508D01*
X154539D01*
Y62869D01*
X154130D01*
Y63279D01*
Y66967D01*
X154949D01*
Y66558D01*
D02*
G37*
G36*
X137735Y62869D02*
X139784D01*
Y62459D01*
X137325D01*
Y62869D01*
X136915D01*
Y66558D01*
X137325D01*
Y67377D01*
X137735D01*
Y62869D01*
D02*
G37*
G36*
X132407D02*
X134456D01*
Y62459D01*
X131997D01*
Y64098D01*
Y64508D01*
Y66967D01*
X132407D01*
Y62869D01*
D02*
G37*
G36*
X127898Y65328D02*
X128308D01*
Y64918D01*
X128718D01*
Y63688D01*
X129128D01*
Y62459D01*
X128718D01*
Y62869D01*
X128308D01*
Y63688D01*
X127898D01*
Y64098D01*
X126669D01*
Y63279D01*
X126259D01*
Y62459D01*
X125849D01*
Y63688D01*
X126259D01*
Y64918D01*
X126669D01*
Y66148D01*
X127079D01*
Y66558D01*
X126669D01*
Y66967D01*
Y67377D01*
X127898D01*
Y65328D01*
D02*
G37*
G36*
X122160Y66967D02*
X122570D01*
Y66558D01*
X122980D01*
Y64918D01*
X123390D01*
Y63279D01*
X122570D01*
Y62869D01*
X121341D01*
Y62459D01*
X120521D01*
Y67377D01*
X122160D01*
Y66967D01*
D02*
G37*
G36*
X111094D02*
X113553D01*
Y66558D01*
X113963D01*
Y63688D01*
X113553D01*
Y63279D01*
X113143D01*
Y62869D01*
X112324D01*
Y62459D01*
X111094D01*
Y62869D01*
X110684D01*
Y64098D01*
Y64508D01*
Y67377D01*
X111094D01*
Y66967D01*
D02*
G37*
G36*
X105356D02*
X106586D01*
Y66558D01*
X105356D01*
Y65328D01*
X106995D01*
Y64918D01*
X105356D01*
Y63688D01*
X107815D01*
Y63279D01*
X106586D01*
Y62869D01*
X105356D01*
Y62459D01*
X104946D01*
Y62869D01*
X104127D01*
Y63279D01*
X104946D01*
Y63688D01*
Y64918D01*
X104127D01*
Y65328D01*
X104946D01*
Y66558D01*
X104536D01*
Y66967D01*
X104946D01*
Y67377D01*
X105356D01*
Y66967D01*
D02*
G37*
G36*
X351272Y61639D02*
X350862D01*
Y62049D01*
X351272D01*
Y61639D01*
D02*
G37*
G36*
X328730Y62869D02*
Y62459D01*
X328320D01*
Y61639D01*
X327910D01*
Y62869D01*
X328320D01*
Y63279D01*
X328730D01*
Y62869D01*
D02*
G37*
G36*
X329140Y61229D02*
X328730D01*
Y61639D01*
X329140D01*
Y61229D01*
D02*
G37*
G36*
X329960D02*
Y60819D01*
X329550D01*
Y61639D01*
X329960D01*
Y61229D01*
D02*
G37*
G36*
X328730Y60410D02*
X328320D01*
Y61229D01*
X328730D01*
Y60410D01*
D02*
G37*
G36*
X108225D02*
X106995D01*
Y60819D01*
X108225D01*
Y60410D01*
D02*
G37*
G36*
X102077D02*
X101667D01*
Y60819D01*
X101258D01*
Y60410D01*
X100028D01*
Y60000D01*
X99618D01*
Y59590D01*
X100028D01*
Y59180D01*
X101258D01*
Y58770D01*
X102077D01*
Y57950D01*
X102487D01*
Y57541D01*
X102077D01*
Y56721D01*
X101258D01*
Y57541D01*
X101667D01*
Y58360D01*
X99618D01*
Y58770D01*
X99208D01*
Y60410D01*
X99618D01*
Y60819D01*
X100438D01*
Y61229D01*
X102077D01*
Y60410D01*
D02*
G37*
G36*
X352502Y60000D02*
Y59590D01*
Y58360D01*
X352912D01*
Y57541D01*
X352502D01*
Y56721D01*
X352092D01*
Y58770D01*
X351682D01*
Y59590D01*
X351272D01*
Y60410D01*
X351682D01*
Y60000D01*
Y59590D01*
X352092D01*
Y62049D01*
X352502D01*
Y60000D01*
D02*
G37*
G36*
X119701Y60410D02*
X120111D01*
Y59180D01*
X119701D01*
Y59590D01*
Y60000D01*
Y60410D01*
X119291D01*
Y61229D01*
X119701D01*
Y60410D01*
D02*
G37*
G36*
X340206Y65738D02*
X340616D01*
Y65328D01*
X341436D01*
Y64918D01*
X341845D01*
Y64508D01*
X342255D01*
Y64098D01*
X342665D01*
Y63279D01*
X343075D01*
Y61229D01*
X343485D01*
Y60819D01*
X343075D01*
Y58770D01*
X342665D01*
Y57541D01*
X342255D01*
Y59180D01*
X342665D01*
Y62459D01*
X342255D01*
Y63279D01*
X341845D01*
Y64098D01*
X341436D01*
Y64508D01*
X340206D01*
Y64918D01*
X338566D01*
Y64508D01*
X337747D01*
Y64098D01*
X337337D01*
Y63688D01*
X336927D01*
Y63279D01*
X336517D01*
Y63688D01*
X335698D01*
Y62869D01*
X336107D01*
Y63279D01*
X336517D01*
Y62459D01*
X336107D01*
Y59590D01*
X336517D01*
Y58360D01*
X336927D01*
Y57131D01*
X337337D01*
Y56311D01*
X337747D01*
Y55901D01*
X338157D01*
Y55491D01*
X338566D01*
Y54672D01*
X338976D01*
Y54262D01*
X340616D01*
Y53032D01*
X341436D01*
Y52622D01*
X341845D01*
Y52212D01*
X342665D01*
Y51802D01*
X341026D01*
Y50163D01*
X340616D01*
Y45655D01*
X342665D01*
Y46064D01*
X343485D01*
Y46474D01*
X343895D01*
Y46884D01*
X344714D01*
Y47294D01*
X345124D01*
Y47704D01*
X345944D01*
Y48114D01*
X346354D01*
Y48524D01*
X346764D01*
Y48934D01*
X347174D01*
Y49343D01*
X347583D01*
Y49753D01*
X348403D01*
Y50163D01*
X348813D01*
Y50573D01*
X349223D01*
Y50983D01*
X349633D01*
Y51393D01*
X350043D01*
Y52212D01*
X350862D01*
Y50983D01*
X350043D01*
Y50573D01*
X349633D01*
Y49753D01*
X350043D01*
Y48934D01*
X349633D01*
Y48114D01*
X349223D01*
Y47704D01*
X348813D01*
Y47294D01*
X348403D01*
Y46474D01*
X347993D01*
Y46064D01*
X347583D01*
Y46474D01*
X347174D01*
Y46064D01*
X347583D01*
Y45655D01*
X346764D01*
Y45245D01*
X346354D01*
Y44835D01*
X345534D01*
Y44425D01*
X344305D01*
Y44015D01*
X342665D01*
Y44425D01*
X343075D01*
Y44835D01*
X343895D01*
Y45245D01*
X344714D01*
Y45655D01*
X345534D01*
Y46064D01*
X346354D01*
Y46474D01*
X346764D01*
Y46884D01*
X347174D01*
Y47704D01*
X346764D01*
Y47294D01*
X346354D01*
Y46884D01*
X345124D01*
Y46474D01*
X344714D01*
Y46064D01*
X343895D01*
Y45655D01*
X343075D01*
Y45245D01*
X342255D01*
Y44835D01*
X341436D01*
Y44425D01*
X340616D01*
Y41966D01*
X341026D01*
Y39917D01*
X340616D01*
Y37047D01*
X340206D01*
Y44015D01*
X339796D01*
Y44425D01*
X339386D01*
Y44015D01*
X338566D01*
Y44425D01*
X338157D01*
Y44835D01*
X335288D01*
Y45245D01*
X334058D01*
Y45655D01*
X333648D01*
Y45245D01*
X333238D01*
Y45655D01*
X332419D01*
Y46064D01*
X331599D01*
Y46474D01*
X331189D01*
Y47294D01*
X330779D01*
Y48114D01*
X330369D01*
Y48524D01*
X329960D01*
Y48114D01*
X329550D01*
Y48524D01*
X329140D01*
Y49343D01*
X328730D01*
Y49753D01*
X328320D01*
Y50573D01*
X327910D01*
Y51802D01*
X327500D01*
Y52622D01*
X327090D01*
Y53442D01*
X326271D01*
Y56721D01*
X326681D01*
Y58770D01*
X327090D01*
Y60410D01*
X327500D01*
Y61639D01*
X327910D01*
Y60000D01*
X328320D01*
Y59180D01*
X327910D01*
Y60000D01*
X327500D01*
Y59180D01*
X327910D01*
Y58360D01*
X328320D01*
Y58770D01*
X328730D01*
Y60000D01*
X329140D01*
Y60819D01*
X329550D01*
Y59590D01*
X329140D01*
Y58360D01*
X328730D01*
Y57950D01*
X329140D01*
Y53442D01*
X329550D01*
Y52212D01*
X329960D01*
Y51393D01*
X330369D01*
Y50983D01*
X330779D01*
Y50163D01*
X331189D01*
Y49753D01*
X331599D01*
Y49343D01*
X332009D01*
Y48934D01*
X332419D01*
Y48524D01*
X332828D01*
Y48114D01*
X332419D01*
Y48524D01*
X331189D01*
Y49343D01*
X330779D01*
Y49753D01*
X330369D01*
Y50573D01*
X329960D01*
Y50983D01*
X329550D01*
Y50573D01*
X329960D01*
Y49753D01*
X330369D01*
Y49343D01*
X329960D01*
Y48934D01*
X330779D01*
Y48524D01*
X331189D01*
Y48114D01*
X331599D01*
Y47704D01*
X332009D01*
Y48114D01*
X332419D01*
Y47704D01*
X332828D01*
Y47294D01*
X333238D01*
Y46884D01*
X332828D01*
Y47294D01*
X332419D01*
Y46884D01*
X332009D01*
Y47294D01*
X331599D01*
Y47704D01*
X331189D01*
Y47294D01*
X331599D01*
Y46884D01*
Y46474D01*
X333238D01*
Y46064D01*
X334058D01*
Y46474D01*
X334878D01*
Y47294D01*
X335288D01*
Y46884D01*
X335698D01*
Y46474D01*
X336517D01*
Y46064D01*
X335698D01*
Y45655D01*
X336517D01*
Y45245D01*
X337337D01*
Y45655D01*
X336927D01*
Y46064D01*
X337337D01*
Y45655D01*
X338566D01*
Y45245D01*
X339386D01*
Y45655D01*
X339796D01*
Y46884D01*
X339386D01*
Y48114D01*
X339796D01*
Y50573D01*
X339386D01*
Y51393D01*
X338976D01*
Y50983D01*
X338157D01*
Y50573D01*
X337747D01*
Y51393D01*
X338157D01*
Y52212D01*
X338566D01*
Y53442D01*
X338976D01*
Y53852D01*
X338566D01*
Y54262D01*
X338157D01*
Y54672D01*
X337747D01*
Y55081D01*
X337337D01*
Y55491D01*
X336927D01*
Y56311D01*
X336517D01*
Y57131D01*
X336107D01*
Y57950D01*
X335698D01*
Y58360D01*
X335288D01*
Y58770D01*
X334878D01*
Y57541D01*
X334468D01*
Y60000D01*
X334058D01*
Y60410D01*
X334468D01*
Y61639D01*
X334058D01*
Y62459D01*
X334468D01*
Y62869D01*
X334878D01*
Y63688D01*
X335288D01*
Y64098D01*
X335698D01*
Y64508D01*
X336107D01*
Y64918D01*
X336927D01*
Y65328D01*
X337747D01*
Y65738D01*
X338976D01*
Y66148D01*
X340206D01*
Y65738D01*
D02*
G37*
G36*
X342255Y57131D02*
Y56721D01*
X341845D01*
Y57541D01*
X342255D01*
Y57131D01*
D02*
G37*
G36*
X114783Y56721D02*
X114373D01*
Y57131D01*
X114783D01*
Y56721D01*
D02*
G37*
G36*
X133227Y60819D02*
X135276D01*
Y60410D01*
X133636D01*
Y57541D01*
X133227D01*
Y56311D01*
X132817D01*
Y60410D01*
X131177D01*
Y60819D01*
X132817D01*
Y61229D01*
X133227D01*
Y60819D01*
D02*
G37*
G36*
X128718Y59180D02*
Y58770D01*
Y57950D01*
X128308D01*
Y57131D01*
X128718D01*
Y56311D01*
X128308D01*
Y56721D01*
X127898D01*
Y60819D01*
X128718D01*
Y59180D01*
D02*
G37*
G36*
X124210Y60819D02*
X124619D01*
Y60410D01*
X125029D01*
Y58360D01*
X124619D01*
Y57950D01*
X124210D01*
Y57541D01*
X124619D01*
Y57131D01*
X125029D01*
Y56721D01*
X125439D01*
Y56311D01*
X125029D01*
Y56721D01*
X124619D01*
Y57131D01*
X123800D01*
Y57541D01*
X122980D01*
Y56311D01*
X122570D01*
Y58360D01*
Y58770D01*
Y60819D01*
X123390D01*
Y61229D01*
X124210D01*
Y60819D01*
D02*
G37*
G36*
X117652Y60410D02*
X117242D01*
Y60000D01*
Y59180D01*
X117652D01*
Y57541D01*
X118062D01*
Y57131D01*
X118472D01*
Y57541D01*
X118881D01*
Y57950D01*
X119291D01*
Y58770D01*
X119701D01*
Y57131D01*
X119291D01*
Y56721D01*
X118881D01*
Y56311D01*
X117652D01*
Y57131D01*
X117242D01*
Y58360D01*
Y58770D01*
Y59180D01*
X116832D01*
Y60819D01*
X117652D01*
Y60410D01*
D02*
G37*
G36*
X113963Y60819D02*
X114373D01*
Y60410D01*
X113143D01*
Y60000D01*
X112324D01*
Y59590D01*
X111914D01*
Y57541D01*
X112324D01*
Y57131D01*
X113143D01*
Y56721D01*
X114373D01*
Y56311D01*
X111914D01*
Y56721D01*
X111504D01*
Y57131D01*
X111094D01*
Y59590D01*
X111504D01*
Y60000D01*
X111914D01*
Y60410D01*
X112324D01*
Y60819D01*
X113143D01*
Y61229D01*
X113963D01*
Y60819D01*
D02*
G37*
G36*
X105766D02*
X106586D01*
Y60410D01*
X105766D01*
Y59180D01*
X107405D01*
Y58770D01*
X105766D01*
Y57541D01*
X108225D01*
Y57131D01*
X106995D01*
Y56721D01*
X105766D01*
Y56311D01*
X105356D01*
Y56721D01*
X104536D01*
Y57131D01*
X104946D01*
Y57541D01*
X105356D01*
Y58360D01*
X104946D01*
Y58770D01*
X104536D01*
Y59180D01*
X105356D01*
Y60410D01*
X104536D01*
Y60819D01*
X105356D01*
Y61229D01*
X105766D01*
Y60819D01*
D02*
G37*
G36*
X99618Y56721D02*
X101258D01*
Y56311D01*
X99618D01*
Y56721D01*
X98798D01*
Y57131D01*
X99618D01*
Y56721D01*
D02*
G37*
G36*
X351682Y56311D02*
X352092D01*
Y55491D01*
X351682D01*
Y55901D01*
Y56311D01*
X351272D01*
Y55081D01*
X351682D01*
Y53032D01*
X351272D01*
Y53852D01*
X350452D01*
Y54262D01*
Y57131D01*
X351272D01*
Y57541D01*
X351682D01*
Y56311D01*
D02*
G37*
G36*
X138555Y60819D02*
X138965D01*
Y60410D01*
X139374D01*
Y59590D01*
X139784D01*
Y59180D01*
X140194D01*
Y60410D01*
X140604D01*
Y60819D01*
X141014D01*
Y60000D01*
X140604D01*
Y58770D01*
X140194D01*
Y57541D01*
X139784D01*
Y56721D01*
X139374D01*
Y55491D01*
X138965D01*
Y57541D01*
X139374D01*
Y58770D01*
X138965D01*
Y59590D01*
X138555D01*
Y60000D01*
X138145D01*
Y61229D01*
X138555D01*
Y60819D01*
D02*
G37*
G36*
X341845Y55491D02*
X341436D01*
Y55081D01*
X341026D01*
Y55491D01*
Y55901D01*
X341436D01*
Y56721D01*
X341845D01*
Y55491D01*
D02*
G37*
G36*
X335288D02*
X335698D01*
Y55081D01*
Y54672D01*
X335288D01*
Y55491D01*
X334878D01*
Y55901D01*
Y56311D01*
Y56721D01*
X335288D01*
Y55491D01*
D02*
G37*
G36*
X341026Y54672D02*
Y54262D01*
X340616D01*
Y55081D01*
X341026D01*
Y54672D01*
D02*
G37*
G36*
X336517Y53032D02*
X336107D01*
Y53442D01*
X335698D01*
Y54262D01*
X336107D01*
Y54672D01*
Y55081D01*
Y55491D01*
X336517D01*
Y53032D01*
D02*
G37*
G36*
X351272Y52212D02*
X350862D01*
Y52622D01*
X351272D01*
Y52212D01*
D02*
G37*
G36*
X350452Y49753D02*
X350043D01*
Y50163D01*
X350452D01*
Y49753D01*
D02*
G37*
G36*
X338976D02*
X338566D01*
Y50163D01*
X338976D01*
Y49753D01*
D02*
G37*
G36*
X339386Y48524D02*
X338976D01*
Y48934D01*
X339386D01*
Y48524D01*
D02*
G37*
G36*
X333648Y47704D02*
X334058D01*
Y47294D01*
X334468D01*
Y46884D01*
X334058D01*
Y47294D01*
X333648D01*
Y47704D01*
X333238D01*
Y48114D01*
X333648D01*
Y47704D01*
D02*
G37*
G36*
X105356Y11636D02*
X104946D01*
Y12046D01*
X105356D01*
Y11636D01*
D02*
G37*
G36*
X87322Y11226D02*
X86912D01*
Y9997D01*
X87322D01*
Y9177D01*
X87732D01*
Y8767D01*
X88142D01*
Y7538D01*
X88552D01*
Y6308D01*
X88142D01*
Y6718D01*
X87732D01*
Y7538D01*
X87322D01*
Y8357D01*
X86093D01*
Y7948D01*
X85683D01*
Y7128D01*
X85273D01*
Y8767D01*
X85683D01*
Y9587D01*
X86093D01*
Y9997D01*
Y10407D01*
Y11226D01*
X85683D01*
Y12046D01*
X86093D01*
Y11636D01*
X86912D01*
Y12046D01*
X87322D01*
Y11226D01*
D02*
G37*
G36*
X77486Y11636D02*
X77076D01*
Y12046D01*
X77486D01*
Y11636D01*
D02*
G37*
G36*
X116013Y11226D02*
X115603D01*
Y11636D01*
X116013D01*
Y11226D01*
D02*
G37*
G36*
X74617D02*
X74207D01*
Y10817D01*
X71748D01*
Y9997D01*
X72157D01*
Y9177D01*
X72977D01*
Y9587D01*
X73797D01*
Y9177D01*
X73387D01*
Y8767D01*
X72157D01*
Y6718D01*
X71748D01*
Y8357D01*
X71338D01*
Y10817D01*
X70928D01*
Y11226D01*
X71338D01*
Y11636D01*
X71748D01*
Y11226D01*
X73797D01*
Y11636D01*
X74617D01*
Y11226D01*
D02*
G37*
G36*
X115603Y10817D02*
X115193D01*
Y11226D01*
X115603D01*
Y10817D01*
D02*
G37*
G36*
X48795Y11226D02*
Y10817D01*
Y9997D01*
X48386D01*
Y6718D01*
X47566D01*
Y7128D01*
X47156D01*
Y7538D01*
X46746D01*
Y8357D01*
X46336D01*
Y8767D01*
X45516D01*
Y7128D01*
X45107D01*
Y6718D01*
X44697D01*
Y7538D01*
X44287D01*
Y8767D01*
X43877D01*
Y9587D01*
X43467D01*
Y10407D01*
X43057D01*
Y11226D01*
X43467D01*
Y10817D01*
X43877D01*
Y10407D01*
X44287D01*
Y9177D01*
X44697D01*
Y7948D01*
X45107D01*
Y9177D01*
X45516D01*
Y10407D01*
X45926D01*
Y9587D01*
X46336D01*
Y9177D01*
X47156D01*
Y8767D01*
X47976D01*
Y10407D01*
X48386D01*
Y11636D01*
X48795D01*
Y11226D01*
D02*
G37*
G36*
X54124D02*
X54943D01*
Y10817D01*
X55353D01*
Y8357D01*
X54943D01*
Y9587D01*
X54533D01*
Y10407D01*
X54124D01*
Y10817D01*
X52484D01*
Y10407D01*
X52894D01*
Y7948D01*
X52484D01*
Y7538D01*
X52894D01*
Y7128D01*
X53304D01*
Y7538D01*
X54124D01*
Y7948D01*
X54533D01*
Y8357D01*
X54943D01*
Y7948D01*
Y7538D01*
X54533D01*
Y7128D01*
X53714D01*
Y6718D01*
X52074D01*
Y11636D01*
X54124D01*
Y11226D01*
D02*
G37*
G36*
X41828Y8357D02*
X41418D01*
Y6718D01*
X40598D01*
Y7128D01*
X40188D01*
Y7948D01*
X39779D01*
Y8357D01*
X39369D01*
Y9177D01*
X38959D01*
Y7948D01*
X38549D01*
Y6718D01*
X38139D01*
Y7128D01*
X37729D01*
Y8357D01*
X37319D01*
Y9177D01*
X36909D01*
Y9997D01*
X36500D01*
Y10817D01*
X36090D01*
Y11226D01*
X36909D01*
Y10817D01*
X37319D01*
Y9587D01*
X37729D01*
Y8357D01*
X38549D01*
Y9997D01*
X39369D01*
Y9587D01*
X39779D01*
Y8767D01*
X40188D01*
Y9177D01*
X40598D01*
Y8357D01*
X41008D01*
Y9587D01*
X41418D01*
Y11226D01*
X41828D01*
Y8357D01*
D02*
G37*
G36*
X35270Y9177D02*
X34860D01*
Y6718D01*
X34040D01*
Y7128D01*
X33631D01*
Y7948D01*
X33221D01*
Y8357D01*
X32811D01*
Y9177D01*
X32401D01*
Y8357D01*
X31991D01*
Y6718D01*
X31171D01*
Y7948D01*
X30762D01*
Y8767D01*
X30352D01*
Y9587D01*
X29942D01*
Y10407D01*
X29532D01*
Y11226D01*
X30352D01*
Y10407D01*
X30762D01*
Y9177D01*
X31171D01*
Y8767D01*
Y8357D01*
X31581D01*
Y8767D01*
X31991D01*
Y10407D01*
X32401D01*
Y9997D01*
X32811D01*
Y9177D01*
X34040D01*
Y8767D01*
Y8357D01*
X34450D01*
Y9997D01*
X34860D01*
Y11226D01*
X35270D01*
Y9177D01*
D02*
G37*
G36*
X59452Y11226D02*
X59862D01*
Y10407D01*
X60272D01*
Y7948D01*
X59862D01*
Y7538D01*
X59452D01*
Y7948D01*
X59042D01*
Y8357D01*
X59452D01*
Y8767D01*
X59862D01*
Y9587D01*
X59452D01*
Y10407D01*
X59042D01*
Y10817D01*
X58222D01*
Y10407D01*
X57812D01*
Y9997D01*
X57402D01*
Y8767D01*
X56993D01*
Y7948D01*
X57402D01*
Y7128D01*
X57812D01*
Y7538D01*
X58632D01*
Y7948D01*
X59042D01*
Y7538D01*
X59452D01*
Y7128D01*
X59042D01*
Y6718D01*
X57402D01*
Y7128D01*
X56583D01*
Y8357D01*
X56173D01*
Y9587D01*
X56583D01*
Y10407D01*
X56993D01*
Y10817D01*
X57812D01*
Y11226D01*
X58632D01*
Y11636D01*
X59452D01*
Y11226D01*
D02*
G37*
G36*
X111094Y7128D02*
X110684D01*
Y7538D01*
X111094D01*
Y7128D01*
D02*
G37*
G36*
X99208Y11226D02*
X98388D01*
Y10817D01*
X97159D01*
Y10407D01*
X96749D01*
Y9997D01*
X97159D01*
Y9587D01*
X98798D01*
Y9177D01*
X99208D01*
Y7128D01*
X98388D01*
Y7948D01*
X98798D01*
Y8767D01*
X96749D01*
Y9177D01*
X96339D01*
Y9587D01*
X95929D01*
Y10407D01*
X96339D01*
Y11226D01*
X97569D01*
Y11636D01*
X99208D01*
Y11226D01*
D02*
G37*
G36*
X114373D02*
X113553D01*
Y10817D01*
X113143D01*
Y9997D01*
X113553D01*
Y9587D01*
X115193D01*
Y9177D01*
X113553D01*
Y7948D01*
X116013D01*
Y7538D01*
X114783D01*
Y7128D01*
X113553D01*
Y6718D01*
X113143D01*
Y7128D01*
X112324D01*
Y7538D01*
X112734D01*
Y9177D01*
X111914D01*
Y9587D01*
X112734D01*
Y10817D01*
X112324D01*
Y11226D01*
X112734D01*
Y11636D01*
X114373D01*
Y11226D01*
D02*
G37*
G36*
X110684Y10817D02*
X109045D01*
Y10407D01*
X108635D01*
Y9997D01*
X108225D01*
Y7948D01*
X108635D01*
Y7538D01*
X109455D01*
Y7128D01*
X110684D01*
Y6718D01*
X108225D01*
Y7128D01*
X107815D01*
Y7538D01*
X107405D01*
Y9997D01*
X107815D01*
Y10407D01*
X108225D01*
Y10817D01*
X108635D01*
Y11226D01*
X109045D01*
Y11636D01*
X110684D01*
Y10817D01*
D02*
G37*
G36*
X104127Y11636D02*
X104946D01*
Y9587D01*
X105356D01*
Y9177D01*
X105766D01*
Y8357D01*
X106176D01*
Y7538D01*
X106586D01*
Y7128D01*
X106176D01*
Y6718D01*
X105766D01*
Y7128D01*
X105356D01*
Y8357D01*
X103717D01*
Y7128D01*
X103307D01*
Y9177D01*
X103717D01*
Y9997D01*
X104127D01*
Y11226D01*
X103717D01*
Y12046D01*
X104127D01*
Y11636D01*
D02*
G37*
G36*
X103307Y6718D02*
X102897D01*
Y7128D01*
X103307D01*
Y6718D01*
D02*
G37*
G36*
X102487Y11226D02*
X102897D01*
Y9587D01*
X102487D01*
Y9177D01*
X101258D01*
Y7948D01*
X100848D01*
Y6718D01*
X100438D01*
Y11226D01*
X100848D01*
Y11636D01*
X102487D01*
Y11226D01*
D02*
G37*
G36*
X96749Y7128D02*
X98388D01*
Y6718D01*
X96749D01*
Y7128D01*
X95929D01*
Y7538D01*
X96749D01*
Y7128D01*
D02*
G37*
G36*
X94700Y6718D02*
X93880D01*
Y7538D01*
X94700D01*
Y6718D01*
D02*
G37*
G36*
X90601Y11226D02*
X92650D01*
Y10817D01*
X90601D01*
Y7948D01*
X90191D01*
Y6718D01*
X89781D01*
Y10817D01*
X88142D01*
Y11226D01*
X89781D01*
Y11636D01*
X90601D01*
Y11226D01*
D02*
G37*
G36*
X81994Y7128D02*
X84043D01*
Y6718D01*
X81584D01*
Y9587D01*
Y9997D01*
X81174D01*
Y11226D01*
X81994D01*
Y7128D01*
D02*
G37*
G36*
X79945Y10407D02*
X80355D01*
Y7948D01*
Y7538D01*
Y6718D01*
X79945D01*
Y7128D01*
X79535D01*
Y11636D01*
X79945D01*
Y10407D01*
D02*
G37*
G36*
X76256Y11636D02*
X77076D01*
Y9587D01*
X77486D01*
Y9177D01*
X77895D01*
Y8357D01*
X78305D01*
Y7538D01*
X78715D01*
Y7128D01*
X78305D01*
Y6718D01*
X77895D01*
Y7128D01*
X77486D01*
Y8357D01*
X75846D01*
Y7128D01*
X75436D01*
Y8767D01*
Y9177D01*
X75846D01*
Y9997D01*
X76256D01*
Y11226D01*
X75846D01*
Y12046D01*
X76256D01*
Y11636D01*
D02*
G37*
G36*
X75436Y6718D02*
X75026D01*
Y7128D01*
X75436D01*
Y6718D01*
D02*
G37*
G36*
X68059Y11226D02*
X70108D01*
Y10817D01*
X68059D01*
Y7948D01*
X67649D01*
Y6718D01*
X67239D01*
Y8767D01*
Y9177D01*
Y10817D01*
X65600D01*
Y11226D01*
X67239D01*
Y11636D01*
X68059D01*
Y11226D01*
D02*
G37*
G36*
X61911D02*
X62321D01*
Y10817D01*
X62731D01*
Y9587D01*
X63140D01*
Y8357D01*
X63550D01*
Y8767D01*
Y9997D01*
X63960D01*
Y11226D01*
X64370D01*
Y9177D01*
X63960D01*
Y6718D01*
X63550D01*
Y7128D01*
X63140D01*
Y8357D01*
X62731D01*
Y8767D01*
Y9177D01*
X62321D01*
Y9587D01*
X61911D01*
Y7128D01*
X61501D01*
Y11636D01*
X61911D01*
Y11226D01*
D02*
G37*
G36*
X50845Y6718D02*
X50025D01*
Y7128D01*
Y7538D01*
X50845D01*
Y6718D01*
D02*
G37*
%LPC*%
G36*
X333238Y67377D02*
X332828D01*
Y66967D01*
X333238D01*
Y67377D01*
D02*
G37*
G36*
X332828Y66967D02*
X332419D01*
Y66558D01*
X332828D01*
Y66967D01*
D02*
G37*
G36*
X331189Y65328D02*
X330779D01*
Y64918D01*
X331189D01*
Y65328D01*
D02*
G37*
G36*
X330369Y64098D02*
X329960D01*
Y63688D01*
X330369D01*
Y64098D01*
D02*
G37*
G36*
X100438Y66558D02*
X99618D01*
Y65738D01*
Y65328D01*
Y64918D01*
X100028D01*
Y64508D01*
X100438D01*
Y64918D01*
X100848D01*
Y66148D01*
X100438D01*
Y66558D01*
D02*
G37*
G36*
X127489Y65328D02*
X127079D01*
Y64918D01*
X127489D01*
Y65328D01*
D02*
G37*
G36*
X122160Y66558D02*
X121341D01*
Y66148D01*
Y65738D01*
X122160D01*
Y66558D01*
D02*
G37*
G36*
X122980Y64918D02*
X121341D01*
Y63688D01*
X120931D01*
Y63279D01*
X122160D01*
Y63688D01*
X122570D01*
Y64098D01*
X122980D01*
Y64918D01*
D02*
G37*
G36*
X112734Y66558D02*
X111504D01*
Y62869D01*
X111914D01*
Y63279D01*
X112734D01*
Y63688D01*
X113143D01*
Y64098D01*
X113553D01*
Y64508D01*
Y64918D01*
Y65328D01*
X113143D01*
Y66148D01*
X112734D01*
Y66558D01*
D02*
G37*
G36*
X335288Y60819D02*
X334878D01*
Y59590D01*
X335288D01*
Y60819D01*
D02*
G37*
G36*
X336107Y59180D02*
X335698D01*
Y58770D01*
X336107D01*
Y59180D01*
D02*
G37*
G36*
X327910Y57131D02*
X327500D01*
Y56721D01*
X327910D01*
Y57131D01*
D02*
G37*
G36*
X328320Y55901D02*
X327910D01*
Y54262D01*
X327500D01*
Y54672D01*
X327090D01*
Y53442D01*
X327500D01*
Y53032D01*
X327910D01*
Y52622D01*
X328320D01*
Y52212D01*
X328730D01*
Y51802D01*
X329140D01*
Y52212D01*
X328730D01*
Y52622D01*
X328320D01*
Y53442D01*
X327910D01*
Y53852D01*
X328320D01*
Y55901D01*
D02*
G37*
G36*
X339796Y53442D02*
X339386D01*
Y53032D01*
X339796D01*
Y52622D01*
X340616D01*
Y53032D01*
X339796D01*
Y53442D01*
D02*
G37*
G36*
X339386Y52622D02*
X338976D01*
Y51802D01*
X339386D01*
Y52212D01*
Y52622D01*
D02*
G37*
G36*
X340616Y51802D02*
X340206D01*
Y50983D01*
X340616D01*
Y51393D01*
Y51802D01*
D02*
G37*
G36*
X349633Y49753D02*
X349223D01*
Y49343D01*
X349633D01*
Y49753D01*
D02*
G37*
G36*
X349223Y49343D02*
X348813D01*
Y48934D01*
X348403D01*
Y48524D01*
X347993D01*
Y48114D01*
X347583D01*
Y47294D01*
X347993D01*
Y47704D01*
X348403D01*
Y48114D01*
X348813D01*
Y48524D01*
X349223D01*
Y49343D01*
D02*
G37*
G36*
X123800Y60410D02*
X122980D01*
Y58770D01*
X124619D01*
Y59590D01*
X124210D01*
Y60000D01*
X123800D01*
Y60410D01*
D02*
G37*
G36*
X86912Y9587D02*
X86502D01*
Y9177D01*
X86912D01*
Y9587D01*
D02*
G37*
G36*
X102487Y11226D02*
X101667D01*
Y10817D01*
X102487D01*
Y11226D01*
D02*
G37*
G36*
X101667Y10817D02*
X100848D01*
Y9587D01*
X102077D01*
Y10407D01*
X101667D01*
Y10817D01*
D02*
G37*
%LPD*%
D10*
X60091Y41835D02*
G03*
X60091Y41835I-492J0D01*
G01*
X280847Y161398D02*
G03*
X280847Y161398I-492J0D01*
G01*
X334252Y146752D02*
G03*
X334252Y146752I-492J0D01*
G01*
X154134Y121407D02*
G03*
X154134Y121407I-492J0D01*
G01*
Y113976D02*
G03*
X154134Y113976I-492J0D01*
G01*
Y143700D02*
G03*
X154134Y143700I-492J0D01*
G01*
Y136269D02*
G03*
X154134Y136269I-492J0D01*
G01*
Y128838D02*
G03*
X154134Y128838I-492J0D01*
G01*
Y99114D02*
G03*
X154134Y99114I-492J0D01*
G01*
Y106545D02*
G03*
X154134Y106545I-492J0D01*
G01*
X179035Y103858D02*
G03*
X179035Y103858I-492J0D01*
G01*
X220472Y66929D02*
G03*
X220472Y66929I-492J0D01*
G01*
X256594Y63189D02*
G03*
X256594Y63189I-492J0D01*
G01*
X117382Y138974D02*
G03*
X117382Y138974I-492J0D01*
G01*
X111051Y150488D02*
G03*
X111051Y150488I-492J0D01*
G01*
X125874Y71323D02*
G03*
X125874Y71323I-492J0D01*
G01*
X43961Y104500D02*
G03*
X43961Y104500I-492J0D01*
G01*
D11*
X128740Y117717D02*
G03*
X128740Y117717I-394J0D01*
G01*
Y137106D02*
G03*
X128740Y137106I-394J0D01*
G01*
X312205Y37500D02*
G03*
X312205Y37500I-394J0D01*
G01*
X186417Y38681D02*
G03*
X186417Y38681I-394J0D01*
G01*
X267126Y37421D02*
G03*
X267126Y37421I-394J0D01*
G01*
X144685Y41614D02*
G03*
X144685Y41614I-394J0D01*
G01*
X168032Y68504D02*
G03*
X168032Y68504I-394J0D01*
G01*
X290768Y57776D02*
G03*
X290768Y57776I-394J0D01*
G01*
X43756Y90216D02*
G03*
X43756Y90216I-394J0D01*
G01*
X48280Y51579D02*
X51626D01*
X48280Y39571D02*
X51626D01*
X296824Y34610D02*
X336824D01*
X296824Y14610D02*
X336824D01*
Y34610D01*
X296824Y14610D02*
Y34610D01*
X253007D02*
X293007D01*
X253007Y14610D02*
X293007D01*
Y34610D01*
X253007Y14610D02*
Y34610D01*
X169191D02*
X209191D01*
X169191Y14610D02*
X209191D01*
Y34610D01*
X169191Y14610D02*
Y34610D01*
X124610D02*
X164610D01*
X124610Y14610D02*
X164610D01*
Y34610D01*
X124610Y14610D02*
Y34610D01*
X283602Y157461D02*
X309842D01*
X185827D02*
X187106D01*
X185827Y86201D02*
Y157461D01*
X283602Y86201D02*
X309842D01*
X185827D02*
X187106D01*
X309842D02*
Y157461D01*
X35709Y29905D02*
X45387D01*
X35709Y36827D02*
X45387D01*
X323524Y143602D02*
X330217D01*
X323524Y149902D02*
X330217D01*
X143405Y118258D02*
X150098D01*
X143405Y124557D02*
X150098D01*
X143405Y110827D02*
X150098D01*
X143405Y117126D02*
X150098D01*
X143405Y140551D02*
X150098D01*
X143405Y146850D02*
X150098D01*
X143405Y133120D02*
X150098D01*
X143405Y139419D02*
X150098D01*
X143405Y125689D02*
X150098D01*
X143405Y131988D02*
X150098D01*
X143405Y95965D02*
X150098D01*
X143405Y102264D02*
X150098D01*
X143405Y103396D02*
X150098D01*
X143405Y109695D02*
X150098D01*
X161122Y144488D02*
X173721D01*
X161122Y105118D02*
X173721D01*
X161122D02*
Y144488D01*
X173721Y105118D02*
Y144488D01*
X139729Y91976D02*
Y101654D01*
X132807Y91976D02*
Y101654D01*
X319902Y95276D02*
X329902D01*
X319902D02*
Y135276D01*
X329902Y95276D02*
Y135276D01*
X319902D02*
X329902D01*
X341555Y91870D02*
X351555D01*
X341555D02*
Y141870D01*
X351555Y91870D02*
Y141870D01*
X341555D02*
X351555D01*
X167244Y172913D02*
X327244D01*
Y162913D02*
Y172913D01*
X319744Y162913D02*
X327244D01*
X167244D02*
X319744D01*
X167244D02*
Y172913D01*
Y80394D02*
X327244D01*
Y70394D02*
Y80394D01*
X319744Y70394D02*
X327244D01*
X167244D02*
X319744D01*
X167244D02*
Y80394D01*
X223781Y27264D02*
X239211D01*
X223781Y65846D02*
X239211D01*
X336824Y4610D02*
Y14610D01*
X296824Y4610D02*
X336824D01*
X296824Y14610D02*
X336824D01*
X296824Y4610D02*
Y14610D01*
X293007Y4610D02*
Y14610D01*
X253007Y4610D02*
X293007D01*
X253007Y14610D02*
X293007D01*
X253007Y4610D02*
Y14610D01*
X209191Y4610D02*
Y14610D01*
X169191Y4610D02*
X209191D01*
X169191Y14610D02*
X209191D01*
X169191Y4610D02*
Y14610D01*
X124610Y4610D02*
Y14610D01*
X164610D01*
X124610Y4610D02*
X164610D01*
Y14610D01*
X140629Y74307D02*
Y87323D01*
X149906Y74307D02*
Y87323D01*
X39370Y146555D02*
X41142D01*
X30695D02*
X32480D01*
X30709Y141240D02*
Y146555D01*
X41142Y141240D02*
Y146555D01*
X56791Y146457D02*
X58563D01*
X48116D02*
X49902D01*
X48130Y141142D02*
Y146457D01*
X58563Y141142D02*
Y146457D01*
X114476Y135439D02*
X115854D01*
Y134061D02*
Y135439D01*
Y118509D02*
Y119887D01*
X114476Y118509D02*
X115854D01*
X98925D02*
X100303D01*
X98925D02*
Y119887D01*
Y135439D02*
X100303D01*
X98925Y134061D02*
Y135439D01*
X121268Y152457D02*
Y162988D01*
X89417Y152457D02*
Y162988D01*
Y152457D02*
X91268D01*
X119417D02*
X121268D01*
X75098Y148130D02*
Y149705D01*
X86910Y148130D02*
Y149705D01*
X81398Y146161D02*
X81791D01*
X80216Y151673D02*
X81791D01*
X75870Y138993D02*
X85548D01*
X75870Y132070D02*
X85548D01*
X96571Y136007D02*
Y145686D01*
X89649Y136007D02*
Y145686D01*
X81775Y114681D02*
X91453D01*
X81775Y107759D02*
X91453D01*
X107075Y97504D02*
X120461D01*
X107075Y71126D02*
X120461D01*
X107075D02*
Y97504D01*
X120461Y71126D02*
Y97504D01*
X131807Y75976D02*
Y85654D01*
X138729Y75976D02*
Y85654D01*
X46010Y81116D02*
X59026D01*
X46010Y71839D02*
X59026D01*
X46010Y71651D02*
X59026D01*
X46010Y62375D02*
X59026D01*
X47679Y60776D02*
X57357D01*
X47679Y53854D02*
X57357D01*
X108402Y31628D02*
Y44644D01*
X99126Y31628D02*
Y44644D01*
X120583Y31681D02*
Y44697D01*
X111307Y31681D02*
Y44697D01*
X8626Y116705D02*
X40909D01*
Y74972D02*
Y116705D01*
X8626Y74972D02*
X40909D01*
X8626D02*
Y116705D01*
X66004Y58504D02*
X95531D01*
Y32126D02*
Y37146D01*
Y53484D02*
Y58504D01*
X66004Y32126D02*
X95531D01*
X66004D02*
Y37146D01*
Y53484D02*
Y58504D01*
D12*
X170965Y109055D02*
G03*
X170965Y109055I-1181J0D01*
G01*
D13*
X109402Y150307D02*
G03*
X109402Y150307I-197J0D01*
G01*
X74902Y144587D02*
G03*
X74902Y144587I-197J0D01*
G01*
D14*
X195669Y145276D02*
X195965Y144980D01*
D15*
X6797Y125358D02*
X7197Y124957D01*
X18197Y124857D02*
X18597Y125257D01*
Y142657D01*
X18197Y143057D02*
X18597Y142657D01*
X6797Y125357D02*
Y142557D01*
X7197Y142957D01*
X38378Y170708D02*
X38780Y171108D01*
X38278Y159708D02*
X38678Y159308D01*
X56078D01*
X56478Y159708D01*
X38778Y171108D02*
X55978D01*
X56378Y170708D01*
D16*
X44882Y121858D02*
X47063D01*
X44882Y97370D02*
Y121858D01*
X69472D02*
X71653D01*
Y97370D02*
Y121858D01*
X44882Y97370D02*
X71653D01*
X313953Y155763D02*
X316952D01*
X315953Y154763D01*
X316952Y153763D01*
X313953D01*
X316952Y152764D02*
X313953D01*
Y151264D01*
X314453Y150764D01*
X316452D01*
X316952Y151264D01*
Y152764D01*
X313953Y149765D02*
Y148765D01*
Y149265D01*
X316952D01*
X316452Y149765D01*
X166855Y101106D02*
Y98607D01*
X167355Y98107D01*
X168355D01*
X168854Y98607D01*
Y101106D01*
X171853D02*
X170854Y100606D01*
X169854Y99606D01*
Y98607D01*
X170354Y98107D01*
X171354D01*
X171853Y98607D01*
Y99107D01*
X171354Y99606D01*
X169854D01*
X175196Y157503D02*
Y157004D01*
X174696D01*
X175696D01*
X175196D01*
Y155504D01*
X175696Y155004D01*
X177195Y154005D02*
Y157004D01*
X178695D01*
X179195Y156504D01*
Y155504D01*
X178695Y155004D01*
X177195D01*
X181694D02*
Y158003D01*
X180194Y156504D01*
X182194D01*
X165255Y157700D02*
Y157201D01*
X164755D01*
X165755D01*
X165255D01*
Y155701D01*
X165755Y155201D01*
X167254Y154201D02*
Y157201D01*
X168754D01*
X169254Y156701D01*
Y155701D01*
X168754Y155201D01*
X167254D01*
X170253Y157700D02*
X170753Y158200D01*
X171753D01*
X172253Y157700D01*
Y157201D01*
X171753Y156701D01*
X171253D01*
X171753D01*
X172253Y156201D01*
Y155701D01*
X171753Y155201D01*
X170753D01*
X170253Y155701D01*
X119131Y110410D02*
Y113409D01*
X120631D01*
X121131Y112909D01*
Y111909D01*
X120631Y111410D01*
X119131D01*
X120131D02*
X121131Y110410D01*
X122130D02*
Y113409D01*
X124130Y110410D01*
Y113409D01*
X125129Y112909D02*
X125629Y113409D01*
X126629D01*
X127129Y112909D01*
Y112409D01*
X126629Y111909D01*
X127129Y111410D01*
Y110910D01*
X126629Y110410D01*
X125629D01*
X125129Y110910D01*
Y111410D01*
X125629Y111909D01*
X125129Y112409D01*
Y112909D01*
X125629Y111909D02*
X126629D01*
X130140Y139243D02*
Y142243D01*
X131639D01*
X132139Y141743D01*
Y140743D01*
X131639Y140243D01*
X130140D01*
X131139D02*
X132139Y139243D01*
X133139D02*
Y142243D01*
X135138Y139243D01*
Y142243D01*
X136138D02*
X138137D01*
Y141743D01*
X136138Y139743D01*
Y139243D01*
X325090Y156965D02*
Y159964D01*
X326589D01*
X327089Y159464D01*
Y158465D01*
X326589Y157965D01*
X325090D01*
X326090D02*
X327089Y156965D01*
X328089D02*
X329088D01*
X328589D01*
Y159964D01*
X328089Y159464D01*
X330588D02*
X331088Y159964D01*
X332088D01*
X332587Y159464D01*
Y158964D01*
X332088Y158465D01*
X331588D01*
X332088D01*
X332587Y157965D01*
Y157465D01*
X332088Y156965D01*
X331088D01*
X330588Y157465D01*
X63968Y157162D02*
Y160161D01*
X65467D01*
X65967Y159661D01*
Y158661D01*
X65467Y158162D01*
X63968D01*
X64967D02*
X65967Y157162D01*
X66967D02*
X67967D01*
X67467D01*
Y160161D01*
X66967Y159661D01*
X71465Y157162D02*
X69466D01*
X71465Y159161D01*
Y159661D01*
X70965Y160161D01*
X69966D01*
X69466Y159661D01*
X320956Y137280D02*
Y140279D01*
X322456D01*
X322955Y139779D01*
Y138779D01*
X322456Y138280D01*
X320956D01*
X323955Y137280D02*
X324955D01*
X324455D01*
Y140279D01*
X323955Y139779D01*
X328453Y137280D02*
X326454D01*
X328453Y139279D01*
Y139779D01*
X327954Y140279D01*
X326954D01*
X326454Y139779D01*
X343405Y144071D02*
Y147070D01*
X344904D01*
X345404Y146571D01*
Y145571D01*
X344904Y145071D01*
X343405D01*
X346404Y144071D02*
X347403D01*
X346903D01*
Y147070D01*
X346404Y146571D01*
X348903Y144071D02*
X349903D01*
X349403D01*
Y147070D01*
X348903Y146571D01*
X164590Y163968D02*
X161591D01*
Y165467D01*
X162091Y165967D01*
X163091D01*
X163590Y165467D01*
Y163968D01*
X164590Y166967D02*
Y167966D01*
Y167467D01*
X161591D01*
X162091Y166967D01*
Y169466D02*
X161591Y169966D01*
Y170966D01*
X162091Y171465D01*
X164090D01*
X164590Y170966D01*
Y169966D01*
X164090Y169466D01*
X162091D01*
X162395Y73543D02*
X159396D01*
Y75042D01*
X159895Y75542D01*
X160895D01*
X161395Y75042D01*
Y73543D01*
X161895Y76542D02*
X162395Y77042D01*
Y78041D01*
X161895Y78541D01*
X159895D01*
X159396Y78041D01*
Y77042D01*
X159895Y76542D01*
X160395D01*
X160895Y77042D01*
Y78541D01*
X336182Y149629D02*
Y146630D01*
X337681D01*
X338181Y147130D01*
Y149130D01*
X337681Y149629D01*
X336182D01*
X339181Y149130D02*
X339681Y149629D01*
X340681D01*
X341180Y149130D01*
Y148630D01*
X340681Y148130D01*
X340181D01*
X340681D01*
X341180Y147630D01*
Y147130D01*
X340681Y146630D01*
X339681D01*
X339181Y147130D01*
X144919Y54878D02*
Y57877D01*
X146418D01*
X146918Y57378D01*
Y56378D01*
X146418Y55878D01*
X144919D01*
X145918D02*
X146918Y54878D01*
X147918D02*
Y57877D01*
X149917Y54878D01*
Y57877D01*
X150917Y57378D02*
X151417Y57877D01*
X152416D01*
X152916Y57378D01*
Y56878D01*
X152416Y56378D01*
X151916D01*
X152416D01*
X152916Y55878D01*
Y55378D01*
X152416Y54878D01*
X151417D01*
X150917Y55378D01*
X223190Y69807D02*
Y67307D01*
X223690Y66808D01*
X224689D01*
X225189Y67307D01*
Y69807D01*
X228188D02*
X226189D01*
Y68307D01*
X227188Y68807D01*
X227688D01*
X228188Y68307D01*
Y67307D01*
X227688Y66808D01*
X226689D01*
X226189Y67307D01*
X301021Y43776D02*
Y46775D01*
X302520D01*
X303020Y46275D01*
Y45276D01*
X302520Y44776D01*
X301021D01*
X302021D02*
X303020Y43776D01*
X304020D02*
Y46775D01*
X306019Y43776D01*
Y46775D01*
X309018D02*
X308019Y46275D01*
X307019Y45276D01*
Y44276D01*
X307519Y43776D01*
X308519D01*
X309018Y44276D01*
Y44776D01*
X308519Y45276D01*
X307019D01*
X186257Y52020D02*
Y55019D01*
X187757D01*
X188257Y54519D01*
Y53520D01*
X187757Y53020D01*
X186257D01*
X187257D02*
X188257Y52020D01*
X189256D02*
Y55019D01*
X191256Y52020D01*
Y55019D01*
X194255D02*
X192255D01*
Y53520D01*
X193255Y54019D01*
X193755D01*
X194255Y53520D01*
Y52520D01*
X193755Y52020D01*
X192755D01*
X192255Y52520D01*
X266867Y55213D02*
Y58212D01*
X268367D01*
X268867Y57712D01*
Y56713D01*
X268367Y56213D01*
X266867D01*
X267867D02*
X268867Y55213D01*
X269866D02*
Y58212D01*
X271866Y55213D01*
Y58212D01*
X274365Y55213D02*
Y58212D01*
X272866Y56713D01*
X274865D01*
X180725Y68762D02*
X183724D01*
Y67263D01*
X183224Y66763D01*
X182224D01*
X181725Y67263D01*
Y68762D01*
Y67763D02*
X180725Y66763D01*
Y65763D02*
X183724D01*
X180725Y63764D01*
X183724D01*
X180725Y60765D02*
Y62764D01*
X182724Y60765D01*
X183224D01*
X183724Y61265D01*
Y62265D01*
X183224Y62764D01*
X294760Y66196D02*
X297759D01*
Y64696D01*
X297259Y64196D01*
X296260D01*
X295760Y64696D01*
Y66196D01*
Y65196D02*
X294760Y64196D01*
Y63197D02*
X297759D01*
X294760Y61197D01*
X297759D01*
X294760Y60198D02*
Y59198D01*
Y59698D01*
X297759D01*
X297259Y60198D01*
X288483Y45745D02*
Y48744D01*
X289983D01*
X290483Y48244D01*
Y47244D01*
X289983Y46744D01*
X288483D01*
X289483D02*
X290483Y45745D01*
X291482D02*
X292482D01*
X291982D01*
Y48744D01*
X291482Y48244D01*
X293982Y45745D02*
X294981D01*
X294481D01*
Y48744D01*
X293982Y48244D01*
X248977Y69216D02*
Y66217D01*
X250477D01*
X250976Y66717D01*
Y68716D01*
X250477Y69216D01*
X248977D01*
X253976Y66217D02*
X251976D01*
X253976Y68216D01*
Y68716D01*
X253476Y69216D01*
X252476D01*
X251976Y68716D01*
X32025Y153960D02*
Y151961D01*
X33025Y150961D01*
X34024Y151961D01*
Y153960D01*
X35024D02*
X37023D01*
X36024D01*
Y150961D01*
X40022D02*
X38023D01*
X40022Y152961D01*
Y153460D01*
X39522Y153960D01*
X38523D01*
X38023Y153460D01*
X61265Y149433D02*
Y147433D01*
X62265Y146434D01*
X63264Y147433D01*
Y149433D01*
X64264D02*
X66263D01*
X65264D01*
Y146434D01*
X67263D02*
X68263D01*
X67763D01*
Y149433D01*
X67263Y148933D01*
X19873Y147221D02*
Y150220D01*
X21373D01*
X21873Y149720D01*
Y148721D01*
X21373Y148221D01*
X19873D01*
X20873D02*
X21873Y147221D01*
X22872D02*
X23872D01*
X23372D01*
Y150220D01*
X22872Y149720D01*
X25372D02*
X25871Y150220D01*
X26871D01*
X27371Y149720D01*
Y147721D01*
X26871Y147221D01*
X25871D01*
X25372Y147721D01*
Y149720D01*
X47963Y160296D02*
Y163295D01*
X49463D01*
X49963Y162795D01*
Y161795D01*
X49463Y161296D01*
X47963D01*
X48963D02*
X49963Y160296D01*
X50962Y160796D02*
X51462Y160296D01*
X52462D01*
X52962Y160796D01*
Y162795D01*
X52462Y163295D01*
X51462D01*
X50962Y162795D01*
Y162295D01*
X51462Y161795D01*
X52962D01*
X40217Y123501D02*
Y126499D01*
X41717D01*
X42217Y126000D01*
Y125000D01*
X41717Y124500D01*
X40217D01*
X41217D02*
X42217Y123501D01*
X43216Y126000D02*
X43716Y126499D01*
X44716D01*
X45216Y126000D01*
Y125500D01*
X44716Y125000D01*
X45216Y124500D01*
Y124000D01*
X44716Y123501D01*
X43716D01*
X43216Y124000D01*
Y124500D01*
X43716Y125000D01*
X43216Y125500D01*
Y126000D01*
X43716Y125000D02*
X44716D01*
X40020Y128520D02*
Y131519D01*
X41520D01*
X42020Y131019D01*
Y130020D01*
X41520Y129520D01*
X40020D01*
X41020D02*
X42020Y128520D01*
X45019Y131519D02*
X44019Y131019D01*
X43020Y130020D01*
Y129020D01*
X43519Y128520D01*
X44519D01*
X45019Y129020D01*
Y129520D01*
X44519Y130020D01*
X43020D01*
X19253Y121578D02*
Y118579D01*
Y119579D01*
X21252Y121578D01*
X19753Y120079D01*
X21252Y118579D01*
X24251D02*
X22252D01*
X24251Y120579D01*
Y121078D01*
X23751Y121578D01*
X22752D01*
X22252Y121078D01*
X60501Y171578D02*
Y168579D01*
Y169579D01*
X62500Y171578D01*
X61001Y170079D01*
X62500Y168579D01*
X63500D02*
X64499D01*
X63999D01*
Y171578D01*
X63500Y171078D01*
X98359Y144824D02*
X100858D01*
X101358Y145324D01*
Y146323D01*
X100858Y146823D01*
X98359D01*
X101358Y149322D02*
X98359D01*
X99858Y147823D01*
Y149822D01*
X125438Y136425D02*
X122939D01*
X122439Y135925D01*
Y134925D01*
X122939Y134425D01*
X125438D01*
X124938Y133426D02*
X125438Y132926D01*
Y131926D01*
X124938Y131426D01*
X124439D01*
X123939Y131926D01*
Y132426D01*
Y131926D01*
X123439Y131426D01*
X122939D01*
X122439Y131926D01*
Y132926D01*
X122939Y133426D01*
X74418Y125264D02*
Y128263D01*
X75918D01*
X76417Y127763D01*
Y126764D01*
X75918Y126264D01*
X74418D01*
X75418D02*
X76417Y125264D01*
X77417Y128263D02*
X79417D01*
Y127763D01*
X77417Y125764D01*
Y125264D01*
X110001Y108835D02*
Y111834D01*
X111500D01*
X112000Y111334D01*
Y110335D01*
X111500Y109835D01*
X110001D01*
X111001D02*
X112000Y108835D01*
X114999Y111834D02*
X113000D01*
Y110335D01*
X113999Y110835D01*
X114499D01*
X114999Y110335D01*
Y109335D01*
X114499Y108835D01*
X113500D01*
X113000Y109335D01*
X74418Y117185D02*
Y120185D01*
X75918D01*
X76417Y119685D01*
Y118685D01*
X75918Y118185D01*
X74418D01*
X75418D02*
X76417Y117185D01*
X78917D02*
Y120185D01*
X77417Y118685D01*
X79417D01*
X126075Y162425D02*
X125075D01*
X125575D01*
Y159925D01*
X125075Y159426D01*
X124575D01*
X124076Y159925D01*
X129074Y159426D02*
X127075D01*
X129074Y161425D01*
Y161925D01*
X128574Y162425D01*
X127575D01*
X127075Y161925D01*
X69170Y144457D02*
X72169D01*
Y145957D01*
X71669Y146457D01*
X69670D01*
X69170Y145957D01*
Y144457D01*
X72169Y147456D02*
Y148456D01*
Y147956D01*
X69170D01*
X69670Y147456D01*
X68459Y136031D02*
X67959Y136531D01*
X66960D01*
X66460Y136031D01*
Y134032D01*
X66960Y133532D01*
X67959D01*
X68459Y134032D01*
X69459Y133532D02*
X70459D01*
X69959D01*
Y136531D01*
X69459Y136031D01*
X73957Y133532D02*
X71958D01*
X73957Y135531D01*
Y136031D01*
X73458Y136531D01*
X72458D01*
X71958Y136031D01*
X91861Y150507D02*
X91361Y151007D01*
X90361D01*
X89861Y150507D01*
Y148508D01*
X90361Y148008D01*
X91361D01*
X91861Y148508D01*
X92860Y148008D02*
X93860D01*
X93360D01*
Y151007D01*
X92860Y150507D01*
X95359Y148008D02*
X96359D01*
X95859D01*
Y151007D01*
X95359Y150507D01*
X84570Y105035D02*
X84070Y105535D01*
X83070D01*
X82570Y105035D01*
Y103036D01*
X83070Y102536D01*
X84070D01*
X84570Y103036D01*
X85569Y102536D02*
X86569D01*
X86069D01*
Y105535D01*
X85569Y105035D01*
X88068D02*
X88568Y105535D01*
X89568D01*
X90068Y105035D01*
Y103036D01*
X89568Y102536D01*
X88568D01*
X88068Y103036D01*
Y105035D01*
X144768Y72315D02*
X144268Y72815D01*
X143268D01*
X142769Y72315D01*
Y70315D01*
X143268Y69815D01*
X144268D01*
X144768Y70315D01*
X145768D02*
X146267Y69815D01*
X147267D01*
X147767Y70315D01*
Y72315D01*
X147267Y72815D01*
X146267D01*
X145768Y72315D01*
Y71815D01*
X146267Y71315D01*
X147767D01*
X99961Y103370D02*
Y100870D01*
X100461Y100371D01*
X101461D01*
X101961Y100870D01*
Y103370D01*
X104960Y100371D02*
X102961D01*
X104960Y102370D01*
Y102870D01*
X104460Y103370D01*
X103460D01*
X102961Y102870D01*
X134768Y72315D02*
X134268Y72815D01*
X133268D01*
X132768Y72315D01*
Y70315D01*
X133268Y69815D01*
X134268D01*
X134768Y70315D01*
X135768Y72315D02*
X136267Y72815D01*
X137267D01*
X137767Y72315D01*
Y71815D01*
X137267Y71315D01*
X137767Y70815D01*
Y70315D01*
X137267Y69815D01*
X136267D01*
X135768Y70315D01*
Y70815D01*
X136267Y71315D01*
X135768Y71815D01*
Y72315D01*
X136267Y71315D02*
X137267D01*
X144504Y92232D02*
X145003Y92732D01*
Y93732D01*
X144504Y94231D01*
X142504D01*
X142004Y93732D01*
Y92732D01*
X142504Y92232D01*
X145003Y91232D02*
Y89233D01*
X144504D01*
X142504Y91232D01*
X142004D01*
X50295Y34169D02*
X49795Y34669D01*
X48796D01*
X48296Y34169D01*
Y32170D01*
X48796Y31670D01*
X49795D01*
X50295Y32170D01*
X51295Y31670D02*
X52295D01*
X51795D01*
Y34669D01*
X51295Y34169D01*
X66564Y76977D02*
X66065Y77477D01*
X65065D01*
X64565Y76977D01*
Y74978D01*
X65065Y74478D01*
X66065D01*
X66564Y74978D01*
X69563Y74478D02*
X67564D01*
X69563Y76477D01*
Y76977D01*
X69064Y77477D01*
X68064D01*
X67564Y76977D01*
X66564Y67512D02*
X66065Y68012D01*
X65065D01*
X64565Y67512D01*
Y65513D01*
X65065Y65013D01*
X66065D01*
X66564Y65513D01*
X67564Y67512D02*
X68064Y68012D01*
X69064D01*
X69563Y67512D01*
Y67013D01*
X69064Y66513D01*
X68564D01*
X69064D01*
X69563Y66013D01*
Y65513D01*
X69064Y65013D01*
X68064D01*
X67564Y65513D01*
X61268Y58315D02*
X60768Y58815D01*
X59768D01*
X59268Y58315D01*
Y56315D01*
X59768Y55815D01*
X60768D01*
X61268Y56315D01*
X63767Y55815D02*
Y58815D01*
X62268Y57315D01*
X64267D01*
X103264Y51413D02*
X102764Y51913D01*
X101764D01*
X101265Y51413D01*
Y49414D01*
X101764Y48914D01*
X102764D01*
X103264Y49414D01*
X106263Y51913D02*
X104264D01*
Y50413D01*
X105263Y50913D01*
X105763D01*
X106263Y50413D01*
Y49414D01*
X105763Y48914D01*
X104763D01*
X104264Y49414D01*
X115445Y51466D02*
X114945Y51966D01*
X113945D01*
X113446Y51466D01*
Y49467D01*
X113945Y48967D01*
X114945D01*
X115445Y49467D01*
X118444Y51966D02*
X117444Y51466D01*
X116445Y50466D01*
Y49467D01*
X116945Y48967D01*
X117944D01*
X118444Y49467D01*
Y49967D01*
X117944Y50466D01*
X116445D01*
X28248Y72956D02*
X27248D01*
X27748D01*
Y70457D01*
X27248Y69957D01*
X26748D01*
X26249Y70457D01*
X29248Y69957D02*
X30247D01*
X29748D01*
Y72956D01*
X29248Y72456D01*
X78268Y65315D02*
Y62315D01*
X80268D01*
X81267D02*
X82267D01*
X81767D01*
Y65315D01*
X81267Y64815D01*
X57268Y91315D02*
Y93315D01*
X56768Y93814D01*
X55768D01*
X55268Y93315D01*
Y91315D01*
X55768Y90815D01*
X56768D01*
X56268Y91815D02*
X57268Y90815D01*
X56768D02*
X57268Y91315D01*
X58267Y90815D02*
X59267D01*
X58767D01*
Y93814D01*
X58267Y93315D01*
X37469Y41119D02*
Y44118D01*
X38969D01*
X39469Y43618D01*
Y42618D01*
X38969Y42118D01*
X37469D01*
X38469D02*
X39469Y41119D01*
X40468D02*
X41468D01*
X40968D01*
Y44118D01*
X40468Y43618D01*
X35001Y58245D02*
Y61244D01*
X36500D01*
X37000Y60744D01*
Y59744D01*
X36500Y59244D01*
X35001D01*
X36000D02*
X37000Y58245D01*
X39999D02*
X38000D01*
X39999Y60244D01*
Y60744D01*
X39499Y61244D01*
X38500D01*
X38000Y60744D01*
X35296Y49091D02*
Y52090D01*
X36796D01*
X37295Y51590D01*
Y50591D01*
X36796Y50091D01*
X35296D01*
X36296D02*
X37295Y49091D01*
X38295Y51590D02*
X38795Y52090D01*
X39795D01*
X40295Y51590D01*
Y51090D01*
X39795Y50591D01*
X39295D01*
X39795D01*
X40295Y50091D01*
Y49591D01*
X39795Y49091D01*
X38795D01*
X38295Y49591D01*
X54989Y38114D02*
Y35614D01*
X55489Y35115D01*
X56488D01*
X56988Y35614D01*
Y38114D01*
X57988Y35115D02*
X58987D01*
X58488D01*
Y38114D01*
X57988Y37614D01*
X36424Y67444D02*
Y66945D01*
X35924D01*
X36924D01*
X36424D01*
Y65445D01*
X36924Y64945D01*
X38423Y63946D02*
Y66945D01*
X39923D01*
X40423Y66445D01*
Y65445D01*
X39923Y64945D01*
X38423D01*
X41423D02*
X42422D01*
X41922D01*
Y67944D01*
X41423Y67444D01*
X128149Y44708D02*
Y44208D01*
X127649D01*
X128648D01*
X128149D01*
Y42709D01*
X128648Y42209D01*
X130148Y41209D02*
Y44208D01*
X131648D01*
X132147Y43709D01*
Y42709D01*
X131648Y42209D01*
X130148D01*
X135146D02*
X133147D01*
X135146Y44208D01*
Y44708D01*
X134647Y45208D01*
X133647D01*
X133147Y44708D01*
D17*
X203596Y37962D02*
X205262D01*
Y37546D01*
X203596Y35879D01*
Y35463D01*
X336624Y96397D02*
X336207Y95980D01*
Y95147D01*
X336624Y94731D01*
X338290D01*
X338706Y95147D01*
Y95980D01*
X338290Y96397D01*
X337457D01*
Y95564D01*
X171157Y80935D02*
X171990D01*
X171574D01*
Y83435D01*
X171157Y83018D01*
X174906Y83435D02*
X173240D01*
Y82185D01*
X174073Y82602D01*
X174489D01*
X174906Y82185D01*
Y81352D01*
X174489Y80935D01*
X173656D01*
X173240Y81352D01*
X276866Y35463D02*
X277699D01*
X277282D01*
Y37962D01*
X276866Y37546D01*
X278948D02*
X279365Y37962D01*
X280198D01*
X280615Y37546D01*
Y35879D01*
X280198Y35463D01*
X279365D01*
X278948Y35879D01*
Y37546D01*
X5269Y105815D02*
X6935D01*
X6102Y106648D02*
Y104982D01*
X211432Y18996D02*
X213098D01*
X212265Y19829D02*
Y18163D01*
X215597Y20246D02*
X213931D01*
Y18996D01*
X214764Y19413D01*
X215180D01*
X215597Y18996D01*
Y18163D01*
X215180Y17747D01*
X214347D01*
X213931Y18163D01*
X216430Y20246D02*
Y18579D01*
X217263Y17747D01*
X218096Y18579D01*
Y20246D01*
X354800Y125817D02*
X353134D01*
X354800Y127483D01*
Y127900D01*
X354383Y128316D01*
X353550D01*
X353134Y127900D01*
X355633Y128316D02*
X357299D01*
Y127900D01*
X355633Y126234D01*
Y125817D01*
X299307Y35463D02*
X300140D01*
X299723D01*
Y37962D01*
X299307Y37546D01*
X303056Y35463D02*
X301389D01*
X303056Y37129D01*
Y37546D01*
X302639Y37962D01*
X301806D01*
X301389Y37546D01*
X315662Y126611D02*
X315246Y126194D01*
Y125361D01*
X315662Y124945D01*
X316079D01*
X316495Y125361D01*
Y126194D01*
X316912Y126611D01*
X317328D01*
X317745Y126194D01*
Y125361D01*
X317328Y124945D01*
X315246Y127444D02*
X317745D01*
Y128693D01*
X317328Y129110D01*
X315662D01*
X315246Y128693D01*
Y127444D01*
X317745Y129943D02*
X316079D01*
X315246Y130776D01*
X316079Y131609D01*
X317745D01*
X316495D01*
Y129943D01*
X317745Y133692D02*
X315246D01*
X316495Y132442D01*
Y134108D01*
X210724Y81231D02*
X211557D01*
X211141D01*
Y83730D01*
X210724Y83313D01*
X214473Y83730D02*
X213640Y83313D01*
X212807Y82480D01*
Y81647D01*
X213223Y81231D01*
X214056D01*
X214473Y81647D01*
Y82064D01*
X214056Y82480D01*
X212807D01*
X264128Y35879D02*
X264544Y35463D01*
X265377D01*
X265794Y35879D01*
Y37546D01*
X265377Y37962D01*
X264544D01*
X264128Y37546D01*
Y37129D01*
X264544Y36713D01*
X265794D01*
X283343Y161857D02*
X282927Y162273D01*
X282094D01*
X281677Y161857D01*
Y161440D01*
X282094Y161024D01*
X282927D01*
X283343Y160607D01*
Y160191D01*
X282927Y159774D01*
X282094D01*
X281677Y160191D01*
X284176Y159774D02*
Y162273D01*
X285842Y159774D01*
Y162273D01*
X330901Y128868D02*
X331734D01*
X331318D01*
Y131368D01*
X330901Y130951D01*
X332984Y129285D02*
X333400Y128868D01*
X334233D01*
X334650Y129285D01*
Y130951D01*
X334233Y131368D01*
X333400D01*
X332984Y130951D01*
Y130535D01*
X333400Y130118D01*
X334650D01*
X355535Y135758D02*
Y138258D01*
X354285Y137008D01*
X355951D01*
X17277Y105028D02*
X18943D01*
X18110Y105861D02*
Y104195D01*
X170173Y159577D02*
X171006D01*
X170589D01*
Y162076D01*
X170173Y161660D01*
X172256D02*
X172672Y162076D01*
X173505D01*
X173922Y161660D01*
Y161243D01*
X173505Y160827D01*
X173089D01*
X173505D01*
X173922Y160410D01*
Y159994D01*
X173505Y159577D01*
X172672D01*
X172256Y159994D01*
X212514Y23652D02*
Y26151D01*
X213764D01*
X214180Y25735D01*
Y24902D01*
X213764Y24485D01*
X212514D01*
X215013Y26151D02*
Y23652D01*
X215846Y24485D01*
X216680Y23652D01*
Y26151D01*
X217513Y23652D02*
Y26151D01*
X218346Y25318D01*
X219179Y26151D01*
Y23652D01*
X287125Y35463D02*
X287958D01*
X287541D01*
Y37962D01*
X287125Y37546D01*
X289208Y35463D02*
X290040D01*
X289624D01*
Y37962D01*
X289208Y37546D01*
X128596D02*
X129013Y37962D01*
X129846D01*
X130262Y37546D01*
Y35879D01*
X129846Y35463D01*
X129013D01*
X128596Y35879D01*
Y37546D01*
X315662Y116111D02*
X315246Y115694D01*
Y114861D01*
X315662Y114445D01*
X316079D01*
X316495Y114861D01*
Y115694D01*
X316912Y116111D01*
X317328D01*
X317745Y115694D01*
Y114861D01*
X317328Y114445D01*
X315662Y118610D02*
X315246Y118193D01*
Y117360D01*
X315662Y116944D01*
X317328D01*
X317745Y117360D01*
Y118193D01*
X317328Y118610D01*
X315246Y119443D02*
X317745D01*
Y121109D01*
Y123192D02*
X315246D01*
X316495Y121942D01*
Y123608D01*
X262553Y83435D02*
X264219D01*
Y83018D01*
X262553Y81352D01*
Y80935D01*
X292005Y161758D02*
X291588Y162175D01*
X290755D01*
X290339Y161758D01*
Y161342D01*
X290755Y160925D01*
X291588D01*
X292005Y160509D01*
Y160092D01*
X291588Y159676D01*
X290755D01*
X290339Y160092D01*
X292838Y159676D02*
Y162175D01*
X294087D01*
X294504Y161758D01*
Y160925D01*
X294087Y160509D01*
X292838D01*
X290831Y83533D02*
X292497D01*
X291664D01*
Y81034D01*
X293330Y83533D02*
X294996Y81034D01*
Y83533D02*
X293330Y81034D01*
X184888Y37962D02*
X183222D01*
Y36713D01*
X184055Y37129D01*
X184472D01*
X184888Y36713D01*
Y35879D01*
X184472Y35463D01*
X183639D01*
X183222Y35879D01*
X249787Y161758D02*
X250204Y162175D01*
X251037D01*
X251453Y161758D01*
Y161342D01*
X251037Y160925D01*
X250621D01*
X251037D01*
X251453Y160509D01*
Y160092D01*
X251037Y159676D01*
X250204D01*
X249787Y160092D01*
X253953Y159676D02*
X252287D01*
X253953Y161342D01*
Y161758D01*
X253536Y162175D01*
X252703D01*
X252287Y161758D01*
X336624Y114897D02*
X336207Y114480D01*
Y113647D01*
X336624Y113231D01*
X337040D01*
X337457Y113647D01*
Y114480D01*
X337873Y114897D01*
X338290D01*
X338706Y114480D01*
Y113647D01*
X338290Y113231D01*
X336624Y117396D02*
X336207Y116980D01*
Y116147D01*
X336624Y115730D01*
X338290D01*
X338706Y116147D01*
Y116980D01*
X338290Y117396D01*
X336207Y118229D02*
X338706D01*
Y119895D01*
X280693Y81034D02*
Y83533D01*
X281943D01*
X282359Y83117D01*
Y82284D01*
X281943Y81867D01*
X280693D01*
X281526D02*
X282359Y81034D01*
X283192Y83533D02*
X284858Y81034D01*
Y83533D02*
X283192Y81034D01*
X183609D02*
X181942D01*
X183609Y82700D01*
Y83117D01*
X183192Y83533D01*
X182359D01*
X181942Y83117D01*
X269965Y161857D02*
X270381Y162273D01*
X271214D01*
X271631Y161857D01*
Y161440D01*
X271214Y161024D01*
X270798D01*
X271214D01*
X271631Y160607D01*
Y160191D01*
X271214Y159774D01*
X270381D01*
X269965Y160191D01*
X273713Y159774D02*
Y162273D01*
X272464Y161024D01*
X274130D01*
X233707Y83631D02*
X232041D01*
Y82382D01*
X232874Y82798D01*
X233291D01*
X233707Y82382D01*
Y81549D01*
X233291Y81132D01*
X232457D01*
X232041Y81549D01*
X5269Y83791D02*
X6935D01*
X214082Y9396D02*
X213665Y9813D01*
X212832D01*
X212416Y9396D01*
Y7730D01*
X212832Y7313D01*
X213665D01*
X214082Y7730D01*
Y8563D01*
X213249D01*
X214915Y7313D02*
Y9813D01*
X216581Y7313D01*
Y9813D01*
X217414D02*
Y7313D01*
X218664D01*
X219080Y7730D01*
Y9396D01*
X218664Y9813D01*
X217414D01*
X239945Y161758D02*
X240361Y162175D01*
X241195D01*
X241611Y161758D01*
Y161342D01*
X241195Y160925D01*
X240778D01*
X241195D01*
X241611Y160509D01*
Y160092D01*
X241195Y159676D01*
X240361D01*
X239945Y160092D01*
X242444Y161758D02*
X242861Y162175D01*
X243694D01*
X244110Y161758D01*
Y161342D01*
X243694Y160925D01*
X243277D01*
X243694D01*
X244110Y160509D01*
Y160092D01*
X243694Y159676D01*
X242861D01*
X242444Y160092D01*
X138953Y35463D02*
X139787D01*
X139370D01*
Y37962D01*
X138953Y37546D01*
X330901Y119321D02*
X331734D01*
X331318D01*
Y121820D01*
X330901Y121404D01*
X332984D02*
X333400Y121820D01*
X334233D01*
X334650Y121404D01*
Y120987D01*
X334233Y120571D01*
X334650Y120154D01*
Y119738D01*
X334233Y119321D01*
X333400D01*
X332984Y119738D01*
Y120154D01*
X333400Y120571D01*
X332984Y120987D01*
Y121404D01*
X333400Y120571D02*
X334233D01*
X222221Y159577D02*
X220555D01*
X222221Y161243D01*
Y161660D01*
X221805Y162076D01*
X220972D01*
X220555Y161660D01*
X224721Y162076D02*
X223887Y161660D01*
X223054Y160827D01*
Y159994D01*
X223471Y159577D01*
X224304D01*
X224721Y159994D01*
Y160410D01*
X224304Y160827D01*
X223054D01*
X315245Y104945D02*
X316912D01*
X317745Y105778D01*
X316912Y106611D01*
X315245D01*
X315662Y109110D02*
X315245Y108694D01*
Y107860D01*
X315662Y107444D01*
X317328D01*
X317745Y107860D01*
Y108694D01*
X317328Y109110D01*
X315662Y111609D02*
X315245Y111193D01*
Y110360D01*
X315662Y109943D01*
X317328D01*
X317745Y110360D01*
Y111193D01*
X317328Y111609D01*
X259925Y161758D02*
X260342Y162175D01*
X261175D01*
X261591Y161758D01*
Y161342D01*
X261175Y160925D01*
X260758D01*
X261175D01*
X261591Y160509D01*
Y160092D01*
X261175Y159676D01*
X260342D01*
X259925Y160092D01*
X264090Y162175D02*
X262424D01*
Y160925D01*
X263258Y161342D01*
X263674D01*
X264090Y160925D01*
Y160092D01*
X263674Y159676D01*
X262841D01*
X262424Y160092D01*
X152809Y146881D02*
X154475D01*
X272441Y81231D02*
X270775D01*
X272441Y82897D01*
Y83313D01*
X272024Y83730D01*
X271191D01*
X270775Y83313D01*
X273274Y81231D02*
X274107D01*
X273691D01*
Y83730D01*
X273274Y83313D01*
X139423Y146760D02*
X141089D01*
X140256Y147593D02*
Y145927D01*
X221059Y81329D02*
X221892D01*
X221475D01*
Y83828D01*
X221059Y83412D01*
X223141Y83828D02*
X224808D01*
Y83412D01*
X223141Y81746D01*
Y81329D01*
X190744Y159676D02*
X191577D01*
X191160D01*
Y162175D01*
X190744Y161758D01*
X194492Y159676D02*
X192826D01*
X194492Y161342D01*
Y161758D01*
X194076Y162175D01*
X193243D01*
X192826Y161758D01*
X301749Y81231D02*
X300083D01*
X301749Y82897D01*
Y83313D01*
X301332Y83730D01*
X300499D01*
X300083Y83313D01*
X304248Y81231D02*
X302582D01*
X304248Y82897D01*
Y83313D01*
X303832Y83730D01*
X302998D01*
X302582Y83313D01*
X183412Y161660D02*
X182995Y162076D01*
X182162D01*
X181746Y161660D01*
Y159994D01*
X182162Y159577D01*
X182995D01*
X183412Y159994D01*
Y160827D01*
X182579D01*
X150242Y35463D02*
X148576D01*
X150242Y37129D01*
Y37546D01*
X149826Y37962D01*
X148993D01*
X148576Y37546D01*
X231867Y159577D02*
X230201D01*
X231867Y161243D01*
Y161660D01*
X231450Y162076D01*
X230617D01*
X230201Y161660D01*
X234366Y162076D02*
X232700D01*
Y160827D01*
X233533Y161243D01*
X233950D01*
X234366Y160827D01*
Y159994D01*
X233950Y159577D01*
X233117D01*
X232700Y159994D01*
X256943Y37546D02*
X257359Y37962D01*
X258192D01*
X258609Y37546D01*
Y37129D01*
X258192Y36713D01*
X258609Y36296D01*
Y35879D01*
X258192Y35463D01*
X257359D01*
X256943Y35879D01*
Y36296D01*
X257359Y36713D01*
X256943Y37129D01*
Y37546D01*
X257359Y36713D02*
X258192D01*
X190645Y81132D02*
X191478D01*
X191062D01*
Y83631D01*
X190645Y83215D01*
X193978Y81132D02*
Y83631D01*
X192728Y82382D01*
X194394D01*
X202976Y81231D02*
Y83730D01*
X201726Y82480D01*
X203392D01*
X68518Y168151D02*
Y170650D01*
X69768D01*
X70184Y170234D01*
Y169401D01*
X69768Y168984D01*
X68518D01*
X69351D02*
X70184Y168151D01*
X72684Y170650D02*
X71017D01*
Y168151D01*
X72684D01*
X71017Y169401D02*
X71850D01*
X73516Y170650D02*
X75183D01*
X74350D01*
Y168151D01*
X65186Y166691D02*
Y164192D01*
X66435D01*
X66852Y164609D01*
Y165025D01*
X66435Y165442D01*
X65186D01*
X66435D01*
X66852Y165858D01*
Y166275D01*
X66435Y166691D01*
X65186D01*
X67685Y165858D02*
Y164609D01*
X68102Y164192D01*
X69351D01*
Y165858D01*
X70601Y166275D02*
Y165858D01*
X70184D01*
X71017D01*
X70601D01*
Y164609D01*
X71017Y164192D01*
X72684Y166275D02*
Y165858D01*
X72267D01*
X73100D01*
X72684D01*
Y164609D01*
X73100Y164192D01*
X74766D02*
X75599D01*
X76016Y164609D01*
Y165442D01*
X75599Y165858D01*
X74766D01*
X74350Y165442D01*
Y164609D01*
X74766Y164192D01*
X76849D02*
Y165858D01*
X78098D01*
X78515Y165442D01*
Y164192D01*
X319246Y149811D02*
X320912D01*
X320079Y150645D02*
Y148978D01*
X336207Y102731D02*
X337873D01*
X338706Y103564D01*
X337873Y104397D01*
X336207D01*
X336624Y106896D02*
X336207Y106480D01*
Y105647D01*
X336624Y105230D01*
X338290D01*
X338706Y105647D01*
Y106480D01*
X338290Y106896D01*
X336624Y109395D02*
X336207Y108979D01*
Y108146D01*
X336624Y107729D01*
X338290D01*
X338706Y108146D01*
Y108979D01*
X338290Y109395D01*
X308971Y162076D02*
Y160410D01*
X309804Y159577D01*
X310637Y160410D01*
Y162076D01*
X313136Y161660D02*
X312720Y162076D01*
X311887D01*
X311470Y161660D01*
Y159994D01*
X311887Y159577D01*
X312720D01*
X313136Y159994D01*
X315635Y161660D02*
X315219Y162076D01*
X314386D01*
X313969Y161660D01*
Y159994D01*
X314386Y159577D01*
X315219D01*
X315635Y159994D01*
X354505Y116073D02*
X352839D01*
X354505Y117739D01*
Y118156D01*
X354088Y118572D01*
X353255D01*
X352839Y118156D01*
X357004Y118572D02*
X356171Y118156D01*
X355338Y117323D01*
Y116490D01*
X355754Y116073D01*
X356587D01*
X357004Y116490D01*
Y116906D01*
X356587Y117323D01*
X355338D01*
X194928Y37962D02*
X194095Y37546D01*
X193261Y36713D01*
Y35879D01*
X193678Y35463D01*
X194511D01*
X194928Y35879D01*
Y36296D01*
X194511Y36713D01*
X193261D01*
X315662Y98611D02*
X315246Y98194D01*
Y97361D01*
X315662Y96945D01*
X317328D01*
X317745Y97361D01*
Y98194D01*
X317328Y98611D01*
X316495D01*
Y97778D01*
X338706Y132731D02*
X336207D01*
Y133980D01*
X336624Y134397D01*
X337457D01*
X337873Y133980D01*
Y132731D01*
Y133564D02*
X338706Y134397D01*
X336207Y136896D02*
Y135230D01*
X338706D01*
Y136896D01*
X337457Y135230D02*
Y136063D01*
X336207Y137729D02*
Y139395D01*
Y138562D01*
X338706D01*
X332336Y150031D02*
X334002D01*
X17277Y84480D02*
X18943D01*
X200192Y159774D02*
X201026D01*
X200609D01*
Y162273D01*
X200192Y161857D01*
X203525Y159774D02*
Y162273D01*
X202275Y161024D01*
X203941D01*
X240645Y81034D02*
X241478D01*
X241062D01*
Y83533D01*
X240645Y83117D01*
X242728D02*
X243144Y83533D01*
X243978D01*
X244394Y83117D01*
Y82700D01*
X243978Y82284D01*
X244394Y81867D01*
Y81450D01*
X243978Y81034D01*
X243144D01*
X242728Y81450D01*
Y81867D01*
X243144Y82284D01*
X242728Y82700D01*
Y83117D01*
X243144Y82284D02*
X243978D01*
X250882Y81034D02*
X251715D01*
X251298D01*
Y83533D01*
X250882Y83117D01*
X252964Y81450D02*
X253381Y81034D01*
X254214D01*
X254630Y81450D01*
Y83117D01*
X254214Y83533D01*
X253381D01*
X252964Y83117D01*
Y82700D01*
X253381Y82284D01*
X254630D01*
X336624Y124397D02*
X336207Y123980D01*
Y123147D01*
X336624Y122731D01*
X337040D01*
X337457Y123147D01*
Y123980D01*
X337873Y124397D01*
X338290D01*
X338706Y123980D01*
Y123147D01*
X338290Y122731D01*
X336207Y125230D02*
X338706D01*
Y126479D01*
X338290Y126896D01*
X336624D01*
X336207Y126479D01*
Y125230D01*
X338706Y127729D02*
X337040D01*
X336207Y128562D01*
X337040Y129395D01*
X338706D01*
X337457D01*
Y127729D01*
X312280Y81329D02*
X310614D01*
X312280Y82995D01*
Y83412D01*
X311864Y83828D01*
X311031D01*
X310614Y83412D01*
X313113D02*
X313530Y83828D01*
X314363D01*
X314779Y83412D01*
Y82995D01*
X314363Y82579D01*
X313947D01*
X314363D01*
X314779Y82162D01*
Y81746D01*
X314363Y81329D01*
X313530D01*
X313113Y81746D01*
X159206Y37546D02*
X159623Y37962D01*
X160456D01*
X160872Y37546D01*
Y37129D01*
X160456Y36713D01*
X160039D01*
X160456D01*
X160872Y36296D01*
Y35879D01*
X160456Y35463D01*
X159623D01*
X159206Y35879D01*
X323668Y83609D02*
X323251Y84025D01*
X322418D01*
X322002Y83609D01*
Y81942D01*
X322418Y81526D01*
X323251D01*
X323668Y81942D01*
Y82776D01*
X322835D01*
X307870Y35463D02*
X308703D01*
X308286D01*
Y37962D01*
X307870Y37546D01*
X309952D02*
X310369Y37962D01*
X311202D01*
X311618Y37546D01*
Y37129D01*
X311202Y36713D01*
X310785D01*
X311202D01*
X311618Y36296D01*
Y35879D01*
X311202Y35463D01*
X310369D01*
X309952Y35879D01*
X301552Y162076D02*
X299886D01*
Y159577D01*
X301552D01*
X299886Y160827D02*
X300719D01*
X302385Y159577D02*
Y162076D01*
X304051Y159577D01*
Y162076D01*
X211788Y159282D02*
X210122D01*
X211788Y160948D01*
Y161365D01*
X211372Y161781D01*
X210539D01*
X210122Y161365D01*
X212621Y161781D02*
X214287D01*
Y161365D01*
X212621Y159698D01*
Y159282D01*
X323668Y161857D02*
X323251Y162273D01*
X322418D01*
X322002Y161857D01*
Y160191D01*
X322418Y159774D01*
X323251D01*
X323668Y160191D01*
Y161024D01*
X322835D01*
X330311Y35463D02*
X331144D01*
X330727D01*
Y37962D01*
X330311Y37546D01*
X334059Y37962D02*
X332393D01*
Y36713D01*
X333226Y37129D01*
X333643D01*
X334059Y36713D01*
Y35879D01*
X333643Y35463D01*
X332810D01*
X332393Y35879D01*
X174039Y35463D02*
Y37962D01*
X172789Y36713D01*
X174455D01*
X319779Y35463D02*
X320612D01*
X320196D01*
Y37962D01*
X319779Y37546D01*
X323111Y35463D02*
Y37962D01*
X321862Y36713D01*
X323528D01*
M02*
