G04*
G04 #@! TF.GenerationSoftware,Altium Limited,Altium Designer,20.1.14 (287)*
G04*
G04 Layer_Color=32768*
%FSLAX25Y25*%
%MOIN*%
G70*
G04*
G04 #@! TF.SameCoordinates,C357774A-A1FF-41C0-A387-8AFBD113A784*
G04*
G04*
G04 #@! TF.FilePolarity,Positive*
G04*
G01*
G75*
%ADD12C,0.00787*%
%ADD119C,0.00394*%
%ADD120C,0.00197*%
D12*
X271835Y377421D02*
X276165D01*
X271835Y367579D02*
Y377421D01*
Y367579D02*
X276165D01*
Y377421D01*
X317335D02*
X321665D01*
X317335Y367579D02*
Y377421D01*
Y367579D02*
X321665D01*
Y377421D01*
X310835D02*
X315165D01*
X310835Y367579D02*
Y377421D01*
Y367579D02*
X315165D01*
Y377421D01*
X304335D02*
X308665D01*
X304335Y367579D02*
Y377421D01*
Y367579D02*
X308665D01*
Y377421D01*
X297835D02*
X302165D01*
X297835Y367579D02*
Y377421D01*
Y367579D02*
X302165D01*
Y377421D01*
X284835D02*
X289165D01*
X284835Y367579D02*
Y377421D01*
Y367579D02*
X289165D01*
Y377421D01*
X278335D02*
X282665D01*
X278335Y367579D02*
Y377421D01*
Y367579D02*
X282665D01*
Y377421D01*
X291335D02*
X295665D01*
X291335Y367579D02*
Y377421D01*
Y367579D02*
X295665D01*
Y377421D01*
X199335D02*
X203665D01*
X199335Y367579D02*
Y377421D01*
Y367579D02*
X203665D01*
Y377421D01*
X192835D02*
X197165D01*
X192835Y367579D02*
Y377421D01*
Y367579D02*
X197165D01*
Y377421D01*
X179835D02*
X184165D01*
X179835Y367579D02*
Y377421D01*
Y367579D02*
X184165D01*
Y377421D01*
X173335D02*
X177665D01*
X173335Y367579D02*
Y377421D01*
Y367579D02*
X177665D01*
Y377421D01*
X166835D02*
X171165D01*
X166835Y367579D02*
Y377421D01*
Y367579D02*
X171165D01*
Y377421D01*
X160335D02*
X164665D01*
X160335Y367579D02*
Y377421D01*
Y367579D02*
X164665D01*
Y377421D01*
X186335D02*
X190665D01*
X186335Y367579D02*
Y377421D01*
Y367579D02*
X190665D01*
Y377421D01*
X153835D02*
X158165D01*
X153835Y367579D02*
Y377421D01*
Y367579D02*
X158165D01*
Y377421D01*
X257335Y377921D02*
X261665D01*
X257335Y368079D02*
Y377921D01*
Y368079D02*
X261665D01*
Y377921D01*
X250835D02*
X255165D01*
X250835Y368079D02*
Y377921D01*
Y368079D02*
X255165D01*
Y377921D01*
X244335D02*
X248665D01*
X244335Y368079D02*
Y377921D01*
Y368079D02*
X248665D01*
Y377921D01*
X237835D02*
X242165D01*
X237835Y368079D02*
Y377921D01*
Y368079D02*
X242165D01*
Y377921D01*
X231335D02*
X235665D01*
X231335Y368079D02*
Y377921D01*
Y368079D02*
X235665D01*
Y377921D01*
X224835D02*
X229165D01*
X224835Y368079D02*
Y377921D01*
Y368079D02*
X229165D01*
Y377921D01*
X218335D02*
X222665D01*
X218335Y368079D02*
Y377921D01*
Y368079D02*
X222665D01*
Y377921D01*
X211835D02*
X216165D01*
X211835Y368079D02*
Y377921D01*
Y368079D02*
X216165D01*
Y377921D01*
X157169Y349579D02*
X232760D01*
Y224791D02*
Y349579D01*
X157169Y224579D02*
X232760D01*
X157169Y224791D02*
Y349579D01*
X130579Y226665D02*
X140421D01*
Y222335D02*
Y226665D01*
X130579Y222335D02*
X140421D01*
X130579D02*
Y226665D01*
Y228835D02*
Y233165D01*
Y228835D02*
X140421D01*
Y233165D01*
X130579D02*
X140421D01*
X130579Y235335D02*
Y239665D01*
Y235335D02*
X140421D01*
Y239665D01*
X130579D02*
X140421D01*
X130626Y248335D02*
Y252665D01*
Y248335D02*
X140469D01*
Y252665D01*
X130626D02*
X140469D01*
X130626Y241835D02*
Y246165D01*
Y241835D02*
X140469D01*
Y246165D01*
X130626D02*
X140469D01*
X135138Y205776D02*
Y215224D01*
X139862D01*
Y205776D02*
Y215224D01*
X135138Y205776D02*
X139862D01*
X144138D02*
Y215224D01*
X148862D01*
Y205776D02*
Y215224D01*
X144138Y205776D02*
X148862D01*
X153890Y149941D02*
Y166673D01*
X161370D01*
Y149941D02*
Y166673D01*
X153890Y149941D02*
X161370D01*
X294362Y170776D02*
Y180224D01*
X289638Y170776D02*
X294362D01*
X289638D02*
Y180224D01*
X294362D01*
X293862Y137776D02*
Y147224D01*
X289138Y137776D02*
X293862D01*
X289138D02*
Y147224D01*
X293862D01*
X285760Y292362D02*
Y309095D01*
X293240D01*
Y292362D02*
Y309095D01*
X285760Y292362D02*
X293240D01*
X276510D02*
Y309095D01*
X283990D01*
Y292362D02*
Y309095D01*
X276510Y292362D02*
X283990D01*
X267260D02*
Y309095D01*
X274740D01*
Y292362D02*
Y309095D01*
X267260Y292362D02*
X274740D01*
X284138Y116224D02*
X288862D01*
X284138Y106776D02*
Y116224D01*
Y106776D02*
X288862D01*
Y116224D01*
X260138Y222276D02*
X264862D01*
Y231724D01*
X260138D02*
X264862D01*
X260138Y222276D02*
Y231724D01*
X202457Y142417D02*
Y169583D01*
Y142417D02*
X234347D01*
Y169583D01*
X202457D02*
X234347D01*
X199724Y177138D02*
Y181862D01*
X190276D02*
X199724D01*
X190276Y177138D02*
Y181862D01*
Y177138D02*
X199724D01*
X142890Y199374D02*
X150370D01*
X142890Y182642D02*
Y199374D01*
Y182642D02*
X150370D01*
Y199374D01*
X132390D02*
X139870D01*
X132390Y182642D02*
Y199374D01*
Y182642D02*
X139870D01*
Y199374D01*
X202358Y113362D02*
Y140528D01*
Y113362D02*
X234248D01*
Y140528D01*
X202358D02*
X234248D01*
X199681Y204142D02*
Y208866D01*
X190232D02*
X199681D01*
X190232Y204142D02*
Y208866D01*
Y204142D02*
X199681D01*
X143835Y325579D02*
X148165D01*
Y335421D01*
X143835D02*
X148165D01*
X143835Y325579D02*
Y335421D01*
X182185Y136244D02*
X186909D01*
X182185Y126795D02*
Y136244D01*
Y126795D02*
X186909D01*
Y136244D01*
X173685D02*
X178409D01*
X173685Y126795D02*
Y136244D01*
Y126795D02*
X178409D01*
Y136244D01*
D119*
X259500Y360130D02*
Y363870D01*
X257630Y362000D02*
X261370D01*
X246500Y360130D02*
Y363870D01*
X244630Y362000D02*
X248370D01*
X267000Y360630D02*
Y364370D01*
X265130Y362500D02*
X268870D01*
X208000Y360189D02*
Y363929D01*
X206130Y362059D02*
X209870D01*
X149500Y360130D02*
Y363870D01*
X147630Y362000D02*
X151370D01*
X295000Y401839D02*
Y405776D01*
X293032Y403807D02*
X296969D01*
X280500Y360130D02*
Y363870D01*
X278630Y362000D02*
X282370D01*
X287000Y360130D02*
Y363870D01*
X285130Y362000D02*
X288870D01*
X300000Y360130D02*
Y363870D01*
X298130Y362000D02*
X301870D01*
X274000Y360130D02*
Y363870D01*
X272130Y362000D02*
X275870D01*
X319500Y360130D02*
Y363870D01*
X317630Y362000D02*
X321370D01*
X293500Y360130D02*
Y363870D01*
X291630Y362000D02*
X295370D01*
X306500Y360130D02*
Y363870D01*
X304630Y362000D02*
X308370D01*
X313000Y360130D02*
Y363870D01*
X311130Y362000D02*
X314870D01*
X240000Y360130D02*
Y363870D01*
X238130Y362000D02*
X241870D01*
X195000Y360130D02*
Y363870D01*
X193130Y362000D02*
X196870D01*
X188500Y360130D02*
Y363870D01*
X186630Y362000D02*
X190370D01*
X201500Y360130D02*
Y363870D01*
X199630Y362000D02*
X203370D01*
X182000Y360130D02*
Y363870D01*
X180130Y362000D02*
X183870D01*
X175500Y360130D02*
Y363870D01*
X173630Y362000D02*
X177370D01*
X180000Y401532D02*
Y405469D01*
X178032Y403500D02*
X181968D01*
X169000Y360130D02*
Y363870D01*
X167130Y362000D02*
X170870D01*
X162500Y360130D02*
Y363870D01*
X160630Y362000D02*
X164370D01*
X156000Y359972D02*
Y363713D01*
X154130Y361842D02*
X157870D01*
X235000Y401839D02*
Y405776D01*
X233032Y403807D02*
X236968D01*
X253000Y360130D02*
Y363870D01*
X251130Y362000D02*
X254870D01*
X233500Y360130D02*
Y363870D01*
X231630Y362000D02*
X235370D01*
X227000Y360130D02*
Y363870D01*
X225130Y362000D02*
X228870D01*
X220500Y360130D02*
Y363870D01*
X218630Y362000D02*
X222370D01*
X214000Y360130D02*
Y363870D01*
X212130Y362000D02*
X215870D01*
X144630Y231000D02*
X148370D01*
X146500Y229130D02*
Y232870D01*
X136000Y331532D02*
Y335469D01*
X134031Y333500D02*
X137969D01*
X144630Y224500D02*
X148370D01*
X146500Y222630D02*
Y226370D01*
X144630Y237500D02*
X148370D01*
X146500Y235630D02*
Y239370D01*
X144677Y250500D02*
X148417D01*
X146547Y248630D02*
Y252370D01*
X144630Y244000D02*
X148370D01*
X146500Y242130D02*
Y245870D01*
X158673Y213382D02*
Y217122D01*
X156803Y215252D02*
X160543D01*
X167673Y213382D02*
Y217122D01*
X165803Y215252D02*
X169543D01*
X177673Y213283D02*
Y217220D01*
X175705Y215252D02*
X179642D01*
X259032Y302256D02*
X262968D01*
X261000Y300287D02*
Y304224D01*
X269032Y263000D02*
X272969D01*
X271000Y261032D02*
Y264968D01*
X242130Y285000D02*
X245870D01*
X244000Y283130D02*
Y286870D01*
X242130Y278700D02*
X245870D01*
X244000Y276830D02*
Y280570D01*
X242130Y272400D02*
X245870D01*
X244000Y270530D02*
Y274270D01*
X242130Y266100D02*
X245870D01*
X244000Y264230D02*
Y267970D01*
X242130Y259800D02*
X245870D01*
X244000Y257930D02*
Y261670D01*
X242130Y253500D02*
X245870D01*
X244000Y251630D02*
Y255370D01*
X170047Y190327D02*
Y194264D01*
X168079Y192295D02*
X172016D01*
X284000Y225728D02*
Y229272D01*
X282228Y227500D02*
X285772D01*
X304079Y190032D02*
Y193968D01*
X302110Y192000D02*
X306047D01*
X304079Y216032D02*
Y219969D01*
X302110Y218000D02*
X306047D01*
X305000Y307663D02*
Y311403D01*
X303130Y309533D02*
X306870D01*
X305000Y301296D02*
Y305037D01*
X303130Y303167D02*
X306870D01*
X304941Y294930D02*
Y298670D01*
X303071Y296800D02*
X306811D01*
X305000Y288563D02*
Y292303D01*
X303130Y290433D02*
X306870D01*
X305000Y282196D02*
Y285937D01*
X303130Y284067D02*
X306870D01*
X305000Y275830D02*
Y279570D01*
X303130Y277700D02*
X306870D01*
X305000Y269463D02*
Y273203D01*
X303130Y271333D02*
X306870D01*
X305000Y263097D02*
Y266837D01*
X303130Y264967D02*
X306870D01*
X305000Y243997D02*
Y247737D01*
X303130Y245867D02*
X306870D01*
X305000Y250363D02*
Y254103D01*
X303130Y252233D02*
X306870D01*
X305000Y256730D02*
Y260470D01*
X303130Y258600D02*
X306870D01*
X305000Y237630D02*
Y241370D01*
X303130Y239500D02*
X306870D01*
X305000Y314030D02*
Y317770D01*
X303130Y315900D02*
X306870D01*
X305000Y333130D02*
Y336870D01*
X303130Y335000D02*
X306870D01*
X305000Y320396D02*
Y324137D01*
X303130Y322267D02*
X306870D01*
X304941Y326763D02*
Y330503D01*
X303071Y328633D02*
X306811D01*
X289500Y225681D02*
Y229224D01*
X287728Y227453D02*
X291272D01*
X286000Y286130D02*
Y289870D01*
X284130Y288000D02*
X287870D01*
X156354Y174921D02*
X160094D01*
X158224Y173051D02*
Y176791D01*
X291500Y161728D02*
Y165272D01*
X289728Y163500D02*
X293272D01*
X331031Y149500D02*
X334968D01*
X333000Y147531D02*
Y151469D01*
X130256Y154342D02*
X134193D01*
X132224Y152374D02*
Y156311D01*
X264500Y197925D02*
Y201862D01*
X262531Y199894D02*
X266469D01*
X265000Y133638D02*
Y137575D01*
X263032Y135606D02*
X266968D01*
X242228Y111000D02*
X245772D01*
X244000Y109228D02*
Y112772D01*
X225031Y196500D02*
X228969D01*
X227000Y194532D02*
Y198468D01*
X134130Y326000D02*
X137870D01*
X136000Y324130D02*
Y327870D01*
X195500Y157630D02*
Y161370D01*
X193630Y159500D02*
X197370D01*
X162181Y143177D02*
Y147508D01*
X152732Y143177D02*
Y147508D01*
Y143177D02*
X162181D01*
X152732Y147508D02*
X162181D01*
X155587Y145343D02*
X159327D01*
X157457Y143472D02*
Y147213D01*
X165882Y127024D02*
X170213D01*
X165882Y136472D02*
X170213D01*
X165882Y127024D02*
Y136472D01*
X170213Y127024D02*
Y136472D01*
X168047Y129878D02*
Y133618D01*
X166177Y131748D02*
X169917D01*
X210032Y196500D02*
X213968D01*
X212000Y194532D02*
Y198468D01*
X252500Y300287D02*
Y304224D01*
X250532Y302256D02*
X254468D01*
X192303Y146575D02*
Y150315D01*
X190433Y148445D02*
X194173D01*
X198303Y146575D02*
Y150315D01*
X196433Y148445D02*
X200173D01*
X157500Y129630D02*
Y133370D01*
X155630Y131500D02*
X159370D01*
X193032Y197500D02*
X196968D01*
X195000Y195531D02*
Y199469D01*
X192472Y170500D02*
X196409D01*
X194441Y168532D02*
Y172468D01*
X193032Y189500D02*
X196968D01*
X195000Y187531D02*
Y191469D01*
X193126Y214504D02*
X197063D01*
X195095Y212535D02*
Y216472D01*
X175565Y155264D02*
X179502D01*
X177534Y153295D02*
Y157232D01*
X190177Y131520D02*
X193917D01*
X192047Y129650D02*
Y133390D01*
X157457Y136874D02*
Y140811D01*
X155488Y138842D02*
X159425D01*
D120*
X256547Y356685D02*
X262453D01*
X256547Y367315D02*
X262453D01*
X256547Y356685D02*
Y367315D01*
X262453Y356685D02*
Y367315D01*
X243547Y356685D02*
X249453D01*
X243547Y367315D02*
X249453D01*
X243547Y356685D02*
Y367315D01*
X249453Y356685D02*
Y367315D01*
X264638Y357972D02*
X269362D01*
X264638Y367028D02*
X269362D01*
X264638Y357972D02*
Y367028D01*
X269362Y357972D02*
Y367028D01*
X205638Y357531D02*
X210362D01*
X205638Y366587D02*
X210362D01*
X205638Y357531D02*
Y366587D01*
X210362Y357531D02*
Y366587D01*
X147138Y357472D02*
X151862D01*
X147138Y366528D02*
X151862D01*
X147138Y357472D02*
Y366528D01*
X151862Y357472D02*
Y366528D01*
X271378Y425756D02*
X318622D01*
X271378Y381858D02*
X318622D01*
Y425756D01*
X271378Y381858D02*
Y425756D01*
X277547Y356685D02*
X283453D01*
X277547Y367315D02*
X283453D01*
X277547Y356685D02*
Y367315D01*
X283453Y356685D02*
Y367315D01*
X284047Y356685D02*
X289953D01*
X284047Y367315D02*
X289953D01*
X284047Y356685D02*
Y367315D01*
X289953Y356685D02*
Y367315D01*
X297047Y356685D02*
X302953D01*
X297047Y367315D02*
X302953D01*
X297047Y356685D02*
Y367315D01*
X302953Y356685D02*
Y367315D01*
X271047Y356685D02*
X276953D01*
X271047Y367315D02*
X276953D01*
X271047Y356685D02*
Y367315D01*
X276953Y356685D02*
Y367315D01*
X316547Y356685D02*
X322453D01*
X316547Y367315D02*
X322453D01*
X316547Y356685D02*
Y367315D01*
X322453Y356685D02*
Y367315D01*
X290547Y356685D02*
X296453D01*
X290547Y367315D02*
X296453D01*
X290547Y356685D02*
Y367315D01*
X296453Y356685D02*
Y367315D01*
X303547Y356685D02*
X309453D01*
X303547Y367315D02*
X309453D01*
X303547Y356685D02*
Y367315D01*
X309453Y356685D02*
Y367315D01*
X310047Y356685D02*
X315953D01*
X310047Y367315D02*
X315953D01*
X310047Y356685D02*
Y367315D01*
X315953Y356685D02*
Y367315D01*
X237047Y356685D02*
X242953D01*
X237047Y367315D02*
X242953D01*
X237047Y356685D02*
Y367315D01*
X242953Y356685D02*
Y367315D01*
X192047Y356685D02*
X197953D01*
X192047Y367315D02*
X197953D01*
X192047Y356685D02*
Y367315D01*
X197953Y356685D02*
Y367315D01*
X185547Y356685D02*
X191453D01*
X185547Y367315D02*
X191453D01*
X185547Y356685D02*
Y367315D01*
X191453Y356685D02*
Y367315D01*
X198547Y356685D02*
X204453D01*
X198547Y367315D02*
X204453D01*
X198547Y356685D02*
Y367315D01*
X204453Y356685D02*
Y367315D01*
X179047Y356685D02*
X184953D01*
X179047Y367315D02*
X184953D01*
X179047Y356685D02*
Y367315D01*
X184953Y356685D02*
Y367315D01*
X172547Y356685D02*
X178453D01*
X172547Y367315D02*
X178453D01*
X172547Y356685D02*
Y367315D01*
X178453Y356685D02*
Y367315D01*
X156378Y425449D02*
X203622D01*
X156378Y381551D02*
X203622D01*
Y425449D01*
X156378Y381551D02*
Y425449D01*
X166047Y356685D02*
X171953D01*
X166047Y367315D02*
X171953D01*
X166047Y356685D02*
Y367315D01*
X171953Y356685D02*
Y367315D01*
X159547Y356685D02*
X165453D01*
X159547Y367315D02*
X165453D01*
X159547Y356685D02*
Y367315D01*
X165453Y356685D02*
Y367315D01*
X153047Y356528D02*
X158953D01*
X153047Y367158D02*
X158953D01*
X153047Y356528D02*
Y367158D01*
X158953Y356528D02*
Y367158D01*
X211378Y425756D02*
X258622D01*
X211378Y381858D02*
X258622D01*
Y425756D01*
X211378Y381858D02*
Y425756D01*
X250047Y356685D02*
X255953D01*
X250047Y367315D02*
X255953D01*
X250047Y356685D02*
Y367315D01*
X255953Y356685D02*
Y367315D01*
X230547Y356685D02*
X236453D01*
X230547Y367315D02*
X236453D01*
X230547Y356685D02*
Y367315D01*
X236453Y356685D02*
Y367315D01*
X224047Y356685D02*
X229953D01*
X224047Y367315D02*
X229953D01*
X224047Y356685D02*
Y367315D01*
X229953Y356685D02*
Y367315D01*
X217547Y356685D02*
X223453D01*
X217547Y367315D02*
X223453D01*
X217547Y356685D02*
Y367315D01*
X223453Y356685D02*
Y367315D01*
X211047Y356685D02*
X216953D01*
X211047Y367315D02*
X216953D01*
X211047Y356685D02*
Y367315D01*
X216953Y356685D02*
Y367315D01*
X151815Y228047D02*
Y233953D01*
X141185Y228047D02*
Y233953D01*
Y228047D02*
X151815D01*
X141185Y233953D02*
X151815D01*
X130685Y330547D02*
X141315D01*
X130685Y336453D02*
X141315D01*
Y330547D02*
Y336453D01*
X130685Y330547D02*
Y336453D01*
X151815Y221547D02*
Y227453D01*
X141185Y221547D02*
Y227453D01*
Y221547D02*
X151815D01*
X141185Y227453D02*
X151815D01*
Y234547D02*
Y240453D01*
X141185Y234547D02*
Y240453D01*
Y234547D02*
X151815D01*
X141185Y240453D02*
X151815D01*
X151862Y247547D02*
Y253453D01*
X141232Y247547D02*
Y253453D01*
Y247547D02*
X151862D01*
X141232Y253453D02*
X151862D01*
X151815Y241047D02*
Y246953D01*
X141185Y241047D02*
Y246953D01*
Y241047D02*
X151815D01*
X141185Y246953D02*
X151815D01*
X156311Y219583D02*
X161035D01*
X156311Y210921D02*
X161035D01*
Y219583D01*
X156311Y210921D02*
Y219583D01*
X165311D02*
X170035D01*
X165311Y210921D02*
X170035D01*
Y219583D01*
X165311Y210921D02*
Y219583D01*
X174524Y220567D02*
X180823D01*
X174524Y209937D02*
X180823D01*
Y220567D01*
X174524Y209937D02*
Y220567D01*
X265134Y295563D02*
Y308949D01*
X256866Y295563D02*
Y308949D01*
X265134D01*
X256866Y295563D02*
X265134D01*
X256433Y282685D02*
X285567D01*
X256433Y243315D02*
Y282685D01*
Y243315D02*
X285567D01*
Y282685D01*
X239472Y282638D02*
Y287362D01*
X248528Y282638D02*
Y287362D01*
X239472D02*
X248528D01*
X239472Y282638D02*
X248528D01*
X239472Y276338D02*
Y281062D01*
X248528Y276338D02*
Y281062D01*
X239472D02*
X248528D01*
X239472Y276338D02*
X248528D01*
X239472Y270038D02*
Y274762D01*
X248528Y270038D02*
Y274762D01*
X239472D02*
X248528D01*
X239472Y270038D02*
X248528D01*
X239472Y263738D02*
Y268462D01*
X248528Y263738D02*
Y268462D01*
X239472D02*
X248528D01*
X239472Y263738D02*
X248528D01*
X239472Y257438D02*
Y262162D01*
X248528Y257438D02*
Y262162D01*
X239472D02*
X248528D01*
X239472Y257438D02*
X248528D01*
X239472Y251138D02*
Y255862D01*
X248528Y251138D02*
Y255862D01*
X239472D02*
X248528D01*
X239472Y251138D02*
X248528D01*
X154299Y178713D02*
X185795D01*
X154299Y205878D02*
X185795D01*
Y178713D02*
Y205878D01*
X154299Y178713D02*
Y205878D01*
X281835Y231831D02*
X286165D01*
X281835Y223169D02*
X286165D01*
Y231831D01*
X281835Y223169D02*
Y231831D01*
X291283Y179205D02*
Y204795D01*
X316874D01*
X291283Y179205D02*
X316874D01*
Y204795D01*
X291283Y205205D02*
Y230795D01*
X316874D01*
X291283Y205205D02*
X316874D01*
Y230795D01*
X300472Y307171D02*
X309528D01*
X300472Y311895D02*
X309528D01*
Y307171D02*
Y311895D01*
X300472Y307171D02*
Y311895D01*
Y300804D02*
X309528D01*
X300472Y305529D02*
X309528D01*
Y300804D02*
Y305529D01*
X300472Y300804D02*
Y305529D01*
X300413Y294438D02*
X309469D01*
X300413Y299162D02*
X309469D01*
Y294438D02*
Y299162D01*
X300413Y294438D02*
Y299162D01*
X300472Y288071D02*
X309528D01*
X300472Y292795D02*
X309528D01*
Y288071D02*
Y292795D01*
X300472Y288071D02*
Y292795D01*
Y281704D02*
X309528D01*
X300472Y286429D02*
X309528D01*
Y281704D02*
Y286429D01*
X300472Y281704D02*
Y286429D01*
Y275338D02*
X309528D01*
X300472Y280062D02*
X309528D01*
Y275338D02*
Y280062D01*
X300472Y275338D02*
Y280062D01*
Y268971D02*
X309528D01*
X300472Y273695D02*
X309528D01*
Y268971D02*
Y273695D01*
X300472Y268971D02*
Y273695D01*
Y262604D02*
X309528D01*
X300472Y267329D02*
X309528D01*
Y262604D02*
Y267329D01*
X300472Y262604D02*
Y267329D01*
Y243505D02*
X309528D01*
X300472Y248229D02*
X309528D01*
Y243505D02*
Y248229D01*
X300472Y243505D02*
Y248229D01*
Y249871D02*
X309528D01*
X300472Y254595D02*
X309528D01*
Y249871D02*
Y254595D01*
X300472Y249871D02*
Y254595D01*
Y256238D02*
X309528D01*
X300472Y260962D02*
X309528D01*
Y256238D02*
Y260962D01*
X300472Y256238D02*
Y260962D01*
Y237138D02*
X309528D01*
X300472Y241862D02*
X309528D01*
Y237138D02*
Y241862D01*
X300472Y237138D02*
Y241862D01*
Y313538D02*
X309528D01*
X300472Y318262D02*
X309528D01*
Y313538D02*
Y318262D01*
X300472Y313538D02*
Y318262D01*
Y332638D02*
X309528D01*
X300472Y337362D02*
X309528D01*
Y332638D02*
Y337362D01*
X300472Y332638D02*
Y337362D01*
Y319904D02*
X309528D01*
X300472Y324629D02*
X309528D01*
Y319904D02*
Y324629D01*
X300472Y319904D02*
Y324629D01*
X300413Y326271D02*
X309469D01*
X300413Y330995D02*
X309469D01*
Y326271D02*
Y330995D01*
X300413Y326271D02*
Y330995D01*
X287335Y231784D02*
X291665D01*
X287335Y223122D02*
X291665D01*
Y231784D01*
X287335Y223122D02*
Y231784D01*
X281472Y290362D02*
X290528D01*
X281472Y285638D02*
X290528D01*
X281472D02*
Y290362D01*
X290528Y285638D02*
Y290362D01*
X162555Y172559D02*
Y177284D01*
X153894Y172559D02*
Y177284D01*
Y172559D02*
X162555D01*
X153894Y177284D02*
X162555D01*
X289335Y159169D02*
X293665D01*
X289335Y167831D02*
X293665D01*
X289335Y159169D02*
Y167831D01*
X293665Y159169D02*
Y167831D01*
X316465Y127059D02*
X349535D01*
X316465D02*
Y169579D01*
X349535D01*
Y127059D02*
Y169579D01*
X120886Y137807D02*
X145020D01*
X120886D02*
Y170878D01*
X145020D01*
Y137807D02*
Y170878D01*
X243634Y231784D02*
X285366D01*
X243634Y168004D02*
X285366D01*
Y231784D01*
X243634Y168004D02*
Y231784D01*
X244134Y103717D02*
X285866D01*
X244134Y167496D02*
X285866D01*
X244134Y103717D02*
Y167496D01*
X285866Y103717D02*
Y167496D01*
X246165Y106669D02*
Y115331D01*
X241835Y106669D02*
Y115331D01*
X246165D01*
X241835Y106669D02*
X246165D01*
X219717Y173724D02*
Y219315D01*
X234283D01*
X219717Y173724D02*
X234283D01*
Y219315D01*
X131472Y323638D02*
Y328362D01*
X140527Y323638D02*
Y328362D01*
X131472D02*
X140527D01*
X131472Y323638D02*
X140527D01*
X193138Y154972D02*
X197862D01*
X193138Y164028D02*
X197862D01*
X193138Y154972D02*
Y164028D01*
X197862Y154972D02*
Y164028D01*
X204716Y173724D02*
Y219315D01*
X219284D01*
X204716Y173724D02*
X219284D01*
Y219315D01*
X248366Y295563D02*
X256634D01*
X248366Y308949D02*
X256634D01*
X248366Y295563D02*
Y308949D01*
X256634Y295563D02*
Y308949D01*
X189941Y143917D02*
X194665D01*
X189941Y152972D02*
X194665D01*
X189941Y143917D02*
Y152972D01*
X194665Y143917D02*
Y152972D01*
X195941Y152972D02*
X200665D01*
X195941Y143917D02*
X200665D01*
Y152972D01*
X195941Y143917D02*
Y152972D01*
X153169Y129138D02*
X161831D01*
X153169Y133862D02*
X161831D01*
Y129138D02*
Y133862D01*
X153169Y129138D02*
Y133862D01*
X200315Y194547D02*
Y200453D01*
X189685Y194547D02*
Y200453D01*
Y194547D02*
X200315D01*
X189685Y200453D02*
X200315D01*
X189126Y167547D02*
Y173453D01*
X199756Y167547D02*
Y173453D01*
X189126D02*
X199756D01*
X189126Y167547D02*
X199756D01*
X189685Y186547D02*
Y192453D01*
X200315Y186547D02*
Y192453D01*
X189685D02*
X200315D01*
X189685Y186547D02*
X200315D01*
X200410Y211551D02*
Y217457D01*
X189779Y211551D02*
Y217457D01*
Y211551D02*
X200410D01*
X189779Y217457D02*
X200410D01*
X167034Y144764D02*
Y165764D01*
X188034Y144764D02*
Y165764D01*
X167034D02*
X188034D01*
X167034Y144764D02*
X188034D01*
X194409Y127189D02*
Y135850D01*
X189685Y127189D02*
Y135850D01*
X194409D01*
X189685Y127189D02*
X194409D01*
X152142Y135693D02*
X162772D01*
X152142Y141992D02*
X162772D01*
Y135693D02*
Y141992D01*
X152142Y135693D02*
Y141992D01*
M02*
