G04*
G04 #@! TF.GenerationSoftware,Altium Limited,Altium Designer,20.1.14 (287)*
G04*
G04 Layer_Color=8388736*
%FSLAX25Y25*%
%MOIN*%
G70*
G04*
G04 #@! TF.SameCoordinates,C357774A-A1FF-41C0-A387-8AFBD113A784*
G04*
G04*
G04 #@! TF.FilePolarity,Positive*
G04*
G01*
G75*
%ADD119C,0.00394*%
D119*
X125728Y136764D02*
Y172846D01*
X125307Y182689D02*
X126488D01*
Y182099D01*
X126291Y181902D01*
X125897D01*
X125701Y182099D01*
Y182689D01*
X126291Y180721D02*
X126488Y180918D01*
Y181311D01*
X126291Y181508D01*
X125504D01*
X125307Y181311D01*
Y180918D01*
X125504Y180721D01*
X126488Y180327D02*
X125307D01*
Y179737D01*
X125504Y179540D01*
X125701D01*
X125897Y179737D01*
Y180327D01*
Y179737D01*
X126094Y179540D01*
X126291D01*
X126488Y179737D01*
Y180327D01*
Y177179D02*
Y177966D01*
X125307D01*
Y177179D01*
X125897Y177966D02*
Y177573D01*
X126488Y176785D02*
X125307D01*
Y176195D01*
X125504Y175998D01*
X126291D01*
X126488Y176195D01*
Y176785D01*
X126291Y174818D02*
X126488Y175014D01*
Y175408D01*
X126291Y175605D01*
X125504D01*
X125307Y175408D01*
Y175014D01*
X125504Y174818D01*
X125897D01*
Y175211D01*
X126488Y173637D02*
Y174424D01*
X125307D01*
Y173637D01*
X125897Y174424D02*
Y174030D01*
M02*
