G04*
G04 #@! TF.GenerationSoftware,Altium Limited,Altium Designer,20.1.14 (287)*
G04*
G04 Layer_Physical_Order=2*
G04 Layer_Color=36540*
%FSLAX25Y25*%
%MOIN*%
G70*
G04*
G04 #@! TF.SameCoordinates,C357774A-A1FF-41C0-A387-8AFBD113A784*
G04*
G04*
G04 #@! TF.FilePolarity,Positive*
G04*
G01*
G75*
%ADD101C,0.01000*%
%ADD102C,0.00800*%
%ADD103C,0.02000*%
%ADD106C,0.05906*%
%ADD107R,0.05906X0.05906*%
%ADD108R,0.05906X0.05906*%
%ADD109C,0.05118*%
%ADD110R,0.05118X0.05118*%
%ADD111C,0.06299*%
%ADD112R,0.06299X0.06299*%
%ADD113C,0.22000*%
%ADD114C,0.02200*%
D101*
X322442Y194988D02*
X340126D01*
X344079Y191035D01*
X319453Y192000D02*
X322442Y194988D01*
X309000Y192000D02*
X319453D01*
X180500Y319500D02*
X202400Y297600D01*
X204900D01*
X205000Y297500D01*
X133215Y255540D02*
X136255Y252500D01*
X168500D02*
X173500Y257500D01*
X136255Y252500D02*
X168500D01*
X130500Y132500D02*
X136500Y126500D01*
Y113000D02*
Y126500D01*
X188000Y115500D02*
X192000Y119500D01*
Y124000D01*
X152000Y219000D02*
X163603Y207397D01*
Y196497D02*
Y207397D01*
X169600Y190500D02*
X173500D01*
X163603Y196497D02*
X169600Y190500D01*
X242503Y289183D02*
X259291Y272395D01*
X277655D01*
D102*
X270500Y404007D02*
X279815Y413321D01*
X270500Y349000D02*
Y404007D01*
X151000Y385550D02*
X180062Y414613D01*
X187162Y408000D02*
X189581Y410419D01*
X189086Y410914D02*
X189581Y410419D01*
X259000Y295740D02*
Y300000D01*
X258960Y295700D02*
X259000Y295740D01*
X300500Y349000D02*
X305000Y353500D01*
Y413500D01*
X295500Y404604D02*
X300265Y409370D01*
X286000Y346691D02*
Y399451D01*
X294436Y407888D01*
X290500Y335500D02*
X295500Y340500D01*
Y404604D01*
X280500Y401163D02*
X290287Y410950D01*
X280500Y349000D02*
Y401163D01*
X275000Y400010D02*
X284952Y409962D01*
X280500Y335500D02*
Y341191D01*
X286000Y346691D01*
X270500Y335500D02*
X275000Y340000D01*
Y400010D01*
X250000Y349500D02*
X250500Y349000D01*
X250000Y349500D02*
Y410000D01*
X265500Y332500D02*
Y406500D01*
X256500Y415500D02*
X265500Y406500D01*
X244799Y413701D02*
X245000Y413500D01*
Y331500D02*
X249000Y327500D01*
X245000Y331500D02*
Y413500D01*
X242000Y313000D02*
Y406000D01*
X235000Y413000D02*
X242000Y406000D01*
X230000Y413000D02*
X238000Y405000D01*
Y319282D02*
X238500Y318782D01*
X242000Y313000D02*
X256500Y298500D01*
X238500Y301500D02*
Y318782D01*
X238000Y319282D02*
Y405000D01*
X243500Y315500D02*
X259000Y300000D01*
X243500Y315500D02*
Y411000D01*
X240500Y414000D02*
X243500Y411000D01*
X249000Y327500D02*
X264500D01*
X265500Y332500D02*
X268000Y330000D01*
X268059D01*
X280288Y321712D02*
X280500Y321500D01*
X276347Y321712D02*
X280288D01*
X268059Y330000D02*
X276347Y321712D01*
X264500Y327500D02*
X270500Y321500D01*
X225000Y411000D02*
X236500Y399500D01*
Y304500D02*
Y399500D01*
Y299500D02*
X238500Y301500D01*
X181000Y372500D02*
X220000Y411500D01*
X163000Y372500D02*
X181000D01*
X163500Y374500D02*
X200000Y411000D01*
X157969Y374500D02*
X163500D01*
X145639Y280691D02*
X155900Y290951D01*
Y374900D01*
X157200Y282251D02*
Y373731D01*
X158500Y279000D02*
Y368000D01*
X163000Y372500D01*
X155900Y374900D02*
X195161Y414161D01*
X157200Y373731D02*
X157969Y374500D01*
X154500Y295000D02*
Y379500D01*
X195161Y414161D02*
Y414598D01*
X135500Y276000D02*
X140190Y280691D01*
X154500Y379500D02*
X183000Y408000D01*
X140190Y280691D02*
X145639D01*
X183000Y408000D02*
X187162D01*
X145639Y270690D02*
X157200Y282251D01*
X145500Y266000D02*
X158500Y279000D01*
X153000Y298051D02*
Y384500D01*
X180237Y411737D01*
X184819D01*
X135500Y266000D02*
X140190Y270690D01*
X145639D01*
X149353Y304404D02*
Y385741D01*
X145500Y286000D02*
X154500Y295000D01*
X149353Y385741D02*
X171300Y407689D01*
X145639Y290690D02*
X153000Y298051D01*
X151000Y301500D02*
Y385550D01*
X145639Y300691D02*
X149353Y304404D01*
X145500Y296000D02*
X151000Y301500D01*
X171300Y407689D02*
Y408679D01*
X130500Y315551D02*
Y369162D01*
X170000Y408662D02*
Y414000D01*
X164500Y405000D02*
Y414000D01*
X128000Y368500D02*
X164500Y405000D01*
X130500Y369162D02*
X170000Y408662D01*
X128000Y314000D02*
Y368500D01*
X140190Y290690D02*
X145639D01*
X135500Y286000D02*
X140190Y290690D01*
X135500Y296000D02*
X140190Y300691D01*
X145639D01*
X171300Y408679D02*
X174873Y412252D01*
X140810Y310690D02*
X145500Y306000D01*
X135361Y310690D02*
X140810D01*
X128000Y314000D02*
X135500Y306500D01*
X130500Y315551D02*
X135361Y310690D01*
X135500Y306000D02*
Y306500D01*
D103*
X238000Y113500D02*
X289098D01*
X292598Y110000D01*
X285500Y117098D02*
X292598Y110000D01*
X293355Y109243D01*
X285500Y126000D02*
X291500Y132000D01*
X285500Y117098D02*
Y126000D01*
X325342Y132000D02*
X333000Y139657D01*
X291500Y132000D02*
X325342D01*
D106*
X260500Y349000D02*
D03*
X290500D02*
D03*
X300500D02*
D03*
X280500D02*
D03*
X270500D02*
D03*
X260500Y335500D02*
D03*
X270500D02*
D03*
X280500D02*
D03*
X290500D02*
D03*
X145500Y286000D02*
D03*
X135500Y266000D02*
D03*
Y276000D02*
D03*
Y296000D02*
D03*
X145500D02*
D03*
X168000Y115500D02*
D03*
X135500Y306000D02*
D03*
X145500D02*
D03*
X178000Y115500D02*
D03*
X270500Y321500D02*
D03*
X280500D02*
D03*
X135500Y286000D02*
D03*
X331500Y377500D02*
D03*
Y389000D02*
D03*
X142000Y390000D02*
D03*
X135500Y316000D02*
D03*
X145500D02*
D03*
Y276000D02*
D03*
X260500Y321500D02*
D03*
X344079Y331035D02*
D03*
Y321035D02*
D03*
Y311035D02*
D03*
Y301035D02*
D03*
Y291035D02*
D03*
Y281035D02*
D03*
Y271035D02*
D03*
Y261035D02*
D03*
Y251035D02*
D03*
Y241035D02*
D03*
Y231035D02*
D03*
Y221035D02*
D03*
Y211035D02*
D03*
Y201035D02*
D03*
Y191035D02*
D03*
X334079Y331035D02*
D03*
Y321035D02*
D03*
Y311035D02*
D03*
Y301035D02*
D03*
Y291035D02*
D03*
Y281035D02*
D03*
Y271035D02*
D03*
Y261035D02*
D03*
Y251035D02*
D03*
Y241035D02*
D03*
Y231035D02*
D03*
Y221035D02*
D03*
Y211035D02*
D03*
Y201035D02*
D03*
Y191035D02*
D03*
X324079Y331035D02*
D03*
Y321035D02*
D03*
Y311035D02*
D03*
Y301035D02*
D03*
Y291035D02*
D03*
Y281035D02*
D03*
Y271035D02*
D03*
Y261035D02*
D03*
Y251035D02*
D03*
Y241035D02*
D03*
Y231035D02*
D03*
Y221035D02*
D03*
Y211035D02*
D03*
Y201035D02*
D03*
Y191035D02*
D03*
X188000Y115500D02*
D03*
D107*
X250500Y349000D02*
D03*
Y335500D02*
D03*
X341500Y377500D02*
D03*
Y389000D02*
D03*
X132000Y390000D02*
D03*
X250500Y321500D02*
D03*
X158000Y115500D02*
D03*
D108*
X145500Y266000D02*
D03*
X344079Y181035D02*
D03*
X334079D02*
D03*
X324079D02*
D03*
D109*
X309000Y192000D02*
D03*
Y218000D02*
D03*
D110*
X299158Y192000D02*
D03*
Y218000D02*
D03*
D111*
X333000Y159343D02*
D03*
D112*
Y139657D02*
D03*
D113*
X338000Y113000D02*
D03*
Y415500D02*
D03*
X136500D02*
D03*
Y113000D02*
D03*
D114*
X289585Y169445D02*
D03*
X293277Y233391D02*
D03*
X182664Y256836D02*
D03*
X180062Y414613D02*
D03*
X189086Y410914D02*
D03*
X200000Y411000D02*
D03*
X208000Y386500D02*
D03*
Y319000D02*
D03*
X216000Y307500D02*
D03*
X221000D02*
D03*
X180500Y319500D02*
D03*
X133215Y255540D02*
D03*
X146500Y257500D02*
D03*
X168900Y258334D02*
D03*
X170600Y261000D02*
D03*
X173500Y257500D02*
D03*
X130500Y132500D02*
D03*
X192000Y124000D02*
D03*
X238000Y113500D02*
D03*
X295000Y114000D02*
D03*
X293355Y109243D02*
D03*
X291500Y132000D02*
D03*
X152000Y219000D02*
D03*
X173500Y190500D02*
D03*
X270000Y421500D02*
D03*
X211000D02*
D03*
X155000D02*
D03*
X278000Y277000D02*
D03*
X256626Y287529D02*
D03*
X242664Y289336D02*
D03*
X249854Y249821D02*
D03*
X236500Y299500D02*
D03*
X205947Y232053D02*
D03*
X163603Y196497D02*
D03*
X258960Y295700D02*
D03*
X252500Y258500D02*
D03*
X274503Y267024D02*
D03*
X235500Y254000D02*
D03*
X208000Y204000D02*
D03*
X240500Y236500D02*
D03*
X238500Y239000D02*
D03*
X158000Y187500D02*
D03*
X205000Y297500D02*
D03*
X170000Y309500D02*
D03*
X268000Y388000D02*
D03*
X305000Y413500D02*
D03*
X300265Y409370D02*
D03*
X294436Y407888D02*
D03*
X290287Y410950D02*
D03*
X284952Y409962D02*
D03*
X279815Y413321D02*
D03*
X250000Y410000D02*
D03*
X256500Y415500D02*
D03*
X240000Y320111D02*
D03*
X244799Y413701D02*
D03*
X256500Y298500D02*
D03*
X240500Y414000D02*
D03*
X235000Y413000D02*
D03*
X230000D02*
D03*
X225000Y411000D02*
D03*
X220000Y411500D02*
D03*
X195161Y414598D02*
D03*
X184819Y411737D02*
D03*
X174873Y412252D02*
D03*
X170000Y414000D02*
D03*
X164500D02*
D03*
X143000Y324500D02*
D03*
X169392Y314202D02*
D03*
X208000Y314000D02*
D03*
X282500Y283500D02*
D03*
X200000Y263193D02*
D03*
X154000Y231000D02*
D03*
X153000Y249000D02*
D03*
X177791Y173208D02*
D03*
X236500Y304500D02*
D03*
X180735Y172265D02*
D03*
X216600Y257856D02*
D03*
X221500Y259500D02*
D03*
X208500Y234000D02*
D03*
X277655Y272395D02*
D03*
X262500Y233500D02*
D03*
X265500Y242500D02*
D03*
X271400Y289651D02*
D03*
X174500Y168000D02*
D03*
X163762Y154148D02*
D03*
X182587Y170000D02*
D03*
X163630Y150606D02*
D03*
X157000Y170000D02*
D03*
X140500Y173500D02*
D03*
X190500Y185000D02*
D03*
X181500Y183000D02*
D03*
X134500Y181000D02*
D03*
X283022Y311522D02*
D03*
X164000Y134000D02*
D03*
X284500Y213000D02*
D03*
X288500Y193500D02*
D03*
X296000Y166000D02*
D03*
X297000Y143000D02*
D03*
X202000Y179000D02*
D03*
X165405Y183240D02*
D03*
X150130Y156893D02*
D03*
X173500Y138500D02*
D03*
X211031Y146978D02*
D03*
X186541Y143710D02*
D03*
X205000Y160500D02*
D03*
X214000Y127500D02*
D03*
X184000Y138500D02*
D03*
X151296Y160875D02*
D03*
M02*
