M48
;Layer_Color=9474304
;FILE_FORMAT=2:5
INCH,TZ
;TYPE=PLATED
T1F00S00C0.01200
T2F00S00C0.03150
T3F00S00C0.03543
T4F00S00C0.04331
T5F00S00C0.10000
%
T01
X130500Y132500
X164000Y134000
X173500Y138500
X184000
X186541Y143710
X192000Y124000
X214000Y127500
X211031Y146978
X163630Y150606
X163762Y154148
X238000Y113500
X295000Y114000
X293355Y109243
X291500Y132000
X297000Y143000
X296000Y166000
X289585Y169445
X288500Y193500
X284500Y213000
X293277Y233391
X262500Y233500
X265500Y242500
X249854Y249821
X252500Y258500
X235500Y254000
X238500Y239000
X240500Y236500
X208500Y234000
X205947Y232053
X208000Y204000
X202000Y179000
X190500Y185000
X181500Y183000
X180735Y172265
X177791Y173208
X182587Y170000
X174500Y168000
X157000Y170000
X158000Y187500
X165405Y183240
X163603Y196497
X173500Y190500
X205000Y160500
X200000Y263193
X216600Y257856
X221500Y259500
X182664Y256836
X173500Y257500
X168900Y258334
X170600Y261000
X170000Y309500
X205000Y297500
X216000Y307500
X221000
X236500Y304500
Y299500
X242664Y289336
X256626Y287529
X258960Y295700
X256500Y298500
X271400Y289651
X282500Y283500
X278000Y277000
X277655Y272395
X274503Y267024
X283022Y311522
X146500Y257500
X153000Y249000
X154000Y231000
X152000Y219000
X133215Y255540
X134500Y181000
X140500Y173500
X151296Y160875
X150130Y156893
X143000Y324500
X155000Y421500
X164500Y414000
X170000
X174873Y412252
X180062Y414613
X184819Y411737
X189086Y410914
X195161Y414598
X200000Y411000
X220000Y411500
X225000Y411000
X230000Y413000
X235000
X240500Y414000
X244799Y413701
X250000Y410000
X256500Y415500
X270000Y421500
X279815Y413321
X284952Y409962
X290287Y410950
X294436Y407888
X300265Y409370
X305000Y413500
X268000Y388000
X208000Y386500
X211000Y421500
X208000Y319000
Y314000
X180500Y319500
X169392Y314202
X240000Y320111
T02
X299158Y192000
X309000
Y218000
X299158
T03
X158000Y115500
X168000
X178000
X188000
X324079Y181035
X334079
X344079
Y191035
Y201035
Y211035
Y221035
Y231035
Y241035
Y251035
Y261035
Y271035
Y281035
Y291035
Y301035
Y311035
X334079
Y301035
Y291035
Y281035
Y271035
Y261035
Y251035
Y241035
Y231035
Y221035
Y211035
Y201035
Y191035
X324079
Y201035
Y211035
Y221035
Y231035
Y241035
Y251035
Y261035
Y271035
Y281035
Y291035
Y301035
Y311035
X145500Y306000
Y296000
Y286000
X135500
Y276000
Y266000
X145500
Y276000
X135500Y296000
Y306000
Y316000
X145500
X142000Y390000
X132000
X250500Y349000
X260500
X270500
X280500
X290500
X300500
X290500Y335500
X280500
X270500
X260500
X250500
Y321500
X260500
X270500
X280500
X324079Y321035
X334079
X344079
Y331035
X334079
X324079
X331500Y377500
X341500
Y389000
X331500
T04
X333000Y139657
Y159343
T05
X136500Y113000
X338000
X136500Y415500
X338000
M30
