G04*
G04 #@! TF.GenerationSoftware,Altium Limited,Altium Designer,20.1.14 (287)*
G04*
G04 Layer_Physical_Order=1*
G04 Layer_Color=255*
%FSLAX25Y25*%
%MOIN*%
G70*
G04*
G04 #@! TF.SameCoordinates,C357774A-A1FF-41C0-A387-8AFBD113A784*
G04*
G04*
G04 #@! TF.FilePolarity,Positive*
G04*
G01*
G75*
%ADD14C,0.00600*%
%ADD17R,0.03740X0.03150*%
%ADD18R,0.03150X0.03150*%
%ADD19R,0.03347X0.02953*%
G04:AMPARAMS|DCode=20|XSize=21.65mil|YSize=66.93mil|CornerRadius=1.95mil|HoleSize=0mil|Usage=FLASHONLY|Rotation=0.000|XOffset=0mil|YOffset=0mil|HoleType=Round|Shape=RoundedRectangle|*
%AMROUNDEDRECTD20*
21,1,0.02165,0.06303,0,0,0.0*
21,1,0.01776,0.06693,0,0,0.0*
1,1,0.00390,0.00888,-0.03152*
1,1,0.00390,-0.00888,-0.03152*
1,1,0.00390,-0.00888,0.03152*
1,1,0.00390,0.00888,0.03152*
%
%ADD20ROUNDEDRECTD20*%
%ADD21R,0.07874X0.03543*%
%ADD22R,0.05315X0.01575*%
%ADD23R,0.04331X0.03937*%
%ADD24R,0.03150X0.03740*%
%ADD25R,0.03543X0.07874*%
%ADD26R,0.07874X0.03543*%
%ADD27R,0.01181X0.04147*%
%ADD28R,0.05236X0.05236*%
%ADD29R,0.03150X0.03150*%
%ADD30R,0.03543X0.03937*%
%ADD31R,0.03543X0.02953*%
%ADD32R,0.03543X0.03150*%
%ADD33R,0.05118X0.03937*%
%ADD34R,0.05315X0.02362*%
%ADD35R,0.02953X0.03347*%
%ADD36R,0.07480X0.12598*%
%ADD37R,0.07480X0.03543*%
%ADD38R,0.03347X0.01772*%
%ADD39R,0.03150X0.03543*%
%ADD40R,0.03740X0.03543*%
%ADD41R,0.05433X0.01772*%
%ADD42R,0.08268X0.05807*%
%ADD43R,0.07480X0.09350*%
%ADD44R,0.07480X0.04626*%
%ADD45R,0.03740X0.13780*%
%ADD46R,0.40748X0.35433*%
%ADD47R,0.06299X0.08583*%
%ADD48R,0.06299X0.08661*%
%ADD49R,0.05906X0.12992*%
%ADD50R,0.05906X0.04724*%
%ADD51R,0.02953X0.03543*%
%ADD52R,0.02756X0.03543*%
%ADD53R,0.03543X0.02756*%
%ADD54R,0.04147X0.01181*%
%ADD55R,0.06000X0.06000*%
%ADD56R,0.03937X0.05118*%
%ADD101C,0.01000*%
%ADD102C,0.00800*%
%ADD103C,0.02000*%
%ADD104C,0.01200*%
%ADD105C,0.01600*%
%ADD106C,0.05906*%
%ADD107R,0.05906X0.05906*%
%ADD108R,0.05906X0.05906*%
%ADD109C,0.05118*%
%ADD110R,0.05118X0.05118*%
%ADD111C,0.06299*%
%ADD112R,0.06299X0.06299*%
%ADD113C,0.22000*%
%ADD114C,0.02200*%
G36*
X157943Y425471D02*
X158304Y424971D01*
X158302Y424959D01*
Y422622D01*
X155000D01*
X154571Y422536D01*
X154207Y422293D01*
X153964Y421929D01*
X153878Y421500D01*
X153964Y421071D01*
X154207Y420707D01*
X154571Y420464D01*
X155000Y420378D01*
X158302D01*
Y418655D01*
X158363Y418345D01*
X158539Y418082D01*
X158802Y417907D01*
X159112Y417845D01*
X159500D01*
Y421807D01*
X160000D01*
Y422307D01*
X161698D01*
Y424959D01*
X161696Y424971D01*
X162057Y425471D01*
X162943D01*
X163304Y424971D01*
X163302Y424959D01*
Y418655D01*
X163363Y418345D01*
X163539Y418082D01*
X163730Y417955D01*
Y415530D01*
X163274Y415226D01*
X162899Y414663D01*
X162767Y414000D01*
X162899Y413337D01*
X163274Y412774D01*
X163837Y412399D01*
X164500Y412267D01*
X165163Y412399D01*
X165726Y412774D01*
X166101Y413337D01*
X166233Y414000D01*
X166101Y414663D01*
X165770Y415160D01*
Y417845D01*
X165888D01*
X166198Y417907D01*
X166461Y418082D01*
X166637Y418345D01*
X166698Y418655D01*
Y424959D01*
X166696Y424971D01*
X167057Y425471D01*
X167943D01*
X168304Y424971D01*
X168302Y424959D01*
Y418655D01*
X168363Y418345D01*
X168539Y418082D01*
X168802Y417907D01*
X168980Y417871D01*
Y415363D01*
X168774Y415226D01*
X168399Y414663D01*
X168267Y414000D01*
X168399Y413337D01*
X168774Y412774D01*
X169337Y412399D01*
X170000Y412267D01*
X170663Y412399D01*
X171226Y412774D01*
X171601Y413337D01*
X171733Y414000D01*
X171601Y414663D01*
X171226Y415226D01*
X171020Y415363D01*
Y417871D01*
X171198Y417907D01*
X171461Y418082D01*
X171637Y418345D01*
X171698Y418655D01*
Y424959D01*
X171696Y424971D01*
X172057Y425471D01*
X172943D01*
X173304Y424971D01*
X173302Y424959D01*
Y418655D01*
X173363Y418345D01*
X173539Y418082D01*
X173802Y417907D01*
X173917Y417884D01*
Y413657D01*
X173647Y413477D01*
X173272Y412915D01*
X173140Y412252D01*
X173272Y411588D01*
X173647Y411026D01*
X174210Y410650D01*
X174873Y410518D01*
X175536Y410650D01*
X176099Y411026D01*
X176474Y411588D01*
X176606Y412252D01*
X176474Y412915D01*
X176099Y413477D01*
X175956Y413572D01*
Y417859D01*
X176198Y417907D01*
X176461Y418082D01*
X176637Y418345D01*
X176698Y418655D01*
Y424959D01*
X176696Y424971D01*
X177057Y425471D01*
X177943D01*
X178304Y424971D01*
X178302Y424959D01*
Y418655D01*
X178363Y418345D01*
X178539Y418082D01*
X178802Y417907D01*
X178980Y417871D01*
Y415934D01*
X178837Y415838D01*
X178461Y415276D01*
X178329Y414613D01*
X178461Y413949D01*
X178837Y413387D01*
X179399Y413011D01*
X180062Y412879D01*
X180726Y413011D01*
X181288Y413387D01*
X181664Y413949D01*
X181796Y414613D01*
X181664Y415276D01*
X181288Y415838D01*
X181020Y416018D01*
Y417871D01*
X181198Y417907D01*
X181461Y418082D01*
X181637Y418345D01*
X181698Y418655D01*
Y424959D01*
X181696Y424971D01*
X182057Y425471D01*
X182943D01*
X183304Y424971D01*
X183302Y424959D01*
Y418655D01*
X183363Y418345D01*
X183539Y418082D01*
X183802Y417907D01*
X183890Y417889D01*
Y413161D01*
X183593Y412963D01*
X183218Y412400D01*
X183086Y411737D01*
X183218Y411074D01*
X183593Y410511D01*
X184156Y410136D01*
X184819Y410004D01*
X185482Y410136D01*
X186045Y410511D01*
X186420Y411074D01*
X186552Y411737D01*
X186420Y412400D01*
X186045Y412963D01*
X185929Y413040D01*
Y417853D01*
X186198Y417907D01*
X186461Y418082D01*
X186637Y418345D01*
X186698Y418655D01*
Y424959D01*
X186696Y424971D01*
X187057Y425471D01*
X187943D01*
X188304Y424971D01*
X188302Y424959D01*
Y418655D01*
X188363Y418345D01*
X188539Y418082D01*
X188802Y417907D01*
X188980Y417871D01*
Y412627D01*
X188423Y412516D01*
X187860Y412140D01*
X187484Y411578D01*
X187353Y410914D01*
X187484Y410251D01*
X187860Y409689D01*
X188423Y409313D01*
X189086Y409181D01*
X189749Y409313D01*
X190311Y409689D01*
X190590Y410106D01*
X190721Y410193D01*
X190942Y410524D01*
X191020Y410914D01*
Y417871D01*
X191198Y417907D01*
X191461Y418082D01*
X191637Y418345D01*
X191698Y418655D01*
Y424959D01*
X191696Y424971D01*
X192057Y425471D01*
X192943D01*
X193304Y424971D01*
X193302Y424959D01*
Y418655D01*
X193363Y418345D01*
X193539Y418082D01*
X193802Y417907D01*
X194112Y417845D01*
X194141D01*
Y415961D01*
X193935Y415824D01*
X193559Y415261D01*
X193427Y414598D01*
X193559Y413935D01*
X193935Y413373D01*
X194497Y412997D01*
X195161Y412865D01*
X195824Y412997D01*
X196386Y413373D01*
X196762Y413935D01*
X196894Y414598D01*
X196762Y415261D01*
X196386Y415824D01*
X196180Y415961D01*
Y417903D01*
X196198Y417907D01*
X196461Y418082D01*
X196637Y418345D01*
X196698Y418655D01*
Y424959D01*
X196696Y424971D01*
X197057Y425471D01*
X197943D01*
X198304Y424971D01*
X198302Y424959D01*
Y418655D01*
X198363Y418345D01*
X198539Y418082D01*
X198802Y417907D01*
X198980Y417871D01*
Y412363D01*
X198774Y412226D01*
X198399Y411663D01*
X198267Y411000D01*
X198399Y410337D01*
X198774Y409774D01*
X199337Y409399D01*
X200000Y409267D01*
X200663Y409399D01*
X201226Y409774D01*
X201601Y410337D01*
X201733Y411000D01*
X201601Y411663D01*
X201226Y412226D01*
X201020Y412363D01*
Y417871D01*
X201198Y417907D01*
X201461Y418082D01*
X201637Y418345D01*
X201698Y418655D01*
Y424959D01*
X201696Y424971D01*
X202057Y425471D01*
X213134D01*
X213302Y425266D01*
Y423236D01*
X211939D01*
X211939Y423236D01*
X211510Y423150D01*
X211146Y422907D01*
X211146Y422907D01*
X210825Y422587D01*
X210571Y422536D01*
X210207Y422293D01*
X209964Y421929D01*
X209878Y421500D01*
X209964Y421071D01*
X210207Y420707D01*
X210571Y420464D01*
X211000Y420378D01*
X211325D01*
X211325Y420378D01*
X211754Y420464D01*
X212118Y420707D01*
X212403Y420993D01*
X213302D01*
Y418963D01*
X213364Y418652D01*
X213539Y418390D01*
X213802Y418214D01*
X214112Y418152D01*
X214500D01*
Y422114D01*
X215000D01*
Y422614D01*
X216698D01*
Y424971D01*
X217113Y425471D01*
X218134D01*
X218302Y425266D01*
Y418963D01*
X218363Y418652D01*
X218539Y418390D01*
X218802Y418214D01*
X218980Y418178D01*
Y412863D01*
X218774Y412726D01*
X218399Y412163D01*
X218267Y411500D01*
X218399Y410837D01*
X218774Y410274D01*
X219337Y409899D01*
X220000Y409767D01*
X220663Y409899D01*
X221226Y410274D01*
X221601Y410837D01*
X221733Y411500D01*
X221601Y412163D01*
X221226Y412726D01*
X221020Y412863D01*
Y418178D01*
X221198Y418214D01*
X221461Y418390D01*
X221637Y418652D01*
X221698Y418963D01*
Y424971D01*
X222113Y425471D01*
X223134D01*
X223302Y425266D01*
Y418963D01*
X223363Y418652D01*
X223539Y418390D01*
X223802Y418214D01*
X223980Y418178D01*
Y412363D01*
X223774Y412226D01*
X223399Y411663D01*
X223267Y411000D01*
X223399Y410337D01*
X223774Y409774D01*
X224337Y409399D01*
X225000Y409267D01*
X225663Y409399D01*
X226226Y409774D01*
X226601Y410337D01*
X226733Y411000D01*
X226601Y411663D01*
X226226Y412226D01*
X226020Y412363D01*
Y418178D01*
X226198Y418214D01*
X226461Y418390D01*
X226637Y418652D01*
X226698Y418963D01*
Y424971D01*
X227113Y425471D01*
X228134D01*
X228302Y425266D01*
Y418963D01*
X228363Y418652D01*
X228539Y418390D01*
X228802Y418214D01*
X228980Y418178D01*
Y414363D01*
X228774Y414226D01*
X228399Y413663D01*
X228267Y413000D01*
X228399Y412337D01*
X228774Y411774D01*
X229337Y411399D01*
X230000Y411267D01*
X230663Y411399D01*
X231226Y411774D01*
X231601Y412337D01*
X231733Y413000D01*
X231601Y413663D01*
X231226Y414226D01*
X231020Y414363D01*
Y418178D01*
X231198Y418214D01*
X231461Y418390D01*
X231637Y418652D01*
X231698Y418963D01*
Y424971D01*
X232113Y425471D01*
X233134D01*
X233302Y425266D01*
Y418963D01*
X233364Y418652D01*
X233539Y418390D01*
X233802Y418214D01*
X233980Y418178D01*
Y414363D01*
X233774Y414226D01*
X233399Y413663D01*
X233267Y413000D01*
X233399Y412337D01*
X233774Y411774D01*
X234337Y411399D01*
X235000Y411267D01*
X235663Y411399D01*
X236226Y411774D01*
X236601Y412337D01*
X236733Y413000D01*
X236601Y413663D01*
X236226Y414226D01*
X236020Y414363D01*
Y418178D01*
X236198Y418214D01*
X236461Y418390D01*
X236636Y418652D01*
X236698Y418963D01*
Y424971D01*
X237113Y425471D01*
X238134D01*
X238302Y425266D01*
Y418963D01*
X238364Y418652D01*
X238539Y418390D01*
X238802Y418214D01*
X238980Y418178D01*
Y414879D01*
X238995Y414807D01*
X238899Y414663D01*
X238767Y414000D01*
X238899Y413337D01*
X239274Y412774D01*
X239837Y412399D01*
X240500Y412267D01*
X241163Y412399D01*
X241726Y412774D01*
X242101Y413337D01*
X242233Y414000D01*
X242101Y414663D01*
X241726Y415226D01*
X241163Y415601D01*
X241020Y415630D01*
Y418178D01*
X241198Y418214D01*
X241461Y418390D01*
X241636Y418652D01*
X241698Y418963D01*
Y424971D01*
X242113Y425471D01*
X243134D01*
X243302Y425266D01*
Y418963D01*
X243363Y418652D01*
X243539Y418390D01*
X243779Y418229D01*
Y415065D01*
X243573Y414927D01*
X243197Y414365D01*
X243065Y413701D01*
X243197Y413038D01*
X243573Y412476D01*
X244135Y412100D01*
X244799Y411968D01*
X245462Y412100D01*
X246024Y412476D01*
X246400Y413038D01*
X246532Y413701D01*
X246400Y414365D01*
X246024Y414927D01*
X245818Y415065D01*
Y418152D01*
X245888D01*
X246198Y418214D01*
X246461Y418390D01*
X246637Y418652D01*
X246698Y418963D01*
Y424971D01*
X247113Y425471D01*
X248134D01*
X248302Y425266D01*
Y418963D01*
X248363Y418652D01*
X248539Y418390D01*
X248802Y418214D01*
X248980Y418178D01*
Y411363D01*
X248774Y411226D01*
X248399Y410663D01*
X248267Y410000D01*
X248399Y409337D01*
X248774Y408774D01*
X249337Y408399D01*
X250000Y408267D01*
X250663Y408399D01*
X251226Y408774D01*
X251601Y409337D01*
X251733Y410000D01*
X251601Y410663D01*
X251226Y411226D01*
X251020Y411363D01*
Y418178D01*
X251198Y418214D01*
X251461Y418390D01*
X251637Y418652D01*
X251698Y418963D01*
Y424971D01*
X252113Y425471D01*
X253134D01*
X253302Y425266D01*
Y418963D01*
X253363Y418652D01*
X253539Y418390D01*
X253802Y418214D01*
X253980Y418178D01*
Y417253D01*
X254058Y416862D01*
X254279Y416532D01*
X254857Y415954D01*
X254767Y415500D01*
X254899Y414837D01*
X255274Y414274D01*
X255837Y413899D01*
X256500Y413767D01*
X257163Y413899D01*
X257726Y414274D01*
X258101Y414837D01*
X258233Y415500D01*
X258101Y416163D01*
X257726Y416726D01*
X257163Y417101D01*
X256500Y417233D01*
X256468Y417227D01*
X256020Y417675D01*
Y418178D01*
X256198Y418214D01*
X256461Y418390D01*
X256637Y418652D01*
X256698Y418963D01*
Y424971D01*
X257113Y425471D01*
X273134D01*
X273302Y425266D01*
Y423236D01*
X270939D01*
X270939Y423236D01*
X270510Y423150D01*
X270146Y422907D01*
X270146Y422907D01*
X269825Y422587D01*
X269571Y422536D01*
X269207Y422293D01*
X268964Y421929D01*
X268879Y421500D01*
X268964Y421071D01*
X269207Y420707D01*
X269571Y420464D01*
X270000Y420378D01*
X270325D01*
X270325Y420378D01*
X270754Y420464D01*
X271118Y420707D01*
X271404Y420993D01*
X273302D01*
Y418963D01*
X273363Y418652D01*
X273539Y418390D01*
X273802Y418214D01*
X274112Y418152D01*
X274500D01*
Y422114D01*
X275000D01*
Y422614D01*
X276698D01*
Y424971D01*
X277113Y425471D01*
X278134D01*
X278302Y425266D01*
Y418963D01*
X278363Y418652D01*
X278539Y418390D01*
X278802Y418214D01*
X278888Y418197D01*
Y414747D01*
X278589Y414547D01*
X278213Y413985D01*
X278081Y413321D01*
X278213Y412658D01*
X278589Y412096D01*
X279151Y411720D01*
X279815Y411588D01*
X280478Y411720D01*
X281040Y412096D01*
X281416Y412658D01*
X281548Y413321D01*
X281416Y413985D01*
X281040Y414547D01*
X280927Y414623D01*
Y418160D01*
X281198Y418214D01*
X281461Y418390D01*
X281637Y418652D01*
X281698Y418963D01*
Y424971D01*
X282113Y425471D01*
X283134D01*
X283302Y425266D01*
Y418963D01*
X283364Y418652D01*
X283539Y418390D01*
X283802Y418214D01*
X283956Y418183D01*
Y411342D01*
X283726Y411188D01*
X283351Y410626D01*
X283219Y409962D01*
X283351Y409299D01*
X283726Y408737D01*
X284289Y408361D01*
X284952Y408229D01*
X285615Y408361D01*
X286178Y408737D01*
X286553Y409299D01*
X286685Y409962D01*
X286553Y410626D01*
X286178Y411188D01*
X285996Y411310D01*
Y418174D01*
X286198Y418214D01*
X286461Y418390D01*
X286636Y418652D01*
X286698Y418963D01*
Y424971D01*
X287113Y425471D01*
X288134Y425471D01*
X288302Y425266D01*
Y418963D01*
X288364Y418652D01*
X288539Y418390D01*
X288802Y418214D01*
X289112Y418152D01*
X289124D01*
Y412218D01*
X289061Y412176D01*
X288686Y411614D01*
X288554Y410950D01*
X288686Y410287D01*
X289061Y409725D01*
X289624Y409349D01*
X290287Y409217D01*
X290950Y409349D01*
X291513Y409725D01*
X291888Y410287D01*
X292020Y410950D01*
X291888Y411614D01*
X291513Y412176D01*
X291163Y412410D01*
Y418207D01*
X291198Y418214D01*
X291461Y418390D01*
X291636Y418652D01*
X291698Y418963D01*
Y424971D01*
X292113Y425471D01*
X293134D01*
X293302Y425266D01*
Y418963D01*
X293363Y418652D01*
X293539Y418390D01*
X293685Y418292D01*
Y409430D01*
X293211Y409113D01*
X292835Y408551D01*
X292703Y407888D01*
X292835Y407225D01*
X293211Y406662D01*
X293773Y406286D01*
X294436Y406154D01*
X295100Y406286D01*
X295662Y406662D01*
X296038Y407225D01*
X296170Y407888D01*
X296038Y408551D01*
X295724Y409021D01*
Y418152D01*
X295888D01*
X296198Y418214D01*
X296461Y418390D01*
X296637Y418652D01*
X296698Y418963D01*
Y424971D01*
X297113Y425471D01*
X298134D01*
X298302Y425266D01*
Y418963D01*
X298363Y418652D01*
X298539Y418390D01*
X298802Y418214D01*
X299112Y418152D01*
X299113D01*
Y410644D01*
X299040Y410595D01*
X298664Y410033D01*
X298532Y409370D01*
X298664Y408707D01*
X299040Y408144D01*
X299602Y407768D01*
X300265Y407636D01*
X300929Y407768D01*
X301491Y408144D01*
X301867Y408707D01*
X301999Y409370D01*
X301867Y410033D01*
X301491Y410595D01*
X301152Y410822D01*
Y418205D01*
X301198Y418214D01*
X301461Y418390D01*
X301637Y418652D01*
X301698Y418963D01*
Y424971D01*
X302113Y425471D01*
X303134D01*
X303302Y425266D01*
Y418963D01*
X303363Y418652D01*
X303539Y418390D01*
X303802Y418214D01*
X303980Y418178D01*
Y414863D01*
X303774Y414726D01*
X303399Y414163D01*
X303267Y413500D01*
X303399Y412837D01*
X303774Y412274D01*
X304337Y411899D01*
X305000Y411767D01*
X305663Y411899D01*
X306226Y412274D01*
X306601Y412837D01*
X306733Y413500D01*
X306601Y414163D01*
X306226Y414726D01*
X306020Y414863D01*
Y418178D01*
X306198Y418214D01*
X306461Y418390D01*
X306637Y418652D01*
X306698Y418963D01*
Y424971D01*
X307113Y425471D01*
X308134D01*
X308302Y425266D01*
Y418963D01*
X308364Y418652D01*
X308539Y418390D01*
X308802Y418214D01*
X309112Y418152D01*
X310888D01*
X311198Y418214D01*
X311461Y418390D01*
X311636Y418652D01*
X311698Y418963D01*
Y424971D01*
X312113Y425471D01*
X313134D01*
X313302Y425266D01*
Y418963D01*
X313364Y418652D01*
X313539Y418390D01*
X313802Y418214D01*
X314112Y418152D01*
X315888D01*
X316198Y418214D01*
X316461Y418390D01*
X316636Y418652D01*
X316698Y418963D01*
Y424971D01*
X317113Y425471D01*
X331149D01*
X331284Y424989D01*
X331161Y424914D01*
X329772Y423728D01*
X328586Y422339D01*
X327632Y420783D01*
X326934Y419096D01*
X326507Y417320D01*
X326403Y416000D01*
X338000D01*
Y415500D01*
X338500D01*
Y403903D01*
X339820Y404007D01*
X341596Y404434D01*
X343283Y405132D01*
X344839Y406086D01*
X346228Y407272D01*
X347414Y408661D01*
X347489Y408784D01*
X347971Y408649D01*
X347971Y332230D01*
X347471Y332131D01*
X347182Y332827D01*
X346613Y333569D01*
X345870Y334139D01*
X345006Y334497D01*
X344579Y334553D01*
Y331035D01*
X344079D01*
Y330535D01*
X340561D01*
X340617Y330108D01*
X340975Y329244D01*
X341545Y328502D01*
X342287Y327932D01*
X342447Y327866D01*
Y324205D01*
X342287Y324139D01*
X341545Y323569D01*
X340975Y322827D01*
X340617Y321963D01*
X340561Y321535D01*
X344079D01*
Y320535D01*
X340561D01*
X340617Y320108D01*
X340975Y319244D01*
X341545Y318502D01*
X342287Y317932D01*
X342447Y317866D01*
Y314205D01*
X342287Y314139D01*
X341545Y313569D01*
X340975Y312827D01*
X340617Y311963D01*
X340561Y311535D01*
X344079D01*
Y310535D01*
X340561D01*
X340617Y310108D01*
X340975Y309244D01*
X341545Y308502D01*
X342287Y307932D01*
X342447Y307866D01*
Y304205D01*
X342287Y304139D01*
X341545Y303569D01*
X340975Y302827D01*
X340617Y301963D01*
X340561Y301535D01*
X344079D01*
Y300535D01*
X340561D01*
X340617Y300108D01*
X340975Y299244D01*
X341545Y298502D01*
X342287Y297932D01*
X342447Y297866D01*
Y294205D01*
X342287Y294139D01*
X341545Y293569D01*
X340975Y292827D01*
X340617Y291963D01*
X340561Y291535D01*
X344079D01*
Y290535D01*
X340561D01*
X340617Y290108D01*
X340975Y289244D01*
X341545Y288502D01*
X342287Y287932D01*
X342447Y287866D01*
Y284205D01*
X342287Y284139D01*
X341545Y283569D01*
X340975Y282827D01*
X340617Y281963D01*
X340561Y281535D01*
X344079D01*
Y280535D01*
X340561D01*
X340617Y280108D01*
X340975Y279244D01*
X341545Y278502D01*
X342287Y277932D01*
X342447Y277866D01*
Y274205D01*
X342287Y274139D01*
X341545Y273569D01*
X340975Y272827D01*
X340617Y271963D01*
X340561Y271535D01*
X344079D01*
Y270535D01*
X340561D01*
X340617Y270108D01*
X340975Y269244D01*
X341545Y268502D01*
X342287Y267932D01*
X342447Y267866D01*
Y264205D01*
X342287Y264139D01*
X341545Y263569D01*
X340975Y262827D01*
X340617Y261963D01*
X340561Y261535D01*
X344079D01*
Y260535D01*
X340561D01*
X340617Y260108D01*
X340975Y259244D01*
X341545Y258502D01*
X342287Y257932D01*
X342447Y257866D01*
Y254205D01*
X342287Y254139D01*
X341545Y253569D01*
X340975Y252827D01*
X340617Y251963D01*
X340561Y251535D01*
X344079D01*
Y250535D01*
X340561D01*
X340617Y250108D01*
X340975Y249244D01*
X341545Y248502D01*
X342287Y247932D01*
X342447Y247866D01*
Y244205D01*
X342287Y244139D01*
X341545Y243569D01*
X340975Y242827D01*
X340617Y241963D01*
X340561Y241535D01*
X344079D01*
Y240535D01*
X340561D01*
X340617Y240108D01*
X340975Y239244D01*
X341545Y238502D01*
X342287Y237932D01*
X342447Y237866D01*
Y234205D01*
X342287Y234139D01*
X341545Y233569D01*
X340975Y232827D01*
X340617Y231963D01*
X340561Y231535D01*
X344079D01*
Y230535D01*
X340561D01*
X340617Y230108D01*
X340975Y229244D01*
X341545Y228502D01*
X342287Y227932D01*
X342447Y227866D01*
Y224205D01*
X342287Y224139D01*
X341545Y223569D01*
X340975Y222827D01*
X340617Y221963D01*
X340561Y221535D01*
X344079D01*
Y220535D01*
X340561D01*
X340617Y220108D01*
X340975Y219244D01*
X341545Y218502D01*
X342287Y217932D01*
X342447Y217866D01*
Y214205D01*
X342287Y214139D01*
X341545Y213569D01*
X340975Y212827D01*
X340617Y211963D01*
X340561Y211535D01*
X344079D01*
Y210535D01*
X340561D01*
X340617Y210108D01*
X340975Y209244D01*
X341545Y208502D01*
X342287Y207932D01*
X342447Y207866D01*
Y204205D01*
X342287Y204139D01*
X341545Y203569D01*
X340975Y202827D01*
X340617Y201963D01*
X340561Y201535D01*
X344079D01*
Y200535D01*
X340561D01*
X340617Y200108D01*
X340975Y199244D01*
X341545Y198502D01*
X342287Y197932D01*
X342447Y197866D01*
Y194205D01*
X342287Y194139D01*
X341545Y193569D01*
X340975Y192827D01*
X340617Y191963D01*
X340561Y191535D01*
X344079D01*
Y190535D01*
X340561D01*
X340617Y190108D01*
X340975Y189244D01*
X341545Y188502D01*
X342287Y187932D01*
X342447Y187866D01*
Y184588D01*
X340526D01*
Y181535D01*
X344079D01*
Y181035D01*
X344579D01*
Y177483D01*
X347471D01*
X347971Y177123D01*
X347971Y119852D01*
X347489Y119716D01*
X347414Y119839D01*
X346228Y121228D01*
X344839Y122414D01*
X343283Y123368D01*
X341596Y124066D01*
X339820Y124493D01*
X338500Y124597D01*
Y113000D01*
X338000D01*
Y112500D01*
X326403D01*
X326507Y111180D01*
X326934Y109404D01*
X327632Y107717D01*
X328586Y106161D01*
X329772Y104772D01*
X331161Y103586D01*
X331284Y103511D01*
X331149Y103029D01*
X277516Y103029D01*
X277470Y103510D01*
X277470Y103529D01*
Y112231D01*
X284128D01*
Y111786D01*
X288872D01*
Y112231D01*
X294808D01*
X294994Y112268D01*
X295000Y112267D01*
X295663Y112399D01*
X296226Y112774D01*
X296601Y113337D01*
X296733Y114000D01*
X296601Y114663D01*
X296226Y115226D01*
X295663Y115601D01*
X295000Y115733D01*
X294337Y115601D01*
X294175Y115494D01*
X288872D01*
Y115939D01*
X284128D01*
Y115494D01*
X277470D01*
Y118490D01*
X272530D01*
Y103529D01*
X272484Y103029D01*
X257516D01*
X257470Y103510D01*
X257470Y103529D01*
Y111713D01*
X257501Y111870D01*
Y119694D01*
X259676Y121869D01*
X300328D01*
X300953Y121993D01*
X301482Y122346D01*
X302654Y123518D01*
X303007Y124047D01*
X303131Y124672D01*
Y150667D01*
X309833Y157369D01*
X329788D01*
X330326Y156668D01*
X331109Y156067D01*
X332021Y155689D01*
X333000Y155561D01*
X333979Y155689D01*
X334891Y156067D01*
X335674Y156668D01*
X336275Y157451D01*
X336653Y158364D01*
X336782Y159343D01*
X336653Y160321D01*
X336275Y161233D01*
X335674Y162017D01*
X334891Y162618D01*
X333979Y162996D01*
X333000Y163125D01*
X332021Y162996D01*
X331109Y162618D01*
X330326Y162017D01*
X329725Y161233D01*
X329475Y160631D01*
X309157D01*
X308533Y160507D01*
X308004Y160153D01*
X300346Y152496D01*
X299993Y151967D01*
X299869Y151342D01*
Y125347D01*
X299653Y125131D01*
X259000D01*
X259000Y125131D01*
X258376Y125007D01*
X257846Y124653D01*
X254716Y121524D01*
X254363Y120994D01*
X254239Y120370D01*
Y118490D01*
X252530D01*
Y112631D01*
X248187D01*
X246273Y114546D01*
Y115439D01*
X245215D01*
X245183Y115460D01*
X244559Y115584D01*
X244000D01*
X243376Y115460D01*
X243344Y115439D01*
X241727D01*
Y112467D01*
X243344D01*
X243376Y112446D01*
X243854Y112350D01*
X246172Y110033D01*
X245965Y109533D01*
X245869Y109533D01*
X244656D01*
X244624Y109554D01*
X244000Y109679D01*
X240703D01*
X239631Y110750D01*
Y113500D01*
X239507Y114124D01*
X239154Y114654D01*
X238624Y115007D01*
X238000Y115131D01*
X237376Y115007D01*
X236846Y114654D01*
X236493Y114124D01*
X236369Y113500D01*
Y110074D01*
X236493Y109450D01*
X236846Y108921D01*
X238873Y106894D01*
X239403Y106540D01*
X240027Y106416D01*
X244000D01*
X244624Y106540D01*
X244656Y106561D01*
X246273D01*
Y107547D01*
X244000D01*
Y108547D01*
X246273D01*
Y109161D01*
Y109188D01*
D01*
X246273Y109302D01*
X246454Y109408D01*
X246753Y109583D01*
X246887Y109493D01*
X247512Y109369D01*
X252530D01*
Y103529D01*
X252484Y103029D01*
X143351Y103029D01*
X143216Y103511D01*
X143339Y103586D01*
X144728Y104772D01*
X145914Y106161D01*
X146868Y107717D01*
X147566Y109404D01*
X147993Y111180D01*
X148097Y112500D01*
X136500D01*
Y113000D01*
X136000D01*
Y124597D01*
X134680Y124493D01*
X132904Y124066D01*
X131217Y123368D01*
X129661Y122414D01*
X128272Y121228D01*
X127086Y119839D01*
X127011Y119716D01*
X126529Y119851D01*
Y180010D01*
X126991Y180202D01*
X130347Y176847D01*
X130876Y176493D01*
X131500Y176369D01*
X139724D01*
X140349Y176493D01*
X140878Y176847D01*
X144131Y180100D01*
X144593Y179908D01*
Y173426D01*
X144717Y172801D01*
X145071Y172272D01*
X146999Y170344D01*
Y165106D01*
Y161107D01*
X146576Y160684D01*
X145226D01*
Y163537D01*
X140492D01*
Y164537D01*
X145226D01*
Y167541D01*
X142131D01*
Y173500D01*
X142007Y174124D01*
X141654Y174653D01*
X141124Y175007D01*
X140500Y175131D01*
X139876Y175007D01*
X139347Y174653D01*
X138993Y174124D01*
X138869Y173500D01*
Y167541D01*
X135777D01*
Y171084D01*
X131937D01*
Y165809D01*
X131437D01*
Y165309D01*
X127097D01*
Y160534D01*
Y158140D01*
X131437D01*
X135777D01*
Y160534D01*
X138593D01*
Y157975D01*
Y155416D01*
Y152857D01*
Y152284D01*
X141909D01*
X145226D01*
Y153323D01*
X150110D01*
Y149110D01*
X150188Y148720D01*
X150409Y148389D01*
X152526Y146272D01*
Y143650D01*
X152064Y143459D01*
X150230Y145293D01*
X149866Y145536D01*
X149437Y145622D01*
X149437Y145622D01*
X145226D01*
Y148151D01*
X145226D01*
Y148724D01*
X141909D01*
X138593D01*
Y148151D01*
X135777D01*
Y150545D01*
X131437D01*
X127097D01*
Y148132D01*
Y143376D01*
X131437D01*
Y142376D01*
X127097D01*
Y137601D01*
X130315D01*
Y134226D01*
X129707Y133618D01*
X129464Y133254D01*
X129378Y132825D01*
X129378Y132825D01*
Y132500D01*
X129464Y132071D01*
X129707Y131707D01*
X130071Y131464D01*
X130500Y131378D01*
X130929Y131464D01*
X131293Y131707D01*
X131536Y132071D01*
X131587Y132325D01*
X132230Y132969D01*
X132230Y132969D01*
X132473Y133333D01*
X132559Y133762D01*
X132559Y133762D01*
Y137601D01*
X135777D01*
Y141144D01*
X139992D01*
Y144648D01*
X140992D01*
Y141144D01*
X145226D01*
Y143378D01*
X148972D01*
X151935Y140416D01*
Y139342D01*
X154004D01*
Y142002D01*
X153522D01*
X153014Y142509D01*
X153206Y142971D01*
X156482D01*
Y147534D01*
X156699Y147666D01*
X156976Y147727D01*
X158431Y146272D01*
Y142971D01*
X159390D01*
Y142002D01*
X157841D01*
Y135684D01*
X162065D01*
X162361Y135184D01*
X162356Y135175D01*
X162250Y135109D01*
X162149D01*
X161681Y135016D01*
X161284Y134750D01*
X160405Y133872D01*
X157786D01*
Y129128D01*
X162135D01*
Y130277D01*
X164453D01*
X164921Y130370D01*
X165176Y130540D01*
X165583Y130376D01*
X165676Y130285D01*
Y126817D01*
X170419D01*
Y127776D01*
X170961D01*
X171351Y127853D01*
X171682Y128074D01*
X173214Y129606D01*
X173676Y129415D01*
Y127081D01*
X173878D01*
Y125622D01*
X160465D01*
X157236Y128850D01*
Y130425D01*
X157236Y130425D01*
X157214Y130534D01*
Y131000D01*
X155039D01*
X152865D01*
Y129128D01*
X154993D01*
Y128386D01*
X154993Y128386D01*
X155078Y127957D01*
X155321Y127593D01*
X159207Y123707D01*
X159571Y123464D01*
X160000Y123378D01*
X160000Y123378D01*
X174414D01*
X174414Y123378D01*
X174843Y123464D01*
X175207Y123707D01*
X175793Y124293D01*
X175793Y124293D01*
X176036Y124657D01*
X176122Y125086D01*
Y127081D01*
X178419D01*
Y128036D01*
X182176D01*
Y127081D01*
X184047D01*
Y129157D01*
Y131234D01*
X182176D01*
Y130279D01*
X178419D01*
Y131234D01*
X176018D01*
X175751Y131734D01*
X175799Y131806D01*
X178419D01*
Y135958D01*
X177569D01*
Y144513D01*
X183646D01*
Y149152D01*
X188284D01*
Y153260D01*
X189330D01*
X189629Y153320D01*
X189927Y153074D01*
X190030Y152943D01*
Y148927D01*
X194576D01*
Y151638D01*
X195418Y152480D01*
X196030D01*
Y148928D01*
X200576D01*
Y149455D01*
X201076Y149662D01*
X202250Y148488D01*
Y143983D01*
X209356D01*
Y145525D01*
X209625Y145661D01*
X209856Y145719D01*
X210368Y145376D01*
X211031Y145244D01*
X211695Y145376D01*
X212257Y145752D01*
X212633Y146314D01*
X212765Y146978D01*
X212633Y147641D01*
X212257Y148203D01*
X211695Y148579D01*
X211031Y148711D01*
X210368Y148579D01*
X209856Y148237D01*
X209625Y148294D01*
X209356Y148430D01*
Y149907D01*
X203715D01*
X201897Y151725D01*
X201567Y151946D01*
X201176Y152023D01*
X200576D01*
Y153080D01*
X200576D01*
X200422Y153580D01*
X200442Y153610D01*
X200520Y154000D01*
Y158330D01*
X202778Y160588D01*
X202976Y160553D01*
X203288Y160391D01*
X203399Y159837D01*
X203649Y159462D01*
X203410Y158962D01*
X202250D01*
Y153038D01*
X209356D01*
Y154980D01*
X227447D01*
Y148904D01*
X234553D01*
Y163096D01*
X233520D01*
Y185500D01*
X233442Y185890D01*
X233221Y186221D01*
X226252Y193190D01*
X225922Y193411D01*
X225532Y193488D01*
X197698D01*
X196716Y194470D01*
X196908Y194931D01*
X199931D01*
Y196480D01*
X206000D01*
X206390Y196558D01*
X206721Y196779D01*
X212721Y202779D01*
X212942Y203110D01*
X213020Y203500D01*
Y209660D01*
X215750D01*
Y218902D01*
X222428D01*
X223250Y218079D01*
Y209660D01*
X230750D01*
Y219521D01*
X224692D01*
X223571Y220642D01*
X223241Y220863D01*
X222990Y220913D01*
X223040Y221413D01*
X234433D01*
X234823Y221491D01*
X235154Y221712D01*
X241221Y227779D01*
X241442Y228110D01*
X241520Y228500D01*
Y235137D01*
X241726Y235274D01*
X242101Y235837D01*
X242233Y236500D01*
X242101Y237163D01*
X241726Y237726D01*
X241163Y238101D01*
X240550Y238223D01*
X240498Y238237D01*
X240169Y238677D01*
X240233Y239000D01*
X240101Y239663D01*
X239726Y240226D01*
X239163Y240601D01*
X238500Y240733D01*
X237837Y240601D01*
X237274Y240226D01*
X236899Y239663D01*
X236767Y239000D01*
X236899Y238337D01*
X237274Y237774D01*
X237480Y237637D01*
Y229922D01*
X232578Y225020D01*
X193656D01*
X193465Y225482D01*
X196056Y228073D01*
X206788D01*
X206788Y228073D01*
X207334Y228181D01*
X207798Y228491D01*
X209395Y230088D01*
X209395Y230088D01*
X209704Y230551D01*
X209813Y231097D01*
X209813Y231097D01*
Y232905D01*
X210101Y233337D01*
X210171Y233686D01*
X210714Y233851D01*
X215713Y228851D01*
X216011Y228652D01*
X216362Y228582D01*
X223892D01*
Y227128D01*
X232966D01*
Y231872D01*
X232966D01*
Y232128D01*
X232966D01*
Y236872D01*
X232966D01*
Y237128D01*
X232966D01*
Y241872D01*
X232966D01*
Y242128D01*
X232966D01*
Y246872D01*
X232966D01*
Y247128D01*
X232966D01*
Y251628D01*
X232966Y252000D01*
X232966Y252372D01*
Y253480D01*
X233870D01*
X233899Y253337D01*
X234274Y252774D01*
X234837Y252399D01*
X235500Y252267D01*
X236163Y252399D01*
X236726Y252774D01*
X237101Y253337D01*
X237233Y254000D01*
X237101Y254663D01*
X236726Y255226D01*
X236163Y255601D01*
X235500Y255733D01*
X234837Y255601D01*
X234693Y255505D01*
X234621Y255520D01*
X233320D01*
X232966Y255873D01*
X232966Y257000D01*
X232966Y257372D01*
Y261628D01*
X232966Y262000D01*
X232966Y262372D01*
Y266628D01*
X232966Y267000D01*
X232966Y267372D01*
Y271872D01*
X232966Y271872D01*
Y272128D01*
X232966D01*
X232966Y272372D01*
Y276872D01*
X232966D01*
Y277128D01*
X232966D01*
Y278480D01*
X234000D01*
X234390Y278558D01*
X234721Y278779D01*
X237221Y281279D01*
X237442Y281610D01*
X237520Y282000D01*
Y287578D01*
X240422Y290480D01*
X241575D01*
X241727Y289980D01*
X241714Y289972D01*
X240648Y288906D01*
X240405Y288542D01*
X240319Y288112D01*
X240319Y288112D01*
Y287273D01*
X239365D01*
Y285500D01*
X241441D01*
X243517D01*
Y287273D01*
X242865D01*
X242688Y287773D01*
X243300Y288386D01*
X243543Y288749D01*
X243629Y289179D01*
X243543Y289608D01*
X243300Y289972D01*
X243287Y289980D01*
X243439Y290480D01*
X259748D01*
X259955Y289980D01*
X258524Y288549D01*
X257989D01*
X257851Y288755D01*
X257289Y289131D01*
X256626Y289263D01*
X255962Y289131D01*
X255400Y288755D01*
X255024Y288193D01*
X254892Y287529D01*
X255024Y286866D01*
X255400Y286304D01*
X255962Y285928D01*
X256626Y285796D01*
X257289Y285928D01*
X257851Y286304D01*
X257989Y286510D01*
X258946D01*
X259336Y286587D01*
X259667Y286808D01*
X268068Y295210D01*
X268530Y295018D01*
Y292156D01*
X269730D01*
Y289971D01*
X269667Y289651D01*
X269799Y288988D01*
X270174Y288425D01*
X270737Y288050D01*
X271400Y287918D01*
X271880Y288013D01*
X272380Y287706D01*
Y278877D01*
X263204Y269700D01*
X262742Y269891D01*
Y273128D01*
Y275687D01*
Y278246D01*
Y281809D01*
X256227D01*
Y281047D01*
X251954D01*
X248635Y284366D01*
Y287273D01*
X244483D01*
Y282727D01*
X247390D01*
X248650Y281467D01*
X248437Y280973D01*
X244483D01*
Y276427D01*
X248635D01*
Y277680D01*
X251390D01*
X252716Y276354D01*
X253047Y276133D01*
X253437Y276055D01*
X256227D01*
Y275535D01*
X253016D01*
X252626Y275458D01*
X252295Y275237D01*
X250478Y273420D01*
X248635D01*
Y274673D01*
X244483D01*
Y270127D01*
X248635D01*
Y271380D01*
X250900D01*
X251290Y271458D01*
X251621Y271679D01*
X253438Y273496D01*
X256227D01*
Y272589D01*
X256069D01*
X255679Y272511D01*
X255348Y272290D01*
X250178Y267120D01*
X248635D01*
Y268373D01*
X244483D01*
Y263827D01*
X248635D01*
Y265080D01*
X250600D01*
X250980Y265156D01*
X250990Y265158D01*
X251480Y264884D01*
Y261922D01*
X250378Y260820D01*
X248635D01*
Y262073D01*
X244483D01*
Y257527D01*
X248635D01*
Y258780D01*
X250313D01*
X250767Y258500D01*
X250899Y257837D01*
X251274Y257274D01*
X251837Y256899D01*
X252500Y256767D01*
X253163Y256899D01*
X253726Y257274D01*
X254101Y257837D01*
X254233Y258500D01*
X254185Y258743D01*
X255727Y260285D01*
X256227Y260078D01*
Y257622D01*
X255602D01*
X255212Y257544D01*
X254881Y257323D01*
X252734Y255176D01*
X252513Y254845D01*
X252436Y254455D01*
Y246045D01*
X252513Y245655D01*
X252734Y245324D01*
X261779Y236279D01*
X262110Y236058D01*
X262500Y235980D01*
X299941D01*
X300331Y236058D01*
X300662Y236279D01*
X301610Y237227D01*
X304517D01*
Y241773D01*
X301060D01*
X300853Y242273D01*
X302173Y243593D01*
X304517D01*
Y248140D01*
X301373D01*
X301182Y248602D01*
X302540Y249960D01*
X304517D01*
Y254507D01*
X301740D01*
X301548Y254969D01*
X302906Y256327D01*
X304517D01*
Y260873D01*
X301660D01*
X301453Y261373D01*
X302773Y262693D01*
X304517D01*
Y267240D01*
X300365D01*
Y263169D01*
X299520Y262324D01*
X299020Y262531D01*
Y266836D01*
X300391Y268207D01*
X301365D01*
X301755Y268285D01*
X302085Y268506D01*
X302624Y269044D01*
X302635Y269060D01*
X304517D01*
Y273606D01*
X300365D01*
Y270246D01*
X299969D01*
X299578Y270169D01*
X299248Y269948D01*
X298180Y268880D01*
X297718Y269071D01*
Y272920D01*
X299975Y275178D01*
X300365Y275427D01*
Y275427D01*
X300365Y275427D01*
X304517D01*
Y279973D01*
X300365D01*
Y277418D01*
X300000D01*
X299649Y277348D01*
X299351Y277149D01*
X297080Y274877D01*
X296618Y275069D01*
Y279820D01*
X298880Y282082D01*
X300365D01*
Y281793D01*
X304517D01*
Y286340D01*
X300365D01*
Y283918D01*
X298500D01*
X298149Y283848D01*
X297851Y283649D01*
X295980Y281777D01*
X295518Y281969D01*
Y286220D01*
X298380Y289082D01*
X300365D01*
Y288160D01*
X304517D01*
Y292706D01*
X300365D01*
Y290918D01*
X298000D01*
X297649Y290848D01*
X297351Y290649D01*
X294880Y288177D01*
X294418Y288369D01*
Y289980D01*
X295249Y290811D01*
X295448Y291109D01*
X295518Y291460D01*
Y292220D01*
X298880Y295582D01*
X300306D01*
Y294527D01*
X304458D01*
Y299073D01*
X300306D01*
Y297418D01*
X298500D01*
X298149Y297348D01*
X297851Y297149D01*
X294880Y294177D01*
X294418Y294369D01*
Y295923D01*
X299903Y301408D01*
X300365Y301217D01*
Y300893D01*
X304517D01*
Y305440D01*
X302240D01*
X302048Y305902D01*
X302085Y305939D01*
X302307Y306270D01*
X302384Y306660D01*
Y307260D01*
X304517D01*
Y311807D01*
X300365D01*
X300118Y312204D01*
Y312682D01*
X301062Y313627D01*
X304517D01*
Y318173D01*
X300460D01*
X300174Y318594D01*
X301573Y319993D01*
X304517D01*
Y324540D01*
X300768D01*
X300560Y325040D01*
X301881Y326360D01*
X304458D01*
Y330907D01*
X300693D01*
X300486Y331406D01*
X301806Y332727D01*
X304517D01*
Y337273D01*
X300365D01*
Y334169D01*
X299503Y333308D01*
X299043Y333554D01*
X299131Y334000D01*
Y336962D01*
X317335Y355165D01*
X319337Y357168D01*
X321970D01*
Y361517D01*
X317030D01*
Y359475D01*
X316181Y358626D01*
X315470Y359337D01*
Y361517D01*
X310530D01*
Y361072D01*
X308970D01*
Y361517D01*
X304030D01*
Y361072D01*
X302470D01*
Y361517D01*
X297530D01*
Y361072D01*
X295970D01*
Y361517D01*
X291030D01*
Y361072D01*
X289470D01*
Y361517D01*
X284530D01*
Y361072D01*
X282970D01*
Y361517D01*
X278030D01*
Y361072D01*
X276470D01*
Y361517D01*
X271530D01*
Y361072D01*
X269273D01*
Y362017D01*
X264727D01*
Y361072D01*
X261970D01*
Y361517D01*
X257030D01*
Y361072D01*
X255470D01*
Y361517D01*
X250530D01*
Y361072D01*
X248970D01*
Y361517D01*
X244030D01*
Y361072D01*
X242470D01*
Y361517D01*
X237530D01*
Y361072D01*
X235970D01*
Y361517D01*
X231030D01*
Y361072D01*
X229470D01*
Y361517D01*
X224530D01*
Y361072D01*
X222970D01*
Y361517D01*
X218030D01*
Y361072D01*
X216470D01*
Y361517D01*
X211530D01*
Y361072D01*
X210273D01*
Y361576D01*
X205727D01*
Y361072D01*
X203970D01*
Y361517D01*
X199030D01*
Y361072D01*
X197470D01*
Y361517D01*
X192530D01*
Y361072D01*
X190970D01*
Y361517D01*
X186030D01*
Y361072D01*
X184470D01*
Y361517D01*
X179530D01*
Y361072D01*
X177970D01*
Y361517D01*
X173030D01*
Y361072D01*
X171470D01*
Y361517D01*
X166530D01*
Y361072D01*
X164970D01*
Y361517D01*
X160030D01*
Y361072D01*
X158470D01*
Y361360D01*
X153530D01*
Y361072D01*
X151773D01*
Y361517D01*
X147227D01*
Y359534D01*
X141347Y353654D01*
X140993Y353124D01*
X140869Y352500D01*
Y341347D01*
X140653Y341131D01*
X129500D01*
X128876Y341007D01*
X128347Y340653D01*
X126991Y339298D01*
X126529Y339490D01*
Y408649D01*
X127011Y408784D01*
X127086Y408661D01*
X128272Y407272D01*
X129661Y406086D01*
X131217Y405132D01*
X132904Y404434D01*
X134680Y404007D01*
X136000Y403903D01*
Y415500D01*
X136500D01*
Y416000D01*
X148097D01*
X147993Y417320D01*
X147566Y419096D01*
X146868Y420783D01*
X145914Y422339D01*
X144728Y423728D01*
X143339Y424914D01*
X143216Y424990D01*
X143351Y425471D01*
X157943D01*
D02*
G37*
G36*
X310530Y357168D02*
X313025D01*
X313874Y356319D01*
X296346Y338791D01*
X295993Y338262D01*
X295869Y337638D01*
Y334676D01*
X291347Y330153D01*
X290993Y329624D01*
X290869Y329000D01*
Y322176D01*
X288347Y319654D01*
X287993Y319124D01*
X287869Y318500D01*
Y316733D01*
X287745Y316631D01*
X279500D01*
X278876Y316507D01*
X278346Y316154D01*
X275153Y312960D01*
X273172D01*
X272547Y312836D01*
X272018Y312482D01*
X270717Y311180D01*
X270363Y310651D01*
X270239Y310027D01*
Y309301D01*
X268530D01*
Y304557D01*
X273470D01*
Y307543D01*
X273501Y307701D01*
Y309351D01*
X273847Y309697D01*
X275828D01*
X276453Y309821D01*
X276982Y310175D01*
X280176Y313369D01*
X281825D01*
X281977Y312869D01*
X281796Y312748D01*
X281506Y312313D01*
X279097Y309904D01*
X278743Y309375D01*
X278728Y309301D01*
X277780D01*
X277780Y304557D01*
X277343Y304405D01*
X274802D01*
X274412Y304328D01*
X274081Y304107D01*
X268020Y298045D01*
X267520Y298252D01*
Y309078D01*
X277456Y319014D01*
X277955Y318981D01*
X277966Y318966D01*
X278708Y318397D01*
X279573Y318039D01*
X280500Y317917D01*
X281427Y318039D01*
X282292Y318397D01*
X283034Y318966D01*
X283603Y319708D01*
X283961Y320573D01*
X284083Y321500D01*
X283961Y322427D01*
X283603Y323292D01*
X283034Y324034D01*
X282292Y324603D01*
X281427Y324961D01*
X280500Y325083D01*
X279573Y324961D01*
X278708Y324603D01*
X277966Y324034D01*
X277397Y323292D01*
X277039Y322427D01*
X276917Y321500D01*
X276938Y321335D01*
X276802Y321244D01*
X266020Y310461D01*
X265520Y310669D01*
Y313078D01*
X270244Y317802D01*
X270335Y317938D01*
X270500Y317917D01*
X271427Y318039D01*
X272292Y318397D01*
X273034Y318966D01*
X273603Y319708D01*
X273961Y320573D01*
X274083Y321500D01*
X273961Y322427D01*
X273603Y323292D01*
X273034Y324034D01*
X272292Y324603D01*
X271427Y324961D01*
X270500Y325083D01*
X269573Y324961D01*
X268708Y324603D01*
X267966Y324034D01*
X267397Y323292D01*
X267039Y322427D01*
X266917Y321500D01*
X267039Y320573D01*
X267397Y319708D01*
X267966Y318966D01*
X267981Y318955D01*
X268014Y318456D01*
X263779Y314221D01*
X263558Y313890D01*
X263480Y313500D01*
Y307580D01*
X261520D01*
Y318077D01*
X262292Y318397D01*
X263034Y318966D01*
X263603Y319708D01*
X263961Y320573D01*
X264083Y321500D01*
X263961Y322427D01*
X263603Y323292D01*
X263034Y324034D01*
X262292Y324603D01*
X261427Y324961D01*
X260500Y325083D01*
X259573Y324961D01*
X258708Y324603D01*
X257966Y324034D01*
X257397Y323292D01*
X257039Y322427D01*
X256917Y321500D01*
X257039Y320573D01*
X257397Y319708D01*
X257966Y318966D01*
X258708Y318397D01*
X259480Y318077D01*
Y307580D01*
X258235D01*
Y306031D01*
X255265D01*
Y307580D01*
X249735D01*
Y304324D01*
X249273Y304133D01*
X243685Y309721D01*
X243354Y309942D01*
X242964Y310020D01*
X232966D01*
X232966Y312000D01*
X232966Y312372D01*
Y313480D01*
X238500D01*
X238890Y313558D01*
X239221Y313779D01*
X244221Y318779D01*
X244442Y319110D01*
X244520Y319500D01*
Y340578D01*
X247684Y343742D01*
X296262D01*
X296652Y343820D01*
X296983Y344041D01*
X298800Y345859D01*
X299573Y345539D01*
X300500Y345417D01*
X301427Y345539D01*
X302292Y345897D01*
X303034Y346466D01*
X303603Y347208D01*
X303961Y348073D01*
X304083Y349000D01*
X303961Y349927D01*
X303603Y350792D01*
X303034Y351534D01*
X302292Y352103D01*
X301427Y352461D01*
X300500Y352583D01*
X299573Y352461D01*
X298708Y352103D01*
X297966Y351534D01*
X297397Y350792D01*
X297039Y349927D01*
X296917Y349000D01*
X297039Y348073D01*
X297358Y347300D01*
X295839Y345781D01*
X292963D01*
X292793Y346281D01*
X293034Y346466D01*
X293603Y347208D01*
X293961Y348073D01*
X294083Y349000D01*
X293961Y349927D01*
X293603Y350792D01*
X293034Y351534D01*
X292292Y352103D01*
X291427Y352461D01*
X290500Y352583D01*
X289573Y352461D01*
X288708Y352103D01*
X287966Y351534D01*
X287397Y350792D01*
X287039Y349927D01*
X286917Y349000D01*
X287039Y348073D01*
X287397Y347208D01*
X287966Y346466D01*
X288207Y346281D01*
X288037Y345781D01*
X282962D01*
X282793Y346281D01*
X283034Y346466D01*
X283603Y347208D01*
X283961Y348073D01*
X284083Y349000D01*
X283961Y349927D01*
X283603Y350792D01*
X283034Y351534D01*
X282292Y352103D01*
X281427Y352461D01*
X280500Y352583D01*
X279573Y352461D01*
X278708Y352103D01*
X277966Y351534D01*
X277397Y350792D01*
X277039Y349927D01*
X276917Y349000D01*
X277039Y348073D01*
X277397Y347208D01*
X277966Y346466D01*
X278207Y346281D01*
X278038Y345781D01*
X272962D01*
X272793Y346281D01*
X273034Y346466D01*
X273603Y347208D01*
X273961Y348073D01*
X274083Y349000D01*
X273961Y349927D01*
X273603Y350792D01*
X273034Y351534D01*
X272292Y352103D01*
X271427Y352461D01*
X270500Y352583D01*
X269573Y352461D01*
X268708Y352103D01*
X267966Y351534D01*
X267397Y350792D01*
X267039Y349927D01*
X266917Y349000D01*
X267039Y348073D01*
X267397Y347208D01*
X267966Y346466D01*
X268207Y346281D01*
X268038Y345781D01*
X262963D01*
X262793Y346281D01*
X263034Y346466D01*
X263603Y347208D01*
X263961Y348073D01*
X264018Y348500D01*
X256982D01*
X257039Y348073D01*
X257397Y347208D01*
X257966Y346466D01*
X258207Y346281D01*
X258037Y345781D01*
X254053D01*
Y352553D01*
X246947D01*
Y347467D01*
X245947D01*
X245557Y347389D01*
X245226Y347168D01*
X240779Y342721D01*
X240558Y342390D01*
X240480Y342000D01*
Y329422D01*
X234578Y323520D01*
X231304D01*
X230978Y324020D01*
X231047Y324185D01*
Y348988D01*
X230857Y349447D01*
X230398Y349638D01*
X159531D01*
X159072Y349447D01*
X158882Y348988D01*
Y324185D01*
X159072Y323726D01*
X159531Y323536D01*
X220887D01*
X221094Y323036D01*
X210779Y312721D01*
X210558Y312390D01*
X210480Y312000D01*
Y289909D01*
X201932Y281361D01*
X201470Y281552D01*
Y282248D01*
X198752D01*
Y279530D01*
X199448D01*
X199639Y279068D01*
X196091Y275520D01*
X166391D01*
X166037Y275873D01*
X166037Y277000D01*
X166037Y277372D01*
Y278880D01*
X170471D01*
X170861Y278958D01*
X171192Y279179D01*
X178256Y286244D01*
X178478Y286574D01*
X178555Y286965D01*
Y300042D01*
X191493Y312980D01*
X206637D01*
X206774Y312774D01*
X207337Y312399D01*
X208000Y312267D01*
X208663Y312399D01*
X209226Y312774D01*
X209601Y313337D01*
X209733Y314000D01*
X209601Y314663D01*
X209226Y315226D01*
X208663Y315601D01*
X208000Y315733D01*
X207337Y315601D01*
X206774Y315226D01*
X206637Y315020D01*
X191071D01*
X190681Y314942D01*
X190350Y314721D01*
X176815Y301185D01*
X176594Y300855D01*
X176516Y300465D01*
Y287387D01*
X170049Y280920D01*
X166391D01*
X166037Y281273D01*
X166037Y282000D01*
X166037Y282372D01*
Y283880D01*
X168400D01*
X168790Y283958D01*
X169121Y284179D01*
X174721Y289779D01*
X174942Y290110D01*
X175020Y290500D01*
Y303578D01*
X189422Y317980D01*
X206637D01*
X206774Y317774D01*
X207337Y317399D01*
X208000Y317267D01*
X208663Y317399D01*
X209226Y317774D01*
X209601Y318337D01*
X209733Y319000D01*
X209601Y319663D01*
X209226Y320226D01*
X208663Y320601D01*
X208000Y320733D01*
X207337Y320601D01*
X206774Y320226D01*
X206637Y320020D01*
X189000D01*
X188610Y319942D01*
X188279Y319721D01*
X173279Y304721D01*
X173058Y304390D01*
X172980Y304000D01*
Y290922D01*
X167978Y285920D01*
X166391D01*
X166037Y286273D01*
X166037Y287000D01*
X166037Y287372D01*
Y291872D01*
X166037D01*
Y292128D01*
X166037D01*
Y296628D01*
X166037Y296872D01*
X166037D01*
Y297128D01*
X166037D01*
Y301872D01*
X166037D01*
Y302128D01*
X166037D01*
Y306628D01*
X166037Y307000D01*
X166037Y307372D01*
Y308480D01*
X168637D01*
X168774Y308274D01*
X169337Y307899D01*
X170000Y307767D01*
X170663Y307899D01*
X171226Y308274D01*
X171601Y308837D01*
X171733Y309500D01*
X171601Y310163D01*
X171226Y310726D01*
X170663Y311101D01*
X170000Y311233D01*
X169337Y311101D01*
X168774Y310726D01*
X168637Y310520D01*
X166391D01*
X166037Y310873D01*
X166037Y312000D01*
X166037Y312372D01*
Y312889D01*
X168296D01*
X168728Y312600D01*
X169392Y312469D01*
X170055Y312600D01*
X170617Y312976D01*
X170993Y313539D01*
X171125Y314202D01*
X170993Y314865D01*
X170617Y315427D01*
X170055Y315803D01*
X169392Y315935D01*
X168728Y315803D01*
X168640Y315744D01*
X166037D01*
Y316872D01*
X166037D01*
Y317128D01*
X166037D01*
Y318378D01*
X180500D01*
X180929Y318464D01*
X181293Y318707D01*
X181536Y319071D01*
X181622Y319500D01*
X181536Y319929D01*
X181293Y320293D01*
X180929Y320536D01*
X180500Y320621D01*
X166037D01*
Y321872D01*
X162000D01*
Y319500D01*
X161000D01*
Y321872D01*
X156963D01*
Y321131D01*
X151688D01*
Y323490D01*
X151564Y324115D01*
X151210Y324644D01*
X148175Y327679D01*
Y329722D01*
X146500D01*
Y327547D01*
X146000D01*
Y327047D01*
X143825D01*
Y326549D01*
X143325Y326169D01*
X143000Y326233D01*
X142546Y326143D01*
X141968Y326721D01*
X141638Y326942D01*
X141247Y327020D01*
X140635D01*
Y328273D01*
X136483D01*
Y323727D01*
X140635D01*
Y324047D01*
X141135Y324325D01*
X141325Y324207D01*
X141399Y323837D01*
X141774Y323274D01*
X142337Y322899D01*
X143000Y322767D01*
X143663Y322899D01*
X144226Y323274D01*
X144601Y323837D01*
X144733Y324500D01*
X144659Y324872D01*
X145017Y325372D01*
X145868D01*
X148425Y322815D01*
Y320176D01*
X147326Y319077D01*
X147292Y319103D01*
X146427Y319461D01*
X146000Y319518D01*
Y316000D01*
X145500D01*
Y315500D01*
X141982D01*
X142039Y315073D01*
X142397Y314208D01*
X142806Y313675D01*
X142560Y313175D01*
X140344D01*
X138810Y314708D01*
X138961Y315073D01*
X139083Y316000D01*
X138961Y316927D01*
X138603Y317792D01*
X138034Y318534D01*
X137292Y319103D01*
X136427Y319461D01*
X136104Y319504D01*
Y320691D01*
X135995Y321238D01*
X135686Y321701D01*
X135686Y321701D01*
X134868Y322518D01*
Y323727D01*
X135517D01*
Y328273D01*
X134868D01*
Y330931D01*
X135687D01*
X135813Y330931D01*
X136187D01*
X136313Y330931D01*
X140931D01*
Y332229D01*
X143825D01*
Y331278D01*
X148175D01*
Y333208D01*
X148223Y333453D01*
X148175Y333698D01*
Y335628D01*
X143825D01*
Y334676D01*
X140931D01*
Y336069D01*
X136313D01*
X136187Y336069D01*
X135813D01*
X135687Y336069D01*
X131069D01*
Y330931D01*
X132013D01*
Y328273D01*
X131365D01*
Y323727D01*
X132013D01*
Y321927D01*
X132013Y321927D01*
X132122Y321380D01*
X132432Y320917D01*
X133249Y320100D01*
Y318751D01*
X132966Y318534D01*
X132397Y317792D01*
X132039Y316927D01*
X131917Y316000D01*
X132039Y315073D01*
X132397Y314208D01*
X132966Y313466D01*
X133708Y312897D01*
X134573Y312539D01*
X135500Y312417D01*
X136427Y312539D01*
X136792Y312690D01*
X138743Y310738D01*
X138743Y310738D01*
X139207Y310429D01*
X139753Y310320D01*
X139753Y310320D01*
X148264D01*
X148264Y310320D01*
X148810Y310429D01*
X149273Y310738D01*
X151608Y313073D01*
X156609D01*
X156963Y312719D01*
X156963Y312000D01*
X156963Y311628D01*
Y307391D01*
X156963Y307128D01*
X156561Y306891D01*
X148966D01*
X148961Y306927D01*
X148603Y307792D01*
X148034Y308534D01*
X147292Y309103D01*
X146427Y309461D01*
X145500Y309583D01*
X144573Y309461D01*
X143708Y309103D01*
X142966Y308534D01*
X142397Y307792D01*
X142039Y306927D01*
X141917Y306000D01*
X142039Y305073D01*
X142397Y304208D01*
X142966Y303466D01*
X143548Y303020D01*
X143378Y302520D01*
X140422D01*
X138642Y304300D01*
X138961Y305073D01*
X139083Y306000D01*
X138961Y306927D01*
X138603Y307792D01*
X138034Y308534D01*
X137292Y309103D01*
X136427Y309461D01*
X135500Y309583D01*
X134573Y309461D01*
X133708Y309103D01*
X132966Y308534D01*
X132397Y307792D01*
X132039Y306927D01*
X131917Y306000D01*
X132039Y305073D01*
X132397Y304208D01*
X132966Y303466D01*
X133708Y302897D01*
X134573Y302539D01*
X135500Y302417D01*
X136427Y302539D01*
X137200Y302858D01*
X139279Y300779D01*
X139610Y300558D01*
X140000Y300480D01*
X140885D01*
X141077Y300019D01*
X139053Y297995D01*
X139013Y297977D01*
X138403Y298052D01*
X138034Y298534D01*
X137292Y299103D01*
X136427Y299461D01*
X135500Y299583D01*
X134573Y299461D01*
X133708Y299103D01*
X132966Y298534D01*
X132397Y297792D01*
X132039Y296927D01*
X131917Y296000D01*
X132039Y295073D01*
X132397Y294208D01*
X132966Y293466D01*
X133708Y292897D01*
X134573Y292539D01*
X135500Y292417D01*
X136427Y292539D01*
X137292Y292897D01*
X138034Y293466D01*
X138603Y294208D01*
X138961Y295073D01*
X139033Y295617D01*
X139136D01*
X139527Y295694D01*
X139857Y295916D01*
X141986Y298044D01*
X142397Y297792D01*
X142039Y296927D01*
X141917Y296000D01*
X142039Y295073D01*
X142397Y294208D01*
X142966Y293466D01*
X143708Y292897D01*
X144573Y292539D01*
X145500Y292417D01*
X146427Y292539D01*
X147200Y292859D01*
X151279Y288779D01*
X151610Y288558D01*
X152000Y288480D01*
X156609D01*
X156963Y288127D01*
X156963Y287000D01*
X156963Y286628D01*
Y282372D01*
X156963Y282000D01*
X156963Y281628D01*
Y277372D01*
X156963Y277000D01*
X156963Y276628D01*
Y272372D01*
X156963Y272000D01*
X156963Y271628D01*
Y269686D01*
X156463Y269479D01*
X155721Y270221D01*
X155390Y270442D01*
X155000Y270520D01*
X152422D01*
X148642Y274300D01*
X148961Y275073D01*
X149083Y276000D01*
X148961Y276927D01*
X148603Y277792D01*
X148034Y278534D01*
X147292Y279103D01*
X146427Y279461D01*
X145500Y279583D01*
X144573Y279461D01*
X143708Y279103D01*
X142966Y278534D01*
X142397Y277792D01*
X142039Y276927D01*
X141917Y276000D01*
X142039Y275073D01*
X142397Y274208D01*
X142966Y273466D01*
X143708Y272897D01*
X144573Y272539D01*
X145500Y272417D01*
X146427Y272539D01*
X147200Y272859D01*
X151279Y268779D01*
X151610Y268558D01*
X152000Y268480D01*
X154578D01*
X154980Y268078D01*
Y258988D01*
X154777Y258862D01*
X154480Y258799D01*
X152558Y260721D01*
X152227Y260942D01*
X151837Y261020D01*
X142520D01*
Y262447D01*
X149053D01*
Y269553D01*
X141947D01*
Y266148D01*
X141485Y265957D01*
X141221Y266221D01*
X140890Y266442D01*
X140500Y266520D01*
X139015D01*
X138961Y266927D01*
X138603Y267792D01*
X138034Y268534D01*
X137292Y269103D01*
X136427Y269461D01*
X135500Y269583D01*
X134573Y269461D01*
X133708Y269103D01*
X132966Y268534D01*
X132397Y267792D01*
X132039Y266927D01*
X131917Y266000D01*
X132039Y265073D01*
X132397Y264208D01*
X132966Y263466D01*
X133708Y262897D01*
X134573Y262539D01*
X135500Y262417D01*
X136427Y262539D01*
X137292Y262897D01*
X138034Y263466D01*
X138603Y264208D01*
X138716Y264480D01*
X140078D01*
X140480Y264078D01*
Y260469D01*
X140558Y260079D01*
X140779Y259748D01*
X141248Y259279D01*
X141578Y259058D01*
X141969Y258980D01*
X144843D01*
X145110Y258480D01*
X144899Y258163D01*
X144767Y257500D01*
X144899Y256837D01*
X145274Y256274D01*
X145837Y255899D01*
X146500Y255767D01*
X146863Y255839D01*
X148287Y254415D01*
Y252970D01*
X147030D01*
Y248030D01*
X151380D01*
X151774Y247775D01*
X151774Y247774D01*
X151777Y247773D01*
Y246494D01*
X150132D01*
X150014Y246470D01*
X146983D01*
Y241530D01*
X151332D01*
Y244047D01*
X152297D01*
X152765Y244140D01*
X153162Y244405D01*
X153865Y245108D01*
X154130Y245505D01*
X154224Y245973D01*
Y247769D01*
X154498Y248046D01*
X154980Y247892D01*
Y247835D01*
X155058Y247445D01*
X155279Y247114D01*
X156963Y245430D01*
Y243426D01*
X151955Y238418D01*
X151332D01*
Y239970D01*
X146983D01*
Y235030D01*
X151332D01*
Y236582D01*
X152335D01*
X152686Y236652D01*
X152983Y236851D01*
X156501Y240369D01*
X156963Y240177D01*
Y237128D01*
X156963D01*
Y236872D01*
X156963D01*
Y232128D01*
X156963D01*
Y231872D01*
X156963D01*
Y227128D01*
X166037D01*
Y228582D01*
X173567D01*
X173918Y228652D01*
X174216Y228851D01*
X191391Y246026D01*
X194836D01*
Y246026D01*
X195093D01*
Y246026D01*
X198538D01*
X208351Y236213D01*
X208187Y235671D01*
X207837Y235601D01*
X207274Y235226D01*
X206899Y234663D01*
X206785Y234091D01*
X206742Y233985D01*
X206314Y233713D01*
X205947Y233786D01*
X205704Y233738D01*
X205221Y234221D01*
X204890Y234442D01*
X204500Y234520D01*
X184500D01*
X184110Y234442D01*
X183779Y234221D01*
X175078Y225520D01*
X151332D01*
Y226970D01*
X146983D01*
Y222030D01*
X151332D01*
Y223480D01*
X175500D01*
X175890Y223558D01*
X176221Y223779D01*
X184922Y232480D01*
X203830D01*
X204214Y232053D01*
X204338Y231427D01*
X204330Y231312D01*
X204124Y230927D01*
X195465D01*
X195465Y230927D01*
X194918Y230819D01*
X194455Y230509D01*
X181294Y217348D01*
X180832Y217540D01*
Y217705D01*
X178173D01*
Y215636D01*
X178822D01*
X179023Y215175D01*
X178773Y214868D01*
X174514D01*
Y214172D01*
X170045D01*
Y214966D01*
X165302D01*
Y214172D01*
X161045D01*
Y214966D01*
X156302D01*
Y214015D01*
X154475D01*
X154007Y213922D01*
X153793Y213779D01*
X153474Y214167D01*
X154814Y215506D01*
X158098D01*
X158173Y215521D01*
Y217713D01*
Y219887D01*
X156302D01*
Y218769D01*
X154138D01*
X154101Y218762D01*
X153645Y219084D01*
X153545Y219586D01*
X153192Y220115D01*
X153154Y220153D01*
X152624Y220507D01*
X152000Y220631D01*
X151376Y220507D01*
X150847Y220153D01*
X150493Y219624D01*
X150369Y219000D01*
X150407Y218808D01*
Y216962D01*
X150531Y216337D01*
X150731Y216038D01*
X149372Y214679D01*
X148872Y214850D01*
Y214939D01*
X147000D01*
Y212862D01*
Y210786D01*
X148872D01*
Y211295D01*
X149926D01*
X150551Y211419D01*
X150897Y211651D01*
X151216Y211262D01*
X149565Y209611D01*
X148872D01*
Y210214D01*
X144128D01*
Y209361D01*
X139872D01*
Y210214D01*
X135128D01*
Y206061D01*
X139872D01*
Y206914D01*
X144128D01*
Y206061D01*
X148872D01*
Y207164D01*
X150072D01*
X150540Y207257D01*
X150937Y207523D01*
X154982Y211568D01*
X156302D01*
Y210616D01*
X161045D01*
Y211725D01*
X165302D01*
Y210616D01*
X170045D01*
Y211725D01*
X174442D01*
X174505Y211225D01*
X174487Y211132D01*
X171991Y208635D01*
X171681Y208172D01*
X171573Y207626D01*
X171573Y207626D01*
Y196430D01*
X160755Y185612D01*
X159427D01*
Y186576D01*
X159601Y186837D01*
X159733Y187500D01*
X159601Y188163D01*
X159226Y188726D01*
X158663Y189101D01*
X158000Y189233D01*
X157337Y189101D01*
X156774Y188726D01*
X156399Y188163D01*
X156267Y187500D01*
X156399Y186837D01*
X156573Y186576D01*
Y185612D01*
X154093D01*
Y180868D01*
X162773D01*
Y182017D01*
X164179D01*
X164180Y182015D01*
X164742Y181639D01*
X165405Y181507D01*
X166069Y181639D01*
X166631Y182015D01*
X167007Y182577D01*
X167139Y183240D01*
X167007Y183904D01*
X166631Y184466D01*
X166069Y184842D01*
X165405Y184974D01*
X164742Y184842D01*
X164702Y184814D01*
X164383Y185203D01*
X174009Y194829D01*
X174009Y194829D01*
X174319Y195292D01*
X174427Y195839D01*
Y207035D01*
X176924Y209531D01*
X176924Y209531D01*
X177057Y209731D01*
X180832D01*
Y212849D01*
X185188Y217204D01*
X185650Y217013D01*
Y199195D01*
X182161D01*
Y192295D01*
X181161D01*
Y199195D01*
X177321D01*
Y193417D01*
X175382D01*
X175382Y193417D01*
X174952Y193332D01*
X174589Y193088D01*
X172967Y191467D01*
X172707Y191293D01*
X172464Y190929D01*
X172378Y190500D01*
X172464Y190071D01*
X172707Y189707D01*
X173071Y189464D01*
X173500Y189378D01*
X173586D01*
X173586Y189378D01*
X174016Y189464D01*
X174379Y189707D01*
X175846Y191174D01*
X177321D01*
Y187703D01*
X166171Y176553D01*
X162860D01*
Y177293D01*
X161185D01*
Y174921D01*
X160685D01*
Y174421D01*
X158510D01*
Y174203D01*
X158439Y174155D01*
X157939Y174423D01*
Y177293D01*
X155896D01*
X152856Y180333D01*
Y192614D01*
X152732Y193238D01*
X152378Y193768D01*
X149100Y197046D01*
Y197273D01*
X152058Y200231D01*
X154093D01*
Y198979D01*
X162773D01*
Y203722D01*
X154093D01*
Y203494D01*
X151382D01*
X150758Y203369D01*
X150228Y203016D01*
X146793Y199580D01*
X144160D01*
Y198840D01*
X138600D01*
Y199580D01*
X133660D01*
Y194837D01*
X138600D01*
Y195577D01*
X144160D01*
Y194837D01*
X146695D01*
X149593Y191938D01*
Y187196D01*
X149100Y187179D01*
Y187179D01*
X144160D01*
Y184742D01*
X139049Y179631D01*
X136231D01*
X135964Y180131D01*
X136101Y180337D01*
X136233Y181000D01*
X136131Y181512D01*
Y182435D01*
X138600D01*
Y187179D01*
X133660D01*
Y184644D01*
X133346Y184331D01*
X132993Y183801D01*
X132869Y183177D01*
Y181512D01*
X132767Y181000D01*
X132899Y180337D01*
X133036Y180131D01*
X132769Y179631D01*
X132176D01*
X129179Y182629D01*
Y336872D01*
X130176Y337869D01*
X141328D01*
X141953Y337993D01*
X142482Y338347D01*
X143654Y339518D01*
X144007Y340047D01*
X144131Y340672D01*
Y351824D01*
X149672Y357365D01*
X151773D01*
Y357810D01*
X153530D01*
Y357010D01*
X158470D01*
Y357810D01*
X160030D01*
Y357168D01*
X164970D01*
Y357810D01*
X166530D01*
Y357168D01*
X171470D01*
Y357810D01*
X173030D01*
Y357168D01*
X177970D01*
Y357810D01*
X179530D01*
Y357168D01*
X184470D01*
Y357810D01*
X186030D01*
Y357168D01*
X190970D01*
Y357810D01*
X192530D01*
Y357168D01*
X197470D01*
Y357810D01*
X199030D01*
Y357168D01*
X203970D01*
Y357810D01*
X205727D01*
Y357424D01*
X210273D01*
Y357810D01*
X211530D01*
Y357168D01*
X216470D01*
Y357810D01*
X218030D01*
Y357168D01*
X222970D01*
Y357810D01*
X224530D01*
Y357168D01*
X229470D01*
Y357810D01*
X231030D01*
Y357168D01*
X235970D01*
Y357810D01*
X237530D01*
Y357168D01*
X242470D01*
Y357810D01*
X244030D01*
Y357168D01*
X248970D01*
Y357810D01*
X250530D01*
Y357168D01*
X255470D01*
Y357810D01*
X257030D01*
Y357168D01*
X261970D01*
Y357810D01*
X271530D01*
Y357168D01*
X276470D01*
Y357810D01*
X278030D01*
Y357168D01*
X282970D01*
Y357810D01*
X284530D01*
Y357168D01*
X289470D01*
Y357810D01*
X291030D01*
Y357168D01*
X295970D01*
Y357810D01*
X297530D01*
Y357168D01*
X302470D01*
Y357810D01*
X304030D01*
Y357168D01*
X308970D01*
Y357810D01*
X310530D01*
Y357168D01*
D02*
G37*
G36*
X242480Y327831D02*
Y319922D01*
X238078Y315520D01*
X232966D01*
Y316872D01*
X232966D01*
Y317128D01*
X232966D01*
Y318378D01*
X238863D01*
X239292Y318464D01*
X239656Y318707D01*
X239899Y319071D01*
X239984Y319500D01*
X239899Y319929D01*
X239656Y320293D01*
X239292Y320536D01*
X238863Y320621D01*
X232966D01*
Y321480D01*
X235000D01*
X235390Y321558D01*
X235721Y321779D01*
X241980Y328039D01*
X242480Y327831D01*
D02*
G37*
G36*
X293980Y319966D02*
Y307937D01*
X292432Y306389D01*
X291970Y306580D01*
Y309301D01*
X291131D01*
Y313245D01*
Y317824D01*
X293480Y320173D01*
X293980Y319966D01*
D02*
G37*
G36*
X287869Y312570D02*
Y309301D01*
X287030D01*
Y304557D01*
X286593Y304405D01*
X283157D01*
X282720Y304557D01*
X282720Y304905D01*
Y308913D01*
X283813Y310006D01*
X284247Y310297D01*
X284623Y310859D01*
X284755Y311522D01*
X284623Y312185D01*
X284247Y312748D01*
X284066Y312869D01*
X284218Y313369D01*
X287070D01*
X287869Y312570D01*
D02*
G37*
G36*
X249735Y300787D02*
Y296932D01*
X255265D01*
X255265Y296932D01*
Y296932D01*
X255765Y296946D01*
X255837Y296899D01*
X256500Y296767D01*
X257108Y296888D01*
X257250Y296767D01*
X257438Y296482D01*
X257359Y296363D01*
X257290Y296020D01*
X233320D01*
X232966Y296373D01*
X232966Y297000D01*
X232966Y297372D01*
Y298480D01*
X235137D01*
X235274Y298274D01*
X235837Y297899D01*
X236500Y297767D01*
X237163Y297899D01*
X237726Y298274D01*
X238101Y298837D01*
X238233Y299500D01*
X238101Y300163D01*
X237726Y300726D01*
X237163Y301101D01*
X236500Y301233D01*
X235837Y301101D01*
X235274Y300726D01*
X235137Y300520D01*
X233320D01*
X232966Y300873D01*
X232966Y302000D01*
X232966Y302372D01*
Y303480D01*
X235137D01*
X235274Y303274D01*
X235837Y302899D01*
X236500Y302767D01*
X237163Y302899D01*
X237726Y303274D01*
X238101Y303837D01*
X238233Y304500D01*
X238101Y305163D01*
X237726Y305726D01*
X237163Y306101D01*
X236500Y306233D01*
X235837Y306101D01*
X235274Y305726D01*
X235137Y305520D01*
X233320D01*
X232966Y305873D01*
X232966Y307000D01*
X232966Y307372D01*
Y307980D01*
X242541D01*
X249735Y300787D01*
D02*
G37*
G36*
X153407Y295151D02*
X153738Y294930D01*
X154128Y294852D01*
X156963D01*
Y292128D01*
X156963D01*
Y291872D01*
X156963D01*
Y290520D01*
X152422D01*
X148642Y294300D01*
X148961Y295073D01*
X149083Y296000D01*
X148961Y296927D01*
X148603Y297792D01*
X148188Y298333D01*
X148434Y298833D01*
X149725D01*
X153407Y295151D01*
D02*
G37*
G36*
X287030Y292156D02*
X289929D01*
X290160Y291656D01*
X290058Y291503D01*
X289980Y291113D01*
Y290273D01*
X286483D01*
Y287001D01*
X286021Y286809D01*
X285517Y287313D01*
Y287500D01*
X283441D01*
Y288000D01*
X282941D01*
Y290273D01*
X281365D01*
X281270Y290734D01*
Y292156D01*
X282720D01*
Y293508D01*
X287030D01*
Y292156D01*
D02*
G37*
G36*
X279230Y286986D02*
X279239Y286945D01*
Y280809D01*
X279258Y280710D01*
Y278805D01*
X278758Y278538D01*
X278663Y278601D01*
X278000Y278733D01*
X277520Y278638D01*
X277020Y278945D01*
Y290514D01*
X277091Y290585D01*
X277312Y290916D01*
X277390Y291306D01*
Y291891D01*
X277780Y292156D01*
X279230D01*
Y286986D01*
D02*
G37*
G36*
X276615Y271984D02*
X276618Y271966D01*
X276862Y271602D01*
X277225Y271359D01*
X277480Y271308D01*
X277625Y271164D01*
X277988Y270920D01*
X278005Y270917D01*
X277956Y270417D01*
X276876D01*
X276486Y270340D01*
X276156Y270119D01*
X274746Y268709D01*
X274503Y268757D01*
X273839Y268625D01*
X273277Y268249D01*
X272901Y267687D01*
X272769Y267024D01*
X272901Y266360D01*
X273277Y265798D01*
X273839Y265422D01*
X274503Y265290D01*
X275166Y265422D01*
X275728Y265798D01*
X276104Y266360D01*
X276236Y267024D01*
X276188Y267267D01*
X277299Y268378D01*
X279258D01*
Y265451D01*
Y262892D01*
Y260333D01*
Y257774D01*
Y255215D01*
Y252656D01*
Y249837D01*
X278796Y249646D01*
X273678Y254764D01*
X273347Y254985D01*
X272957Y255063D01*
X262742D01*
Y259059D01*
X262905Y259091D01*
X263235Y259312D01*
X269978Y266055D01*
X269978Y266055D01*
X276072Y272149D01*
X276615Y271984D01*
D02*
G37*
G36*
X223892Y320000D02*
X228429D01*
Y319000D01*
X223892D01*
Y317128D01*
X223892D01*
Y316872D01*
X223892D01*
Y312372D01*
X223892Y312000D01*
X223892Y311628D01*
Y307372D01*
X223892Y307000D01*
X223892Y306628D01*
Y302372D01*
X223892Y302000D01*
X223892Y301628D01*
Y297372D01*
X223892Y297000D01*
X223892Y296628D01*
Y292372D01*
X223892Y292000D01*
X223892Y291628D01*
Y287372D01*
X223892Y287000D01*
X223892Y286628D01*
Y282128D01*
X223892D01*
Y281872D01*
X223892D01*
Y277128D01*
X223892D01*
Y276872D01*
X223892D01*
Y273570D01*
X214535Y264213D01*
X201363D01*
X201226Y264419D01*
X200818Y264691D01*
X200682Y265262D01*
X221721Y286301D01*
X221942Y286632D01*
X222020Y287022D01*
Y306137D01*
X222226Y306274D01*
X222601Y306837D01*
X222733Y307500D01*
X222601Y308163D01*
X222226Y308726D01*
X221663Y309101D01*
X221000Y309233D01*
X220337Y309101D01*
X219774Y308726D01*
X219399Y308163D01*
X219267Y307500D01*
X219399Y306837D01*
X219774Y306274D01*
X219980Y306137D01*
Y287444D01*
X198056Y265520D01*
X166037D01*
Y266872D01*
X166037D01*
Y267128D01*
X166037D01*
Y268480D01*
X196500D01*
X196890Y268558D01*
X197221Y268779D01*
X216721Y288279D01*
X216942Y288610D01*
X217020Y289000D01*
Y306137D01*
X217226Y306274D01*
X217601Y306837D01*
X217733Y307500D01*
X217601Y308163D01*
X217226Y308726D01*
X216663Y309101D01*
X216000Y309233D01*
X215337Y309101D01*
X214774Y308726D01*
X214399Y308163D01*
X214267Y307500D01*
X214399Y306837D01*
X214774Y306274D01*
X214980Y306137D01*
Y289422D01*
X196078Y270520D01*
X166391D01*
X166037Y270873D01*
X166037Y272000D01*
X166037Y272372D01*
Y273480D01*
X196513D01*
X196903Y273558D01*
X197234Y273779D01*
X212221Y288766D01*
X212442Y289097D01*
X212520Y289487D01*
Y311578D01*
X222422Y321480D01*
X223892D01*
Y320000D01*
D02*
G37*
G36*
X274980Y275380D02*
Y273941D01*
X268536Y267497D01*
X268536Y267497D01*
X263204Y262164D01*
X262742Y262355D01*
Y264069D01*
X262946Y264109D01*
X263277Y264330D01*
X274518Y275572D01*
X274980Y275380D01*
D02*
G37*
G36*
X198267Y263193D02*
X198399Y262530D01*
X198445Y262461D01*
X198209Y262020D01*
X171963D01*
X171826Y262226D01*
X171263Y262601D01*
X170600Y262733D01*
X169937Y262601D01*
X169374Y262226D01*
X168999Y261663D01*
X168867Y261000D01*
X168956Y260549D01*
X168924Y260273D01*
X168615Y260011D01*
X168303Y259948D01*
X168030Y260221D01*
X167700Y260442D01*
X167309Y260520D01*
X166037D01*
Y261628D01*
X166037Y261872D01*
X166037D01*
Y262128D01*
X166037D01*
Y263480D01*
X198031D01*
X198267Y263193D01*
D02*
G37*
G36*
X223892Y270033D02*
X223892Y267000D01*
X223892Y266628D01*
Y262372D01*
X223892Y262000D01*
X223892Y261628D01*
Y260520D01*
X222863D01*
X222726Y260726D01*
X222163Y261101D01*
X221500Y261233D01*
X220837Y261101D01*
X220274Y260726D01*
X219899Y260163D01*
X219767Y259500D01*
X219899Y258837D01*
X220274Y258274D01*
X220837Y257899D01*
X221500Y257767D01*
X222163Y257899D01*
X222726Y258274D01*
X222863Y258480D01*
X223539D01*
X223892Y258127D01*
X223892Y257000D01*
X223892Y256628D01*
X223892Y251936D01*
X223539Y251583D01*
X219836D01*
Y255100D01*
X217816D01*
Y256624D01*
X217826Y256631D01*
X218201Y257193D01*
X218333Y257856D01*
X218201Y258520D01*
X217826Y259082D01*
X217263Y259458D01*
X216600Y259590D01*
X215937Y259458D01*
X215374Y259082D01*
X214999Y258520D01*
X214867Y257856D01*
X214961Y257381D01*
X214500Y257134D01*
X209961Y261674D01*
X209987Y261870D01*
X210136Y262174D01*
X214957D01*
X215347Y262251D01*
X215678Y262473D01*
X223430Y270224D01*
X223892Y270033D01*
D02*
G37*
G36*
X210404Y258347D02*
X210158Y257886D01*
X210000Y257918D01*
X183986D01*
X183890Y258061D01*
X183327Y258437D01*
X182664Y258569D01*
X182001Y258437D01*
X181439Y258061D01*
X181063Y257499D01*
X180931Y256836D01*
X181063Y256172D01*
X181439Y255610D01*
X181454Y255600D01*
X181302Y255100D01*
X180336D01*
X180093Y255100D01*
Y255100D01*
X179836D01*
Y255100D01*
X175336D01*
X175093Y255100D01*
Y255100D01*
X174836D01*
Y255100D01*
X173586D01*
Y256000D01*
X174293Y256707D01*
X174536Y257071D01*
X174622Y257500D01*
X174536Y257929D01*
X174293Y258293D01*
X173929Y258536D01*
X173500Y258622D01*
X173071Y258536D01*
X172707Y258293D01*
X171671Y257258D01*
X171428Y256894D01*
X171343Y256465D01*
X171343Y256465D01*
Y255100D01*
X170093D01*
Y250622D01*
X166037D01*
Y251628D01*
X166037Y251872D01*
X166037D01*
Y252128D01*
X166037D01*
Y256872D01*
X166037D01*
Y257128D01*
X166037D01*
Y258480D01*
X166887D01*
X167200Y258168D01*
X167299Y257671D01*
X167674Y257108D01*
X168237Y256733D01*
X168900Y256601D01*
X169563Y256733D01*
X170126Y257108D01*
X170501Y257671D01*
X170633Y258334D01*
X170544Y258785D01*
X170576Y259061D01*
X170885Y259323D01*
X171263Y259399D01*
X171826Y259774D01*
X171963Y259980D01*
X208771D01*
X210404Y258347D01*
D02*
G37*
G36*
X210102Y255600D02*
X210093Y255100D01*
X209836D01*
Y255100D01*
X205093D01*
X205093Y255100D01*
X204836D01*
Y255100D01*
X204593Y255100D01*
X200093D01*
X200093Y255100D01*
X199836D01*
Y255100D01*
X199593Y255100D01*
X195093D01*
Y255100D01*
X194836D01*
Y255100D01*
X190336D01*
X190093Y255100D01*
Y255100D01*
X189836D01*
Y255100D01*
X185336D01*
X185093Y255100D01*
Y255100D01*
X184836D01*
Y255100D01*
X184026D01*
X183875Y255600D01*
X183890Y255610D01*
X184205Y256082D01*
X209620D01*
X210102Y255600D01*
D02*
G37*
G36*
X295882Y263442D02*
Y261180D01*
X287104Y252402D01*
X285773D01*
Y254133D01*
X285795Y254155D01*
X285856Y254167D01*
X286154Y254366D01*
X295420Y263633D01*
X295882Y263442D01*
D02*
G37*
G36*
X152815Y257581D02*
Y254166D01*
X152892Y253776D01*
X153113Y253445D01*
X154980Y251578D01*
Y249996D01*
X154480Y249844D01*
X154226Y250226D01*
X153663Y250601D01*
X153000Y250733D01*
X152337Y250601D01*
X151880Y250296D01*
X151508Y250422D01*
X151380Y250517D01*
Y252970D01*
X150122D01*
Y254795D01*
X150052Y255146D01*
X149854Y255444D01*
X148161Y257137D01*
X148233Y257500D01*
X148101Y258163D01*
X147889Y258480D01*
X148157Y258980D01*
X151415D01*
X152815Y257581D01*
D02*
G37*
G36*
X300365Y253132D02*
Y250669D01*
X293107Y243411D01*
X290644D01*
X290453Y243873D01*
X299903Y253323D01*
X300365Y253132D01*
D02*
G37*
G36*
X215713Y243851D02*
X216011Y243652D01*
X216362Y243582D01*
X223892D01*
Y242128D01*
X223892D01*
Y241872D01*
X223892D01*
Y240418D01*
X216742D01*
X211596Y245564D01*
X211787Y246026D01*
X213539D01*
X215713Y243851D01*
D02*
G37*
G36*
X178333Y245564D02*
X173187Y240418D01*
X166037D01*
Y241872D01*
X166037Y241872D01*
Y242128D01*
X166037D01*
X166037Y242372D01*
Y243582D01*
X173567D01*
X173918Y243652D01*
X174216Y243851D01*
X176391Y246026D01*
X178142D01*
X178333Y245564D01*
D02*
G37*
G36*
X275480Y247578D02*
Y244756D01*
X275558Y244365D01*
X275779Y244035D01*
X278143Y241670D01*
X278474Y241449D01*
X278864Y241372D01*
X293529D01*
X293919Y241449D01*
X294250Y241670D01*
X299903Y247323D01*
X300365Y247132D01*
Y244669D01*
X295016Y239320D01*
X279122D01*
X268796Y249646D01*
X268465Y249867D01*
X268075Y249945D01*
X262742D01*
Y250465D01*
X272593D01*
X275480Y247578D01*
D02*
G37*
G36*
X277077Y238481D02*
X276885Y238020D01*
X262922D01*
X257212Y243729D01*
X257404Y244191D01*
X258984D01*
Y245972D01*
X259484D01*
Y246472D01*
X262742D01*
Y247906D01*
X267653D01*
X277077Y238481D01*
D02*
G37*
G36*
X215713Y238851D02*
X216011Y238652D01*
X216362Y238582D01*
X223892D01*
Y237128D01*
X223892D01*
Y236872D01*
X223892D01*
Y235418D01*
X216742D01*
X206596Y245564D01*
X206787Y246026D01*
X208539D01*
X215713Y238851D01*
D02*
G37*
G36*
X183333Y245564D02*
X173187Y235418D01*
X166037D01*
Y236872D01*
X166037D01*
Y237128D01*
X166037D01*
Y238582D01*
X173567D01*
X173918Y238652D01*
X174216Y238851D01*
X181391Y246026D01*
X183142D01*
X183333Y245564D01*
D02*
G37*
G36*
X215713Y233851D02*
X216011Y233652D01*
X216362Y233582D01*
X223892D01*
Y232128D01*
X223892D01*
Y231872D01*
X223892D01*
Y230418D01*
X216742D01*
X201596Y245564D01*
X201787Y246026D01*
X203538D01*
X215713Y233851D01*
D02*
G37*
G36*
X188333Y245564D02*
X173187Y230418D01*
X166037D01*
Y231872D01*
X166037D01*
Y232128D01*
X166037D01*
Y233582D01*
X173567D01*
X173918Y233652D01*
X174216Y233851D01*
X186391Y246026D01*
X188142D01*
X188333Y245564D01*
D02*
G37*
G36*
X202931Y220913D02*
X202681Y220863D01*
X202350Y220642D01*
X198780Y217072D01*
X195282D01*
Y217072D01*
X194907D01*
Y217072D01*
X190721D01*
X190514Y217572D01*
X194355Y221413D01*
X202882D01*
X202931Y220913D01*
D02*
G37*
G36*
X208250Y209660D02*
X210980D01*
Y203922D01*
X209816Y202758D01*
X209428Y203077D01*
X209601Y203337D01*
X209733Y204000D01*
X209601Y204663D01*
X209226Y205226D01*
X208663Y205601D01*
X208000Y205733D01*
X207757Y205685D01*
X206217Y207225D01*
X205886Y207446D01*
X205496Y207523D01*
X199395D01*
Y208876D01*
X196437D01*
X193877Y211435D01*
X194085Y211935D01*
X194907D01*
Y211935D01*
X195282D01*
Y211935D01*
X200025D01*
Y215434D01*
X203493Y218902D01*
X208250D01*
Y209660D01*
D02*
G37*
G36*
X195243Y206800D02*
Y204132D01*
X199395D01*
Y205484D01*
X205074D01*
X206315Y204243D01*
X206267Y204000D01*
X206399Y203337D01*
X206774Y202774D01*
X207337Y202399D01*
X208000Y202267D01*
X208663Y202399D01*
X208923Y202572D01*
X209242Y202184D01*
X205578Y198520D01*
X199931D01*
Y200068D01*
X195187D01*
X195187Y200068D01*
X194813D01*
Y200068D01*
X194687Y200068D01*
X190691D01*
Y202719D01*
X192095Y204122D01*
Y206504D01*
X193095D01*
Y204132D01*
X194671D01*
Y206581D01*
X195171Y206848D01*
X195243Y206800D01*
D02*
G37*
G36*
X185650Y181592D02*
X178702Y174644D01*
X178454Y174810D01*
X177791Y174942D01*
X177128Y174810D01*
X176565Y174434D01*
X176190Y173872D01*
X176058Y173208D01*
X176190Y172545D01*
X176565Y171983D01*
X177128Y171607D01*
X177498Y171533D01*
Y166014D01*
X175520D01*
Y166637D01*
X175726Y166774D01*
X176101Y167337D01*
X176233Y168000D01*
X176101Y168663D01*
X175726Y169226D01*
X175163Y169601D01*
X174500Y169733D01*
X173837Y169601D01*
X173274Y169226D01*
X172899Y168663D01*
X172767Y168000D01*
X172899Y167337D01*
X173274Y166774D01*
X173480Y166637D01*
Y166014D01*
X171422D01*
Y161376D01*
X166783D01*
Y159429D01*
X165803D01*
X164346Y160886D01*
Y165921D01*
X164346Y165921D01*
X164261Y166350D01*
X164017Y166714D01*
X164017Y166714D01*
X161807Y168925D01*
Y172550D01*
X162860D01*
Y173290D01*
X166847D01*
X167471Y173414D01*
X168000Y173768D01*
X179628Y185396D01*
X180378D01*
Y183000D01*
X180464Y182571D01*
X180707Y182207D01*
X181071Y181964D01*
X181500Y181878D01*
X181929Y181964D01*
X182293Y182207D01*
X182536Y182571D01*
X182622Y183000D01*
Y185396D01*
X185650D01*
Y181592D01*
D02*
G37*
G36*
X231480Y185078D02*
Y163096D01*
X227447D01*
Y157020D01*
X209356D01*
Y158962D01*
X206823D01*
Y159385D01*
X206745Y159775D01*
X206625Y159955D01*
X206733Y160500D01*
X206601Y161163D01*
X206314Y161593D01*
X206507Y162093D01*
X209356D01*
Y168017D01*
X202250D01*
Y163191D01*
X202231Y163093D01*
Y162925D01*
X198779Y159473D01*
X198558Y159142D01*
X198480Y158752D01*
Y154873D01*
X198234Y154770D01*
X197773Y155111D01*
Y159017D01*
X193227D01*
Y157960D01*
X191991D01*
X191601Y157883D01*
X191270Y157662D01*
X188907Y155299D01*
X188284D01*
Y157026D01*
Y161376D01*
X183646D01*
Y166014D01*
X183540D01*
Y168593D01*
X183812Y168774D01*
X184188Y169337D01*
X184320Y170000D01*
X184188Y170663D01*
X183812Y171226D01*
X183250Y171601D01*
X182802Y171690D01*
X182451Y172177D01*
X182468Y172265D01*
X182342Y172900D01*
X188790Y179348D01*
X189011Y179679D01*
X189089Y180069D01*
Y184232D01*
X189589Y184384D01*
X189707Y184207D01*
X190071Y183964D01*
X190500Y183878D01*
X190929Y183964D01*
X191016Y184022D01*
X191516Y183755D01*
Y181872D01*
X190561D01*
Y180000D01*
X192638D01*
X194714D01*
Y181872D01*
X193759D01*
Y186932D01*
X194813D01*
Y186932D01*
X195187D01*
Y186932D01*
X198489D01*
X203840Y181580D01*
X204171Y181359D01*
X204561Y181281D01*
X208250D01*
Y173518D01*
X215750D01*
Y183301D01*
X209349D01*
X209250Y183320D01*
X204984D01*
X199931Y188373D01*
Y191449D01*
X225109D01*
X231480Y185078D01*
D02*
G37*
G36*
X149100Y182435D02*
X149593Y182419D01*
Y179657D01*
X149717Y179033D01*
X150071Y178504D01*
X153589Y174986D01*
Y172550D01*
X156589D01*
X156781Y172088D01*
X155847Y171153D01*
X155493Y170624D01*
X155369Y170000D01*
X155493Y169376D01*
X155847Y168846D01*
X156376Y168493D01*
X157000Y168369D01*
X157624Y168493D01*
X158153Y168846D01*
X159101Y169794D01*
X159564Y169603D01*
Y168461D01*
X159564Y168461D01*
X159649Y168032D01*
X159892Y167668D01*
X160237Y167323D01*
X159973Y166879D01*
X155160D01*
Y166738D01*
X150261D01*
Y171020D01*
X150137Y171644D01*
X149784Y172174D01*
X147856Y174101D01*
Y182435D01*
X149100D01*
Y182435D01*
D02*
G37*
G36*
X162103Y165457D02*
Y160421D01*
X162103Y160421D01*
X162188Y159992D01*
X162431Y159628D01*
X164219Y157841D01*
X164012Y157341D01*
X154076D01*
X153686Y157263D01*
X153355Y157042D01*
X151910Y155597D01*
X151522Y155916D01*
X151731Y156229D01*
X151863Y156893D01*
X151731Y157556D01*
X151356Y158118D01*
X150793Y158494D01*
X150130Y158626D01*
X149467Y158494D01*
X148904Y158118D01*
X148767Y157912D01*
X147818D01*
X147674Y158412D01*
X147948Y158596D01*
X148753Y159401D01*
X149254Y159501D01*
X149679Y159784D01*
X149980D01*
X150070Y159650D01*
X150632Y159274D01*
X151296Y159142D01*
X151959Y159274D01*
X152521Y159650D01*
X152897Y160212D01*
X153029Y160875D01*
X152897Y161538D01*
X152521Y162101D01*
X151959Y162477D01*
X151296Y162608D01*
X150761Y162502D01*
X150379Y162718D01*
X150261Y162830D01*
Y163475D01*
X155160D01*
Y162136D01*
X160100D01*
Y166753D01*
X160543Y167016D01*
X162103Y165457D01*
D02*
G37*
G36*
X162176Y154892D02*
X162159Y154801D01*
X162029Y154148D01*
X162161Y153485D01*
X162537Y152923D01*
X162872Y152699D01*
X162901Y152549D01*
X162845Y152127D01*
X162404Y151832D01*
X162029Y151270D01*
X161897Y150606D01*
X162029Y149943D01*
X162404Y149381D01*
X162967Y149005D01*
X163630Y148873D01*
X164293Y149005D01*
X164464Y149119D01*
X169457D01*
X169622Y149152D01*
X171422D01*
Y144513D01*
X171593D01*
Y143827D01*
X168052D01*
X165815Y146063D01*
X165485Y146284D01*
X165094Y146362D01*
X162387D01*
Y147714D01*
X159873D01*
X158650Y148938D01*
Y149735D01*
X160100D01*
Y154478D01*
X155160D01*
Y149735D01*
X156610D01*
Y148516D01*
X156687Y148129D01*
X156667Y148099D01*
X156361Y147714D01*
X153968D01*
X152149Y149532D01*
Y153333D01*
X152488Y153401D01*
X152818Y153622D01*
X154498Y155301D01*
X161893D01*
X162176Y154892D01*
D02*
G37*
G36*
X166909Y142086D02*
X167240Y141865D01*
X167630Y141788D01*
X174112D01*
X174503Y141865D01*
X174833Y142086D01*
X175030Y142283D01*
X175530Y142076D01*
Y139376D01*
X175030Y139270D01*
X174726Y139726D01*
X174163Y140101D01*
X173500Y140233D01*
X172837Y140101D01*
X172274Y139726D01*
X172145Y139532D01*
X172049D01*
X171581Y139439D01*
X171184Y139174D01*
X168689Y136679D01*
X165676D01*
Y135452D01*
X165406Y135317D01*
X165176Y135259D01*
X164663Y135601D01*
X164000Y135733D01*
X163453Y135625D01*
X163094Y135845D01*
X162978Y135963D01*
Y142002D01*
X161429D01*
Y142971D01*
X162387D01*
Y144323D01*
X164672D01*
X166909Y142086D01*
D02*
G37*
G36*
X175530Y137624D02*
Y135958D01*
X173676D01*
Y132952D01*
X170919Y130195D01*
X170419Y130403D01*
Y130773D01*
X166163D01*
X165956Y131273D01*
X167406Y132723D01*
X170419D01*
Y134948D01*
X172556Y137085D01*
X172557D01*
X172837Y136899D01*
X173500Y136767D01*
X174163Y136899D01*
X174726Y137274D01*
X175030Y137730D01*
X175530Y137624D01*
D02*
G37*
%LPC*%
G36*
X276698Y421614D02*
X275500D01*
Y418152D01*
X275888D01*
X276198Y418214D01*
X276461Y418390D01*
X276637Y418652D01*
X276698Y418963D01*
Y421614D01*
D02*
G37*
G36*
X216698D02*
X215500D01*
Y418152D01*
X215888D01*
X216198Y418214D01*
X216461Y418390D01*
X216636Y418652D01*
X216698Y418963D01*
Y421614D01*
D02*
G37*
G36*
X161698Y421307D02*
X160500D01*
Y417845D01*
X160888D01*
X161198Y417907D01*
X161461Y418082D01*
X161637Y418345D01*
X161698Y418655D01*
Y421307D01*
D02*
G37*
G36*
X337500Y415000D02*
X326403D01*
X326507Y413680D01*
X326934Y411904D01*
X327632Y410217D01*
X328586Y408661D01*
X329772Y407272D01*
X331161Y406086D01*
X332717Y405132D01*
X334404Y404434D01*
X336180Y404007D01*
X337500Y403903D01*
Y415000D01*
D02*
G37*
G36*
X148097D02*
X137000D01*
Y403903D01*
X138320Y404007D01*
X140096Y404434D01*
X141783Y405132D01*
X143339Y406086D01*
X144728Y407272D01*
X145914Y408661D01*
X146868Y410217D01*
X147566Y411904D01*
X147993Y413680D01*
X148097Y415000D01*
D02*
G37*
G36*
X142500Y393518D02*
Y390500D01*
X145518D01*
X145461Y390927D01*
X145103Y391792D01*
X144534Y392534D01*
X143792Y393103D01*
X142927Y393461D01*
X142500Y393518D01*
D02*
G37*
G36*
X141500D02*
X141073Y393461D01*
X140208Y393103D01*
X139466Y392534D01*
X138897Y391792D01*
X138539Y390927D01*
X138482Y390500D01*
X141500D01*
Y393518D01*
D02*
G37*
G36*
X332000Y392518D02*
Y389500D01*
X335018D01*
X334961Y389927D01*
X334603Y390792D01*
X334034Y391534D01*
X333292Y392103D01*
X332427Y392461D01*
X332000Y392518D01*
D02*
G37*
G36*
X331000D02*
X330573Y392461D01*
X329708Y392103D01*
X328966Y391534D01*
X328397Y390792D01*
X328039Y389927D01*
X327982Y389500D01*
X331000D01*
Y392518D01*
D02*
G37*
G36*
X215888Y389462D02*
X214112D01*
X213802Y389400D01*
X213539Y389225D01*
X213364Y388962D01*
X213302Y388652D01*
Y386520D01*
X209729D01*
X209601Y387163D01*
X209226Y387726D01*
X208663Y388101D01*
X208000Y388233D01*
X207337Y388101D01*
X206774Y387726D01*
X206399Y387163D01*
X206267Y386500D01*
X206399Y385837D01*
X206774Y385274D01*
X207337Y384899D01*
X208000Y384767D01*
X208243Y384815D01*
X208279Y384779D01*
X208610Y384558D01*
X209000Y384480D01*
X213302D01*
Y383768D01*
X210248D01*
X209858Y383690D01*
X209527Y383469D01*
X207779Y381721D01*
X207558Y381390D01*
X207480Y381000D01*
Y366694D01*
X205727D01*
Y362542D01*
X210273D01*
Y366694D01*
X209520D01*
Y380578D01*
X210671Y381729D01*
X213609D01*
X213802Y381600D01*
X214112Y381538D01*
X215888D01*
X216198Y381600D01*
X216461Y381775D01*
X216636Y382038D01*
X216698Y382348D01*
Y388652D01*
X216636Y388962D01*
X216461Y389225D01*
X216198Y389400D01*
X215888Y389462D01*
D02*
G37*
G36*
X335018Y388500D02*
X332000D01*
Y385482D01*
X332427Y385539D01*
X333292Y385897D01*
X334034Y386466D01*
X334603Y387208D01*
X334961Y388073D01*
X335018Y388500D01*
D02*
G37*
G36*
X331000D02*
X327982D01*
X328039Y388073D01*
X328397Y387208D01*
X328966Y386466D01*
X329708Y385897D01*
X330573Y385539D01*
X331000Y385482D01*
Y388500D01*
D02*
G37*
G36*
X345053Y392553D02*
X337947D01*
Y385447D01*
X345053D01*
Y392553D01*
D02*
G37*
G36*
X268000Y389733D02*
X267337Y389601D01*
X266774Y389226D01*
X266399Y388663D01*
X266267Y388000D01*
X266399Y387337D01*
X266774Y386774D01*
X267337Y386399D01*
X268000Y386267D01*
X268147Y386296D01*
X268393Y385835D01*
X266279Y383721D01*
X266058Y383390D01*
X265980Y383000D01*
Y367135D01*
X264727D01*
Y362983D01*
X269273D01*
Y367135D01*
X268020D01*
Y382578D01*
X269922Y384480D01*
X273302D01*
Y382348D01*
X273363Y382038D01*
X273539Y381775D01*
X273802Y381600D01*
X274112Y381538D01*
X275888D01*
X276198Y381600D01*
X276461Y381775D01*
X276637Y382038D01*
X276698Y382348D01*
Y388652D01*
X276637Y388962D01*
X276461Y389225D01*
X276198Y389400D01*
X275888Y389462D01*
X274112D01*
X273802Y389400D01*
X273539Y389225D01*
X273402Y389020D01*
X269363D01*
X269226Y389226D01*
X268663Y389601D01*
X268000Y389733D01*
D02*
G37*
G36*
X332000Y381018D02*
Y378000D01*
X335018D01*
X334961Y378427D01*
X334603Y379292D01*
X334034Y380034D01*
X333292Y380603D01*
X332427Y380961D01*
X332000Y381018D01*
D02*
G37*
G36*
X331000D02*
X330573Y380961D01*
X329708Y380603D01*
X328966Y380034D01*
X328397Y379292D01*
X328039Y378427D01*
X327982Y378000D01*
X331000D01*
Y381018D01*
D02*
G37*
G36*
X335018Y377000D02*
X332000D01*
Y373982D01*
X332427Y374039D01*
X333292Y374397D01*
X334034Y374966D01*
X334603Y375708D01*
X334961Y376573D01*
X335018Y377000D01*
D02*
G37*
G36*
X331000D02*
X327982D01*
X328039Y376573D01*
X328397Y375708D01*
X328966Y374966D01*
X329708Y374397D01*
X330573Y374039D01*
X331000Y373982D01*
Y377000D01*
D02*
G37*
G36*
X345053Y381053D02*
X337947D01*
Y373947D01*
X345053D01*
Y381053D01*
D02*
G37*
G36*
X255888Y389462D02*
X254112D01*
X253802Y389400D01*
X253539Y389225D01*
X253363Y388962D01*
X253302Y388652D01*
Y382348D01*
X253363Y382038D01*
X253539Y381775D01*
X253802Y381600D01*
X253980Y381564D01*
Y380453D01*
X254058Y380063D01*
X254279Y379732D01*
X257325Y376686D01*
Y373778D01*
X261675D01*
Y378128D01*
X258767D01*
X256020Y380875D01*
Y381564D01*
X256198Y381600D01*
X256461Y381775D01*
X256637Y382038D01*
X256698Y382348D01*
Y388652D01*
X256637Y388962D01*
X256461Y389225D01*
X256198Y389400D01*
X255888Y389462D01*
D02*
G37*
G36*
X250888D02*
X249112D01*
X248802Y389400D01*
X248539Y389225D01*
X248363Y388962D01*
X248302Y388652D01*
Y382348D01*
X248363Y382038D01*
X248539Y381775D01*
X248802Y381600D01*
X248980Y381564D01*
Y378953D01*
X249058Y378563D01*
X249279Y378232D01*
X250825Y376686D01*
Y373778D01*
X255175D01*
Y378128D01*
X252267D01*
X251020Y379375D01*
Y381564D01*
X251198Y381600D01*
X251461Y381775D01*
X251637Y382038D01*
X251698Y382348D01*
Y388652D01*
X251637Y388962D01*
X251461Y389225D01*
X251198Y389400D01*
X250888Y389462D01*
D02*
G37*
G36*
X245888D02*
X244112D01*
X243802Y389400D01*
X243539Y389225D01*
X243363Y388962D01*
X243302Y388652D01*
Y382348D01*
X243363Y382038D01*
X243539Y381775D01*
X243802Y381600D01*
X243980Y381564D01*
Y380591D01*
X244058Y380200D01*
X244279Y379870D01*
X245480Y378668D01*
Y378128D01*
X244325D01*
Y373778D01*
X248675D01*
Y378128D01*
X247520D01*
Y379090D01*
X247442Y379481D01*
X247221Y379812D01*
X246020Y381013D01*
Y381564D01*
X246198Y381600D01*
X246461Y381775D01*
X246637Y382038D01*
X246698Y382348D01*
Y388652D01*
X246637Y388962D01*
X246461Y389225D01*
X246198Y389400D01*
X245888Y389462D01*
D02*
G37*
G36*
X240888D02*
X239112D01*
X238802Y389400D01*
X238539Y389225D01*
X238364Y388962D01*
X238302Y388652D01*
Y382348D01*
X238364Y382038D01*
X238539Y381775D01*
X238802Y381600D01*
X238980Y381564D01*
Y378128D01*
X237825D01*
Y373778D01*
X242175D01*
Y378128D01*
X241020D01*
Y381564D01*
X241198Y381600D01*
X241461Y381775D01*
X241636Y382038D01*
X241698Y382348D01*
Y388652D01*
X241636Y388962D01*
X241461Y389225D01*
X241198Y389400D01*
X240888Y389462D01*
D02*
G37*
G36*
X235888D02*
X234112D01*
X233802Y389400D01*
X233539Y389225D01*
X233364Y388962D01*
X233302Y388652D01*
Y382980D01*
X232779Y382457D01*
X232558Y382126D01*
X232480Y381736D01*
Y378128D01*
X231325D01*
Y373778D01*
X235675D01*
Y378128D01*
X234520D01*
Y381314D01*
X234744Y381538D01*
X235888D01*
X236198Y381600D01*
X236461Y381775D01*
X236636Y382038D01*
X236698Y382348D01*
Y388652D01*
X236636Y388962D01*
X236461Y389225D01*
X236198Y389400D01*
X235888Y389462D01*
D02*
G37*
G36*
X230888D02*
X229112D01*
X228802Y389400D01*
X228539Y389225D01*
X228363Y388962D01*
X228302Y388652D01*
Y382348D01*
X228363Y382038D01*
X228539Y381775D01*
X228802Y381600D01*
X228980Y381564D01*
Y379375D01*
X227733Y378128D01*
X224825D01*
Y373778D01*
X229175D01*
Y376686D01*
X230721Y378232D01*
X230942Y378563D01*
X231020Y378953D01*
Y381564D01*
X231198Y381600D01*
X231461Y381775D01*
X231637Y382038D01*
X231698Y382348D01*
Y388652D01*
X231637Y388962D01*
X231461Y389225D01*
X231198Y389400D01*
X230888Y389462D01*
D02*
G37*
G36*
X225888D02*
X224112D01*
X223802Y389400D01*
X223539Y389225D01*
X223363Y388962D01*
X223302Y388652D01*
Y382348D01*
X223363Y382038D01*
X223539Y381775D01*
X223802Y381600D01*
X223980Y381564D01*
Y380875D01*
X221233Y378128D01*
X218325D01*
Y373778D01*
X222675D01*
Y376686D01*
X225721Y379732D01*
X225942Y380063D01*
X226020Y380453D01*
Y381564D01*
X226198Y381600D01*
X226461Y381775D01*
X226637Y382038D01*
X226698Y382348D01*
Y388652D01*
X226637Y388962D01*
X226461Y389225D01*
X226198Y389400D01*
X225888Y389462D01*
D02*
G37*
G36*
X220888D02*
X219112D01*
X218802Y389400D01*
X218539Y389225D01*
X218363Y388962D01*
X218302Y388652D01*
Y384838D01*
X218298Y384817D01*
Y381692D01*
X214733Y378128D01*
X211825D01*
Y373778D01*
X216175D01*
Y376686D01*
X220038Y380549D01*
X220259Y380880D01*
X220337Y381270D01*
Y381538D01*
X220888D01*
X221198Y381600D01*
X221461Y381775D01*
X221637Y382038D01*
X221698Y382348D01*
Y388652D01*
X221637Y388962D01*
X221461Y389225D01*
X221198Y389400D01*
X220888Y389462D01*
D02*
G37*
G36*
X315888D02*
X314112D01*
X313802Y389400D01*
X313539Y389225D01*
X313364Y388962D01*
X313302Y388652D01*
Y382348D01*
X313364Y382038D01*
X313539Y381775D01*
X313802Y381600D01*
X314112Y381538D01*
X315256D01*
X318480Y378314D01*
Y377628D01*
X317325D01*
Y373278D01*
X321675D01*
Y377628D01*
X320520D01*
Y378736D01*
X320442Y379126D01*
X320221Y379457D01*
X316698Y382980D01*
Y388652D01*
X316636Y388962D01*
X316461Y389225D01*
X316198Y389400D01*
X315888Y389462D01*
D02*
G37*
G36*
X310888D02*
X309112D01*
X308802Y389400D01*
X308539Y389225D01*
X308364Y388962D01*
X308302Y388652D01*
Y382348D01*
X308364Y382038D01*
X308539Y381775D01*
X308802Y381600D01*
X308980Y381564D01*
Y378453D01*
X309058Y378063D01*
X309279Y377732D01*
X310825Y376186D01*
Y373278D01*
X315175D01*
Y377628D01*
X312267D01*
X311020Y378875D01*
Y381564D01*
X311198Y381600D01*
X311461Y381775D01*
X311636Y382038D01*
X311698Y382348D01*
Y388652D01*
X311636Y388962D01*
X311461Y389225D01*
X311198Y389400D01*
X310888Y389462D01*
D02*
G37*
G36*
X305888D02*
X304112D01*
X303802Y389400D01*
X303539Y389225D01*
X303363Y388962D01*
X303302Y388652D01*
Y382348D01*
X303363Y382038D01*
X303539Y381775D01*
X303802Y381600D01*
X303980Y381564D01*
Y380341D01*
X304058Y379950D01*
X304279Y379620D01*
X305480Y378418D01*
Y377628D01*
X304325D01*
Y373278D01*
X308675D01*
Y377628D01*
X307520D01*
Y378840D01*
X307442Y379231D01*
X307221Y379561D01*
X306020Y380763D01*
Y381564D01*
X306198Y381600D01*
X306461Y381775D01*
X306637Y382038D01*
X306698Y382348D01*
Y388652D01*
X306637Y388962D01*
X306461Y389225D01*
X306198Y389400D01*
X305888Y389462D01*
D02*
G37*
G36*
X300888D02*
X299112D01*
X298802Y389400D01*
X298539Y389225D01*
X298363Y388962D01*
X298302Y388652D01*
Y382348D01*
X298363Y382038D01*
X298539Y381775D01*
X298802Y381600D01*
X298980Y381564D01*
Y377628D01*
X297825D01*
Y373278D01*
X302175D01*
Y377628D01*
X301020D01*
Y381564D01*
X301198Y381600D01*
X301461Y381775D01*
X301637Y382038D01*
X301698Y382348D01*
Y388652D01*
X301637Y388962D01*
X301461Y389225D01*
X301198Y389400D01*
X300888Y389462D01*
D02*
G37*
G36*
X295888D02*
X294112D01*
X293802Y389400D01*
X293539Y389225D01*
X293363Y388962D01*
X293302Y388652D01*
Y382980D01*
X292779Y382457D01*
X292558Y382126D01*
X292480Y381736D01*
Y377628D01*
X291325D01*
Y373278D01*
X295675D01*
Y377628D01*
X294520D01*
Y381314D01*
X294744Y381538D01*
X295888D01*
X296198Y381600D01*
X296461Y381775D01*
X296637Y382038D01*
X296698Y382348D01*
Y388652D01*
X296637Y388962D01*
X296461Y389225D01*
X296198Y389400D01*
X295888Y389462D01*
D02*
G37*
G36*
X290888D02*
X289112D01*
X288802Y389400D01*
X288539Y389225D01*
X288364Y388962D01*
X288302Y388652D01*
Y382348D01*
X288364Y382038D01*
X288539Y381775D01*
X288802Y381600D01*
X288980Y381564D01*
Y378875D01*
X287733Y377628D01*
X284825D01*
Y373278D01*
X289175D01*
Y376186D01*
X290721Y377732D01*
X290942Y378063D01*
X291020Y378453D01*
Y381564D01*
X291198Y381600D01*
X291461Y381775D01*
X291636Y382038D01*
X291698Y382348D01*
Y388652D01*
X291636Y388962D01*
X291461Y389225D01*
X291198Y389400D01*
X290888Y389462D01*
D02*
G37*
G36*
X285888D02*
X284112D01*
X283802Y389400D01*
X283539Y389225D01*
X283364Y388962D01*
X283302Y388652D01*
Y382348D01*
X283364Y382038D01*
X283539Y381775D01*
X283802Y381600D01*
X283980Y381564D01*
Y380375D01*
X281233Y377628D01*
X278325D01*
Y373278D01*
X282675D01*
Y376186D01*
X285721Y379232D01*
X285942Y379563D01*
X286020Y379953D01*
Y381564D01*
X286198Y381600D01*
X286461Y381775D01*
X286636Y382038D01*
X286698Y382348D01*
Y388652D01*
X286636Y388962D01*
X286461Y389225D01*
X286198Y389400D01*
X285888Y389462D01*
D02*
G37*
G36*
X280888D02*
X279112D01*
X278802Y389400D01*
X278539Y389225D01*
X278363Y388962D01*
X278302Y388652D01*
Y382348D01*
X278363Y382038D01*
X278481Y381862D01*
Y381376D01*
X274733Y377628D01*
X271825D01*
Y373278D01*
X276175D01*
Y376186D01*
X280222Y380233D01*
X280443Y380563D01*
X280520Y380954D01*
Y381538D01*
X280888D01*
X281198Y381600D01*
X281461Y381775D01*
X281637Y382038D01*
X281698Y382348D01*
Y388652D01*
X281637Y388962D01*
X281461Y389225D01*
X281198Y389400D01*
X280888Y389462D01*
D02*
G37*
G36*
X200888Y389155D02*
X199112D01*
X198802Y389093D01*
X198539Y388918D01*
X198363Y388655D01*
X198302Y388345D01*
Y382041D01*
X198363Y381731D01*
X198539Y381468D01*
X198802Y381293D01*
X198980Y381257D01*
Y380187D01*
X199058Y379797D01*
X199279Y379466D01*
X200480Y378265D01*
Y377628D01*
X199325D01*
Y373278D01*
X203675D01*
Y377628D01*
X202520D01*
Y378687D01*
X202442Y379077D01*
X202221Y379408D01*
X201020Y380609D01*
Y381257D01*
X201198Y381293D01*
X201461Y381468D01*
X201637Y381731D01*
X201698Y382041D01*
Y388345D01*
X201637Y388655D01*
X201461Y388918D01*
X201198Y389093D01*
X200888Y389155D01*
D02*
G37*
G36*
X195888D02*
X194112D01*
X193802Y389093D01*
X193539Y388918D01*
X193363Y388655D01*
X193302Y388345D01*
Y382041D01*
X193363Y381731D01*
X193539Y381468D01*
X193802Y381293D01*
X193980Y381257D01*
Y377628D01*
X192825D01*
Y373278D01*
X197175D01*
Y377628D01*
X196020D01*
Y381257D01*
X196198Y381293D01*
X196461Y381468D01*
X196637Y381731D01*
X196698Y382041D01*
Y388345D01*
X196637Y388655D01*
X196461Y388918D01*
X196198Y389093D01*
X195888Y389155D01*
D02*
G37*
G36*
X190888D02*
X189112D01*
X188802Y389093D01*
X188539Y388918D01*
X188363Y388655D01*
X188302Y388345D01*
Y382673D01*
X187779Y382150D01*
X187558Y381819D01*
X187480Y381429D01*
Y377628D01*
X186325D01*
Y373278D01*
X190675D01*
Y377628D01*
X189520D01*
Y381007D01*
X189744Y381231D01*
X190888D01*
X191198Y381293D01*
X191461Y381468D01*
X191637Y381731D01*
X191698Y382041D01*
Y388345D01*
X191637Y388655D01*
X191461Y388918D01*
X191198Y389093D01*
X190888Y389155D01*
D02*
G37*
G36*
X185888D02*
X184112D01*
X183802Y389093D01*
X183539Y388918D01*
X183363Y388655D01*
X183302Y388345D01*
Y382041D01*
X183363Y381731D01*
X183539Y381468D01*
X183802Y381293D01*
X183980Y381257D01*
Y378875D01*
X182733Y377628D01*
X179825D01*
Y373278D01*
X184175D01*
Y376186D01*
X185721Y377732D01*
X185942Y378063D01*
X186020Y378453D01*
Y381257D01*
X186198Y381293D01*
X186461Y381468D01*
X186637Y381731D01*
X186698Y382041D01*
Y388345D01*
X186637Y388655D01*
X186461Y388918D01*
X186198Y389093D01*
X185888Y389155D01*
D02*
G37*
G36*
X180888D02*
X179112D01*
X178802Y389093D01*
X178539Y388918D01*
X178363Y388655D01*
X178302Y388345D01*
Y382041D01*
X178363Y381731D01*
X178539Y381468D01*
X178802Y381293D01*
X178980Y381257D01*
Y380375D01*
X176233Y377628D01*
X173325D01*
Y373278D01*
X177675D01*
Y376186D01*
X180721Y379232D01*
X180942Y379563D01*
X181020Y379953D01*
Y381257D01*
X181198Y381293D01*
X181461Y381468D01*
X181637Y381731D01*
X181698Y382041D01*
Y388345D01*
X181637Y388655D01*
X181461Y388918D01*
X181198Y389093D01*
X180888Y389155D01*
D02*
G37*
G36*
X175888D02*
X174112D01*
X173802Y389093D01*
X173539Y388918D01*
X173363Y388655D01*
X173302Y388345D01*
Y384530D01*
X173298Y384510D01*
Y381192D01*
X169733Y377628D01*
X166825D01*
Y373278D01*
X171175D01*
Y376186D01*
X175038Y380049D01*
X175259Y380380D01*
X175337Y380770D01*
Y381231D01*
X175888D01*
X176198Y381293D01*
X176461Y381468D01*
X176637Y381731D01*
X176698Y382041D01*
Y388345D01*
X176637Y388655D01*
X176461Y388918D01*
X176198Y389093D01*
X175888Y389155D01*
D02*
G37*
G36*
X135553Y393553D02*
X128447D01*
Y386447D01*
X134111D01*
X136086Y384472D01*
X136417Y384251D01*
X136807Y384173D01*
X154078D01*
X154270Y383711D01*
X148779Y378221D01*
X148558Y377890D01*
X148480Y377500D01*
Y366635D01*
X147227D01*
Y362483D01*
X151773D01*
Y366635D01*
X150520D01*
Y377078D01*
X157615Y384173D01*
X158302D01*
Y382041D01*
X158363Y381731D01*
X158539Y381468D01*
X158802Y381293D01*
X159112Y381231D01*
X159683D01*
X159874Y380769D01*
X156733Y377628D01*
X153825D01*
Y373278D01*
X158175D01*
Y376186D01*
X163216Y381227D01*
X164317D01*
X164338Y381231D01*
X165888D01*
X166198Y381293D01*
X166495Y380890D01*
X163233Y377628D01*
X160325D01*
Y373278D01*
X164675D01*
Y376186D01*
X169720Y381231D01*
X170888D01*
X171198Y381293D01*
X171461Y381468D01*
X171637Y381731D01*
X171698Y382041D01*
Y388345D01*
X171637Y388655D01*
X171461Y388918D01*
X171198Y389093D01*
X170888Y389155D01*
X169112D01*
X168802Y389093D01*
X168539Y388918D01*
X168363Y388655D01*
X168302Y388345D01*
Y382696D01*
X167039Y381434D01*
X166637Y381731D01*
X166698Y382041D01*
Y388345D01*
X166637Y388655D01*
X166461Y388918D01*
X166198Y389093D01*
X165888Y389155D01*
X164112D01*
X163802Y389093D01*
X163539Y388918D01*
X163363Y388655D01*
X163302Y388345D01*
Y383266D01*
X162794D01*
X162404Y383188D01*
X162198Y383051D01*
X161698Y383238D01*
Y388345D01*
X161637Y388655D01*
X161461Y388918D01*
X161198Y389093D01*
X160888Y389155D01*
X159112D01*
X158802Y389093D01*
X158539Y388918D01*
X158363Y388655D01*
X158302Y388345D01*
Y386212D01*
X143447D01*
X143347Y386713D01*
X143792Y386897D01*
X144534Y387466D01*
X145103Y388208D01*
X145461Y389073D01*
X145518Y389500D01*
X138482D01*
X138539Y389073D01*
X138897Y388208D01*
X139466Y387466D01*
X140208Y386897D01*
X140653Y386713D01*
X140553Y386212D01*
X137229D01*
X135553Y387889D01*
Y393553D01*
D02*
G37*
G36*
X321675Y371722D02*
X317325D01*
Y367372D01*
X318480D01*
Y366832D01*
X317030D01*
Y362483D01*
X321970D01*
Y366832D01*
X320520D01*
Y367372D01*
X321675D01*
Y371722D01*
D02*
G37*
G36*
X315175D02*
X310825D01*
Y367372D01*
X311980D01*
Y366832D01*
X310530D01*
Y362483D01*
X315470D01*
Y366832D01*
X314020D01*
Y367372D01*
X315175D01*
Y371722D01*
D02*
G37*
G36*
X308675D02*
X304325D01*
Y367372D01*
X305480D01*
Y366832D01*
X304030D01*
Y362483D01*
X308970D01*
Y366832D01*
X307520D01*
Y367372D01*
X308675D01*
Y371722D01*
D02*
G37*
G36*
X302175D02*
X297825D01*
Y367372D01*
X298980D01*
Y366832D01*
X297530D01*
Y362483D01*
X302470D01*
Y366832D01*
X301020D01*
Y367372D01*
X302175D01*
Y371722D01*
D02*
G37*
G36*
X295675D02*
X291325D01*
Y367372D01*
X292480D01*
Y366832D01*
X291030D01*
Y362483D01*
X295970D01*
Y366832D01*
X294520D01*
Y367372D01*
X295675D01*
Y371722D01*
D02*
G37*
G36*
X289175D02*
X284825D01*
Y367372D01*
X285980D01*
Y366832D01*
X284530D01*
Y362483D01*
X289470D01*
Y366832D01*
X288020D01*
Y367372D01*
X289175D01*
Y371722D01*
D02*
G37*
G36*
X282675D02*
X278325D01*
Y367372D01*
X279480D01*
Y366832D01*
X278030D01*
Y362483D01*
X282970D01*
Y366832D01*
X281520D01*
Y367372D01*
X282675D01*
Y371722D01*
D02*
G37*
G36*
X276175D02*
X271825D01*
Y367372D01*
X272980D01*
Y366832D01*
X271530D01*
Y362483D01*
X276470D01*
Y366832D01*
X275020D01*
Y367372D01*
X276175D01*
Y371722D01*
D02*
G37*
G36*
X261675Y372222D02*
X257325D01*
Y367872D01*
X258480D01*
Y366832D01*
X257030D01*
Y362483D01*
X261970D01*
Y366832D01*
X260520D01*
Y367872D01*
X261675D01*
Y372222D01*
D02*
G37*
G36*
X255175D02*
X250825D01*
Y367872D01*
X251980D01*
Y366832D01*
X250530D01*
Y362483D01*
X255470D01*
Y366832D01*
X254020D01*
Y367872D01*
X255175D01*
Y372222D01*
D02*
G37*
G36*
X248675D02*
X244325D01*
Y367872D01*
X245480D01*
Y366832D01*
X244030D01*
Y362483D01*
X248970D01*
Y366832D01*
X247520D01*
Y367872D01*
X248675D01*
Y372222D01*
D02*
G37*
G36*
X242175D02*
X237825D01*
Y367872D01*
X238980D01*
Y366832D01*
X237530D01*
Y362483D01*
X242470D01*
Y366832D01*
X241020D01*
Y367872D01*
X242175D01*
Y372222D01*
D02*
G37*
G36*
X235675D02*
X231325D01*
Y367872D01*
X232480D01*
Y366832D01*
X231030D01*
Y362483D01*
X235970D01*
Y366832D01*
X234520D01*
Y367872D01*
X235675D01*
Y372222D01*
D02*
G37*
G36*
X229175D02*
X224825D01*
Y367872D01*
X225980D01*
Y366832D01*
X224530D01*
Y362483D01*
X229470D01*
Y366832D01*
X228020D01*
Y367872D01*
X229175D01*
Y372222D01*
D02*
G37*
G36*
X222675D02*
X218325D01*
Y367872D01*
X219480D01*
Y366832D01*
X218030D01*
Y362483D01*
X222970D01*
Y366832D01*
X221520D01*
Y367872D01*
X222675D01*
Y372222D01*
D02*
G37*
G36*
X216175D02*
X211825D01*
Y367872D01*
X212980D01*
Y366832D01*
X211530D01*
Y362483D01*
X216470D01*
Y366832D01*
X215020D01*
Y367872D01*
X216175D01*
Y372222D01*
D02*
G37*
G36*
X203675Y371722D02*
X199325D01*
Y367372D01*
X200480D01*
Y366832D01*
X199030D01*
Y362483D01*
X203970D01*
Y366832D01*
X202520D01*
Y367372D01*
X203675D01*
Y371722D01*
D02*
G37*
G36*
X197175D02*
X192825D01*
Y367372D01*
X193980D01*
Y366832D01*
X192530D01*
Y362483D01*
X197470D01*
Y366832D01*
X196020D01*
Y367372D01*
X197175D01*
Y371722D01*
D02*
G37*
G36*
X190675D02*
X186325D01*
Y367372D01*
X187480D01*
Y366832D01*
X186030D01*
Y362483D01*
X190970D01*
Y366832D01*
X189520D01*
Y367372D01*
X190675D01*
Y371722D01*
D02*
G37*
G36*
X184175D02*
X179825D01*
Y367372D01*
X180980D01*
Y366832D01*
X179530D01*
Y362483D01*
X184470D01*
Y366832D01*
X183020D01*
Y367372D01*
X184175D01*
Y371722D01*
D02*
G37*
G36*
X177675D02*
X173325D01*
Y367372D01*
X174480D01*
Y366832D01*
X173030D01*
Y362483D01*
X177970D01*
Y366832D01*
X176520D01*
Y367372D01*
X177675D01*
Y371722D01*
D02*
G37*
G36*
X171175D02*
X166825D01*
Y367372D01*
X167980D01*
Y366832D01*
X166530D01*
Y362483D01*
X171470D01*
Y366832D01*
X170020D01*
Y367372D01*
X171175D01*
Y371722D01*
D02*
G37*
G36*
X164675D02*
X160325D01*
Y367372D01*
X161480D01*
Y366832D01*
X160030D01*
Y362483D01*
X164970D01*
Y366832D01*
X163520D01*
Y367372D01*
X164675D01*
Y371722D01*
D02*
G37*
G36*
X158175D02*
X153825D01*
Y367372D01*
X154980D01*
Y366675D01*
X153530D01*
Y362325D01*
X158470D01*
Y366675D01*
X157020D01*
Y367372D01*
X158175D01*
Y371722D01*
D02*
G37*
G36*
X343579Y334553D02*
X343151Y334497D01*
X342287Y334139D01*
X341545Y333569D01*
X340975Y332827D01*
X340617Y331963D01*
X340561Y331535D01*
X343579D01*
Y334553D01*
D02*
G37*
G36*
X309635Y337273D02*
X305483D01*
Y332727D01*
X308537D01*
X308635Y332707D01*
X320459D01*
X320769Y332329D01*
X320617Y331963D01*
X320495Y331035D01*
X320617Y330108D01*
X320975Y329244D01*
X321545Y328502D01*
X322287Y327932D01*
X323151Y327574D01*
X324079Y327452D01*
X325006Y327574D01*
X325870Y327932D01*
X326613Y328502D01*
X327182Y329244D01*
X327540Y330108D01*
X327662Y331035D01*
X327540Y331963D01*
X327182Y332827D01*
X326613Y333569D01*
X325870Y334139D01*
X325006Y334497D01*
X324079Y334619D01*
X323151Y334497D01*
X322287Y334139D01*
X322083Y333982D01*
X321618Y334448D01*
X321287Y334669D01*
X320897Y334746D01*
X309635D01*
Y337273D01*
D02*
G37*
G36*
X309576Y330907D02*
X305424D01*
Y326360D01*
X309576D01*
Y327614D01*
X316059D01*
X320937Y322735D01*
X320617Y321963D01*
X320495Y321035D01*
X320617Y320108D01*
X320975Y319244D01*
X321545Y318502D01*
X322287Y317932D01*
X323151Y317574D01*
X324079Y317452D01*
X325006Y317574D01*
X325870Y317932D01*
X326613Y318502D01*
X327182Y319244D01*
X327540Y320108D01*
X327662Y321035D01*
X327540Y321963D01*
X327182Y322827D01*
X326613Y323569D01*
X325870Y324139D01*
X325006Y324497D01*
X324079Y324619D01*
X323151Y324497D01*
X322379Y324177D01*
X317202Y329354D01*
X316871Y329575D01*
X316481Y329653D01*
X309576D01*
Y330907D01*
D02*
G37*
G36*
X309635Y324540D02*
X305483D01*
Y319993D01*
X309635D01*
Y321247D01*
X312425D01*
X320937Y312735D01*
X320617Y311963D01*
X320495Y311035D01*
X320617Y310108D01*
X320975Y309244D01*
X321545Y308502D01*
X322287Y307932D01*
X323151Y307574D01*
X324079Y307452D01*
X325006Y307574D01*
X325870Y307932D01*
X326613Y308502D01*
X327182Y309244D01*
X327540Y310108D01*
X327662Y311035D01*
X327540Y311963D01*
X327182Y312827D01*
X326613Y313569D01*
X325870Y314139D01*
X325006Y314497D01*
X324079Y314619D01*
X323151Y314497D01*
X322379Y314177D01*
X313568Y322988D01*
X313238Y323209D01*
X312848Y323286D01*
X309635D01*
Y324540D01*
D02*
G37*
G36*
X334079Y334619D02*
X333151Y334497D01*
X332287Y334139D01*
X331545Y333569D01*
X330975Y332827D01*
X330617Y331963D01*
X330495Y331035D01*
X330617Y330108D01*
X330975Y329244D01*
X331545Y328502D01*
X332287Y327932D01*
X332447Y327866D01*
Y324205D01*
X332287Y324139D01*
X331545Y323569D01*
X330975Y322827D01*
X330617Y321963D01*
X330495Y321035D01*
X330617Y320108D01*
X330975Y319244D01*
X331545Y318502D01*
X332287Y317932D01*
X332447Y317866D01*
Y314205D01*
X332287Y314139D01*
X331545Y313569D01*
X330975Y312827D01*
X330617Y311963D01*
X330495Y311035D01*
X330617Y310108D01*
X330975Y309244D01*
X331545Y308502D01*
X332287Y307932D01*
X332447Y307866D01*
Y304205D01*
X332287Y304139D01*
X331545Y303569D01*
X330975Y302827D01*
X330617Y301963D01*
X330495Y301035D01*
X330617Y300108D01*
X330975Y299244D01*
X331545Y298502D01*
X332287Y297932D01*
X332447Y297866D01*
Y294205D01*
X332287Y294139D01*
X331545Y293569D01*
X330975Y292827D01*
X330617Y291963D01*
X330495Y291035D01*
X330617Y290108D01*
X330975Y289244D01*
X331545Y288502D01*
X332287Y287932D01*
X332447Y287866D01*
Y284205D01*
X332287Y284139D01*
X331545Y283569D01*
X330975Y282827D01*
X330617Y281963D01*
X330495Y281035D01*
X330617Y280108D01*
X330975Y279244D01*
X331545Y278502D01*
X332287Y277932D01*
X332447Y277866D01*
Y274205D01*
X332287Y274139D01*
X331545Y273569D01*
X330975Y272827D01*
X330617Y271963D01*
X330495Y271035D01*
X330617Y270108D01*
X330975Y269244D01*
X331545Y268502D01*
X332287Y267932D01*
X332447Y267866D01*
Y264205D01*
X332287Y264139D01*
X331545Y263569D01*
X330975Y262827D01*
X330617Y261963D01*
X330495Y261035D01*
X330617Y260108D01*
X330975Y259244D01*
X331545Y258502D01*
X332287Y257932D01*
X332447Y257866D01*
Y254205D01*
X332287Y254139D01*
X331545Y253569D01*
X330975Y252827D01*
X330617Y251963D01*
X330495Y251035D01*
X330617Y250108D01*
X330975Y249244D01*
X331545Y248502D01*
X332287Y247932D01*
X332447Y247866D01*
Y244205D01*
X332287Y244139D01*
X331545Y243569D01*
X330975Y242827D01*
X330617Y241963D01*
X330495Y241035D01*
X330617Y240108D01*
X330975Y239244D01*
X331545Y238502D01*
X332287Y237932D01*
X332447Y237866D01*
Y234205D01*
X332287Y234139D01*
X331545Y233569D01*
X330975Y232827D01*
X330617Y231963D01*
X330495Y231035D01*
X330617Y230108D01*
X330975Y229244D01*
X331545Y228502D01*
X332287Y227932D01*
X332447Y227866D01*
Y224205D01*
X332287Y224139D01*
X331545Y223569D01*
X330975Y222827D01*
X330617Y221963D01*
X330495Y221035D01*
X330617Y220108D01*
X330975Y219244D01*
X331545Y218502D01*
X332287Y217932D01*
X332447Y217866D01*
Y214205D01*
X332287Y214139D01*
X331545Y213569D01*
X330975Y212827D01*
X330617Y211963D01*
X330495Y211035D01*
X330617Y210108D01*
X330975Y209244D01*
X331545Y208502D01*
X332287Y207932D01*
X332447Y207866D01*
Y204205D01*
X332287Y204139D01*
X331545Y203569D01*
X330975Y202827D01*
X330617Y201963D01*
X330495Y201035D01*
X330617Y200108D01*
X330975Y199244D01*
X331545Y198502D01*
X332287Y197932D01*
X332447Y197866D01*
Y194205D01*
X332287Y194139D01*
X331545Y193569D01*
X330975Y192827D01*
X330617Y191963D01*
X330495Y191035D01*
X330617Y190108D01*
X330975Y189244D01*
X331545Y188502D01*
X332287Y187932D01*
X332447Y187866D01*
Y184588D01*
X330526D01*
Y179790D01*
X328070Y177333D01*
X327631Y177602D01*
X327631Y177933D01*
Y184588D01*
X321968D01*
X315400Y191156D01*
Y197619D01*
X315862Y197810D01*
X320937Y192735D01*
X320617Y191963D01*
X320495Y191035D01*
X320617Y190108D01*
X320975Y189244D01*
X321545Y188502D01*
X322287Y187932D01*
X323151Y187574D01*
X324079Y187452D01*
X325006Y187574D01*
X325870Y187932D01*
X326613Y188502D01*
X327182Y189244D01*
X327540Y190108D01*
X327662Y191035D01*
X327540Y191963D01*
X327182Y192827D01*
X326613Y193569D01*
X325870Y194139D01*
X325006Y194497D01*
X324079Y194619D01*
X323151Y194497D01*
X322379Y194177D01*
X316888Y199668D01*
Y206131D01*
X317350Y206322D01*
X320937Y202735D01*
X320617Y201963D01*
X320495Y201035D01*
X320617Y200108D01*
X320975Y199244D01*
X321545Y198502D01*
X322287Y197932D01*
X323151Y197574D01*
X324079Y197452D01*
X325006Y197574D01*
X325870Y197932D01*
X326613Y198502D01*
X327182Y199244D01*
X327540Y200108D01*
X327662Y201035D01*
X327540Y201963D01*
X327182Y202827D01*
X326613Y203569D01*
X325870Y204139D01*
X325006Y204497D01*
X324079Y204619D01*
X323151Y204497D01*
X322379Y204177D01*
X318188Y208368D01*
Y214831D01*
X318650Y215022D01*
X320937Y212735D01*
X320617Y211963D01*
X320495Y211035D01*
X320617Y210108D01*
X320975Y209244D01*
X321545Y208502D01*
X322287Y207932D01*
X323151Y207574D01*
X324079Y207452D01*
X325006Y207574D01*
X325870Y207932D01*
X326613Y208502D01*
X327182Y209244D01*
X327540Y210108D01*
X327662Y211035D01*
X327540Y211963D01*
X327182Y212827D01*
X326613Y213569D01*
X325870Y214139D01*
X325006Y214497D01*
X324079Y214619D01*
X323151Y214497D01*
X322379Y214177D01*
X319488Y217068D01*
Y222360D01*
X319411Y222750D01*
X319190Y223081D01*
X316155Y226116D01*
Y226864D01*
X316617Y227055D01*
X320937Y222735D01*
X320617Y221963D01*
X320495Y221035D01*
X320617Y220108D01*
X320975Y219244D01*
X321545Y218502D01*
X322287Y217932D01*
X323151Y217574D01*
X324079Y217452D01*
X325006Y217574D01*
X325870Y217932D01*
X326613Y218502D01*
X327182Y219244D01*
X327540Y220108D01*
X327662Y221035D01*
X327540Y221963D01*
X327182Y222827D01*
X326613Y223569D01*
X325870Y224139D01*
X325006Y224497D01*
X324079Y224619D01*
X323151Y224497D01*
X322379Y224177D01*
X317455Y229101D01*
Y235564D01*
X317917Y235755D01*
X320937Y232735D01*
X320617Y231963D01*
X320495Y231035D01*
X320617Y230108D01*
X320975Y229244D01*
X321545Y228502D01*
X322287Y227932D01*
X323151Y227574D01*
X324079Y227452D01*
X325006Y227574D01*
X325870Y227932D01*
X326613Y228502D01*
X327182Y229244D01*
X327540Y230108D01*
X327662Y231035D01*
X327540Y231963D01*
X327182Y232827D01*
X326613Y233569D01*
X325870Y234139D01*
X325006Y234497D01*
X324079Y234619D01*
X323151Y234497D01*
X322379Y234177D01*
X318755Y237801D01*
Y244264D01*
X319217Y244455D01*
X320937Y242735D01*
X320617Y241963D01*
X320495Y241035D01*
X320617Y240108D01*
X320975Y239244D01*
X321545Y238502D01*
X322287Y237932D01*
X323151Y237574D01*
X324079Y237452D01*
X325006Y237574D01*
X325870Y237932D01*
X326613Y238502D01*
X327182Y239244D01*
X327540Y240108D01*
X327662Y241035D01*
X327540Y241963D01*
X327182Y242827D01*
X326613Y243569D01*
X325870Y244139D01*
X325006Y244497D01*
X324079Y244619D01*
X323151Y244497D01*
X322379Y244177D01*
X320055Y246501D01*
Y250551D01*
X320555Y250583D01*
X320617Y250108D01*
X320975Y249244D01*
X321545Y248502D01*
X322287Y247932D01*
X323151Y247574D01*
X324079Y247452D01*
X325006Y247574D01*
X325870Y247932D01*
X326613Y248502D01*
X327182Y249244D01*
X327540Y250108D01*
X327662Y251035D01*
X327540Y251963D01*
X327182Y252827D01*
X326613Y253569D01*
X325870Y254139D01*
X325098Y254459D01*
Y255587D01*
X325021Y255977D01*
X324800Y256308D01*
X324150Y256957D01*
X324329Y257485D01*
X325006Y257574D01*
X325870Y257932D01*
X326613Y258502D01*
X327182Y259244D01*
X327540Y260108D01*
X327662Y261035D01*
X327540Y261963D01*
X327182Y262827D01*
X326613Y263569D01*
X325870Y264139D01*
X325006Y264497D01*
X324079Y264619D01*
X323151Y264497D01*
X322379Y264177D01*
X319822Y266734D01*
Y273197D01*
X320284Y273388D01*
X320937Y272735D01*
X320617Y271963D01*
X320495Y271035D01*
X320617Y270108D01*
X320975Y269244D01*
X321545Y268502D01*
X322287Y267932D01*
X323151Y267574D01*
X324079Y267452D01*
X325006Y267574D01*
X325870Y267932D01*
X326613Y268502D01*
X327182Y269244D01*
X327540Y270108D01*
X327662Y271035D01*
X327540Y271963D01*
X327182Y272827D01*
X326613Y273569D01*
X325870Y274139D01*
X325006Y274497D01*
X324079Y274619D01*
X323151Y274497D01*
X322379Y274177D01*
X321122Y275434D01*
Y278310D01*
X321622Y278442D01*
X322287Y277932D01*
X323151Y277574D01*
X324079Y277452D01*
X325006Y277574D01*
X325870Y277932D01*
X326613Y278502D01*
X327182Y279244D01*
X327540Y280108D01*
X327662Y281035D01*
X327540Y281963D01*
X327182Y282827D01*
X326613Y283569D01*
X325870Y284139D01*
X325006Y284497D01*
X324079Y284619D01*
X323151Y284497D01*
X322964Y284419D01*
X316888Y290495D01*
Y294660D01*
X316811Y295050D01*
X316590Y295381D01*
X309635Y302335D01*
Y305111D01*
X310135Y305318D01*
X321566Y293888D01*
X321545Y293569D01*
X320975Y292827D01*
X320617Y291963D01*
X320495Y291035D01*
X320617Y290108D01*
X320975Y289244D01*
X321545Y288502D01*
X322287Y287932D01*
X323151Y287574D01*
X324079Y287452D01*
X325006Y287574D01*
X325870Y287932D01*
X326613Y288502D01*
X327182Y289244D01*
X327540Y290108D01*
X327662Y291035D01*
X327540Y291963D01*
X327182Y292827D01*
X326613Y293569D01*
X325870Y294139D01*
X325006Y294497D01*
X324079Y294619D01*
X323761Y294577D01*
X309635Y308702D01*
Y311478D01*
X310135Y311685D01*
X320529Y301291D01*
X320529Y301291D01*
X320495Y301035D01*
X320617Y300108D01*
X320975Y299244D01*
X321545Y298502D01*
X322287Y297932D01*
X323151Y297574D01*
X324079Y297452D01*
X325006Y297574D01*
X325870Y297932D01*
X326613Y298502D01*
X327182Y299244D01*
X327540Y300108D01*
X327662Y301035D01*
X327540Y301963D01*
X327182Y302827D01*
X326613Y303569D01*
X325870Y304139D01*
X325006Y304497D01*
X324079Y304619D01*
X323151Y304497D01*
X322287Y304139D01*
X321545Y303569D01*
X321160Y303544D01*
X309635Y315069D01*
Y318173D01*
X305483D01*
Y313627D01*
X308193D01*
X309514Y312306D01*
X309307Y311807D01*
X305483D01*
Y307260D01*
X308193D01*
X309514Y305940D01*
X309307Y305440D01*
X305483D01*
Y300893D01*
X308193D01*
X309514Y299573D01*
X309307Y299073D01*
X309193Y299073D01*
X309193Y299073D01*
X309188Y299073D01*
X305424D01*
Y294527D01*
X308135D01*
X309455Y293207D01*
X309248Y292706D01*
X305483D01*
Y288160D01*
X308193D01*
X309514Y286840D01*
X309307Y286340D01*
X305483D01*
Y281793D01*
X308193D01*
X309514Y280473D01*
X309307Y279973D01*
X305483D01*
Y275427D01*
X308193D01*
X309514Y274107D01*
X309307Y273606D01*
X305483D01*
Y269060D01*
X308193D01*
X309514Y267740D01*
X309307Y267240D01*
X305483D01*
Y262693D01*
X308193D01*
X309514Y261373D01*
X309307Y260873D01*
X305483D01*
Y256327D01*
X308193D01*
X309514Y255007D01*
X309307Y254507D01*
X305483D01*
Y249960D01*
X308193D01*
X309514Y248640D01*
X309307Y248140D01*
X305483D01*
Y243593D01*
X308193D01*
X309514Y242273D01*
X309307Y241773D01*
X305483D01*
Y237227D01*
X306540D01*
Y227754D01*
X306617Y227364D01*
X306838Y227033D01*
X313361Y220510D01*
Y190734D01*
X313438Y190344D01*
X313659Y190013D01*
X320526Y183146D01*
Y177483D01*
X327148D01*
X327512Y177483D01*
X327781Y177044D01*
X324368Y173631D01*
X313176D01*
X307791Y179016D01*
X307262Y179369D01*
X306638Y179494D01*
X294372D01*
Y179939D01*
X292231D01*
X290131Y182038D01*
Y192988D01*
X290233Y193500D01*
X290131Y194012D01*
Y203500D01*
Y206667D01*
X298306Y214841D01*
X302316D01*
Y221159D01*
X295998D01*
Y217148D01*
X287347Y208496D01*
X287015Y207999D01*
X286926Y207924D01*
X286509Y207798D01*
X286154Y208154D01*
X285624Y208507D01*
X285000Y208631D01*
X276666D01*
X265533Y219764D01*
X265004Y220117D01*
X264380Y220242D01*
X256970D01*
Y223006D01*
X260128D01*
Y222561D01*
X264872D01*
Y226714D01*
X260128D01*
Y226269D01*
X256970D01*
Y231990D01*
X252030D01*
Y217010D01*
X255212D01*
X255370Y216979D01*
X263704D01*
X274837Y205847D01*
X275366Y205493D01*
X275990Y205369D01*
X284324D01*
X284800Y204893D01*
X284609Y204431D01*
X265000D01*
Y186614D01*
X285474D01*
Y203566D01*
X285936Y203757D01*
X286869Y202824D01*
Y194012D01*
X286767Y193500D01*
X286869Y192988D01*
Y181362D01*
X286993Y180738D01*
X287347Y180209D01*
X289628Y177927D01*
Y175786D01*
X294372D01*
Y176231D01*
X305962D01*
X309550Y172643D01*
X290347Y153439D01*
X289993Y152910D01*
X289869Y152285D01*
Y146939D01*
X289128D01*
Y142786D01*
X293872D01*
Y143231D01*
X294462D01*
X295484Y142209D01*
X295774Y141774D01*
X296337Y141399D01*
X297000Y141267D01*
X297663Y141399D01*
X298226Y141774D01*
X298601Y142337D01*
X298733Y143000D01*
X298601Y143663D01*
X298226Y144226D01*
X297791Y144516D01*
X296291Y146016D01*
X295762Y146369D01*
X295138Y146494D01*
X293872D01*
Y146939D01*
X293131D01*
Y151610D01*
X311890Y170369D01*
X325043D01*
X325668Y170493D01*
X326197Y170846D01*
X332833Y177483D01*
X337632D01*
Y184588D01*
X335710D01*
Y187866D01*
X335870Y187932D01*
X336613Y188502D01*
X337182Y189244D01*
X337540Y190108D01*
X337662Y191035D01*
X337540Y191963D01*
X337182Y192827D01*
X336613Y193569D01*
X335870Y194139D01*
X335710Y194205D01*
Y197866D01*
X335870Y197932D01*
X336613Y198502D01*
X337182Y199244D01*
X337540Y200108D01*
X337662Y201035D01*
X337540Y201963D01*
X337182Y202827D01*
X336613Y203569D01*
X335870Y204139D01*
X335710Y204205D01*
Y207866D01*
X335870Y207932D01*
X336613Y208502D01*
X337182Y209244D01*
X337540Y210108D01*
X337662Y211035D01*
X337540Y211963D01*
X337182Y212827D01*
X336613Y213569D01*
X335870Y214139D01*
X335710Y214205D01*
Y217866D01*
X335870Y217932D01*
X336613Y218502D01*
X337182Y219244D01*
X337540Y220108D01*
X337662Y221035D01*
X337540Y221963D01*
X337182Y222827D01*
X336613Y223569D01*
X335870Y224139D01*
X335710Y224205D01*
Y227866D01*
X335870Y227932D01*
X336613Y228502D01*
X337182Y229244D01*
X337540Y230108D01*
X337662Y231035D01*
X337540Y231963D01*
X337182Y232827D01*
X336613Y233569D01*
X335870Y234139D01*
X335710Y234205D01*
Y237866D01*
X335870Y237932D01*
X336613Y238502D01*
X337182Y239244D01*
X337540Y240108D01*
X337662Y241035D01*
X337540Y241963D01*
X337182Y242827D01*
X336613Y243569D01*
X335870Y244139D01*
X335710Y244205D01*
Y247866D01*
X335870Y247932D01*
X336613Y248502D01*
X337182Y249244D01*
X337540Y250108D01*
X337662Y251035D01*
X337540Y251963D01*
X337182Y252827D01*
X336613Y253569D01*
X335870Y254139D01*
X335710Y254205D01*
Y257866D01*
X335870Y257932D01*
X336613Y258502D01*
X337182Y259244D01*
X337540Y260108D01*
X337662Y261035D01*
X337540Y261963D01*
X337182Y262827D01*
X336613Y263569D01*
X335870Y264139D01*
X335710Y264205D01*
Y267866D01*
X335870Y267932D01*
X336613Y268502D01*
X337182Y269244D01*
X337540Y270108D01*
X337662Y271035D01*
X337540Y271963D01*
X337182Y272827D01*
X336613Y273569D01*
X335870Y274139D01*
X335710Y274205D01*
Y277866D01*
X335870Y277932D01*
X336613Y278502D01*
X337182Y279244D01*
X337540Y280108D01*
X337662Y281035D01*
X337540Y281963D01*
X337182Y282827D01*
X336613Y283569D01*
X335870Y284139D01*
X335710Y284205D01*
Y287866D01*
X335870Y287932D01*
X336613Y288502D01*
X337182Y289244D01*
X337540Y290108D01*
X337662Y291035D01*
X337540Y291963D01*
X337182Y292827D01*
X336613Y293569D01*
X335870Y294139D01*
X335710Y294205D01*
Y297866D01*
X335870Y297932D01*
X336613Y298502D01*
X337182Y299244D01*
X337540Y300108D01*
X337662Y301035D01*
X337540Y301963D01*
X337182Y302827D01*
X336613Y303569D01*
X335870Y304139D01*
X335710Y304205D01*
Y307866D01*
X335870Y307932D01*
X336613Y308502D01*
X337182Y309244D01*
X337540Y310108D01*
X337662Y311035D01*
X337540Y311963D01*
X337182Y312827D01*
X336613Y313569D01*
X335870Y314139D01*
X335710Y314205D01*
Y317866D01*
X335870Y317932D01*
X336613Y318502D01*
X337182Y319244D01*
X337540Y320108D01*
X337662Y321035D01*
X337540Y321963D01*
X337182Y322827D01*
X336613Y323569D01*
X335870Y324139D01*
X335710Y324205D01*
Y327866D01*
X335870Y327932D01*
X336613Y328502D01*
X337182Y329244D01*
X337540Y330108D01*
X337662Y331035D01*
X337540Y331963D01*
X337182Y332827D01*
X336613Y333569D01*
X335870Y334139D01*
X335006Y334497D01*
X334079Y334619D01*
D02*
G37*
G36*
X243517Y284500D02*
X241441D01*
X239365D01*
Y282727D01*
X240319D01*
Y280973D01*
X239365D01*
Y279200D01*
X241441D01*
X243517D01*
Y280973D01*
X242563D01*
Y282727D01*
X243517D01*
Y284500D01*
D02*
G37*
G36*
Y278200D02*
X241441D01*
X239365D01*
Y276427D01*
X240319D01*
Y274673D01*
X239365D01*
Y272900D01*
X241441D01*
X243517D01*
Y274673D01*
X242563D01*
Y276427D01*
X243517D01*
Y278200D01*
D02*
G37*
G36*
Y271900D02*
X241441D01*
X239365D01*
Y270127D01*
X240319D01*
Y268373D01*
X239365D01*
Y266600D01*
X241441D01*
X243517D01*
Y268373D01*
X242563D01*
Y270127D01*
X243517D01*
Y271900D01*
D02*
G37*
G36*
Y265600D02*
X241441D01*
X239365D01*
Y263827D01*
X240319D01*
Y262073D01*
X239365D01*
Y260300D01*
X241441D01*
X243517D01*
Y262073D01*
X242563D01*
Y263827D01*
X243517D01*
Y265600D01*
D02*
G37*
G36*
Y259300D02*
X241441D01*
X239365D01*
Y257527D01*
X240319D01*
Y255773D01*
X239365D01*
Y254000D01*
X241441D01*
X243517D01*
Y255773D01*
X242563D01*
Y257527D01*
X243517D01*
Y259300D01*
D02*
G37*
G36*
Y253000D02*
X241941D01*
Y251227D01*
X243517D01*
Y253000D01*
D02*
G37*
G36*
X240941D02*
X239365D01*
Y251227D01*
X240941D01*
Y253000D01*
D02*
G37*
G36*
X248635Y255773D02*
X244483D01*
Y251227D01*
X247194D01*
X248200Y250220D01*
X248121Y249821D01*
X248253Y249158D01*
X248629Y248596D01*
X249191Y248220D01*
X249854Y248088D01*
X250518Y248220D01*
X251080Y248596D01*
X251456Y249158D01*
X251588Y249821D01*
X251456Y250485D01*
X251080Y251047D01*
X250518Y251423D01*
X249854Y251555D01*
X249767Y251537D01*
X248635Y252669D01*
Y255773D01*
D02*
G37*
G36*
X283500Y231939D02*
X281727D01*
Y230953D01*
X283500D01*
Y231939D01*
D02*
G37*
G36*
X262500Y234622D02*
X262071Y234536D01*
X261707Y234293D01*
X261464Y233929D01*
X261379Y233500D01*
Y231439D01*
X260128D01*
Y229862D01*
X262500D01*
X264872D01*
Y231439D01*
X263621D01*
Y233500D01*
X263536Y233929D01*
X263293Y234293D01*
X262929Y234536D01*
X262500Y234622D01*
D02*
G37*
G36*
X283500Y229953D02*
X281727D01*
Y228967D01*
X283500D01*
Y229953D01*
D02*
G37*
G36*
X293277Y234512D02*
X292847Y234427D01*
X292484Y234184D01*
X290191Y231891D01*
X290000D01*
Y230405D01*
Y228920D01*
X291773D01*
Y230301D01*
X294070Y232598D01*
X294313Y232962D01*
X294398Y233391D01*
X294313Y233820D01*
X294070Y234184D01*
X293706Y234427D01*
X293277Y234512D01*
D02*
G37*
G36*
X286273Y231939D02*
X284500D01*
Y230453D01*
Y228967D01*
X286273D01*
Y229308D01*
X287227D01*
Y228920D01*
X289000D01*
Y230405D01*
Y231891D01*
X287227D01*
Y231551D01*
X286273D01*
Y231939D01*
D02*
G37*
G36*
X264872Y228862D02*
X263000D01*
Y227286D01*
X264872D01*
Y228862D01*
D02*
G37*
G36*
X262000D02*
X260128D01*
Y227286D01*
X262000D01*
Y228862D01*
D02*
G37*
G36*
X276970Y231990D02*
X272030D01*
Y217010D01*
X274663D01*
X279788Y211885D01*
X280318Y211531D01*
X280942Y211407D01*
X283824D01*
X283837Y211399D01*
X284500Y211267D01*
X285163Y211399D01*
X285726Y211774D01*
X286101Y212337D01*
X286233Y213000D01*
X286101Y213663D01*
X285726Y214226D01*
X285163Y214601D01*
X284500Y214733D01*
X284180Y214670D01*
X281618D01*
X276970Y219317D01*
Y222916D01*
X283905D01*
X284024Y222892D01*
X289381D01*
X289500Y222869D01*
X290124Y222993D01*
X290156Y223014D01*
X291773D01*
Y225986D01*
X290168D01*
X290101Y226031D01*
X289476Y226155D01*
X284119D01*
X284000Y226179D01*
X276970D01*
Y231990D01*
D02*
G37*
G36*
X309500Y221121D02*
Y218500D01*
X312121D01*
X312078Y218825D01*
X311759Y219593D01*
X311253Y220253D01*
X310593Y220759D01*
X309825Y221078D01*
X309500Y221121D01*
D02*
G37*
G36*
X308500D02*
X308175Y221078D01*
X307407Y220759D01*
X306747Y220253D01*
X306241Y219593D01*
X305922Y218825D01*
X305879Y218500D01*
X308500D01*
Y221121D01*
D02*
G37*
G36*
X312121Y217500D02*
X309500D01*
Y214879D01*
X309825Y214922D01*
X310593Y215241D01*
X311253Y215747D01*
X311759Y216407D01*
X312078Y217175D01*
X312121Y217500D01*
D02*
G37*
G36*
X308500D02*
X305879D01*
X305922Y217175D01*
X306241Y216407D01*
X306747Y215747D01*
X307407Y215241D01*
X308175Y214922D01*
X308500Y214879D01*
Y217500D01*
D02*
G37*
G36*
X309500Y195121D02*
Y192500D01*
X312121D01*
X312078Y192825D01*
X311759Y193593D01*
X311253Y194253D01*
X310593Y194759D01*
X309825Y195078D01*
X309500Y195121D01*
D02*
G37*
G36*
X308500D02*
X308175Y195078D01*
X307407Y194759D01*
X306747Y194253D01*
X306241Y193593D01*
X305922Y192825D01*
X305879Y192500D01*
X308500D01*
Y195121D01*
D02*
G37*
G36*
X312121Y191500D02*
X309500D01*
Y188880D01*
X309825Y188922D01*
X310593Y189241D01*
X311253Y189747D01*
X311759Y190407D01*
X312078Y191175D01*
X312121Y191500D01*
D02*
G37*
G36*
X308500D02*
X305879D01*
X305922Y191175D01*
X306241Y190407D01*
X306747Y189747D01*
X307407Y189241D01*
X308175Y188922D01*
X308500Y188880D01*
Y191500D01*
D02*
G37*
G36*
X302316Y195159D02*
X295998D01*
Y188841D01*
X302316D01*
Y195159D01*
D02*
G37*
G36*
X264000Y204431D02*
X243526D01*
Y186614D01*
X264000D01*
Y204431D01*
D02*
G37*
G36*
X343579Y180535D02*
X340526D01*
Y177483D01*
X343579D01*
Y180535D01*
D02*
G37*
G36*
X294372Y175214D02*
X292500D01*
Y173638D01*
X294372D01*
Y175214D01*
D02*
G37*
G36*
X291500D02*
X289628D01*
Y173638D01*
X291500D01*
Y175214D01*
D02*
G37*
G36*
X130937Y171084D02*
X127097D01*
Y166309D01*
X130937D01*
Y171084D01*
D02*
G37*
G36*
X285474Y185614D02*
X243526D01*
Y167798D01*
X243566D01*
X244026Y167702D01*
Y149886D01*
X265000D01*
X285974D01*
Y164020D01*
X286433Y164112D01*
X286474Y164103D01*
X286707Y163754D01*
X289205Y161256D01*
Y161047D01*
X291500D01*
X293773D01*
Y162033D01*
X291386D01*
X291363Y162150D01*
X291120Y162513D01*
X291120Y162514D01*
X289124Y164510D01*
X289373Y164967D01*
X289666Y164967D01*
X290844D01*
X290876Y164946D01*
X291500Y164821D01*
X294743D01*
X294774Y164774D01*
X295337Y164399D01*
X296000Y164267D01*
X296663Y164399D01*
X297226Y164774D01*
X297601Y165337D01*
X297733Y166000D01*
X297601Y166663D01*
X297226Y167226D01*
X296663Y167601D01*
X296649Y167604D01*
X296647Y167606D01*
X296117Y167960D01*
X295493Y168084D01*
X291500D01*
X290876Y167960D01*
X290844Y167939D01*
X290317D01*
X290126Y168401D01*
X290378Y168652D01*
X290378Y168652D01*
X292787Y171061D01*
X294372D01*
Y172638D01*
X292000D01*
X289628D01*
Y171075D01*
X288792Y170238D01*
X288791Y170238D01*
X286707Y168154D01*
X286464Y167790D01*
X286455Y167747D01*
X285974Y167702D01*
X285934Y167702D01*
X285474Y167798D01*
Y185614D01*
D02*
G37*
G36*
X293773Y160047D02*
X292000D01*
Y159061D01*
X293773D01*
Y160047D01*
D02*
G37*
G36*
X291000D02*
X289227D01*
Y159061D01*
X291000D01*
Y160047D01*
D02*
G37*
G36*
X135777Y157140D02*
X131437D01*
X127097D01*
Y154727D01*
X130315D01*
Y153958D01*
X127097D01*
Y151545D01*
X131437D01*
X135777D01*
Y153958D01*
X132559D01*
Y154727D01*
X135777D01*
Y157140D01*
D02*
G37*
G36*
X145226Y151284D02*
X141909D01*
X138593D01*
Y150298D01*
Y149724D01*
X141909D01*
X145226D01*
Y150298D01*
Y151284D01*
D02*
G37*
G36*
X194576Y147962D02*
X190030D01*
Y145054D01*
X189706Y144730D01*
X187904D01*
X187766Y144936D01*
X187204Y145312D01*
X186541Y145444D01*
X185878Y145312D01*
X185315Y144936D01*
X184939Y144374D01*
X184808Y143710D01*
X184939Y143047D01*
X185315Y142485D01*
X185878Y142109D01*
X186541Y141977D01*
X187204Y142109D01*
X187766Y142485D01*
X187904Y142691D01*
X190128D01*
X190518Y142769D01*
X190784Y142946D01*
X191284Y142809D01*
Y140003D01*
X191361Y139613D01*
X191582Y139282D01*
X194209Y136655D01*
X194002Y136155D01*
X189676D01*
Y135155D01*
X186919D01*
Y135958D01*
X185771D01*
Y137682D01*
X185678Y138150D01*
X185667Y138166D01*
X185733Y138500D01*
X185601Y139163D01*
X185226Y139726D01*
X184663Y140101D01*
X184000Y140233D01*
X183337Y140101D01*
X182774Y139726D01*
X182399Y139163D01*
X182267Y138500D01*
X182399Y137837D01*
X182774Y137274D01*
X183324Y136907D01*
Y135958D01*
X182176D01*
Y131806D01*
X186919D01*
Y132708D01*
X189676D01*
Y131806D01*
X194419D01*
Y135738D01*
X194919Y135945D01*
X196980Y133884D01*
Y120000D01*
X197058Y119610D01*
X197279Y119279D01*
X197779Y118779D01*
X198110Y118558D01*
X198500Y118480D01*
X202152D01*
Y114928D01*
X209258D01*
Y120852D01*
X202152D01*
Y120520D01*
X199020D01*
Y134306D01*
X198942Y134696D01*
X198721Y135027D01*
X193323Y140426D01*
Y143809D01*
X194576D01*
Y147962D01*
D02*
G37*
G36*
X293872Y142214D02*
X292000D01*
Y140638D01*
X293872D01*
Y142214D01*
D02*
G37*
G36*
X336750Y143407D02*
X333500D01*
Y140157D01*
X336750D01*
Y143407D01*
D02*
G37*
G36*
X332500D02*
X329250D01*
Y140157D01*
X332500D01*
Y143407D01*
D02*
G37*
G36*
X157072Y142002D02*
X155004D01*
Y139342D01*
X157072D01*
Y142002D01*
D02*
G37*
G36*
X336750Y139157D02*
X333500D01*
Y135908D01*
X336750D01*
Y139157D01*
D02*
G37*
G36*
X332500D02*
X329250D01*
Y135908D01*
X332500D01*
Y139157D01*
D02*
G37*
G36*
X200576Y147962D02*
X196030D01*
Y143809D01*
X197283D01*
Y142811D01*
X197361Y142421D01*
X197582Y142090D01*
X202152Y137520D01*
Y133038D01*
X209258D01*
Y138962D01*
X203594D01*
X199323Y143233D01*
Y143809D01*
X200576D01*
Y147962D01*
D02*
G37*
G36*
X157072Y138342D02*
X154504D01*
X151935D01*
Y135684D01*
X153918D01*
Y133872D01*
X152865D01*
Y132000D01*
X155039D01*
X157214D01*
Y133872D01*
X156161D01*
Y135684D01*
X157072D01*
Y138342D01*
D02*
G37*
G36*
X264500Y148886D02*
X244026D01*
Y131069D01*
X264500D01*
Y148886D01*
D02*
G37*
G36*
X285974D02*
X265500D01*
Y131069D01*
X285974D01*
Y138506D01*
X289128D01*
Y138061D01*
X289869D01*
Y132000D01*
X289993Y131376D01*
X290347Y130847D01*
X290876Y130493D01*
X291500Y130369D01*
X292124Y130493D01*
X292653Y130847D01*
X293007Y131376D01*
X293131Y132000D01*
Y138061D01*
X293872D01*
Y139638D01*
X291500D01*
Y140138D01*
X291000D01*
Y142214D01*
X289128D01*
Y141769D01*
X285974D01*
Y148886D01*
D02*
G37*
G36*
X194419Y131234D02*
X192547D01*
Y129559D01*
X194419D01*
Y131234D01*
D02*
G37*
G36*
X234454Y134041D02*
X227349D01*
Y128520D01*
X215363D01*
X215226Y128726D01*
X214663Y129101D01*
X214000Y129233D01*
X213337Y129101D01*
X212774Y128726D01*
X212399Y128163D01*
X212359Y127964D01*
X209258D01*
Y129907D01*
X202152D01*
Y123983D01*
X209258D01*
Y125925D01*
X213297D01*
X213337Y125899D01*
X214000Y125767D01*
X214663Y125899D01*
X215226Y126274D01*
X215363Y126480D01*
X227349D01*
Y119849D01*
X234454D01*
Y134041D01*
D02*
G37*
G36*
X186919Y131234D02*
X185047D01*
Y129157D01*
Y127081D01*
X186919D01*
Y128036D01*
X189676D01*
Y126884D01*
X190878D01*
Y124000D01*
X190964Y123571D01*
X191207Y123207D01*
X191571Y122964D01*
X192000Y122878D01*
X192429Y122964D01*
X192793Y123207D01*
X193036Y123571D01*
X193122Y124000D01*
Y126884D01*
X194419D01*
Y128559D01*
X192047D01*
Y129059D01*
X191547D01*
Y131234D01*
X189676D01*
Y130279D01*
X186919D01*
Y131234D01*
D02*
G37*
G36*
X188500Y119018D02*
Y116000D01*
X191518D01*
X191461Y116427D01*
X191103Y117292D01*
X190534Y118034D01*
X189792Y118603D01*
X188927Y118961D01*
X188500Y119018D01*
D02*
G37*
G36*
X187500D02*
X187073Y118961D01*
X186208Y118603D01*
X185466Y118034D01*
X184897Y117292D01*
X184539Y116427D01*
X184482Y116000D01*
X187500D01*
Y119018D01*
D02*
G37*
G36*
X337500Y124597D02*
X336180Y124493D01*
X334404Y124066D01*
X332717Y123368D01*
X331161Y122414D01*
X329772Y121228D01*
X328586Y119839D01*
X327632Y118283D01*
X326934Y116596D01*
X326507Y114820D01*
X326403Y113500D01*
X337500D01*
Y124597D01*
D02*
G37*
G36*
X137000D02*
Y113500D01*
X148097D01*
X147993Y114820D01*
X147566Y116596D01*
X146868Y118283D01*
X145914Y119839D01*
X144728Y121228D01*
X143339Y122414D01*
X141783Y123368D01*
X140096Y124066D01*
X138320Y124493D01*
X137000Y124597D01*
D02*
G37*
G36*
X191518Y115000D02*
X188500D01*
Y111982D01*
X188927Y112039D01*
X189792Y112397D01*
X190534Y112966D01*
X191103Y113708D01*
X191461Y114573D01*
X191518Y115000D01*
D02*
G37*
G36*
X187500D02*
X184482D01*
X184539Y114573D01*
X184897Y113708D01*
X185466Y112966D01*
X186208Y112397D01*
X187073Y112039D01*
X187500Y111982D01*
Y115000D01*
D02*
G37*
G36*
X161553Y119053D02*
X154447D01*
Y111947D01*
X161553D01*
Y119053D01*
D02*
G37*
G36*
X178000Y119083D02*
X177073Y118961D01*
X176208Y118603D01*
X175466Y118034D01*
X174897Y117292D01*
X174539Y116427D01*
X174417Y115500D01*
X174539Y114573D01*
X174897Y113708D01*
X175466Y112966D01*
X176208Y112397D01*
X177073Y112039D01*
X178000Y111917D01*
X178927Y112039D01*
X179792Y112397D01*
X180534Y112966D01*
X181103Y113708D01*
X181461Y114573D01*
X181583Y115500D01*
X181461Y116427D01*
X181103Y117292D01*
X180534Y118034D01*
X179792Y118603D01*
X178927Y118961D01*
X178000Y119083D01*
D02*
G37*
G36*
X168000D02*
X167073Y118961D01*
X166208Y118603D01*
X165466Y118034D01*
X164897Y117292D01*
X164539Y116427D01*
X164417Y115500D01*
X164539Y114573D01*
X164897Y113708D01*
X165466Y112966D01*
X166208Y112397D01*
X167073Y112039D01*
X168000Y111917D01*
X168927Y112039D01*
X169792Y112397D01*
X170534Y112966D01*
X171103Y113708D01*
X171461Y114573D01*
X171583Y115500D01*
X171461Y116427D01*
X171103Y117292D01*
X170534Y118034D01*
X169792Y118603D01*
X168927Y118961D01*
X168000Y119083D01*
D02*
G37*
G36*
X286000Y111214D02*
X284128D01*
Y109638D01*
X286000D01*
Y111214D01*
D02*
G37*
G36*
X288872D02*
X287000D01*
Y109138D01*
Y107061D01*
X288872D01*
Y107506D01*
X293249D01*
X293874Y107631D01*
X294403Y107984D01*
X294508Y108089D01*
X294862Y108619D01*
X294986Y109243D01*
X294862Y109867D01*
X294508Y110397D01*
X293979Y110750D01*
X293355Y110874D01*
X292826Y110769D01*
X288872D01*
Y111214D01*
D02*
G37*
G36*
X286000Y108638D02*
X284128D01*
Y107061D01*
X286000D01*
Y108638D01*
D02*
G37*
%LPD*%
G36*
X319083Y283578D02*
Y280808D01*
X318621Y280616D01*
X309635Y289602D01*
Y292319D01*
X310135Y292526D01*
X319083Y283578D01*
D02*
G37*
G36*
X317783Y278571D02*
Y275741D01*
X317321Y275550D01*
X309635Y283235D01*
Y286011D01*
X310135Y286218D01*
X317783Y278571D01*
D02*
G37*
G36*
X311516Y240271D02*
Y225893D01*
X311054Y225701D01*
X308579Y228176D01*
Y237227D01*
X309635D01*
Y241444D01*
X310135Y241652D01*
X311516Y240271D01*
D02*
G37*
%LPC*%
G36*
X261000Y352518D02*
Y349500D01*
X264018D01*
X263961Y349927D01*
X263603Y350792D01*
X263034Y351534D01*
X262292Y352103D01*
X261427Y352461D01*
X261000Y352518D01*
D02*
G37*
G36*
X260000D02*
X259573Y352461D01*
X258708Y352103D01*
X257966Y351534D01*
X257397Y350792D01*
X257039Y349927D01*
X256982Y349500D01*
X260000D01*
Y352518D01*
D02*
G37*
G36*
X254053Y339053D02*
X251000D01*
Y336000D01*
X254053D01*
Y339053D01*
D02*
G37*
G36*
X250000D02*
X246947D01*
Y336000D01*
X250000D01*
Y339053D01*
D02*
G37*
G36*
X254053Y335000D02*
X251000D01*
Y331947D01*
X254053D01*
Y335000D01*
D02*
G37*
G36*
X250000D02*
X246947D01*
Y331947D01*
X250000D01*
Y335000D01*
D02*
G37*
G36*
X290500Y339083D02*
X289573Y338961D01*
X288708Y338603D01*
X287966Y338034D01*
X287397Y337292D01*
X287039Y336427D01*
X286917Y335500D01*
X287039Y334573D01*
X287397Y333708D01*
X287966Y332966D01*
X288708Y332397D01*
X289573Y332039D01*
X290500Y331917D01*
X291427Y332039D01*
X292292Y332397D01*
X293034Y332966D01*
X293603Y333708D01*
X293961Y334573D01*
X294083Y335500D01*
X293961Y336427D01*
X293603Y337292D01*
X293034Y338034D01*
X292292Y338603D01*
X291427Y338961D01*
X290500Y339083D01*
D02*
G37*
G36*
X280500D02*
X279573Y338961D01*
X278708Y338603D01*
X277966Y338034D01*
X277397Y337292D01*
X277039Y336427D01*
X276917Y335500D01*
X277039Y334573D01*
X277397Y333708D01*
X277966Y332966D01*
X278708Y332397D01*
X279573Y332039D01*
X280500Y331917D01*
X281427Y332039D01*
X282292Y332397D01*
X283034Y332966D01*
X283603Y333708D01*
X283961Y334573D01*
X284083Y335500D01*
X283961Y336427D01*
X283603Y337292D01*
X283034Y338034D01*
X282292Y338603D01*
X281427Y338961D01*
X280500Y339083D01*
D02*
G37*
G36*
X270500D02*
X269573Y338961D01*
X268708Y338603D01*
X267966Y338034D01*
X267397Y337292D01*
X267039Y336427D01*
X266917Y335500D01*
X267039Y334573D01*
X267397Y333708D01*
X267966Y332966D01*
X268708Y332397D01*
X269573Y332039D01*
X270500Y331917D01*
X271427Y332039D01*
X272292Y332397D01*
X273034Y332966D01*
X273603Y333708D01*
X273961Y334573D01*
X274083Y335500D01*
X273961Y336427D01*
X273603Y337292D01*
X273034Y338034D01*
X272292Y338603D01*
X271427Y338961D01*
X270500Y339083D01*
D02*
G37*
G36*
X260500D02*
X259573Y338961D01*
X258708Y338603D01*
X257966Y338034D01*
X257397Y337292D01*
X257039Y336427D01*
X256917Y335500D01*
X257039Y334573D01*
X257397Y333708D01*
X257966Y332966D01*
X258708Y332397D01*
X259573Y332039D01*
X260500Y331917D01*
X261427Y332039D01*
X262292Y332397D01*
X263034Y332966D01*
X263603Y333708D01*
X263961Y334573D01*
X264083Y335500D01*
X263961Y336427D01*
X263603Y337292D01*
X263034Y338034D01*
X262292Y338603D01*
X261427Y338961D01*
X260500Y339083D01*
D02*
G37*
G36*
X145500Y329722D02*
X143825D01*
Y328047D01*
X145500D01*
Y329722D01*
D02*
G37*
G36*
X254053Y325053D02*
X251000D01*
Y322000D01*
X254053D01*
Y325053D01*
D02*
G37*
G36*
X250000D02*
X246947D01*
Y322000D01*
X250000D01*
Y325053D01*
D02*
G37*
G36*
X254053Y321000D02*
X251000D01*
Y317947D01*
X254053D01*
Y321000D01*
D02*
G37*
G36*
X250000D02*
X246947D01*
Y317947D01*
X250000D01*
Y321000D01*
D02*
G37*
G36*
X145000Y319518D02*
X144573Y319461D01*
X143708Y319103D01*
X142966Y318534D01*
X142397Y317792D01*
X142039Y316927D01*
X141982Y316500D01*
X145000D01*
Y319518D01*
D02*
G37*
G36*
X197752Y300415D02*
X195034D01*
Y297697D01*
X197752D01*
Y300415D01*
D02*
G37*
G36*
X194246D02*
X191528D01*
Y297697D01*
X194246D01*
Y300415D01*
D02*
G37*
G36*
X190528D02*
X187809D01*
Y297697D01*
X190528D01*
Y300415D01*
D02*
G37*
G36*
X187021D02*
X184303D01*
Y297697D01*
X187021D01*
Y300415D01*
D02*
G37*
G36*
X183303D02*
X180585D01*
Y297697D01*
X183303D01*
Y300415D01*
D02*
G37*
G36*
X201470D02*
X198752D01*
Y297197D01*
Y293979D01*
X201470D01*
Y296075D01*
X204697D01*
X204697Y296075D01*
X205126Y296161D01*
X205490Y296404D01*
X205793Y296707D01*
X206036Y297071D01*
X206122Y297500D01*
X206036Y297929D01*
X205793Y298293D01*
X205429Y298536D01*
X205000Y298622D01*
X204571Y298536D01*
X204245Y298318D01*
X201470D01*
Y300415D01*
D02*
G37*
G36*
X197752Y296697D02*
X195034D01*
Y293979D01*
X197752D01*
Y296697D01*
D02*
G37*
G36*
X194246D02*
X191528D01*
Y293979D01*
X194246D01*
Y296697D01*
D02*
G37*
G36*
X190528D02*
X187809D01*
Y293979D01*
X190528D01*
Y296697D01*
D02*
G37*
G36*
X187021D02*
X184303D01*
Y293979D01*
X187021D01*
Y296697D01*
D02*
G37*
G36*
X183303D02*
X180585D01*
Y293979D01*
X183303D01*
Y296697D01*
D02*
G37*
G36*
X201470Y293191D02*
X198752D01*
Y290472D01*
X201470D01*
Y293191D01*
D02*
G37*
G36*
X197752D02*
X195034D01*
Y290472D01*
X197752D01*
Y293191D01*
D02*
G37*
G36*
X194246D02*
X191528D01*
Y290472D01*
X194246D01*
Y293191D01*
D02*
G37*
G36*
X190528D02*
X187809D01*
Y290472D01*
X190528D01*
Y293191D01*
D02*
G37*
G36*
X187021D02*
X184303D01*
Y290472D01*
X187021D01*
Y293191D01*
D02*
G37*
G36*
X183303D02*
X180585D01*
Y290472D01*
X183303D01*
Y293191D01*
D02*
G37*
G36*
X201470Y289472D02*
X198752D01*
Y286754D01*
X201470D01*
Y289472D01*
D02*
G37*
G36*
X197752D02*
X195034D01*
Y286754D01*
X197752D01*
Y289472D01*
D02*
G37*
G36*
X194246D02*
X191528D01*
Y286754D01*
X194246D01*
Y289472D01*
D02*
G37*
G36*
X190528D02*
X187809D01*
Y286754D01*
X190528D01*
Y289472D01*
D02*
G37*
G36*
X187021D02*
X184303D01*
Y286754D01*
X187021D01*
Y289472D01*
D02*
G37*
G36*
X183303D02*
X180585D01*
Y286754D01*
X183303D01*
Y289472D01*
D02*
G37*
G36*
X201470Y285966D02*
X198752D01*
Y283248D01*
X201470D01*
Y285966D01*
D02*
G37*
G36*
X197752D02*
X195034D01*
Y283248D01*
X197752D01*
Y285966D01*
D02*
G37*
G36*
X194246D02*
X191528D01*
Y283248D01*
X194246D01*
Y285966D01*
D02*
G37*
G36*
X190528D02*
X187809D01*
Y283248D01*
X190528D01*
Y285966D01*
D02*
G37*
G36*
X187021D02*
X184303D01*
Y283248D01*
X187021D01*
Y285966D01*
D02*
G37*
G36*
X183303D02*
X180585D01*
Y283248D01*
X183303D01*
Y285966D01*
D02*
G37*
G36*
X145500Y289583D02*
X144573Y289461D01*
X143708Y289103D01*
X142966Y288534D01*
X142397Y287792D01*
X142039Y286927D01*
X141917Y286000D01*
X142039Y285073D01*
X142397Y284208D01*
X142966Y283466D01*
X143708Y282897D01*
X144573Y282539D01*
X145500Y282417D01*
X146427Y282539D01*
X147292Y282897D01*
X148034Y283466D01*
X148603Y284208D01*
X148961Y285073D01*
X149083Y286000D01*
X148961Y286927D01*
X148603Y287792D01*
X148034Y288534D01*
X147292Y289103D01*
X146427Y289461D01*
X145500Y289583D01*
D02*
G37*
G36*
X135500D02*
X134573Y289461D01*
X133708Y289103D01*
X132966Y288534D01*
X132397Y287792D01*
X132039Y286927D01*
X131917Y286000D01*
X132039Y285073D01*
X132397Y284208D01*
X132966Y283466D01*
X133708Y282897D01*
X134573Y282539D01*
X135500Y282417D01*
X136427Y282539D01*
X137292Y282897D01*
X138034Y283466D01*
X138603Y284208D01*
X138961Y285073D01*
X139083Y286000D01*
X138961Y286927D01*
X138603Y287792D01*
X138034Y288534D01*
X137292Y289103D01*
X136427Y289461D01*
X135500Y289583D01*
D02*
G37*
G36*
X197752Y282248D02*
X195034D01*
Y279530D01*
X197752D01*
Y282248D01*
D02*
G37*
G36*
X194246D02*
X191528D01*
Y279530D01*
X194246D01*
Y282248D01*
D02*
G37*
G36*
X190528D02*
X187809D01*
Y279530D01*
X190528D01*
Y282248D01*
D02*
G37*
G36*
X187021D02*
X184303D01*
Y279530D01*
X187021D01*
Y282248D01*
D02*
G37*
G36*
X183303D02*
X180585D01*
Y279530D01*
X183303D01*
Y282248D01*
D02*
G37*
G36*
X135500Y279583D02*
X134573Y279461D01*
X133708Y279103D01*
X132966Y278534D01*
X132397Y277792D01*
X132039Y276927D01*
X131917Y276000D01*
X132039Y275073D01*
X132397Y274208D01*
X132966Y273466D01*
X133708Y272897D01*
X134573Y272539D01*
X135500Y272417D01*
X136427Y272539D01*
X137292Y272897D01*
X138034Y273466D01*
X138603Y274208D01*
X138961Y275073D01*
X139083Y276000D01*
X138961Y276927D01*
X138603Y277792D01*
X138034Y278534D01*
X137292Y279103D01*
X136427Y279461D01*
X135500Y279583D01*
D02*
G37*
G36*
X146065Y252970D02*
X141715D01*
Y251520D01*
X140675D01*
Y252675D01*
X136325D01*
Y248325D01*
X140675D01*
Y249480D01*
X141715D01*
Y248030D01*
X146065D01*
Y252970D01*
D02*
G37*
G36*
X133215Y256662D02*
X132785Y256576D01*
X132422Y256333D01*
X132178Y255970D01*
X132128Y255715D01*
X131801Y255388D01*
X131558Y255025D01*
X131473Y254595D01*
X131473Y254595D01*
Y252675D01*
X130420D01*
Y251000D01*
X134769D01*
Y252675D01*
X133716D01*
Y254131D01*
X134008Y254422D01*
X134008Y254422D01*
X134251Y254786D01*
X134336Y255216D01*
X134336Y255216D01*
Y255540D01*
X134251Y255970D01*
X134008Y256333D01*
X133644Y256576D01*
X133215Y256662D01*
D02*
G37*
G36*
X146017Y246470D02*
X141668D01*
Y245020D01*
X140675D01*
Y246175D01*
X136325D01*
Y241825D01*
X140675D01*
Y242980D01*
X141668D01*
Y241530D01*
X146017D01*
Y246470D01*
D02*
G37*
G36*
X134769Y250000D02*
X130420D01*
Y248325D01*
X130869D01*
Y246175D01*
X130420D01*
Y244500D01*
X134769D01*
Y246175D01*
X134131D01*
Y248325D01*
X134769D01*
Y250000D01*
D02*
G37*
G36*
X146017Y239970D02*
X141668D01*
Y238520D01*
X140628D01*
Y239675D01*
X136278D01*
Y235325D01*
X140628D01*
Y236480D01*
X141668D01*
Y235030D01*
X146017D01*
Y239970D01*
D02*
G37*
G36*
X134769Y243500D02*
X130420D01*
Y241825D01*
X130869D01*
Y239675D01*
X130372D01*
Y238000D01*
X134722D01*
Y239675D01*
X134131D01*
Y241825D01*
X134769D01*
Y243500D01*
D02*
G37*
G36*
X146017Y233470D02*
X141668D01*
Y232020D01*
X140628D01*
Y233175D01*
X136278D01*
Y228825D01*
X140628D01*
Y229980D01*
X141668D01*
Y228530D01*
X146017D01*
Y233470D01*
D02*
G37*
G36*
X134722Y237000D02*
X130372D01*
Y235325D01*
X130869D01*
Y233175D01*
X130372D01*
Y231500D01*
X134722D01*
Y233175D01*
X134131D01*
Y235325D01*
X134722D01*
Y237000D01*
D02*
G37*
G36*
X151332Y233470D02*
X146983D01*
Y228530D01*
X151332D01*
Y229980D01*
X152637D01*
X152774Y229774D01*
X153337Y229399D01*
X154000Y229267D01*
X154663Y229399D01*
X155226Y229774D01*
X155601Y230337D01*
X155733Y231000D01*
X155601Y231663D01*
X155226Y232226D01*
X154663Y232601D01*
X154000Y232733D01*
X153337Y232601D01*
X152774Y232226D01*
X152637Y232020D01*
X151332D01*
Y233470D01*
D02*
G37*
G36*
X146017Y226970D02*
X141668D01*
Y225520D01*
X140628D01*
Y226675D01*
X136278D01*
Y222325D01*
X140628D01*
Y223480D01*
X141668D01*
Y222030D01*
X146017D01*
Y226970D01*
D02*
G37*
G36*
X134722Y230500D02*
X130372D01*
Y228825D01*
X130869D01*
Y226675D01*
X130372D01*
Y225000D01*
X134722D01*
Y226675D01*
X134131D01*
Y228825D01*
X134722D01*
Y230500D01*
D02*
G37*
G36*
X177173Y220773D02*
X174514D01*
Y218795D01*
X170045D01*
Y219887D01*
X168173D01*
Y217713D01*
Y215538D01*
X170045D01*
Y216552D01*
X174514D01*
Y215636D01*
X177173D01*
Y218205D01*
Y220773D01*
D02*
G37*
G36*
X167173Y219887D02*
X165302D01*
Y218795D01*
X161045D01*
Y219887D01*
X159173D01*
Y217713D01*
Y215538D01*
X161045D01*
Y216552D01*
X165302D01*
Y215538D01*
X167173D01*
Y217713D01*
Y219887D01*
D02*
G37*
G36*
X180832Y220773D02*
X178173D01*
Y218705D01*
X180832D01*
Y220773D01*
D02*
G37*
G36*
X146000Y214939D02*
X144128D01*
Y214494D01*
X139872D01*
Y214939D01*
X138000D01*
Y212862D01*
Y210786D01*
X139872D01*
Y211231D01*
X144128D01*
Y210786D01*
X146000D01*
Y212862D01*
Y214939D01*
D02*
G37*
G36*
X134722Y224000D02*
X130372D01*
Y222325D01*
X130869D01*
Y217567D01*
X130993Y216943D01*
X131346Y216413D01*
X135128Y212632D01*
Y210786D01*
X137000D01*
Y212862D01*
Y215374D01*
X134131Y218243D01*
Y222325D01*
X134722D01*
Y224000D01*
D02*
G37*
G36*
X163603Y198128D02*
X162979Y198004D01*
X162449Y197651D01*
X162411Y197612D01*
X162057Y197083D01*
X161933Y196459D01*
Y196134D01*
X160466Y194667D01*
X158933D01*
Y192795D01*
X163209D01*
X164718Y194305D01*
X165072Y194834D01*
X165196Y195458D01*
Y196305D01*
X165234Y196497D01*
X165110Y197121D01*
X164757Y197651D01*
X164227Y198004D01*
X163603Y198128D01*
D02*
G37*
G36*
X157933Y194667D02*
X154093D01*
Y192795D01*
X157933D01*
Y194667D01*
D02*
G37*
G36*
X162773Y191795D02*
X158933D01*
Y189924D01*
X162773D01*
Y191795D01*
D02*
G37*
G36*
X157933D02*
X154093D01*
Y189924D01*
X157933D01*
Y191795D01*
D02*
G37*
G36*
X160185Y177293D02*
X158510D01*
Y175421D01*
X160185D01*
Y177293D01*
D02*
G37*
G36*
X283941Y290273D02*
Y288500D01*
X285517D01*
Y290273D01*
X283941D01*
D02*
G37*
G36*
X263047Y245472D02*
X259984D01*
Y244191D01*
X261156D01*
X263410Y241937D01*
X263410Y241936D01*
X263774Y241693D01*
X264204Y241608D01*
X264855D01*
X265071Y241464D01*
X265500Y241378D01*
X265929Y241464D01*
X266293Y241707D01*
X266536Y242071D01*
X266621Y242500D01*
X266536Y242929D01*
X266293Y243293D01*
X266063Y243523D01*
X265700Y243766D01*
X265270Y243851D01*
X265270Y243851D01*
X264668D01*
X263047Y245472D01*
D02*
G37*
G36*
X199439Y181872D02*
X195286D01*
Y177128D01*
X199439D01*
Y177980D01*
X200637D01*
X200774Y177774D01*
X201337Y177399D01*
X202000Y177267D01*
X202663Y177399D01*
X203226Y177774D01*
X203601Y178337D01*
X203733Y179000D01*
X203601Y179663D01*
X203226Y180226D01*
X202663Y180601D01*
X202000Y180733D01*
X201337Y180601D01*
X200774Y180226D01*
X200637Y180020D01*
X199439D01*
Y181872D01*
D02*
G37*
G36*
X230750Y183301D02*
X223250D01*
Y174960D01*
X219810Y171520D01*
X199372D01*
Y173068D01*
X194754D01*
X194628Y173068D01*
X194254D01*
X193759Y173385D01*
Y177128D01*
X194714D01*
Y179000D01*
X192638D01*
X190561D01*
Y177128D01*
X191516D01*
Y173068D01*
X189510D01*
Y171000D01*
X191882D01*
Y170000D01*
X189510D01*
Y167931D01*
X190760D01*
Y165480D01*
X190760Y165480D01*
X190846Y165051D01*
X191089Y164687D01*
X193217Y162559D01*
X195000D01*
Y164135D01*
X194813D01*
X193003Y165945D01*
Y167931D01*
X194128D01*
X194254Y167931D01*
X194628D01*
X194754Y167931D01*
X199372D01*
Y169480D01*
X220232D01*
X220622Y169558D01*
X220953Y169779D01*
X224692Y173518D01*
X230750D01*
Y183301D01*
D02*
G37*
G36*
X197773Y164135D02*
X196000D01*
Y162559D01*
X197773D01*
Y164135D01*
D02*
G37*
G36*
Y161559D02*
X196000D01*
Y159983D01*
X197773D01*
Y161559D01*
D02*
G37*
G36*
X195000D02*
X193227D01*
Y159983D01*
X195000D01*
Y161559D01*
D02*
G37*
%LPD*%
D14*
X182828Y257000D02*
X210000D01*
X182664Y256836D02*
X182828Y257000D01*
X146500Y257500D02*
X149205Y254795D01*
X161000Y304000D02*
X161500Y304500D01*
X177465Y248398D02*
Y250563D01*
X173567Y244500D02*
X177465Y248398D01*
X161500Y244500D02*
X173567D01*
X159335D02*
X160417D01*
X152335Y237500D02*
X159335Y244500D01*
X149158Y237500D02*
X152335D01*
X160028Y260972D02*
X161500Y259500D01*
X149205Y250500D02*
Y254795D01*
X210000Y257000D02*
X211500Y255500D01*
Y251528D02*
Y255500D01*
X212465Y248398D02*
X216362Y244500D01*
X228429D01*
X211500Y251528D02*
X212465Y250563D01*
Y248398D02*
Y250563D01*
X161248Y293197D02*
X161500Y293449D01*
X161248Y303197D02*
X161500Y303449D01*
X173567Y239500D02*
X182465Y248398D01*
X216362Y229500D02*
X228429D01*
X187465Y248398D02*
Y250563D01*
X173567Y229500D02*
X192465Y248398D01*
X182465D02*
Y250563D01*
X216362Y234500D02*
X228429D01*
X161500Y229500D02*
X173567D01*
X197465Y248398D02*
X216362Y229500D01*
X161500Y239500D02*
X173567D01*
X207465Y248398D02*
X216362Y239500D01*
X207465Y248398D02*
Y250563D01*
X216362Y239500D02*
X228429D01*
X161500Y234500D02*
X173567D01*
X202465Y248398D02*
Y250563D01*
X197465Y248398D02*
Y250563D01*
X202465Y248398D02*
X216362Y234500D01*
X173567D02*
X187465Y248398D01*
X192465D02*
Y250563D01*
X296800Y260800D02*
Y273300D01*
X295700Y265210D02*
Y280200D01*
X293500Y290360D02*
X294600Y291460D01*
X292400Y290816D02*
X293500Y291916D01*
X287221Y261720D02*
X292400Y266900D01*
X295700Y280200D02*
X298500Y283000D01*
X285701Y257090D02*
X294600Y265989D01*
X292400Y266900D02*
Y290816D01*
X287484Y251484D02*
X296800Y260800D01*
X286556Y259500D02*
X293500Y266444D01*
Y290360D01*
X296800Y273300D02*
X300000Y276500D01*
X294600Y265989D02*
Y286600D01*
X298000Y290000D01*
X285505Y255015D02*
X295700Y265210D01*
X279852Y299186D02*
X292186D01*
X299200Y306200D02*
Y313062D01*
X302441Y316303D01*
X292186Y299186D02*
X299200Y306200D01*
X293500Y296303D02*
X300197Y303000D01*
X293500Y291916D02*
Y296303D01*
X300197Y303000D02*
X302441D01*
X294600Y292600D02*
X298500Y296500D01*
X302382D01*
X294600Y291460D02*
Y292600D01*
X298500Y283000D02*
X302441D01*
X284386Y254043D02*
X285357Y255015D01*
X282516Y254043D02*
X284386D01*
X285357Y255015D02*
X285505D01*
X301941Y276500D02*
X302441Y277000D01*
X300000Y276500D02*
X301941D01*
X298000Y290000D02*
X302244D01*
X282516Y256602D02*
X283003Y257090D01*
X285701D01*
X282516Y259161D02*
X282854Y259500D01*
X286556D01*
X282516Y261720D02*
X287221D01*
X282516Y251484D02*
X287484D01*
D17*
X259500Y359343D02*
D03*
Y364657D02*
D03*
X246500Y359343D02*
D03*
Y364657D02*
D03*
X280500Y359343D02*
D03*
Y364657D02*
D03*
X287000Y359343D02*
D03*
Y364657D02*
D03*
X300000Y359343D02*
D03*
Y364657D02*
D03*
X274000Y359343D02*
D03*
Y364657D02*
D03*
X319500Y359343D02*
D03*
Y364657D02*
D03*
X293500Y359343D02*
D03*
Y364657D02*
D03*
X306500Y359343D02*
D03*
Y364657D02*
D03*
X313000Y359343D02*
D03*
Y364657D02*
D03*
X240000Y359343D02*
D03*
Y364657D02*
D03*
X195000Y359343D02*
D03*
Y364657D02*
D03*
X188500Y359343D02*
D03*
Y364657D02*
D03*
X201500Y359343D02*
D03*
Y364657D02*
D03*
X182000Y359343D02*
D03*
Y364657D02*
D03*
X175500Y359343D02*
D03*
Y364657D02*
D03*
X169000Y359343D02*
D03*
Y364657D02*
D03*
X162500Y359343D02*
D03*
Y364657D02*
D03*
X156000Y359185D02*
D03*
Y364500D02*
D03*
X253000Y359343D02*
D03*
Y364657D02*
D03*
X233500Y359343D02*
D03*
Y364657D02*
D03*
X227000Y359343D02*
D03*
Y364657D02*
D03*
X220500Y359343D02*
D03*
Y364657D02*
D03*
X214000Y359343D02*
D03*
Y364657D02*
D03*
D18*
X274000Y369547D02*
D03*
Y375453D02*
D03*
X319500Y369547D02*
D03*
Y375453D02*
D03*
X313000Y369547D02*
D03*
Y375453D02*
D03*
X306500Y369547D02*
D03*
Y375453D02*
D03*
X300000Y369547D02*
D03*
Y375453D02*
D03*
X287000Y369547D02*
D03*
Y375453D02*
D03*
X280500Y369547D02*
D03*
Y375453D02*
D03*
X293500Y369547D02*
D03*
Y375453D02*
D03*
X201500Y369547D02*
D03*
Y375453D02*
D03*
X195000Y369547D02*
D03*
Y375453D02*
D03*
X182000Y369547D02*
D03*
Y375453D02*
D03*
X175500Y369547D02*
D03*
Y375453D02*
D03*
X169000Y369547D02*
D03*
Y375453D02*
D03*
X162500Y369547D02*
D03*
Y375453D02*
D03*
X188500Y369547D02*
D03*
Y375453D02*
D03*
X156000Y369547D02*
D03*
Y375453D02*
D03*
X259500Y370047D02*
D03*
Y375953D02*
D03*
X253000Y370047D02*
D03*
Y375953D02*
D03*
X246500Y370047D02*
D03*
Y375953D02*
D03*
X240000Y370047D02*
D03*
Y375953D02*
D03*
X233500Y370047D02*
D03*
Y375953D02*
D03*
X227000Y370047D02*
D03*
Y375953D02*
D03*
X220500Y370047D02*
D03*
Y375953D02*
D03*
X214000Y370047D02*
D03*
Y375953D02*
D03*
X146000Y333453D02*
D03*
Y327547D02*
D03*
D19*
X267000Y359941D02*
D03*
Y365059D02*
D03*
X208000Y359500D02*
D03*
Y364618D02*
D03*
X149500Y359441D02*
D03*
Y364559D02*
D03*
X195500Y156941D02*
D03*
Y162059D02*
D03*
X192303Y145886D02*
D03*
Y151004D02*
D03*
X198303Y151004D02*
D03*
Y145886D02*
D03*
D20*
X285000Y422114D02*
D03*
X280000D02*
D03*
X315000D02*
D03*
X295000D02*
D03*
X310000D02*
D03*
X290000D02*
D03*
X190000Y421807D02*
D03*
X185000D02*
D03*
X180000D02*
D03*
X175000D02*
D03*
X245000Y422114D02*
D03*
X240000D02*
D03*
X255000D02*
D03*
X235000D02*
D03*
X230000D02*
D03*
X250000D02*
D03*
X305000D02*
D03*
X165000Y421807D02*
D03*
X300000Y422114D02*
D03*
X170000Y421807D02*
D03*
X200000D02*
D03*
X195000D02*
D03*
X220000Y422114D02*
D03*
X225000D02*
D03*
X275000D02*
D03*
X315000Y385500D02*
D03*
X310000D02*
D03*
X305000D02*
D03*
X300000D02*
D03*
X295000D02*
D03*
X290000D02*
D03*
X285000D02*
D03*
X280000D02*
D03*
X275000D02*
D03*
X160000Y421807D02*
D03*
X200000Y385193D02*
D03*
X195000D02*
D03*
X190000D02*
D03*
X185000D02*
D03*
X180000D02*
D03*
X175000D02*
D03*
X170000D02*
D03*
X165000D02*
D03*
X160000D02*
D03*
X215000Y422114D02*
D03*
X255000Y385500D02*
D03*
X250000D02*
D03*
X245000D02*
D03*
X240000D02*
D03*
X235000D02*
D03*
X230000D02*
D03*
X225000D02*
D03*
X220000D02*
D03*
X215000D02*
D03*
D21*
X161500Y284500D02*
D03*
Y279500D02*
D03*
X228429Y294500D02*
D03*
X161500Y269500D02*
D03*
X228429Y309500D02*
D03*
X161500Y264500D02*
D03*
X228429Y274500D02*
D03*
X161500Y259500D02*
D03*
Y294500D02*
D03*
Y289500D02*
D03*
X228429Y299500D02*
D03*
X161500D02*
D03*
Y304500D02*
D03*
X228429D02*
D03*
Y314500D02*
D03*
Y284500D02*
D03*
X161500Y274500D02*
D03*
X228429Y279500D02*
D03*
Y259500D02*
D03*
X161500Y319500D02*
D03*
Y314500D02*
D03*
Y309500D02*
D03*
Y254500D02*
D03*
X228429D02*
D03*
Y264500D02*
D03*
Y269500D02*
D03*
Y289500D02*
D03*
Y319500D02*
D03*
D22*
X282516Y274516D02*
D03*
Y277075D02*
D03*
Y271957D02*
D03*
Y269398D02*
D03*
Y266839D02*
D03*
X259484D02*
D03*
Y269398D02*
D03*
Y277075D02*
D03*
Y274516D02*
D03*
Y271957D02*
D03*
Y264280D02*
D03*
Y261720D02*
D03*
Y259161D02*
D03*
Y256602D02*
D03*
Y248925D02*
D03*
Y251484D02*
D03*
Y254043D02*
D03*
X282516D02*
D03*
Y251484D02*
D03*
Y248925D02*
D03*
Y256602D02*
D03*
Y259161D02*
D03*
Y261720D02*
D03*
Y264280D02*
D03*
D23*
X261000Y299500D02*
D03*
X252500D02*
D03*
X261000Y305012D02*
D03*
X252500D02*
D03*
D24*
X149158Y231000D02*
D03*
Y237500D02*
D03*
X149205Y250500D02*
D03*
X149158Y244000D02*
D03*
Y224500D02*
D03*
X143842Y231000D02*
D03*
Y224500D02*
D03*
Y237500D02*
D03*
X143890Y250500D02*
D03*
X143842Y244000D02*
D03*
D25*
X177465Y250563D02*
D03*
X212465D02*
D03*
X217465D02*
D03*
X202465D02*
D03*
X207465D02*
D03*
X187465D02*
D03*
X172465D02*
D03*
X197465D02*
D03*
X192465D02*
D03*
X182465D02*
D03*
D26*
X161500Y244500D02*
D03*
X228429D02*
D03*
Y249500D02*
D03*
Y239500D02*
D03*
Y234500D02*
D03*
Y229500D02*
D03*
X161500Y234500D02*
D03*
Y249500D02*
D03*
Y229500D02*
D03*
Y239500D02*
D03*
D27*
X178518Y163341D02*
D03*
X180487D02*
D03*
X172613Y147187D02*
D03*
X174581D02*
D03*
X176550D02*
D03*
X178518D02*
D03*
X180487D02*
D03*
X182455D02*
D03*
X176550Y163341D02*
D03*
X174581D02*
D03*
X172613D02*
D03*
X182455D02*
D03*
D28*
X183803Y297197D02*
D03*
X191028D02*
D03*
X198252D02*
D03*
X183803Y289972D02*
D03*
X191028D02*
D03*
X198252D02*
D03*
X183803Y282748D02*
D03*
X191028D02*
D03*
X198252D02*
D03*
D29*
X132547Y224500D02*
D03*
X138453D02*
D03*
Y231000D02*
D03*
X132547D02*
D03*
X138453Y237500D02*
D03*
X132547D02*
D03*
X138500Y250500D02*
D03*
X132595D02*
D03*
X138500Y244000D02*
D03*
X132595D02*
D03*
D30*
X138559Y333500D02*
D03*
X133441D02*
D03*
X197559Y197500D02*
D03*
X192441D02*
D03*
X191882Y170500D02*
D03*
X197000D02*
D03*
X192441Y189500D02*
D03*
X197559D02*
D03*
X197654Y214504D02*
D03*
X192535D02*
D03*
D31*
X137500Y208138D02*
D03*
Y212862D02*
D03*
X146500Y208138D02*
D03*
Y212862D02*
D03*
X292000Y177862D02*
D03*
Y173138D02*
D03*
X291500Y144862D02*
D03*
Y140138D02*
D03*
X286500Y109138D02*
D03*
Y113862D02*
D03*
X262500Y229362D02*
D03*
Y224638D02*
D03*
X184547Y129157D02*
D03*
Y133882D02*
D03*
X176047Y129157D02*
D03*
Y133882D02*
D03*
D32*
X158673Y217713D02*
D03*
Y212791D02*
D03*
X167673Y217713D02*
D03*
Y212791D02*
D03*
X192047Y133980D02*
D03*
Y129059D02*
D03*
D33*
X177673Y218205D02*
D03*
Y212299D02*
D03*
D34*
X259484Y280028D02*
D03*
Y245972D02*
D03*
X282516D02*
D03*
Y280028D02*
D03*
D35*
X241441Y285000D02*
D03*
X246559D02*
D03*
X241441Y278700D02*
D03*
X246559D02*
D03*
X241441Y272400D02*
D03*
X246559D02*
D03*
X241441Y266100D02*
D03*
X246559D02*
D03*
X241441Y259800D02*
D03*
X246559D02*
D03*
X241441Y253500D02*
D03*
X246559D02*
D03*
X307559Y309533D02*
D03*
X302441D02*
D03*
X307559Y303167D02*
D03*
X302441D02*
D03*
X307500Y296800D02*
D03*
X302382D02*
D03*
X307559Y290433D02*
D03*
X302441D02*
D03*
X307559Y284067D02*
D03*
X302441D02*
D03*
X307559Y277700D02*
D03*
X302441D02*
D03*
X307559Y271333D02*
D03*
X302441D02*
D03*
X307559Y264967D02*
D03*
X302441D02*
D03*
X307559Y245867D02*
D03*
X302441D02*
D03*
X307559Y252233D02*
D03*
X302441D02*
D03*
X307559Y258600D02*
D03*
X302441D02*
D03*
X307559Y239500D02*
D03*
X302441D02*
D03*
X307559Y315900D02*
D03*
X302441D02*
D03*
X307559Y335000D02*
D03*
X302441D02*
D03*
X307559Y322267D02*
D03*
X302441D02*
D03*
X307500Y328633D02*
D03*
X302382D02*
D03*
X283441Y288000D02*
D03*
X288559D02*
D03*
X133441Y326000D02*
D03*
X138559D02*
D03*
D36*
X181661Y192295D02*
D03*
D37*
X158433Y183240D02*
D03*
Y192295D02*
D03*
Y201350D02*
D03*
D38*
X284000Y230453D02*
D03*
Y224547D02*
D03*
X289500Y230405D02*
D03*
Y224500D02*
D03*
X291500Y160547D02*
D03*
Y166453D02*
D03*
X244000Y113953D02*
D03*
Y108047D02*
D03*
D39*
X160685Y174921D02*
D03*
X155764D02*
D03*
X159961Y131500D02*
D03*
X155039D02*
D03*
D40*
X157630Y152106D02*
D03*
Y164508D02*
D03*
X289500Y294528D02*
D03*
Y306929D02*
D03*
X280250Y294528D02*
D03*
Y306929D02*
D03*
X271000Y294528D02*
D03*
Y306929D02*
D03*
X146630Y184807D02*
D03*
Y197209D02*
D03*
X136130Y184807D02*
D03*
Y197209D02*
D03*
D41*
X141909Y159461D02*
D03*
Y156902D02*
D03*
Y154342D02*
D03*
Y151784D02*
D03*
Y149224D02*
D03*
D42*
X140492Y164037D02*
D03*
Y144648D02*
D03*
D43*
X131437Y165809D02*
D03*
Y142876D02*
D03*
D44*
Y157640D02*
D03*
Y151045D02*
D03*
D45*
X274500Y224500D02*
D03*
X254500D02*
D03*
X255000Y111000D02*
D03*
X275000D02*
D03*
D46*
X264500Y186114D02*
D03*
X265000Y149386D02*
D03*
D47*
X227000Y178409D02*
D03*
X212000D02*
D03*
D48*
X227000Y214591D02*
D03*
X212000D02*
D03*
D49*
X231000Y156000D02*
D03*
X230902Y126945D02*
D03*
D50*
X205803Y146945D02*
D03*
Y156000D02*
D03*
Y165055D02*
D03*
X205705Y117890D02*
D03*
Y126945D02*
D03*
Y136000D02*
D03*
D51*
X192638Y179500D02*
D03*
X197362D02*
D03*
X192595Y206504D02*
D03*
X197319D02*
D03*
D52*
X160409Y145343D02*
D03*
X154504D02*
D03*
D53*
X168047Y128795D02*
D03*
Y134701D02*
D03*
D54*
X185611Y160185D02*
D03*
X169457D02*
D03*
Y158217D02*
D03*
Y156248D02*
D03*
Y154279D02*
D03*
Y152311D02*
D03*
Y150343D02*
D03*
X185611D02*
D03*
Y152311D02*
D03*
Y154279D02*
D03*
Y156248D02*
D03*
Y158217D02*
D03*
D55*
X177534Y155264D02*
D03*
D56*
X160409Y138842D02*
D03*
X154504D02*
D03*
D101*
X161500Y249500D02*
X171402D01*
X172465Y250563D01*
X287500Y167361D02*
X289585Y169445D01*
X287500Y164547D02*
Y167361D01*
X290713Y160547D02*
X291500D01*
X290327Y160933D02*
X290713Y160547D01*
X290327Y160933D02*
Y161721D01*
X287500Y164547D02*
X290327Y161721D01*
X289585Y169445D02*
X292000Y171861D01*
Y173138D01*
X284024Y230429D02*
X290268D01*
X290291Y230405D01*
X284000Y230453D02*
X284024Y230429D01*
X290291Y230405D02*
X293277Y233391D01*
X192000Y124000D02*
Y129106D01*
X161500Y319500D02*
X180500D01*
X132595Y250500D02*
Y254595D01*
X133215Y255216D01*
Y255540D01*
X172465Y256465D02*
X173500Y257500D01*
X172465Y250563D02*
Y256465D01*
X131437Y133762D02*
Y142876D01*
X130500Y132825D02*
X131437Y133762D01*
X130500Y132500D02*
Y132825D01*
X191949Y129157D02*
X192000Y129106D01*
X158673Y217673D02*
X177142D01*
X175382Y192295D02*
X181661D01*
X173586Y190500D02*
X175382Y192295D01*
X173500Y190500D02*
X173586D01*
X270939Y422114D02*
X275000D01*
X270325Y421500D02*
X270939Y422114D01*
X270000Y421500D02*
X270325D01*
X211939Y422114D02*
X215000D01*
X211325Y421500D02*
X211939Y422114D01*
X211000Y421500D02*
X211325D01*
X159693D02*
X160000Y421807D01*
X155000Y421500D02*
X159693D01*
X282516Y271957D02*
X286957D01*
X278418D02*
X282516D01*
X241441Y288112D02*
X242507Y289179D01*
X241441Y285000D02*
Y288112D01*
X204697Y297197D02*
X205000Y297500D01*
X198252Y297197D02*
X204697D01*
X228429Y319500D02*
X238863D01*
X160000D02*
X161500D01*
X241441Y278700D02*
Y285000D01*
Y272400D02*
Y278700D01*
Y266100D02*
Y272400D01*
Y259800D02*
Y266100D01*
Y253500D02*
Y259800D01*
X277655Y272395D02*
X277979D01*
X278418Y271957D01*
X177142Y217673D02*
X177673Y218205D01*
X262500Y229362D02*
Y233500D01*
X259484Y245972D02*
X260961D01*
X264204Y242730D01*
X265270D01*
X265500Y242500D01*
X288000Y273000D02*
Y283441D01*
X283441Y287803D02*
Y288000D01*
Y287803D02*
X286110Y285134D01*
X286307D01*
X288000Y283441D01*
X286957Y271957D02*
X288000Y273000D01*
X160685Y168461D02*
Y174921D01*
X169457Y158217D02*
X174581D01*
X177534Y155264D01*
X192441Y189303D02*
X192638D01*
X131437Y165809D02*
X133209Y164037D01*
X140492D01*
X131437Y157640D02*
Y165809D01*
Y151045D02*
Y157640D01*
Y142876D02*
Y151045D01*
X133209Y144648D02*
X140492D01*
X131437Y142876D02*
X133209Y144648D01*
X181500Y189575D02*
Y192134D01*
Y183000D02*
Y189575D01*
X191169Y188031D02*
X192441Y189303D01*
X191169Y187835D02*
Y188031D01*
X190730Y187395D02*
X191169Y187835D01*
X190730Y185230D02*
Y187395D01*
X190500Y185000D02*
X190730Y185230D01*
X181500Y192134D02*
X181661Y192295D01*
X192595Y206209D02*
Y206504D01*
X189569Y203183D02*
X192595Y206209D01*
X189569Y191931D02*
X190500Y191000D01*
X192638Y171256D02*
Y179500D01*
Y189303D01*
X189569Y191931D02*
Y203183D01*
X140492Y144648D02*
X140640Y144500D01*
X141909Y146065D02*
Y149224D01*
X140492Y144648D02*
X141909Y146065D01*
X155039Y131500D02*
X156114Y130425D01*
X154504Y138842D02*
Y139433D01*
Y138842D02*
X155039Y138307D01*
X174414Y124500D02*
X175000Y125086D01*
X169366Y158307D02*
X169457Y158217D01*
X195303Y162059D02*
X195500D01*
X141909Y149224D02*
Y151784D01*
X156114Y128386D02*
Y130425D01*
X163224Y160421D02*
X165339Y158307D01*
X160685Y168461D02*
X163224Y165921D01*
X175000Y125086D02*
Y128181D01*
X155039Y131500D02*
Y138307D01*
X163224Y160421D02*
Y165921D01*
X140640Y144500D02*
X149437D01*
X184547Y129157D02*
X191949D01*
X176047D02*
X184547D01*
X175976D02*
X176047D01*
X165339Y158307D02*
X169366D01*
X191882Y165480D02*
X195303Y162059D01*
X191882Y170500D02*
X192638Y171256D01*
X156114Y128386D02*
X160000Y124500D01*
X149437Y144500D02*
X154504Y139433D01*
X175000Y128181D02*
X175976Y129157D01*
X191882Y165480D02*
Y170500D01*
X160000Y124500D02*
X174414D01*
D102*
X180000Y414675D02*
Y421807D01*
Y414675D02*
X180062Y414613D01*
X190000Y410914D02*
Y421807D01*
X189086Y410914D02*
X190000D01*
X200000Y411000D02*
Y421807D01*
X209000Y385500D02*
X215000D01*
X208000Y386500D02*
X209000Y385500D01*
X216000Y289000D02*
Y307500D01*
X174000Y290500D02*
Y304000D01*
X189000Y319000D02*
X208000D01*
X174000Y304000D02*
X189000Y319000D01*
X168475Y258334D02*
X168900D01*
X141969Y260000D02*
X151837D01*
X141500Y260469D02*
X141969Y260000D01*
X167309Y259500D02*
X168475Y258334D01*
X170600Y261000D02*
X209193D01*
X141500Y260469D02*
Y264500D01*
X151837Y260000D02*
X153834Y258003D01*
X282441Y277000D02*
X282516Y277075D01*
X278000Y277000D02*
X282441D01*
X256626Y287529D02*
X258946D01*
X234500Y285500D02*
Y289000D01*
X238500Y293000D02*
X259907D01*
X234500Y289000D02*
X238500Y293000D01*
X236500Y288000D02*
X240000Y291500D01*
X234000Y279500D02*
X236500Y282000D01*
Y288000D01*
X230594Y284500D02*
X231095Y285000D01*
X234000D01*
X234500Y285500D01*
X240000Y291500D02*
X260245D01*
X259907Y293000D02*
X264500Y297593D01*
X230594Y279500D02*
X234000D01*
X260245Y291500D02*
X266500Y297755D01*
X228429Y294500D02*
X228929Y295000D01*
X258960D01*
X249854Y249821D02*
Y250008D01*
X228429Y299500D02*
X236500D01*
X204500Y233500D02*
X205947Y232053D01*
Y232053D02*
Y232053D01*
X258960Y295000D02*
Y295700D01*
X250800Y259800D02*
X252500Y261500D01*
Y266000D01*
X246559Y259800D02*
X250800D01*
X252500Y258500D02*
X255720Y261720D01*
X282465Y269449D02*
X282516Y269398D01*
X274503Y267024D02*
X276876Y269398D01*
X235121Y254000D02*
X235500D01*
X234621Y254500D02*
X235121Y254000D01*
X240500Y228500D02*
Y236500D01*
X205496Y206504D02*
X208000Y204000D01*
X234433Y222433D02*
X240500Y228500D01*
X238500Y229500D02*
Y239000D01*
X184500Y233500D02*
X204500D01*
X158000Y183673D02*
X158433Y183240D01*
X161500Y309500D02*
X170000D01*
X275000Y385500D02*
Y387317D01*
X274317Y388000D02*
X275000Y387317D01*
X268000Y388000D02*
X274317D01*
X305000Y413500D02*
Y422114D01*
X300133Y409503D02*
X300265Y409370D01*
X300000Y422114D02*
X300133Y421981D01*
Y409503D02*
Y421981D01*
X294436Y407888D02*
X294704Y408156D01*
Y421818D01*
X296262Y344761D02*
X300500Y349000D01*
X247262Y344761D02*
X296262D01*
X294704Y421818D02*
X295000Y422114D01*
X290143Y411094D02*
X290287Y410950D01*
X290000Y422114D02*
X290143Y421971D01*
Y411094D02*
Y421971D01*
X284976Y409986D02*
Y422090D01*
X284952Y409962D02*
X284976Y409986D01*
Y422090D02*
X285000Y422114D01*
X279815Y413321D02*
X279907Y413414D01*
Y422021D01*
X280000Y422114D01*
X250000Y410000D02*
Y422114D01*
X255000Y417253D02*
Y422114D01*
Y417253D02*
X256500Y415753D01*
Y415500D02*
Y415753D01*
X244799Y413701D02*
Y421913D01*
X245000Y422114D01*
X258960Y295000D02*
X259250D01*
X261000Y296750D01*
X250735Y301068D02*
X253303Y298500D01*
X256500D01*
X240000Y414879D02*
Y422114D01*
Y414879D02*
X240500Y414379D01*
Y414000D02*
Y414379D01*
X235000Y413000D02*
Y422114D01*
X230000Y413000D02*
Y422114D01*
X225000Y411000D02*
Y422114D01*
X228929Y309000D02*
X242964D01*
X228429Y309500D02*
X228929Y309000D01*
X242964D02*
X250735Y301229D01*
X220000Y411500D02*
Y422114D01*
X152000Y269500D02*
X155000D01*
X145500Y276000D02*
X152000Y269500D01*
X315000Y383236D02*
Y385500D01*
X305000Y380341D02*
X306500Y378840D01*
X279501Y380954D02*
Y385001D01*
X293500Y381736D02*
X295000Y383236D01*
X279501Y385001D02*
X280000Y385500D01*
X274000Y375453D02*
X279501Y380954D01*
X280500Y375453D02*
X285000Y379953D01*
Y385500D01*
X287000Y375453D02*
X290000Y378453D01*
Y385500D01*
X295000Y383236D02*
Y385500D01*
X293500Y375453D02*
Y381736D01*
X300000Y375453D02*
Y385500D01*
X306500Y375453D02*
Y378840D01*
X305000Y380341D02*
Y385500D01*
X310000Y378453D02*
X313000Y375453D01*
X310000Y378453D02*
Y385500D01*
X319500Y375453D02*
Y378736D01*
X315000Y383236D02*
X319500Y378736D01*
X274000Y364657D02*
Y369547D01*
X280500Y364657D02*
Y369547D01*
X287000Y364657D02*
Y369547D01*
X293500Y364657D02*
Y369547D01*
X300000Y364657D02*
Y369547D01*
X306500Y364657D02*
Y369547D01*
X313000Y364657D02*
Y369547D01*
X319500Y364657D02*
Y369547D01*
X214000Y375953D02*
X219317Y381270D01*
X245000Y380591D02*
X246500Y379090D01*
X235000Y383236D02*
Y385500D01*
X219317Y381270D02*
Y384817D01*
X220000Y385500D01*
X220500Y375953D02*
X225000Y380453D01*
Y385500D01*
X227000Y375953D02*
X230000Y378953D01*
Y385500D01*
X233500Y381736D02*
X235000Y383236D01*
X233500Y375953D02*
Y381736D01*
X240000Y375953D02*
Y385500D01*
X245000Y380591D02*
Y385500D01*
X246500Y375953D02*
Y379090D01*
X250000Y378953D02*
X253000Y375953D01*
X250000Y378953D02*
Y385500D01*
X255000Y380453D02*
X259500Y375953D01*
X255000Y380453D02*
Y385500D01*
X214000Y364657D02*
Y370047D01*
X220500Y364657D02*
Y370047D01*
X227000Y364657D02*
Y370047D01*
X233500Y364657D02*
Y370047D01*
X240000Y364657D02*
Y370047D01*
X246500Y364657D02*
Y370047D01*
X253000Y364657D02*
Y370047D01*
X259500Y364657D02*
Y370047D01*
X165000Y382929D02*
Y385193D01*
X162500Y375453D02*
X169294Y382246D01*
X164317D02*
X165000Y382929D01*
X174317Y380770D02*
Y384510D01*
X188500Y375453D02*
Y381429D01*
X200000Y380187D02*
Y385193D01*
X169317Y382246D02*
X170000Y382929D01*
X156000Y364500D02*
Y369547D01*
Y375453D02*
X162794Y382246D01*
X164317D01*
X162500Y364657D02*
Y369547D01*
X170000Y382929D02*
Y385193D01*
X169294Y382246D02*
X169317D01*
X169000Y364657D02*
Y369547D01*
Y375453D02*
X174317Y380770D01*
Y384510D02*
X175000Y385193D01*
X175500Y364657D02*
Y369547D01*
Y375453D02*
X180000Y379953D01*
Y385193D01*
X182000Y364657D02*
Y369547D01*
Y375453D02*
X185000Y378453D01*
Y385193D01*
X188500Y364657D02*
Y369547D01*
Y381429D02*
X190000Y382929D01*
Y385193D01*
X195000Y364657D02*
Y369547D01*
Y375453D02*
Y385193D01*
X201500Y364657D02*
Y369547D01*
X200000Y380187D02*
X201500Y378687D01*
Y375453D02*
Y378687D01*
X267000Y365059D02*
Y383000D01*
X269500Y385500D02*
X275000D01*
X267000Y383000D02*
X269500Y385500D01*
X208000Y364618D02*
X208500Y365118D01*
Y381000D01*
X215000Y383431D02*
Y385500D01*
X214317Y382748D02*
X215000Y383431D01*
X210248Y382748D02*
X214317D01*
X208500Y381000D02*
X210248Y382748D01*
X136807Y385193D02*
X157193D01*
X149500Y364559D02*
Y377500D01*
X157193Y385193D02*
X160000D01*
X149500Y377500D02*
X157193Y385193D01*
X132000Y390000D02*
X136807Y385193D01*
X195000Y421807D02*
X195161Y421646D01*
Y414598D02*
Y421646D01*
X184909Y421717D02*
X185000Y421807D01*
X184909Y411828D02*
Y421717D01*
X184819Y411737D02*
X184909Y411828D01*
X174936Y421743D02*
X175000Y421807D01*
X174936Y412315D02*
Y421743D01*
X174873Y412252D02*
X174936Y412315D01*
X170000Y414000D02*
Y421807D01*
X164750Y421557D02*
X165000Y421807D01*
X164750Y414250D02*
Y421557D01*
X164500Y414000D02*
X164750Y414250D01*
X142747Y324500D02*
X143000D01*
X138559Y325803D02*
Y326000D01*
X141247D02*
X142747Y324500D01*
X168400Y284900D02*
X174000Y290500D01*
X161900Y284900D02*
X168400D01*
X161500Y284500D02*
X161900Y284900D01*
X191071Y314000D02*
X208000D01*
X177535Y300465D02*
X191071Y314000D01*
X177535Y286965D02*
Y300465D01*
X170471Y279900D02*
X177535Y286965D01*
X161900Y279900D02*
X170471D01*
X161500Y279500D02*
X161900Y279900D01*
X285000Y283500D02*
X286600Y281900D01*
X282500Y283500D02*
X285000D01*
X286600Y274984D02*
Y281900D01*
X286131Y274516D02*
X286600Y274984D01*
X282516Y274516D02*
X286131D01*
X282516Y274516D02*
X282516Y274516D01*
X261000Y296750D02*
Y299500D01*
X196500Y269500D02*
X216000Y289000D01*
X161500Y269500D02*
X196500D01*
X250735Y301068D02*
Y301229D01*
X221000Y287022D02*
Y307500D01*
X198478Y264500D02*
X221000Y287022D01*
X161500Y264500D02*
X198478D01*
X226264Y274500D02*
X228429D01*
X214957Y263193D02*
X226264Y274500D01*
X200000Y263193D02*
X214957D01*
X149158Y231000D02*
X154000D01*
X156000Y247835D02*
Y252000D01*
X153834Y254166D02*
X156000Y252000D01*
X160417Y244500D02*
X161500D01*
X156000Y247835D02*
X159335Y244500D01*
X140500Y265500D02*
X141500Y264500D01*
X135500Y266000D02*
X136000Y265500D01*
X140500D01*
X153834Y254166D02*
Y258003D01*
X161500Y259500D02*
X167309D01*
X154128Y295872D02*
X160128D01*
X161500Y294500D01*
X139136Y296636D02*
X142353Y299853D01*
X150147D01*
X136136Y296636D02*
X139136D01*
X150147Y299853D02*
X154128Y295872D01*
X135500Y296000D02*
X136136Y296636D01*
X145500Y296000D02*
X152000Y289500D01*
X161500D01*
X233000Y224000D02*
X238500Y229500D01*
X193000Y224000D02*
X233000D01*
X186669Y217669D02*
X193000Y224000D01*
X186669Y181169D02*
Y217669D01*
X178518Y173018D02*
X186669Y181169D01*
X177981Y173018D02*
X178518D01*
X177791Y173208D02*
X177981Y173018D01*
X178518Y163341D02*
Y173018D01*
X155000Y300000D02*
X161000D01*
X161500Y299500D01*
X135500Y306000D02*
X140000Y301500D01*
X153500D02*
X155000Y300000D01*
X140000Y301500D02*
X153500D01*
X160128Y305872D02*
X161500Y304500D01*
X145628Y305872D02*
X160128D01*
X145500Y306000D02*
X145628Y305872D01*
X228429Y304500D02*
X236500D01*
X193933Y222433D02*
X234433D01*
X188069Y180069D02*
Y216569D01*
X193933Y222433D01*
X180618Y172618D02*
X188069Y180069D01*
X180487Y163341D02*
Y172017D01*
X243500Y341000D02*
X247262Y344761D01*
X243500Y319500D02*
Y341000D01*
X238500Y314500D02*
X243500Y319500D01*
X228429Y314500D02*
X238500D01*
X269523Y320523D02*
X270500Y321500D01*
X269523Y318523D02*
Y320523D01*
X264500Y313500D02*
X269523Y318523D01*
X264500Y297593D02*
Y313500D01*
X247947Y346447D02*
X250500Y349000D01*
X245947Y346447D02*
X247947D01*
X241500Y342000D02*
X245947Y346447D01*
X241500Y329000D02*
Y342000D01*
X235000Y322500D02*
X241500Y329000D01*
X222000Y322500D02*
X235000D01*
X211500Y312000D02*
X222000Y322500D01*
X211500Y289487D02*
Y312000D01*
X196513Y274500D02*
X211500Y289487D01*
X161500Y274500D02*
X196513D01*
X279523Y320523D02*
X280500Y321500D01*
X266500Y309500D02*
X277523Y320523D01*
X279523D01*
X266500Y297755D02*
Y309500D01*
X216600Y257856D02*
X216797Y257660D01*
Y251231D02*
X217465Y250563D01*
X216797Y253396D02*
Y257660D01*
X209193Y261000D02*
X216797Y253396D01*
Y251231D02*
Y253396D01*
X227366Y250563D02*
X228429Y249500D01*
X217465Y250563D02*
X227366D01*
X175500Y224500D02*
X184500Y233500D01*
X149158Y224500D02*
X175500D01*
X221500Y259500D02*
X228429D01*
X138559Y326000D02*
X141247D01*
X228429Y254500D02*
X234621D01*
X138453Y224500D02*
X143842D01*
X138453Y231000D02*
X143842D01*
X138453Y237500D02*
X143842D01*
X138500Y244000D02*
X143842D01*
X138500Y250500D02*
X143890D01*
X156000Y255500D02*
X157000Y254500D01*
X155000Y269500D02*
X156000Y268500D01*
Y255500D02*
Y268500D01*
X157000Y254500D02*
X160417D01*
X298000Y259000D02*
Y267258D01*
X299969Y269227D01*
X287925Y248925D02*
X298000Y259000D01*
X300065Y258565D02*
Y261427D01*
X302441Y263803D01*
X287472Y245972D02*
X300065Y258565D01*
X299969Y269227D02*
X301365D01*
X291000Y267500D02*
Y291113D01*
X288000Y264500D02*
X291000Y267500D01*
X288559Y288000D02*
X289500Y287059D01*
Y269789D02*
Y287059D01*
X286550Y266839D02*
X289500Y269789D01*
X291000Y291113D02*
X292270Y292383D01*
X246559Y253303D02*
Y253500D01*
Y253303D02*
X249854Y250008D01*
X276876Y269398D02*
X282516D01*
X252500Y305012D02*
X261000D01*
X260500Y305512D02*
Y321500D01*
Y305512D02*
X261000Y305012D01*
X258946Y287529D02*
X274802Y303386D01*
X290871D01*
X295000Y327362D02*
X302441Y334803D01*
X295000Y307515D02*
Y327362D01*
X296500Y322421D02*
X302382Y328303D01*
X296500Y307176D02*
Y322421D01*
X302382Y328303D02*
Y328500D01*
X290871Y303386D02*
X295000Y307515D01*
X302441Y334803D02*
Y335000D01*
X255720Y261720D02*
X259484D01*
X252500Y266000D02*
X255898Y269398D01*
X259484Y259161D02*
X261354D01*
X269257Y266776D02*
Y266776D01*
X261354Y259161D02*
X262226Y260033D01*
X262514D02*
X269257Y266776D01*
X262226Y260033D02*
X262514D01*
X255898Y269398D02*
X259484D01*
X246559Y266100D02*
X250600D01*
X259097Y271569D02*
X259484Y271957D01*
X256069Y271569D02*
X259097D01*
X250600Y266100D02*
X256069Y271569D01*
X253016Y274516D02*
X259484D01*
X246559Y272400D02*
X250900D01*
X253016Y274516D01*
X253437Y277075D02*
X259484D01*
X246559Y278700D02*
X251812D01*
X253437Y277075D01*
X246559Y284803D02*
Y285000D01*
Y284803D02*
X247635Y283727D01*
X247832D01*
X251532Y280028D01*
X259484D01*
X253455Y254455D02*
X255602Y256602D01*
X253455Y246045D02*
Y254455D01*
X255602Y256602D02*
X259484D01*
X269257Y266776D02*
X276000Y273519D01*
Y290936D01*
X253455Y246045D02*
X262500Y237000D01*
X299941D01*
X261354Y248925D02*
X268075D01*
X299941Y237000D02*
X301168Y238227D01*
X278700Y238300D02*
X295438D01*
X268075Y248925D02*
X278700Y238300D01*
X262126Y265051D02*
X262556D01*
X274700Y277195D01*
X302441Y322303D02*
Y322500D01*
X261354Y264280D02*
X262126Y265051D01*
X273400Y278454D02*
Y292013D01*
X274700Y277195D02*
Y291475D01*
X261354Y266839D02*
X262126Y267610D01*
X262556D02*
X273400Y278454D01*
X262126Y267610D02*
X262556D01*
X312535Y224616D02*
Y240694D01*
X323102Y302012D02*
X324079Y301035D01*
Y251035D02*
Y255587D01*
X321250Y302012D02*
X323102D01*
X324079Y281035D02*
Y281863D01*
X307559Y309336D02*
X323102Y293794D01*
X307559Y334803D02*
X308635Y333727D01*
X320897D01*
X323588Y331035D02*
X324079D01*
X323102Y292012D02*
X324079Y291035D01*
X318803Y266312D02*
X324079Y261035D01*
X307559Y290236D02*
Y290433D01*
Y290236D02*
X318803Y278993D01*
Y266312D02*
Y278993D01*
X307559Y227754D02*
X314380Y220933D01*
Y190734D02*
Y220933D01*
Y190734D02*
X324079Y181035D01*
X307559Y227754D02*
Y239500D01*
Y283870D02*
Y284067D01*
X317503Y262163D02*
X324079Y255587D01*
X317503Y262163D02*
Y273926D01*
X307559Y283870D02*
X317503Y273926D01*
X307559Y277503D02*
X316203Y268860D01*
Y259803D02*
Y268860D01*
X319035Y246079D02*
X324079Y241035D01*
X316203Y259803D02*
X319035Y256971D01*
X307559Y277503D02*
Y277700D01*
X319035Y246079D02*
Y256971D01*
X314903Y259265D02*
X317735Y256432D01*
X314903Y259265D02*
Y263793D01*
X317735Y237379D02*
X324079Y231035D01*
X307559Y271136D02*
X314903Y263793D01*
X307559Y271136D02*
Y271333D01*
X317735Y237379D02*
Y256432D01*
X316435Y228679D02*
Y255894D01*
X307559Y264770D02*
Y264967D01*
X316435Y228679D02*
X324079Y221035D01*
X307559Y264770D02*
X316435Y255894D01*
X315135Y225693D02*
X318469Y222360D01*
Y216646D02*
Y222360D01*
Y216646D02*
X324079Y211035D01*
X307559Y258403D02*
Y258600D01*
Y258403D02*
X315135Y250827D01*
Y225693D02*
Y250827D01*
X307559Y252036D02*
X313835Y245760D01*
X317169Y207945D02*
Y221821D01*
X313835Y225155D02*
Y245760D01*
X307559Y252036D02*
Y252233D01*
X317169Y207945D02*
X324079Y201035D01*
X313835Y225155D02*
X317169Y221821D01*
X316481Y328633D02*
X324079Y321035D01*
X307500Y328633D02*
X316481D01*
X312848Y322267D02*
X324079Y311035D01*
X307559Y322267D02*
X312848D01*
X307559Y334803D02*
Y335000D01*
X320897Y333727D02*
X323588Y331035D01*
X307559Y315703D02*
X321250Y302012D01*
X307559Y315703D02*
Y315900D01*
X323102Y292012D02*
Y293794D01*
X307559Y309336D02*
Y309533D01*
Y302970D02*
Y303167D01*
X315869Y290073D02*
Y294660D01*
Y290073D02*
X324079Y281863D01*
X307559Y302970D02*
X315869Y294660D01*
X320103Y275011D02*
Y284000D01*
X307500Y296603D02*
X320103Y284000D01*
X307500Y296603D02*
Y296800D01*
X320103Y275011D02*
X324079Y271035D01*
X312535Y224616D02*
X315869Y221283D01*
Y199246D02*
X324079Y191035D01*
X315869Y199246D02*
Y221283D01*
X307559Y245670D02*
Y245867D01*
Y245670D02*
X312535Y240694D01*
X301365Y309424D02*
X302441Y310500D01*
X301365Y306660D02*
Y309424D01*
X292270Y297566D02*
X301365Y306660D01*
X292270Y292383D02*
Y297566D01*
X295438Y238300D02*
X302441Y245303D01*
Y239303D02*
Y239500D01*
X301365Y238227D02*
X302441Y239303D01*
X301168Y238227D02*
X301365D01*
X282516Y266839D02*
X286550D01*
X291748Y300586D02*
X298000Y306838D01*
X291310Y301986D02*
X296500Y307176D01*
X298000Y306838D02*
Y317862D01*
X279272Y300586D02*
X291748D01*
X278693Y301986D02*
X291310D01*
X275070Y296384D02*
X279272Y300586D01*
X298000Y317862D02*
X302441Y322303D01*
X301365Y269227D02*
X301903Y269765D01*
X284773Y264500D02*
X288000D01*
X282516Y245972D02*
X287472D01*
X282516Y248925D02*
X287925D01*
X279444Y243791D02*
X288929D01*
X293529Y242391D02*
X302441Y251303D01*
Y263803D02*
Y264000D01*
Y245303D02*
Y245500D01*
X278864Y242391D02*
X293529D01*
X302441Y251303D02*
Y251500D01*
Y257303D02*
Y257500D01*
X288929Y243791D02*
X302441Y257303D01*
X282516Y256602D02*
X284386D01*
X273770Y297063D02*
X278693Y301986D01*
X275070Y291845D02*
Y296384D01*
X276370Y295704D02*
X279852Y299186D01*
X276000Y290936D02*
X276370Y291306D01*
X273400Y292013D02*
X273770Y292383D01*
Y297063D01*
X274700Y291475D02*
X275070Y291845D01*
X276370Y291306D02*
Y295704D01*
X151130Y149110D02*
X154504Y145736D01*
X174581Y143276D02*
Y147187D01*
X182455Y163341D02*
X182521Y163407D01*
X172130Y142807D02*
X174112D01*
X182521Y163407D02*
Y169934D01*
X169427Y154250D02*
X169457Y154279D01*
X172613Y143290D02*
Y147187D01*
X174112Y142807D02*
X174581Y143276D01*
X174500Y163422D02*
Y168000D01*
X182521Y169934D02*
X182587Y170000D01*
X163762Y154148D02*
X163864Y154250D01*
X169427D01*
X172130Y142807D02*
X172613Y143290D01*
X174500Y163422D02*
X174581Y163341D01*
X288128Y308301D02*
X289500Y306929D01*
X259484Y266839D02*
X261354D01*
X278858Y244377D02*
X279444Y243791D01*
X276500Y244756D02*
X278864Y242391D01*
X257614Y271957D02*
X259484D01*
Y264280D02*
X261354D01*
X272957Y254043D02*
X278858Y248142D01*
X273016Y251484D02*
X276500Y248000D01*
X278858Y244377D02*
Y248142D01*
X276500Y244756D02*
Y248000D01*
X281039Y280028D02*
X282516D01*
X280250Y286986D02*
X280258Y286978D01*
Y280809D02*
Y286978D01*
X280250Y294528D02*
X289500D01*
X280258Y280809D02*
X281039Y280028D01*
X280250Y286986D02*
Y294528D01*
X259484Y254043D02*
X272957D01*
X259484Y251484D02*
X273016D01*
X197319Y206504D02*
Y206799D01*
X192535Y211335D02*
Y214504D01*
X197654D02*
Y214701D01*
X192535Y211335D02*
X195995Y207876D01*
X196242D01*
X197319Y206799D01*
X197654Y214701D02*
X199025Y216072D01*
X199222D01*
X212000Y203500D02*
Y214591D01*
X227000D02*
Y215772D01*
X197319Y206504D02*
X205496D01*
X203071Y219921D02*
X222850D01*
X227000Y215772D01*
X199222Y216072D02*
X203071Y219921D01*
X205705Y126945D02*
X214000D01*
X197362Y179500D02*
X197862Y179000D01*
X197559Y189303D02*
Y189500D01*
X192441Y197303D02*
Y197500D01*
Y197303D02*
X197276Y192469D01*
X212000Y178409D02*
Y179551D01*
X209250Y182301D02*
X212000Y179551D01*
X227500Y177768D02*
Y178909D01*
X197862Y179000D02*
X202000D01*
X204561Y182301D02*
X209250D01*
X197276Y192469D02*
X225532D01*
X197559Y197500D02*
X206000D01*
X197559Y189303D02*
X204561Y182301D01*
X206000Y197500D02*
X212000Y203500D01*
X225532Y192469D02*
X232500Y185500D01*
X230346Y127500D02*
X230902Y126945D01*
X232500Y157500D02*
Y185500D01*
X231000Y156000D02*
X232500Y157500D01*
X220232Y170500D02*
X227500Y177768D01*
X141909Y156902D02*
X141918Y156893D01*
X150630Y154342D02*
X151130Y153842D01*
X154504Y145343D02*
Y145736D01*
X154076Y145771D02*
X154504Y145343D01*
X160409D02*
X165094D01*
X160409D02*
Y145736D01*
X170961Y128795D02*
X174676Y132510D01*
Y132806D01*
X169384Y156321D02*
X169457Y156248D01*
X185611Y154279D02*
X189330D01*
X199000Y153500D02*
X199500Y154000D01*
Y158752D01*
X194996Y153500D02*
X199000D01*
X204095Y119500D02*
X205705Y117890D01*
X205213Y146945D02*
X205803D01*
X203250Y148907D02*
X205213Y146945D01*
X203250Y148907D02*
Y148930D01*
X201176Y151004D02*
X203250Y148930D01*
X205803Y156000D02*
Y159385D01*
X203250Y162502D02*
Y163093D01*
X205213Y165055D01*
X205803D01*
X210999Y146945D02*
X211031Y146978D01*
X151130Y149110D02*
Y153842D01*
X157630Y148516D02*
Y152106D01*
X160409Y138842D02*
Y145343D01*
X176550Y134384D02*
Y147187D01*
X186541Y143710D02*
X190128D01*
X198000Y120000D02*
X198500Y119500D01*
X192500Y151004D02*
X194996Y153500D01*
X198303Y142811D02*
Y145886D01*
X205114Y136000D02*
X205705D01*
X205000Y160188D02*
Y160500D01*
Y160188D02*
X205803Y159385D01*
X198000Y120000D02*
Y134306D01*
X157630Y148516D02*
X160409Y145736D01*
X141909Y154342D02*
X150630D01*
X152097D01*
X154076Y156321D01*
X141918Y156893D02*
X150130D01*
X174676Y132806D02*
X175752Y133882D01*
X168047Y128795D02*
X170961D01*
X176047Y133882D02*
X176550Y134384D01*
X175752Y133882D02*
X176047D01*
X167630Y142807D02*
X172130D01*
X192303Y151004D02*
X192500D01*
X189330Y154279D02*
X191991Y156941D01*
X195500D01*
X198500Y119500D02*
X204095D01*
X198303Y151004D02*
X201176D01*
X205803Y146945D02*
X210999D01*
X165094Y145343D02*
X167630Y142807D01*
X192303Y140003D02*
Y145886D01*
X190128Y143710D02*
X192303Y145886D01*
X199500Y158752D02*
X203250Y162502D01*
X198303Y142811D02*
X205114Y136000D01*
X154076Y156321D02*
X169384D01*
X192303Y140003D02*
X198000Y134306D01*
X205803Y156000D02*
X231000D01*
X214000Y127500D02*
X230346D01*
X197000Y170500D02*
X220232D01*
D103*
X132500Y217567D02*
Y250406D01*
X240027Y108047D02*
X244000D01*
X238000Y110074D02*
X240027Y108047D01*
X238000Y110074D02*
Y113500D01*
X286500Y113862D02*
X294808D01*
X275870D02*
X286500D01*
X275000Y111000D02*
Y112992D01*
X275870Y113862D01*
X294946Y114000D02*
X295000D01*
X294808Y113862D02*
X294946Y114000D01*
X293249Y109138D02*
X293355Y109243D01*
X286500Y109138D02*
X293249D01*
X291500Y132000D02*
Y140138D01*
X265000Y149386D02*
X274248Y140138D01*
X291500D01*
X265000Y149386D02*
Y185614D01*
X264500Y186114D02*
X265000Y185614D01*
X153000Y216000D02*
X154138Y217138D01*
X149926Y212926D02*
X153000Y216000D01*
X152000Y219000D02*
X152038Y218962D01*
Y216962D02*
Y218962D01*
Y216962D02*
X153000Y216000D01*
X163565Y196459D02*
X163603Y196497D01*
X160402Y192295D02*
X163565Y195458D01*
Y196459D01*
X142500Y340672D02*
Y352500D01*
X246500Y359441D02*
X253000D01*
X182000D02*
X188500D01*
X280500D02*
X287000D01*
X208000D02*
X214000D01*
X148827Y358827D02*
Y358965D01*
X149500Y359441D02*
X156000D01*
X162500D01*
X240000D02*
X246500D01*
X259500D02*
X267000D01*
X175500D02*
X182000D01*
X267000D02*
X274000D01*
X195000D02*
X201500D01*
X293500D02*
X300000D01*
X274000D02*
X280500D01*
X201500D02*
X208000D01*
X142500Y352500D02*
X148827Y358827D01*
X233500Y359441D02*
X240000D01*
X169000D02*
X175500D01*
X220500D02*
X227000D01*
X287000D02*
X293500D01*
X214000D02*
X220500D01*
X306500D02*
X313059D01*
X149701Y359839D02*
X149839D01*
X227000Y359441D02*
X233500D01*
X253000D02*
X259500D01*
X188500D02*
X195000D01*
X162500D02*
X169000D01*
X148827Y358965D02*
X149701Y359839D01*
X300000Y359441D02*
X306500D01*
X129500Y339500D02*
X141328D01*
X142500Y340672D01*
X316181Y356319D02*
X319205Y359343D01*
X297500Y337638D02*
X316181Y356319D01*
X313059Y359441D02*
X316181Y356319D01*
X319205Y359343D02*
X319500D01*
X297500Y334000D02*
Y337638D01*
X132500Y250406D02*
X132595Y250500D01*
X137205Y212862D02*
X137500D01*
X132500Y217567D02*
X137205Y212862D01*
X146000Y327547D02*
X150057Y323490D01*
Y319500D02*
Y323490D01*
Y319500D02*
X160000D01*
X145500Y316000D02*
X146557D01*
X150057Y319500D01*
X137500Y212862D02*
X146500D01*
X154138Y217138D02*
X158098D01*
X146564Y212926D02*
X149926D01*
X158098Y217138D02*
X158673Y217713D01*
X146500Y212862D02*
X146564Y212926D01*
X127547Y181953D02*
Y337547D01*
X129500Y339500D01*
X292500Y321500D02*
Y329000D01*
X297500Y334000D01*
X289500Y318500D02*
X292500Y321500D01*
X291500Y152285D02*
X311215Y172000D01*
X312500D01*
X344079Y321035D02*
Y331035D01*
Y311035D02*
Y321035D01*
Y301035D02*
Y311035D01*
Y291035D02*
Y301035D01*
Y281035D02*
Y291035D01*
Y271035D02*
Y281035D01*
Y261035D02*
Y271035D01*
Y251035D02*
Y261035D01*
Y241035D02*
Y251035D01*
Y231035D02*
Y241035D01*
Y221035D02*
Y231035D01*
Y211035D02*
Y221035D01*
Y201035D02*
Y211035D01*
Y191035D02*
Y201035D01*
Y181035D02*
Y191035D01*
X334079Y321035D02*
Y331035D01*
Y311035D02*
Y321035D01*
Y301035D02*
Y311035D01*
Y291035D02*
Y301035D01*
Y281035D02*
Y291035D01*
Y271035D02*
Y281035D01*
Y261035D02*
Y271035D01*
Y251035D02*
Y261035D01*
Y241035D02*
Y251035D01*
Y231035D02*
Y241035D01*
Y221035D02*
Y231035D01*
Y211035D02*
Y221035D01*
Y201035D02*
Y211035D01*
Y191035D02*
Y201035D01*
Y181035D02*
Y191035D01*
X325043Y172000D02*
X334079Y181035D01*
X312500Y172000D02*
X325043D01*
X292000Y177862D02*
X306638D01*
X312500Y172000D01*
X288500Y207343D02*
X299158Y218000D01*
X288500Y203500D02*
Y207343D01*
X301500Y151342D02*
X309157Y159000D01*
X332658D02*
X333000Y159343D01*
X309157Y159000D02*
X332658D01*
X284000Y224547D02*
X284024Y224524D01*
X289476D01*
X289500Y224500D01*
X291705Y177862D02*
X292000D01*
X291228Y178339D02*
X291705Y177862D01*
X291228Y178339D02*
Y178634D01*
X288500Y181362D02*
X291228Y178634D01*
X288500Y181362D02*
Y193500D01*
X289500Y313245D02*
Y318500D01*
X271362Y289689D02*
Y294166D01*
Y289689D02*
X271400Y289651D01*
X271000Y294528D02*
X271362Y294166D01*
X158433Y192295D02*
X160402D01*
X157000Y170000D02*
X160110Y173110D01*
X140492Y164037D02*
X140500Y164045D01*
Y173500D01*
X166847Y174921D02*
X181500Y189575D01*
X134500Y181000D02*
Y183177D01*
X136130Y184807D01*
X280250Y308751D02*
X283022Y311522D01*
X280250Y306929D02*
Y308751D01*
X289500Y306929D02*
Y313245D01*
X279500Y315000D02*
X287745D01*
X289500Y313245D01*
X273172Y311328D02*
X275828D01*
X279500Y315000D01*
X271000Y306929D02*
X271098D01*
X271870Y307701D01*
Y310027D01*
X273172Y311328D01*
X146126Y184402D02*
X146224D01*
X139724Y178000D02*
X146126Y184402D01*
X131500Y178000D02*
X139724D01*
X127547Y181953D02*
X131500Y178000D01*
X285000Y207000D02*
X288500Y203500D01*
Y193500D02*
Y203500D01*
X275990Y207000D02*
X285000D01*
X254500Y219480D02*
Y224500D01*
Y219480D02*
X255370Y218610D01*
X264380D01*
X275990Y207000D01*
X274500Y219480D02*
Y224500D01*
Y219480D02*
X280942Y213038D01*
X284462D01*
X284500Y213000D01*
X300328Y123500D02*
X301500Y124672D01*
X259000Y123500D02*
X300328D01*
X255870Y120370D02*
X259000Y123500D01*
X301500Y124672D02*
Y151342D01*
X291500Y144862D02*
Y152285D01*
X254500Y224500D02*
X254638Y224638D01*
X262500D01*
X274500Y224500D02*
X274547Y224547D01*
X284000D01*
X244000Y113953D02*
X244559D01*
X247512Y111000D01*
X255000D01*
X284500Y213000D02*
X284538Y212962D01*
X291500Y166453D02*
X295493D01*
X295946Y166000D01*
X296000D01*
X291500Y144862D02*
X295138D01*
X297000Y143000D01*
X255870Y111870D02*
Y120370D01*
X255000Y111000D02*
X255870Y111870D01*
X151382Y201862D02*
X157547D01*
X146224Y173426D02*
X148630Y171020D01*
X147500Y196339D02*
Y196437D01*
X146728Y197209D02*
X147500Y196437D01*
X146630Y197209D02*
X146728D01*
X146224Y173426D02*
Y184402D01*
X155764Y174921D02*
Y175118D01*
X136130Y197209D02*
X146630D01*
X151224Y179657D02*
X155764Y175118D01*
X151224Y179657D02*
Y192614D01*
X146728Y197209D02*
X151382Y201862D01*
X147500Y196339D02*
X151224Y192614D01*
X160685Y174921D02*
X166847D01*
X148630Y161008D02*
Y165106D01*
X157032D02*
X157630Y164508D01*
X148630Y165106D02*
Y171020D01*
Y165106D02*
X157032D01*
D104*
X158673Y212949D02*
X177024D01*
X153000Y245973D02*
Y249000D01*
X152297Y245270D02*
X153000Y245973D01*
X150132Y245270D02*
X152297D01*
X149158Y244295D02*
X150132Y245270D01*
X149158Y244000D02*
Y244295D01*
X161000Y314500D02*
X161500D01*
X154475Y212791D02*
X158673D01*
X150072Y208388D02*
X154475Y212791D01*
X146750Y208388D02*
X150072D01*
X146500Y208138D02*
X146750Y208388D01*
X137500Y208138D02*
X146500D01*
X138559Y333500D02*
X138606Y333453D01*
X147000D01*
X177024Y212949D02*
X177673Y212299D01*
X160402Y183240D02*
X165405D01*
X158433D02*
X160402D01*
X164207Y150798D02*
X165720Y152311D01*
X163630Y150606D02*
X163900D01*
X164164Y150343D01*
X163821Y150798D02*
X164207D01*
X164164Y150343D02*
X169457D01*
X163630Y150606D02*
X163821Y150798D01*
X165720Y152311D02*
X169457D01*
X159961Y131500D02*
Y131697D01*
X162149Y133885D01*
X163885D01*
X164000Y134000D01*
X148630Y161008D02*
X151163D01*
X151296Y160875D01*
X172049Y138309D02*
X173309D01*
X173500Y138500D01*
X147083Y159461D02*
X148630Y161008D01*
X168047Y134701D02*
X168441D01*
X184597Y133931D02*
X191998D01*
X184547Y133882D02*
X184597Y133931D01*
X167654Y134701D02*
X168047D01*
X141909Y159461D02*
X147083D01*
X184547Y133882D02*
Y137682D01*
X168441Y134701D02*
X172049Y138309D01*
X159961Y131500D02*
X164453D01*
X167654Y134701D01*
D105*
X206788Y229500D02*
X208385Y231097D01*
Y233885D02*
X208500Y234000D01*
X208385Y231097D02*
Y233885D01*
X195465Y229500D02*
X206788D01*
X158000Y183673D02*
Y187500D01*
X134676Y316824D02*
X135500Y316000D01*
X139753Y311747D02*
X148264D01*
X151017Y314500D01*
X135500Y316000D02*
X139753Y311747D01*
X161683Y314317D02*
X169277D01*
X169392Y314202D01*
X151017Y314500D02*
X161000D01*
X133441Y326000D02*
Y333500D01*
X134676Y316824D02*
Y320691D01*
X133441Y321927D02*
X134676Y320691D01*
X133441Y321927D02*
Y326000D01*
X161500Y314500D02*
X161683Y314317D01*
X177673Y212299D02*
X178264D01*
X195465Y229500D01*
X177083Y212299D02*
X177673D01*
X175914Y211131D02*
X177083Y212299D01*
X175914Y210540D02*
Y211131D01*
X173000Y207626D02*
X175914Y210540D01*
X160402Y183240D02*
X173000Y195839D01*
Y207626D01*
D106*
X260500Y349000D02*
D03*
X290500D02*
D03*
X300500D02*
D03*
X280500D02*
D03*
X270500D02*
D03*
X260500Y335500D02*
D03*
X270500D02*
D03*
X280500D02*
D03*
X290500D02*
D03*
X145500Y286000D02*
D03*
X135500Y266000D02*
D03*
Y276000D02*
D03*
Y296000D02*
D03*
X145500D02*
D03*
X168000Y115500D02*
D03*
X135500Y306000D02*
D03*
X145500D02*
D03*
X178000Y115500D02*
D03*
X270500Y321500D02*
D03*
X280500D02*
D03*
X135500Y286000D02*
D03*
X331500Y377500D02*
D03*
Y389000D02*
D03*
X142000Y390000D02*
D03*
X135500Y316000D02*
D03*
X145500D02*
D03*
Y276000D02*
D03*
X260500Y321500D02*
D03*
X344079Y331035D02*
D03*
Y321035D02*
D03*
Y311035D02*
D03*
Y301035D02*
D03*
Y291035D02*
D03*
Y281035D02*
D03*
Y271035D02*
D03*
Y261035D02*
D03*
Y251035D02*
D03*
Y241035D02*
D03*
Y231035D02*
D03*
Y221035D02*
D03*
Y211035D02*
D03*
Y201035D02*
D03*
Y191035D02*
D03*
X334079Y331035D02*
D03*
Y321035D02*
D03*
Y311035D02*
D03*
Y301035D02*
D03*
Y291035D02*
D03*
Y281035D02*
D03*
Y271035D02*
D03*
Y261035D02*
D03*
Y251035D02*
D03*
Y241035D02*
D03*
Y231035D02*
D03*
Y221035D02*
D03*
Y211035D02*
D03*
Y201035D02*
D03*
Y191035D02*
D03*
X324079Y331035D02*
D03*
Y321035D02*
D03*
Y311035D02*
D03*
Y301035D02*
D03*
Y291035D02*
D03*
Y281035D02*
D03*
Y271035D02*
D03*
Y261035D02*
D03*
Y251035D02*
D03*
Y241035D02*
D03*
Y231035D02*
D03*
Y221035D02*
D03*
Y211035D02*
D03*
Y201035D02*
D03*
Y191035D02*
D03*
X188000Y115500D02*
D03*
D107*
X250500Y349000D02*
D03*
Y335500D02*
D03*
X341500Y377500D02*
D03*
Y389000D02*
D03*
X132000Y390000D02*
D03*
X250500Y321500D02*
D03*
X158000Y115500D02*
D03*
D108*
X145500Y266000D02*
D03*
X344079Y181035D02*
D03*
X334079D02*
D03*
X324079D02*
D03*
D109*
X309000Y192000D02*
D03*
Y218000D02*
D03*
D110*
X299158Y192000D02*
D03*
Y218000D02*
D03*
D111*
X333000Y159343D02*
D03*
D112*
Y139657D02*
D03*
D113*
X338000Y113000D02*
D03*
Y415500D02*
D03*
X136500D02*
D03*
Y113000D02*
D03*
D114*
X289585Y169445D02*
D03*
X293277Y233391D02*
D03*
X182664Y256836D02*
D03*
X180062Y414613D02*
D03*
X189086Y410914D02*
D03*
X200000Y411000D02*
D03*
X208000Y386500D02*
D03*
Y319000D02*
D03*
X216000Y307500D02*
D03*
X221000D02*
D03*
X180500Y319500D02*
D03*
X133215Y255540D02*
D03*
X146500Y257500D02*
D03*
X168900Y258334D02*
D03*
X170600Y261000D02*
D03*
X173500Y257500D02*
D03*
X130500Y132500D02*
D03*
X192000Y124000D02*
D03*
X238000Y113500D02*
D03*
X295000Y114000D02*
D03*
X293355Y109243D02*
D03*
X291500Y132000D02*
D03*
X152000Y219000D02*
D03*
X173500Y190500D02*
D03*
X270000Y421500D02*
D03*
X211000D02*
D03*
X155000D02*
D03*
X278000Y277000D02*
D03*
X256626Y287529D02*
D03*
X242664Y289336D02*
D03*
X249854Y249821D02*
D03*
X236500Y299500D02*
D03*
X205947Y232053D02*
D03*
X163603Y196497D02*
D03*
X258960Y295700D02*
D03*
X252500Y258500D02*
D03*
X274503Y267024D02*
D03*
X235500Y254000D02*
D03*
X208000Y204000D02*
D03*
X240500Y236500D02*
D03*
X238500Y239000D02*
D03*
X158000Y187500D02*
D03*
X205000Y297500D02*
D03*
X170000Y309500D02*
D03*
X268000Y388000D02*
D03*
X305000Y413500D02*
D03*
X300265Y409370D02*
D03*
X294436Y407888D02*
D03*
X290287Y410950D02*
D03*
X284952Y409962D02*
D03*
X279815Y413321D02*
D03*
X250000Y410000D02*
D03*
X256500Y415500D02*
D03*
X240000Y320111D02*
D03*
X244799Y413701D02*
D03*
X256500Y298500D02*
D03*
X240500Y414000D02*
D03*
X235000Y413000D02*
D03*
X230000D02*
D03*
X225000Y411000D02*
D03*
X220000Y411500D02*
D03*
X195161Y414598D02*
D03*
X184819Y411737D02*
D03*
X174873Y412252D02*
D03*
X170000Y414000D02*
D03*
X164500D02*
D03*
X143000Y324500D02*
D03*
X169392Y314202D02*
D03*
X208000Y314000D02*
D03*
X282500Y283500D02*
D03*
X200000Y263193D02*
D03*
X154000Y231000D02*
D03*
X153000Y249000D02*
D03*
X177791Y173208D02*
D03*
X236500Y304500D02*
D03*
X180735Y172265D02*
D03*
X216600Y257856D02*
D03*
X221500Y259500D02*
D03*
X208500Y234000D02*
D03*
X277655Y272395D02*
D03*
X262500Y233500D02*
D03*
X265500Y242500D02*
D03*
X271400Y289651D02*
D03*
X174500Y168000D02*
D03*
X163762Y154148D02*
D03*
X182587Y170000D02*
D03*
X163630Y150606D02*
D03*
X157000Y170000D02*
D03*
X140500Y173500D02*
D03*
X190500Y185000D02*
D03*
X181500Y183000D02*
D03*
X134500Y181000D02*
D03*
X283022Y311522D02*
D03*
X164000Y134000D02*
D03*
X284500Y213000D02*
D03*
X288500Y193500D02*
D03*
X296000Y166000D02*
D03*
X297000Y143000D02*
D03*
X202000Y179000D02*
D03*
X165405Y183240D02*
D03*
X150130Y156893D02*
D03*
X173500Y138500D02*
D03*
X211031Y146978D02*
D03*
X186541Y143710D02*
D03*
X205000Y160500D02*
D03*
X214000Y127500D02*
D03*
X184000Y138500D02*
D03*
X151296Y160875D02*
D03*
M02*
