G04*
G04 #@! TF.GenerationSoftware,Altium Limited,Altium Designer,20.1.14 (287)*
G04*
G04 Layer_Physical_Order=4*
G04 Layer_Color=16711680*
%FSLAX25Y25*%
%MOIN*%
G70*
G04*
G04 #@! TF.SameCoordinates,C357774A-A1FF-41C0-A387-8AFBD113A784*
G04*
G04*
G04 #@! TF.FilePolarity,Positive*
G04*
G01*
G75*
%ADD14C,0.00600*%
%ADD101C,0.01000*%
%ADD102C,0.00800*%
%ADD103C,0.02000*%
%ADD104C,0.01200*%
%ADD105C,0.01600*%
%ADD106C,0.05906*%
%ADD107R,0.05906X0.05906*%
%ADD108R,0.05906X0.05906*%
%ADD109C,0.05118*%
%ADD110R,0.05118X0.05118*%
%ADD111C,0.06299*%
%ADD112R,0.06299X0.06299*%
%ADD113C,0.22000*%
%ADD114C,0.02200*%
%ADD115R,0.13780X0.03740*%
%ADD116R,0.35433X0.40748*%
G36*
X331149Y425471D02*
X331284Y424989D01*
X331161Y424914D01*
X329772Y423728D01*
X328586Y422339D01*
X327632Y420783D01*
X326934Y419096D01*
X326507Y417320D01*
X326403Y416000D01*
X338000D01*
Y415500D01*
X338500D01*
Y403903D01*
X339820Y404007D01*
X341596Y404434D01*
X343283Y405132D01*
X344839Y406086D01*
X346228Y407272D01*
X347414Y408661D01*
X347489Y408784D01*
X347971Y408649D01*
X347971Y332230D01*
X347471Y332131D01*
X347182Y332827D01*
X346613Y333569D01*
X345870Y334139D01*
X345006Y334497D01*
X344579Y334553D01*
Y331035D01*
Y327518D01*
X345006Y327574D01*
X345870Y327932D01*
X346613Y328502D01*
X347182Y329244D01*
X347471Y329940D01*
X347971Y329841D01*
Y322230D01*
X347471Y322130D01*
X347182Y322827D01*
X346613Y323569D01*
X345870Y324139D01*
X345006Y324497D01*
X344579Y324553D01*
Y321035D01*
Y317518D01*
X345006Y317574D01*
X345870Y317932D01*
X346613Y318502D01*
X347182Y319244D01*
X347471Y319940D01*
X347971Y319841D01*
Y312230D01*
X347471Y312130D01*
X347182Y312827D01*
X346613Y313569D01*
X345870Y314139D01*
X345006Y314497D01*
X344579Y314553D01*
Y311035D01*
Y307518D01*
X345006Y307574D01*
X345870Y307932D01*
X346613Y308502D01*
X347182Y309244D01*
X347471Y309940D01*
X347971Y309841D01*
Y302230D01*
X347471Y302131D01*
X347182Y302827D01*
X346613Y303569D01*
X345870Y304139D01*
X345006Y304497D01*
X344579Y304553D01*
Y301035D01*
Y297518D01*
X345006Y297574D01*
X345870Y297932D01*
X346613Y298502D01*
X347182Y299244D01*
X347471Y299940D01*
X347971Y299841D01*
X347971Y292230D01*
X347471Y292130D01*
X347182Y292827D01*
X346613Y293569D01*
X345870Y294139D01*
X345006Y294497D01*
X344579Y294553D01*
Y291035D01*
Y287518D01*
X345006Y287574D01*
X345870Y287932D01*
X346613Y288502D01*
X347182Y289244D01*
X347471Y289940D01*
X347971Y289841D01*
Y282230D01*
X347471Y282131D01*
X347182Y282827D01*
X346613Y283569D01*
X345870Y284139D01*
X345006Y284497D01*
X344579Y284553D01*
Y281035D01*
Y277518D01*
X345006Y277574D01*
X345870Y277932D01*
X346613Y278502D01*
X347182Y279244D01*
X347471Y279940D01*
X347971Y279841D01*
Y272230D01*
X347471Y272130D01*
X347182Y272827D01*
X346613Y273569D01*
X345870Y274139D01*
X345006Y274497D01*
X344579Y274553D01*
Y271035D01*
Y267518D01*
X345006Y267574D01*
X345870Y267932D01*
X346613Y268502D01*
X347182Y269244D01*
X347471Y269940D01*
X347971Y269841D01*
X347971Y262230D01*
X347471Y262130D01*
X347182Y262827D01*
X346613Y263569D01*
X345870Y264139D01*
X345006Y264497D01*
X344579Y264553D01*
Y261035D01*
Y257518D01*
X345006Y257574D01*
X345870Y257932D01*
X346613Y258502D01*
X347182Y259244D01*
X347471Y259940D01*
X347971Y259841D01*
Y252230D01*
X347471Y252131D01*
X347182Y252827D01*
X346613Y253569D01*
X345870Y254139D01*
X345006Y254497D01*
X344579Y254553D01*
Y251035D01*
Y247518D01*
X345006Y247574D01*
X345870Y247932D01*
X346613Y248502D01*
X347182Y249244D01*
X347471Y249940D01*
X347971Y249841D01*
Y242230D01*
X347471Y242130D01*
X347182Y242827D01*
X346613Y243569D01*
X345870Y244139D01*
X345006Y244497D01*
X344579Y244553D01*
Y241035D01*
Y237518D01*
X345006Y237574D01*
X345870Y237932D01*
X346613Y238502D01*
X347182Y239244D01*
X347471Y239940D01*
X347971Y239841D01*
Y232230D01*
X347471Y232131D01*
X347182Y232827D01*
X346613Y233569D01*
X345870Y234139D01*
X345006Y234497D01*
X344579Y234553D01*
Y231035D01*
Y227518D01*
X345006Y227574D01*
X345870Y227932D01*
X346613Y228502D01*
X347182Y229244D01*
X347471Y229940D01*
X347971Y229841D01*
Y222230D01*
X347471Y222130D01*
X347182Y222827D01*
X346613Y223569D01*
X345870Y224139D01*
X345006Y224497D01*
X344579Y224553D01*
Y221035D01*
Y217518D01*
X345006Y217574D01*
X345870Y217932D01*
X346613Y218502D01*
X347182Y219244D01*
X347471Y219940D01*
X347971Y219841D01*
Y212230D01*
X347471Y212130D01*
X347182Y212827D01*
X346613Y213569D01*
X345870Y214139D01*
X345006Y214497D01*
X344579Y214553D01*
Y211035D01*
Y207518D01*
X345006Y207574D01*
X345870Y207932D01*
X346613Y208502D01*
X347182Y209244D01*
X347471Y209940D01*
X347971Y209841D01*
Y202230D01*
X347471Y202131D01*
X347182Y202827D01*
X346613Y203569D01*
X345870Y204139D01*
X345006Y204497D01*
X344579Y204553D01*
Y201035D01*
Y197518D01*
X345006Y197574D01*
X345870Y197932D01*
X346613Y198502D01*
X347182Y199244D01*
X347471Y199940D01*
X347971Y199841D01*
X347971Y192230D01*
X347471Y192130D01*
X347182Y192827D01*
X346613Y193569D01*
X345870Y194139D01*
X345006Y194497D01*
X344579Y194553D01*
Y191035D01*
Y187518D01*
X345006Y187574D01*
X345870Y187932D01*
X346613Y188502D01*
X347182Y189244D01*
X347471Y189940D01*
X347971Y189841D01*
Y184948D01*
X347632Y184588D01*
X347471Y184588D01*
X344579D01*
Y181035D01*
Y177483D01*
X347471D01*
X347971Y177123D01*
X347971Y119852D01*
X347489Y119716D01*
X347414Y119839D01*
X346228Y121228D01*
X344839Y122414D01*
X343283Y123368D01*
X341596Y124066D01*
X339820Y124493D01*
X338500Y124597D01*
Y113000D01*
X338000D01*
Y112500D01*
X326403D01*
X326507Y111180D01*
X326934Y109404D01*
X327632Y107717D01*
X328586Y106161D01*
X329772Y104772D01*
X331161Y103586D01*
X331284Y103511D01*
X331149Y103029D01*
X143351Y103029D01*
X143216Y103511D01*
X143339Y103586D01*
X144728Y104772D01*
X145914Y106161D01*
X146868Y107717D01*
X147566Y109404D01*
X147993Y111180D01*
X148097Y112500D01*
X136500D01*
Y113000D01*
X136000D01*
Y124597D01*
X134680Y124493D01*
X132904Y124066D01*
X131217Y123368D01*
X129661Y122414D01*
X128272Y121228D01*
X127086Y119839D01*
X127011Y119716D01*
X126529Y119851D01*
X126529Y408649D01*
X127011Y408784D01*
X127086Y408661D01*
X128272Y407272D01*
X129661Y406086D01*
X131217Y405132D01*
X132904Y404434D01*
X134680Y404007D01*
X136000Y403903D01*
Y415500D01*
X136500D01*
Y416000D01*
X148097D01*
X147993Y417320D01*
X147566Y419096D01*
X146868Y420783D01*
X145914Y422339D01*
X144728Y423728D01*
X143339Y424914D01*
X143216Y424990D01*
X143351Y425471D01*
X331149Y425471D01*
D02*
G37*
%LPC*%
G36*
X256500Y417233D02*
X255837Y417101D01*
X255274Y416726D01*
X254899Y416163D01*
X254767Y415500D01*
X254899Y414837D01*
X255274Y414274D01*
X255837Y413899D01*
X256500Y413767D01*
X257163Y413899D01*
X257726Y414274D01*
X258101Y414837D01*
X258233Y415500D01*
X258101Y416163D01*
X257726Y416726D01*
X257163Y417101D01*
X256500Y417233D01*
D02*
G37*
G36*
X180062Y416346D02*
X179399Y416214D01*
X178837Y415838D01*
X178461Y415276D01*
X178329Y414613D01*
X178461Y413949D01*
X178837Y413387D01*
X179399Y413011D01*
X180062Y412879D01*
X180726Y413011D01*
X181288Y413387D01*
X181664Y413949D01*
X181796Y414613D01*
X181664Y415276D01*
X181288Y415838D01*
X180726Y416214D01*
X180062Y416346D01*
D02*
G37*
G36*
X195161Y416331D02*
X194497Y416199D01*
X193935Y415824D01*
X193559Y415261D01*
X193427Y414598D01*
X193559Y413935D01*
X193935Y413373D01*
X194497Y412997D01*
X195161Y412865D01*
X195824Y412997D01*
X196386Y413373D01*
X196762Y413935D01*
X196894Y414598D01*
X196762Y415261D01*
X196386Y415824D01*
X195824Y416199D01*
X195161Y416331D01*
D02*
G37*
G36*
X240500Y415733D02*
X239837Y415601D01*
X239274Y415226D01*
X238899Y414663D01*
X238767Y414000D01*
X238899Y413337D01*
X239274Y412774D01*
X239837Y412399D01*
X240500Y412267D01*
X241163Y412399D01*
X241726Y412774D01*
X242101Y413337D01*
X242233Y414000D01*
X242101Y414663D01*
X241726Y415226D01*
X241163Y415601D01*
X240500Y415733D01*
D02*
G37*
G36*
X170000D02*
X169337Y415601D01*
X168774Y415226D01*
X168399Y414663D01*
X168267Y414000D01*
X168399Y413337D01*
X168774Y412774D01*
X169337Y412399D01*
X170000Y412267D01*
X170663Y412399D01*
X171226Y412774D01*
X171601Y413337D01*
X171733Y414000D01*
X171601Y414663D01*
X171226Y415226D01*
X170663Y415601D01*
X170000Y415733D01*
D02*
G37*
G36*
X164500D02*
X163837Y415601D01*
X163274Y415226D01*
X162899Y414663D01*
X162767Y414000D01*
X162899Y413337D01*
X163274Y412774D01*
X163837Y412399D01*
X164500Y412267D01*
X165163Y412399D01*
X165726Y412774D01*
X166101Y413337D01*
X166233Y414000D01*
X166101Y414663D01*
X165726Y415226D01*
X165163Y415601D01*
X164500Y415733D01*
D02*
G37*
G36*
X244799Y415435D02*
X244135Y415303D01*
X243573Y414927D01*
X243197Y414365D01*
X243065Y413701D01*
X243197Y413038D01*
X243573Y412476D01*
X244135Y412100D01*
X244799Y411968D01*
X245462Y412100D01*
X246024Y412476D01*
X246400Y413038D01*
X246532Y413701D01*
X246400Y414365D01*
X246024Y414927D01*
X245462Y415303D01*
X244799Y415435D01*
D02*
G37*
G36*
X305000Y415233D02*
X304337Y415101D01*
X303774Y414726D01*
X303399Y414163D01*
X303267Y413500D01*
X303399Y412837D01*
X303774Y412274D01*
X304337Y411899D01*
X305000Y411767D01*
X305663Y411899D01*
X306226Y412274D01*
X306601Y412837D01*
X306733Y413500D01*
X306601Y414163D01*
X306226Y414726D01*
X305663Y415101D01*
X305000Y415233D01*
D02*
G37*
G36*
X279815Y415055D02*
X279151Y414923D01*
X278589Y414547D01*
X278213Y413985D01*
X278081Y413321D01*
X278213Y412658D01*
X278589Y412096D01*
X279151Y411720D01*
X279815Y411588D01*
X280478Y411720D01*
X281040Y412096D01*
X281416Y412658D01*
X281548Y413321D01*
X281416Y413985D01*
X281040Y414547D01*
X280478Y414923D01*
X279815Y415055D01*
D02*
G37*
G36*
X235000Y414733D02*
X234337Y414601D01*
X233774Y414226D01*
X233399Y413663D01*
X233267Y413000D01*
X233399Y412337D01*
X233774Y411774D01*
X234337Y411399D01*
X235000Y411267D01*
X235663Y411399D01*
X236226Y411774D01*
X236601Y412337D01*
X236733Y413000D01*
X236601Y413663D01*
X236226Y414226D01*
X235663Y414601D01*
X235000Y414733D01*
D02*
G37*
G36*
X230000D02*
X229337Y414601D01*
X228774Y414226D01*
X228399Y413663D01*
X228267Y413000D01*
X228399Y412337D01*
X228774Y411774D01*
X229337Y411399D01*
X230000Y411267D01*
X230663Y411399D01*
X231226Y411774D01*
X231601Y412337D01*
X231733Y413000D01*
X231601Y413663D01*
X231226Y414226D01*
X230663Y414601D01*
X230000Y414733D01*
D02*
G37*
G36*
X174873Y413985D02*
X174210Y413853D01*
X173647Y413477D01*
X173272Y412915D01*
X173140Y412252D01*
X173272Y411588D01*
X173647Y411026D01*
X174210Y410650D01*
X174873Y410518D01*
X175536Y410650D01*
X176099Y411026D01*
X176474Y411588D01*
X176606Y412252D01*
X176474Y412915D01*
X176099Y413477D01*
X175536Y413853D01*
X174873Y413985D01*
D02*
G37*
G36*
X184819Y413470D02*
X184156Y413338D01*
X183593Y412963D01*
X183218Y412400D01*
X183086Y411737D01*
X183218Y411074D01*
X183593Y410511D01*
X184156Y410136D01*
X184819Y410004D01*
X185482Y410136D01*
X186045Y410511D01*
X186420Y411074D01*
X186552Y411737D01*
X186420Y412400D01*
X186045Y412963D01*
X185482Y413338D01*
X184819Y413470D01*
D02*
G37*
G36*
X220000Y413233D02*
X219337Y413101D01*
X218774Y412726D01*
X218399Y412163D01*
X218267Y411500D01*
X218399Y410837D01*
X218774Y410274D01*
X219337Y409899D01*
X220000Y409767D01*
X220663Y409899D01*
X221226Y410274D01*
X221601Y410837D01*
X221733Y411500D01*
X221601Y412163D01*
X221226Y412726D01*
X220663Y413101D01*
X220000Y413233D01*
D02*
G37*
G36*
X225000Y412733D02*
X224337Y412601D01*
X223774Y412226D01*
X223399Y411663D01*
X223267Y411000D01*
X223399Y410337D01*
X223774Y409774D01*
X224337Y409399D01*
X225000Y409267D01*
X225663Y409399D01*
X226226Y409774D01*
X226601Y410337D01*
X226733Y411000D01*
X226601Y411663D01*
X226226Y412226D01*
X225663Y412601D01*
X225000Y412733D01*
D02*
G37*
G36*
X200000D02*
X199337Y412601D01*
X198774Y412226D01*
X198399Y411663D01*
X198267Y411000D01*
X198399Y410337D01*
X198774Y409774D01*
X199337Y409399D01*
X200000Y409267D01*
X200663Y409399D01*
X201226Y409774D01*
X201601Y410337D01*
X201733Y411000D01*
X201601Y411663D01*
X201226Y412226D01*
X200663Y412601D01*
X200000Y412733D01*
D02*
G37*
G36*
X290287Y412684D02*
X289624Y412552D01*
X289061Y412176D01*
X288686Y411614D01*
X288554Y410950D01*
X288686Y410287D01*
X289061Y409725D01*
X289624Y409349D01*
X290287Y409217D01*
X290950Y409349D01*
X291513Y409725D01*
X291888Y410287D01*
X292020Y410950D01*
X291888Y411614D01*
X291513Y412176D01*
X290950Y412552D01*
X290287Y412684D01*
D02*
G37*
G36*
X189086Y412647D02*
X188423Y412516D01*
X187860Y412140D01*
X187484Y411578D01*
X187353Y410914D01*
X187484Y410251D01*
X187860Y409689D01*
X188423Y409313D01*
X189086Y409181D01*
X189749Y409313D01*
X190311Y409689D01*
X190687Y410251D01*
X190819Y410914D01*
X190687Y411578D01*
X190311Y412140D01*
X189749Y412516D01*
X189086Y412647D01*
D02*
G37*
G36*
X250000Y411733D02*
X249337Y411601D01*
X248774Y411226D01*
X248399Y410663D01*
X248267Y410000D01*
X248399Y409337D01*
X248774Y408774D01*
X249337Y408399D01*
X250000Y408267D01*
X250663Y408399D01*
X251226Y408774D01*
X251601Y409337D01*
X251733Y410000D01*
X251601Y410663D01*
X251226Y411226D01*
X250663Y411601D01*
X250000Y411733D01*
D02*
G37*
G36*
X284952Y411696D02*
X284289Y411564D01*
X283726Y411188D01*
X283351Y410626D01*
X283219Y409962D01*
X283351Y409299D01*
X283726Y408737D01*
X284289Y408361D01*
X284952Y408229D01*
X285615Y408361D01*
X286178Y408737D01*
X286553Y409299D01*
X286685Y409962D01*
X286553Y410626D01*
X286178Y411188D01*
X285615Y411564D01*
X284952Y411696D01*
D02*
G37*
G36*
X300265Y411103D02*
X299602Y410971D01*
X299040Y410595D01*
X298664Y410033D01*
X298532Y409370D01*
X298664Y408707D01*
X299040Y408144D01*
X299602Y407768D01*
X300265Y407636D01*
X300929Y407768D01*
X301491Y408144D01*
X301867Y408707D01*
X301999Y409370D01*
X301867Y410033D01*
X301491Y410595D01*
X300929Y410971D01*
X300265Y411103D01*
D02*
G37*
G36*
X294436Y409621D02*
X293773Y409489D01*
X293211Y409113D01*
X292835Y408551D01*
X292703Y407888D01*
X292835Y407225D01*
X293211Y406662D01*
X293773Y406286D01*
X294436Y406154D01*
X295100Y406286D01*
X295662Y406662D01*
X296038Y407225D01*
X296170Y407888D01*
X296038Y408551D01*
X295662Y409113D01*
X295100Y409489D01*
X294436Y409621D01*
D02*
G37*
G36*
X337500Y415000D02*
X326403D01*
X326507Y413680D01*
X326934Y411904D01*
X327632Y410217D01*
X328586Y408661D01*
X329772Y407272D01*
X331161Y406086D01*
X332717Y405132D01*
X334404Y404434D01*
X336180Y404007D01*
X337500Y403903D01*
Y415000D01*
D02*
G37*
G36*
X148097D02*
X137000D01*
Y403903D01*
X138320Y404007D01*
X140096Y404434D01*
X141783Y405132D01*
X143339Y406086D01*
X144728Y407272D01*
X145914Y408661D01*
X146868Y410217D01*
X147566Y411904D01*
X147993Y413680D01*
X148097Y415000D01*
D02*
G37*
G36*
X142500Y393518D02*
Y390500D01*
X145518D01*
X145461Y390927D01*
X145103Y391792D01*
X144534Y392534D01*
X143792Y393103D01*
X142927Y393461D01*
X142500Y393518D01*
D02*
G37*
G36*
X141500D02*
X141073Y393461D01*
X140208Y393103D01*
X139466Y392534D01*
X138897Y391792D01*
X138539Y390927D01*
X138482Y390500D01*
X141500D01*
Y393518D01*
D02*
G37*
G36*
X332000Y392518D02*
Y389500D01*
X335018D01*
X334961Y389927D01*
X334603Y390792D01*
X334034Y391534D01*
X333292Y392103D01*
X332427Y392461D01*
X332000Y392518D01*
D02*
G37*
G36*
X331000D02*
X330573Y392461D01*
X329708Y392103D01*
X328966Y391534D01*
X328397Y390792D01*
X328039Y389927D01*
X327982Y389500D01*
X331000D01*
Y392518D01*
D02*
G37*
G36*
X145518Y389500D02*
X142500D01*
Y386482D01*
X142927Y386539D01*
X143792Y386897D01*
X144534Y387466D01*
X145103Y388208D01*
X145461Y389073D01*
X145518Y389500D01*
D02*
G37*
G36*
X141500D02*
X138482D01*
X138539Y389073D01*
X138897Y388208D01*
X139466Y387466D01*
X140208Y386897D01*
X141073Y386539D01*
X141500Y386482D01*
Y389500D01*
D02*
G37*
G36*
X135553Y393553D02*
X128447D01*
Y386447D01*
X135553D01*
Y393553D01*
D02*
G37*
G36*
X268000Y389733D02*
X267337Y389601D01*
X266774Y389226D01*
X266399Y388663D01*
X266267Y388000D01*
X266399Y387337D01*
X266774Y386774D01*
X267337Y386399D01*
X268000Y386267D01*
X268663Y386399D01*
X269226Y386774D01*
X269601Y387337D01*
X269733Y388000D01*
X269601Y388663D01*
X269226Y389226D01*
X268663Y389601D01*
X268000Y389733D01*
D02*
G37*
G36*
X345053Y392553D02*
X337947D01*
Y385447D01*
X345053D01*
Y392553D01*
D02*
G37*
G36*
X208000Y388233D02*
X207337Y388101D01*
X206774Y387726D01*
X206399Y387163D01*
X206267Y386500D01*
X206399Y385837D01*
X206774Y385274D01*
X207337Y384899D01*
X208000Y384767D01*
X208663Y384899D01*
X209226Y385274D01*
X209601Y385837D01*
X209733Y386500D01*
X209601Y387163D01*
X209226Y387726D01*
X208663Y388101D01*
X208000Y388233D01*
D02*
G37*
G36*
X335018Y388500D02*
X331500D01*
X327982D01*
X328039Y388073D01*
X328397Y387208D01*
X328966Y386466D01*
X329708Y385897D01*
X330379Y385619D01*
Y380881D01*
X329708Y380603D01*
X328966Y380034D01*
X328397Y379292D01*
X328039Y378427D01*
X327982Y378000D01*
X331500D01*
X335018D01*
X334961Y378427D01*
X334603Y379292D01*
X334034Y380034D01*
X333292Y380603D01*
X332622Y380881D01*
Y385619D01*
X333292Y385897D01*
X334034Y386466D01*
X334603Y387208D01*
X334961Y388073D01*
X335018Y388500D01*
D02*
G37*
G36*
Y377000D02*
X332000D01*
Y373982D01*
X332427Y374039D01*
X333292Y374397D01*
X334034Y374966D01*
X334603Y375708D01*
X334961Y376573D01*
X335018Y377000D01*
D02*
G37*
G36*
X331000D02*
X327982D01*
X328039Y376573D01*
X328397Y375708D01*
X328966Y374966D01*
X329708Y374397D01*
X330573Y374039D01*
X331000Y373982D01*
Y377000D01*
D02*
G37*
G36*
X345053Y381053D02*
X337947D01*
Y373947D01*
X345053D01*
Y381053D01*
D02*
G37*
G36*
X261000Y352518D02*
Y349500D01*
X264018D01*
X263961Y349927D01*
X263603Y350792D01*
X263034Y351534D01*
X262292Y352103D01*
X261427Y352461D01*
X261000Y352518D01*
D02*
G37*
G36*
X260000D02*
X259573Y352461D01*
X258708Y352103D01*
X257966Y351534D01*
X257397Y350792D01*
X257039Y349927D01*
X256982Y349500D01*
X260000D01*
Y352518D01*
D02*
G37*
G36*
X300500Y352583D02*
X299573Y352461D01*
X298708Y352103D01*
X297966Y351534D01*
X297397Y350792D01*
X297039Y349927D01*
X296917Y349000D01*
X297039Y348073D01*
X297397Y347208D01*
X297966Y346466D01*
X298708Y345897D01*
X299573Y345539D01*
X300500Y345417D01*
X301427Y345539D01*
X302292Y345897D01*
X303034Y346466D01*
X303603Y347208D01*
X303961Y348073D01*
X304083Y349000D01*
X303961Y349927D01*
X303603Y350792D01*
X303034Y351534D01*
X302292Y352103D01*
X301427Y352461D01*
X300500Y352583D01*
D02*
G37*
G36*
X290500D02*
X289573Y352461D01*
X288708Y352103D01*
X287966Y351534D01*
X287397Y350792D01*
X287039Y349927D01*
X286917Y349000D01*
X287039Y348073D01*
X287190Y347708D01*
X282170Y342689D01*
X271733D01*
X271542Y343151D01*
X276371Y347980D01*
X277077D01*
X277397Y347208D01*
X277966Y346466D01*
X278708Y345897D01*
X279573Y345539D01*
X280500Y345417D01*
X281427Y345539D01*
X282292Y345897D01*
X283034Y346466D01*
X283603Y347208D01*
X283961Y348073D01*
X284083Y349000D01*
X283961Y349927D01*
X283603Y350792D01*
X283034Y351534D01*
X282292Y352103D01*
X281427Y352461D01*
X280500Y352583D01*
X279573Y352461D01*
X278708Y352103D01*
X277966Y351534D01*
X277397Y350792D01*
X277077Y350020D01*
X275949D01*
X275558Y349942D01*
X275228Y349721D01*
X274578Y349072D01*
X274050Y349251D01*
X273961Y349927D01*
X273603Y350792D01*
X273034Y351534D01*
X272292Y352103D01*
X271427Y352461D01*
X270500Y352583D01*
X269573Y352461D01*
X268708Y352103D01*
X267966Y351534D01*
X267397Y350792D01*
X267039Y349927D01*
X266917Y349000D01*
X267039Y348073D01*
X267358Y347300D01*
X265339Y345281D01*
X262112D01*
X262013Y345781D01*
X262292Y345897D01*
X263034Y346466D01*
X263603Y347208D01*
X263961Y348073D01*
X264018Y348500D01*
X256982D01*
X257039Y348073D01*
X257397Y347208D01*
X257966Y346466D01*
X258708Y345897D01*
X258987Y345781D01*
X258888Y345281D01*
X254484D01*
X254053Y345447D01*
X254053Y345781D01*
Y352553D01*
X246947D01*
Y345447D01*
X247336D01*
X247490Y345096D01*
X247505Y344947D01*
X243779Y341221D01*
X243558Y340890D01*
X243480Y340500D01*
Y336422D01*
X231547Y324489D01*
X231047Y324696D01*
Y348988D01*
X230857Y349447D01*
X230398Y349638D01*
X159531D01*
X159072Y349447D01*
X158882Y348988D01*
Y324185D01*
X159072Y323726D01*
X159531Y323536D01*
X229887D01*
X230094Y323036D01*
X228578Y321520D01*
X209500D01*
X209110Y321442D01*
X208779Y321221D01*
X208243Y320685D01*
X208000Y320733D01*
X207337Y320601D01*
X206774Y320226D01*
X206399Y319663D01*
X206267Y319000D01*
X206399Y318337D01*
X206774Y317774D01*
X207337Y317399D01*
X208000Y317267D01*
X208663Y317399D01*
X209226Y317774D01*
X209601Y318337D01*
X209733Y319000D01*
X209721Y319064D01*
X210082Y319480D01*
X229000D01*
X229390Y319558D01*
X229721Y319779D01*
X245118Y335176D01*
X245562Y335026D01*
X245589Y334531D01*
X229778Y318720D01*
X211700D01*
X211310Y318642D01*
X210979Y318421D01*
X208243Y315685D01*
X208000Y315733D01*
X207337Y315601D01*
X206774Y315226D01*
X206399Y314663D01*
X206267Y314000D01*
X206399Y313337D01*
X206774Y312774D01*
X207337Y312399D01*
X208000Y312267D01*
X208663Y312399D01*
X209226Y312774D01*
X209601Y313337D01*
X209733Y314000D01*
X209685Y314243D01*
X212122Y316680D01*
X219008D01*
X219200Y316218D01*
X211909Y308927D01*
X205500D01*
X205500Y308927D01*
X205500Y308927D01*
X181591D01*
X175308Y315211D01*
X174844Y315521D01*
X174298Y315629D01*
X174298Y315629D01*
X170315D01*
X170055Y315803D01*
X169392Y315935D01*
X168728Y315803D01*
X168166Y315427D01*
X167790Y314865D01*
X167658Y314202D01*
X167790Y313539D01*
X168166Y312976D01*
X168728Y312600D01*
X169392Y312469D01*
X170055Y312600D01*
X170315Y312774D01*
X173707D01*
X179991Y306491D01*
X179991Y306491D01*
X180454Y306181D01*
X181000Y306073D01*
X204909D01*
X217573Y293409D01*
Y259807D01*
X217073Y259496D01*
X216600Y259590D01*
X215937Y259458D01*
X215374Y259082D01*
X214999Y258520D01*
X214867Y257856D01*
X214948Y257449D01*
X203779Y246281D01*
X203558Y245950D01*
X203520Y245757D01*
X203020Y245806D01*
Y277500D01*
X202942Y277890D01*
X202721Y278221D01*
X171685Y309257D01*
X171733Y309500D01*
X171601Y310163D01*
X171226Y310726D01*
X170663Y311101D01*
X170000Y311233D01*
X169337Y311101D01*
X168774Y310726D01*
X168637Y310520D01*
X158422D01*
X144685Y324257D01*
X144733Y324500D01*
X144601Y325163D01*
X144226Y325726D01*
X143663Y326101D01*
X143000Y326233D01*
X142337Y326101D01*
X141774Y325726D01*
X141399Y325163D01*
X141267Y324500D01*
X141399Y323837D01*
X141774Y323274D01*
X142337Y322899D01*
X143000Y322767D01*
X143243Y322815D01*
X146042Y320016D01*
X146000Y319932D01*
Y316500D01*
X149432D01*
X149516Y316542D01*
X157279Y308779D01*
X157610Y308558D01*
X158000Y308480D01*
X168637D01*
X168774Y308274D01*
X169337Y307899D01*
X170000Y307767D01*
X170243Y307815D01*
X200980Y277078D01*
Y265139D01*
X200480Y264831D01*
X200000Y264927D01*
X199337Y264795D01*
X198774Y264419D01*
X198637Y264213D01*
X168729D01*
X148642Y284300D01*
X148961Y285073D01*
X149083Y286000D01*
X148961Y286927D01*
X148603Y287792D01*
X148034Y288534D01*
X147292Y289103D01*
X146427Y289461D01*
X145500Y289583D01*
X144573Y289461D01*
X143708Y289103D01*
X142966Y288534D01*
X142397Y287792D01*
X142039Y286927D01*
X141917Y286000D01*
X142039Y285073D01*
X142397Y284208D01*
X142966Y283466D01*
X143708Y282897D01*
X144573Y282539D01*
X145500Y282417D01*
X146427Y282539D01*
X147200Y282858D01*
X148056Y282002D01*
X148052Y281965D01*
X147831Y281520D01*
X142422D01*
X138934Y285008D01*
X138961Y285073D01*
X139083Y286000D01*
X138961Y286927D01*
X138603Y287792D01*
X138034Y288534D01*
X137292Y289103D01*
X136427Y289461D01*
X135500Y289583D01*
X134573Y289461D01*
X133708Y289103D01*
X132966Y288534D01*
X132397Y287792D01*
X132039Y286927D01*
X131917Y286000D01*
X132039Y285073D01*
X132397Y284208D01*
X132966Y283466D01*
X133708Y282897D01*
X134573Y282539D01*
X135500Y282417D01*
X136427Y282539D01*
X137292Y282897D01*
X137784Y283274D01*
X141279Y279779D01*
X141610Y279558D01*
X142000Y279480D01*
X143378D01*
X143548Y278980D01*
X142966Y278534D01*
X142397Y277792D01*
X142039Y276927D01*
X141917Y276000D01*
X142039Y275073D01*
X142397Y274208D01*
X142966Y273466D01*
X143708Y272897D01*
X144573Y272539D01*
X145500Y272417D01*
X146427Y272539D01*
X147292Y272897D01*
X148034Y273466D01*
X148603Y274208D01*
X148961Y275073D01*
X149083Y276000D01*
X148961Y276927D01*
X148603Y277792D01*
X149014Y278044D01*
X159576Y267481D01*
X159385Y267020D01*
X149053D01*
Y269553D01*
X142224D01*
X141947Y269553D01*
X141724Y269960D01*
Y270500D01*
X141630Y270968D01*
X141365Y271365D01*
X138568Y274162D01*
X138603Y274208D01*
X138961Y275073D01*
X139083Y276000D01*
X138961Y276927D01*
X138603Y277792D01*
X138034Y278534D01*
X137292Y279103D01*
X136427Y279461D01*
X135500Y279583D01*
X134573Y279461D01*
X133708Y279103D01*
X132966Y278534D01*
X132397Y277792D01*
X132039Y276927D01*
X131917Y276000D01*
X132039Y275073D01*
X132397Y274208D01*
X132966Y273466D01*
X133708Y272897D01*
X134573Y272539D01*
X135500Y272417D01*
X136427Y272539D01*
X136642Y272628D01*
X139277Y269993D01*
Y267473D01*
X138777Y267374D01*
X138603Y267792D01*
X138034Y268534D01*
X137292Y269103D01*
X136427Y269461D01*
X135500Y269583D01*
X134573Y269461D01*
X133708Y269103D01*
X132966Y268534D01*
X132397Y267792D01*
X132039Y266927D01*
X131917Y266000D01*
X132039Y265073D01*
X132397Y264208D01*
X132966Y263466D01*
X133708Y262897D01*
X134573Y262539D01*
X135500Y262417D01*
X136427Y262539D01*
X137292Y262897D01*
X138034Y263466D01*
X138603Y264208D01*
X138777Y264626D01*
X139277Y264527D01*
Y256000D01*
X139370Y255532D01*
X139635Y255135D01*
X144635Y250135D01*
X145032Y249870D01*
X145500Y249777D01*
X150919D01*
X151322Y249276D01*
X151267Y249000D01*
X151399Y248337D01*
X151774Y247774D01*
X152337Y247399D01*
X153000Y247267D01*
X153663Y247399D01*
X154226Y247774D01*
X154601Y248337D01*
X154733Y249000D01*
X154678Y249276D01*
X155081Y249777D01*
X176828D01*
X177297Y249870D01*
X177694Y250135D01*
X182662Y255103D01*
X182664Y255102D01*
X183327Y255234D01*
X183890Y255610D01*
X184266Y256172D01*
X184397Y256836D01*
X184266Y257499D01*
X183890Y258061D01*
X183327Y258437D01*
X182664Y258569D01*
X182001Y258437D01*
X181439Y258061D01*
X181063Y257499D01*
X180931Y256836D01*
X180931Y256833D01*
X176322Y252223D01*
X146007D01*
X141724Y256507D01*
Y262040D01*
X141947Y262447D01*
X142224Y262447D01*
X144582D01*
Y258933D01*
X144652Y258582D01*
X144851Y258284D01*
X144928Y258207D01*
X144899Y258163D01*
X144767Y257500D01*
X144899Y256837D01*
X145274Y256274D01*
X145837Y255899D01*
X146500Y255767D01*
X147163Y255899D01*
X147726Y256274D01*
X148101Y256837D01*
X148233Y257500D01*
X148101Y258163D01*
X147726Y258726D01*
X147163Y259101D01*
X146500Y259233D01*
X146418Y259721D01*
Y262447D01*
X149053D01*
Y264980D01*
X160239D01*
X167236Y257983D01*
X167299Y257671D01*
X167674Y257108D01*
X168237Y256733D01*
X168900Y256601D01*
X169563Y256733D01*
X170126Y257108D01*
X170501Y257671D01*
X170633Y258334D01*
X170544Y258785D01*
X170576Y259061D01*
X170885Y259323D01*
X171263Y259399D01*
X171826Y259774D01*
X172201Y260337D01*
X172333Y261000D01*
X172201Y261663D01*
X172155Y261733D01*
X172391Y262174D01*
X196885D01*
X197076Y261712D01*
X183481Y248116D01*
X170097D01*
X169707Y248039D01*
X169376Y247818D01*
X154243Y232685D01*
X154000Y232733D01*
X153337Y232601D01*
X152774Y232226D01*
X152399Y231663D01*
X152267Y231000D01*
X152399Y230337D01*
X152774Y229774D01*
X153337Y229399D01*
X154000Y229267D01*
X154663Y229399D01*
X155226Y229774D01*
X155601Y230337D01*
X155733Y231000D01*
X155685Y231243D01*
X170519Y246077D01*
X183903D01*
X184293Y246155D01*
X184624Y246376D01*
X199757Y261508D01*
X200000Y261460D01*
X200480Y261556D01*
X200980Y261248D01*
Y180363D01*
X200774Y180226D01*
X200399Y179663D01*
X200267Y179000D01*
X200399Y178337D01*
X200774Y177774D01*
X200980Y177637D01*
Y163500D01*
X201058Y163110D01*
X201279Y162779D01*
X203315Y160743D01*
X203267Y160500D01*
X203399Y159837D01*
X203774Y159274D01*
X204337Y158899D01*
X205000Y158767D01*
X205663Y158899D01*
X206226Y159274D01*
X206601Y159837D01*
X206733Y160500D01*
X206601Y161163D01*
X206226Y161726D01*
X205663Y162101D01*
X205000Y162233D01*
X204757Y162185D01*
X203020Y163922D01*
Y177637D01*
X203226Y177774D01*
X203601Y178337D01*
X203733Y179000D01*
X203601Y179663D01*
X203226Y180226D01*
X203020Y180363D01*
Y233254D01*
X203520Y233303D01*
X203558Y233110D01*
X203779Y232779D01*
X204262Y232296D01*
X204214Y232053D01*
X204346Y231390D01*
X204721Y230827D01*
X205284Y230452D01*
X205947Y230320D01*
X206610Y230452D01*
X207173Y230827D01*
X207548Y231390D01*
X207662Y231962D01*
X207705Y232068D01*
X208133Y232340D01*
X208500Y232267D01*
X209163Y232399D01*
X209726Y232774D01*
X210101Y233337D01*
X210162Y233644D01*
X222509Y245991D01*
X222509Y245991D01*
X222819Y246454D01*
X222927Y247000D01*
X222927Y247000D01*
Y254500D01*
X222819Y255046D01*
X222509Y255509D01*
X222509Y255509D01*
X220735Y257284D01*
X220874Y257852D01*
X220927Y257881D01*
X221500Y257767D01*
X222163Y257899D01*
X222726Y258274D01*
X223101Y258837D01*
X223233Y259500D01*
X223101Y260163D01*
X222726Y260726D01*
X222520Y260863D01*
Y298609D01*
X222626Y298716D01*
X222721Y298779D01*
X230922Y306980D01*
X268839D01*
X269229Y307058D01*
X269559Y307279D01*
X277368Y315088D01*
X277589Y315419D01*
X277667Y315809D01*
Y318566D01*
X278167Y318812D01*
X278708Y318397D01*
X279573Y318039D01*
X280500Y317917D01*
X281427Y318039D01*
X282292Y318397D01*
X283034Y318966D01*
X283603Y319708D01*
X283961Y320573D01*
X284083Y321500D01*
X283961Y322427D01*
X283603Y323292D01*
X283034Y324034D01*
X282292Y324603D01*
X281427Y324961D01*
X280751Y325050D01*
X280572Y325578D01*
X282783Y327790D01*
X283809D01*
X284200Y327868D01*
X284530Y328088D01*
X288800Y332359D01*
X289573Y332039D01*
X290500Y331917D01*
X291427Y332039D01*
X292292Y332397D01*
X293034Y332966D01*
X293603Y333708D01*
X293961Y334573D01*
X294083Y335500D01*
X293961Y336427D01*
X293603Y337292D01*
X293034Y338034D01*
X292292Y338603D01*
X291427Y338961D01*
X290500Y339083D01*
X289573Y338961D01*
X288708Y338603D01*
X287966Y338034D01*
X287397Y337292D01*
X287039Y336427D01*
X286917Y335500D01*
X287039Y334573D01*
X287358Y333800D01*
X283387Y329829D01*
X282361D01*
X281971Y329751D01*
X281640Y329530D01*
X276743Y324634D01*
X276281Y324825D01*
Y329839D01*
X278800Y332359D01*
X279573Y332039D01*
X280500Y331917D01*
X281427Y332039D01*
X282292Y332397D01*
X283034Y332966D01*
X283603Y333708D01*
X283961Y334573D01*
X284083Y335500D01*
X283961Y336427D01*
X283603Y337292D01*
X283034Y338034D01*
X282292Y338603D01*
X281427Y338961D01*
X280500Y339083D01*
X279573Y338961D01*
X278708Y338603D01*
X277966Y338034D01*
X277397Y337292D01*
X277039Y336427D01*
X276917Y335500D01*
X277039Y334573D01*
X277359Y333800D01*
X274541Y330982D01*
X274320Y330652D01*
X274242Y330261D01*
Y323057D01*
X273742Y322957D01*
X273603Y323292D01*
X273034Y324034D01*
X272292Y324603D01*
X271427Y324961D01*
X270500Y325083D01*
X269573Y324961D01*
X268708Y324603D01*
X267966Y324034D01*
X267899Y323946D01*
X267425Y324107D01*
Y330983D01*
X268800Y332359D01*
X269573Y332039D01*
X270500Y331917D01*
X271427Y332039D01*
X272292Y332397D01*
X273034Y332966D01*
X273603Y333708D01*
X273961Y334573D01*
X274083Y335500D01*
X273961Y336427D01*
X273603Y337292D01*
X273034Y338034D01*
X272292Y338603D01*
X271427Y338961D01*
X270500Y339083D01*
X269573Y338961D01*
X268708Y338603D01*
X267966Y338034D01*
X267397Y337292D01*
X267039Y336427D01*
X266917Y335500D01*
X267039Y334573D01*
X267358Y333800D01*
X265685Y332126D01*
X265463Y331796D01*
X265386Y331405D01*
Y317540D01*
X262865Y315020D01*
X256692D01*
X256500Y315481D01*
X259208Y318190D01*
X259573Y318039D01*
X260500Y317917D01*
X261427Y318039D01*
X262292Y318397D01*
X263034Y318966D01*
X263603Y319708D01*
X263961Y320573D01*
X264083Y321500D01*
X263961Y322427D01*
X263603Y323292D01*
X263034Y324034D01*
X262292Y324603D01*
X261927Y324754D01*
Y332246D01*
X262292Y332397D01*
X263034Y332966D01*
X263603Y333708D01*
X263961Y334573D01*
X264083Y335500D01*
X263961Y336427D01*
X263810Y336792D01*
X266853Y339834D01*
X282762D01*
X282762Y339834D01*
X283308Y339943D01*
X283771Y340252D01*
X289208Y345690D01*
X289573Y345539D01*
X290500Y345417D01*
X291427Y345539D01*
X292292Y345897D01*
X293034Y346466D01*
X293603Y347208D01*
X293961Y348073D01*
X294083Y349000D01*
X293961Y349927D01*
X293603Y350792D01*
X293034Y351534D01*
X292292Y352103D01*
X291427Y352461D01*
X290500Y352583D01*
D02*
G37*
G36*
X343579Y334553D02*
X343151Y334497D01*
X342287Y334139D01*
X341545Y333569D01*
X340975Y332827D01*
X340617Y331963D01*
X340561Y331535D01*
X343579D01*
Y334553D01*
D02*
G37*
G36*
Y330535D02*
X340561D01*
X340617Y330108D01*
X340975Y329244D01*
X341545Y328502D01*
X342287Y327932D01*
X343151Y327574D01*
X343579Y327518D01*
Y330535D01*
D02*
G37*
G36*
X325114Y341631D02*
X311500D01*
X310875Y341507D01*
X310346Y341154D01*
X282230Y313038D01*
X281796Y312748D01*
X281420Y312185D01*
X281288Y311522D01*
X281420Y310859D01*
X281796Y310297D01*
X282230Y310006D01*
X291754Y300483D01*
X282554Y291283D01*
X271913D01*
X271400Y291384D01*
X270737Y291252D01*
X270174Y290877D01*
X269799Y290314D01*
X269667Y289651D01*
X269799Y288988D01*
X270174Y288425D01*
X270737Y288050D01*
X271400Y287918D01*
X271913Y288020D01*
X283229D01*
X283854Y288144D01*
X284383Y288498D01*
X295215Y299329D01*
X295568Y299858D01*
X295692Y300483D01*
X295568Y301107D01*
X295215Y301636D01*
X285329Y311522D01*
X312175Y338369D01*
X324438D01*
X330684Y332123D01*
X330617Y331963D01*
X330495Y331035D01*
X330617Y330108D01*
X330975Y329244D01*
X331545Y328502D01*
X332287Y327932D01*
X333151Y327574D01*
X334079Y327452D01*
X335006Y327574D01*
X335870Y327932D01*
X336613Y328502D01*
X337182Y329244D01*
X337540Y330108D01*
X337662Y331035D01*
X337540Y331963D01*
X337182Y332827D01*
X336613Y333569D01*
X335870Y334139D01*
X335006Y334497D01*
X334079Y334619D01*
X333151Y334497D01*
X332991Y334430D01*
X326268Y341154D01*
X325738Y341507D01*
X325114Y341631D01*
D02*
G37*
G36*
X324079Y334619D02*
X323151Y334497D01*
X322287Y334139D01*
X321545Y333569D01*
X320975Y332827D01*
X320617Y331963D01*
X320495Y331035D01*
X320617Y330108D01*
X320975Y329244D01*
X321545Y328502D01*
X322287Y327932D01*
X323151Y327574D01*
X324079Y327452D01*
X325006Y327574D01*
X325870Y327932D01*
X326613Y328502D01*
X327182Y329244D01*
X327540Y330108D01*
X327662Y331035D01*
X327540Y331963D01*
X327182Y332827D01*
X326613Y333569D01*
X325870Y334139D01*
X325006Y334497D01*
X324079Y334619D01*
D02*
G37*
G36*
X343579Y324553D02*
X343151Y324497D01*
X342287Y324139D01*
X341545Y323569D01*
X340975Y322827D01*
X340617Y321963D01*
X340561Y321535D01*
X343579D01*
Y324553D01*
D02*
G37*
G36*
Y320535D02*
X340561D01*
X340617Y320108D01*
X340975Y319244D01*
X341545Y318502D01*
X342287Y317932D01*
X343151Y317574D01*
X343579Y317518D01*
Y320535D01*
D02*
G37*
G36*
X334079Y324619D02*
X333151Y324497D01*
X332287Y324139D01*
X331545Y323569D01*
X330975Y322827D01*
X330617Y321963D01*
X330495Y321035D01*
X330617Y320108D01*
X330975Y319244D01*
X331545Y318502D01*
X332287Y317932D01*
X333151Y317574D01*
X334079Y317452D01*
X335006Y317574D01*
X335870Y317932D01*
X336613Y318502D01*
X337182Y319244D01*
X337540Y320108D01*
X337662Y321035D01*
X337540Y321963D01*
X337182Y322827D01*
X336613Y323569D01*
X335870Y324139D01*
X335006Y324497D01*
X334079Y324619D01*
D02*
G37*
G36*
X324079D02*
X323151Y324497D01*
X322287Y324139D01*
X321545Y323569D01*
X320975Y322827D01*
X320617Y321963D01*
X320495Y321035D01*
X320617Y320108D01*
X320975Y319244D01*
X321545Y318502D01*
X322287Y317932D01*
X323151Y317574D01*
X324079Y317452D01*
X325006Y317574D01*
X325870Y317932D01*
X326613Y318502D01*
X327182Y319244D01*
X327540Y320108D01*
X327662Y321035D01*
X327540Y321963D01*
X327182Y322827D01*
X326613Y323569D01*
X325870Y324139D01*
X325006Y324497D01*
X324079Y324619D01*
D02*
G37*
G36*
X145000Y319518D02*
X144573Y319461D01*
X143708Y319103D01*
X142966Y318534D01*
X142397Y317792D01*
X142039Y316927D01*
X141982Y316500D01*
X145000D01*
Y319518D01*
D02*
G37*
G36*
X149018Y315500D02*
X146000D01*
Y312482D01*
X146427Y312539D01*
X147292Y312897D01*
X148034Y313466D01*
X148603Y314208D01*
X148961Y315073D01*
X149018Y315500D01*
D02*
G37*
G36*
X145000D02*
X141982D01*
X142039Y315073D01*
X142397Y314208D01*
X142966Y313466D01*
X143708Y312897D01*
X144573Y312539D01*
X145000Y312482D01*
Y315500D01*
D02*
G37*
G36*
X135500Y319583D02*
X134573Y319461D01*
X133708Y319103D01*
X132966Y318534D01*
X132397Y317792D01*
X132039Y316927D01*
X131917Y316000D01*
X132039Y315073D01*
X132397Y314208D01*
X132966Y313466D01*
X133708Y312897D01*
X134573Y312539D01*
X135500Y312417D01*
X136427Y312539D01*
X137292Y312897D01*
X138034Y313466D01*
X138603Y314208D01*
X138961Y315073D01*
X139083Y316000D01*
X138961Y316927D01*
X138603Y317792D01*
X138034Y318534D01*
X137292Y319103D01*
X136427Y319461D01*
X135500Y319583D01*
D02*
G37*
G36*
X343579Y314553D02*
X343151Y314497D01*
X342287Y314139D01*
X341545Y313569D01*
X340975Y312827D01*
X340617Y311963D01*
X340561Y311535D01*
X343579D01*
Y314553D01*
D02*
G37*
G36*
Y310535D02*
X340561D01*
X340617Y310108D01*
X340975Y309244D01*
X341545Y308502D01*
X342287Y307932D01*
X343151Y307574D01*
X343579Y307518D01*
Y310535D01*
D02*
G37*
G36*
X334079Y314619D02*
X333151Y314497D01*
X332287Y314139D01*
X331545Y313569D01*
X330975Y312827D01*
X330617Y311963D01*
X330495Y311035D01*
X330617Y310108D01*
X330975Y309244D01*
X331545Y308502D01*
X332287Y307932D01*
X333151Y307574D01*
X334079Y307452D01*
X335006Y307574D01*
X335870Y307932D01*
X336613Y308502D01*
X337182Y309244D01*
X337540Y310108D01*
X337662Y311035D01*
X337540Y311963D01*
X337182Y312827D01*
X336613Y313569D01*
X335870Y314139D01*
X335006Y314497D01*
X334079Y314619D01*
D02*
G37*
G36*
X324079D02*
X323151Y314497D01*
X322287Y314139D01*
X321545Y313569D01*
X320975Y312827D01*
X320617Y311963D01*
X320495Y311035D01*
X320617Y310108D01*
X320975Y309244D01*
X321545Y308502D01*
X322287Y307932D01*
X323151Y307574D01*
X324079Y307452D01*
X325006Y307574D01*
X325870Y307932D01*
X326613Y308502D01*
X327182Y309244D01*
X327540Y310108D01*
X327662Y311035D01*
X327540Y311963D01*
X327182Y312827D01*
X326613Y313569D01*
X325870Y314139D01*
X325006Y314497D01*
X324079Y314619D01*
D02*
G37*
G36*
X145500Y309583D02*
X144573Y309461D01*
X143708Y309103D01*
X142966Y308534D01*
X142397Y307792D01*
X142039Y306927D01*
X141917Y306000D01*
X142039Y305073D01*
X142397Y304208D01*
X142966Y303466D01*
X143708Y302897D01*
X144573Y302539D01*
X145500Y302417D01*
X146427Y302539D01*
X147292Y302897D01*
X148034Y303466D01*
X148603Y304208D01*
X148961Y305073D01*
X149083Y306000D01*
X148961Y306927D01*
X148603Y307792D01*
X148034Y308534D01*
X147292Y309103D01*
X146427Y309461D01*
X145500Y309583D01*
D02*
G37*
G36*
X135500D02*
X134573Y309461D01*
X133708Y309103D01*
X132966Y308534D01*
X132397Y307792D01*
X132039Y306927D01*
X131917Y306000D01*
X132039Y305073D01*
X132397Y304208D01*
X132966Y303466D01*
X133708Y302897D01*
X134573Y302539D01*
X135500Y302417D01*
X136427Y302539D01*
X137292Y302897D01*
X138034Y303466D01*
X138603Y304208D01*
X138961Y305073D01*
X139083Y306000D01*
X138961Y306927D01*
X138603Y307792D01*
X138034Y308534D01*
X137292Y309103D01*
X136427Y309461D01*
X135500Y309583D01*
D02*
G37*
G36*
X343579Y304553D02*
X343151Y304497D01*
X342287Y304139D01*
X341545Y303569D01*
X340975Y302827D01*
X340617Y301963D01*
X340561Y301535D01*
X343579D01*
Y304553D01*
D02*
G37*
G36*
X236500Y306233D02*
X235837Y306101D01*
X235274Y305726D01*
X234899Y305163D01*
X234767Y304500D01*
X234899Y303837D01*
X235274Y303274D01*
X235837Y302899D01*
X236500Y302767D01*
X236743Y302815D01*
X239480Y300078D01*
Y298669D01*
X238980Y298462D01*
X238185Y299257D01*
X238233Y299500D01*
X238101Y300163D01*
X237726Y300726D01*
X237163Y301101D01*
X236500Y301233D01*
X235837Y301101D01*
X235274Y300726D01*
X234899Y300163D01*
X234767Y299500D01*
X234899Y298837D01*
X235274Y298274D01*
X235837Y297899D01*
X236500Y297767D01*
X236743Y297815D01*
X237480Y297078D01*
Y254996D01*
X236980Y254844D01*
X236726Y255226D01*
X236163Y255601D01*
X235500Y255733D01*
X234837Y255601D01*
X234274Y255226D01*
X233899Y254663D01*
X233767Y254000D01*
X233899Y253337D01*
X234274Y252774D01*
X234480Y252637D01*
Y244922D01*
X222779Y233221D01*
X222558Y232890D01*
X222480Y232500D01*
Y210952D01*
X216547Y205020D01*
X209363D01*
X209226Y205226D01*
X208663Y205601D01*
X208000Y205733D01*
X207337Y205601D01*
X206774Y205226D01*
X206399Y204663D01*
X206267Y204000D01*
X206399Y203337D01*
X206774Y202774D01*
X206980Y202637D01*
Y168750D01*
X207058Y168360D01*
X207279Y168029D01*
X212980Y162328D01*
Y148021D01*
X212480Y147869D01*
X212257Y148203D01*
X211695Y148579D01*
X211031Y148711D01*
X210368Y148579D01*
X209806Y148203D01*
X209668Y147997D01*
X197945D01*
X183520Y162422D01*
Y168579D01*
X183812Y168774D01*
X184188Y169337D01*
X184320Y170000D01*
X184188Y170663D01*
X183812Y171226D01*
X183250Y171601D01*
X182802Y171690D01*
X182451Y172177D01*
X182468Y172265D01*
X182336Y172928D01*
X181960Y173491D01*
X181398Y173866D01*
X180735Y173998D01*
X180072Y173866D01*
X179923Y173767D01*
X179392Y173872D01*
X179017Y174434D01*
X178454Y174810D01*
X177791Y174942D01*
X177128Y174810D01*
X176565Y174434D01*
X176215Y173909D01*
X176080Y173882D01*
X175750Y173661D01*
X170583Y168494D01*
X170362Y168164D01*
X170284Y167773D01*
Y159799D01*
X169784Y159592D01*
X166629Y162747D01*
Y182013D01*
X166631Y182015D01*
X167007Y182577D01*
X167139Y183240D01*
X167007Y183904D01*
X166631Y184466D01*
X166069Y184842D01*
X165405Y184974D01*
X164742Y184842D01*
X164180Y184466D01*
X163804Y183904D01*
X163672Y183240D01*
X163804Y182577D01*
X164180Y182015D01*
X164182Y182013D01*
Y162240D01*
X164275Y161772D01*
X164540Y161375D01*
X168001Y157914D01*
Y153928D01*
X166023Y151950D01*
X164877D01*
X164681Y152184D01*
X164764Y152773D01*
X164988Y152923D01*
X165364Y153485D01*
X165496Y154148D01*
X165364Y154812D01*
X164988Y155374D01*
X164426Y155750D01*
X163762Y155882D01*
X163099Y155750D01*
X162537Y155374D01*
X162399Y155168D01*
X153297D01*
X151815Y156650D01*
X151863Y156893D01*
X151731Y157556D01*
X151356Y158118D01*
X150793Y158494D01*
X150130Y158626D01*
X149467Y158494D01*
X148904Y158118D01*
X148723Y157848D01*
X148223Y158000D01*
Y159652D01*
X150069D01*
X150070Y159650D01*
X150632Y159274D01*
X151296Y159142D01*
X151959Y159274D01*
X152521Y159650D01*
X152897Y160212D01*
X153029Y160875D01*
X152897Y161538D01*
X152521Y162101D01*
X151959Y162477D01*
X151296Y162608D01*
X150632Y162477D01*
X150070Y162101D01*
X150069Y162099D01*
X147703D01*
X147235Y162005D01*
X146838Y161740D01*
X146135Y161037D01*
X145870Y160640D01*
X145776Y160172D01*
Y137500D01*
X145870Y137032D01*
X146135Y136635D01*
X156776Y125993D01*
Y119053D01*
X154447D01*
Y111947D01*
X161553D01*
Y119053D01*
X159223D01*
Y126500D01*
X159130Y126968D01*
X158865Y127365D01*
X148223Y138007D01*
Y155786D01*
X148723Y155938D01*
X148904Y155667D01*
X149467Y155291D01*
X150130Y155159D01*
X150373Y155208D01*
X152153Y153427D01*
X152484Y153206D01*
X152874Y153129D01*
X162399D01*
X162537Y152923D01*
X162872Y152699D01*
X162901Y152549D01*
X162845Y152127D01*
X162404Y151832D01*
X162029Y151270D01*
X161897Y150606D01*
X162029Y149943D01*
X162404Y149381D01*
X162777Y149132D01*
Y135227D01*
X162774Y135226D01*
X162399Y134663D01*
X162267Y134000D01*
X162399Y133337D01*
X162774Y132774D01*
X163337Y132399D01*
X164000Y132267D01*
X164663Y132399D01*
X165226Y132774D01*
X165601Y133337D01*
X165733Y134000D01*
X165601Y134663D01*
X165226Y135226D01*
X165224Y135227D01*
Y149503D01*
X166530D01*
X166594Y149516D01*
X166980Y149199D01*
Y118923D01*
X166208Y118603D01*
X165466Y118034D01*
X164897Y117292D01*
X164539Y116427D01*
X164417Y115500D01*
X164539Y114573D01*
X164897Y113708D01*
X165466Y112966D01*
X166208Y112397D01*
X167073Y112039D01*
X168000Y111917D01*
X168927Y112039D01*
X169792Y112397D01*
X170534Y112966D01*
X171103Y113708D01*
X171461Y114573D01*
X171583Y115500D01*
X171461Y116427D01*
X171103Y117292D01*
X170534Y118034D01*
X169792Y118603D01*
X169020Y118923D01*
Y149512D01*
X172025Y152517D01*
X172246Y152848D01*
X172323Y153238D01*
Y166943D01*
X172512Y167080D01*
X173152Y166958D01*
X173274Y166774D01*
X173480Y166637D01*
Y155751D01*
X173558Y155361D01*
X173779Y155030D01*
X184856Y143954D01*
X184808Y143710D01*
X184939Y143047D01*
X185222Y142625D01*
X185022Y142125D01*
X173135D01*
X172745Y142047D01*
X172415Y141826D01*
X170679Y140091D01*
X170458Y139760D01*
X170380Y139370D01*
Y131926D01*
X170458Y131535D01*
X170679Y131205D01*
X176980Y124903D01*
Y118923D01*
X176208Y118603D01*
X175466Y118034D01*
X174897Y117292D01*
X174539Y116427D01*
X174417Y115500D01*
X174539Y114573D01*
X174897Y113708D01*
X175466Y112966D01*
X176208Y112397D01*
X177073Y112039D01*
X178000Y111917D01*
X178927Y112039D01*
X179792Y112397D01*
X180534Y112966D01*
X181103Y113708D01*
X181461Y114573D01*
X181583Y115500D01*
X181461Y116427D01*
X181103Y117292D01*
X180534Y118034D01*
X179792Y118603D01*
X179020Y118923D01*
Y125326D01*
X178942Y125716D01*
X178721Y126047D01*
X172420Y132348D01*
Y136628D01*
X172920Y136882D01*
X173500Y136767D01*
X174163Y136899D01*
X174726Y137274D01*
X174727Y137276D01*
X182773D01*
X182774Y137274D01*
X183337Y136899D01*
X184000Y136767D01*
X184663Y136899D01*
X185226Y137274D01*
X185601Y137837D01*
X185733Y138500D01*
X185601Y139163D01*
X185319Y139586D01*
X185518Y140086D01*
X186905D01*
X187295Y140163D01*
X187626Y140384D01*
X189362Y142120D01*
X189583Y142450D01*
X189660Y142841D01*
Y152691D01*
X190160Y152898D01*
X196801Y146257D01*
X197132Y146036D01*
X197522Y145958D01*
X209668D01*
X209806Y145752D01*
X210368Y145376D01*
X211031Y145244D01*
X211695Y145376D01*
X212257Y145752D01*
X212480Y146086D01*
X212980Y145935D01*
Y128863D01*
X212774Y128726D01*
X212399Y128163D01*
X212267Y127500D01*
X212399Y126837D01*
X212774Y126274D01*
X213337Y125899D01*
X214000Y125767D01*
X214663Y125899D01*
X215226Y126274D01*
X215601Y126837D01*
X215733Y127500D01*
X215601Y128163D01*
X215226Y128726D01*
X215020Y128863D01*
Y162750D01*
X214942Y163140D01*
X214721Y163471D01*
X209020Y169172D01*
Y202637D01*
X209226Y202774D01*
X209363Y202980D01*
X216970D01*
X217360Y203058D01*
X217691Y203279D01*
X224221Y209809D01*
X224442Y210140D01*
X224520Y210530D01*
Y232078D01*
X236221Y243779D01*
X236442Y244110D01*
X236520Y244500D01*
Y252637D01*
X236726Y252774D01*
X236980Y253156D01*
X237480Y253004D01*
Y240363D01*
X237274Y240226D01*
X236899Y239663D01*
X236767Y239000D01*
X236899Y238337D01*
X237274Y237774D01*
X237837Y237399D01*
X238450Y237277D01*
X238502Y237263D01*
X238831Y236823D01*
X238767Y236500D01*
X238899Y235837D01*
X239274Y235274D01*
X239837Y234899D01*
X240500Y234767D01*
X241163Y234899D01*
X241726Y235274D01*
X242101Y235837D01*
X242233Y236500D01*
X242101Y237163D01*
X241726Y237726D01*
X241520Y237863D01*
Y300500D01*
X241442Y300890D01*
X241221Y301221D01*
X238185Y304257D01*
X238233Y304500D01*
X238101Y305163D01*
X237726Y305726D01*
X237163Y306101D01*
X236500Y306233D01*
D02*
G37*
G36*
X343579Y300535D02*
X340561D01*
X340617Y300108D01*
X340975Y299244D01*
X341545Y298502D01*
X342287Y297932D01*
X343151Y297574D01*
X343579Y297518D01*
Y300535D01*
D02*
G37*
G36*
X334079Y304619D02*
X333151Y304497D01*
X332287Y304139D01*
X331545Y303569D01*
X330975Y302827D01*
X330617Y301963D01*
X330495Y301035D01*
X330617Y300108D01*
X330975Y299244D01*
X331545Y298502D01*
X332287Y297932D01*
X333151Y297574D01*
X334079Y297452D01*
X335006Y297574D01*
X335870Y297932D01*
X336613Y298502D01*
X337182Y299244D01*
X337540Y300108D01*
X337662Y301035D01*
X337540Y301963D01*
X337182Y302827D01*
X336613Y303569D01*
X335870Y304139D01*
X335006Y304497D01*
X334079Y304619D01*
D02*
G37*
G36*
X324079D02*
X323151Y304497D01*
X322287Y304139D01*
X321545Y303569D01*
X320975Y302827D01*
X320617Y301963D01*
X320495Y301035D01*
X320617Y300108D01*
X320975Y299244D01*
X321545Y298502D01*
X322287Y297932D01*
X323151Y297574D01*
X324079Y297452D01*
X325006Y297574D01*
X325870Y297932D01*
X326613Y298502D01*
X327182Y299244D01*
X327540Y300108D01*
X327662Y301035D01*
X327540Y301963D01*
X327182Y302827D01*
X326613Y303569D01*
X325870Y304139D01*
X325006Y304497D01*
X324079Y304619D01*
D02*
G37*
G36*
X145500Y299583D02*
X144573Y299461D01*
X143708Y299103D01*
X142966Y298534D01*
X142397Y297792D01*
X142039Y296927D01*
X141917Y296000D01*
X142039Y295073D01*
X142397Y294208D01*
X142966Y293466D01*
X143708Y292897D01*
X144573Y292539D01*
X145500Y292417D01*
X146427Y292539D01*
X147292Y292897D01*
X148034Y293466D01*
X148603Y294208D01*
X148961Y295073D01*
X149083Y296000D01*
X148961Y296927D01*
X148603Y297792D01*
X148034Y298534D01*
X147292Y299103D01*
X146427Y299461D01*
X145500Y299583D01*
D02*
G37*
G36*
X135500D02*
X134573Y299461D01*
X133708Y299103D01*
X132966Y298534D01*
X132397Y297792D01*
X132039Y296927D01*
X131917Y296000D01*
X132039Y295073D01*
X132397Y294208D01*
X132966Y293466D01*
X133708Y292897D01*
X134573Y292539D01*
X135500Y292417D01*
X136427Y292539D01*
X137292Y292897D01*
X138034Y293466D01*
X138603Y294208D01*
X138961Y295073D01*
X139083Y296000D01*
X138961Y296927D01*
X138603Y297792D01*
X138034Y298534D01*
X137292Y299103D01*
X136427Y299461D01*
X135500Y299583D01*
D02*
G37*
G36*
X343579Y294553D02*
X343151Y294497D01*
X342287Y294139D01*
X341545Y293569D01*
X340975Y292827D01*
X340617Y291963D01*
X340561Y291535D01*
X343579D01*
Y294553D01*
D02*
G37*
G36*
Y290535D02*
X340561D01*
X340617Y290108D01*
X340975Y289244D01*
X341545Y288502D01*
X342287Y287932D01*
X343151Y287574D01*
X343579Y287518D01*
Y290535D01*
D02*
G37*
G36*
X334079Y294619D02*
X333151Y294497D01*
X332287Y294139D01*
X331545Y293569D01*
X330975Y292827D01*
X330617Y291963D01*
X330495Y291035D01*
X330617Y290108D01*
X330975Y289244D01*
X331545Y288502D01*
X332287Y287932D01*
X333151Y287574D01*
X334079Y287452D01*
X335006Y287574D01*
X335870Y287932D01*
X336613Y288502D01*
X337182Y289244D01*
X337540Y290108D01*
X337662Y291035D01*
X337540Y291963D01*
X337182Y292827D01*
X336613Y293569D01*
X335870Y294139D01*
X335006Y294497D01*
X334079Y294619D01*
D02*
G37*
G36*
X324079D02*
X323151Y294497D01*
X322287Y294139D01*
X321545Y293569D01*
X320975Y292827D01*
X320617Y291963D01*
X320495Y291035D01*
X320617Y290108D01*
X320975Y289244D01*
X321545Y288502D01*
X322287Y287932D01*
X323151Y287574D01*
X324079Y287452D01*
X325006Y287574D01*
X325870Y287932D01*
X326613Y288502D01*
X327182Y289244D01*
X327540Y290108D01*
X327662Y291035D01*
X327540Y291963D01*
X327182Y292827D01*
X326613Y293569D01*
X325870Y294139D01*
X325006Y294497D01*
X324079Y294619D01*
D02*
G37*
G36*
X256626Y289263D02*
X255962Y289131D01*
X255400Y288755D01*
X255024Y288193D01*
X254933Y287733D01*
X251779Y284579D01*
X251558Y284249D01*
X251480Y283858D01*
Y259863D01*
X251274Y259726D01*
X250899Y259163D01*
X250767Y258500D01*
X250899Y257837D01*
X251274Y257274D01*
X251837Y256899D01*
X252500Y256767D01*
X253163Y256899D01*
X253726Y257274D01*
X254101Y257837D01*
X254233Y258500D01*
X254101Y259163D01*
X253726Y259726D01*
X253520Y259863D01*
Y283436D01*
X256003Y285920D01*
X256626Y285796D01*
X257289Y285928D01*
X257851Y286304D01*
X258227Y286866D01*
X258359Y287529D01*
X258227Y288193D01*
X257851Y288755D01*
X257289Y289131D01*
X256626Y289263D01*
D02*
G37*
G36*
X256500Y300233D02*
X255837Y300101D01*
X255274Y299726D01*
X254899Y299163D01*
X254767Y298500D01*
X254899Y297837D01*
X255274Y297274D01*
X255480Y297137D01*
Y295332D01*
X255558Y294941D01*
X255779Y294611D01*
X274111Y276279D01*
X274441Y276058D01*
X274832Y275980D01*
X276637D01*
X276774Y275774D01*
X277337Y275399D01*
X278000Y275267D01*
X278663Y275399D01*
X279226Y275774D01*
X279601Y276337D01*
X279733Y277000D01*
X279601Y277663D01*
X279226Y278226D01*
X278663Y278601D01*
X278000Y278733D01*
X277337Y278601D01*
X276774Y278226D01*
X276637Y278020D01*
X275254D01*
X271293Y281980D01*
X271500Y282480D01*
X281137D01*
X281274Y282274D01*
X281837Y281899D01*
X282500Y281767D01*
X283163Y281899D01*
X283726Y282274D01*
X284101Y282837D01*
X284233Y283500D01*
X284101Y284163D01*
X283726Y284726D01*
X283163Y285101D01*
X282500Y285233D01*
X281837Y285101D01*
X281274Y284726D01*
X281137Y284520D01*
X271422D01*
X260618Y295323D01*
X260693Y295700D01*
X260561Y296363D01*
X260186Y296926D01*
X259623Y297301D01*
X258960Y297433D01*
X258352Y297312D01*
X258210Y297433D01*
X258022Y297718D01*
X258101Y297837D01*
X258233Y298500D01*
X258101Y299163D01*
X257726Y299726D01*
X257163Y300101D01*
X256500Y300233D01*
D02*
G37*
G36*
X343579Y284553D02*
X343151Y284497D01*
X342287Y284139D01*
X341545Y283569D01*
X340975Y282827D01*
X340617Y281963D01*
X340561Y281535D01*
X343579D01*
Y284553D01*
D02*
G37*
G36*
Y280535D02*
X340561D01*
X340617Y280108D01*
X340975Y279244D01*
X341545Y278502D01*
X342287Y277932D01*
X343151Y277574D01*
X343579Y277518D01*
Y280535D01*
D02*
G37*
G36*
X334079Y284619D02*
X333151Y284497D01*
X332287Y284139D01*
X331545Y283569D01*
X330975Y282827D01*
X330617Y281963D01*
X330495Y281035D01*
X330617Y280108D01*
X330975Y279244D01*
X331545Y278502D01*
X332287Y277932D01*
X333151Y277574D01*
X334079Y277452D01*
X335006Y277574D01*
X335870Y277932D01*
X336613Y278502D01*
X337182Y279244D01*
X337540Y280108D01*
X337662Y281035D01*
X337540Y281963D01*
X337182Y282827D01*
X336613Y283569D01*
X335870Y284139D01*
X335006Y284497D01*
X334079Y284619D01*
D02*
G37*
G36*
X324079D02*
X323151Y284497D01*
X322287Y284139D01*
X321545Y283569D01*
X320975Y282827D01*
X320617Y281963D01*
X320495Y281035D01*
X320617Y280108D01*
X320975Y279244D01*
X321545Y278502D01*
X322287Y277932D01*
X323151Y277574D01*
X324079Y277452D01*
X325006Y277574D01*
X325870Y277932D01*
X326613Y278502D01*
X327182Y279244D01*
X327540Y280108D01*
X327662Y281035D01*
X327540Y281963D01*
X327182Y282827D01*
X326613Y283569D01*
X325870Y284139D01*
X325006Y284497D01*
X324079Y284619D01*
D02*
G37*
G36*
X343579Y274553D02*
X343151Y274497D01*
X342287Y274139D01*
X341545Y273569D01*
X340975Y272827D01*
X340617Y271963D01*
X340561Y271535D01*
X343579D01*
Y274553D01*
D02*
G37*
G36*
Y270535D02*
X340561D01*
X340617Y270108D01*
X340975Y269244D01*
X341545Y268502D01*
X342287Y267932D01*
X343151Y267574D01*
X343579Y267518D01*
Y270535D01*
D02*
G37*
G36*
X334079Y274619D02*
X333151Y274497D01*
X332287Y274139D01*
X331545Y273569D01*
X330975Y272827D01*
X330617Y271963D01*
X330495Y271035D01*
X330617Y270108D01*
X330975Y269244D01*
X331545Y268502D01*
X332287Y267932D01*
X333151Y267574D01*
X334079Y267452D01*
X335006Y267574D01*
X335870Y267932D01*
X336613Y268502D01*
X337182Y269244D01*
X337540Y270108D01*
X337662Y271035D01*
X337540Y271963D01*
X337182Y272827D01*
X336613Y273569D01*
X335870Y274139D01*
X335006Y274497D01*
X334079Y274619D01*
D02*
G37*
G36*
X324079D02*
X323151Y274497D01*
X322287Y274139D01*
X321545Y273569D01*
X320975Y272827D01*
X320617Y271963D01*
X320495Y271035D01*
X320617Y270108D01*
X320975Y269244D01*
X321545Y268502D01*
X322287Y267932D01*
X323151Y267574D01*
X324079Y267452D01*
X325006Y267574D01*
X325870Y267932D01*
X326613Y268502D01*
X327182Y269244D01*
X327540Y270108D01*
X327662Y271035D01*
X327540Y271963D01*
X327182Y272827D01*
X326613Y273569D01*
X325870Y274139D01*
X325006Y274497D01*
X324079Y274619D01*
D02*
G37*
G36*
X274503Y268757D02*
X273839Y268625D01*
X273277Y268249D01*
X272901Y267687D01*
X272769Y267024D01*
X272818Y266781D01*
X256878Y250841D01*
X251218D01*
X251080Y251047D01*
X250518Y251423D01*
X249854Y251555D01*
X249191Y251423D01*
X248629Y251047D01*
X248253Y250485D01*
X248121Y249821D01*
X248253Y249158D01*
X248629Y248596D01*
X249191Y248220D01*
X249854Y248088D01*
X250518Y248220D01*
X251080Y248596D01*
X251218Y248802D01*
X257300D01*
X257691Y248880D01*
X258021Y249100D01*
X274260Y265339D01*
X274503Y265290D01*
X275166Y265422D01*
X275728Y265798D01*
X276104Y266360D01*
X276236Y267024D01*
X276104Y267687D01*
X275728Y268249D01*
X275166Y268625D01*
X274503Y268757D01*
D02*
G37*
G36*
X343579Y264553D02*
X343151Y264497D01*
X342287Y264139D01*
X341545Y263569D01*
X340975Y262827D01*
X340617Y261963D01*
X340561Y261535D01*
X343579D01*
Y264553D01*
D02*
G37*
G36*
Y260535D02*
X340561D01*
X340617Y260108D01*
X340975Y259244D01*
X341545Y258502D01*
X342287Y257932D01*
X343151Y257574D01*
X343579Y257518D01*
Y260535D01*
D02*
G37*
G36*
X334079Y264619D02*
X333151Y264497D01*
X332287Y264139D01*
X331545Y263569D01*
X330975Y262827D01*
X330617Y261963D01*
X330495Y261035D01*
X330617Y260108D01*
X330975Y259244D01*
X331545Y258502D01*
X332287Y257932D01*
X333151Y257574D01*
X334079Y257452D01*
X335006Y257574D01*
X335870Y257932D01*
X336613Y258502D01*
X337182Y259244D01*
X337540Y260108D01*
X337662Y261035D01*
X337540Y261963D01*
X337182Y262827D01*
X336613Y263569D01*
X335870Y264139D01*
X335006Y264497D01*
X334079Y264619D01*
D02*
G37*
G36*
X324079D02*
X323151Y264497D01*
X322287Y264139D01*
X321545Y263569D01*
X320975Y262827D01*
X320617Y261963D01*
X320495Y261035D01*
X320617Y260108D01*
X320975Y259244D01*
X321545Y258502D01*
X322287Y257932D01*
X323151Y257574D01*
X324079Y257452D01*
X325006Y257574D01*
X325870Y257932D01*
X326613Y258502D01*
X327182Y259244D01*
X327540Y260108D01*
X327662Y261035D01*
X327540Y261963D01*
X327182Y262827D01*
X326613Y263569D01*
X325870Y264139D01*
X325006Y264497D01*
X324079Y264619D01*
D02*
G37*
G36*
X343579Y254553D02*
X343151Y254497D01*
X342287Y254139D01*
X341545Y253569D01*
X340975Y252827D01*
X340617Y251963D01*
X340561Y251535D01*
X343579D01*
Y254553D01*
D02*
G37*
G36*
Y250535D02*
X340561D01*
X340617Y250108D01*
X340975Y249244D01*
X341545Y248502D01*
X342287Y247932D01*
X343151Y247574D01*
X343579Y247518D01*
Y250535D01*
D02*
G37*
G36*
X334079Y254619D02*
X333151Y254497D01*
X332287Y254139D01*
X331545Y253569D01*
X330975Y252827D01*
X330617Y251963D01*
X330495Y251035D01*
X330617Y250108D01*
X330975Y249244D01*
X331545Y248502D01*
X332287Y247932D01*
X333151Y247574D01*
X334079Y247452D01*
X335006Y247574D01*
X335870Y247932D01*
X336613Y248502D01*
X337182Y249244D01*
X337540Y250108D01*
X337662Y251035D01*
X337540Y251963D01*
X337182Y252827D01*
X336613Y253569D01*
X335870Y254139D01*
X335006Y254497D01*
X334079Y254619D01*
D02*
G37*
G36*
X324079D02*
X323151Y254497D01*
X322287Y254139D01*
X321545Y253569D01*
X320975Y252827D01*
X320617Y251963D01*
X320495Y251035D01*
X320617Y250108D01*
X320975Y249244D01*
X321545Y248502D01*
X322287Y247932D01*
X323151Y247574D01*
X324079Y247452D01*
X325006Y247574D01*
X325870Y247932D01*
X326613Y248502D01*
X327182Y249244D01*
X327540Y250108D01*
X327662Y251035D01*
X327540Y251963D01*
X327182Y252827D01*
X326613Y253569D01*
X325870Y254139D01*
X325006Y254497D01*
X324079Y254619D01*
D02*
G37*
G36*
X343579Y244553D02*
X343151Y244497D01*
X342287Y244139D01*
X341545Y243569D01*
X340975Y242827D01*
X340617Y241963D01*
X340561Y241535D01*
X343579D01*
Y244553D01*
D02*
G37*
G36*
Y240535D02*
X340561D01*
X340617Y240108D01*
X340975Y239244D01*
X341545Y238502D01*
X342287Y237932D01*
X343151Y237574D01*
X343579Y237518D01*
Y240535D01*
D02*
G37*
G36*
X334079Y244619D02*
X333151Y244497D01*
X332287Y244139D01*
X331545Y243569D01*
X330975Y242827D01*
X330617Y241963D01*
X330495Y241035D01*
X330617Y240108D01*
X330975Y239244D01*
X331545Y238502D01*
X332287Y237932D01*
X333151Y237574D01*
X334079Y237452D01*
X335006Y237574D01*
X335870Y237932D01*
X336613Y238502D01*
X337182Y239244D01*
X337540Y240108D01*
X337662Y241035D01*
X337540Y241963D01*
X337182Y242827D01*
X336613Y243569D01*
X335870Y244139D01*
X335006Y244497D01*
X334079Y244619D01*
D02*
G37*
G36*
X324079D02*
X323151Y244497D01*
X322287Y244139D01*
X321545Y243569D01*
X320975Y242827D01*
X320617Y241963D01*
X320495Y241035D01*
X320617Y240108D01*
X320975Y239244D01*
X321545Y238502D01*
X322287Y237932D01*
X323151Y237574D01*
X324079Y237452D01*
X325006Y237574D01*
X325870Y237932D01*
X326613Y238502D01*
X327182Y239244D01*
X327540Y240108D01*
X327662Y241035D01*
X327540Y241963D01*
X327182Y242827D01*
X326613Y243569D01*
X325870Y244139D01*
X325006Y244497D01*
X324079Y244619D01*
D02*
G37*
G36*
X265500Y243622D02*
X265071Y243536D01*
X264707Y243293D01*
X261707Y240293D01*
X261464Y239929D01*
X261378Y239500D01*
X261379Y239500D01*
Y233500D01*
X261464Y233071D01*
X261707Y232707D01*
X262071Y232464D01*
X262500Y232379D01*
X262929Y232464D01*
X263293Y232707D01*
X263536Y233071D01*
X263621Y233500D01*
Y239035D01*
X266293Y241707D01*
X266536Y242071D01*
X266622Y242500D01*
X266536Y242929D01*
X266293Y243293D01*
X265929Y243536D01*
X265500Y243622D01*
D02*
G37*
G36*
X343579Y234553D02*
X343151Y234497D01*
X342287Y234139D01*
X341545Y233569D01*
X340975Y232827D01*
X340617Y231963D01*
X340561Y231535D01*
X343579D01*
Y234553D01*
D02*
G37*
G36*
Y230535D02*
X340561D01*
X340617Y230108D01*
X340975Y229244D01*
X341545Y228502D01*
X342287Y227932D01*
X343151Y227574D01*
X343579Y227518D01*
Y230535D01*
D02*
G37*
G36*
X334079Y234619D02*
X333151Y234497D01*
X332287Y234139D01*
X331545Y233569D01*
X330975Y232827D01*
X330617Y231963D01*
X330495Y231035D01*
X330617Y230108D01*
X330975Y229244D01*
X331545Y228502D01*
X332287Y227932D01*
X333151Y227574D01*
X334079Y227452D01*
X335006Y227574D01*
X335870Y227932D01*
X336613Y228502D01*
X337182Y229244D01*
X337540Y230108D01*
X337662Y231035D01*
X337540Y231963D01*
X337182Y232827D01*
X336613Y233569D01*
X335870Y234139D01*
X335006Y234497D01*
X334079Y234619D01*
D02*
G37*
G36*
X324079D02*
X323151Y234497D01*
X322287Y234139D01*
X321545Y233569D01*
X320975Y232827D01*
X320617Y231963D01*
X320495Y231035D01*
X320617Y230108D01*
X320975Y229244D01*
X321545Y228502D01*
X322287Y227932D01*
X323151Y227574D01*
X324079Y227452D01*
X325006Y227574D01*
X325870Y227932D01*
X326613Y228502D01*
X327182Y229244D01*
X327540Y230108D01*
X327662Y231035D01*
X327540Y231963D01*
X327182Y232827D01*
X326613Y233569D01*
X325870Y234139D01*
X325006Y234497D01*
X324079Y234619D01*
D02*
G37*
G36*
X343579Y224553D02*
X343151Y224497D01*
X342287Y224139D01*
X341545Y223569D01*
X340975Y222827D01*
X340617Y221963D01*
X340561Y221535D01*
X343579D01*
Y224553D01*
D02*
G37*
G36*
X309500Y221121D02*
Y218500D01*
X312121D01*
X312078Y218825D01*
X311759Y219593D01*
X311253Y220253D01*
X310593Y220759D01*
X309825Y221078D01*
X309500Y221121D01*
D02*
G37*
G36*
X308500D02*
X308175Y221078D01*
X307407Y220759D01*
X306747Y220253D01*
X306241Y219593D01*
X305922Y218825D01*
X305879Y218500D01*
X308500D01*
Y221121D01*
D02*
G37*
G36*
X343579Y220535D02*
X340561D01*
X340617Y220108D01*
X340975Y219244D01*
X341545Y218502D01*
X342287Y217932D01*
X343151Y217574D01*
X343579Y217518D01*
Y220535D01*
D02*
G37*
G36*
X334079Y224619D02*
X333151Y224497D01*
X332287Y224139D01*
X331545Y223569D01*
X330975Y222827D01*
X330617Y221963D01*
X330495Y221035D01*
X330617Y220108D01*
X330975Y219244D01*
X331545Y218502D01*
X332287Y217932D01*
X333151Y217574D01*
X334079Y217452D01*
X335006Y217574D01*
X335870Y217932D01*
X336613Y218502D01*
X337182Y219244D01*
X337540Y220108D01*
X337662Y221035D01*
X337540Y221963D01*
X337182Y222827D01*
X336613Y223569D01*
X335870Y224139D01*
X335006Y224497D01*
X334079Y224619D01*
D02*
G37*
G36*
X324079D02*
X323151Y224497D01*
X322287Y224139D01*
X321545Y223569D01*
X320975Y222827D01*
X320617Y221963D01*
X320495Y221035D01*
X320617Y220108D01*
X320975Y219244D01*
X321545Y218502D01*
X322287Y217932D01*
X323151Y217574D01*
X324079Y217452D01*
X325006Y217574D01*
X325870Y217932D01*
X326613Y218502D01*
X327182Y219244D01*
X327540Y220108D01*
X327662Y221035D01*
X327540Y221963D01*
X327182Y222827D01*
X326613Y223569D01*
X325870Y224139D01*
X325006Y224497D01*
X324079Y224619D01*
D02*
G37*
G36*
X312121Y217500D02*
X309500D01*
Y214879D01*
X309825Y214922D01*
X310593Y215241D01*
X311253Y215747D01*
X311759Y216407D01*
X312078Y217175D01*
X312121Y217500D01*
D02*
G37*
G36*
X308500D02*
X305879D01*
X305922Y217175D01*
X306241Y216407D01*
X306747Y215747D01*
X307407Y215241D01*
X308175Y214922D01*
X308500Y214879D01*
Y217500D01*
D02*
G37*
G36*
X302316Y221159D02*
X295998D01*
Y214841D01*
X302316D01*
Y221159D01*
D02*
G37*
G36*
X343579Y214553D02*
X343151Y214497D01*
X342287Y214139D01*
X341545Y213569D01*
X340975Y212827D01*
X340617Y211963D01*
X340561Y211535D01*
X343579D01*
Y214553D01*
D02*
G37*
G36*
Y210535D02*
X340561D01*
X340617Y210108D01*
X340975Y209244D01*
X341545Y208502D01*
X342287Y207932D01*
X343151Y207574D01*
X343579Y207518D01*
Y210535D01*
D02*
G37*
G36*
X334079Y214619D02*
X333151Y214497D01*
X332287Y214139D01*
X331545Y213569D01*
X330975Y212827D01*
X330617Y211963D01*
X330495Y211035D01*
X330617Y210108D01*
X330975Y209244D01*
X331545Y208502D01*
X332287Y207932D01*
X333151Y207574D01*
X334079Y207452D01*
X335006Y207574D01*
X335870Y207932D01*
X336613Y208502D01*
X337182Y209244D01*
X337540Y210108D01*
X337662Y211035D01*
X337540Y211963D01*
X337182Y212827D01*
X336613Y213569D01*
X335870Y214139D01*
X335006Y214497D01*
X334079Y214619D01*
D02*
G37*
G36*
X324079D02*
X323151Y214497D01*
X322287Y214139D01*
X321545Y213569D01*
X320975Y212827D01*
X320617Y211963D01*
X320495Y211035D01*
X320617Y210108D01*
X320975Y209244D01*
X321545Y208502D01*
X322287Y207932D01*
X323151Y207574D01*
X324079Y207452D01*
X325006Y207574D01*
X325870Y207932D01*
X326613Y208502D01*
X327182Y209244D01*
X327540Y210108D01*
X327662Y211035D01*
X327540Y211963D01*
X327182Y212827D01*
X326613Y213569D01*
X325870Y214139D01*
X325006Y214497D01*
X324079Y214619D01*
D02*
G37*
G36*
X343579Y204553D02*
X343151Y204497D01*
X342287Y204139D01*
X341545Y203569D01*
X340975Y202827D01*
X340617Y201963D01*
X340561Y201535D01*
X343579D01*
Y204553D01*
D02*
G37*
G36*
Y200535D02*
X340561D01*
X340617Y200108D01*
X340975Y199244D01*
X341545Y198502D01*
X342287Y197932D01*
X343151Y197574D01*
X343579Y197518D01*
Y200535D01*
D02*
G37*
G36*
X334079Y204619D02*
X333151Y204497D01*
X332287Y204139D01*
X331545Y203569D01*
X330975Y202827D01*
X330617Y201963D01*
X330495Y201035D01*
X330617Y200108D01*
X330975Y199244D01*
X331545Y198502D01*
X332287Y197932D01*
X333151Y197574D01*
X334079Y197452D01*
X335006Y197574D01*
X335870Y197932D01*
X336613Y198502D01*
X337182Y199244D01*
X337540Y200108D01*
X337662Y201035D01*
X337540Y201963D01*
X337182Y202827D01*
X336613Y203569D01*
X335870Y204139D01*
X335006Y204497D01*
X334079Y204619D01*
D02*
G37*
G36*
X324079D02*
X323151Y204497D01*
X322287Y204139D01*
X321545Y203569D01*
X320975Y202827D01*
X320617Y201963D01*
X320495Y201035D01*
X320617Y200108D01*
X320975Y199244D01*
X321545Y198502D01*
X322287Y197932D01*
X323151Y197574D01*
X324079Y197452D01*
X325006Y197574D01*
X325870Y197932D01*
X326613Y198502D01*
X327182Y199244D01*
X327540Y200108D01*
X327662Y201035D01*
X327540Y201963D01*
X327182Y202827D01*
X326613Y203569D01*
X325870Y204139D01*
X325006Y204497D01*
X324079Y204619D01*
D02*
G37*
G36*
X264317Y215474D02*
X246500D01*
Y195000D01*
X264317D01*
Y215474D01*
D02*
G37*
G36*
X245500D02*
X227683D01*
Y195000D01*
X245500D01*
Y215474D01*
D02*
G37*
G36*
X309500Y195121D02*
Y192500D01*
X312121D01*
X312078Y192825D01*
X311759Y193593D01*
X311253Y194253D01*
X310593Y194759D01*
X309825Y195078D01*
X309500Y195121D01*
D02*
G37*
G36*
X308500D02*
X308175Y195078D01*
X307407Y194759D01*
X306747Y194253D01*
X306241Y193593D01*
X305922Y192825D01*
X305879Y192500D01*
X308500D01*
Y195121D01*
D02*
G37*
G36*
X343579Y194553D02*
X343151Y194497D01*
X342287Y194139D01*
X341545Y193569D01*
X340975Y192827D01*
X340617Y191963D01*
X340561Y191535D01*
X343579D01*
Y194553D01*
D02*
G37*
G36*
X312121Y191500D02*
X309500D01*
Y188880D01*
X309825Y188922D01*
X310593Y189241D01*
X311253Y189747D01*
X311759Y190407D01*
X312078Y191175D01*
X312121Y191500D01*
D02*
G37*
G36*
X308500D02*
X305879D01*
X305922Y191175D01*
X306241Y190407D01*
X306747Y189747D01*
X307407Y189241D01*
X308175Y188922D01*
X308500Y188880D01*
Y191500D01*
D02*
G37*
G36*
X284500Y214733D02*
X283837Y214601D01*
X283274Y214226D01*
X282899Y213663D01*
X282767Y213000D01*
X282777Y212947D01*
X282754Y212832D01*
Y206970D01*
X276896D01*
Y206131D01*
X274500D01*
X273876Y206007D01*
X273346Y205654D01*
X269346Y201654D01*
X268993Y201124D01*
X268869Y200500D01*
Y161500D01*
X268993Y160876D01*
X269346Y160346D01*
X270847Y158846D01*
X271376Y158493D01*
X272000Y158369D01*
X275896D01*
Y157530D01*
X290876D01*
Y158369D01*
X329346D01*
X329347Y158364D01*
X329725Y157451D01*
X330326Y156668D01*
X331109Y156067D01*
X332021Y155689D01*
X333000Y155561D01*
X333979Y155689D01*
X334891Y156067D01*
X335674Y156668D01*
X336275Y157451D01*
X336653Y158364D01*
X336782Y159343D01*
X336653Y160321D01*
X336275Y161233D01*
X335674Y162017D01*
X334891Y162618D01*
X333979Y162996D01*
X333000Y163125D01*
X332021Y162996D01*
X331109Y162618D01*
X330326Y162017D01*
X329957Y161536D01*
X329479Y161631D01*
X292997D01*
X292806Y162093D01*
X295043Y164330D01*
X295680D01*
X296000Y164267D01*
X296663Y164399D01*
X297226Y164774D01*
X297601Y165337D01*
X297733Y166000D01*
X297601Y166663D01*
X297226Y167226D01*
X296663Y167601D01*
X296000Y167733D01*
X295337Y167601D01*
X295324Y167593D01*
X294367D01*
X293743Y167469D01*
X293214Y167115D01*
X288568Y162470D01*
X275896D01*
Y161631D01*
X272676D01*
X272131Y162176D01*
Y199824D01*
X275176Y202869D01*
X276896D01*
Y202030D01*
X289568D01*
X295967Y195631D01*
Y193559D01*
X295998Y193401D01*
Y188841D01*
X302316D01*
Y195159D01*
X299230D01*
Y196307D01*
X299106Y196931D01*
X298752Y197461D01*
X291876Y204337D01*
Y206970D01*
X286017D01*
Y212211D01*
X286101Y212337D01*
X286233Y213000D01*
X286101Y213663D01*
X285726Y214226D01*
X285163Y214601D01*
X284500Y214733D01*
D02*
G37*
G36*
X343579Y190535D02*
X340561D01*
X340617Y190108D01*
X340975Y189244D01*
X341545Y188502D01*
X342287Y187932D01*
X343151Y187574D01*
X343579Y187518D01*
Y190535D01*
D02*
G37*
G36*
X334079Y194619D02*
X333151Y194497D01*
X332287Y194139D01*
X331545Y193569D01*
X330975Y192827D01*
X330617Y191963D01*
X330495Y191035D01*
X330617Y190108D01*
X330975Y189244D01*
X331545Y188502D01*
X332287Y187932D01*
X333151Y187574D01*
X334079Y187452D01*
X335006Y187574D01*
X335870Y187932D01*
X336613Y188502D01*
X337182Y189244D01*
X337540Y190108D01*
X337662Y191035D01*
X337540Y191963D01*
X337182Y192827D01*
X336613Y193569D01*
X335870Y194139D01*
X335006Y194497D01*
X334079Y194619D01*
D02*
G37*
G36*
X324079D02*
X323151Y194497D01*
X322287Y194139D01*
X321545Y193569D01*
X320975Y192827D01*
X320617Y191963D01*
X320495Y191035D01*
X320617Y190108D01*
X320975Y189244D01*
X321545Y188502D01*
X322287Y187932D01*
X323151Y187574D01*
X324079Y187452D01*
X325006Y187574D01*
X325870Y187932D01*
X326613Y188502D01*
X327182Y189244D01*
X327540Y190108D01*
X327662Y191035D01*
X327540Y191963D01*
X327182Y192827D01*
X326613Y193569D01*
X325870Y194139D01*
X325006Y194497D01*
X324079Y194619D01*
D02*
G37*
G36*
X158000Y189233D02*
X157337Y189101D01*
X156774Y188726D01*
X156399Y188163D01*
X156267Y187500D01*
X156399Y186837D01*
X156774Y186274D01*
X157337Y185899D01*
X158000Y185767D01*
X158663Y185899D01*
X159226Y186274D01*
X159601Y186837D01*
X159733Y187500D01*
X159601Y188163D01*
X159226Y188726D01*
X158663Y189101D01*
X158000Y189233D01*
D02*
G37*
G36*
X288500Y195233D02*
X287837Y195101D01*
X287274Y194726D01*
X286984Y194291D01*
X283232Y190539D01*
X282879Y190010D01*
X282754Y189386D01*
Y186970D01*
X276896D01*
Y182030D01*
X291876D01*
Y186970D01*
X286017D01*
Y188710D01*
X289291Y191984D01*
X289726Y192274D01*
X290101Y192837D01*
X290233Y193500D01*
X290101Y194163D01*
X289726Y194726D01*
X289163Y195101D01*
X288500Y195233D01*
D02*
G37*
G36*
X190500Y186122D02*
X190071Y186036D01*
X189707Y185793D01*
X188035Y184122D01*
X181500D01*
X181071Y184036D01*
X180707Y183793D01*
X180464Y183429D01*
X180378Y183000D01*
X180464Y182571D01*
X180707Y182207D01*
X181071Y181964D01*
X181500Y181878D01*
X188500D01*
X188500Y181878D01*
X188929Y181964D01*
X189293Y182207D01*
X191293Y184207D01*
X191536Y184571D01*
X191622Y185000D01*
X191536Y185429D01*
X191293Y185793D01*
X190929Y186036D01*
X190500Y186122D01*
D02*
G37*
G36*
X343579Y184588D02*
X340526D01*
Y181535D01*
X343579D01*
Y184588D01*
D02*
G37*
G36*
Y180535D02*
X340526D01*
Y177483D01*
X343579D01*
Y180535D01*
D02*
G37*
G36*
X337632Y184588D02*
X330526D01*
Y177483D01*
X337632D01*
Y184588D01*
D02*
G37*
G36*
X327631D02*
X320526D01*
Y177483D01*
X327631D01*
Y184588D01*
D02*
G37*
G36*
X153500Y175131D02*
X140500D01*
X139876Y175007D01*
X139347Y174653D01*
X138993Y174124D01*
X138869Y173500D01*
X138993Y172876D01*
X139347Y172346D01*
X139876Y171993D01*
X140500Y171869D01*
X152824D01*
X155847Y168846D01*
X156376Y168493D01*
X157000Y168369D01*
X157624Y168493D01*
X158153Y168846D01*
X158507Y169376D01*
X158631Y170000D01*
X158507Y170624D01*
X158153Y171153D01*
X154654Y174653D01*
X154124Y175007D01*
X153500Y175131D01*
D02*
G37*
G36*
X264317Y194000D02*
X246000D01*
X227683D01*
Y173526D01*
X243369D01*
Y170974D01*
X226683D01*
Y150500D01*
X245000D01*
X263316D01*
Y170974D01*
X246631D01*
Y173526D01*
X264317D01*
Y194000D01*
D02*
G37*
G36*
X336750Y143407D02*
X333500D01*
Y140157D01*
X336750D01*
Y143407D01*
D02*
G37*
G36*
X332500D02*
X329250D01*
Y140157D01*
X332500D01*
Y143407D01*
D02*
G37*
G36*
X336750Y139157D02*
X333500D01*
Y135908D01*
X336750D01*
Y139157D01*
D02*
G37*
G36*
X332500D02*
X329250D01*
Y135908D01*
X332500D01*
Y139157D01*
D02*
G37*
G36*
X188500Y119018D02*
Y116000D01*
X191518D01*
X191461Y116427D01*
X191103Y117292D01*
X190534Y118034D01*
X189792Y118603D01*
X188927Y118961D01*
X188500Y119018D01*
D02*
G37*
G36*
X187500D02*
X187073Y118961D01*
X186208Y118603D01*
X185466Y118034D01*
X184897Y117292D01*
X184539Y116427D01*
X184482Y116000D01*
X187500D01*
Y119018D01*
D02*
G37*
G36*
X337500Y124597D02*
X336180Y124493D01*
X334404Y124066D01*
X332717Y123368D01*
X331161Y122414D01*
X329772Y121228D01*
X328586Y119839D01*
X327632Y118283D01*
X326934Y116596D01*
X326507Y114820D01*
X326403Y113500D01*
X337500D01*
Y124597D01*
D02*
G37*
G36*
X137000D02*
Y113500D01*
X148097D01*
X147993Y114820D01*
X147566Y116596D01*
X146868Y118283D01*
X145914Y119839D01*
X144728Y121228D01*
X143339Y122414D01*
X141783Y123368D01*
X140096Y124066D01*
X138320Y124493D01*
X137000Y124597D01*
D02*
G37*
G36*
X134500Y182733D02*
X133837Y182601D01*
X133274Y182226D01*
X132899Y181663D01*
X132767Y181000D01*
X132869Y180488D01*
Y138500D01*
X132993Y137876D01*
X133346Y137346D01*
X148846Y121846D01*
X149376Y121493D01*
X149566Y121455D01*
X149869Y121153D01*
Y110172D01*
X149993Y109547D01*
X150347Y109018D01*
X151518Y107846D01*
X152047Y107493D01*
X152672Y107369D01*
X244353D01*
X244978Y107493D01*
X245507Y107846D01*
X274153Y136493D01*
X274507Y137022D01*
X274602Y137499D01*
X281754D01*
Y125614D01*
X281879Y124990D01*
X282232Y124461D01*
X293484Y113209D01*
X293774Y112774D01*
X294337Y112399D01*
X295000Y112267D01*
X295663Y112399D01*
X296226Y112774D01*
X296601Y113337D01*
X296733Y114000D01*
X296601Y114663D01*
X296226Y115226D01*
X295791Y115516D01*
X285017Y126290D01*
Y137530D01*
X290876D01*
Y138369D01*
X294000D01*
X294624Y138493D01*
X295153Y138847D01*
X297791Y141484D01*
X298226Y141774D01*
X298601Y142337D01*
X298733Y143000D01*
X298601Y143663D01*
X298226Y144226D01*
X297663Y144601D01*
X297000Y144733D01*
X296337Y144601D01*
X295774Y144226D01*
X295484Y143791D01*
X293324Y141631D01*
X290876D01*
Y142470D01*
X275896D01*
Y140761D01*
X273801D01*
X273177Y140637D01*
X272648Y140284D01*
X271847Y139482D01*
X271493Y138953D01*
X271369Y138328D01*
Y138322D01*
X263778Y130732D01*
X263316Y130924D01*
Y149500D01*
X245500D01*
Y129026D01*
X261419D01*
X261610Y128564D01*
X243678Y110631D01*
X153347D01*
X153131Y110847D01*
Y121828D01*
X153007Y122453D01*
X152654Y122982D01*
X151482Y124153D01*
X150953Y124507D01*
X150762Y124545D01*
X136131Y139176D01*
Y180488D01*
X136233Y181000D01*
X136101Y181663D01*
X135726Y182226D01*
X135163Y182601D01*
X134500Y182733D01*
D02*
G37*
G36*
X191518Y115000D02*
X188500D01*
Y111982D01*
X188927Y112039D01*
X189792Y112397D01*
X190534Y112966D01*
X191103Y113708D01*
X191461Y114573D01*
X191518Y115000D01*
D02*
G37*
G36*
X187500D02*
X184482D01*
X184539Y114573D01*
X184897Y113708D01*
X185466Y112966D01*
X186208Y112397D01*
X187073Y112039D01*
X187500Y111982D01*
Y115000D01*
D02*
G37*
G36*
X244500Y149500D02*
X226683D01*
Y129026D01*
X236369D01*
Y113500D01*
X236493Y112876D01*
X236846Y112346D01*
X237376Y111993D01*
X238000Y111869D01*
X238624Y111993D01*
X239154Y112346D01*
X239507Y112876D01*
X239631Y113500D01*
Y129026D01*
X244500D01*
Y149500D01*
D02*
G37*
%LPD*%
G36*
X264461Y341480D02*
X261792Y338810D01*
X261427Y338961D01*
X260500Y339083D01*
X259573Y338961D01*
X258708Y338603D01*
X257966Y338034D01*
X257397Y337292D01*
X257039Y336427D01*
X256917Y335500D01*
X257039Y334573D01*
X257397Y333708D01*
X257966Y332966D01*
X258708Y332397D01*
X259073Y332246D01*
Y324754D01*
X258708Y324603D01*
X257966Y324034D01*
X257397Y323292D01*
X257039Y322427D01*
X256917Y321500D01*
X257039Y320573D01*
X257190Y320208D01*
X254409Y317427D01*
X232023D01*
X231831Y317889D01*
X246485Y332543D01*
X246947Y332352D01*
Y331947D01*
X250000D01*
Y335500D01*
Y339053D01*
X248970D01*
X248778Y339515D01*
X251206Y341942D01*
X264270D01*
X264461Y341480D01*
D02*
G37*
G36*
X274242Y319943D02*
Y316684D01*
X270578Y313020D01*
X264457D01*
X264249Y313520D01*
X267126Y316397D01*
X267348Y316727D01*
X267425Y317118D01*
Y318894D01*
X267899Y319054D01*
X267966Y318966D01*
X268708Y318397D01*
X269573Y318039D01*
X270500Y317917D01*
X271427Y318039D01*
X272292Y318397D01*
X273034Y318966D01*
X273603Y319708D01*
X273742Y320043D01*
X274242Y319943D01*
D02*
G37*
G36*
X224538Y312480D02*
X221243Y309185D01*
X221000Y309233D01*
X220337Y309101D01*
X219774Y308726D01*
X219399Y308163D01*
X219267Y307500D01*
X219399Y306837D01*
X219774Y306274D01*
X220337Y305899D01*
X221000Y305767D01*
X221663Y305899D01*
X222226Y306274D01*
X222601Y306837D01*
X222733Y307500D01*
X222685Y307743D01*
X225922Y310980D01*
X269724D01*
X269915Y310519D01*
X268416Y309020D01*
X230500D01*
X230110Y308942D01*
X229779Y308721D01*
X221342Y300284D01*
X221248Y300221D01*
X220779Y299752D01*
X220558Y299422D01*
X220480Y299031D01*
Y295204D01*
X220104Y295048D01*
X219980Y295038D01*
X209408Y305611D01*
X209599Y306073D01*
X212500D01*
X212500Y306073D01*
X213046Y306181D01*
X213509Y306491D01*
X213916Y306897D01*
X214464Y306738D01*
X214774Y306274D01*
X215337Y305899D01*
X216000Y305767D01*
X216663Y305899D01*
X217226Y306274D01*
X217601Y306837D01*
X217733Y307500D01*
X217685Y307743D01*
X220105Y310163D01*
X220105Y310163D01*
X222922Y312980D01*
X224331D01*
X224538Y312480D01*
D02*
G37*
G36*
X217922Y256094D02*
X217991Y255991D01*
X220073Y253909D01*
Y247591D01*
X208144Y235662D01*
X207837Y235601D01*
X207274Y235226D01*
X206899Y234663D01*
X206785Y234091D01*
X206742Y233985D01*
X206314Y233713D01*
X205947Y233786D01*
X205520Y234170D01*
Y245138D01*
X216521Y256139D01*
X216600Y256123D01*
X217263Y256255D01*
X217922Y256094D01*
D02*
G37*
%LPC*%
G36*
X254053Y339053D02*
X251000D01*
Y336000D01*
X254053D01*
Y339053D01*
D02*
G37*
G36*
Y335000D02*
X251000D01*
Y331947D01*
X254053D01*
Y335000D01*
D02*
G37*
G36*
Y325053D02*
X251000D01*
Y322000D01*
X254053D01*
Y325053D01*
D02*
G37*
G36*
X250000D02*
X246947D01*
Y322000D01*
X250000D01*
Y325053D01*
D02*
G37*
G36*
X254053Y321000D02*
X251000D01*
Y317947D01*
X254053D01*
Y321000D01*
D02*
G37*
G36*
X250000D02*
X246947D01*
Y317947D01*
X250000D01*
Y321000D01*
D02*
G37*
%LPD*%
G36*
X177128Y171607D02*
X177791Y171475D01*
X178454Y171607D01*
X178603Y171706D01*
X179134Y171602D01*
X179467Y171103D01*
Y161307D01*
X179545Y160916D01*
X179766Y160586D01*
X187621Y152730D01*
Y145583D01*
X187121Y145328D01*
X186541Y145444D01*
X186298Y145396D01*
X175520Y156174D01*
Y166637D01*
X175726Y166774D01*
X176101Y167337D01*
X176233Y168000D01*
X176101Y168663D01*
X175726Y169226D01*
X175234Y169554D01*
X175060Y170088D01*
X176799Y171827D01*
X177128Y171607D01*
D02*
G37*
D14*
X146500Y257500D02*
Y257933D01*
X145500Y258933D02*
Y266000D01*
Y258933D02*
X146500Y257933D01*
D101*
X331500Y377500D02*
Y389000D01*
X262500Y239500D02*
X265500Y242500D01*
X262500Y233500D02*
Y239500D01*
X181500Y183000D02*
X188500D01*
X190500Y185000D01*
D102*
X216000Y307500D02*
X219384Y310884D01*
X208000Y319000D02*
X209500Y320500D01*
X221000Y307500D02*
X225500Y312000D01*
X168328Y258334D02*
X168900D01*
X167500Y261000D02*
X170600D01*
X148000Y280500D02*
X167500Y261000D01*
X160661Y266000D02*
X168328Y258334D01*
X274832Y277000D02*
X278000D01*
X256171Y287529D02*
X256626D01*
X240500Y236500D02*
Y300500D01*
X236500Y304500D02*
X240500Y300500D01*
X238500Y239000D02*
Y297500D01*
X236500Y299500D02*
X238500Y297500D01*
X249854Y249821D02*
X257300D01*
X204500Y233500D02*
X205947Y232053D01*
Y232053D02*
Y232053D01*
X256500Y295332D02*
X274832Y277000D01*
X252500Y283858D02*
X256171Y287529D01*
X256500Y295332D02*
Y298500D01*
X258960Y295540D02*
Y295700D01*
X252500Y258500D02*
Y283858D01*
X257300Y249821D02*
X274503Y267024D01*
X235500Y244500D02*
Y254000D01*
X223500Y232500D02*
X235500Y244500D01*
X208000Y204000D02*
X216970D01*
X208000Y168750D02*
Y204000D01*
X204500Y245560D02*
X216600Y257660D01*
X204500Y233500D02*
Y245560D01*
X158000Y309500D02*
X170000D01*
X258960Y295540D02*
X271000Y283500D01*
X143000Y324500D02*
X158000Y309500D01*
X170000D02*
X202000Y277500D01*
X265761Y344262D02*
X270500Y349000D01*
X248261Y344262D02*
X265761D01*
X244500Y340500D02*
X248261Y344262D01*
X244500Y336000D02*
Y340500D01*
X229000Y320500D02*
X244500Y336000D01*
X209500Y320500D02*
X229000D01*
X275949Y349000D02*
X280500D01*
X269910Y342962D02*
X275949Y349000D01*
X250783Y342962D02*
X269910D01*
X246647Y338826D02*
X250783Y342962D01*
X246647Y334147D02*
Y338826D01*
X230200Y317700D02*
X246647Y334147D01*
X211700Y317700D02*
X230200D01*
X208000Y314000D02*
X211700Y317700D01*
X271000Y283500D02*
X282500D01*
X266406Y331405D02*
X270500Y335500D01*
X266406Y317118D02*
Y331405D01*
X263288Y314000D02*
X266406Y317118D01*
X219384Y310884D02*
X222500Y314000D01*
X263288D01*
X219384Y310884D02*
X219384D01*
X275261Y330261D02*
X280500Y335500D01*
X275261Y316262D02*
Y330261D01*
X271000Y312000D02*
X275261Y316262D01*
X225500Y312000D02*
X271000D01*
X183903Y247097D02*
X200000Y263193D01*
X170097Y247097D02*
X183903D01*
X168307Y263193D02*
X200000D01*
X145500Y286000D02*
X168307Y263193D01*
X154000Y231000D02*
X170097Y247097D01*
X145500Y266000D02*
X160661D01*
X177523Y172940D02*
X177791Y173208D01*
X176470Y172940D02*
X177523D01*
X171303Y167773D02*
X176470Y172940D01*
X171303Y153238D02*
Y167773D01*
X168000Y116500D02*
Y149934D01*
X171303Y153238D01*
X188641Y142841D02*
Y153153D01*
X180487Y161307D02*
X188641Y153153D01*
X180487Y161307D02*
Y172017D01*
X180735Y172265D01*
X186905Y141105D02*
X188641Y142841D01*
X173135Y141105D02*
X186905D01*
X178000Y116500D02*
Y125326D01*
X171400Y131926D02*
Y139370D01*
X173135Y141105D01*
X171400Y131926D02*
X178000Y125326D01*
X270500Y321212D02*
Y321500D01*
X216600Y257660D02*
Y257856D01*
X142000Y280500D02*
X148000D01*
X136500Y286000D02*
X142000Y280500D01*
X135500Y286000D02*
X136500D01*
X283809Y328809D02*
X290500Y335500D01*
X276647Y323096D02*
X282361Y328809D01*
X283809D01*
X276647Y315809D02*
Y323096D01*
X268839Y308000D02*
X276647Y315809D01*
X230500Y308000D02*
X268839D01*
X222000Y299500D02*
X230500Y308000D01*
X221969Y299500D02*
X222000D01*
X221500Y299031D02*
X221969Y299500D01*
X221500Y259500D02*
Y299031D01*
X202000Y179000D02*
Y277500D01*
Y163500D02*
Y179000D01*
X152874Y154148D02*
X163762D01*
X174500Y155751D02*
Y168000D01*
Y155751D02*
X186541Y143710D01*
X197522Y146978D02*
X211031D01*
X182500Y162000D02*
X197522Y146978D01*
X182500Y162000D02*
Y169913D01*
X216970Y204000D02*
X223500Y210530D01*
Y232500D01*
X182500Y169913D02*
X182587Y170000D01*
X202000Y163500D02*
X205000Y160500D01*
X214000Y127500D02*
Y162750D01*
X150130Y156893D02*
X152874Y154148D01*
X208000Y168750D02*
X214000Y162750D01*
D103*
X245000Y150000D02*
Y193500D01*
X246000Y194500D01*
X238000Y143000D02*
X245000Y150000D01*
X238000Y113500D02*
Y143000D01*
X244353Y109000D02*
X273000Y137647D01*
X151500Y110172D02*
Y121828D01*
X152672Y109000D02*
X244353D01*
X151500Y110172D02*
X152672Y109000D01*
X283386Y139130D02*
Y140000D01*
Y125614D02*
Y139130D01*
Y125614D02*
X295000Y114000D01*
X325114Y340000D02*
X334079Y331035D01*
X311500Y340000D02*
X325114D01*
X283022Y311522D02*
X311500Y340000D01*
X284386Y204500D02*
X289405D01*
X297598Y196307D01*
Y193559D02*
Y196307D01*
Y193559D02*
X299158Y192000D01*
X288405Y160000D02*
X329479D01*
X140500Y173500D02*
X153500D01*
X157000Y170000D01*
X271400Y289651D02*
X283229D01*
X150000Y123000D02*
X150328D01*
X151500Y121828D01*
X134500Y138500D02*
X150000Y123000D01*
X134500Y138500D02*
Y181000D01*
X273000Y138328D02*
X273801Y139130D01*
X282516D01*
X283386Y140000D01*
X273000Y137647D02*
Y138328D01*
X283229Y289651D02*
X294061Y300483D01*
X283022Y311522D02*
X294061Y300483D01*
X284386Y189386D02*
X288500Y193500D01*
X284386Y184500D02*
Y189386D01*
X284500Y212946D02*
Y213000D01*
X284386Y212832D02*
X284500Y212946D01*
X284386Y204500D02*
Y212832D01*
X274500Y204500D02*
X284386D01*
X270500Y200500D02*
X274500Y204500D01*
X270500Y161500D02*
Y200500D01*
X272000Y160000D02*
X283386D01*
X270500Y161500D02*
X272000Y160000D01*
X283386D02*
X288405D01*
X294367Y165962D01*
X295962D01*
X296000Y166000D01*
X283386Y140000D02*
X294000D01*
X297000Y143000D01*
D104*
X176828Y251000D02*
X182664Y256836D01*
X153000Y251000D02*
X176828D01*
X140500Y256000D02*
X145500Y251000D01*
X135500Y275500D02*
X140500Y270500D01*
X153000Y249000D02*
Y251000D01*
X145500D02*
X153000D01*
X135500Y275500D02*
Y276000D01*
X140500Y256000D02*
Y270500D01*
X147000Y137500D02*
X158000Y126500D01*
X147000Y137500D02*
Y160172D01*
X158000Y116500D02*
Y126500D01*
X164000Y134000D02*
Y149529D01*
X163630Y150606D02*
X163750Y150727D01*
X173500Y138500D02*
X184000D01*
X147703Y160875D02*
X151296D01*
X163750Y150727D02*
X166530D01*
X169224Y153421D02*
Y158421D01*
X147000Y160172D02*
X147703Y160875D01*
X165405Y162240D02*
Y183240D01*
Y162240D02*
X169224Y158421D01*
X166530Y150727D02*
X169224Y153421D01*
D105*
X169392Y314202D02*
X174298D01*
X181000Y307500D01*
X282762Y341262D02*
X290500Y349000D01*
X266262Y341262D02*
X282762D01*
X260500Y335500D02*
X266262Y341262D01*
X260500Y321500D02*
Y335500D01*
X255000Y316000D02*
X260500Y321500D01*
X221000Y316000D02*
X255000D01*
X205500Y307500D02*
X212500D01*
X221000Y316000D01*
X181000Y307500D02*
X205500D01*
X219000Y294000D01*
Y257000D02*
Y294000D01*
Y257000D02*
X221500Y254500D01*
Y247000D02*
Y254500D01*
X208500Y234000D02*
X221500Y247000D01*
D106*
X260500Y349000D02*
D03*
X290500D02*
D03*
X300500D02*
D03*
X280500D02*
D03*
X270500D02*
D03*
X260500Y335500D02*
D03*
X270500D02*
D03*
X280500D02*
D03*
X290500D02*
D03*
X145500Y286000D02*
D03*
X135500Y266000D02*
D03*
Y276000D02*
D03*
Y296000D02*
D03*
X145500D02*
D03*
X168000Y115500D02*
D03*
X135500Y306000D02*
D03*
X145500D02*
D03*
X178000Y115500D02*
D03*
X270500Y321500D02*
D03*
X280500D02*
D03*
X135500Y286000D02*
D03*
X331500Y377500D02*
D03*
Y389000D02*
D03*
X142000Y390000D02*
D03*
X135500Y316000D02*
D03*
X145500D02*
D03*
Y276000D02*
D03*
X260500Y321500D02*
D03*
X344079Y331035D02*
D03*
Y321035D02*
D03*
Y311035D02*
D03*
Y301035D02*
D03*
Y291035D02*
D03*
Y281035D02*
D03*
Y271035D02*
D03*
Y261035D02*
D03*
Y251035D02*
D03*
Y241035D02*
D03*
Y231035D02*
D03*
Y221035D02*
D03*
Y211035D02*
D03*
Y201035D02*
D03*
Y191035D02*
D03*
X334079Y331035D02*
D03*
Y321035D02*
D03*
Y311035D02*
D03*
Y301035D02*
D03*
Y291035D02*
D03*
Y281035D02*
D03*
Y271035D02*
D03*
Y261035D02*
D03*
Y251035D02*
D03*
Y241035D02*
D03*
Y231035D02*
D03*
Y221035D02*
D03*
Y211035D02*
D03*
Y201035D02*
D03*
Y191035D02*
D03*
X324079Y331035D02*
D03*
Y321035D02*
D03*
Y311035D02*
D03*
Y301035D02*
D03*
Y291035D02*
D03*
Y281035D02*
D03*
Y271035D02*
D03*
Y261035D02*
D03*
Y251035D02*
D03*
Y241035D02*
D03*
Y231035D02*
D03*
Y221035D02*
D03*
Y211035D02*
D03*
Y201035D02*
D03*
Y191035D02*
D03*
X188000Y115500D02*
D03*
D107*
X250500Y349000D02*
D03*
Y335500D02*
D03*
X341500Y377500D02*
D03*
Y389000D02*
D03*
X132000Y390000D02*
D03*
X250500Y321500D02*
D03*
X158000Y115500D02*
D03*
D108*
X145500Y266000D02*
D03*
X344079Y181035D02*
D03*
X334079D02*
D03*
X324079D02*
D03*
D109*
X309000Y192000D02*
D03*
Y218000D02*
D03*
D110*
X299158Y192000D02*
D03*
Y218000D02*
D03*
D111*
X333000Y159343D02*
D03*
D112*
Y139657D02*
D03*
D113*
X338000Y113000D02*
D03*
Y415500D02*
D03*
X136500D02*
D03*
Y113000D02*
D03*
D114*
X289585Y169445D02*
D03*
X293277Y233391D02*
D03*
X182664Y256836D02*
D03*
X180062Y414613D02*
D03*
X189086Y410914D02*
D03*
X200000Y411000D02*
D03*
X208000Y386500D02*
D03*
Y319000D02*
D03*
X216000Y307500D02*
D03*
X221000D02*
D03*
X180500Y319500D02*
D03*
X133215Y255540D02*
D03*
X146500Y257500D02*
D03*
X168900Y258334D02*
D03*
X170600Y261000D02*
D03*
X173500Y257500D02*
D03*
X130500Y132500D02*
D03*
X192000Y124000D02*
D03*
X238000Y113500D02*
D03*
X295000Y114000D02*
D03*
X293355Y109243D02*
D03*
X291500Y132000D02*
D03*
X152000Y219000D02*
D03*
X173500Y190500D02*
D03*
X270000Y421500D02*
D03*
X211000D02*
D03*
X155000D02*
D03*
X278000Y277000D02*
D03*
X256626Y287529D02*
D03*
X242664Y289336D02*
D03*
X249854Y249821D02*
D03*
X236500Y299500D02*
D03*
X205947Y232053D02*
D03*
X163603Y196497D02*
D03*
X258960Y295700D02*
D03*
X252500Y258500D02*
D03*
X274503Y267024D02*
D03*
X235500Y254000D02*
D03*
X208000Y204000D02*
D03*
X240500Y236500D02*
D03*
X238500Y239000D02*
D03*
X158000Y187500D02*
D03*
X205000Y297500D02*
D03*
X170000Y309500D02*
D03*
X268000Y388000D02*
D03*
X305000Y413500D02*
D03*
X300265Y409370D02*
D03*
X294436Y407888D02*
D03*
X290287Y410950D02*
D03*
X284952Y409962D02*
D03*
X279815Y413321D02*
D03*
X250000Y410000D02*
D03*
X256500Y415500D02*
D03*
X240000Y320111D02*
D03*
X244799Y413701D02*
D03*
X256500Y298500D02*
D03*
X240500Y414000D02*
D03*
X235000Y413000D02*
D03*
X230000D02*
D03*
X225000Y411000D02*
D03*
X220000Y411500D02*
D03*
X195161Y414598D02*
D03*
X184819Y411737D02*
D03*
X174873Y412252D02*
D03*
X170000Y414000D02*
D03*
X164500D02*
D03*
X143000Y324500D02*
D03*
X169392Y314202D02*
D03*
X208000Y314000D02*
D03*
X282500Y283500D02*
D03*
X200000Y263193D02*
D03*
X154000Y231000D02*
D03*
X153000Y249000D02*
D03*
X177791Y173208D02*
D03*
X236500Y304500D02*
D03*
X180735Y172265D02*
D03*
X216600Y257856D02*
D03*
X221500Y259500D02*
D03*
X208500Y234000D02*
D03*
X277655Y272395D02*
D03*
X262500Y233500D02*
D03*
X265500Y242500D02*
D03*
X271400Y289651D02*
D03*
X174500Y168000D02*
D03*
X163762Y154148D02*
D03*
X182587Y170000D02*
D03*
X163630Y150606D02*
D03*
X157000Y170000D02*
D03*
X140500Y173500D02*
D03*
X190500Y185000D02*
D03*
X181500Y183000D02*
D03*
X134500Y181000D02*
D03*
X283022Y311522D02*
D03*
X164000Y134000D02*
D03*
X284500Y213000D02*
D03*
X288500Y193500D02*
D03*
X296000Y166000D02*
D03*
X297000Y143000D02*
D03*
X202000Y179000D02*
D03*
X165405Y183240D02*
D03*
X150130Y156893D02*
D03*
X173500Y138500D02*
D03*
X211031Y146978D02*
D03*
X186541Y143710D02*
D03*
X205000Y160500D02*
D03*
X214000Y127500D02*
D03*
X184000Y138500D02*
D03*
X151296Y160875D02*
D03*
D115*
X283386Y160000D02*
D03*
Y140000D02*
D03*
X284386Y204500D02*
D03*
Y184500D02*
D03*
D116*
X245000Y150000D02*
D03*
X246000Y194500D02*
D03*
M02*
