G04*
G04 #@! TF.GenerationSoftware,Altium Limited,Altium Designer,20.1.14 (287)*
G04*
G04 Layer_Color=8421504*
%FSLAX25Y25*%
%MOIN*%
G70*
G04*
G04 #@! TF.SameCoordinates,C357774A-A1FF-41C0-A387-8AFBD113A784*
G04*
G04*
G04 #@! TF.FilePolarity,Positive*
G04*
G01*
G75*
%ADD17R,0.03740X0.03150*%
%ADD18R,0.03150X0.03150*%
%ADD19R,0.03347X0.02953*%
G04:AMPARAMS|DCode=20|XSize=21.65mil|YSize=66.93mil|CornerRadius=1.95mil|HoleSize=0mil|Usage=FLASHONLY|Rotation=0.000|XOffset=0mil|YOffset=0mil|HoleType=Round|Shape=RoundedRectangle|*
%AMROUNDEDRECTD20*
21,1,0.02165,0.06303,0,0,0.0*
21,1,0.01776,0.06693,0,0,0.0*
1,1,0.00390,0.00888,-0.03152*
1,1,0.00390,-0.00888,-0.03152*
1,1,0.00390,-0.00888,0.03152*
1,1,0.00390,0.00888,0.03152*
%
%ADD20ROUNDEDRECTD20*%
%ADD21R,0.07874X0.03543*%
%ADD22R,0.05315X0.01575*%
%ADD23R,0.04331X0.03937*%
%ADD24R,0.03150X0.03740*%
%ADD25R,0.03543X0.07874*%
%ADD26R,0.07874X0.03543*%
%ADD27R,0.01181X0.04147*%
%ADD28R,0.05236X0.05236*%
%ADD29R,0.03150X0.03150*%
%ADD30R,0.03543X0.03937*%
%ADD31R,0.03543X0.02953*%
%ADD32R,0.03543X0.03150*%
%ADD33R,0.05118X0.03937*%
%ADD34R,0.05315X0.02362*%
%ADD35R,0.02953X0.03347*%
%ADD36R,0.07480X0.12598*%
%ADD37R,0.07480X0.03543*%
%ADD38R,0.03347X0.01772*%
%ADD39R,0.03150X0.03543*%
%ADD40R,0.03740X0.03543*%
%ADD41R,0.05433X0.01772*%
%ADD42R,0.08268X0.05807*%
%ADD43R,0.07480X0.09350*%
%ADD44R,0.07480X0.04626*%
%ADD45R,0.03740X0.13780*%
%ADD46R,0.40748X0.35433*%
%ADD47R,0.06299X0.08583*%
%ADD48R,0.06299X0.08661*%
%ADD49R,0.05906X0.12992*%
%ADD50R,0.05906X0.04724*%
%ADD51R,0.02953X0.03543*%
%ADD52R,0.02756X0.03543*%
%ADD53R,0.03543X0.02756*%
%ADD54R,0.04147X0.01181*%
%ADD55R,0.06000X0.06000*%
%ADD56R,0.03937X0.05118*%
D17*
X259500Y359343D02*
D03*
Y364657D02*
D03*
X246500Y359343D02*
D03*
Y364657D02*
D03*
X280500Y359343D02*
D03*
Y364657D02*
D03*
X287000Y359343D02*
D03*
Y364657D02*
D03*
X300000Y359343D02*
D03*
Y364657D02*
D03*
X274000Y359343D02*
D03*
Y364657D02*
D03*
X319500Y359343D02*
D03*
Y364657D02*
D03*
X293500Y359343D02*
D03*
Y364657D02*
D03*
X306500Y359343D02*
D03*
Y364657D02*
D03*
X313000Y359343D02*
D03*
Y364657D02*
D03*
X240000Y359343D02*
D03*
Y364657D02*
D03*
X195000Y359343D02*
D03*
Y364657D02*
D03*
X188500Y359343D02*
D03*
Y364657D02*
D03*
X201500Y359343D02*
D03*
Y364657D02*
D03*
X182000Y359343D02*
D03*
Y364657D02*
D03*
X175500Y359343D02*
D03*
Y364657D02*
D03*
X169000Y359343D02*
D03*
Y364657D02*
D03*
X162500Y359343D02*
D03*
Y364657D02*
D03*
X156000Y359185D02*
D03*
Y364500D02*
D03*
X253000Y359343D02*
D03*
Y364657D02*
D03*
X233500Y359343D02*
D03*
Y364657D02*
D03*
X227000Y359343D02*
D03*
Y364657D02*
D03*
X220500Y359343D02*
D03*
Y364657D02*
D03*
X214000Y359343D02*
D03*
Y364657D02*
D03*
D18*
X274000Y369547D02*
D03*
Y375453D02*
D03*
X319500Y369547D02*
D03*
Y375453D02*
D03*
X313000Y369547D02*
D03*
Y375453D02*
D03*
X306500Y369547D02*
D03*
Y375453D02*
D03*
X300000Y369547D02*
D03*
Y375453D02*
D03*
X287000Y369547D02*
D03*
Y375453D02*
D03*
X280500Y369547D02*
D03*
Y375453D02*
D03*
X293500Y369547D02*
D03*
Y375453D02*
D03*
X201500Y369547D02*
D03*
Y375453D02*
D03*
X195000Y369547D02*
D03*
Y375453D02*
D03*
X182000Y369547D02*
D03*
Y375453D02*
D03*
X175500Y369547D02*
D03*
Y375453D02*
D03*
X169000Y369547D02*
D03*
Y375453D02*
D03*
X162500Y369547D02*
D03*
Y375453D02*
D03*
X188500Y369547D02*
D03*
Y375453D02*
D03*
X156000Y369547D02*
D03*
Y375453D02*
D03*
X259500Y370047D02*
D03*
Y375953D02*
D03*
X253000Y370047D02*
D03*
Y375953D02*
D03*
X246500Y370047D02*
D03*
Y375953D02*
D03*
X240000Y370047D02*
D03*
Y375953D02*
D03*
X233500Y370047D02*
D03*
Y375953D02*
D03*
X227000Y370047D02*
D03*
Y375953D02*
D03*
X220500Y370047D02*
D03*
Y375953D02*
D03*
X214000Y370047D02*
D03*
Y375953D02*
D03*
X146000Y333453D02*
D03*
Y327547D02*
D03*
D19*
X267000Y359941D02*
D03*
Y365059D02*
D03*
X208000Y359500D02*
D03*
Y364618D02*
D03*
X149500Y359441D02*
D03*
Y364559D02*
D03*
X195500Y156941D02*
D03*
Y162059D02*
D03*
X192303Y145886D02*
D03*
Y151004D02*
D03*
X198303Y151004D02*
D03*
Y145886D02*
D03*
D20*
X285000Y422114D02*
D03*
X280000D02*
D03*
X315000D02*
D03*
X295000D02*
D03*
X310000D02*
D03*
X290000D02*
D03*
X190000Y421807D02*
D03*
X185000D02*
D03*
X180000D02*
D03*
X175000D02*
D03*
X245000Y422114D02*
D03*
X240000D02*
D03*
X255000D02*
D03*
X235000D02*
D03*
X230000D02*
D03*
X250000D02*
D03*
X305000D02*
D03*
X165000Y421807D02*
D03*
X300000Y422114D02*
D03*
X170000Y421807D02*
D03*
X200000D02*
D03*
X195000D02*
D03*
X220000Y422114D02*
D03*
X225000D02*
D03*
X275000D02*
D03*
X315000Y385500D02*
D03*
X310000D02*
D03*
X305000D02*
D03*
X300000D02*
D03*
X295000D02*
D03*
X290000D02*
D03*
X285000D02*
D03*
X280000D02*
D03*
X275000D02*
D03*
X160000Y421807D02*
D03*
X200000Y385193D02*
D03*
X195000D02*
D03*
X190000D02*
D03*
X185000D02*
D03*
X180000D02*
D03*
X175000D02*
D03*
X170000D02*
D03*
X165000D02*
D03*
X160000D02*
D03*
X215000Y422114D02*
D03*
X255000Y385500D02*
D03*
X250000D02*
D03*
X245000D02*
D03*
X240000D02*
D03*
X235000D02*
D03*
X230000D02*
D03*
X225000D02*
D03*
X220000D02*
D03*
X215000D02*
D03*
D21*
X161500Y284500D02*
D03*
Y279500D02*
D03*
X228429Y294500D02*
D03*
X161500Y269500D02*
D03*
X228429Y309500D02*
D03*
X161500Y264500D02*
D03*
X228429Y274500D02*
D03*
X161500Y259500D02*
D03*
Y294500D02*
D03*
Y289500D02*
D03*
X228429Y299500D02*
D03*
X161500D02*
D03*
Y304500D02*
D03*
X228429D02*
D03*
Y314500D02*
D03*
Y284500D02*
D03*
X161500Y274500D02*
D03*
X228429Y279500D02*
D03*
Y259500D02*
D03*
X161500Y319500D02*
D03*
Y314500D02*
D03*
Y309500D02*
D03*
Y254500D02*
D03*
X228429D02*
D03*
Y264500D02*
D03*
Y269500D02*
D03*
Y289500D02*
D03*
Y319500D02*
D03*
D22*
X282516Y274516D02*
D03*
Y277075D02*
D03*
Y271957D02*
D03*
Y269398D02*
D03*
Y266839D02*
D03*
X259484D02*
D03*
Y269398D02*
D03*
Y277075D02*
D03*
Y274516D02*
D03*
Y271957D02*
D03*
Y264280D02*
D03*
Y261720D02*
D03*
Y259161D02*
D03*
Y256602D02*
D03*
Y248925D02*
D03*
Y251484D02*
D03*
Y254043D02*
D03*
X282516D02*
D03*
Y251484D02*
D03*
Y248925D02*
D03*
Y256602D02*
D03*
Y259161D02*
D03*
Y261720D02*
D03*
Y264280D02*
D03*
D23*
X261000Y299500D02*
D03*
X252500D02*
D03*
X261000Y305012D02*
D03*
X252500D02*
D03*
D24*
X149158Y231000D02*
D03*
Y237500D02*
D03*
X149205Y250500D02*
D03*
X149158Y244000D02*
D03*
Y224500D02*
D03*
X143842Y231000D02*
D03*
Y224500D02*
D03*
Y237500D02*
D03*
X143890Y250500D02*
D03*
X143842Y244000D02*
D03*
D25*
X177465Y250563D02*
D03*
X212465D02*
D03*
X217465D02*
D03*
X202465D02*
D03*
X207465D02*
D03*
X187465D02*
D03*
X172465D02*
D03*
X197465D02*
D03*
X192465D02*
D03*
X182465D02*
D03*
D26*
X161500Y244500D02*
D03*
X228429D02*
D03*
Y249500D02*
D03*
Y239500D02*
D03*
Y234500D02*
D03*
Y229500D02*
D03*
X161500Y234500D02*
D03*
Y249500D02*
D03*
Y229500D02*
D03*
Y239500D02*
D03*
D27*
X178518Y163341D02*
D03*
X180487D02*
D03*
X172613Y147187D02*
D03*
X174581D02*
D03*
X176550D02*
D03*
X178518D02*
D03*
X180487D02*
D03*
X182455D02*
D03*
X176550Y163341D02*
D03*
X174581D02*
D03*
X172613D02*
D03*
X182455D02*
D03*
D28*
X183803Y297197D02*
D03*
X191028D02*
D03*
X198252D02*
D03*
X183803Y289972D02*
D03*
X191028D02*
D03*
X198252D02*
D03*
X183803Y282748D02*
D03*
X191028D02*
D03*
X198252D02*
D03*
D29*
X132547Y224500D02*
D03*
X138453D02*
D03*
Y231000D02*
D03*
X132547D02*
D03*
X138453Y237500D02*
D03*
X132547D02*
D03*
X138500Y250500D02*
D03*
X132595D02*
D03*
X138500Y244000D02*
D03*
X132595D02*
D03*
D30*
X138559Y333500D02*
D03*
X133441D02*
D03*
X197559Y197500D02*
D03*
X192441D02*
D03*
X191882Y170500D02*
D03*
X197000D02*
D03*
X192441Y189500D02*
D03*
X197559D02*
D03*
X197654Y214504D02*
D03*
X192535D02*
D03*
D31*
X137500Y208138D02*
D03*
Y212862D02*
D03*
X146500Y208138D02*
D03*
Y212862D02*
D03*
X292000Y177862D02*
D03*
Y173138D02*
D03*
X291500Y144862D02*
D03*
Y140138D02*
D03*
X286500Y109138D02*
D03*
Y113862D02*
D03*
X262500Y229362D02*
D03*
Y224638D02*
D03*
X184547Y129157D02*
D03*
Y133882D02*
D03*
X176047Y129157D02*
D03*
Y133882D02*
D03*
D32*
X158673Y217713D02*
D03*
Y212791D02*
D03*
X167673Y217713D02*
D03*
Y212791D02*
D03*
X192047Y133980D02*
D03*
Y129059D02*
D03*
D33*
X177673Y218205D02*
D03*
Y212299D02*
D03*
D34*
X259484Y280028D02*
D03*
Y245972D02*
D03*
X282516D02*
D03*
Y280028D02*
D03*
D35*
X241441Y285000D02*
D03*
X246559D02*
D03*
X241441Y278700D02*
D03*
X246559D02*
D03*
X241441Y272400D02*
D03*
X246559D02*
D03*
X241441Y266100D02*
D03*
X246559D02*
D03*
X241441Y259800D02*
D03*
X246559D02*
D03*
X241441Y253500D02*
D03*
X246559D02*
D03*
X307559Y309533D02*
D03*
X302441D02*
D03*
X307559Y303167D02*
D03*
X302441D02*
D03*
X307500Y296800D02*
D03*
X302382D02*
D03*
X307559Y290433D02*
D03*
X302441D02*
D03*
X307559Y284067D02*
D03*
X302441D02*
D03*
X307559Y277700D02*
D03*
X302441D02*
D03*
X307559Y271333D02*
D03*
X302441D02*
D03*
X307559Y264967D02*
D03*
X302441D02*
D03*
X307559Y245867D02*
D03*
X302441D02*
D03*
X307559Y252233D02*
D03*
X302441D02*
D03*
X307559Y258600D02*
D03*
X302441D02*
D03*
X307559Y239500D02*
D03*
X302441D02*
D03*
X307559Y315900D02*
D03*
X302441D02*
D03*
X307559Y335000D02*
D03*
X302441D02*
D03*
X307559Y322267D02*
D03*
X302441D02*
D03*
X307500Y328633D02*
D03*
X302382D02*
D03*
X283441Y288000D02*
D03*
X288559D02*
D03*
X133441Y326000D02*
D03*
X138559D02*
D03*
D36*
X181661Y192295D02*
D03*
D37*
X158433Y183240D02*
D03*
Y192295D02*
D03*
Y201350D02*
D03*
D38*
X284000Y230453D02*
D03*
Y224547D02*
D03*
X289500Y230405D02*
D03*
Y224500D02*
D03*
X291500Y160547D02*
D03*
Y166453D02*
D03*
X244000Y113953D02*
D03*
Y108047D02*
D03*
D39*
X160685Y174921D02*
D03*
X155764D02*
D03*
X159961Y131500D02*
D03*
X155039D02*
D03*
D40*
X157630Y152106D02*
D03*
Y164508D02*
D03*
X289500Y294528D02*
D03*
Y306929D02*
D03*
X280250Y294528D02*
D03*
Y306929D02*
D03*
X271000Y294528D02*
D03*
Y306929D02*
D03*
X146630Y184807D02*
D03*
Y197209D02*
D03*
X136130Y184807D02*
D03*
Y197209D02*
D03*
D41*
X141909Y159461D02*
D03*
Y156902D02*
D03*
Y154342D02*
D03*
Y151784D02*
D03*
Y149224D02*
D03*
D42*
X140492Y164037D02*
D03*
Y144648D02*
D03*
D43*
X131437Y165809D02*
D03*
Y142876D02*
D03*
D44*
Y157640D02*
D03*
Y151045D02*
D03*
D45*
X274500Y224500D02*
D03*
X254500D02*
D03*
X255000Y111000D02*
D03*
X275000D02*
D03*
D46*
X264500Y186114D02*
D03*
X265000Y149386D02*
D03*
D47*
X227000Y178409D02*
D03*
X212000D02*
D03*
D48*
X227000Y214591D02*
D03*
X212000D02*
D03*
D49*
X231000Y156000D02*
D03*
X230902Y126945D02*
D03*
D50*
X205803Y146945D02*
D03*
Y156000D02*
D03*
Y165055D02*
D03*
X205705Y117890D02*
D03*
Y126945D02*
D03*
Y136000D02*
D03*
D51*
X192638Y179500D02*
D03*
X197362D02*
D03*
X192595Y206504D02*
D03*
X197319D02*
D03*
D52*
X160409Y145343D02*
D03*
X154504D02*
D03*
D53*
X168047Y128795D02*
D03*
Y134701D02*
D03*
D54*
X185611Y160185D02*
D03*
X169457D02*
D03*
Y158217D02*
D03*
Y156248D02*
D03*
Y154279D02*
D03*
Y152311D02*
D03*
Y150343D02*
D03*
X185611D02*
D03*
Y152311D02*
D03*
Y154279D02*
D03*
Y156248D02*
D03*
Y158217D02*
D03*
D55*
X177534Y155264D02*
D03*
D56*
X160409Y138842D02*
D03*
X154504D02*
D03*
M02*
