G04*
G04 #@! TF.GenerationSoftware,Altium Limited,Altium Designer,20.1.14 (287)*
G04*
G04 Layer_Color=255*
%FSLAX25Y25*%
%MOIN*%
G70*
G04*
G04 #@! TF.SameCoordinates,C357774A-A1FF-41C0-A387-8AFBD113A784*
G04*
G04*
G04 #@! TF.FilePolarity,Positive*
G04*
G01*
G75*
%ADD106C,0.05906*%
%ADD107R,0.05906X0.05906*%
%ADD108R,0.05906X0.05906*%
%ADD109C,0.05118*%
%ADD110R,0.05118X0.05118*%
%ADD111C,0.06299*%
%ADD112R,0.06299X0.06299*%
%ADD113C,0.22000*%
%ADD115R,0.13780X0.03740*%
%ADD116R,0.35433X0.40748*%
D106*
X260500Y349000D02*
D03*
X290500D02*
D03*
X300500D02*
D03*
X280500D02*
D03*
X270500D02*
D03*
X260500Y335500D02*
D03*
X270500D02*
D03*
X280500D02*
D03*
X290500D02*
D03*
X145500Y286000D02*
D03*
X135500Y266000D02*
D03*
Y276000D02*
D03*
Y296000D02*
D03*
X145500D02*
D03*
X168000Y115500D02*
D03*
X135500Y306000D02*
D03*
X145500D02*
D03*
X178000Y115500D02*
D03*
X270500Y321500D02*
D03*
X280500D02*
D03*
X135500Y286000D02*
D03*
X331500Y377500D02*
D03*
Y389000D02*
D03*
X142000Y390000D02*
D03*
X135500Y316000D02*
D03*
X145500D02*
D03*
Y276000D02*
D03*
X260500Y321500D02*
D03*
X344079Y331035D02*
D03*
Y321035D02*
D03*
Y311035D02*
D03*
Y301035D02*
D03*
Y291035D02*
D03*
Y281035D02*
D03*
Y271035D02*
D03*
Y261035D02*
D03*
Y251035D02*
D03*
Y241035D02*
D03*
Y231035D02*
D03*
Y221035D02*
D03*
Y211035D02*
D03*
Y201035D02*
D03*
Y191035D02*
D03*
X334079Y331035D02*
D03*
Y321035D02*
D03*
Y311035D02*
D03*
Y301035D02*
D03*
Y291035D02*
D03*
Y281035D02*
D03*
Y271035D02*
D03*
Y261035D02*
D03*
Y251035D02*
D03*
Y241035D02*
D03*
Y231035D02*
D03*
Y221035D02*
D03*
Y211035D02*
D03*
Y201035D02*
D03*
Y191035D02*
D03*
X324079Y331035D02*
D03*
Y321035D02*
D03*
Y311035D02*
D03*
Y301035D02*
D03*
Y291035D02*
D03*
Y281035D02*
D03*
Y271035D02*
D03*
Y261035D02*
D03*
Y251035D02*
D03*
Y241035D02*
D03*
Y231035D02*
D03*
Y221035D02*
D03*
Y211035D02*
D03*
Y201035D02*
D03*
Y191035D02*
D03*
X188000Y115500D02*
D03*
D107*
X250500Y349000D02*
D03*
Y335500D02*
D03*
X341500Y377500D02*
D03*
Y389000D02*
D03*
X132000Y390000D02*
D03*
X250500Y321500D02*
D03*
X158000Y115500D02*
D03*
D108*
X145500Y266000D02*
D03*
X344079Y181035D02*
D03*
X334079D02*
D03*
X324079D02*
D03*
D109*
X309000Y192000D02*
D03*
Y218000D02*
D03*
D110*
X299158Y192000D02*
D03*
Y218000D02*
D03*
D111*
X333000Y159343D02*
D03*
D112*
Y139657D02*
D03*
D113*
X338000Y113000D02*
D03*
Y415500D02*
D03*
X136500D02*
D03*
Y113000D02*
D03*
D115*
X283386Y160000D02*
D03*
Y140000D02*
D03*
X284386Y204500D02*
D03*
Y184500D02*
D03*
D116*
X245000Y150000D02*
D03*
X246000Y194500D02*
D03*
M02*
