G04*
G04 #@! TF.GenerationSoftware,Altium Limited,Altium Designer,20.1.14 (287)*
G04*
G04 Layer_Color=32896*
%FSLAX25Y25*%
%MOIN*%
G70*
G04*
G04 #@! TF.SameCoordinates,C357774A-A1FF-41C0-A387-8AFBD113A784*
G04*
G04*
G04 #@! TF.FilePolarity,Positive*
G04*
G01*
G75*
%ADD10C,0.00984*%
%ADD12C,0.00787*%
%ADD14C,0.00600*%
%ADD15C,0.00500*%
%ADD102C,0.00800*%
G36*
X199700Y297400D02*
Y296600D01*
X198900D01*
Y295800D01*
X198100D01*
Y295000D01*
X197300D01*
Y295800D01*
Y296600D01*
X198100D01*
Y297400D01*
X198900D01*
Y298200D01*
X199700D01*
Y297400D01*
D02*
G37*
G36*
X197300Y294200D02*
Y293400D01*
X196500D01*
Y294200D01*
Y295000D01*
X197300D01*
Y294200D01*
D02*
G37*
G36*
X195700Y291800D02*
Y291000D01*
X194900D01*
Y291800D01*
Y292600D01*
X195700D01*
Y291800D01*
D02*
G37*
G36*
X194900Y290200D02*
Y289400D01*
X194100D01*
Y290200D01*
Y291000D01*
X194900D01*
Y290200D01*
D02*
G37*
G36*
X194100Y288600D02*
Y287800D01*
X193300D01*
Y288600D01*
Y289400D01*
X194100D01*
Y288600D01*
D02*
G37*
G36*
X193300Y287000D02*
Y286200D01*
X192500D01*
Y287000D01*
Y287800D01*
X193300D01*
Y287000D01*
D02*
G37*
G36*
X229300Y276600D02*
X230100D01*
Y275800D01*
X229300D01*
Y276600D01*
X228500D01*
Y277400D01*
X229300D01*
Y276600D01*
D02*
G37*
G36*
X230900Y274200D02*
X231700D01*
Y273400D01*
X230900D01*
Y274200D01*
X230100D01*
Y275000D01*
X230900D01*
Y274200D01*
D02*
G37*
G36*
X242100Y303800D02*
X244500D01*
Y303000D01*
X245300D01*
Y302200D01*
X246900D01*
Y301400D01*
X247700D01*
Y300600D01*
X248500D01*
Y299800D01*
Y299000D01*
X249300D01*
Y298200D01*
X250100D01*
Y297400D01*
Y296600D01*
Y295800D01*
X250900D01*
Y295000D01*
Y294200D01*
Y293400D01*
X251700D01*
Y292600D01*
Y291800D01*
Y291000D01*
Y290200D01*
Y289400D01*
Y288600D01*
Y287800D01*
Y287000D01*
Y286200D01*
Y285400D01*
Y284600D01*
Y283800D01*
X250900D01*
Y283000D01*
Y282200D01*
Y281400D01*
X250100D01*
Y280600D01*
Y279800D01*
Y279000D01*
X249300D01*
Y278200D01*
Y277400D01*
X248500D01*
Y276600D01*
X247700D01*
Y275800D01*
Y275000D01*
X246900D01*
Y274200D01*
X246100D01*
Y273400D01*
X245300D01*
Y272600D01*
X244500D01*
Y271800D01*
X243700D01*
Y271000D01*
X242900D01*
Y270200D01*
X242100D01*
Y269400D01*
X241300D01*
Y268600D01*
X240500D01*
Y269400D01*
Y270200D01*
X241300D01*
Y271000D01*
X242100D01*
Y271800D01*
X242900D01*
Y272600D01*
Y273400D01*
X243700D01*
Y274200D01*
X244500D01*
Y275000D01*
Y275800D01*
X245300D01*
Y276600D01*
X246100D01*
Y277400D01*
Y278200D01*
X246900D01*
Y279000D01*
Y279800D01*
Y280600D01*
X247700D01*
Y281400D01*
Y282200D01*
Y283000D01*
X248500D01*
Y283800D01*
Y284600D01*
Y285400D01*
Y286200D01*
Y287000D01*
Y287800D01*
Y288600D01*
Y289400D01*
Y290200D01*
Y291000D01*
Y291800D01*
Y292600D01*
X247700D01*
Y293400D01*
Y294200D01*
Y295000D01*
Y295800D01*
X246900D01*
Y296600D01*
Y297400D01*
X246100D01*
Y298200D01*
X245300D01*
Y299000D01*
Y299800D01*
X243700D01*
Y300600D01*
X242900D01*
Y301400D01*
X241300D01*
Y302200D01*
X234100D01*
Y301400D01*
X232500D01*
Y300600D01*
X230900D01*
Y299800D01*
X230100D01*
Y299000D01*
Y298200D01*
X229300D01*
Y297400D01*
X228500D01*
Y296600D01*
Y295800D01*
X227700D01*
Y295000D01*
Y294200D01*
X226900D01*
Y293400D01*
Y292600D01*
Y291800D01*
Y291000D01*
Y290200D01*
Y289400D01*
X226100D01*
Y288600D01*
Y287800D01*
Y287000D01*
Y286200D01*
Y285400D01*
X226900D01*
Y284600D01*
Y283800D01*
Y283000D01*
Y282200D01*
Y281400D01*
X227700D01*
Y280600D01*
Y279800D01*
X226900D01*
Y280600D01*
Y281400D01*
X226100D01*
Y282200D01*
Y283000D01*
Y283800D01*
Y284600D01*
X225300D01*
Y285400D01*
Y286200D01*
Y287000D01*
Y287800D01*
Y288600D01*
Y289400D01*
Y290200D01*
Y291000D01*
Y291800D01*
Y292600D01*
Y293400D01*
X226100D01*
Y294200D01*
Y295000D01*
Y295800D01*
Y296600D01*
X226900D01*
Y297400D01*
Y298200D01*
X227700D01*
Y299000D01*
Y299800D01*
X228500D01*
Y300600D01*
X229300D01*
Y301400D01*
X230100D01*
Y302200D01*
X230900D01*
Y303000D01*
X232500D01*
Y303800D01*
X234900D01*
Y304600D01*
X242100D01*
Y303800D01*
D02*
G37*
G36*
X239700Y264600D02*
X240500D01*
Y263800D01*
X241300D01*
Y263000D01*
X242100D01*
Y262200D01*
X242900D01*
Y261400D01*
X244500D01*
Y260600D01*
X238900D01*
Y259800D01*
Y259000D01*
Y258200D01*
Y257400D01*
Y256600D01*
Y255800D01*
Y255000D01*
Y254200D01*
Y253400D01*
Y252600D01*
Y251800D01*
Y251000D01*
Y250200D01*
Y249400D01*
Y248600D01*
Y247800D01*
Y247000D01*
Y246200D01*
Y245400D01*
Y244600D01*
Y243800D01*
Y243000D01*
Y242200D01*
Y241400D01*
Y240600D01*
Y239800D01*
Y239000D01*
Y238200D01*
Y237400D01*
Y236600D01*
X238100D01*
Y237400D01*
X237300D01*
Y238200D01*
Y239000D01*
Y239800D01*
Y240600D01*
Y241400D01*
Y242200D01*
Y243000D01*
Y243800D01*
Y244600D01*
Y245400D01*
Y246200D01*
Y247000D01*
Y247800D01*
Y248600D01*
Y249400D01*
Y250200D01*
Y251000D01*
Y251800D01*
Y252600D01*
Y253400D01*
Y254200D01*
Y255000D01*
Y255800D01*
Y256600D01*
Y257400D01*
Y258200D01*
Y259000D01*
Y259800D01*
Y260600D01*
X234900D01*
Y259800D01*
X231700D01*
Y260600D01*
X232500D01*
Y261400D01*
X233300D01*
Y262200D01*
X234100D01*
Y263000D01*
X234900D01*
Y262200D01*
Y261400D01*
X235700D01*
Y262200D01*
X240500D01*
Y263000D01*
X239700D01*
Y263800D01*
Y264600D01*
X238900D01*
Y265400D01*
X239700D01*
Y264600D01*
D02*
G37*
G36*
X245300Y316600D02*
X249300D01*
Y315800D01*
X252500D01*
Y315000D01*
X254900D01*
Y314200D01*
X256500D01*
Y313400D01*
X258900D01*
Y312600D01*
X260500D01*
Y311800D01*
X262100D01*
Y311000D01*
X262900D01*
Y310200D01*
X264500D01*
Y309400D01*
X265300D01*
Y308600D01*
X266900D01*
Y307800D01*
X267700D01*
Y307000D01*
X269300D01*
Y306200D01*
X270100D01*
Y305400D01*
X270900D01*
Y304600D01*
X271700D01*
Y303800D01*
X272500D01*
Y303000D01*
X273300D01*
Y302200D01*
X274100D01*
Y301400D01*
X274900D01*
Y300600D01*
X275700D01*
Y299800D01*
X276500D01*
Y299000D01*
Y298200D01*
X277300D01*
Y297400D01*
X278100D01*
Y296600D01*
Y295800D01*
X278900D01*
Y295000D01*
X279700D01*
Y294200D01*
Y293400D01*
X280500D01*
Y292600D01*
X281300D01*
Y291800D01*
Y291000D01*
X282100D01*
Y290200D01*
Y289400D01*
X282900D01*
Y288600D01*
Y287800D01*
Y287000D01*
X283700D01*
Y286200D01*
Y285400D01*
X284500D01*
Y284600D01*
Y283800D01*
Y283000D01*
X285300D01*
Y282200D01*
Y281400D01*
Y280600D01*
Y279800D01*
X286100D01*
Y279000D01*
Y278200D01*
Y277400D01*
Y276600D01*
Y275800D01*
X286900D01*
Y275000D01*
Y274200D01*
Y273400D01*
Y272600D01*
Y271800D01*
Y271000D01*
Y270200D01*
Y269400D01*
Y268600D01*
Y267800D01*
Y267000D01*
Y266200D01*
Y265400D01*
Y264600D01*
Y263800D01*
Y263000D01*
Y262200D01*
Y261400D01*
Y260600D01*
Y259800D01*
X286100D01*
Y259000D01*
Y258200D01*
Y257400D01*
Y256600D01*
X285300D01*
Y255800D01*
Y255000D01*
Y254200D01*
Y253400D01*
X284500D01*
Y252600D01*
Y251800D01*
Y251000D01*
X283700D01*
Y250200D01*
Y249400D01*
X282900D01*
Y248600D01*
Y247800D01*
Y247000D01*
X282100D01*
Y246200D01*
Y245400D01*
X281300D01*
Y244600D01*
Y243800D01*
X280500D01*
Y243000D01*
X279700D01*
Y242200D01*
Y241400D01*
X278900D01*
Y240600D01*
Y239800D01*
X278100D01*
Y239000D01*
X277300D01*
Y238200D01*
X276500D01*
Y237400D01*
Y236600D01*
X275700D01*
Y235800D01*
X274900D01*
Y235000D01*
X274100D01*
Y234200D01*
X273300D01*
Y233400D01*
X272500D01*
Y232600D01*
X271700D01*
Y231800D01*
X270900D01*
Y231000D01*
X270100D01*
Y230200D01*
X269300D01*
Y229400D01*
X267700D01*
Y228600D01*
X266900D01*
Y227800D01*
X266100D01*
Y227000D01*
X264500D01*
Y226200D01*
X262900D01*
Y225400D01*
X262100D01*
Y224600D01*
X260500D01*
Y223800D01*
X258900D01*
Y223000D01*
X256500D01*
Y222200D01*
X254900D01*
Y221400D01*
X252500D01*
Y220600D01*
X249300D01*
Y219800D01*
X245300D01*
Y219000D01*
X230100D01*
Y219800D01*
X226100D01*
Y220600D01*
X223700D01*
Y221400D01*
X221300D01*
Y222200D01*
X218900D01*
Y223000D01*
X217300D01*
Y223800D01*
X215700D01*
Y224600D01*
X214100D01*
Y225400D01*
X212500D01*
Y226200D01*
X211700D01*
Y227000D01*
X210100D01*
Y227800D01*
X209300D01*
Y228600D01*
X207700D01*
Y229400D01*
X206900D01*
Y230200D01*
X206100D01*
Y231000D01*
X205300D01*
Y231800D01*
X204500D01*
Y232600D01*
X203700D01*
Y233400D01*
X202900D01*
Y234200D01*
X202100D01*
Y235000D01*
X201300D01*
Y235800D01*
X200500D01*
Y236600D01*
X199700D01*
Y237400D01*
X198900D01*
Y238200D01*
X199700D01*
Y237400D01*
X200500D01*
Y236600D01*
X201300D01*
Y235800D01*
X202100D01*
Y235000D01*
X202900D01*
Y234200D01*
X203700D01*
Y233400D01*
X204500D01*
Y232600D01*
X205300D01*
Y231800D01*
X206100D01*
Y231000D01*
X206900D01*
Y230200D01*
X207700D01*
Y229400D01*
X209300D01*
Y228600D01*
X210100D01*
Y227800D01*
X211700D01*
Y227000D01*
X212500D01*
Y226200D01*
X214100D01*
Y225400D01*
X215700D01*
Y224600D01*
X217300D01*
Y223800D01*
X219700D01*
Y223000D01*
X222100D01*
Y222200D01*
X224500D01*
Y221400D01*
X227700D01*
Y220600D01*
X234900D01*
Y219800D01*
X239700D01*
Y220600D01*
X246100D01*
Y221400D01*
X250100D01*
Y222200D01*
X252500D01*
Y223000D01*
X254900D01*
Y223800D01*
X256500D01*
Y224600D01*
X258100D01*
Y225400D01*
X259700D01*
Y226200D01*
X261300D01*
Y227000D01*
X262900D01*
Y227800D01*
X263700D01*
Y228600D01*
X265300D01*
Y229400D01*
X266100D01*
Y230200D01*
X266900D01*
Y231000D01*
X268500D01*
Y231800D01*
X269300D01*
Y232600D01*
X270100D01*
Y233400D01*
X270900D01*
Y234200D01*
X271700D01*
Y235000D01*
X272500D01*
Y235800D01*
X273300D01*
Y236600D01*
X274100D01*
Y237400D01*
Y238200D01*
X274900D01*
Y239000D01*
X275700D01*
Y239800D01*
X276500D01*
Y240600D01*
Y241400D01*
X277300D01*
Y242200D01*
X278100D01*
Y243000D01*
Y243800D01*
X278900D01*
Y244600D01*
X279700D01*
Y245400D01*
Y246200D01*
X280500D01*
Y247000D01*
Y247800D01*
X281300D01*
Y248600D01*
Y249400D01*
Y250200D01*
X282100D01*
Y251000D01*
Y251800D01*
X282900D01*
Y252600D01*
Y253400D01*
Y254200D01*
X283700D01*
Y255000D01*
Y255800D01*
Y256600D01*
Y257400D01*
X284500D01*
Y258200D01*
Y259000D01*
Y259800D01*
Y260600D01*
Y261400D01*
Y262200D01*
X285300D01*
Y263000D01*
Y263800D01*
Y264600D01*
Y265400D01*
Y266200D01*
Y267000D01*
Y267800D01*
Y268600D01*
Y269400D01*
Y270200D01*
Y271000D01*
Y271800D01*
Y272600D01*
X284500D01*
Y273400D01*
Y274200D01*
Y275000D01*
Y275800D01*
Y276600D01*
Y277400D01*
X283700D01*
Y278200D01*
Y279000D01*
Y279800D01*
Y280600D01*
X282900D01*
Y281400D01*
Y282200D01*
Y283000D01*
X282100D01*
Y283800D01*
Y284600D01*
Y285400D01*
X281300D01*
Y286200D01*
Y287000D01*
X280500D01*
Y287800D01*
Y288600D01*
X279700D01*
Y289400D01*
Y290200D01*
X278900D01*
Y291000D01*
Y291800D01*
X278100D01*
Y292600D01*
X277300D01*
Y293400D01*
Y294200D01*
X276500D01*
Y295000D01*
X275700D01*
Y295800D01*
Y296600D01*
X274900D01*
Y297400D01*
X274100D01*
Y298200D01*
X273300D01*
Y299000D01*
X272500D01*
Y299800D01*
X271700D01*
Y300600D01*
X270900D01*
Y301400D01*
X270100D01*
Y302200D01*
X269300D01*
Y303000D01*
X268500D01*
Y303800D01*
X267700D01*
Y304600D01*
X266100D01*
Y305400D01*
X265300D01*
Y306200D01*
X264500D01*
Y307000D01*
X262900D01*
Y307800D01*
X261300D01*
Y308600D01*
X260500D01*
Y309400D01*
X258900D01*
Y310200D01*
X257300D01*
Y311000D01*
X254900D01*
Y311800D01*
X253300D01*
Y312600D01*
X250100D01*
Y313400D01*
X246900D01*
Y314200D01*
X242100D01*
Y315000D01*
X232500D01*
Y314200D01*
X226900D01*
Y313400D01*
X223700D01*
Y312600D01*
X221300D01*
Y311800D01*
X218900D01*
Y311000D01*
X217300D01*
Y310200D01*
X215700D01*
Y309400D01*
X214100D01*
Y308600D01*
X212500D01*
Y307800D01*
X210900D01*
Y307000D01*
X210100D01*
Y306200D01*
X208500D01*
Y305400D01*
X207700D01*
Y304600D01*
X206900D01*
Y303800D01*
X205300D01*
Y303000D01*
X204500D01*
Y302200D01*
X203700D01*
Y301400D01*
X202900D01*
Y300600D01*
X202100D01*
Y299800D01*
X201300D01*
Y299000D01*
X200500D01*
Y298200D01*
X199700D01*
Y299000D01*
Y299800D01*
X200500D01*
Y300600D01*
X201300D01*
Y301400D01*
X202100D01*
Y302200D01*
X202900D01*
Y303000D01*
X203700D01*
Y303800D01*
X204500D01*
Y304600D01*
X205300D01*
Y305400D01*
X206100D01*
Y306200D01*
X206900D01*
Y307000D01*
X208500D01*
Y307800D01*
X209300D01*
Y308600D01*
X210100D01*
Y309400D01*
X211700D01*
Y310200D01*
X212500D01*
Y311000D01*
X214100D01*
Y311800D01*
X215700D01*
Y312600D01*
X217300D01*
Y313400D01*
X218900D01*
Y314200D01*
X221300D01*
Y315000D01*
X223700D01*
Y315800D01*
X226100D01*
Y316600D01*
X230100D01*
Y317400D01*
X245300D01*
Y316600D01*
D02*
G37*
D10*
X284878Y208535D02*
G03*
X284878Y208535I-492J0D01*
G01*
X283878Y164035D02*
G03*
X283878Y164035I-492J0D01*
G01*
D12*
X264291Y170472D02*
X270590D01*
X264291Y129528D02*
X270590D01*
Y170472D01*
X265291Y214972D02*
X271590D01*
X265291Y174028D02*
X271590D01*
Y214972D01*
D14*
X218900Y258171D02*
Y262170D01*
X216901D01*
X216234Y261504D01*
Y260171D01*
X216901Y259504D01*
X218900D01*
X217567D02*
X216234Y258171D01*
X212902D02*
X214235D01*
X214901Y258838D01*
Y260171D01*
X214235Y260837D01*
X212902D01*
X212235Y260171D01*
Y259504D01*
X214901D01*
X208237Y262170D02*
Y258171D01*
X210236D01*
X210903Y258838D01*
Y260171D01*
X210236Y260837D01*
X208237D01*
X202905Y262170D02*
Y258171D01*
X200906D01*
X200239Y258838D01*
Y259504D01*
X200906Y260171D01*
X202905D01*
X200906D01*
X200239Y260837D01*
Y261504D01*
X200906Y262170D01*
X202905D01*
X198240Y260837D02*
X196907D01*
X196241Y260171D01*
Y258171D01*
X198240D01*
X198906Y258838D01*
X198240Y259504D01*
X196241D01*
X194908Y258171D02*
X193575D01*
X194241D01*
Y262170D01*
X194908D01*
X191576Y258171D02*
X190243D01*
X190909D01*
Y262170D01*
X191576D01*
X187577Y258171D02*
X186244D01*
X185577Y258838D01*
Y260171D01*
X186244Y260837D01*
X187577D01*
X188243Y260171D01*
Y258838D01*
X187577Y258171D01*
X183578D02*
X182245D01*
X181579Y258838D01*
Y260171D01*
X182245Y260837D01*
X183578D01*
X184245Y260171D01*
Y258838D01*
X183578Y258171D01*
X180246D02*
Y260837D01*
X178246D01*
X177580Y260171D01*
Y258171D01*
X216234Y255265D02*
X216901Y255932D01*
X218234D01*
X218900Y255265D01*
Y254599D01*
X218234Y253932D01*
X216901D01*
X216234Y253266D01*
Y252599D01*
X216901Y251933D01*
X218234D01*
X218900Y252599D01*
X212902Y251933D02*
X214235D01*
X214901Y252599D01*
Y253932D01*
X214235Y254599D01*
X212902D01*
X212235Y253932D01*
Y253266D01*
X214901D01*
X208237Y254599D02*
X210236D01*
X210903Y253932D01*
Y252599D01*
X210236Y251933D01*
X208237D01*
X206904Y254599D02*
Y252599D01*
X206237Y251933D01*
X204238D01*
Y254599D01*
X202905D02*
Y251933D01*
Y253266D01*
X202239Y253932D01*
X201572Y254599D01*
X200906D01*
X198906Y251933D02*
X197574D01*
X198240D01*
Y254599D01*
X198906D01*
X194908Y255265D02*
Y254599D01*
X195574D01*
X194241D01*
X194908D01*
Y252599D01*
X194241Y251933D01*
X192242Y254599D02*
Y252599D01*
X191576Y251933D01*
X189576D01*
Y251266D01*
X190243Y250600D01*
X190909D01*
X189576Y251933D02*
Y254599D01*
X171400Y264100D02*
Y267099D01*
X169901D01*
X169401Y266599D01*
Y265599D01*
X169901Y265100D01*
X171400D01*
X168401Y264100D02*
X167401D01*
X167901D01*
Y267099D01*
X168401Y266599D01*
X164402Y264100D02*
Y267099D01*
X165902Y265599D01*
X163902D01*
X159904Y264100D02*
Y267099D01*
X158404D01*
X157904Y266599D01*
Y265599D01*
X158404Y265100D01*
X159904D01*
X156905Y264100D02*
X155905D01*
X156405D01*
Y267099D01*
X156905Y266599D01*
X154405D02*
X153906Y267099D01*
X152906D01*
X152406Y266599D01*
Y266099D01*
X152906Y265599D01*
X153406D01*
X152906D01*
X152406Y265100D01*
Y264600D01*
X152906Y264100D01*
X153906D01*
X154405Y264600D01*
X166400Y284600D02*
Y287599D01*
X164901D01*
X164401Y287099D01*
Y286100D01*
X164901Y285600D01*
X166400D01*
X161402Y287599D02*
X163401D01*
Y286100D01*
X162401Y286599D01*
X161901D01*
X161402Y286100D01*
Y285100D01*
X161901Y284600D01*
X162901D01*
X163401Y285100D01*
X157403Y284600D02*
Y287599D01*
X155903D01*
X155404Y287099D01*
Y286100D01*
X155903Y285600D01*
X157403D01*
X152404Y284600D02*
X154404D01*
X152404Y286599D01*
Y287099D01*
X152904Y287599D01*
X153904D01*
X154404Y287099D01*
X171400Y274600D02*
Y277599D01*
X169901D01*
X169401Y277099D01*
Y276099D01*
X169901Y275600D01*
X171400D01*
X168401Y274600D02*
X167401D01*
X167901D01*
Y277599D01*
X168401Y277099D01*
X163902Y274600D02*
X165902D01*
X163902Y276599D01*
Y277099D01*
X164402Y277599D01*
X165402D01*
X165902Y277099D01*
X159904Y274600D02*
Y277599D01*
X158404D01*
X157904Y277099D01*
Y276099D01*
X158404Y275600D01*
X159904D01*
X156905Y274600D02*
X155905D01*
X156405D01*
Y277599D01*
X156905Y277099D01*
X152406Y277599D02*
X154405D01*
Y276099D01*
X153406Y276599D01*
X152906D01*
X152406Y276099D01*
Y275100D01*
X152906Y274600D01*
X153906D01*
X154405Y275100D01*
X175401Y306099D02*
X175900Y306599D01*
X176900D01*
X177400Y306099D01*
Y305599D01*
X176900Y305100D01*
X175900D01*
X175401Y304600D01*
Y304100D01*
X175900Y303600D01*
X176900D01*
X177400Y304100D01*
X172402Y306599D02*
X174401D01*
Y303600D01*
X172402D01*
X174401Y305100D02*
X173401D01*
X171402Y303600D02*
Y306599D01*
X169403Y303600D01*
Y306599D01*
X168403Y303600D02*
Y306599D01*
X166903D01*
X166404Y306099D01*
Y305100D01*
X166903Y304600D01*
X168403D01*
X160406Y306099D02*
X160905Y306599D01*
X161905D01*
X162405Y306099D01*
Y305599D01*
X161905Y305100D01*
X160905D01*
X160406Y304600D01*
Y304100D01*
X160905Y303600D01*
X161905D01*
X162405Y304100D01*
X157406Y306599D02*
X159406D01*
Y303600D01*
X157406D01*
X159406Y305100D02*
X158406D01*
X156407Y303600D02*
Y306599D01*
X154407Y303600D01*
Y306599D01*
X153408Y303600D02*
Y306599D01*
X151408Y303600D01*
Y306599D01*
X171400Y294100D02*
Y297099D01*
X169901D01*
X169401Y296599D01*
Y295600D01*
X169901Y295100D01*
X171400D01*
X168401Y296599D02*
X167901Y297099D01*
X166901D01*
X166402Y296599D01*
Y296099D01*
X166901Y295600D01*
X167401D01*
X166901D01*
X166402Y295100D01*
Y294600D01*
X166901Y294100D01*
X167901D01*
X168401Y294600D01*
X163403Y297099D02*
X165402D01*
Y295600D01*
X164402Y296099D01*
X163902D01*
X163403Y295600D01*
Y294600D01*
X163902Y294100D01*
X164902D01*
X165402Y294600D01*
X159404Y294100D02*
Y297099D01*
X157904D01*
X157404Y296599D01*
Y295600D01*
X157904Y295100D01*
X159404D01*
X156405Y296599D02*
X155905Y297099D01*
X154905D01*
X154405Y296599D01*
Y296099D01*
X154905Y295600D01*
X155405D01*
X154905D01*
X154405Y295100D01*
Y294600D01*
X154905Y294100D01*
X155905D01*
X156405Y294600D01*
X151906Y294100D02*
Y297099D01*
X153406Y295600D01*
X151407D01*
D15*
X199500Y206681D02*
X198500D01*
X199000D01*
Y203682D01*
X199500D01*
X198500D01*
X197001D02*
Y206681D01*
X196001Y205682D01*
X195001Y206681D01*
Y203682D01*
X194002Y206681D02*
Y204182D01*
X193502Y203682D01*
X192502D01*
X192002Y204182D01*
Y206681D01*
X193502Y201883D02*
X192502D01*
X193002D01*
Y198883D01*
X193502D01*
X192502D01*
X189003D02*
X191003D01*
X189003Y200883D01*
Y201383D01*
X189503Y201883D01*
X190503D01*
X191003Y201383D01*
X186004D02*
X186504Y201883D01*
X187504D01*
X188004Y201383D01*
Y199383D01*
X187504Y198883D01*
X186504D01*
X186004Y199383D01*
X185005Y198384D02*
X183005D01*
X180006Y201383D02*
X180506Y201883D01*
X181506D01*
X182006Y201383D01*
Y200883D01*
X181506Y200383D01*
X180506D01*
X180006Y199883D01*
Y199383D01*
X180506Y198883D01*
X181506D01*
X182006Y199383D01*
X177007Y201383D02*
X177507Y201883D01*
X178507D01*
X179007Y201383D01*
Y199383D01*
X178507Y198883D01*
X177507D01*
X177007Y199383D01*
X176008Y201883D02*
Y198883D01*
X174008D01*
X170010Y201883D02*
X169010D01*
X169510D01*
Y198883D01*
X170010D01*
X169010D01*
X166011Y201883D02*
X167010D01*
X167510Y201383D01*
Y199383D01*
X167010Y198883D01*
X166011D01*
X165511Y199383D01*
Y201383D01*
X166011Y201883D01*
X162512Y198883D02*
X164511D01*
X162512Y200883D01*
Y201383D01*
X163012Y201883D01*
X164012D01*
X164511Y201383D01*
X159513Y201883D02*
X160513Y201383D01*
X161512Y200383D01*
Y199383D01*
X161012Y198883D01*
X160013D01*
X159513Y199383D01*
Y199883D01*
X160013Y200383D01*
X161512D01*
X193502Y196584D02*
X192502D01*
X193002D01*
Y193585D01*
X193502D01*
X192502D01*
X189003D02*
X191003D01*
X189003Y195584D01*
Y196084D01*
X189503Y196584D01*
X190503D01*
X191003Y196084D01*
X186004D02*
X186504Y196584D01*
X187504D01*
X188004Y196084D01*
Y194085D01*
X187504Y193585D01*
X186504D01*
X186004Y194085D01*
X185005Y193085D02*
X183005D01*
X180006Y196084D02*
X180506Y196584D01*
X181506D01*
X182006Y196084D01*
Y195584D01*
X181506Y195084D01*
X180506D01*
X180006Y194585D01*
Y194085D01*
X180506Y193585D01*
X181506D01*
X182006Y194085D01*
X179007Y196584D02*
Y193585D01*
X177507D01*
X177007Y194085D01*
Y196084D01*
X177507Y196584D01*
X179007D01*
X176008Y193585D02*
Y195584D01*
X175008Y196584D01*
X174008Y195584D01*
Y193585D01*
Y195084D01*
X176008D01*
X170010Y196584D02*
X169010D01*
X169510D01*
Y193585D01*
X170010D01*
X169010D01*
X166011Y196584D02*
X167010D01*
X167510Y196084D01*
Y194085D01*
X167010Y193585D01*
X166011D01*
X165511Y194085D01*
Y196084D01*
X166011Y196584D01*
X162512Y193585D02*
X164511D01*
X162512Y195584D01*
Y196084D01*
X163012Y196584D01*
X164012D01*
X164511Y196084D01*
X161512Y196584D02*
X159513D01*
Y196084D01*
X161512Y194085D01*
Y193585D01*
X193502Y191285D02*
Y188286D01*
X192002D01*
X191503Y188786D01*
Y189286D01*
X192002Y189786D01*
X193502D01*
X192002D01*
X191503Y190286D01*
Y190785D01*
X192002Y191285D01*
X193502D01*
X190503Y188286D02*
Y191285D01*
X188504Y188286D01*
Y191285D01*
X186004D02*
X187004D01*
X187504Y190785D01*
Y188786D01*
X187004Y188286D01*
X186004D01*
X185504Y188786D01*
Y190785D01*
X186004Y191285D01*
X184505Y187786D02*
X182506D01*
X181506Y188286D02*
Y191285D01*
X180006D01*
X179507Y190785D01*
Y189786D01*
X180006Y189286D01*
X181506D01*
X180506D02*
X179507Y188286D01*
X176507Y191285D02*
X178507D01*
Y188286D01*
X176507D01*
X178507Y189786D02*
X177507D01*
X173508Y190785D02*
X174008Y191285D01*
X175008D01*
X175508Y190785D01*
Y190286D01*
X175008Y189786D01*
X174008D01*
X173508Y189286D01*
Y188786D01*
X174008Y188286D01*
X175008D01*
X175508Y188786D01*
X170509Y191285D02*
X172509D01*
Y188286D01*
X170509D01*
X172509Y189786D02*
X171509D01*
X169510Y191285D02*
X167510D01*
X168510D01*
Y188286D01*
X163512Y191285D02*
X162512D01*
X163012D01*
Y188286D01*
X163512D01*
X162512D01*
X159513Y191285D02*
X160513D01*
X161012Y190785D01*
Y188786D01*
X160513Y188286D01*
X159513D01*
X159013Y188786D01*
Y190785D01*
X159513Y191285D01*
X156514Y188286D02*
Y191285D01*
X158013Y189786D01*
X156014D01*
X199500Y182987D02*
Y185986D01*
X198001D01*
X197501Y185487D01*
Y184487D01*
X198001Y183987D01*
X199500D01*
X196501Y185986D02*
Y182987D01*
X195501Y183987D01*
X194502Y182987D01*
Y185986D01*
X193502Y182987D02*
Y185986D01*
X192502Y184987D01*
X191503Y185986D01*
Y182987D01*
X193502Y181188D02*
X192502D01*
X193002D01*
Y178189D01*
X193502D01*
X192502D01*
X189003D02*
X191003D01*
X189003Y180188D01*
Y180688D01*
X189503Y181188D01*
X190503D01*
X191003Y180688D01*
X186004D02*
X186504Y181188D01*
X187504D01*
X188004Y180688D01*
Y178688D01*
X187504Y178189D01*
X186504D01*
X186004Y178688D01*
X185005Y177689D02*
X183005D01*
X180006Y180688D02*
X180506Y181188D01*
X181506D01*
X182006Y180688D01*
Y180188D01*
X181506Y179688D01*
X180506D01*
X180006Y179188D01*
Y178688D01*
X180506Y178189D01*
X181506D01*
X182006Y178688D01*
X177007Y180688D02*
X177507Y181188D01*
X178507D01*
X179007Y180688D01*
Y178688D01*
X178507Y178189D01*
X177507D01*
X177007Y178688D01*
X176008Y181188D02*
Y178189D01*
X174008D01*
X171009D02*
X173009D01*
X171009Y180188D01*
Y180688D01*
X171509Y181188D01*
X172509D01*
X173009Y180688D01*
X167010Y181188D02*
X166011D01*
X166511D01*
Y178189D01*
X167010D01*
X166011D01*
X163012Y181188D02*
X164012D01*
X164511Y180688D01*
Y178688D01*
X164012Y178189D01*
X163012D01*
X162512Y178688D01*
Y180688D01*
X163012Y181188D01*
X159513Y178189D02*
X161512D01*
X159513Y180188D01*
Y180688D01*
X160013Y181188D01*
X161012D01*
X161512Y180688D01*
X158513Y178189D02*
X157514D01*
X158013D01*
Y181188D01*
X158513Y180688D01*
X193502Y175889D02*
X192502D01*
X193002D01*
Y172890D01*
X193502D01*
X192502D01*
X189003D02*
X191003D01*
X189003Y174889D01*
Y175389D01*
X189503Y175889D01*
X190503D01*
X191003Y175389D01*
X186004D02*
X186504Y175889D01*
X187504D01*
X188004Y175389D01*
Y173390D01*
X187504Y172890D01*
X186504D01*
X186004Y173390D01*
X185005Y172390D02*
X183005D01*
X180006Y175389D02*
X180506Y175889D01*
X181506D01*
X182006Y175389D01*
Y174889D01*
X181506Y174389D01*
X180506D01*
X180006Y173890D01*
Y173390D01*
X180506Y172890D01*
X181506D01*
X182006Y173390D01*
X179007Y175889D02*
Y172890D01*
X177507D01*
X177007Y173390D01*
Y175389D01*
X177507Y175889D01*
X179007D01*
X176008Y172890D02*
Y174889D01*
X175008Y175889D01*
X174008Y174889D01*
Y172890D01*
Y174389D01*
X176008D01*
X171009Y172890D02*
X173009D01*
X171009Y174889D01*
Y175389D01*
X171509Y175889D01*
X172509D01*
X173009Y175389D01*
X167010Y175889D02*
X166011D01*
X166511D01*
Y172890D01*
X167010D01*
X166011D01*
X163012Y175889D02*
X164012D01*
X164511Y175389D01*
Y173390D01*
X164012Y172890D01*
X163012D01*
X162512Y173390D01*
Y175389D01*
X163012Y175889D01*
X159513Y172890D02*
X161512D01*
X159513Y174889D01*
Y175389D01*
X160013Y175889D01*
X161012D01*
X161512Y175389D01*
X156514Y172890D02*
X158513D01*
X156514Y174889D01*
Y175389D01*
X157014Y175889D01*
X158013D01*
X158513Y175389D01*
X197501Y170090D02*
X198001Y170590D01*
X199000D01*
X199500Y170090D01*
Y168091D01*
X199000Y167591D01*
X198001D01*
X197501Y168091D01*
Y169091D01*
X198500D01*
X196501Y167591D02*
Y170590D01*
X195001D01*
X194502Y170090D01*
Y169091D01*
X195001Y168591D01*
X196501D01*
X191503Y170090D02*
X192002Y170590D01*
X193002D01*
X193502Y170090D01*
Y169591D01*
X193002Y169091D01*
X192002D01*
X191503Y168591D01*
Y168091D01*
X192002Y167591D01*
X193002D01*
X193502Y168091D01*
Y165791D02*
X192502D01*
X193002D01*
Y162792D01*
X193502D01*
X192502D01*
X189003D02*
X191003D01*
X189003Y164792D01*
Y165292D01*
X189503Y165791D01*
X190503D01*
X191003Y165292D01*
X186004D02*
X186504Y165791D01*
X187504D01*
X188004Y165292D01*
Y163292D01*
X187504Y162792D01*
X186504D01*
X186004Y163292D01*
X185005Y162293D02*
X183005D01*
X180006Y165292D02*
X180506Y165791D01*
X181506D01*
X182006Y165292D01*
Y164792D01*
X181506Y164292D01*
X180506D01*
X180006Y163792D01*
Y163292D01*
X180506Y162792D01*
X181506D01*
X182006Y163292D01*
X177007Y165292D02*
X177507Y165791D01*
X178507D01*
X179007Y165292D01*
Y163292D01*
X178507Y162792D01*
X177507D01*
X177007Y163292D01*
X176008Y165791D02*
Y162792D01*
X174008D01*
X173009Y165292D02*
X172509Y165791D01*
X171509D01*
X171009Y165292D01*
Y164792D01*
X171509Y164292D01*
X172009D01*
X171509D01*
X171009Y163792D01*
Y163292D01*
X171509Y162792D01*
X172509D01*
X173009Y163292D01*
X167010Y165791D02*
X166011D01*
X166511D01*
Y162792D01*
X167010D01*
X166011D01*
X163012Y165791D02*
X164012D01*
X164511Y165292D01*
Y163292D01*
X164012Y162792D01*
X163012D01*
X162512Y163292D01*
Y165292D01*
X163012Y165791D01*
X159513Y162792D02*
X161512D01*
X159513Y164792D01*
Y165292D01*
X160013Y165791D01*
X161012D01*
X161512Y165292D01*
X158513D02*
X158013Y165791D01*
X157014D01*
X156514Y165292D01*
Y164792D01*
X157014Y164292D01*
X157514D01*
X157014D01*
X156514Y163792D01*
Y163292D01*
X157014Y162792D01*
X158013D01*
X158513Y163292D01*
X193502Y160493D02*
X192502D01*
X193002D01*
Y157494D01*
X193502D01*
X192502D01*
X189003D02*
X191003D01*
X189003Y159493D01*
Y159993D01*
X189503Y160493D01*
X190503D01*
X191003Y159993D01*
X186004D02*
X186504Y160493D01*
X187504D01*
X188004Y159993D01*
Y157994D01*
X187504Y157494D01*
X186504D01*
X186004Y157994D01*
X185005Y156994D02*
X183005D01*
X180006Y159993D02*
X180506Y160493D01*
X181506D01*
X182006Y159993D01*
Y159493D01*
X181506Y158993D01*
X180506D01*
X180006Y158493D01*
Y157994D01*
X180506Y157494D01*
X181506D01*
X182006Y157994D01*
X179007Y160493D02*
Y157494D01*
X177507D01*
X177007Y157994D01*
Y159993D01*
X177507Y160493D01*
X179007D01*
X176008Y157494D02*
Y159493D01*
X175008Y160493D01*
X174008Y159493D01*
Y157494D01*
Y158993D01*
X176008D01*
X173009Y159993D02*
X172509Y160493D01*
X171509D01*
X171009Y159993D01*
Y159493D01*
X171509Y158993D01*
X172009D01*
X171509D01*
X171009Y158493D01*
Y157994D01*
X171509Y157494D01*
X172509D01*
X173009Y157994D01*
X167010Y160493D02*
X166011D01*
X166511D01*
Y157494D01*
X167010D01*
X166011D01*
X163012Y160493D02*
X164012D01*
X164511Y159993D01*
Y157994D01*
X164012Y157494D01*
X163012D01*
X162512Y157994D01*
Y159993D01*
X163012Y160493D01*
X159513Y157494D02*
X161512D01*
X159513Y159493D01*
Y159993D01*
X160013Y160493D01*
X161012D01*
X161512Y159993D01*
X156514Y160493D02*
X158513D01*
Y158993D01*
X157514Y159493D01*
X157014D01*
X156514Y158993D01*
Y157994D01*
X157014Y157494D01*
X158013D01*
X158513Y157994D01*
X193502Y152195D02*
Y155194D01*
X192002D01*
X191503Y154694D01*
Y153695D01*
X192002Y153195D01*
X193502D01*
X192502D02*
X191503Y152195D01*
X190503Y155194D02*
X188504Y152195D01*
Y155194D02*
X190503Y152195D01*
X187504Y155194D02*
Y152195D01*
X186004D01*
X185504Y152695D01*
Y154694D01*
X186004Y155194D01*
X187504D01*
X182506Y152195D02*
X184505D01*
X182506Y154194D01*
Y154694D01*
X183005Y155194D01*
X184005D01*
X184505Y154694D01*
X178507Y155194D02*
X177507D01*
X178007D01*
Y152195D01*
X178507D01*
X177507D01*
X174508Y155194D02*
X175508D01*
X176008Y154694D01*
Y152695D01*
X175508Y152195D01*
X174508D01*
X174008Y152695D01*
Y154694D01*
X174508Y155194D01*
X173009Y154694D02*
X172509Y155194D01*
X171509D01*
X171009Y154694D01*
Y154194D01*
X171509Y153695D01*
X172009D01*
X171509D01*
X171009Y153195D01*
Y152695D01*
X171509Y152195D01*
X172509D01*
X173009Y152695D01*
X168010Y152195D02*
X170010D01*
X168010Y154194D01*
Y154694D01*
X168510Y155194D01*
X169510D01*
X170010Y154694D01*
X193502Y150395D02*
X191503D01*
X192502D01*
Y147396D01*
X190503Y150395D02*
X188504Y147396D01*
Y150395D02*
X190503Y147396D01*
X187504Y150395D02*
Y147396D01*
X186004D01*
X185504Y147896D01*
Y149895D01*
X186004Y150395D01*
X187504D01*
X182506Y147396D02*
X184505D01*
X182506Y149396D01*
Y149895D01*
X183005Y150395D01*
X184005D01*
X184505Y149895D01*
X178507Y150395D02*
X177507D01*
X178007D01*
Y147396D01*
X178507D01*
X177507D01*
X174508Y150395D02*
X175508D01*
X176008Y149895D01*
Y147896D01*
X175508Y147396D01*
X174508D01*
X174008Y147896D01*
Y149895D01*
X174508Y150395D01*
X173009Y149895D02*
X172509Y150395D01*
X171509D01*
X171009Y149895D01*
Y149396D01*
X171509Y148896D01*
X172009D01*
X171509D01*
X171009Y148396D01*
Y147896D01*
X171509Y147396D01*
X172509D01*
X173009Y147896D01*
X170010Y149895D02*
X169510Y150395D01*
X168510D01*
X168010Y149895D01*
Y149396D01*
X168510Y148896D01*
X169010D01*
X168510D01*
X168010Y148396D01*
Y147896D01*
X168510Y147396D01*
X169510D01*
X170010Y147896D01*
X198001Y145596D02*
X199000D01*
X199500Y145097D01*
Y143097D01*
X199000Y142597D01*
X198001D01*
X197501Y143097D01*
Y145097D01*
X198001Y145596D01*
X196501D02*
Y142597D01*
X194502D01*
X191503Y145596D02*
X193502D01*
Y142597D01*
X191503D01*
X193502Y144097D02*
X192502D01*
X190503Y145596D02*
Y142597D01*
X189003D01*
X188504Y143097D01*
Y145097D01*
X189003Y145596D01*
X190503D01*
X193502Y140798D02*
X192502D01*
X193002D01*
Y137799D01*
X193502D01*
X192502D01*
X189003D02*
X191003D01*
X189003Y139798D01*
Y140298D01*
X189503Y140798D01*
X190503D01*
X191003Y140298D01*
X186004D02*
X186504Y140798D01*
X187504D01*
X188004Y140298D01*
Y138298D01*
X187504Y137799D01*
X186504D01*
X186004Y138298D01*
X185005Y137299D02*
X183005D01*
X180006Y140298D02*
X180506Y140798D01*
X181506D01*
X182006Y140298D01*
Y139798D01*
X181506Y139298D01*
X180506D01*
X180006Y138798D01*
Y138298D01*
X180506Y137799D01*
X181506D01*
X182006Y138298D01*
X177007Y140298D02*
X177507Y140798D01*
X178507D01*
X179007Y140298D01*
Y138298D01*
X178507Y137799D01*
X177507D01*
X177007Y138298D01*
X176008Y140798D02*
Y137799D01*
X174008D01*
X171509D02*
Y140798D01*
X173009Y139298D01*
X171009D01*
X167010Y140798D02*
X166011D01*
X166511D01*
Y137799D01*
X167010D01*
X166011D01*
X163012Y140798D02*
X164012D01*
X164511Y140298D01*
Y138298D01*
X164012Y137799D01*
X163012D01*
X162512Y138298D01*
Y140298D01*
X163012Y140798D01*
X161512Y137799D02*
X160513D01*
X161012D01*
Y140798D01*
X161512Y140298D01*
X159013Y138298D02*
X158513Y137799D01*
X157514D01*
X157014Y138298D01*
Y140298D01*
X157514Y140798D01*
X158513D01*
X159013Y140298D01*
Y139798D01*
X158513Y139298D01*
X157014D01*
X193502Y135499D02*
X192502D01*
X193002D01*
Y132500D01*
X193502D01*
X192502D01*
X189003D02*
X191003D01*
X189003Y134499D01*
Y134999D01*
X189503Y135499D01*
X190503D01*
X191003Y134999D01*
X186004D02*
X186504Y135499D01*
X187504D01*
X188004Y134999D01*
Y133000D01*
X187504Y132500D01*
X186504D01*
X186004Y133000D01*
X185005Y132000D02*
X183005D01*
X180006Y134999D02*
X180506Y135499D01*
X181506D01*
X182006Y134999D01*
Y134499D01*
X181506Y133999D01*
X180506D01*
X180006Y133500D01*
Y133000D01*
X180506Y132500D01*
X181506D01*
X182006Y133000D01*
X179007Y135499D02*
Y132500D01*
X177507D01*
X177007Y133000D01*
Y134999D01*
X177507Y135499D01*
X179007D01*
X176008Y132500D02*
Y134499D01*
X175008Y135499D01*
X174008Y134499D01*
Y132500D01*
Y133999D01*
X176008D01*
X171509Y132500D02*
Y135499D01*
X173009Y133999D01*
X171009D01*
X167010Y135499D02*
X166011D01*
X166511D01*
Y132500D01*
X167010D01*
X166011D01*
X163012Y135499D02*
X164012D01*
X164511Y134999D01*
Y133000D01*
X164012Y132500D01*
X163012D01*
X162512Y133000D01*
Y134999D01*
X163012Y135499D01*
X161512Y132500D02*
X160513D01*
X161012D01*
Y135499D01*
X161512Y134999D01*
X159013D02*
X158513Y135499D01*
X157514D01*
X157014Y134999D01*
Y134499D01*
X157514Y133999D01*
X157014Y133500D01*
Y133000D01*
X157514Y132500D01*
X158513D01*
X159013Y133000D01*
Y133500D01*
X158513Y133999D01*
X159013Y134499D01*
Y134999D01*
X158513Y133999D02*
X157514D01*
X167159Y316868D02*
X167592Y317301D01*
X168458D01*
X168892Y316868D01*
Y315135D01*
X168458Y314702D01*
X167592D01*
X167159Y315135D01*
Y316001D01*
X168025D01*
X166293Y314702D02*
Y317301D01*
X164560Y314702D01*
Y317301D01*
X163693D02*
Y314702D01*
X162394D01*
X161961Y315135D01*
Y316868D01*
X162394Y317301D01*
X163693D01*
X158495D02*
Y315568D01*
X157629Y314702D01*
X156762Y315568D01*
Y317301D01*
X154163Y316868D02*
X154596Y317301D01*
X155463D01*
X155896Y316868D01*
Y315135D01*
X155463Y314702D01*
X154596D01*
X154163Y315135D01*
X151564Y316868D02*
X151997Y317301D01*
X152864D01*
X153297Y316868D01*
Y315135D01*
X152864Y314702D01*
X151997D01*
X151564Y315135D01*
X221287Y134500D02*
X223786D01*
X224286Y134000D01*
Y133001D01*
X223786Y132501D01*
X221287D01*
X224286Y129502D02*
Y131501D01*
X222287Y129502D01*
X221787D01*
X221287Y130001D01*
Y131001D01*
X221787Y131501D01*
X222287Y178000D02*
X224786D01*
X225286Y177500D01*
Y176500D01*
X224786Y176001D01*
X222287D01*
X225286Y175001D02*
Y174001D01*
Y174501D01*
X222287D01*
X222787Y175001D01*
D102*
X203700Y220799D02*
Y224798D01*
X200701D01*
X199701Y223798D01*
Y220799D01*
X197702Y224798D02*
Y221799D01*
X196702Y220799D01*
X193703D01*
Y219800D01*
X194703Y218800D01*
X195703D01*
X193703Y220799D02*
Y224798D01*
X190704D02*
X188705D01*
X187705Y223798D01*
Y220799D01*
X190704D01*
X191704Y221799D01*
X190704Y222799D01*
X187705D01*
X185706Y220799D02*
Y224798D01*
X182707D01*
X181707Y223798D01*
Y220799D01*
X179708Y223798D02*
X175709D01*
X173710Y220799D02*
X170711D01*
X169711Y221799D01*
X170711Y222799D01*
X172710D01*
X173710Y223798D01*
X172710Y224798D01*
X169711D01*
X166712D02*
X164713D01*
X163713Y223798D01*
Y220799D01*
X166712D01*
X167712Y221799D01*
X166712Y222799D01*
X163713D01*
X160714Y225798D02*
Y224798D01*
X161714D01*
X159714D01*
X160714D01*
Y221799D01*
X159714Y220799D01*
X156715D02*
Y221799D01*
X155716D01*
Y220799D01*
X156715D01*
X147718Y224798D02*
X150717D01*
X151717Y223798D01*
Y221799D01*
X150717Y220799D01*
X147718D01*
X144719D02*
X142720D01*
X141720Y221799D01*
Y223798D01*
X142720Y224798D01*
X144719D01*
X145719Y223798D01*
Y221799D01*
X144719Y220799D01*
X139721D02*
Y224798D01*
X138721D01*
X137721Y223798D01*
Y220799D01*
Y223798D01*
X136722Y224798D01*
X135722Y223798D01*
Y220799D01*
M02*
