G04*
G04 #@! TF.GenerationSoftware,Altium Limited,Altium Designer,20.1.14 (287)*
G04*
G04 Layer_Color=16711935*
%FSLAX25Y25*%
%MOIN*%
G70*
G04*
G04 #@! TF.SameCoordinates,C357774A-A1FF-41C0-A387-8AFBD113A784*
G04*
G04*
G04 #@! TF.FilePolarity,Positive*
G04*
G01*
G75*
%ADD12C,0.00787*%
%ADD119C,0.00394*%
D12*
X272228Y375847D02*
X275772D01*
X272228Y369153D02*
Y375847D01*
Y369153D02*
X275772D01*
Y375847D01*
X317728D02*
X321272D01*
X317728Y369153D02*
Y375847D01*
Y369153D02*
X321272D01*
Y375847D01*
X311228D02*
X314772D01*
X311228Y369153D02*
Y375847D01*
Y369153D02*
X314772D01*
Y375847D01*
X304728D02*
X308272D01*
X304728Y369153D02*
Y375847D01*
Y369153D02*
X308272D01*
Y375847D01*
X298228D02*
X301772D01*
X298228Y369153D02*
Y375847D01*
Y369153D02*
X301772D01*
Y375847D01*
X285228D02*
X288772D01*
X285228Y369153D02*
Y375847D01*
Y369153D02*
X288772D01*
Y375847D01*
X278728D02*
X282272D01*
X278728Y369153D02*
Y375847D01*
Y369153D02*
X282272D01*
Y375847D01*
X291728D02*
X295272D01*
X291728Y369153D02*
Y375847D01*
Y369153D02*
X295272D01*
Y375847D01*
X199728D02*
X203272D01*
X199728Y369153D02*
Y375847D01*
Y369153D02*
X203272D01*
Y375847D01*
X193228D02*
X196772D01*
X193228Y369153D02*
Y375847D01*
Y369153D02*
X196772D01*
Y375847D01*
X180228D02*
X183772D01*
X180228Y369153D02*
Y375847D01*
Y369153D02*
X183772D01*
Y375847D01*
X173728D02*
X177272D01*
X173728Y369153D02*
Y375847D01*
Y369153D02*
X177272D01*
Y375847D01*
X167228D02*
X170772D01*
X167228Y369153D02*
Y375847D01*
Y369153D02*
X170772D01*
Y375847D01*
X160728D02*
X164272D01*
X160728Y369153D02*
Y375847D01*
Y369153D02*
X164272D01*
Y375847D01*
X186728D02*
X190272D01*
X186728Y369153D02*
Y375847D01*
Y369153D02*
X190272D01*
Y375847D01*
X154228D02*
X157772D01*
X154228Y369153D02*
Y375847D01*
Y369153D02*
X157772D01*
Y375847D01*
X257728Y376346D02*
X261272D01*
X257728Y369654D02*
Y376346D01*
Y369654D02*
X261272D01*
Y376346D01*
X251228D02*
X254772D01*
X251228Y369654D02*
Y376346D01*
Y369654D02*
X254772D01*
Y376346D01*
X244728D02*
X248272D01*
X244728Y369654D02*
Y376346D01*
Y369654D02*
X248272D01*
Y376346D01*
X238228D02*
X241772D01*
X238228Y369654D02*
Y376346D01*
Y369654D02*
X241772D01*
Y376346D01*
X231728D02*
X235272D01*
X231728Y369654D02*
Y376346D01*
Y369654D02*
X235272D01*
Y376346D01*
X225228D02*
X228772D01*
X225228Y369654D02*
Y376346D01*
Y369654D02*
X228772D01*
Y376346D01*
X218728D02*
X222272D01*
X218728Y369654D02*
Y376346D01*
Y369654D02*
X222272D01*
Y376346D01*
X212228D02*
X215772D01*
X212228Y369654D02*
Y376346D01*
Y369654D02*
X215772D01*
Y376346D01*
X159335Y349185D02*
X230594D01*
Y248398D02*
Y349185D01*
X159335Y248398D02*
Y349185D01*
Y248398D02*
X230594D01*
X132153Y226272D02*
X138847D01*
Y222728D02*
Y226272D01*
X132153Y222728D02*
X138847D01*
X132153D02*
Y226272D01*
Y229228D02*
Y232772D01*
Y229228D02*
X138847D01*
Y232772D01*
X132153D02*
X138847D01*
X132153Y235728D02*
Y239272D01*
Y235728D02*
X138847D01*
Y239272D01*
X132153D02*
X138847D01*
X132201Y248728D02*
Y252272D01*
Y248728D02*
X138894D01*
Y252272D01*
X132201D02*
X138894D01*
X132201Y242228D02*
Y245772D01*
Y242228D02*
X138894D01*
Y245772D01*
X132201D02*
X138894D01*
X135630Y207055D02*
Y213945D01*
X139370D01*
Y207055D02*
Y213945D01*
X135630Y207055D02*
X139370D01*
X144630D02*
Y213945D01*
X148370D01*
Y207055D02*
Y213945D01*
X144630Y207055D02*
X148370D01*
X154283Y152697D02*
Y163917D01*
X160976D01*
Y152697D02*
Y163917D01*
X154283Y152697D02*
X160976D01*
X293870Y172055D02*
Y178945D01*
X290130Y172055D02*
X293870D01*
X290130D02*
Y178945D01*
X293870D01*
X293370Y139055D02*
Y145945D01*
X289630Y139055D02*
X293370D01*
X289630D02*
Y145945D01*
X293370D01*
X286154Y295118D02*
Y306339D01*
X292846D01*
Y295118D02*
Y306339D01*
X286154Y295118D02*
X292846D01*
X276904D02*
Y306339D01*
X283596D01*
Y295118D02*
Y306339D01*
X276904Y295118D02*
X283596D01*
X267653D02*
Y306339D01*
X274346D01*
Y295118D02*
Y306339D01*
X267653Y295118D02*
X274346D01*
X284630Y114945D02*
X288370D01*
X284630Y108055D02*
Y114945D01*
Y108055D02*
X288370D01*
Y114945D01*
X260630Y223555D02*
X264370D01*
Y230445D01*
X260630D02*
X264370D01*
X260630Y223555D02*
Y230445D01*
X211118Y142811D02*
Y169189D01*
Y142811D02*
X225685D01*
Y169189D01*
X211118D02*
X225685D01*
X198445Y177630D02*
Y181370D01*
X191555D02*
X198445D01*
X191555Y177630D02*
Y181370D01*
Y177630D02*
X198445D01*
X143283Y196618D02*
X149976D01*
X143283Y185398D02*
Y196618D01*
Y185398D02*
X149976D01*
Y196618D01*
X132783D02*
X139476D01*
X132783Y185398D02*
Y196618D01*
Y185398D02*
X139476D01*
Y196618D01*
X211020Y113756D02*
Y140134D01*
Y113756D02*
X225587D01*
Y140134D01*
X211020D02*
X225587D01*
X198402Y204634D02*
Y208374D01*
X191512D02*
X198402D01*
X191512Y204634D02*
Y208374D01*
Y204634D02*
X198402D01*
X144228Y327153D02*
X147772D01*
Y333846D01*
X144228D02*
X147772D01*
X144228Y327153D02*
Y333846D01*
X182677Y134965D02*
X186417D01*
X182677Y128075D02*
Y134965D01*
Y128075D02*
X186417D01*
Y134965D01*
X174177D02*
X177917D01*
X174177Y128075D02*
Y134965D01*
Y128075D02*
X177917D01*
Y134965D01*
D119*
X316653Y415224D02*
G03*
X316653Y415224I-1969J0D01*
G01*
X201654Y414917D02*
G03*
X201654Y414917I-1969J0D01*
G01*
X256653Y415224D02*
G03*
X256653Y415224I-1969J0D01*
G01*
X316480Y192000D02*
G03*
X316480Y192000I-12402J0D01*
G01*
Y218000D02*
G03*
X316480Y218000I-12402J0D01*
G01*
X122954Y140760D02*
G03*
X122075Y140347I0J-1142D01*
G01*
X130453Y169697D02*
G03*
X129690Y169106I0J-787D01*
G01*
X122075Y168338D02*
G03*
X122954Y167925I879J729D01*
G01*
X133184Y169106D02*
G03*
X132421Y169697I-762J-197D01*
G01*
X129690Y139579D02*
G03*
X130453Y138988I762J197D01*
G01*
X132421D02*
G03*
X133184Y139579I0J787D01*
G01*
X175172Y159595D02*
G03*
X175172Y159595I-1969J0D01*
G01*
X257630Y358555D02*
X261370D01*
X257630Y365445D02*
X261370D01*
X257630Y358555D02*
Y365445D01*
X261370Y358555D02*
Y365445D01*
X244630Y358555D02*
X248370D01*
X244630Y365445D02*
X248370D01*
X244630Y358555D02*
Y365445D01*
X248370Y358555D02*
Y365445D01*
X265130Y359055D02*
X268870D01*
X265130Y365945D02*
X268870D01*
X265130Y359055D02*
Y365945D01*
X268870Y359055D02*
Y365945D01*
X206130Y358614D02*
X209870D01*
X206130Y365504D02*
X209870D01*
X206130Y358614D02*
Y365504D01*
X209870Y358614D02*
Y365504D01*
X147630Y358555D02*
X151370D01*
X147630Y365445D02*
X151370D01*
X147630Y358555D02*
Y365445D01*
X151370Y358555D02*
Y365445D01*
X271772Y418768D02*
X318228D01*
X271772Y388846D02*
X318228D01*
Y418768D01*
X271772Y388846D02*
Y418768D01*
X278630Y358555D02*
X282370D01*
X278630Y365445D02*
X282370D01*
X278630Y358555D02*
Y365445D01*
X282370Y358555D02*
Y365445D01*
X285130Y358555D02*
X288870D01*
X285130Y365445D02*
X288870D01*
X285130Y358555D02*
Y365445D01*
X288870Y358555D02*
Y365445D01*
X298130Y358555D02*
X301870D01*
X298130Y365445D02*
X301870D01*
X298130Y358555D02*
Y365445D01*
X301870Y358555D02*
Y365445D01*
X272130Y358555D02*
X275870D01*
X272130Y365445D02*
X275870D01*
X272130Y358555D02*
Y365445D01*
X275870Y358555D02*
Y365445D01*
X317630Y358555D02*
X321370D01*
X317630Y365445D02*
X321370D01*
X317630Y358555D02*
Y365445D01*
X321370Y358555D02*
Y365445D01*
X291630Y358555D02*
X295370D01*
X291630Y365445D02*
X295370D01*
X291630Y358555D02*
Y365445D01*
X295370Y358555D02*
Y365445D01*
X304630Y358555D02*
X308370D01*
X304630Y365445D02*
X308370D01*
X304630Y358555D02*
Y365445D01*
X308370Y358555D02*
Y365445D01*
X311130Y358555D02*
X314870D01*
X311130Y365445D02*
X314870D01*
X311130Y358555D02*
Y365445D01*
X314870Y358555D02*
Y365445D01*
X238130Y358555D02*
X241870D01*
X238130Y365445D02*
X241870D01*
X238130Y358555D02*
Y365445D01*
X241870Y358555D02*
Y365445D01*
X193130Y358555D02*
X196870D01*
X193130Y365445D02*
X196870D01*
X193130Y358555D02*
Y365445D01*
X196870Y358555D02*
Y365445D01*
X186630Y358555D02*
X190370D01*
X186630Y365445D02*
X190370D01*
X186630Y358555D02*
Y365445D01*
X190370Y358555D02*
Y365445D01*
X199630Y358555D02*
X203370D01*
X199630Y365445D02*
X203370D01*
X199630Y358555D02*
Y365445D01*
X203370Y358555D02*
Y365445D01*
X180130Y358555D02*
X183870D01*
X180130Y365445D02*
X183870D01*
X180130Y358555D02*
Y365445D01*
X183870Y358555D02*
Y365445D01*
X173630Y358555D02*
X177370D01*
X173630Y365445D02*
X177370D01*
X173630Y358555D02*
Y365445D01*
X177370Y358555D02*
Y365445D01*
X156772Y418461D02*
X203228D01*
X156772Y388539D02*
X203228D01*
Y418461D01*
X156772Y388539D02*
Y418461D01*
X167130Y358555D02*
X170870D01*
X167130Y365445D02*
X170870D01*
X167130Y358555D02*
Y365445D01*
X170870Y358555D02*
Y365445D01*
X160630Y358555D02*
X164370D01*
X160630Y365445D02*
X164370D01*
X160630Y358555D02*
Y365445D01*
X164370Y358555D02*
Y365445D01*
X154130Y358398D02*
X157870D01*
X154130Y365287D02*
X157870D01*
X154130Y358398D02*
Y365287D01*
X157870Y358398D02*
Y365287D01*
X211772Y418768D02*
X258228D01*
X211772Y388846D02*
X258228D01*
Y418768D01*
X211772Y388846D02*
Y418768D01*
X251130Y358555D02*
X254870D01*
X251130Y365445D02*
X254870D01*
X251130Y358555D02*
Y365445D01*
X254870Y358555D02*
Y365445D01*
X231630Y358555D02*
X235370D01*
X231630Y365445D02*
X235370D01*
X231630Y358555D02*
Y365445D01*
X235370Y358555D02*
Y365445D01*
X225130Y358555D02*
X228870D01*
X225130Y365445D02*
X228870D01*
X225130Y358555D02*
Y365445D01*
X228870Y358555D02*
Y365445D01*
X218630Y358555D02*
X222370D01*
X218630Y365445D02*
X222370D01*
X218630Y358555D02*
Y365445D01*
X222370Y358555D02*
Y365445D01*
X212130Y358555D02*
X215870D01*
X212130Y365445D02*
X215870D01*
X212130Y358555D02*
Y365445D01*
X215870Y358555D02*
Y365445D01*
X149945Y229130D02*
Y232870D01*
X143055Y229130D02*
Y232870D01*
Y229130D02*
X149945D01*
X143055Y232870D02*
X149945D01*
X132457Y331532D02*
X139543D01*
X132457Y335469D02*
X139543D01*
Y331532D02*
Y335469D01*
X132457Y331532D02*
Y335469D01*
X149945Y222630D02*
Y226370D01*
X143055Y222630D02*
Y226370D01*
Y222630D02*
X149945D01*
X143055Y226370D02*
X149945D01*
Y235630D02*
Y239370D01*
X143055Y235630D02*
Y239370D01*
Y235630D02*
X149945D01*
X143055Y239370D02*
X149945D01*
X149992Y248630D02*
Y252370D01*
X143102Y248630D02*
Y252370D01*
Y248630D02*
X149992D01*
X143102Y252370D02*
X149992D01*
X149945Y242130D02*
Y245870D01*
X143055Y242130D02*
Y245870D01*
Y242130D02*
X149945D01*
X143055Y245870D02*
X149945D01*
X156803Y218697D02*
X160543D01*
X156803Y211807D02*
X160543D01*
Y218697D01*
X156803Y211807D02*
Y218697D01*
X165803D02*
X169543D01*
X165803Y211807D02*
X169543D01*
Y218697D01*
X165803Y211807D02*
Y218697D01*
X175016Y219386D02*
X180331D01*
X175016Y211118D02*
X180331D01*
Y219386D01*
X175016Y211118D02*
Y219386D01*
X262968Y298713D02*
Y305799D01*
X259032Y298713D02*
Y305799D01*
X262968D01*
X259032Y298713D02*
X262968D01*
X262339Y282095D02*
X279661D01*
X262339Y243905D02*
Y282095D01*
Y243905D02*
X279661D01*
Y282095D01*
X240555Y283130D02*
Y286870D01*
X247445Y283130D02*
Y286870D01*
X240555D02*
X247445D01*
X240555Y283130D02*
X247445D01*
X240555Y276830D02*
Y280570D01*
X247445Y276830D02*
Y280570D01*
X240555D02*
X247445D01*
X240555Y276830D02*
X247445D01*
X240555Y270530D02*
Y274270D01*
X247445Y270530D02*
Y274270D01*
X240555D02*
X247445D01*
X240555Y270530D02*
X247445D01*
X240555Y264230D02*
Y267970D01*
X247445Y264230D02*
Y267970D01*
X240555D02*
X247445D01*
X240555Y264230D02*
X247445D01*
X240555Y257930D02*
Y261670D01*
X247445Y257930D02*
Y261670D01*
X240555D02*
X247445D01*
X240555Y257930D02*
X247445D01*
X240555Y251630D02*
Y255370D01*
X247445Y251630D02*
Y255370D01*
X240555D02*
X247445D01*
X240555Y251630D02*
X247445D01*
X162764Y179106D02*
X177331D01*
X162764Y205484D02*
X177331D01*
Y179106D02*
Y205484D01*
X162764Y179106D02*
Y205484D01*
X282228Y230847D02*
X285772D01*
X282228Y224153D02*
X285772D01*
Y230847D01*
X282228Y224153D02*
Y230847D01*
X301555Y307663D02*
X308445D01*
X301555Y311403D02*
X308445D01*
Y307663D02*
Y311403D01*
X301555Y307663D02*
Y311403D01*
Y301296D02*
X308445D01*
X301555Y305037D02*
X308445D01*
Y301296D02*
Y305037D01*
X301555Y301296D02*
Y305037D01*
X301496Y294930D02*
X308386D01*
X301496Y298670D02*
X308386D01*
Y294930D02*
Y298670D01*
X301496Y294930D02*
Y298670D01*
X301555Y288563D02*
X308445D01*
X301555Y292303D02*
X308445D01*
Y288563D02*
Y292303D01*
X301555Y288563D02*
Y292303D01*
Y282196D02*
X308445D01*
X301555Y285937D02*
X308445D01*
Y282196D02*
Y285937D01*
X301555Y282196D02*
Y285937D01*
Y275830D02*
X308445D01*
X301555Y279570D02*
X308445D01*
Y275830D02*
Y279570D01*
X301555Y275830D02*
Y279570D01*
Y269463D02*
X308445D01*
X301555Y273203D02*
X308445D01*
Y269463D02*
Y273203D01*
X301555Y269463D02*
Y273203D01*
Y263097D02*
X308445D01*
X301555Y266837D02*
X308445D01*
Y263097D02*
Y266837D01*
X301555Y263097D02*
Y266837D01*
Y243997D02*
X308445D01*
X301555Y247737D02*
X308445D01*
Y243997D02*
Y247737D01*
X301555Y243997D02*
Y247737D01*
Y250363D02*
X308445D01*
X301555Y254103D02*
X308445D01*
Y250363D02*
Y254103D01*
X301555Y250363D02*
Y254103D01*
Y256730D02*
X308445D01*
X301555Y260470D02*
X308445D01*
Y256730D02*
Y260470D01*
X301555Y256730D02*
Y260470D01*
Y237630D02*
X308445D01*
X301555Y241370D02*
X308445D01*
Y237630D02*
Y241370D01*
X301555Y237630D02*
Y241370D01*
Y314030D02*
X308445D01*
X301555Y317770D02*
X308445D01*
Y314030D02*
Y317770D01*
X301555Y314030D02*
Y317770D01*
Y333130D02*
X308445D01*
X301555Y336870D02*
X308445D01*
Y333130D02*
Y336870D01*
X301555Y333130D02*
Y336870D01*
Y320396D02*
X308445D01*
X301555Y324137D02*
X308445D01*
Y320396D02*
Y324137D01*
X301555Y320396D02*
Y324137D01*
X301496Y326763D02*
X308386D01*
X301496Y330503D02*
X308386D01*
Y326763D02*
Y330503D01*
X301496Y326763D02*
Y330503D01*
X287728Y230799D02*
X291272D01*
X287728Y224106D02*
X291272D01*
Y230799D01*
X287728Y224106D02*
Y230799D01*
X282555Y289870D02*
X289445D01*
X282555Y286130D02*
X289445D01*
X282555D02*
Y289870D01*
X289445Y286130D02*
Y289870D01*
X161669Y173051D02*
Y176791D01*
X154780Y173051D02*
Y176791D01*
Y173051D02*
X161669D01*
X154780Y176791D02*
X161669D01*
X289728Y160153D02*
X293272D01*
X289728Y166847D02*
X293272D01*
X289728Y160153D02*
Y166847D01*
X293272Y160153D02*
Y166847D01*
X316858Y129815D02*
X349142D01*
Y169185D01*
X316858D02*
X349142D01*
X316858Y129815D02*
Y169185D01*
X122973Y166941D02*
X141476D01*
X122973Y141744D02*
X141476D01*
X121782Y139994D02*
X122691Y139240D01*
X121280Y166154D02*
X122203D01*
X121782Y168691D02*
X122691Y169445D01*
X121280Y142532D02*
X122203D01*
X122188Y170051D02*
X122691Y169445D01*
X122203Y142532D02*
Y166154D01*
X121280D02*
X121280Y166166D01*
X121280Y166178D01*
X121280Y166191D01*
X121281Y166203D01*
X121281Y166215D01*
X121282Y166228D01*
X121282Y166240D01*
X121283Y166252D01*
X121284Y166264D01*
X121286Y166277D01*
X121287Y166289D01*
X121288Y166301D01*
X121290Y166313D01*
X121291Y166325D01*
X121293Y166337D01*
X121295Y166349D01*
X121297Y166361D01*
X121299Y166373D01*
X121301Y166385D01*
X121304Y166397D01*
X121306Y166409D01*
X121309Y166420D01*
X121311Y166432D01*
X121314Y166443D01*
X121317Y166455D01*
X121320Y166466D01*
X121323Y166478D01*
X121326Y166489D01*
X121330Y166500D01*
X121333Y166511D01*
X121337Y166522D01*
X121340Y166533D01*
X121344Y166544D01*
X121348Y166554D01*
X121352Y166565D01*
X121356Y166576D01*
X121360Y166586D01*
X121364Y166596D01*
X121369Y166606D01*
X121373Y166616D01*
X121378Y166626D01*
X121383Y166636D01*
X121387Y166646D01*
X121392Y166656D01*
X121397Y166665D01*
X121402Y166674D01*
X121407Y166683D01*
X121413Y166693D01*
X121418Y166701D01*
X121423Y166710D01*
X121429Y166719D01*
X121434Y166727D01*
X121440Y166736D01*
X121446Y166744D01*
X121452Y166752D01*
X121458Y166760D01*
X121464Y166768D01*
X121470Y166776D01*
X121476Y166783D01*
X121482Y166791D01*
X121488Y166798D01*
X121495Y166805D01*
X121501Y166812D01*
X121508Y166818D01*
X121514Y166825D01*
X121521Y166831D01*
X121527Y166838D01*
X121534Y166844D01*
X121541Y166849D01*
X121548Y166855D01*
X121555Y166861D01*
X121562Y166866D01*
X121569Y166871D01*
X121576Y166876D01*
X121583Y166881D01*
X121590Y166886D01*
X121597Y166890D01*
X121604Y166894D01*
X121612Y166899D01*
X121619Y166902D01*
X121626Y166906D01*
X121634Y166910D01*
X121641Y166913D01*
X121649Y166916D01*
X121656Y166919D01*
X121663Y166922D01*
X121671Y166925D01*
X121679Y166927D01*
X121686Y166929D01*
X121694Y166931D01*
X121702Y166933D01*
X121709Y166935D01*
X121717Y166936D01*
X121724Y166937D01*
X121732Y166938D01*
X121740Y166939D01*
X121748Y166940D01*
X121755Y166941D01*
X121763Y166941D01*
X121771Y166941D01*
X122203Y166154D02*
X122203Y166166D01*
X122203Y166178D01*
X122203Y166191D01*
X122204Y166203D01*
X122204Y166215D01*
X122205Y166228D01*
X122206Y166240D01*
X122207Y166252D01*
X122208Y166264D01*
X122209Y166277D01*
X122210Y166289D01*
X122211Y166301D01*
X122213Y166313D01*
X122215Y166325D01*
X122216Y166337D01*
X122218Y166349D01*
X122220Y166361D01*
X122222Y166373D01*
X122224Y166385D01*
X122227Y166397D01*
X122229Y166409D01*
X122232Y166420D01*
X122234Y166432D01*
X122237Y166443D01*
X122240Y166455D01*
X122243Y166466D01*
X122246Y166478D01*
X122249Y166489D01*
X122253Y166500D01*
X122256Y166511D01*
X122260Y166522D01*
X122264Y166533D01*
X122267Y166544D01*
X122271Y166554D01*
X122275Y166565D01*
X122279Y166576D01*
X122283Y166586D01*
X122288Y166596D01*
X122292Y166606D01*
X122297Y166616D01*
X122301Y166626D01*
X122306Y166636D01*
X122311Y166646D01*
X122315Y166656D01*
X122320Y166665D01*
X122326Y166674D01*
X122331Y166683D01*
X122336Y166693D01*
X122341Y166701D01*
X122347Y166710D01*
X122352Y166719D01*
X122358Y166727D01*
X122363Y166736D01*
X122369Y166744D01*
X122375Y166752D01*
X122381Y166760D01*
X122387Y166768D01*
X122393Y166776D01*
X122399Y166783D01*
X122405Y166791D01*
X122411Y166798D01*
X122418Y166805D01*
X122424Y166812D01*
X122431Y166818D01*
X122437Y166825D01*
X122444Y166831D01*
X122450Y166838D01*
X122457Y166844D01*
X122464Y166849D01*
X122471Y166855D01*
X122478Y166861D01*
X122485Y166866D01*
X122492Y166871D01*
X122499Y166876D01*
X122506Y166881D01*
X122513Y166886D01*
X122520Y166890D01*
X122528Y166894D01*
X122535Y166899D01*
X122542Y166902D01*
X122549Y166906D01*
X122557Y166910D01*
X122564Y166913D01*
X122572Y166916D01*
X122579Y166919D01*
X122587Y166922D01*
X122594Y166925D01*
X122602Y166927D01*
X122609Y166929D01*
X122617Y166931D01*
X122625Y166933D01*
X122632Y166935D01*
X122640Y166936D01*
X122648Y166937D01*
X122655Y166938D01*
X122663Y166939D01*
X122671Y166940D01*
X122678Y166941D01*
X122686Y166941D01*
X122694Y166941D01*
X122686Y141744D02*
X122694Y141744D01*
X122678Y141744D02*
X122686Y141744D01*
X122671Y141745D02*
X122678Y141744D01*
X122663Y141746D02*
X122671Y141745D01*
X122655Y141746D02*
X122663Y141746D01*
X122648Y141748D02*
X122655Y141746D01*
X122640Y141749D02*
X122648Y141748D01*
X122632Y141750D02*
X122640Y141749D01*
X122625Y141752D02*
X122632Y141750D01*
X122617Y141754D02*
X122625Y141752D01*
X122609Y141756D02*
X122617Y141754D01*
X122602Y141758D02*
X122609Y141756D01*
X122594Y141761D02*
X122602Y141758D01*
X122587Y141763D02*
X122594Y141761D01*
X122579Y141766D02*
X122587Y141763D01*
X122572Y141769D02*
X122579Y141766D01*
X122564Y141772D02*
X122572Y141769D01*
X122557Y141775D02*
X122564Y141772D01*
X122549Y141779D02*
X122557Y141775D01*
X122542Y141783D02*
X122549Y141779D01*
X122535Y141787D02*
X122542Y141783D01*
X122528Y141791D02*
X122535Y141787D01*
X122520Y141795D02*
X122528Y141791D01*
X122513Y141799D02*
X122520Y141795D01*
X122506Y141804D02*
X122513Y141799D01*
X122499Y141809D02*
X122506Y141804D01*
X122492Y141814D02*
X122499Y141809D01*
X122485Y141819D02*
X122492Y141814D01*
X122478Y141824D02*
X122485Y141819D01*
X122471Y141830D02*
X122478Y141824D01*
X122464Y141836D02*
X122471Y141830D01*
X122457Y141841D02*
X122464Y141836D01*
X122450Y141848D02*
X122457Y141841D01*
X122444Y141854D02*
X122450Y141848D01*
X122437Y141860D02*
X122444Y141854D01*
X122431Y141867D02*
X122437Y141860D01*
X122424Y141873D02*
X122431Y141867D01*
X122418Y141880D02*
X122424Y141873D01*
X122411Y141887D02*
X122418Y141880D01*
X122405Y141894D02*
X122411Y141887D01*
X122399Y141902D02*
X122405Y141894D01*
X122393Y141909D02*
X122399Y141902D01*
X122387Y141917D02*
X122393Y141909D01*
X122381Y141925D02*
X122387Y141917D01*
X122375Y141933D02*
X122381Y141925D01*
X122369Y141941D02*
X122375Y141933D01*
X122363Y141949D02*
X122369Y141941D01*
X122358Y141957D02*
X122363Y141949D01*
X122352Y141966D02*
X122358Y141957D01*
X122347Y141975D02*
X122352Y141966D01*
X122341Y141983D02*
X122347Y141975D01*
X122336Y141992D02*
X122341Y141983D01*
X122331Y142002D02*
X122336Y141992D01*
X122326Y142011D02*
X122331Y142002D01*
X122320Y142020D02*
X122326Y142011D01*
X122315Y142030D02*
X122320Y142020D01*
X122311Y142039D02*
X122315Y142030D01*
X122306Y142049D02*
X122311Y142039D01*
X122301Y142059D02*
X122306Y142049D01*
X122297Y142069D02*
X122301Y142059D01*
X122292Y142079D02*
X122297Y142069D01*
X122288Y142089D02*
X122292Y142079D01*
X122283Y142099D02*
X122288Y142089D01*
X122279Y142110D02*
X122283Y142099D01*
X122275Y142120D02*
X122279Y142110D01*
X122271Y142131D02*
X122275Y142120D01*
X122267Y142141D02*
X122271Y142131D01*
X122264Y142152D02*
X122267Y142141D01*
X122260Y142163D02*
X122264Y142152D01*
X122256Y142174D02*
X122260Y142163D01*
X122253Y142185D02*
X122256Y142174D01*
X122249Y142196D02*
X122253Y142185D01*
X122246Y142208D02*
X122249Y142196D01*
X122243Y142219D02*
X122246Y142208D01*
X122240Y142230D02*
X122243Y142219D01*
X122237Y142242D02*
X122240Y142230D01*
X122234Y142253D02*
X122237Y142242D01*
X122232Y142265D02*
X122234Y142253D01*
X122229Y142276D02*
X122232Y142265D01*
X122227Y142288D02*
X122229Y142276D01*
X122224Y142300D02*
X122227Y142288D01*
X122222Y142312D02*
X122224Y142300D01*
X122220Y142324D02*
X122222Y142312D01*
X122218Y142336D02*
X122220Y142324D01*
X122216Y142348D02*
X122218Y142336D01*
X122215Y142360D02*
X122216Y142348D01*
X122213Y142372D02*
X122215Y142360D01*
X122211Y142384D02*
X122213Y142372D01*
X122210Y142396D02*
X122211Y142384D01*
X122209Y142408D02*
X122210Y142396D01*
X122208Y142421D02*
X122209Y142408D01*
X122207Y142433D02*
X122208Y142421D01*
X122206Y142445D02*
X122207Y142433D01*
X122205Y142457D02*
X122206Y142445D01*
X122204Y142470D02*
X122205Y142457D01*
X122204Y142482D02*
X122204Y142470D01*
X122203Y142494D02*
X122204Y142482D01*
X122203Y142507D02*
X122203Y142494D01*
X122203Y142519D02*
X122203Y142507D01*
X122203Y142532D02*
X122203Y142519D01*
X122691Y139240D02*
X122973Y139579D01*
X121763Y141744D02*
X121771Y141744D01*
X121755Y141744D02*
X121763Y141744D01*
X121748Y141745D02*
X121755Y141744D01*
X121740Y141746D02*
X121748Y141745D01*
X121732Y141746D02*
X121740Y141746D01*
X121724Y141748D02*
X121732Y141746D01*
X121717Y141749D02*
X121724Y141748D01*
X121709Y141750D02*
X121717Y141749D01*
X121702Y141752D02*
X121709Y141750D01*
X121694Y141754D02*
X121702Y141752D01*
X121686Y141756D02*
X121694Y141754D01*
X121679Y141758D02*
X121686Y141756D01*
X121671Y141761D02*
X121679Y141758D01*
X121663Y141763D02*
X121671Y141761D01*
X121656Y141766D02*
X121663Y141763D01*
X121649Y141769D02*
X121656Y141766D01*
X121641Y141772D02*
X121649Y141769D01*
X121634Y141775D02*
X121641Y141772D01*
X121626Y141779D02*
X121634Y141775D01*
X121619Y141783D02*
X121626Y141779D01*
X121612Y141787D02*
X121619Y141783D01*
X121604Y141791D02*
X121612Y141787D01*
X121597Y141795D02*
X121604Y141791D01*
X121590Y141799D02*
X121597Y141795D01*
X121583Y141804D02*
X121590Y141799D01*
X121576Y141809D02*
X121583Y141804D01*
X121569Y141814D02*
X121576Y141809D01*
X121562Y141819D02*
X121569Y141814D01*
X121555Y141824D02*
X121562Y141819D01*
X121548Y141830D02*
X121555Y141824D01*
X121541Y141836D02*
X121548Y141830D01*
X121534Y141841D02*
X121541Y141836D01*
X121527Y141848D02*
X121534Y141841D01*
X121521Y141854D02*
X121527Y141848D01*
X121514Y141860D02*
X121521Y141854D01*
X121508Y141867D02*
X121514Y141860D01*
X121501Y141873D02*
X121508Y141867D01*
X121495Y141880D02*
X121501Y141873D01*
X121488Y141887D02*
X121495Y141880D01*
X121482Y141894D02*
X121488Y141887D01*
X121476Y141902D02*
X121482Y141894D01*
X121470Y141909D02*
X121476Y141902D01*
X121464Y141917D02*
X121470Y141909D01*
X121458Y141925D02*
X121464Y141917D01*
X121452Y141933D02*
X121458Y141925D01*
X121446Y141941D02*
X121452Y141933D01*
X121440Y141949D02*
X121446Y141941D01*
X121434Y141957D02*
X121440Y141949D01*
X121429Y141966D02*
X121434Y141957D01*
X121423Y141975D02*
X121429Y141966D01*
X121418Y141983D02*
X121423Y141975D01*
X121413Y141992D02*
X121418Y141983D01*
X121407Y142002D02*
X121413Y141992D01*
X121402Y142011D02*
X121407Y142002D01*
X121397Y142020D02*
X121402Y142011D01*
X121392Y142030D02*
X121397Y142020D01*
X121387Y142039D02*
X121392Y142030D01*
X121383Y142049D02*
X121387Y142039D01*
X121378Y142059D02*
X121383Y142049D01*
X121373Y142069D02*
X121378Y142059D01*
X121369Y142079D02*
X121373Y142069D01*
X121364Y142089D02*
X121369Y142079D01*
X121360Y142099D02*
X121364Y142089D01*
X121356Y142110D02*
X121360Y142099D01*
X121352Y142120D02*
X121356Y142110D01*
X121348Y142131D02*
X121352Y142120D01*
X121344Y142141D02*
X121348Y142131D01*
X121340Y142152D02*
X121344Y142141D01*
X121337Y142163D02*
X121340Y142152D01*
X121333Y142174D02*
X121337Y142163D01*
X121330Y142185D02*
X121333Y142174D01*
X121326Y142196D02*
X121330Y142185D01*
X121323Y142208D02*
X121326Y142196D01*
X121320Y142219D02*
X121323Y142208D01*
X121317Y142230D02*
X121320Y142219D01*
X121314Y142242D02*
X121317Y142230D01*
X121311Y142253D02*
X121314Y142242D01*
X121309Y142265D02*
X121311Y142253D01*
X121306Y142276D02*
X121309Y142265D01*
X121304Y142288D02*
X121306Y142276D01*
X121301Y142300D02*
X121304Y142288D01*
X121299Y142312D02*
X121301Y142300D01*
X121297Y142324D02*
X121299Y142312D01*
X121295Y142336D02*
X121297Y142324D01*
X121293Y142348D02*
X121295Y142336D01*
X121291Y142360D02*
X121293Y142348D01*
X121290Y142372D02*
X121291Y142360D01*
X121288Y142384D02*
X121290Y142372D01*
X121287Y142396D02*
X121288Y142384D01*
X121286Y142408D02*
X121287Y142396D01*
X121284Y142421D02*
X121286Y142408D01*
X121283Y142433D02*
X121284Y142421D01*
X121282Y142445D02*
X121283Y142433D01*
X121282Y142457D02*
X121282Y142445D01*
X121281Y142470D02*
X121282Y142457D01*
X121281Y142482D02*
X121281Y142470D01*
X121280Y142494D02*
X121281Y142482D01*
X121280Y142507D02*
X121280Y142494D01*
X121280Y142519D02*
X121280Y142507D01*
X121280Y142532D02*
X121280Y142519D01*
X141476Y142532D02*
X142657D01*
X122954Y140760D02*
X122973D01*
X141476Y166154D02*
X142657D01*
X141476Y139579D02*
Y169106D01*
X121280Y169297D02*
X122188Y170051D01*
X121280Y139388D02*
X121782Y139994D01*
X122954Y167925D02*
X122973D01*
X121782Y168691D02*
X122075Y168338D01*
X142657Y142532D02*
Y166154D01*
X121280Y169297D02*
X121782Y168691D01*
X121771Y141744D02*
X122694D01*
X130453Y169697D02*
X132421D01*
X122691Y169445D02*
X122973Y169106D01*
Y139579D02*
Y169106D01*
X141476D01*
X122694Y141744D02*
X122973D01*
X121782Y139994D02*
X122075Y140347D01*
X122973Y139579D02*
X141476D01*
X121771Y166941D02*
X122694D01*
X130453Y138988D02*
X132421D01*
X121280Y142532D02*
Y166154D01*
X122188Y138634D02*
X122691Y139240D01*
X122694Y166941D02*
X122973D01*
X121280Y139388D02*
X122188Y138634D01*
X244028Y211705D02*
X284972D01*
X244028Y174894D02*
X284972D01*
Y211705D01*
X244028Y174894D02*
Y211705D01*
X244528Y123795D02*
X285472D01*
X244528Y160606D02*
X285472D01*
X244528Y123795D02*
Y160606D01*
X285472Y123795D02*
Y160606D01*
X245772Y107653D02*
Y114347D01*
X242228Y107653D02*
Y114347D01*
X245772D01*
X242228Y107653D02*
X245772D01*
X220110Y184689D02*
Y208311D01*
X233890Y184689D02*
Y208311D01*
X220110Y184689D02*
X233890D01*
X220110Y208311D02*
X233890D01*
X132555Y324130D02*
Y327870D01*
X139445Y324130D02*
Y327870D01*
X132555D02*
X139445D01*
X132555Y324130D02*
X139445D01*
X193630Y156055D02*
X197370D01*
X193630Y162945D02*
X197370D01*
X193630Y156055D02*
Y162945D01*
X197370Y156055D02*
Y162945D01*
X160803Y143472D02*
Y147213D01*
X154110Y143472D02*
Y147213D01*
Y143472D02*
X160803D01*
X154110Y147213D02*
X160803D01*
X166177Y128402D02*
X169917D01*
X166177Y135094D02*
X169917D01*
X166177Y128402D02*
Y135094D01*
X169917Y128402D02*
Y135094D01*
X205110Y184689D02*
Y208311D01*
X218890Y184689D02*
Y208311D01*
X205110Y184689D02*
X218890D01*
X205110Y208311D02*
X218890D01*
X250532Y298713D02*
X254468D01*
X250532Y305799D02*
X254468D01*
X250532Y298713D02*
Y305799D01*
X254468Y298713D02*
Y305799D01*
X190433Y145000D02*
X194173D01*
X190433Y151890D02*
X194173D01*
X190433Y145000D02*
Y151890D01*
X194173Y145000D02*
Y151890D01*
X196433Y151890D02*
X200173D01*
X196433Y145000D02*
X200173D01*
Y151890D01*
X196433Y145000D02*
Y151890D01*
X154055Y129630D02*
X160945D01*
X154055Y133370D02*
X160945D01*
Y129630D02*
Y133370D01*
X154055Y129630D02*
Y133370D01*
X198543Y195531D02*
Y199469D01*
X191457Y195531D02*
Y199469D01*
Y195531D02*
X198543D01*
X191457Y199469D02*
X198543D01*
X190898Y168532D02*
Y172468D01*
X197984Y168532D02*
Y172468D01*
X190898D02*
X197984D01*
X190898Y168532D02*
X197984D01*
X191457Y187531D02*
Y191469D01*
X198543Y187531D02*
Y191469D01*
X191457D02*
X198543D01*
X191457Y187531D02*
X198543D01*
X198638Y212535D02*
Y216472D01*
X191551Y212535D02*
Y216472D01*
Y212535D02*
X198638D01*
X191551Y216472D02*
X198638D01*
X169660Y147390D02*
X185408D01*
Y163138D01*
X169660Y147390D02*
Y163138D01*
X185408D01*
X193917Y128075D02*
Y134965D01*
X190177Y128075D02*
Y134965D01*
X193917D01*
X190177Y128075D02*
X193917D01*
X153323Y136185D02*
X161591D01*
X153323Y141500D02*
X161591D01*
Y136185D02*
Y141500D01*
X153323Y136185D02*
Y141500D01*
M02*
